<svg width="99" height="59" viewBox="0 0 99 59" fill="none" xmlns="http://www.w3.org/2000/svg">
<g id="banana">
<path id="Vector" d="M40.32 56.7301C52.44 59.3501 65.46 57.58 77.38 54.44C80.5099 53.7237 83.5347 52.608 86.38 51.1202C89.08 49.5802 91.29 47.3702 91.87 44.8102C92.0301 44.2914 91.9909 43.7315 91.76 43.2401C91.26 42.3401 89.89 41.9801 88.66 41.7701C85.851 41.2816 83 41.0772 80.15 41.16" fill="#A09D98"/>
<path id="Vector_2" d="M92.29 5.37978C106.29 17.9298 83.63 45.38 67.67 52.07C53.15 58.07 27.97 59.8198 10.25 46.9498C-7.47002 34.0798 7.41997 21.0299 14.06 22.5199C21.06 24.0899 34.95 24.3399 44.14 20.9599C53.33 17.5799 77.93 -7.45022 92.29 5.37978Z" fill="#DECD9E"/>
<path id="Vector_3" d="M13.46 32.53C16.46 32.75 19.41 32.8301 22.38 32.8201C25.35 32.8101 28.32 32.72 31.27 32.53C37.1686 32.1549 43.0332 31.3628 48.82 30.1599C50.2257 29.8094 51.6111 29.3821 52.97 28.8799C54.33 28.3699 55.68 27.7899 56.97 27.1799C58.26 26.5699 59.62 25.9099 60.97 25.1799C62.32 24.4499 63.56 23.77 64.85 23.05C69.99 20.05 74.99 16.87 79.93 13.52C77.73 15.52 75.4 17.42 73.02 19.23C71.8334 20.13 70.6233 21.0132 69.39 21.8799C68.1567 22.7465 66.91 23.5768 65.65 24.3701C63.1135 25.9871 60.4894 27.4627 57.79 28.79C55.0637 30.16 52.1924 31.2198 49.23 31.95C48.47 32.13 47.74 32.2399 47 32.3799L44.77 32.77C43.29 32.97 41.77 33.2101 40.3 33.3401C37.3 33.6901 34.3 33.8399 31.3 33.8999H29.05H26.81C25.31 33.8499 23.81 33.7999 22.32 33.6699C19.3454 33.4789 16.3861 33.0983 13.46 32.53Z" fill="#C2AA78"/>
<path id="Vector_4" d="M4.40002 41.22C21.86 58.87 45.76 56.82 64.64 53.03C77.53 50.45 107.91 19.3701 92.54 6.86011C95.58 21.2901 62.08 63.22 4.40002 41.22Z" fill="#A69169"/>
<path id="Vector_5" d="M31.92 57.3701C23.7575 56.1859 15.9939 53.0769 9.27002 48.3001C-2.04998 40.0701 -0.0699817 32.1001 1.27002 29.0601C3.66002 23.7801 9.91 19.8899 14.38 20.8999C20.9 22.3599 34.65 22.6599 43.52 19.3999C45.76 18.5799 49.21 16.21 53.2 13.47C64.6 5.64999 81.82 -6.17009 93.36 4.13991C97.29 7.64991 98.86 12.53 97.89 18.24C95.63 31.64 79.5 48.03 67.14 53.18C55.9846 57.696 43.8235 59.1429 31.92 57.3701ZM13.51 24.1101C11.07 23.7301 6.29003 26.11 4.34003 30.43C2.11003 35.37 4.54997 40.7601 11.22 45.6001C17.5238 50.0812 24.8051 52.995 32.46 54.1001C43.7639 55.7791 55.3111 54.3978 65.9 50.1001C77.24 45.3701 92.6 29.85 94.65 17.68C95.43 13.08 94.26 9.36013 91.18 6.61013C81.59 -1.95987 66.29 8.53997 55.12 16.2C50.95 19.07 47.34 21.55 44.71 22.51C34.81 26.15 20.34 25.6299 13.71 24.1299L13.51 24.1101Z" fill="black"/>
</g>
</svg>
