<svg width="129" height="114" viewBox="0 0 129 114" fill="none" xmlns="http://www.w3.org/2000/svg">
<path d="M28.45 85.18C28.5738 84.9656 28.7424 84.7804 28.9443 84.6372C29.1463 84.494 29.3767 84.396 29.62 84.35C30.0479 84.2579 30.4827 84.201 30.92 84.18C31.0861 84.1605 31.2539 84.1605 31.42 84.18C35.0423 84.6207 38.4192 86.2406 41.03 88.79C41.6582 89.4133 42.1786 90.1364 42.57 90.93C42.8718 91.523 43.0098 92.1858 42.97 92.85C42.9054 93.3932 42.6587 93.8986 42.2701 94.2836C41.8814 94.6686 41.3738 94.9105 40.83 94.97C40.6146 94.9562 40.407 94.8836 40.23 94.76C38.1753 93.5442 36.2073 92.1876 34.34 90.7C32.3693 89.129 30.5114 87.4215 28.78 85.59C28.6915 85.5014 28.608 85.408 28.53 85.31C28.4985 85.2699 28.4716 85.2262 28.45 85.18V85.18Z" fill="url(#paint0_linear_408_5651)"/>
<path d="M71.74 9.65004C71.33 9.90004 69.51 10.8301 69.17 11.0101C68.1114 11.5663 66.9645 11.9351 65.78 12.1001C62.1248 12.6387 58.393 12.2607 54.92 11.0001C54.4347 10.8871 53.9571 10.7435 53.49 10.5701C53.33 10.4901 50.77 8.26006 51.94 8.26006C54.44 5.83006 69.28 4.21004 71.74 9.65004Z" fill="url(#paint1_linear_408_5651)"/>
<path d="M43.79 96.7501C44.04 96.5801 44.2 96.5001 44.34 96.3801C44.9344 96.0134 45.4454 95.5263 45.84 94.9501C45.955 94.7618 46.1169 94.6067 46.31 94.5001C47.2507 93.8884 48.289 93.442 49.38 93.1801C49.547 93.1601 49.7004 93.0781 49.8097 92.9502C49.919 92.8224 49.9762 92.6581 49.97 92.4901C49.9597 92.322 49.8836 92.1648 49.7582 92.0525C49.6328 91.9402 49.4682 91.8819 49.3 91.8901C49.0243 91.8827 48.7496 91.9268 48.49 92.0201C47.8 92.2801 47.13 92.5901 46.49 92.8801C46.32 92.9501 46.16 93.0301 45.98 93.1201C45.9443 93.0434 45.9175 92.9629 45.9 92.8801C45.658 90.6023 44.6288 88.4804 42.99 86.8801C40.7069 84.5335 37.8952 82.7677 34.79 81.7301C33.2687 81.2188 31.6486 81.0715 30.06 81.3L29.51 81.36H29.31C29.37 81.2283 29.4169 81.091 29.45 80.9501C29.45 79.9434 29.47 78.9434 29.51 77.9501C29.5076 77.8033 29.4806 77.6579 29.43 77.5201C29.3963 77.3654 29.3055 77.229 29.1758 77.1382C29.0461 77.0474 28.8869 77.0088 28.73 77.0301C28.5745 77.0496 28.4315 77.1256 28.3283 77.2436C28.2251 77.3616 28.1688 77.5133 28.17 77.6701C28.17 77.8201 28.17 77.97 28.17 78.11C28.17 78.88 28.17 79.6601 28.17 80.4301C28.1538 81.0244 27.9229 81.5928 27.52 82.0301C27.4033 82.1698 27.3119 82.3288 27.25 82.5001C27.12 82.7801 27.02 83.0701 26.87 83.5001C26.68 83.3001 26.55 83.1701 26.43 83.0201C23.3698 79.3022 20.8669 75.1588 19 70.7201C15.9017 63.573 14.6997 55.7475 15.51 48.0001C16.3551 39.506 19.7901 31.4769 25.35 25.0001C30.4716 19.0087 37.1204 14.5163 44.59 12.0001C45.93 11.5301 47.3 11.1801 48.66 10.7901C48.85 10.7301 49.05 10.7001 49.28 10.6501C49.28 10.8101 49.21 10.9101 49.19 11.0201C49.1577 11.1464 49.1653 11.2796 49.2119 11.4014C49.2584 11.5232 49.3416 11.6276 49.45 11.7001C49.5539 11.778 49.6802 11.8201 49.81 11.8201C49.9398 11.8201 50.0661 11.778 50.17 11.7001C50.5304 11.4653 50.8655 11.1938 51.17 10.8901C51.57 10.4701 51.56 10.4501 52 10.8201C52.7273 11.413 53.5532 11.8733 54.44 12.1801C58.1679 13.5666 62.187 13.9829 66.12 13.3901C67.5829 13.1877 68.9906 12.6947 70.26 11.9401C70.71 11.6701 71.12 11.3301 71.59 10.9401C71.65 11.0301 71.74 11.1201 71.8 11.2201C72.3595 12.0633 73.1232 12.7513 74.02 13.2201C74.163 13.3016 74.3184 13.359 74.48 13.3901C74.6283 13.4214 74.7829 13.3999 74.9171 13.3293C75.0512 13.2586 75.1565 13.1434 75.2146 13.0034C75.2728 12.8634 75.2801 12.7075 75.2354 12.5626C75.1908 12.4177 75.0969 12.293 74.97 12.2101C74.68 12.0101 74.37 11.8501 74.09 11.6401C73.8125 11.4442 73.572 11.2003 73.38 10.9201C73.5114 10.9295 73.6419 10.9496 73.77 10.9801C77.8681 12.0547 81.8229 13.6158 85.55 15.6301C89.3697 17.6976 92.9255 20.2192 96.14 23.1401C98.9156 25.671 101.41 28.494 103.58 31.5601C106.328 35.4321 108.492 39.6877 110 44.1901C113 52.6683 113.349 61.8589 111 70.5401C109.329 76.6998 106.248 82.3863 102 87.1501C95.7412 94.2494 87.3719 99.156 78.12 101.15C73.2491 102.256 68.2352 102.593 63.26 102.15C62.96 102.15 62.67 102.08 62.38 102.05C62.09 102.02 62.09 102.05 61.94 102.05C61.647 102.022 61.3548 102.112 61.1279 102.299C60.901 102.487 60.7579 102.757 60.73 103.05C60.7163 103.194 60.7314 103.339 60.7744 103.478C60.8175 103.616 60.8875 103.744 60.9806 103.855C61.0737 103.965 61.1879 104.057 61.3165 104.123C61.4452 104.189 61.5858 104.229 61.73 104.24C62.0948 104.29 62.462 104.32 62.83 104.33C67.1448 104.686 71.4867 104.514 75.76 103.82C75.92 103.82 76.08 103.82 76.3 103.76C76.12 104.15 75.95 104.47 75.82 104.81C75.69 105.15 75.61 105.47 75.5 105.81C75.3347 105.787 75.171 105.754 75.01 105.71C73.3418 105.247 71.6081 105.064 69.88 105.17C68.63 105.17 67.38 105.25 66.13 105.27C64.7326 105.343 63.3423 105.517 61.97 105.79L61.25 105.91L60.86 105.35C60.45 104.76 60.05 104.17 59.62 103.59C59.5341 103.499 59.4719 103.389 59.4387 103.269C59.4056 103.148 59.4026 103.022 59.43 102.9C59.4908 102.646 59.4495 102.377 59.3149 102.153C59.1803 101.929 58.9632 101.766 58.71 101.7C58.4282 101.617 58.1408 101.553 57.85 101.51C53.3533 100.673 48.9837 99.2579 44.85 97.3C44.5 97.11 44.19 97.0001 43.79 96.7501ZM85.59 58.7501C85.44 58.6001 85.23 58.34 84.99 58.11C84.771 57.8878 84.5371 57.6806 84.29 57.4901C82.8675 56.3389 81.1608 55.5929 79.3498 55.3307C77.5388 55.0685 75.6906 55.2997 74 56.0001C72.6491 56.4673 71.4779 57.3448 70.65 58.5101C69.3244 60.3192 68.5971 62.4974 68.57 64.7401C68.57 65.6301 68.57 66.5101 68.65 67.3901C68.6563 67.5725 68.6831 67.7536 68.73 67.9301C68.7685 68.1029 68.872 68.2543 69.0191 68.353C69.1661 68.4516 69.3455 68.49 69.52 68.4601C69.6062 68.4446 69.6883 68.4119 69.7616 68.3639C69.8348 68.3159 69.8976 68.2537 69.9461 68.1808C69.9947 68.108 70.0281 68.0261 70.0442 67.94C70.0603 67.854 70.0589 67.7655 70.04 67.6801C70.04 66.9201 69.97 66.1701 69.91 65.4201C69.8194 63.552 70.271 61.6975 71.21 60.08C71.7631 59.0519 72.6041 58.2074 73.63 57.6501C75.1445 56.8307 76.8642 56.4682 78.5806 56.6067C80.297 56.7451 81.9364 57.3785 83.3 58.4301C84.3769 59.1899 85.2257 60.2298 85.7544 61.4371C86.2832 62.6444 86.4718 63.9733 86.3 65.2801C86.1372 66.891 85.5875 68.4388 84.6978 69.7917C83.8081 71.1445 82.6047 72.2624 81.19 73.05C79.75 73.91 78.19 74.5101 76.5 73.5901C76.3644 73.5231 76.208 73.5118 76.0642 73.5585C75.9203 73.6052 75.8004 73.7062 75.73 73.8401C75.6465 73.9627 75.6106 74.1117 75.629 74.2589C75.6474 74.4062 75.7189 74.5417 75.83 74.6401C75.9518 74.7536 76.09 74.848 76.24 74.9201C76.7652 75.2304 77.3711 75.3766 77.98 75.3401C78.6557 75.3139 79.3264 75.2133 79.98 75.0401C81.7669 74.4906 83.364 73.4513 84.59 72.0401C86.3535 70.183 87.4448 67.7892 87.69 65.2401C87.8011 64.0722 87.6721 62.8941 87.311 61.778C86.9499 60.6618 86.3642 59.6314 85.59 58.7501V58.7501ZM68.1 73.3401C69.9704 75.6624 72.6356 77.2087 75.58 77.6801C77.3291 78.0036 79.1333 77.8441 80.7984 77.2186C82.4636 76.593 83.9266 75.5252 85.0301 74.1301C85.1413 74.0065 85.2354 73.8686 85.31 73.7201C85.4135 73.5875 85.46 73.4192 85.4394 73.2523C85.4187 73.0854 85.3326 72.9335 85.2 72.83C85.0674 72.7266 84.8992 72.6801 84.7323 72.7007C84.5654 72.7214 84.4135 72.8075 84.31 72.9401C84.1714 73.0621 84.0472 73.1997 83.94 73.3501C83.258 74.1969 82.4152 74.9005 81.46 75.4201C80.393 76.0144 79.2122 76.3761 77.9954 76.4812C76.7785 76.5863 75.5532 76.4326 74.4 76.0301C72.3156 75.393 70.4616 74.1632 69.0641 72.4905C67.6667 70.8178 66.7862 68.7746 66.53 66.61C66.2977 65.3 66.3489 63.9554 66.6801 62.6669C67.0113 61.3783 67.6148 60.1757 68.45 59.1401C68.5318 59.04 68.5992 58.9289 68.65 58.8101C68.7083 58.6837 68.7252 58.5422 68.6983 58.4057C68.6713 58.2692 68.6019 58.1448 68.5 58.05C68.3841 57.9559 68.2394 57.9044 68.09 57.9044C67.9407 57.9044 67.7959 57.9559 67.68 58.05C67.5497 58.1489 67.4351 58.2669 67.34 58.4001C66.0705 59.9945 65.3015 61.9292 65.13 63.9601C64.9763 65.6425 65.1598 67.3387 65.6698 68.9494C66.1797 70.56 67.0059 72.0527 68.1 73.3401ZM70.62 14.5701C70.7315 14.4867 70.8138 14.3703 70.8551 14.2374C70.8964 14.1045 70.8946 13.9619 70.85 13.83C70.8195 13.7118 70.7513 13.6069 70.6556 13.531C70.5599 13.4552 70.4421 13.4127 70.32 13.4101C70.1373 13.4129 69.9558 13.4398 69.78 13.4901C69.3 13.6001 68.78 13.76 68.34 13.83C67.01 14.02 65.68 14.1901 64.34 14.3401C62.7846 14.5135 61.2123 14.4664 59.67 14.2001C58.54 14.0101 57.43 13.79 56.31 13.58C55.4214 13.4117 54.5601 13.1223 53.75 12.7201L52.52 12.0901C52.4467 12.042 52.3646 12.0091 52.2784 11.9931C52.1922 11.9772 52.1037 11.9785 52.0181 11.9972C51.9324 12.0158 51.8513 12.0513 51.7796 12.1016C51.7078 12.1519 51.6467 12.2159 51.6 12.2901C51.5091 12.4408 51.4803 12.6209 51.5195 12.7924C51.5587 12.964 51.6628 13.1137 51.81 13.2101C51.9376 13.3153 52.0789 13.4028 52.23 13.4701C53.5047 14.1748 54.8811 14.6774 56.31 14.9601L58.42 15.36C60.2037 15.7373 62.0316 15.8618 63.85 15.7301C65.37 15.5801 66.85 15.3901 68.4 15.1701C69.0151 15.0647 69.6229 14.9211 70.22 14.7401C70.3577 14.6944 70.4915 14.6376 70.62 14.5701V14.5701ZM83 32.2101C83.5844 32.9032 84.3515 33.4187 85.2141 33.698C86.0767 33.9773 87.0002 34.0092 87.88 33.7901C88.279 33.6577 88.628 33.4065 88.88 33.0701C88.9404 33.0077 88.988 32.934 89.0199 32.8533C89.0519 32.7725 89.0676 32.6863 89.0662 32.5995C89.0648 32.5126 89.0463 32.4269 89.0118 32.3473C88.9773 32.2676 88.9274 32.1955 88.865 32.1351C88.8026 32.0747 88.729 32.0271 88.6482 31.9952C88.5675 31.9632 88.4813 31.9475 88.3944 31.9489C88.3076 31.9503 88.2219 31.9688 88.1422 32.0033C88.0626 32.0378 87.9904 32.0877 87.93 32.1501C87.7669 32.2985 87.5813 32.42 87.38 32.5101C86.8341 32.6355 86.2656 32.6244 85.7249 32.4779C85.1843 32.3314 84.688 32.0539 84.2801 31.6701C83.9026 31.2741 83.6704 30.762 83.6214 30.2172C83.5723 29.6724 83.7094 29.127 84.01 28.6701C84.3247 28.1509 84.6827 27.6591 85.08 27.2001C85.38 26.8301 85.72 26.4901 86.02 26.1201C86.1385 26.0002 86.2049 25.8386 86.2049 25.6701C86.2049 25.5016 86.1385 25.3399 86.02 25.2201C85.8962 25.1055 85.7337 25.0419 85.565 25.0419C85.3963 25.0419 85.2338 25.1055 85.11 25.2201C85.0237 25.2864 84.9463 25.3637 84.88 25.4501C84.57 25.7901 84.26 26.1301 83.96 26.4501C83.4283 27.0118 82.9925 27.657 82.67 28.36C82.3581 28.9681 82.2236 29.6516 82.2819 30.3325C82.3403 31.0133 82.5892 31.664 83 32.2101V32.2101ZM44 34.83L44.18 35.0001C44.257 35.1101 44.3644 35.1953 44.489 35.2452C44.6137 35.2952 44.7502 35.3076 44.8819 35.2811C45.0135 35.2545 45.1345 35.1902 45.2301 35.0958C45.3257 35.0015 45.3917 34.8813 45.42 34.7501C45.5051 34.4719 45.5357 34.1799 45.51 33.8901C45.4412 33.0822 45.1769 32.3031 44.74 31.6201C44.4 31.0401 44.27 30.98 43.58 31.08C43.5472 31.0881 43.5128 31.0881 43.48 31.08C43.3651 30.8728 43.2382 30.6725 43.1 30.4801C43.011 30.3731 42.8887 30.2992 42.7527 30.2702C42.6167 30.2412 42.4748 30.2587 42.35 30.3201C42.2251 30.3793 42.1233 30.478 42.06 30.6009C41.9968 30.7238 41.9757 30.864 42 31.0001C42.0394 31.1599 42.0896 31.3169 42.15 31.4701C42.3243 31.8941 42.4615 32.3324 42.56 32.7801C42.7019 33.2071 42.7495 33.6597 42.6994 34.1069C42.6494 34.5541 42.5029 34.985 42.27 35.3701C42.1976 35.4897 42.1709 35.6316 42.1948 35.7694C42.2187 35.9072 42.2916 36.0317 42.4 36.1201C42.5009 36.2135 42.6288 36.2726 42.7654 36.2888C42.902 36.3049 43.0401 36.2774 43.16 36.2101C43.4723 36.0449 43.7088 35.7654 43.82 35.4301C43.83 35.2201 43.88 35.05 44 34.83ZM85.34 31.2801C85.4717 31.4195 85.6406 31.5182 85.8268 31.5643C86.013 31.6104 86.2085 31.602 86.39 31.5401C86.8578 31.4363 87.299 31.2371 87.6862 30.9549C88.0733 30.6727 88.3981 30.3136 88.64 29.9001C88.7277 29.7597 88.7823 29.6012 88.7996 29.4366C88.817 29.272 88.7966 29.1056 88.74 28.9501C88.7031 28.7969 88.6141 28.6612 88.4882 28.5664C88.3624 28.4715 88.2075 28.4233 88.05 28.4301C87.9003 28.4397 87.7594 28.5042 87.6543 28.6112C87.5491 28.7182 87.4871 28.8602 87.48 29.0101C87.4604 29.163 87.4084 29.3099 87.3273 29.441C87.2462 29.572 87.1381 29.6842 87.01 29.7701C86.8611 29.9199 86.6832 30.038 86.4873 30.1171C86.2913 30.1962 86.0813 30.2346 85.87 30.2301C85.7403 30.2147 85.6091 30.2414 85.4957 30.3062C85.3823 30.371 85.2926 30.4705 85.24 30.5901C85.1801 30.6974 85.1529 30.8199 85.1618 30.9425C85.1707 31.0651 85.2153 31.1825 85.29 31.2801H85.34ZM92.34 62.9601C92.1 63.1601 92.07 63.4201 92.17 63.8101C92.2832 64.174 92.3537 64.5498 92.38 64.9301C92.3665 65.2678 92.3162 65.6032 92.23 65.9301C92.1925 66.074 92.2047 66.2264 92.2645 66.3625C92.3244 66.4986 92.4286 66.6105 92.56 66.6801C92.6903 66.7508 92.8416 66.7726 92.9865 66.7415C93.1315 66.7103 93.2604 66.6282 93.35 66.5101C93.5013 66.3048 93.607 66.0695 93.66 65.8201C93.8106 65.0987 93.7692 64.3504 93.54 63.6501C93.4654 63.4283 93.3463 63.2242 93.19 63.05C93.1365 62.9859 93.0703 62.9334 92.9956 62.8958C92.9209 62.8583 92.8393 62.8365 92.7559 62.8318C92.6724 62.8272 92.5889 62.8397 92.5105 62.8686C92.432 62.8975 92.3604 62.9423 92.3 63.0001L92.34 62.9601ZM17.46 57.8501C17.3539 58.1163 17.2832 58.3954 17.25 58.6801C17.2669 59.2621 17.3136 59.8429 17.39 60.4201C17.39 60.8801 17.72 61.14 18.09 61.11C18.182 61.1029 18.2714 61.0768 18.3528 61.0334C18.4342 60.9901 18.5057 60.9304 18.563 60.8582C18.6203 60.7859 18.662 60.7025 18.6856 60.6134C18.7091 60.5243 18.7141 60.4312 18.7 60.3401C18.7 59.6701 18.62 58.9901 18.56 58.3401C18.5576 58.2187 18.5136 58.1017 18.4353 58.0089C18.357 57.9161 18.2493 57.8529 18.13 57.83C17.8935 57.8049 17.6547 57.8117 17.42 57.8501H17.46ZM19.52 64.0401C19.6094 64.1726 19.742 64.27 19.8952 64.3156C20.0484 64.3611 20.2127 64.3521 20.36 64.2901C20.513 64.2202 20.6324 64.0929 20.6923 63.9357C20.7522 63.7785 20.7478 63.604 20.68 63.4501C20.4854 62.9347 20.3772 62.3907 20.36 61.8401C20.3605 61.6813 20.301 61.5282 20.1935 61.4114C20.086 61.2946 19.9383 61.2227 19.78 61.2101C19.6213 61.1971 19.4633 61.243 19.3361 61.3388C19.2089 61.4347 19.1214 61.5739 19.09 61.7301C18.9641 62.5091 19.1013 63.3078 19.48 64.0001L19.52 64.0401ZM90.52 63.9501C90.5775 64.052 90.661 64.1368 90.762 64.1959C90.8631 64.2549 90.978 64.2861 91.095 64.2861C91.212 64.2861 91.327 64.2549 91.428 64.1959C91.529 64.1368 91.6126 64.052 91.67 63.9501C91.9596 63.3929 92.1202 62.7777 92.14 62.1501C92.1519 62.0667 92.1471 61.9818 92.1261 61.9002C92.1051 61.8186 92.0683 61.742 92.0177 61.6747C91.9671 61.6074 91.9037 61.5507 91.8312 61.5078C91.7587 61.465 91.6784 61.4369 91.595 61.425C91.4266 61.4012 91.2556 61.4452 91.1197 61.5474C90.9837 61.6496 90.8939 61.8016 90.87 61.9701C90.72 62.4601 90.58 62.9701 90.48 63.4601C90.4552 63.6398 90.462 63.8226 90.5 64.0001L90.52 63.9501Z" fill="url(#paint2_linear_408_5651)"/>
<path d="M19.93 28.85C16.5996 34.1896 14.4388 40.1745 13.59 46.41H13.47C13.3864 46.2837 13.3225 46.1455 13.28 46C13.2069 45.5102 13.1734 45.0152 13.18 44.52C13.3354 40.5294 14.2945 36.6112 16 33C16.48 32 17 31 17.51 29.94C17.5592 29.823 17.6328 29.7178 17.7259 29.6316C17.819 29.5454 17.9295 29.48 18.05 29.44C18.66 29.23 19.26 29 19.86 28.78L19.93 28.85Z" fill="url(#paint3_linear_408_5651)"/>
<path d="M112.48 45.09L114.88 46.35C114.88 46.54 114.82 46.81 114.77 47.08C114.33 49.6949 114.33 52.365 114.77 54.98C114.85 55.53 114.84 56.08 114.9 56.63C115.02 57.8 115.17 58.97 115.28 60.14C115.325 60.5387 115.325 60.9412 115.28 61.34C115.28 61.86 115.18 61.87 114.53 61.89C114.849 56.2127 114.154 50.524 112.48 45.09V45.09Z" fill="url(#paint4_linear_408_5651)"/>
<path d="M39 85.28C37.88 84.8 36.78 84.28 35.65 83.87C34.8059 83.5602 33.9444 83.2998 33.07 83.09C31.768 82.7051 30.3864 82.6775 29.07 83.01C29.156 82.9087 29.2613 82.8256 29.3798 82.7655C29.4982 82.7054 29.6275 82.6696 29.76 82.66C31.0614 82.4033 32.4034 82.4375 33.69 82.76C35.5192 83.2661 37.2524 84.0702 38.82 85.14C38.8848 85.1801 38.9452 85.227 39 85.28Z" fill="url(#paint5_linear_408_5651)"/>
<path d="M43.12 95.46C44.05 94.4 44.05 94.4 44.43 92.46C44.85 93.88 44.27 95.21 43.12 95.46Z" fill="url(#paint6_linear_408_5651)"/>
<path d="M83 32.21C82.5973 31.6701 82.3523 31.029 82.2923 30.3581C82.2322 29.6872 82.3595 29.0128 82.66 28.41C82.9976 27.7034 83.4505 27.0579 84 26.5C84.3 26.15 84.61 25.81 84.92 25.5C84.9863 25.4136 85.0637 25.3363 85.15 25.27C85.2739 25.1554 85.4363 25.0918 85.605 25.0918C85.7737 25.0918 85.9362 25.1554 86.06 25.27C86.1785 25.3898 86.245 25.5515 86.245 25.72C86.245 25.8885 86.1785 26.0502 86.06 26.17C85.76 26.54 85.42 26.88 85.12 27.25C84.7227 27.7091 84.3647 28.2008 84.05 28.72C83.7493 29.177 83.6124 29.7223 83.6614 30.2671C83.7104 30.8119 83.9426 31.3241 84.32 31.72C84.728 32.1039 85.2242 32.3813 85.7649 32.5278C86.3056 32.6743 86.874 32.6854 87.42 32.56C87.6213 32.4699 87.8069 32.3484 87.97 32.2C88.0304 32.1376 88.1025 32.0878 88.1822 32.0533C88.2619 32.0187 88.3476 32.0002 88.4344 31.9988C88.5212 31.9974 88.6075 32.0132 88.6883 32.0451C88.769 32.0771 88.8427 32.1246 88.905 32.185C88.9674 32.2454 89.0173 32.3175 89.0518 32.3972C89.0863 32.4769 89.1048 32.5626 89.1062 32.6494C89.1076 32.7362 89.0918 32.8225 89.0599 32.9032C89.028 32.9839 88.9804 33.0576 88.92 33.12C88.6679 33.4564 88.319 33.7076 87.92 33.84C87.0297 34.0614 86.0949 34.0259 85.224 33.7373C84.3532 33.4488 83.582 32.9192 83 32.21V32.21Z" fill="black"/>
<path d="M44 34.83C43.93 35.05 43.88 35.22 43.82 35.39C43.7088 35.7254 43.4723 36.0048 43.16 36.17C43.0401 36.2373 42.902 36.2649 42.7654 36.2487C42.6288 36.2325 42.5009 36.1734 42.4 36.08C42.2916 35.9916 42.2187 35.8671 42.1948 35.7293C42.1709 35.5915 42.1976 35.4496 42.27 35.33C42.5028 34.9449 42.6493 34.514 42.6994 34.0668C42.7495 33.6197 42.7019 33.167 42.56 32.74C42.4615 32.2923 42.3243 31.854 42.15 31.43C42.0912 31.2899 42.0411 31.1463 42 31C41.9757 30.8639 41.9968 30.7237 42.06 30.6008C42.1233 30.4779 42.2251 30.3792 42.35 30.32C42.4748 30.2587 42.6167 30.2411 42.7527 30.2701C42.8887 30.2991 43.011 30.3731 43.1 30.48C43.2382 30.6724 43.3651 30.8727 43.48 31.08C43.5128 31.088 43.5472 31.088 43.58 31.08C44.27 30.98 44.4 31.08 44.74 31.62C45.1769 32.303 45.4412 33.0821 45.51 33.89C45.5357 34.1798 45.5051 34.4718 45.42 34.75C45.3917 34.8813 45.3257 35.0014 45.2301 35.0957C45.1345 35.1901 45.0135 35.2544 44.8818 35.281C44.7502 35.3075 44.6137 35.2951 44.489 35.2452C44.3644 35.1952 44.257 35.11 44.18 35L44 34.83ZM44 34.18H44.1V33.88H44V34.18Z" fill="black"/>
<path d="M85.29 31.2801C85.2072 31.1877 85.1536 31.0729 85.1358 30.9502C85.1181 30.8274 85.1369 30.7021 85.19 30.5901C85.2426 30.4705 85.3323 30.371 85.4457 30.3062C85.5591 30.2414 85.6903 30.2147 85.82 30.2301C86.0313 30.2346 86.2412 30.1962 86.4372 30.1171C86.6331 30.038 86.8111 29.9199 86.96 29.7701C87.088 29.6842 87.1962 29.572 87.2773 29.441C87.3583 29.3099 87.4104 29.163 87.43 29.0101C87.437 28.8602 87.4991 28.7182 87.6042 28.6112C87.7094 28.5042 87.8503 28.4397 88 28.4301C88.1574 28.4234 88.3123 28.4715 88.4382 28.5664C88.564 28.6612 88.653 28.7969 88.69 28.9501C88.7465 29.1056 88.7669 29.272 88.7496 29.4366C88.7323 29.6012 88.6777 29.7597 88.59 29.9001C88.3481 30.3136 88.0233 30.6727 87.6362 30.9549C87.249 31.2371 86.8077 31.4363 86.34 31.5401C86.1585 31.602 85.9629 31.6104 85.7768 31.5643C85.5906 31.5182 85.4216 31.4195 85.29 31.2801Z" fill="black"/>
<path d="M92.3 63C92.4215 62.8971 92.5784 62.8458 92.7372 62.857C92.896 62.8682 93.0442 62.941 93.15 63.06C93.3063 63.2341 93.4253 63.4383 93.5 63.66C93.7292 64.3604 93.7706 65.1086 93.62 65.83C93.567 66.0794 93.4613 66.3147 93.31 66.52C93.2204 66.6381 93.0914 66.7202 92.9465 66.7514C92.8015 66.7826 92.6503 66.7608 92.52 66.69C92.3885 66.6204 92.2844 66.5085 92.2245 66.3724C92.1646 66.2363 92.1524 66.0839 92.19 65.94C92.2762 65.6131 92.3265 65.2778 92.34 64.94C92.3137 64.5598 92.2432 64.1839 92.13 63.82C92 63.42 92.06 63.16 92.3 63Z" fill="black"/>
<path d="M17.42 57.85C17.6424 57.8218 17.8676 57.8218 18.09 57.85C18.2093 57.8729 18.3171 57.9361 18.3953 58.0289C18.4736 58.1217 18.5176 58.2386 18.52 58.36C18.58 59.03 18.64 59.71 18.66 60.36C18.674 60.4512 18.6691 60.5442 18.6456 60.6334C18.622 60.7225 18.5803 60.8058 18.523 60.8781C18.4658 60.9504 18.3942 61.0101 18.3128 61.0534C18.2314 61.0968 18.1419 61.1229 18.05 61.13C17.68 61.13 17.4 60.9 17.35 60.44C17.2735 59.8628 17.2269 59.2821 17.21 58.7C17.2415 58.4086 17.3121 58.1226 17.42 57.85Z" fill="black"/>
<path d="M19.48 64C19.0786 63.3011 18.9269 62.4865 19.05 61.69C19.0813 61.5338 19.1689 61.3946 19.2961 61.2987C19.4233 61.2029 19.5812 61.1571 19.74 61.17C19.8983 61.1826 20.046 61.2545 20.1535 61.3713C20.261 61.4881 20.3205 61.6412 20.32 61.8C20.3372 62.3506 20.4454 62.8946 20.64 63.41C20.7078 63.564 20.7122 63.7384 20.6523 63.8956C20.5924 64.0528 20.473 64.1801 20.32 64.25C20.1727 64.3121 20.0084 64.3211 19.8552 64.2755C19.702 64.2299 19.5694 64.1325 19.48 64V64Z" fill="black"/>
<path d="M90.5 64.0001C90.4709 63.8279 90.4709 63.6522 90.5 63.4801C90.6 62.9801 90.74 62.4801 90.89 61.9901C90.9139 61.8216 91.0037 61.6696 91.1397 61.5674C91.2756 61.4652 91.4466 61.4212 91.615 61.4451C91.7834 61.4689 91.9355 61.5587 92.0377 61.6947C92.1399 61.8307 92.1839 62.0017 92.16 62.1701C92.1402 62.7977 91.9796 63.4129 91.69 63.9701C91.6391 64.0836 91.5571 64.1804 91.4535 64.2494C91.3499 64.3183 91.2289 64.3566 91.1045 64.3597C90.98 64.3628 90.8573 64.3308 90.7503 64.2671C90.6434 64.2035 90.5566 64.1109 90.5 64.0001V64.0001Z" fill="black"/>
<path d="M44 34.18V33.89H44.07V34.19L44 34.18Z" fill="white"/>
<path d="M70.62 14.57C70.4915 14.6375 70.3577 14.6943 70.2199 14.74C69.6228 14.921 69.015 15.0647 68.4 15.17C66.89 15.39 65.3999 15.58 63.8499 15.73C62.0316 15.8618 60.2037 15.7372 58.42 15.36L56.31 14.96C54.8811 14.6774 53.5047 14.1747 52.23 13.47C52.0788 13.4027 51.9376 13.3153 51.81 13.21C51.6627 13.1136 51.5586 12.9639 51.5194 12.7924C51.4803 12.6208 51.5091 12.4407 51.6 12.29C51.6467 12.2159 51.7077 12.1518 51.7795 12.1015C51.8513 12.0512 51.9324 12.0157 52.018 11.9971C52.1037 11.9785 52.1922 11.9771 52.2784 11.9931C52.3645 12.009 52.4467 12.042 52.52 12.09L53.75 12.72C54.56 13.1223 55.4214 13.4116 56.31 13.58C57.43 13.79 58.54 14.01 59.67 14.2C61.2123 14.4663 62.7845 14.5135 64.34 14.34C65.68 14.19 67.01 14.02 68.34 13.83C68.82 13.76 69.34 13.6 69.78 13.49C69.9557 13.4397 70.1372 13.4128 70.32 13.41C70.442 13.4127 70.5599 13.4552 70.6556 13.531C70.7512 13.6068 70.8195 13.7118 70.85 13.83C70.8945 13.9618 70.8963 14.1044 70.855 14.2373C70.8137 14.3702 70.7314 14.4867 70.62 14.57V14.57Z" fill="black"/>
<path d="M50.26 10.92C52.84 14.09 56.95 14.62 60.78 14.83C64.61 15.04 68.78 15.19 71.72 12.3C72.34 11.68 71.46 10.62 70.83 11.24C68.18 13.87 64.34 13.64 60.9 13.45C57.46 13.26 53.65 12.91 51.32 10.03C51.202 9.88943 51.0329 9.80152 50.8501 9.78558C50.6672 9.76964 50.4855 9.82698 50.345 9.945C50.2044 10.063 50.1165 10.232 50.1006 10.4149C50.0846 10.5977 50.142 10.7794 50.26 10.92V10.92Z" fill="url(#paint7_linear_408_5651)"/>
<path d="M53.48 10.48C55.0193 11.3449 56.6924 11.9466 58.43 12.26C60.9278 12.8824 63.5305 12.9574 66.06 12.48C66.93 12.29 66.7 10.93 65.83 11.12C63.4728 11.5655 61.0468 11.4939 58.72 10.91C57.1572 10.6351 55.6504 10.1047 54.26 9.34002C53.52 8.86002 52.73 9.99004 53.48 10.48Z" fill="url(#paint8_linear_408_5651)"/>
<path d="M69.73 68.62C68.08 66.55 68.63 62.7 69.91 60.57C70.5574 59.3813 71.4646 58.354 72.564 57.5645C73.6634 56.775 74.9268 56.2437 76.26 56.01C82.15 55.26 89.26 61.53 86 67.63C85.17 69.17 87.43 70.77 88.27 69.2C91.52 63.2 87.66 56.2 81.55 53.96C80.1015 53.4092 78.5555 53.1614 77.0075 53.232C75.4595 53.3025 73.9423 53.6898 72.55 54.37C69.977 55.6873 67.9617 57.8835 66.87 60.56C65.64 63.51 65.57 67.79 67.64 70.39C68.75 71.78 70.86 70.01 69.75 68.62H69.73Z" fill="url(#paint9_linear_408_5651)"/>
<path d="M19.58 27.45L17.04 28.37C16.8532 28.4241 16.6847 28.5281 16.5525 28.6708C16.4204 28.8135 16.3296 28.9896 16.29 29.18C16.2367 29.3723 16.1594 29.5571 16.06 29.73C15.57 30.73 15.06 31.73 14.61 32.73C12.8779 36.5434 11.9227 40.6635 11.8 44.85C11.7403 45.4323 11.8178 46.0205 12.0261 46.5675C12.2345 47.1144 12.568 47.605 13 48C13.129 48.1143 13.2262 48.26 13.2822 48.423C13.3383 48.5859 13.3513 48.7606 13.32 48.93C12.4877 59.7724 15.3036 70.5818 21.32 79.64C22.9036 82.0593 24.6757 84.3498 26.62 86.49C26.7914 86.656 26.9245 86.8573 27.01 87.08C27.7814 89.1239 29.0743 90.9304 30.76 92.32C32.5583 93.8487 34.5823 95.09 36.76 96C37.03 96.12 37.28 96.28 37.55 96.39C37.7172 96.4936 37.9151 96.536 38.11 96.51C38.3132 96.447 38.5292 96.4368 38.7374 96.4806C38.9457 96.5243 39.1393 96.6205 39.3 96.76C42.9721 98.9391 46.8851 100.684 50.96 101.96C53.0474 102.625 55.1751 103.156 57.33 103.55C57.4938 103.568 57.6518 103.621 57.7933 103.706C57.9348 103.79 58.0565 103.904 58.15 104.04C58.49 104.52 58.87 104.97 59.21 105.45C59.55 105.93 59.7 106.19 59.92 106.56C60.0558 106.837 60.2841 107.057 60.5654 107.183C60.8467 107.309 61.1632 107.333 61.46 107.25C61.8196 107.166 62.1834 107.103 62.55 107.06C63.73 106.91 64.92 106.74 66.11 106.65C67.3 106.56 68.53 106.58 69.75 106.54C71.3872 106.434 73.0304 106.607 74.61 107.05C74.8752 107.128 75.146 107.185 75.42 107.22C76.27 107.33 76.67 107 76.82 106.14C76.9198 105.697 77.0535 105.262 77.22 104.84C77.35 104.49 77.56 104.18 77.67 103.84C77.703 103.69 77.7826 103.554 77.8975 103.451C78.0125 103.349 78.1569 103.285 78.31 103.27C80.1639 102.876 81.9909 102.365 83.7801 101.74C91.8317 99.0152 98.9673 94.1058 104.39 87.56C109.001 82.0178 112.162 75.4167 113.59 68.35C113.84 67.12 114.02 65.88 114.19 64.64C114.25 64.28 114.39 64.06 114.74 63.99C115.028 63.9313 115.318 63.8879 115.61 63.86C115.904 63.8537 116.188 63.7532 116.42 63.5731C116.652 63.393 116.821 63.143 116.9 62.86C117.224 61.8951 117.32 60.8682 117.18 59.86C117.01 58.68 116.92 57.48 116.8 56.29C116.73 55.58 116.68 54.86 116.59 54.15C116.293 52.0687 116.317 49.9542 116.66 47.88C116.77 47.21 116.84 46.54 116.92 45.88C116.974 45.6911 116.982 45.4918 116.942 45.2994C116.902 45.1069 116.816 44.9271 116.691 44.7754C116.566 44.6238 116.406 44.5049 116.224 44.429C116.043 44.3531 115.846 44.3226 115.65 44.34C115.152 44.3005 114.673 44.1316 114.26 43.85L113.46 43.26C112.93 42.87 112.46 42.48 111.68 42.82C111.59 42.62 111.52 42.47 111.46 42.32C108.603 34.6501 103.994 27.7535 98 22.18C92.3295 16.8624 85.5942 12.8097 78.24 10.29C76.4 9.66003 74.5 9.19001 72.63 8.65001C72.42 8.59001 72.19 8.65 72.07 8.36C71.77 7.82385 71.2978 7.40461 70.73 7.17003C69.6592 6.63473 68.5179 6.25426 67.34 6.04003C64.0839 5.40757 60.7578 5.21249 57.45 5.46001C56.0544 5.57233 54.6811 5.87861 53.37 6.37001C52.7177 6.55784 52.1207 6.90097 51.63 7.37001C51.42 7.60001 51.23 7.83001 50.86 7.80001C50.8061 7.80212 50.7532 7.81569 50.7049 7.83983C50.6566 7.86397 50.6141 7.89814 50.58 7.94002C50.4685 8.06404 50.333 8.16428 50.1818 8.23473C50.0306 8.30518 49.8667 8.34439 49.7 8.35002C43.6528 9.62417 37.91 12.0591 32.79 15.52C28.4587 18.4324 24.6743 22.0849 21.61 26.31C21.26 26.81 20.93 27.24 20.24 27.23C20.0084 27.2623 19.7847 27.3369 19.58 27.45ZM29 83C29.086 82.8988 29.1913 82.8157 29.3098 82.7556C29.4282 82.6955 29.5575 82.6596 29.69 82.65C30.9914 82.3933 32.3334 82.4275 33.62 82.75C35.4492 83.2561 37.1824 84.0602 38.75 85.13C38.8079 85.1713 38.8614 85.2181 38.91 85.27C37.79 84.79 36.69 84.27 35.56 83.86C34.7159 83.5502 33.8544 83.2898 32.98 83.08C31.6842 82.6987 30.3101 82.6711 29 83ZM40.79 95C40.5746 94.9862 40.367 94.9136 40.19 94.79C38.1354 93.5742 36.1673 92.2177 34.3 90.73C32.3293 89.1591 30.4713 87.4515 28.74 85.62C28.6515 85.5315 28.568 85.438 28.49 85.34C28.4555 85.2874 28.4285 85.2302 28.41 85.17C28.5338 84.9556 28.7025 84.7705 28.9044 84.6272C29.1063 84.484 29.3368 84.386 29.58 84.34C30.008 84.2479 30.4428 84.191 30.88 84.17C31.0461 84.1506 31.2139 84.1506 31.38 84.17C35.0024 84.6107 38.3792 86.2306 40.99 88.78C41.6182 89.4033 42.1386 90.1264 42.5301 90.92C42.8318 91.5131 42.9698 92.1758 42.93 92.84C42.8757 93.3844 42.6385 93.8944 42.2571 94.2866C41.8757 94.6789 41.3727 94.9304 40.83 95H40.79ZM43.08 95.45C44.01 94.39 44.01 94.39 44.39 92.45C44.85 93.88 44.27 95.21 43.12 95.46L43.08 95.45ZM114.84 46.34C114.84 46.53 114.78 46.8 114.73 47.07C114.29 49.685 114.29 52.3551 114.73 54.97C114.81 55.52 114.8 56.07 114.86 56.62C114.98 57.79 115.13 58.96 115.24 60.13C115.285 60.5288 115.285 60.9313 115.24 61.33C115.24 61.85 115.14 61.86 114.49 61.88C114.825 56.2057 114.148 50.5171 112.49 45.08L114.84 46.34ZM55 7.30001C56.1299 6.96329 57.3011 6.78492 58.48 6.77001C61.0316 6.67126 63.5867 6.81861 66.11 7.21001C66.8699 7.34166 67.6212 7.51864 68.36 7.74001C72.05 9.35001 69.47 10.83 69.13 11.01C68.0714 11.5663 66.9245 11.9351 65.74 12.1C62.0978 12.6319 58.3806 12.254 54.92 11C54.4604 10.8186 54.0129 10.6082 53.58 10.37C53.4199 10.2771 53.2662 10.1735 53.12 10.06C51.06 9.00002 54.12 7.60001 55 7.30001ZM44.59 12C45.93 11.53 47.3 11.18 48.66 10.79C48.85 10.73 49.05 10.7 49.28 10.65C49.28 10.81 49.21 10.91 49.19 11.02C49.1577 11.1463 49.1653 11.2796 49.2119 11.4014C49.2584 11.5232 49.3416 11.6275 49.45 11.7C49.5539 11.7779 49.6802 11.82 49.81 11.82C49.9398 11.82 50.0661 11.7779 50.17 11.7C50.5304 11.4652 50.8655 11.1938 51.17 10.89C51.57 10.47 51.56 10.45 52 10.82C52.7273 11.4129 53.5532 11.8733 54.44 12.18C58.1679 13.5665 62.187 13.9829 66.12 13.39C67.5829 13.1877 68.9906 12.6947 70.26 11.94C70.71 11.67 71.12 11.33 71.59 10.94C71.65 11.03 71.74 11.12 71.8 11.22C72.3595 12.0632 73.1232 12.7512 74.02 13.22C74.163 13.3015 74.3184 13.359 74.48 13.39C74.6283 13.4213 74.7829 13.3998 74.9171 13.3292C75.0512 13.2586 75.1565 13.1433 75.2146 13.0033C75.2728 12.8633 75.2801 12.7074 75.2354 12.5625C75.1908 12.4177 75.0969 12.293 74.97 12.21C74.68 12.01 74.37 11.85 74.09 11.64C73.8125 11.4441 73.572 11.2003 73.38 10.92C73.5114 10.9295 73.6419 10.9495 73.77 10.98C77.8681 12.0546 81.8229 13.6157 85.55 15.63C89.3697 17.6975 92.9255 20.2192 96.14 23.14C98.9156 25.671 101.41 28.494 103.58 31.56C106.328 35.432 108.492 39.6877 110 44.19C113 52.6682 113.349 61.8588 111 70.54C109.329 76.6997 106.248 82.3862 102 87.15C95.7412 94.2493 87.3719 99.1559 78.12 101.15C73.2491 102.256 68.2352 102.593 63.26 102.15C62.96 102.15 62.67 102.08 62.38 102.05C62.09 102.02 62.09 102.05 61.94 102.05C61.647 102.022 61.3548 102.112 61.1279 102.299C60.901 102.487 60.7579 102.757 60.73 103.05C60.7163 103.194 60.7314 103.339 60.7744 103.477C60.8175 103.616 60.8875 103.744 60.9806 103.855C61.0737 103.965 61.1879 104.056 61.3165 104.123C61.4452 104.189 61.5858 104.229 61.73 104.24C62.0948 104.29 62.462 104.32 62.83 104.33C67.1448 104.686 71.4867 104.514 75.76 103.82C75.92 103.82 76.08 103.82 76.3 103.76C76.12 104.15 75.95 104.47 75.82 104.81C75.69 105.15 75.61 105.47 75.5 105.81C75.3347 105.787 75.171 105.754 75.01 105.71C73.3418 105.247 71.6081 105.064 69.88 105.17C68.63 105.17 67.38 105.25 66.13 105.27C64.7326 105.343 63.3423 105.517 61.97 105.79L61.25 105.91L60.86 105.35C60.45 104.76 60.05 104.17 59.62 103.59C59.5341 103.499 59.4719 103.389 59.4387 103.269C59.4056 103.148 59.4026 103.022 59.43 102.9C59.4908 102.646 59.4495 102.377 59.3149 102.153C59.1803 101.929 58.9632 101.766 58.71 101.7C58.4282 101.617 58.1408 101.553 57.85 101.51C53.3533 100.673 48.9837 99.2579 44.85 97.3C44.54 97.16 44.23 97 43.85 96.8C44.1 96.63 44.26 96.55 44.4 96.43C44.9944 96.0633 45.5054 95.5762 45.9 95C46.015 94.8117 46.1769 94.6566 46.37 94.55C47.3107 93.9384 48.349 93.492 49.44 93.23C49.607 93.2101 49.7604 93.128 49.8697 93.0002C49.979 92.8723 50.0363 92.7081 50.03 92.54C50.0197 92.372 49.9436 92.2148 49.8182 92.1025C49.6928 91.9902 49.5281 91.9318 49.36 91.94C49.0843 91.9327 48.8096 91.9767 48.55 92.07C47.86 92.33 47.19 92.64 46.55 92.93C46.38 93 46.22 93.08 46.04 93.17C46.0043 93.0933 45.9775 93.0128 45.96 92.93C45.7179 90.6523 44.6888 88.5304 43.05 86.93C40.7669 84.5835 37.9552 82.8176 34.85 81.78C33.3287 81.2687 31.7086 81.1214 30.12 81.35L29.57 81.41H29.37C29.43 81.2783 29.4769 81.1409 29.51 81C29.51 79.9933 29.53 78.9933 29.57 78C29.5676 77.8532 29.5406 77.7079 29.49 77.57C29.4563 77.4153 29.3655 77.279 29.2358 77.1882C29.1061 77.0974 28.9469 77.0588 28.79 77.08C28.6345 77.0996 28.4915 77.1756 28.3883 77.2936C28.2851 77.4115 28.2288 77.5633 28.23 77.72C28.23 77.87 28.23 78.02 28.23 78.16C28.23 78.93 28.23 79.71 28.23 80.48C28.2138 81.0744 27.9829 81.6427 27.58 82.08C27.4633 82.2197 27.3719 82.3788 27.31 82.55C27.18 82.83 27.08 83.12 26.93 83.55C26.74 83.35 26.61 83.22 26.49 83.07C23.4045 79.3406 20.8811 75.1799 19 70.72C15.9017 63.573 14.6997 55.7475 15.51 48C16.3551 39.506 19.7901 31.4769 25.35 25C30.4716 19.0087 37.1204 14.5163 44.59 12ZM18 29.41C18.61 29.2 19.21 28.97 19.81 28.75L19.89 28.85C16.5596 34.1896 14.3988 40.1745 13.55 46.41H13.43C13.3465 46.2837 13.2824 46.1454 13.24 46C13.1669 45.5102 13.1335 45.0152 13.14 44.52C13.308 40.5266 14.2807 36.6083 16 33C16.48 32 17 31 17.51 29.94C17.5502 29.8224 17.6145 29.7144 17.6989 29.6231C17.7833 29.5318 17.8859 29.4592 18 29.41Z" fill="black"/>
<path d="M85.59 58.75C86.3619 59.6342 86.9446 60.667 87.3024 61.7849C87.6601 62.9028 87.7852 64.082 87.67 65.25C87.4247 67.7992 86.3335 70.193 84.57 72.05C83.3439 73.4613 81.7469 74.5006 79.96 75.05C79.3064 75.2232 78.6357 75.3239 77.96 75.3501C77.3511 75.3866 76.7451 75.2403 76.22 74.93C76.0699 74.8579 75.9317 74.7635 75.81 74.65C75.6988 74.5517 75.6274 74.4162 75.609 74.2689C75.5906 74.1217 75.6265 73.9727 75.71 73.8501C75.7804 73.7162 75.9003 73.6152 76.0442 73.5685C76.188 73.5218 76.3444 73.5331 76.48 73.6001C78.17 74.5201 79.73 73.92 81.17 73.06C82.5846 72.2724 83.7881 71.1545 84.6778 69.8017C85.5675 68.4488 86.1172 66.901 86.28 65.2901C86.4518 63.9833 86.2632 62.6544 85.7344 61.4471C85.2057 60.2398 84.3569 59.1999 83.28 58.4401C81.9164 57.3885 80.277 56.7551 78.5606 56.6167C76.8442 56.4782 75.1245 56.8407 73.61 57.6601C72.5841 58.2174 71.7431 59.0618 71.19 60.09C70.2509 61.7075 69.7995 63.5619 69.89 65.43C69.95 66.18 69.98 66.9301 70.02 67.6901C70.0389 67.7755 70.0403 67.8639 70.0242 67.95C70.008 68.036 69.9747 68.118 69.9261 68.1908C69.8776 68.2637 69.8148 68.3259 69.7416 68.3739C69.6683 68.4219 69.5862 68.4546 69.5 68.47C69.3254 68.5 69.1461 68.4616 68.9991 68.363C68.852 68.2643 68.7485 68.1129 68.71 67.9401C68.6631 67.7636 68.6363 67.5825 68.63 67.4C68.63 66.52 68.54 65.64 68.55 64.75C68.5771 62.5074 69.3043 60.3292 70.63 58.52C71.4616 57.3477 72.6404 56.4663 74 56C75.6866 55.3055 77.529 55.0773 79.3341 55.3395C81.1392 55.6016 82.8406 56.3444 84.26 57.49C84.5071 57.6806 84.741 57.8878 84.96 58.11C85.23 58.34 85.44 58.6 85.59 58.75Z" fill="black"/>
<path d="M68.1 73.34C66.9955 72.0501 66.161 70.5519 65.6457 68.9339C65.1305 67.3159 64.9449 65.611 65.1 63.92C65.2714 61.8891 66.0405 59.9544 67.31 58.36C67.405 58.2268 67.5197 58.1088 67.65 58.01C67.7659 57.9158 67.9106 57.8644 68.06 57.8644C68.2093 57.8644 68.3541 57.9158 68.47 58.01C68.5719 58.1047 68.6413 58.2292 68.6682 58.3657C68.6951 58.5022 68.6783 58.6437 68.62 58.77C68.5691 58.8888 68.5018 58.9999 68.42 59.1C67.5848 60.1356 66.9813 61.3383 66.6501 62.6268C66.3189 63.9154 66.2677 65.26 66.5 66.57C66.7561 68.7345 67.6366 70.7777 69.034 72.4504C70.4315 74.1231 72.2855 75.353 74.37 75.99C75.5231 76.3925 76.7485 76.5463 77.9653 76.4411C79.1822 76.336 80.363 75.9744 81.43 75.38C82.3851 74.8604 83.228 74.1569 83.91 73.31C84.0172 73.1596 84.1414 73.022 84.28 72.9C84.3835 72.7674 84.5353 72.6813 84.7022 72.6607C84.8691 72.64 85.0374 72.6866 85.17 72.79C85.3026 72.8934 85.3887 73.0453 85.4093 73.2122C85.4299 73.3791 85.3835 73.5474 85.28 73.68C85.2054 73.8286 85.1112 73.9665 85 74.09C83.8966 75.4852 82.4336 76.553 80.7684 77.1785C79.1033 77.804 77.2991 77.9636 75.55 77.64C72.6222 77.172 69.9697 75.6411 68.1 73.34V73.34Z" fill="black"/>
<defs>
<linearGradient id="paint0_linear_408_5651" x1="43" y1="95" x2="29" y2="84" gradientUnits="userSpaceOnUse">
<stop stop-color="#504095"/>
<stop offset="0.06" stop-color="#564195"/>
<stop offset="0.13" stop-color="#684393"/>
<stop offset="0.22" stop-color="#854792"/>
<stop offset="0.32" stop-color="#AD4C8F"/>
<stop offset="0.42" stop-color="#E0538B"/>
<stop offset="0.44" stop-color="#E7548B"/>
<stop offset="0.58" stop-color="#D67DA6"/>
<stop offset="0.77" stop-color="#C1B0C8"/>
<stop offset="0.92" stop-color="#B4D0DD"/>
<stop offset="1" stop-color="#AFDCE5"/>
</linearGradient>
<linearGradient id="paint1_linear_408_5651" x1="71.7723" y1="12.3559" x2="64.7136" y2="-0.735346" gradientUnits="userSpaceOnUse">
<stop stop-color="#504095"/>
<stop offset="0.06" stop-color="#564195"/>
<stop offset="0.13" stop-color="#684393"/>
<stop offset="0.22" stop-color="#854792"/>
<stop offset="0.32" stop-color="#AD4C8F"/>
<stop offset="0.42" stop-color="#E0538B"/>
<stop offset="0.44" stop-color="#E7548B"/>
<stop offset="0.58" stop-color="#D67DA6"/>
<stop offset="0.77" stop-color="#C1B0C8"/>
<stop offset="0.92" stop-color="#B4D0DD"/>
<stop offset="1" stop-color="#AFDCE5"/>
</linearGradient>
<linearGradient id="paint2_linear_408_5651" x1="112.694" y1="106.175" x2="0.831052" y2="39.4858" gradientUnits="userSpaceOnUse">
<stop stop-color="#504095"/>
<stop offset="0.06" stop-color="#564195"/>
<stop offset="0.13" stop-color="#684393"/>
<stop offset="0.22" stop-color="#854792"/>
<stop offset="0.32" stop-color="#AD4C8F"/>
<stop offset="0.42" stop-color="#E0538B"/>
<stop offset="0.44" stop-color="#E7548B"/>
<stop offset="0.58" stop-color="#D67DA6"/>
<stop offset="0.77" stop-color="#C1B0C8"/>
<stop offset="0.92" stop-color="#B4D0DD"/>
<stop offset="1" stop-color="#AFDCE5"/>
</linearGradient>
<linearGradient id="paint3_linear_408_5651" x1="29836.6" y1="99096.7" x2="29905.7" y2="99096.7" gradientUnits="userSpaceOnUse">
<stop stop-color="#504095"/>
<stop offset="0.06" stop-color="#564195"/>
<stop offset="0.13" stop-color="#684393"/>
<stop offset="0.22" stop-color="#854792"/>
<stop offset="0.32" stop-color="#AD4C8F"/>
<stop offset="0.42" stop-color="#E0538B"/>
<stop offset="0.44" stop-color="#E7548B"/>
<stop offset="0.58" stop-color="#D67DA6"/>
<stop offset="0.77" stop-color="#C1B0C8"/>
<stop offset="0.92" stop-color="#B4D0DD"/>
<stop offset="1" stop-color="#AFDCE5"/>
</linearGradient>
<linearGradient id="paint4_linear_408_5651" x1="12413.4" y1="95533.5" x2="12454.4" y2="95533.5" gradientUnits="userSpaceOnUse">
<stop stop-color="#504095"/>
<stop offset="0.06" stop-color="#564195"/>
<stop offset="0.13" stop-color="#684393"/>
<stop offset="0.22" stop-color="#854792"/>
<stop offset="0.32" stop-color="#AD4C8F"/>
<stop offset="0.42" stop-color="#E0538B"/>
<stop offset="0.44" stop-color="#E7548B"/>
<stop offset="0.58" stop-color="#D67DA6"/>
<stop offset="0.77" stop-color="#C1B0C8"/>
<stop offset="0.92" stop-color="#B4D0DD"/>
<stop offset="1" stop-color="#AFDCE5"/>
</linearGradient>
<linearGradient id="paint5_linear_408_5651" x1="43439.7" y1="15714.6" x2="43520.4" y2="15714.6" gradientUnits="userSpaceOnUse">
<stop stop-color="#504095"/>
<stop offset="0.06" stop-color="#564195"/>
<stop offset="0.13" stop-color="#684393"/>
<stop offset="0.22" stop-color="#854792"/>
<stop offset="0.32" stop-color="#AD4C8F"/>
<stop offset="0.42" stop-color="#E0538B"/>
<stop offset="0.44" stop-color="#E7548B"/>
<stop offset="0.58" stop-color="#D67DA6"/>
<stop offset="0.77" stop-color="#C1B0C8"/>
<stop offset="0.92" stop-color="#B4D0DD"/>
<stop offset="1" stop-color="#AFDCE5"/>
</linearGradient>
<linearGradient id="paint6_linear_408_5651" x1="6351.63" y1="16904.1" x2="6354.04" y2="16904.1" gradientUnits="userSpaceOnUse">
<stop stop-color="#504095"/>
<stop offset="0.06" stop-color="#564195"/>
<stop offset="0.13" stop-color="#684393"/>
<stop offset="0.22" stop-color="#854792"/>
<stop offset="0.32" stop-color="#AD4C8F"/>
<stop offset="0.42" stop-color="#E0538B"/>
<stop offset="0.44" stop-color="#E7548B"/>
<stop offset="0.58" stop-color="#D67DA6"/>
<stop offset="0.77" stop-color="#C1B0C8"/>
<stop offset="0.92" stop-color="#B4D0DD"/>
<stop offset="1" stop-color="#AFDCE5"/>
</linearGradient>
<linearGradient id="paint7_linear_408_5651" x1="71.9664" y1="14.944" x2="67.204" y2="3.13749" gradientUnits="userSpaceOnUse">
<stop stop-color="#504095"/>
<stop offset="0.06" stop-color="#564195"/>
<stop offset="0.13" stop-color="#684393"/>
<stop offset="0.22" stop-color="#854792"/>
<stop offset="0.32" stop-color="#AD4C8F"/>
<stop offset="0.42" stop-color="#E0538B"/>
<stop offset="0.44" stop-color="#E7548B"/>
<stop offset="0.58" stop-color="#D67DA6"/>
<stop offset="0.77" stop-color="#C1B0C8"/>
<stop offset="0.92" stop-color="#B4D0DD"/>
<stop offset="1" stop-color="#AFDCE5"/>
</linearGradient>
<linearGradient id="paint8_linear_408_5651" x1="66.6303" y1="12.7997" x2="63.0484" y2="4.91552" gradientUnits="userSpaceOnUse">
<stop stop-color="#504095"/>
<stop offset="0.06" stop-color="#564195"/>
<stop offset="0.13" stop-color="#684393"/>
<stop offset="0.22" stop-color="#854792"/>
<stop offset="0.32" stop-color="#AD4C8F"/>
<stop offset="0.42" stop-color="#E0538B"/>
<stop offset="0.44" stop-color="#E7548B"/>
<stop offset="0.58" stop-color="#D67DA6"/>
<stop offset="0.77" stop-color="#C1B0C8"/>
<stop offset="0.92" stop-color="#B4D0DD"/>
<stop offset="1" stop-color="#AFDCE5"/>
</linearGradient>
<linearGradient id="paint9_linear_408_5651" x1="89.488" y1="70.9447" x2="66.6598" y2="53.2481" gradientUnits="userSpaceOnUse">
<stop stop-color="#504095"/>
<stop offset="0.06" stop-color="#564195"/>
<stop offset="0.13" stop-color="#684393"/>
<stop offset="0.22" stop-color="#854792"/>
<stop offset="0.32" stop-color="#AD4C8F"/>
<stop offset="0.42" stop-color="#E0538B"/>
<stop offset="0.44" stop-color="#E7548B"/>
<stop offset="0.58" stop-color="#D67DA6"/>
<stop offset="0.77" stop-color="#C1B0C8"/>
<stop offset="0.92" stop-color="#B4D0DD"/>
<stop offset="1" stop-color="#AFDCE5"/>
</linearGradient>
</defs>
</svg>
