<svg width="102" height="98" viewBox="0 0 102 98" fill="none" xmlns="http://www.w3.org/2000/svg">
<g id="bgPlanet3" opacity="0.76">
<path id="Vector" opacity="0.76" d="M51.27 3.53993C51.3544 3.77241 51.3882 4.02021 51.3692 4.26679C51.3503 4.51338 51.2789 4.75308 51.16 4.96993C50.9516 5.35091 50.7143 5.71531 50.45 6.05993C50.3525 6.19396 50.2382 6.31495 50.11 6.41993C47.4616 8.90005 44.0704 10.4393 40.46 10.7999C39.5855 10.882 38.7034 10.8177 37.85 10.6099C37.2038 10.465 36.6093 10.147 36.13 9.68993C35.7507 9.29435 35.5189 8.78042 35.4733 8.23425C35.4278 7.68807 35.5714 7.14285 35.88 6.68993C36.0238 6.52941 36.2116 6.41466 36.42 6.35993C38.6597 5.57046 40.952 4.93891 43.28 4.46993C45.73 3.96163 48.2129 3.62746 50.71 3.46993C50.8365 3.46005 50.9636 3.46005 51.09 3.46993C51.1532 3.48417 51.2139 3.50776 51.27 3.53993Z" fill="url(#paint0_linear_343_6698)"/>
<path id="Vector_2" opacity="0.76" d="M81.21 84.73C81.27 84.25 81.73 82.28 81.8 81.91C82.0525 80.7471 82.506 79.6371 83.14 78.63C85.0658 75.5026 87.7438 72.907 90.93 71.08C91.3303 70.7826 91.7477 70.5088 92.18 70.26C92.34 70.19 95.67 69.66 94.92 70.56C95.15 74 86.92 86.33 81.21 84.73Z" fill="url(#paint1_linear_343_6698)"/>
<path id="Vector_3" opacity="0.76" d="M32.6599 7.84996C32.6599 8.14996 32.59 8.32995 32.59 8.50995C32.4916 9.19551 32.5392 9.89414 32.7299 10.56C32.7854 10.7731 32.7854 10.9968 32.7299 11.21C32.5937 12.3189 32.2726 13.3972 31.78 14.3999C31.6879 14.538 31.6521 14.7062 31.68 14.8698C31.7079 15.0334 31.7973 15.1802 31.93 15.28C31.9958 15.3304 32.0712 15.3671 32.1515 15.3879C32.2318 15.4087 32.3154 15.4131 32.3974 15.401C32.4795 15.3889 32.5583 15.3604 32.6292 15.3173C32.7 15.2742 32.7615 15.2173 32.81 15.1499C32.9928 14.9451 33.1353 14.7076 33.2299 14.45C33.4699 13.76 33.66 13.06 33.87 12.36C33.92 12.18 33.96 12.01 34.01 11.81C34.0905 11.8335 34.1678 11.8671 34.24 11.91C36.141 13.1902 38.4293 13.7667 40.71 13.5399C43.9568 13.2898 47.0954 12.2608 49.86 10.5399C51.2227 9.70854 52.3704 8.56773 53.21 7.20996L53.51 6.74995L53.6599 6.60995C53.7129 6.74434 53.7872 6.86928 53.88 6.97995C54.63 7.64995 55.39 8.30995 56.15 8.97995C56.2657 9.07072 56.3937 9.14478 56.53 9.19995C56.6712 9.27158 56.8339 9.28835 56.9867 9.24699C57.1395 9.20564 57.2716 9.10911 57.3574 8.97606C57.4432 8.84301 57.4766 8.68287 57.4513 8.5266C57.4259 8.37032 57.3434 8.22901 57.2199 8.12996C57.1099 8.02996 56.98 7.95995 56.87 7.86995C56.29 7.36995 55.69 6.86995 55.12 6.36995C54.6779 5.97699 54.3936 5.43684 54.32 4.84996C54.2804 4.67521 54.2164 4.50689 54.13 4.34996C54 4.06996 53.84 3.80995 53.64 3.44995C53.91 3.44995 54.0999 3.44995 54.2899 3.44995C59.0346 3.49391 63.7488 4.2145 68.2899 5.58995C75.7098 7.79146 82.4365 11.8695 87.82 17.4299C93.7531 23.4873 97.6775 31.2244 99.06 39.59C100.368 47.329 99.5524 55.2778 96.7 62.59C96.2 63.9 95.59 65.1699 95.03 66.4599C94.95 66.6399 94.85 66.8099 94.7299 67.0199C94.6621 66.916 94.5887 66.8159 94.51 66.72C94.4358 66.614 94.3304 66.534 94.2085 66.4909C94.0865 66.4479 93.9542 66.4441 93.83 66.48C93.7019 66.5032 93.5848 66.5674 93.4964 66.663C93.408 66.7586 93.3531 66.8804 93.34 67.01C93.3 67.4257 93.3 67.8443 93.34 68.26C93.4 68.83 93.43 68.83 92.87 68.94C91.9473 69.1151 91.0634 69.4538 90.26 69.94C86.8274 71.8986 83.9477 74.6958 81.89 78.07C81.1124 79.3114 80.5889 80.6948 80.3499 82.14C80.2799 82.66 80.27 83.2 80.2299 83.76C80.1168 83.77 80.0031 83.77 79.89 83.76C78.8722 83.6348 77.8394 83.7725 76.89 84.16C76.7385 84.2179 76.5968 84.2989 76.4699 84.3999C76.341 84.4878 76.2486 84.6198 76.2102 84.771C76.1717 84.9222 76.1898 85.0822 76.2611 85.221C76.3323 85.3598 76.4518 85.4678 76.5971 85.5247C76.7424 85.5816 76.9034 85.5835 77.05 85.53C77.39 85.44 77.71 85.3 78.05 85.22C78.3757 85.1331 78.7145 85.106 79.05 85.14C78.9583 85.2321 78.8615 85.3189 78.76 85.3999C71.7664 90.3364 63.6903 93.5223 55.21 94.69C51.5082 95.1915 47.7628 95.2887 44.0399 94.98C39.367 94.6203 34.7718 93.5793 30.4 91.89C22.0284 88.759 14.8107 83.1495 9.70999 75.81C6.0772 70.62 3.70127 64.6562 2.76999 58.39C1.37101 49.0918 2.97915 39.5899 7.35995 31.2699C9.62405 26.8454 12.5587 22.7976 16.06 19.27C16.26 19.06 16.48 18.87 16.69 18.67C16.8007 18.5743 16.9043 18.4707 17 18.36C17.2039 18.1556 17.3185 17.8787 17.3185 17.59C17.3185 17.3012 17.2039 17.0243 17 16.82C16.8996 16.7193 16.7804 16.6394 16.6491 16.5849C16.5179 16.5304 16.3771 16.5023 16.235 16.5023C16.0928 16.5023 15.9521 16.5304 15.8208 16.5849C15.6896 16.6394 15.5703 16.7193 15.4699 16.82C15.1899 17.06 14.96 17.35 14.7 17.61C11.7336 20.6522 9.14797 24.0438 6.99997 27.7099C6.91997 27.8499 6.82998 27.97 6.69998 28.16C6.51998 27.77 6.37999 27.44 6.20999 27.16C6.03999 26.88 5.83997 26.5799 5.62997 26.2699C5.76997 26.1599 5.88999 26.0499 6.01999 25.9599C7.43825 24.9813 8.68505 23.7751 9.70999 22.39C10.48 21.39 11.24 20.39 12.02 19.47C12.8608 18.3622 13.6163 17.1921 14.28 15.97L14.65 15.35L15.33 15.41C16.04 15.47 16.75 15.54 17.46 15.58C17.5844 15.5744 17.7084 15.5988 17.8214 15.651C17.9345 15.7032 18.0334 15.7817 18.11 15.88C18.2655 16.0867 18.4951 16.2252 18.7506 16.2662C19.0061 16.3072 19.2675 16.2477 19.4799 16.1C19.7241 15.9344 19.9578 15.754 20.18 15.56C23.6845 12.6732 27.5463 10.25 31.67 8.34996L32.6599 7.84996ZM34.94 63.95C35.16 63.95 35.49 63.9499 35.82 63.8999C36.15 63.8499 36.43 63.8299 36.74 63.7699C38.518 63.4176 40.1688 62.5941 41.5198 61.3856C42.8708 60.1771 43.8724 58.6279 44.42 56.8999C44.9267 55.5704 45.0037 54.1155 44.64 52.7399C44.1113 50.5738 42.9149 48.6287 41.2199 47.1799C40.5599 46.6099 39.85 46.09 39.15 45.56C39.0091 45.4448 38.8546 45.3474 38.69 45.2699C38.5325 45.19 38.3505 45.1734 38.1812 45.2236C38.0119 45.2738 37.8683 45.3871 37.78 45.54C37.7383 45.6159 37.7121 45.6994 37.7031 45.7856C37.6941 45.8718 37.7024 45.9589 37.7276 46.0418C37.7527 46.1247 37.7942 46.2018 37.8496 46.2684C37.9049 46.3351 37.9731 46.39 38.05 46.4299C38.65 46.8799 39.2399 47.3399 39.8499 47.7699C41.3309 48.8942 42.456 50.422 43.09 52.17C43.5165 53.2503 43.6241 54.4303 43.4 55.57C43.0564 57.2459 42.2338 58.7861 41.0321 60.0037C39.8304 61.2214 38.3012 62.0642 36.63 62.4299C35.3656 62.7664 34.0331 62.7494 32.7776 62.3809C31.5222 62.0124 30.3919 61.3064 29.51 60.34C28.3857 59.1885 27.5558 57.7827 27.091 56.242C26.6261 54.7013 26.5401 53.0711 26.84 51.4899C27.11 49.8499 27.64 48.28 29.43 47.57C29.5652 47.5085 29.6718 47.3975 29.7276 47.2598C29.7834 47.1221 29.7842 46.9682 29.7299 46.8299C29.6882 46.6873 29.5966 46.5643 29.4718 46.4836C29.347 46.4028 29.1972 46.3696 29.05 46.39C28.8884 46.4133 28.7305 46.4569 28.58 46.5199C28.0103 46.7317 27.5114 47.0989 27.14 47.5799C26.7502 48.1079 26.4152 48.6742 26.14 49.2699C25.4103 50.9773 25.178 52.8563 25.4699 54.69C25.764 57.2184 26.8938 59.5764 28.68 61.39C29.4873 62.2328 30.4601 62.8998 31.5373 63.3489C32.6146 63.798 33.773 64.0197 34.94 64V63.95ZM34.94 41.32C31.9791 41.2584 29.1017 42.3031 26.87 44.25C25.5074 45.3751 24.4774 46.8505 23.8907 48.5173C23.3039 50.1841 23.1827 51.9794 23.5399 53.7099C23.568 53.8737 23.6115 54.0344 23.67 54.19C23.7245 54.339 23.8325 54.4624 23.9729 54.5364C24.1134 54.6103 24.2762 54.6294 24.43 54.59C24.5726 54.5549 24.6982 54.4703 24.7843 54.3512C24.8703 54.2322 24.9114 54.0864 24.9 53.94C24.8937 53.7575 24.8668 53.5764 24.82 53.3999C24.605 52.3374 24.605 51.2425 24.82 50.1799C25.0404 48.9912 25.511 47.8629 26.2007 46.8699C26.8903 45.8768 27.7831 45.0418 28.82 44.42C30.6332 43.2334 32.753 42.6014 34.92 42.6014C37.0869 42.6014 39.2068 43.2334 41.02 44.42C42.169 45.0774 43.1636 45.9737 43.9365 47.0485C44.7094 48.1233 45.2425 49.3514 45.5 50.6499C45.5203 50.7756 45.5608 50.8972 45.62 51.01C45.6781 51.1346 45.7744 51.2375 45.8947 51.304C46.0151 51.3705 46.1535 51.3971 46.2899 51.38C46.4358 51.3583 46.5702 51.2884 46.6717 51.1815C46.7732 51.0745 46.8359 50.9367 46.8499 50.79C46.87 50.6272 46.87 50.4627 46.8499 50.2999C46.4453 48.3148 45.4604 46.4946 44.02 45.07C42.8422 43.8755 41.4375 42.9284 39.8885 42.2845C38.3395 41.6405 36.6775 41.3126 35 41.32H34.94ZM78.12 80.7399C78.1156 80.8781 78.1535 81.0144 78.2285 81.1305C78.3035 81.2467 78.4122 81.3372 78.5399 81.39C78.6502 81.4415 78.7743 81.4558 78.8934 81.4305C79.0125 81.4052 79.1201 81.3419 79.2 81.25C79.3136 81.1099 79.4078 80.9552 79.4799 80.79C79.71 80.35 79.89 79.89 80.15 79.47C80.85 78.34 81.57 77.21 82.31 76.1C83.1733 74.805 84.2134 73.6371 85.4 72.63C86.26 71.89 87.14 71.1799 88.02 70.4599C88.7136 69.8956 89.4806 69.428 90.3 69.07L91.56 68.53C91.7278 68.4768 91.8686 68.3606 91.9525 68.2058C92.0364 68.051 92.057 67.8697 92.01 67.7C91.9508 67.535 91.831 67.3988 91.675 67.3189C91.519 67.239 91.3384 67.2215 91.17 67.2699C91.0088 67.3048 90.8515 67.355 90.7 67.42C89.3491 67.9422 88.0874 68.6708 86.96 69.5799C86.42 70.0399 85.86 70.48 85.31 70.94C83.885 72.0596 82.6229 73.3722 81.56 74.84C80.7 76.09 79.89 77.37 79.08 78.66C78.7755 79.1989 78.4985 79.753 78.25 80.32C78.22 80.47 78.1999 80.6399 78.1599 80.7399H78.12ZM56.76 78.94C55.8595 78.9409 54.9775 79.1956 54.2151 79.6749C53.4528 80.1542 52.841 80.8388 52.45 81.6499C52.2941 82.0439 52.2559 82.4747 52.34 82.89C52.3625 83.0641 52.4505 83.223 52.5862 83.3345C52.7218 83.446 52.8948 83.5016 53.07 83.4899C53.43 83.4899 53.63 83.18 53.65 82.75C53.6408 82.5304 53.6678 82.3108 53.7299 82.1C53.9853 81.6052 54.3573 81.18 54.8138 80.8612C55.2703 80.5423 55.7975 80.3394 56.3499 80.2699C56.8866 80.2407 57.4177 80.391 57.8595 80.697C58.3013 81.003 58.6286 81.4473 58.7899 81.9599C58.979 82.5345 59.1227 83.123 59.2199 83.72C59.3099 84.18 59.35 84.66 59.44 85.1199C59.4498 85.203 59.4761 85.2832 59.5173 85.3559C59.5585 85.4287 59.6137 85.4925 59.6798 85.5437C59.7459 85.5949 59.8215 85.6324 59.9022 85.6541C59.9829 85.6758 60.0672 85.6812 60.15 85.67C60.3152 85.6501 60.4671 85.5695 60.5762 85.4438C60.6853 85.3181 60.7436 85.1563 60.74 84.9899C60.7498 84.8802 60.7498 84.7697 60.74 84.66C60.68 84.21 60.6199 83.7599 60.5399 83.31C60.4515 82.5439 60.2387 81.7975 59.9099 81.1C59.6405 80.4886 59.2076 79.9634 58.6589 79.5823C58.1102 79.2012 57.4669 78.9789 56.8 78.94H56.76ZM79.76 47.4899H79.51C78.86 47.5499 78.5699 48.04 78.9099 48.6C79.0701 48.8417 79.2736 49.0519 79.51 49.22C80.1714 49.6784 80.9323 49.9732 81.7299 50.0799C82.39 50.1899 82.52 50.08 82.88 49.54C82.9036 49.5138 82.9352 49.4962 82.9699 49.4899C83.2045 49.5347 83.4417 49.5647 83.68 49.5799C83.8185 49.5814 83.9534 49.5356 84.0624 49.4502C84.1715 49.3648 84.2482 49.2448 84.28 49.1099C84.3132 48.9765 84.3019 48.8359 84.2477 48.7095C84.1935 48.5831 84.0995 48.4779 83.9799 48.41C83.8316 48.338 83.6778 48.2778 83.52 48.23C83.0904 48.0896 82.6724 47.9157 82.27 47.7099C81.51 47.2499 80.71 46.8199 80.4799 45.8299C80.4347 45.6989 80.3447 45.5881 80.2259 45.5168C80.107 45.4455 79.9669 45.4183 79.83 45.44C79.6929 45.4585 79.565 45.5196 79.4645 45.6147C79.364 45.7098 79.296 45.8341 79.27 45.97C79.1975 46.314 79.262 46.6728 79.45 46.97C79.53 47.15 79.63 47.2999 79.75 47.4899H79.76ZM56.08 81.25C55.8907 81.264 55.7093 81.3317 55.557 81.445C55.4047 81.5583 55.2878 81.7127 55.2199 81.89C54.9972 82.3112 54.8652 82.7745 54.8325 83.2498C54.7998 83.7252 54.8671 84.2022 55.03 84.6499C55.0752 84.809 55.1591 84.9544 55.2743 85.0731C55.3895 85.1918 55.5323 85.28 55.69 85.3299C55.8292 85.4024 55.9899 85.4221 56.1424 85.3853C56.295 85.3486 56.4291 85.2579 56.52 85.13C56.6108 85.014 56.6541 84.8678 56.6411 84.7211C56.6281 84.5744 56.5598 84.4381 56.45 84.34C56.3405 84.2298 56.2582 84.0956 56.2096 83.948C56.161 83.8005 56.1474 83.6436 56.17 83.4899C56.1491 83.2808 56.1721 83.0696 56.2375 82.8699C56.303 82.6701 56.4094 82.4862 56.55 82.3299C56.6427 82.2396 56.7043 82.1222 56.7259 81.9946C56.7475 81.8669 56.7279 81.7357 56.67 81.6199C56.6171 81.5063 56.5322 81.4107 56.4255 81.3449C56.3188 81.2791 56.1952 81.2461 56.07 81.25H56.08ZM27.46 66.38C27.46 66.07 27.29 65.8799 26.92 65.7099C26.5663 65.5622 26.2307 65.3743 25.92 65.1499C25.681 64.9303 25.4665 64.6856 25.28 64.42C25.1921 64.3027 25.0687 64.217 24.9281 64.1755C24.7876 64.1341 24.6374 64.1391 24.5 64.19C24.3617 64.242 24.2475 64.3432 24.1792 64.4742C24.111 64.6052 24.0934 64.7568 24.13 64.8999C24.1804 65.1491 24.2902 65.3823 24.45 65.5799C24.9032 66.1569 25.4996 66.6052 26.18 66.88C26.3972 66.9608 26.6283 66.9982 26.86 66.9899C26.9391 66.99 27.0176 66.9741 27.0905 66.9432C27.1634 66.9123 27.2293 66.8671 27.2844 66.8101C27.3394 66.7532 27.3825 66.6858 27.4109 66.6119C27.4394 66.538 27.4527 66.4591 27.45 66.38H27.46ZM79.15 12.58C79.0111 12.3311 78.8432 12.0995 78.65 11.89C78.2 11.53 77.71 11.2 77.2299 10.89C77.1611 10.8305 77.0807 10.786 76.9937 10.7592C76.9068 10.7323 76.8153 10.7237 76.7249 10.7339C76.6345 10.7441 76.5472 10.7729 76.4685 10.8184C76.3897 10.864 76.3212 10.9253 76.2673 10.9986C76.2134 11.0718 76.1752 11.1555 76.1551 11.2442C76.1351 11.3329 76.1336 11.4248 76.1507 11.5142C76.1679 11.6035 76.2033 11.6883 76.2548 11.7633C76.3063 11.8383 76.3728 11.9019 76.45 11.95C76.98 12.36 77.53 12.74 78.09 13.13C78.1845 13.2029 78.3005 13.2425 78.42 13.2425C78.5394 13.2425 78.6554 13.2029 78.75 13.13C78.8993 12.9611 79.03 12.7767 79.14 12.58H79.15ZM73.15 10.2C72.9919 10.1853 72.8335 10.2249 72.7009 10.3121C72.5683 10.3993 72.4692 10.529 72.42 10.6799C72.3793 10.8416 72.4023 11.0127 72.4842 11.1578C72.5661 11.303 72.7006 11.4111 72.86 11.46C73.3781 11.6353 73.862 11.8992 74.2899 12.24C74.405 12.3482 74.557 12.4085 74.715 12.4085C74.873 12.4085 75.025 12.3482 75.14 12.24C75.2461 12.1239 75.3049 11.9722 75.3049 11.815C75.3049 11.6577 75.2461 11.5061 75.14 11.39C74.6142 10.774 73.895 10.3544 73.0999 10.2H73.15ZM27.9 64.38C27.32 64.38 27.01 64.82 27.19 65.28C27.4279 65.8574 27.7978 66.3711 28.27 66.78C28.3838 66.8905 28.5363 66.9524 28.695 66.9524C28.8537 66.9524 29.0061 66.8905 29.12 66.78C29.2482 66.6727 29.3295 66.5196 29.3463 66.3533C29.3631 66.187 29.3142 66.0207 29.21 65.89C28.93 65.47 28.64 65.0399 28.32 64.6499C28.1809 64.5323 28.0216 64.4409 27.8499 64.38H27.9Z" fill="url(#paint2_linear_343_6698)"/>
<path id="Vector_4" opacity="0.76" d="M99.63 33C97.681 27.0694 94.5016 21.6171 90.3 17L90.37 16.9C90.5185 16.9186 90.6633 16.9591 90.8 17.02C91.219 17.2781 91.6169 17.569 91.99 17.89C94.94 20.5562 97.321 23.7909 98.99 27.4C99.46 28.4 99.89 29.48 100.36 30.51C100.412 30.6248 100.438 30.7492 100.438 30.875C100.438 31.0009 100.412 31.1253 100.36 31.24C100.13 31.84 99.93 32.44 99.71 33.04L99.63 33Z" fill="url(#paint3_linear_343_6698)"/>
<path id="Vector_5" opacity="0.76" d="M28.19 93.16L25.7 94.16C25.58 94.02 25.39 93.82 25.22 93.61C23.5156 91.5982 21.4878 89.8848 19.22 88.54C18.75 88.25 18.33 87.9 17.88 87.59C16.88 86.94 15.88 86.3 14.96 85.64C14.625 85.423 14.3163 85.168 14.04 84.88C13.68 84.51 13.7 84.47 14.1 83.96C18.2168 87.8342 22.9871 90.949 28.19 93.16Z" fill="url(#paint4_linear_343_6698)"/>
<path id="Vector_6" opacity="0.76" d="M44.5 11.48C45.57 10.94 46.66 10.42 47.7 9.82999C48.4757 9.38566 49.2237 8.89476 49.94 8.35999C51.0631 7.61191 51.9645 6.57579 52.55 5.35999C52.5711 5.49069 52.5661 5.62429 52.5352 5.75304C52.5043 5.88178 52.4482 6.00311 52.37 6.10999C51.7379 7.26894 50.8527 8.27044 49.78 9.03998C48.2297 10.1106 46.5133 10.9181 44.7 11.43L44.5 11.48Z" fill="url(#paint5_linear_343_6698)"/>
<path id="Vector_7" opacity="0.76" d="M34.08 8.16003C34.29 9.55003 34.29 9.55003 35.54 11.09C34.18 10.49 33.53 9.20003 34.08 8.16003Z" fill="url(#paint6_linear_343_6698)"/>
<path id="Vector_8" opacity="0.76" d="M56.8 78.94C57.4687 78.9772 58.1141 79.1986 58.6647 79.5798C59.2154 79.9611 59.6498 80.4872 59.92 81.1C60.2488 81.7975 60.4616 82.544 60.55 83.31C60.63 83.76 60.69 84.21 60.75 84.66C60.7599 84.7698 60.7599 84.8802 60.75 84.99C60.7537 85.1564 60.6953 85.3182 60.5862 85.4439C60.4772 85.5696 60.3252 85.6502 60.16 85.67C60.0771 85.6812 59.993 85.6758 59.9122 85.6541C59.8315 85.6324 59.7559 85.5949 59.6898 85.5437C59.6237 85.4925 59.5684 85.4287 59.5273 85.356C59.4861 85.2832 59.4599 85.203 59.45 85.12C59.36 84.66 59.32 84.18 59.23 83.72C59.1328 83.123 58.989 82.5345 58.8 81.96C58.6387 81.4474 58.3113 81.003 57.8695 80.697C57.4277 80.391 56.8966 80.2408 56.36 80.27C55.8075 80.3395 55.2803 80.5424 54.8239 80.8612C54.3674 81.18 53.9954 81.6052 53.74 82.1C53.6778 82.3108 53.6507 82.5304 53.66 82.75C53.66 83.18 53.44 83.45 53.08 83.49C52.9048 83.5016 52.7318 83.446 52.5962 83.3346C52.4606 83.2231 52.3725 83.0641 52.35 82.89C52.2659 82.4747 52.3042 82.044 52.46 81.65C52.8533 80.8342 53.4697 80.1466 54.2379 79.667C55.006 79.1873 55.8944 78.9353 56.8 78.94Z" fill="black"/>
<path id="Vector_9" opacity="0.76" d="M79.75 47.49C79.63 47.3 79.53 47.15 79.44 46.99C79.2521 46.6929 79.1875 46.3341 79.26 45.99C79.286 45.8541 79.3541 45.7299 79.4546 45.6348C79.555 45.5397 79.6829 45.4785 79.82 45.46C79.9569 45.4383 80.0971 45.4655 80.216 45.5368C80.3348 45.6082 80.4247 45.719 80.47 45.85C80.7 46.85 81.47 47.2701 82.26 47.7301C82.6625 47.9358 83.0804 48.1096 83.51 48.25C83.6679 48.2979 83.8216 48.358 83.97 48.43C84.0895 48.498 84.1836 48.6032 84.2378 48.7296C84.2919 48.856 84.3033 48.9966 84.27 49.13C84.2383 49.2649 84.1615 49.3849 84.0525 49.4703C83.9434 49.5557 83.8085 49.6015 83.67 49.6C83.4317 49.5848 83.1946 49.5548 82.96 49.5101C82.9254 49.5163 82.8937 49.5339 82.87 49.56C82.51 50.15 82.38 50.21 81.72 50.1C80.9223 49.9933 80.1615 49.6985 79.5 49.24C79.2636 49.072 79.0602 48.8618 78.9 48.62C78.56 48.06 78.9 47.5701 79.5 47.5101L79.75 47.49ZM80.21 47.94L80.15 48.02L80.39 48.19V48.13L80.21 47.94Z" fill="black"/>
<path id="Vector_10" opacity="0.76" d="M56.07 81.25C56.1936 81.2481 56.315 81.282 56.4197 81.3477C56.5244 81.4133 56.6078 81.5079 56.66 81.6199C56.7179 81.7357 56.7375 81.8669 56.7159 81.9945C56.6944 82.1222 56.6327 82.2396 56.54 82.3299C56.3994 82.4862 56.293 82.6701 56.2275 82.8699C56.1621 83.0696 56.1391 83.2808 56.16 83.4899C56.1374 83.6436 56.151 83.8005 56.1996 83.948C56.2482 84.0956 56.3305 84.2297 56.44 84.3399C56.5498 84.4381 56.6181 84.5744 56.6311 84.7211C56.6441 84.8678 56.6008 85.014 56.51 85.13C56.4191 85.2579 56.285 85.3486 56.1324 85.3853C55.9799 85.4221 55.8192 85.4024 55.68 85.3299C55.5223 85.28 55.3795 85.1918 55.2643 85.0731C55.1492 84.9544 55.0652 84.809 55.02 84.6499C54.8571 84.2022 54.7898 83.7252 54.8225 83.2498C54.8552 82.7744 54.9873 82.3112 55.21 81.89C55.2778 81.7127 55.3947 81.5583 55.547 81.445C55.6993 81.3317 55.8807 81.264 56.07 81.25Z" fill="black"/>
<path id="Vector_11" opacity="0.76" d="M27.45 66.38C27.4527 66.4583 27.4397 66.5364 27.4118 66.6096C27.384 66.6829 27.3419 66.7499 27.2879 66.8067C27.2339 66.8635 27.1691 66.9089 27.0974 66.9404C27.0256 66.9719 26.9483 66.9887 26.87 66.99C26.6383 66.9982 26.4073 66.9609 26.19 66.88C25.5097 66.6052 24.9132 66.157 24.46 65.58C24.3002 65.3824 24.1904 65.1491 24.14 64.9C24.1034 64.7569 24.121 64.6053 24.1893 64.4743C24.2575 64.3433 24.3717 64.2421 24.51 64.19C24.6474 64.1392 24.7976 64.1342 24.9382 64.1756C25.0787 64.217 25.2021 64.3028 25.29 64.42C25.4765 64.6856 25.6911 64.9304 25.93 65.15C26.2407 65.3744 26.5763 65.5623 26.93 65.71C27.28 65.88 27.46 66.07 27.45 66.38Z" fill="black"/>
<path id="Vector_12" opacity="0.76" d="M79.14 12.58C79.0263 12.7737 78.8922 12.9547 78.74 13.1199C78.6454 13.1929 78.5294 13.2325 78.41 13.2325C78.2905 13.2325 78.1745 13.1929 78.08 13.1199C77.52 12.7299 76.97 12.35 76.44 11.94C76.3628 11.8919 76.2963 11.8283 76.2448 11.7533C76.1934 11.6783 76.1579 11.5935 76.1407 11.5042C76.1236 11.4148 76.1251 11.3229 76.1452 11.2342C76.1652 11.1455 76.2034 11.0618 76.2573 10.9886C76.3112 10.9153 76.3797 10.854 76.4585 10.8084C76.5372 10.7629 76.6245 10.7341 76.7149 10.7239C76.8053 10.7137 76.8968 10.7223 76.9837 10.7491C77.0707 10.776 77.1511 10.8205 77.2199 10.88C77.6999 11.2 78.22 11.53 78.64 11.88C78.8339 12.0926 79.0017 12.3276 79.14 12.58Z" fill="black"/>
<path id="Vector_13" opacity="0.76" d="M73.1 10.1999C73.8753 10.3521 74.5785 10.7564 75.1 11.3499C75.2061 11.466 75.2649 11.6176 75.2649 11.7749C75.2649 11.9322 75.2061 12.0838 75.1 12.1999C74.9849 12.3082 74.8329 12.3685 74.675 12.3685C74.517 12.3685 74.365 12.3082 74.25 12.1999C73.822 11.8592 73.3382 11.5953 72.82 11.4199C72.6606 11.3711 72.5261 11.2629 72.4442 11.1178C72.3623 10.9726 72.3393 10.8016 72.38 10.6399C72.4358 10.4982 72.5363 10.3786 72.6662 10.2992C72.7962 10.2198 72.9484 10.185 73.1 10.1999Z" fill="black"/>
<path id="Vector_14" opacity="0.76" d="M27.85 64.38C28.0061 64.4552 28.1483 64.5566 28.27 64.68C28.59 65.07 28.88 65.5 29.16 65.92C29.2642 66.0507 29.3131 66.217 29.2963 66.3833C29.2795 66.5497 29.1983 66.7028 29.07 66.81C28.9562 66.9206 28.8037 66.9824 28.645 66.9824C28.4863 66.9824 28.3338 66.9206 28.22 66.81C27.7478 66.4012 27.378 65.8875 27.14 65.31C27 64.82 27.27 64.38 27.85 64.38Z" fill="black"/>
<path id="Vector_15" opacity="0.76" d="M80.21 47.9399L80.43 48.1299V48.1899L80.19 48.0199L80.21 47.9399Z" fill="white"/>
<path id="Vector_16" opacity="0.76" d="M78.1599 80.74C78.1599 80.64 78.22 80.47 78.29 80.32C78.5384 79.753 78.8155 79.199 79.12 78.66C79.93 77.37 80.74 76.09 81.6 74.84C82.6629 73.3722 83.925 72.0596 85.35 70.94C85.9 70.48 86.46 70.04 87 69.58C88.1274 68.6709 89.3891 67.9422 90.74 67.42C90.8915 67.3551 91.0489 67.3048 91.21 67.27C91.3784 67.2216 91.559 67.2391 91.715 67.319C91.871 67.3988 91.9907 67.5351 92.05 67.7C92.097 67.8697 92.0765 68.0511 91.9925 68.2059C91.9086 68.3607 91.7678 68.4769 91.6 68.53L90.34 69.07C89.5206 69.428 88.7536 69.8956 88.06 70.46C87.18 71.18 86.3 71.89 85.44 72.63C84.2534 73.6371 83.2133 74.8051 82.35 76.1C81.61 77.21 80.89 78.34 80.19 79.47C79.93 79.89 79.75 80.35 79.52 80.79C79.4478 80.9553 79.3536 81.11 79.24 81.25C79.1601 81.3419 79.0525 81.4053 78.9334 81.4306C78.8144 81.4558 78.6903 81.4416 78.58 81.39C78.4522 81.3372 78.3435 81.2467 78.2685 81.1306C78.1934 81.0145 78.1556 80.8782 78.1599 80.74Z" fill="black"/>
<path id="Vector_17" opacity="0.76" d="M93.94 67.55C89.88 67.49 86.86 70.29 84.25 73.08C81.64 75.87 78.86 78.96 79.25 83.02C79.32 83.9 80.69 83.9 80.62 83.02C80.31 79.33 82.93 76.55 85.27 74.02C87.61 71.49 90.27 68.85 93.99 68.9C94.1574 68.8798 94.3116 68.7989 94.4235 68.6727C94.5353 68.5465 94.5971 68.3837 94.5971 68.215C94.5971 68.0464 94.5353 67.8836 94.4235 67.7574C94.3116 67.6312 94.1574 67.5503 93.99 67.53L93.94 67.55Z" fill="url(#paint7_linear_343_6698)"/>
<path id="Vector_18" opacity="0.76" d="M92.22 70.28C90.5813 70.9052 89.0575 71.7973 87.71 72.92C85.6583 74.4361 83.9536 76.3725 82.71 78.6C82.3 79.38 83.48 80.08 83.9 79.29C85.0602 77.2067 86.6607 75.4014 88.59 74C89.7845 72.991 91.1356 72.1837 92.59 71.61C92.7664 71.5609 92.916 71.4438 93.0061 71.2844C93.0961 71.125 93.1191 70.9364 93.07 70.76C93.021 70.5837 92.9038 70.434 92.7444 70.344C92.585 70.254 92.3964 70.2309 92.22 70.28Z" fill="url(#paint8_linear_343_6698)"/>
<path id="Vector_19" opacity="0.76" d="M37.54 45.57C40.18 45.64 42.76 48.51 43.54 50.85C44.0285 52.103 44.23 53.4496 44.1296 54.7908C44.0293 56.132 43.6296 57.4336 42.96 58.6C39.77 63.6 30.44 64.99 27.89 58.6C27.24 56.98 24.59 57.69 25.24 59.33C27.77 65.66 35.57 67.18 41.15 63.94C42.4953 63.1845 43.6713 62.1611 44.6053 60.933C45.5393 59.7048 46.2114 58.2982 46.58 56.8C47.2229 53.9997 46.8396 51.0617 45.5 48.52C44.03 45.7 40.81 42.91 37.5 42.83C35.74 42.83 35.74 45.53 37.5 45.57H37.54Z" fill="url(#paint9_linear_343_6698)"/>
<path id="Vector_20" opacity="0.76" d="M100.92 33.63C101.24 32.79 101.53 31.94 101.84 31.1C101.924 30.9257 101.955 30.7309 101.93 30.5393C101.905 30.3476 101.825 30.1672 101.7 30.02C101.588 29.8516 101.498 29.6703 101.43 29.48C100.98 28.48 100.56 27.48 100.09 26.48C98.2868 22.725 95.7543 19.3664 92.64 16.6C92.2325 16.1886 91.7347 15.8777 91.1863 15.692C90.6378 15.5063 90.0536 15.4508 89.48 15.53C89.311 15.5541 89.1387 15.5347 88.9794 15.4734C88.8201 15.4121 88.6792 15.3111 88.57 15.18C80.8169 7.6289 70.7592 2.89048 60 1.71999C57.1472 1.37513 54.2709 1.26475 51.4 1.38999C51.1637 1.40866 50.926 1.38149 50.7 1.30998C48.6522 0.59451 46.4531 0.425627 44.32 0.819994C42.01 1.21327 39.774 1.95859 37.69 3.02999C37.43 3.16999 37.15 3.24999 36.89 3.37999C36.63 3.50999 36.49 3.58999 36.44 3.73999C36.28 4.21999 35.9 4.33999 35.44 4.48999C31.4357 5.89893 27.6072 7.76457 24.03 10.05C22.1948 11.2222 20.4347 12.5081 18.76 13.9C18.6409 14.01 18.5004 14.0944 18.3473 14.1477C18.1942 14.201 18.0317 14.2222 17.87 14.21C17.28 14.16 16.7 14.16 16.11 14.11C15.68 14.11 15.24 14.02 14.81 13.95C14.5141 13.8764 14.2017 13.9092 13.9275 14.0427C13.6533 14.1761 13.4347 14.4017 13.31 14.68C13.1445 15.0067 12.9609 15.3238 12.76 15.63C12.11 16.63 11.49 17.63 10.76 18.63C10.03 19.63 9.27002 20.53 8.53002 21.48C7.56166 22.7919 6.38226 23.9341 5.03997 24.86C4.80832 25.01 4.5908 25.1807 4.39001 25.37C4.24865 25.465 4.13152 25.5918 4.04803 25.7403C3.96453 25.8887 3.91695 26.0547 3.90917 26.2248C3.9014 26.395 3.93363 26.5646 4.00323 26.72C4.07283 26.8755 4.17789 27.0125 4.30999 27.12C4.58995 27.4773 4.83758 27.8588 5.04998 28.26C5.22998 28.58 5.34997 28.94 5.53997 29.26C5.62817 29.386 5.67553 29.5361 5.67553 29.69C5.67553 29.8438 5.62817 29.9939 5.53997 30.12C4.65543 31.7843 3.88044 33.5047 3.21997 35.27C0.202611 43.1483 -0.565954 51.7102 0.999995 60C2.28336 67.0532 5.29674 73.6778 9.77001 79.28C10.54 80.28 11.38 81.18 12.21 82.1C12.3314 82.1967 12.4134 82.3341 12.441 82.4868C12.4686 82.6395 12.4398 82.797 12.36 82.93C12.2221 83.1892 12.0686 83.4396 11.9 83.68C11.7231 83.9168 11.6275 84.2044 11.6275 84.5C11.6275 84.7956 11.7231 85.0832 11.9 85.32C12.4273 86.179 13.146 86.9046 14 87.44C15 88.06 16 88.76 17 89.44C17.59 89.84 18.16 90.27 18.76 90.65C20.536 91.7522 22.1342 93.1178 23.5 94.7C23.93 95.21 24.41 95.7 24.87 96.19C24.981 96.3529 25.1301 96.4863 25.3044 96.5784C25.4787 96.6706 25.6728 96.7187 25.87 96.7187C26.0671 96.7187 26.2613 96.6706 26.4356 96.5784C26.6099 96.4863 26.759 96.3529 26.87 96.19C27.2165 95.8354 27.6515 95.5799 28.13 95.45L29.13 95.22C29.77 95.07 30.4 94.91 30.6 94.14L31.12 94.29C38.7813 96.9815 46.965 97.8478 55.02 96.82C62.691 95.8934 70.0775 93.3472 76.69 89.35C78.34 88.35 79.91 87.2 81.51 86.12C81.69 86 81.83 85.82 82.1 85.88C82.696 85.99 83.3117 85.8985 83.85 85.62C84.9296 85.1387 85.9388 84.513 86.85 83.76C89.4118 81.684 91.6822 79.2723 93.6 76.59C94.4076 75.4547 95.0538 74.2129 95.52 72.9C95.7833 72.2681 95.8896 71.5819 95.83 70.9C95.83 70.59 95.73 70.3 95.99 70.04C96.0245 69.9969 96.0495 69.947 96.0633 69.8936C96.0771 69.8401 96.0794 69.7844 96.07 69.73C96.0263 69.4006 96.1123 69.0671 96.31 68.8C99.2045 63.3809 101.018 57.451 101.65 51.34C102.191 46.1819 101.819 40.9688 100.55 35.94C100.429 35.6776 100.382 35.3872 100.414 35.1C100.445 34.8128 100.555 34.5397 100.73 34.31C100.833 34.0964 100.897 33.8661 100.92 33.63ZM52.55 5.37999C52.5711 5.5107 52.5661 5.6443 52.5352 5.77304C52.5043 5.90179 52.4482 6.02312 52.37 6.12999C51.7379 7.28895 50.8526 8.29045 49.78 9.05998C48.2297 10.1306 46.5133 10.9381 44.7 11.45H44.5C45.57 10.91 46.66 10.39 47.7 9.79999C48.4757 9.35566 49.2237 8.86476 49.94 8.32999C51.0563 7.59565 51.9571 6.57748 52.55 5.37999ZM35.88 6.70999C36.0238 6.54947 36.2115 6.43472 36.42 6.37999C38.6597 5.59052 40.952 4.95897 43.28 4.48999C45.73 3.98169 48.2129 3.64752 50.71 3.48999C50.8365 3.48011 50.9636 3.48011 51.09 3.48999C51.1497 3.48164 51.2103 3.48164 51.27 3.48999C51.3544 3.72248 51.3882 3.97026 51.3692 4.21684C51.3502 4.46343 51.2789 4.70314 51.16 4.91998C50.9516 5.30096 50.7142 5.66536 50.45 6.00998C50.3525 6.14401 50.2382 6.265 50.11 6.36998C47.4616 8.8501 44.0704 10.3893 40.46 10.75C39.5855 10.832 38.7034 10.7678 37.85 10.56C37.2038 10.415 36.6093 10.097 36.13 9.63999C35.7677 9.24934 35.5463 8.74884 35.501 8.21799C35.4557 7.68713 35.5891 7.15637 35.88 6.70999ZM34.08 8.15999C34.29 9.54999 34.29 9.54998 35.54 11.09C34.18 10.49 33.53 9.19999 34.08 8.15999ZM25.7 94.16C25.58 94.02 25.39 93.82 25.22 93.61C23.5156 91.5983 21.4878 89.8848 19.22 88.54C18.75 88.25 18.33 87.9 17.88 87.59C16.88 86.94 15.88 86.3 14.96 85.64C14.625 85.423 14.3163 85.168 14.04 84.88C13.68 84.51 13.7 84.47 14.1 83.96C18.2192 87.8235 22.9894 90.928 28.19 93.13L25.7 94.16ZM93.65 73.47C93.1833 74.5484 92.5709 75.5578 91.83 76.47C90.2811 78.4815 88.5395 80.337 86.63 82.01C86.0405 82.5009 85.4263 82.9615 84.79 83.39C81.21 85.17 81.73 82.26 81.79 81.89C82.0425 80.7271 82.4959 79.617 83.13 78.61C85.0557 75.4825 87.7338 72.8869 90.92 71.06C91.352 70.8231 91.7998 70.616 92.26 70.44C92.4327 70.3769 92.6098 70.3267 92.79 70.29C94.92 69.41 94 72.61 93.65 73.5V73.47ZM96.73 62.47C96.23 63.78 95.62 65.05 95.06 66.34C94.98 66.52 94.88 66.69 94.76 66.9C94.6922 66.796 94.6187 66.6959 94.54 66.6C94.4658 66.4941 94.3604 66.414 94.2385 66.371C94.1165 66.3279 93.9842 66.3241 93.86 66.36C93.7319 66.3832 93.6148 66.4475 93.5264 66.5431C93.438 66.6387 93.3831 66.7605 93.37 66.89C93.33 67.3057 93.33 67.7243 93.37 68.14C93.43 68.71 93.46 68.71 92.9 68.82C91.9774 68.9951 91.0934 69.3338 90.29 69.82C86.8574 71.7787 83.9777 74.5759 81.92 77.95C81.1424 79.1914 80.619 80.5748 80.38 82.02C80.31 82.54 80.3 83.08 80.26 83.64C80.1469 83.65 80.0331 83.65 79.92 83.64C78.9022 83.5148 77.8694 83.6525 76.92 84.04C76.7685 84.098 76.6268 84.1789 76.5 84.28C76.3711 84.3679 76.2787 84.4998 76.2402 84.651C76.2018 84.8022 76.2198 84.9623 76.2911 85.1011C76.3623 85.2399 76.4818 85.3478 76.6271 85.4047C76.7724 85.4616 76.9335 85.4635 77.08 85.41C77.42 85.32 77.74 85.18 78.08 85.1C78.4058 85.0131 78.7446 84.986 79.08 85.02C78.9884 85.1121 78.8915 85.1989 78.79 85.28C71.7964 90.2165 63.7203 93.4024 55.24 94.57C51.5382 95.0715 47.7928 95.1687 44.07 94.86C39.397 94.5003 34.8017 93.4593 30.43 91.77C22.0584 88.639 14.8407 83.0295 9.73999 75.69C6.10719 70.5 3.73126 64.5362 2.79998 58.27C1.401 48.9718 3.00921 39.4699 7.39001 31.15C9.65411 26.7254 12.5888 22.6776 16.09 19.15C16.29 18.94 16.51 18.75 16.72 18.55C16.8307 18.4544 16.9344 18.3507 17.03 18.24C17.234 18.0356 17.3485 17.7587 17.3485 17.47C17.3485 17.1813 17.234 16.9043 17.03 16.7C16.9297 16.5993 16.8104 16.5194 16.6791 16.4649C16.5479 16.4104 16.4072 16.3823 16.265 16.3823C16.1229 16.3823 15.9821 16.4104 15.8508 16.4649C15.7195 16.5194 15.6003 16.5993 15.5 16.7C15.22 16.94 14.99 17.23 14.73 17.48C11.7473 20.5633 9.15151 23.9986 7 27.71C6.92 27.85 6.83001 27.97 6.70001 28.16C6.52001 27.77 6.38002 27.44 6.21002 27.16C6.04002 26.88 5.84 26.58 5.63 26.27C5.77 26.16 5.89001 26.05 6.02001 25.96C7.43828 24.9814 8.68508 23.7751 9.71002 22.39C10.48 21.39 11.24 20.39 12.02 19.47C12.8608 18.3622 13.6163 17.1922 14.28 15.97L14.65 15.35L15.33 15.41C16.04 15.47 16.75 15.54 17.46 15.58C17.5844 15.5745 17.7084 15.5988 17.8215 15.651C17.9346 15.7032 18.0335 15.7817 18.11 15.88C18.2655 16.0868 18.4951 16.2252 18.7506 16.2663C19.0061 16.3073 19.2675 16.2477 19.48 16.1C19.7241 15.9344 19.9579 15.7541 20.18 15.56C23.6845 12.6733 27.5463 10.25 31.67 8.34999L32.67 7.88999C32.67 8.18999 32.6 8.36999 32.6 8.54999C32.5015 9.23555 32.5493 9.93418 32.74 10.6C32.7955 10.8131 32.7955 11.0369 32.74 11.25C32.6037 12.3589 32.2826 13.4372 31.79 14.44C31.6979 14.5781 31.6622 14.7462 31.6901 14.9098C31.7179 15.0734 31.8074 15.2202 31.94 15.32C32.0059 15.3704 32.0812 15.4071 32.1615 15.4279C32.2418 15.4487 32.3254 15.4531 32.4075 15.441C32.4895 15.4289 32.5683 15.4004 32.6392 15.3573C32.71 15.3142 32.7715 15.2573 32.82 15.19C33.0028 14.9852 33.1453 14.7477 33.24 14.49C33.48 13.8 33.67 13.1 33.88 12.4C33.93 12.22 33.97 12.05 34.02 11.85C34.1006 11.8735 34.1778 11.9071 34.25 11.95C36.151 13.2302 38.4393 13.8067 40.72 13.58C43.9667 13.3299 47.1054 12.3008 49.87 10.58C51.2328 9.74858 52.3804 8.60775 53.22 7.24999L53.52 6.78998L53.67 6.64998C53.7229 6.78436 53.7972 6.90932 53.89 7.01999C54.64 7.68999 55.4 8.34999 56.16 9.01999C56.2757 9.11076 56.4036 9.18482 56.54 9.23999C56.6812 9.31162 56.8439 9.32837 56.9968 9.28702C57.1496 9.24567 57.2816 9.14914 57.3674 9.01608C57.4532 8.88303 57.4867 8.72291 57.4613 8.56664C57.4359 8.41037 57.3535 8.26904 57.23 8.16998C57.12 8.06998 56.99 7.99999 56.88 7.90999C56.3 7.40999 55.7 6.90999 55.13 6.40999C54.6879 6.01704 54.4036 5.47687 54.33 4.88999C54.2904 4.71523 54.2265 4.54692 54.14 4.38999C54.01 4.10999 53.85 3.84999 53.65 3.48999C53.92 3.48999 54.11 3.48999 54.3 3.48999C59.0447 3.53395 63.7588 4.25454 68.3 5.62999C75.7198 7.8315 82.4465 11.9095 87.83 17.47C93.7631 23.5274 97.6875 31.2645 99.07 39.63C100.368 47.338 99.5593 55.2535 96.73 62.54V62.47ZM100.41 31.13C100.18 31.73 99.98 32.33 99.76 32.93H99.63C97.681 26.9993 94.5016 21.5471 90.3 16.93L90.37 16.83C90.5184 16.8486 90.6633 16.889 90.8 16.95C91.219 17.2081 91.6169 17.499 91.99 17.82C94.94 20.4862 97.321 23.7209 98.99 27.33C99.46 28.33 99.89 29.41 100.36 30.44C100.424 30.5551 100.462 30.683 100.47 30.8144C100.479 30.9458 100.458 31.0775 100.41 31.2V31.13Z" fill="black"/>
<path id="Vector_21" opacity="0.76" d="M34.94 64C33.775 64.0275 32.6169 63.8144 31.538 63.3739C30.4592 62.9334 29.4828 62.275 28.67 61.44C26.8838 59.6264 25.7541 57.2684 25.46 54.74C25.168 52.9062 25.4003 51.0274 26.13 49.32C26.4052 48.7242 26.7402 48.1579 27.13 47.63C27.5015 47.1489 28.0003 46.7817 28.57 46.57C28.7205 46.5069 28.8784 46.4633 29.04 46.44C29.1872 46.4196 29.337 46.4528 29.4618 46.5336C29.5866 46.6144 29.6782 46.7373 29.72 46.88C29.7743 47.0183 29.7734 47.1721 29.7176 47.3098C29.6618 47.4475 29.5553 47.5585 29.42 47.62C27.63 48.33 27.1 49.9 26.83 51.54C26.5301 53.1211 26.6162 54.7513 27.081 56.292C27.5458 57.8327 28.3757 59.2385 29.5 60.39C30.382 61.3565 31.5122 62.0624 32.7676 62.4309C34.0231 62.7994 35.3556 62.8164 36.62 62.48C38.2912 62.1142 39.8205 61.2714 41.0222 60.0537C42.2238 58.8361 43.0464 57.2959 43.39 55.62C43.6141 54.4803 43.5065 53.3003 43.08 52.22C42.446 50.472 41.321 48.9443 39.84 47.82C39.23 47.39 38.64 46.93 38.04 46.48C37.9631 46.44 37.895 46.3851 37.8396 46.3184C37.7842 46.2518 37.7427 46.1747 37.7176 46.0918C37.6924 46.0089 37.6841 45.9218 37.6931 45.8356C37.7021 45.7494 37.7283 45.6659 37.77 45.59C37.8583 45.4371 38.0019 45.3238 38.1712 45.2736C38.3405 45.2234 38.5226 45.24 38.68 45.32C38.8446 45.3974 38.9991 45.4948 39.14 45.6099C39.84 46.1399 40.55 46.66 41.21 47.23C42.9049 48.6788 44.1013 50.6238 44.63 52.79C44.9937 54.1655 44.9167 55.6205 44.41 56.95C43.8624 58.6779 42.8608 60.2271 41.5098 61.4356C40.1588 62.6441 38.508 63.4676 36.73 63.82C36.42 63.88 36.11 63.92 35.81 63.95C35.51 63.98 35.16 63.94 34.94 64Z" fill="black"/>
<path id="Vector_22" opacity="0.76" d="M35 41.32C36.6866 41.3073 38.3586 41.6335 39.9166 42.2794C41.4747 42.9253 42.8871 43.8777 44.07 45.08C45.5104 46.5047 46.4954 48.3249 46.9 50.31C46.9201 50.4728 46.9201 50.6373 46.9 50.8C46.886 50.9468 46.8232 51.0846 46.7217 51.1916C46.6202 51.2985 46.4859 51.3684 46.34 51.3901C46.2036 51.4072 46.0652 51.3806 45.9448 51.3141C45.8244 51.2476 45.7282 51.1447 45.67 51.02C45.6108 50.9073 45.5703 50.7857 45.55 50.66C45.2925 49.3615 44.7594 48.1334 43.9865 47.0586C43.2136 45.9838 42.2191 45.0874 41.07 44.43C39.2568 43.2435 37.1369 42.6115 34.97 42.6115C32.803 42.6115 30.6832 43.2435 28.87 44.43C27.8331 45.0518 26.9403 45.8869 26.2507 46.88C25.5611 47.873 25.0905 49.0013 24.87 50.19C24.655 51.2526 24.655 52.3475 24.87 53.41C24.9169 53.5865 24.9437 53.7676 24.95 53.9501C24.9614 54.0965 24.9204 54.2422 24.8343 54.3613C24.7482 54.4803 24.6226 54.5649 24.48 54.6C24.3263 54.6395 24.1634 54.6204 24.023 54.5465C23.8825 54.4725 23.7745 54.3491 23.72 54.2001C23.6615 54.0445 23.618 53.8838 23.59 53.72C23.2328 51.9895 23.354 50.1942 23.9407 48.5274C24.5275 46.8606 25.5575 45.3852 26.92 44.26C29.1528 42.3073 32.0344 41.2588 35 41.32Z" fill="black"/>
</g>
<defs>
<linearGradient id="paint0_linear_343_6698" x1="35.47" y1="7.15993" x2="51.38" y2="7.15993" gradientUnits="userSpaceOnUse">
<stop stop-color="#EC8684"/>
<stop offset="0.08" stop-color="#DC8596"/>
<stop offset="0.27" stop-color="#BC83BC"/>
<stop offset="0.46" stop-color="#A381D9"/>
<stop offset="0.64" stop-color="#9180EE"/>
<stop offset="0.83" stop-color="#867FFB"/>
<stop offset="1" stop-color="#827FFF"/>
</linearGradient>
<linearGradient id="paint1_linear_343_6698" x1="13392.6" y1="4644.82" x2="13583.6" y2="4644.82" gradientUnits="userSpaceOnUse">
<stop stop-color="#EC8684"/>
<stop offset="0.08" stop-color="#DC8596"/>
<stop offset="0.27" stop-color="#BC83BC"/>
<stop offset="0.46" stop-color="#A381D9"/>
<stop offset="0.64" stop-color="#9180EE"/>
<stop offset="0.83" stop-color="#867FFB"/>
<stop offset="1" stop-color="#827FFF"/>
</linearGradient>
<linearGradient id="paint2_linear_343_6698" x1="86127.3" y1="25705" x2="95608" y2="25705" gradientUnits="userSpaceOnUse">
<stop stop-color="#EC8684"/>
<stop offset="0.08" stop-color="#DC8596"/>
<stop offset="0.27" stop-color="#BC83BC"/>
<stop offset="0.46" stop-color="#A381D9"/>
<stop offset="0.64" stop-color="#9180EE"/>
<stop offset="0.83" stop-color="#867FFB"/>
<stop offset="1" stop-color="#827FFF"/>
</linearGradient>
<linearGradient id="paint3_linear_343_6698" x1="9947.77" y1="4147.61" x2="10050.9" y2="4147.61" gradientUnits="userSpaceOnUse">
<stop stop-color="#EC8684"/>
<stop offset="0.08" stop-color="#DC8596"/>
<stop offset="0.27" stop-color="#BC83BC"/>
<stop offset="0.46" stop-color="#A381D9"/>
<stop offset="0.64" stop-color="#9180EE"/>
<stop offset="0.83" stop-color="#867FFB"/>
<stop offset="1" stop-color="#827FFF"/>
</linearGradient>
<linearGradient id="paint4_linear_343_6698" x1="12918.2" y1="3348.88" x2="13125.8" y2="3348.88" gradientUnits="userSpaceOnUse">
<stop stop-color="#EC8684"/>
<stop offset="0.08" stop-color="#DC8596"/>
<stop offset="0.27" stop-color="#BC83BC"/>
<stop offset="0.46" stop-color="#A381D9"/>
<stop offset="0.64" stop-color="#9180EE"/>
<stop offset="0.83" stop-color="#867FFB"/>
<stop offset="1" stop-color="#827FFF"/>
</linearGradient>
<linearGradient id="paint5_linear_343_6698" x1="7514.71" y1="1470.67" x2="7579.77" y2="1470.67" gradientUnits="userSpaceOnUse">
<stop stop-color="#EC8684"/>
<stop offset="0.08" stop-color="#DC8596"/>
<stop offset="0.27" stop-color="#BC83BC"/>
<stop offset="0.46" stop-color="#A381D9"/>
<stop offset="0.64" stop-color="#9180EE"/>
<stop offset="0.83" stop-color="#867FFB"/>
<stop offset="1" stop-color="#827FFF"/>
</linearGradient>
<linearGradient id="paint6_linear_343_6698" x1="1550.02" y1="713.175" x2="1552.77" y2="713.175" gradientUnits="userSpaceOnUse">
<stop stop-color="#EC8684"/>
<stop offset="0.08" stop-color="#DC8596"/>
<stop offset="0.27" stop-color="#BC83BC"/>
<stop offset="0.46" stop-color="#A381D9"/>
<stop offset="0.64" stop-color="#9180EE"/>
<stop offset="0.83" stop-color="#867FFB"/>
<stop offset="1" stop-color="#827FFF"/>
</linearGradient>
<linearGradient id="paint7_linear_343_6698" x1="14865.8" y1="5019.28" x2="15103.1" y2="5019.28" gradientUnits="userSpaceOnUse">
<stop stop-color="#EC8684"/>
<stop offset="0.08" stop-color="#DC8596"/>
<stop offset="0.27" stop-color="#BC83BC"/>
<stop offset="0.46" stop-color="#A381D9"/>
<stop offset="0.64" stop-color="#9180EE"/>
<stop offset="0.83" stop-color="#867FFB"/>
<stop offset="1" stop-color="#827FFF"/>
</linearGradient>
<linearGradient id="paint8_linear_343_6698" x1="10182.3" y1="2940.71" x2="10292.1" y2="2940.71" gradientUnits="userSpaceOnUse">
<stop stop-color="#EC8684"/>
<stop offset="0.08" stop-color="#DC8596"/>
<stop offset="0.27" stop-color="#BC83BC"/>
<stop offset="0.46" stop-color="#A381D9"/>
<stop offset="0.64" stop-color="#9180EE"/>
<stop offset="0.83" stop-color="#867FFB"/>
<stop offset="1" stop-color="#827FFF"/>
</linearGradient>
<linearGradient id="paint9_linear_343_6698" x1="19752.5" y1="6534.8" x2="20225.5" y2="6534.8" gradientUnits="userSpaceOnUse">
<stop stop-color="#EC8684"/>
<stop offset="0.08" stop-color="#DC8596"/>
<stop offset="0.27" stop-color="#BC83BC"/>
<stop offset="0.46" stop-color="#A381D9"/>
<stop offset="0.64" stop-color="#9180EE"/>
<stop offset="0.83" stop-color="#867FFB"/>
<stop offset="1" stop-color="#827FFF"/>
</linearGradient>
</defs>
</svg>
