<svg width="133" height="127" viewBox="0 0 133 127" fill="none" xmlns="http://www.w3.org/2000/svg">
<g id="bgPlanet2" opacity="0.82">
<path id="Vector" opacity="0.82" d="M66.5899 4.79999C66.698 5.10128 66.7405 5.42216 66.7146 5.74118C66.6887 6.0602 66.5951 6.37004 66.44 6.64999C66.1748 7.15211 65.867 7.63053 65.52 8.07999C65.3917 8.24995 65.2441 8.40436 65.08 8.54001C61.46 11.68 57.3999 13.87 52.5299 14.24C51.3911 14.3453 50.2427 14.2643 49.13 14C48.2938 13.7981 47.525 13.381 46.8999 12.79C46.4156 12.2772 46.1193 11.6154 46.0593 10.9126C45.9994 10.2098 46.1794 9.5074 46.57 8.92001C46.7621 8.71358 47.008 8.56468 47.2799 8.48999C50.1914 7.47098 53.1681 6.64913 56.1899 6.03C59.3797 5.37948 62.6108 4.95178 65.8599 4.75H66.3599C66.4378 4.76093 66.5146 4.77763 66.5899 4.79999Z" fill="url(#paint0_linear_343_7006)"/>
<path id="Vector_2" opacity="0.82" d="M105.51 110.37C105.6 109.75 106.19 107.18 106.29 106.7C106.616 105.186 107.205 103.741 108.03 102.43C110.535 98.3655 114.017 94.9929 118.16 92.62C118.676 92.2279 119.217 91.8704 119.78 91.55C119.99 91.46 124.32 90.78 123.35 91.94C123.64 96.4 112.94 112.45 105.51 110.37Z" fill="url(#paint1_linear_343_7006)"/>
<path id="Vector_3" opacity="0.82" d="M42.39 10.41C42.39 10.79 42.3 11.02 42.3 11.26C42.1748 12.1529 42.236 13.062 42.48 13.93C42.5672 14.2013 42.5844 14.4902 42.53 14.77C42.3592 16.2113 41.9396 17.6121 41.29 18.91C41.1678 19.0902 41.1203 19.3108 41.1576 19.5254C41.195 19.7399 41.3141 19.9316 41.49 20.06C41.5766 20.1246 41.6751 20.1714 41.7798 20.1979C41.8846 20.2243 41.9935 20.2298 42.1003 20.214C42.2072 20.1982 42.3099 20.1614 42.4025 20.1058C42.4951 20.0502 42.5758 19.9769 42.64 19.89C42.8781 19.6251 43.0616 19.3159 43.18 18.98C43.49 18.09 43.74 17.17 44.02 16.26C44.08 16.04 44.13 15.81 44.2 15.55C44.33 15.61 44.42 15.63 44.5 15.68C46.9709 17.3446 49.9453 18.0944 52.91 17.8C57.1198 17.5 61.1966 16.1971 64.8 14C66.5705 12.9113 68.0632 11.4254 69.16 9.65997L69.55 9.06998L69.75 8.88998C69.8193 9.0598 69.9137 9.2182 70.03 9.35995C71.03 10.23 72.03 11.09 72.98 11.94C73.1279 12.0581 73.2932 12.1525 73.47 12.22C73.6519 12.309 73.8601 12.3285 74.0554 12.2747C74.2507 12.2209 74.4196 12.0976 74.5302 11.9279C74.6409 11.7583 74.6857 11.554 74.6562 11.3536C74.6266 11.1532 74.5249 10.9705 74.37 10.84C74.24 10.71 74.07 10.62 73.92 10.49C73.16 9.84996 72.39 9.20996 71.65 8.54996C71.07 8.03196 70.697 7.32154 70.6 6.54996C70.5596 6.31752 70.4783 6.09411 70.36 5.88998C70.19 5.53998 69.98 5.18997 69.72 4.71997C70.08 4.71997 70.32 4.71997 70.56 4.71997C76.7284 4.77157 82.8575 5.70777 88.76 7.49997C98.4081 10.363 107.156 15.6633 114.16 22.89C121.866 30.7729 126.963 40.8338 128.76 51.71C130.46 61.7576 129.399 72.0785 125.69 81.57C125.05 83.28 124.25 84.93 123.52 86.57C123.42 86.8 123.29 87.02 123.14 87.3C123.051 87.1647 122.954 87.0345 122.85 86.9099C122.756 86.7703 122.62 86.6648 122.461 86.6089C122.303 86.5531 122.131 86.5499 121.97 86.5999C121.803 86.6259 121.649 86.7069 121.533 86.8301C121.417 86.9533 121.346 87.1116 121.33 87.28C121.275 87.8219 121.275 88.368 121.33 88.9099C121.41 89.6499 121.44 89.6499 120.72 89.7899C119.522 90.0152 118.374 90.4521 117.33 91.08C112.867 93.6246 109.121 97.2574 106.44 101.64C105.435 103.263 104.755 105.067 104.44 106.95C104.34 107.62 104.34 108.31 104.29 109.05C104.14 109.065 103.99 109.065 103.84 109.05C102.536 108.898 101.214 109.08 100 109.58C99.7972 109.651 99.6079 109.756 99.44 109.89C99.2942 110.006 99.19 110.166 99.1431 110.347C99.0962 110.527 99.1092 110.718 99.18 110.89C99.2685 111.069 99.4177 111.21 99.6009 111.289C99.7841 111.368 99.9894 111.379 100.18 111.32C100.62 111.2 101.04 111.03 101.48 110.92C101.904 110.81 102.344 110.776 102.78 110.82C102.66 110.941 102.533 111.054 102.4 111.16C93.3115 117.585 82.8083 121.725 71.78 123.23C66.9713 123.88 62.1067 124.01 57.27 123.62C51.1907 123.155 45.2113 121.807 39.52 119.62C28.6344 115.55 19.2498 108.255 12.62 98.71C7.9012 91.9617 4.81973 84.2066 3.62001 76.06C1.80297 63.9642 3.90557 51.6045 9.62001 40.79C12.5608 35.0421 16.3725 29.7833 20.92 25.2C21.19 24.93 21.47 24.68 21.75 24.42C21.8908 24.2943 22.0243 24.1607 22.15 24.02C22.3031 23.8984 22.429 23.746 22.5197 23.5728C22.6103 23.3996 22.6636 23.2093 22.6763 23.0142C22.6889 22.8191 22.6606 22.6235 22.593 22.4401C22.5255 22.2566 22.4202 22.0893 22.2841 21.949C22.148 21.8086 21.984 21.6984 21.8027 21.6253C21.6213 21.5522 21.4267 21.5179 21.2313 21.5246C21.0359 21.5313 20.8441 21.5788 20.6682 21.6641C20.4923 21.7494 20.3362 21.8706 20.21 22.02C19.8596 22.3358 19.5259 22.6696 19.21 23.02C15.2714 26.9823 11.8417 31.4198 9.00001 36.23C8.89001 36.4 8.77002 36.57 8.60002 36.81C8.37002 36.31 8.19002 35.87 7.96002 35.46C7.73002 35.05 7.48002 34.71 7.22002 34.3C7.37924 34.1576 7.54616 34.0241 7.72002 33.9C9.56246 32.6255 11.1839 31.0582 12.52 29.26C13.52 27.99 14.52 26.71 15.52 25.46C16.6117 24.0184 17.5944 22.4976 18.46 20.91L18.94 20.1L19.82 20.18C20.75 20.26 21.67 20.35 22.59 20.4C22.752 20.3936 22.913 20.4267 23.0594 20.4963C23.2057 20.566 23.3329 20.6702 23.43 20.8C23.5298 20.9352 23.6553 21.0495 23.7993 21.1363C23.9432 21.2231 24.1029 21.2806 24.2691 21.3057C24.4353 21.3308 24.6048 21.3229 24.768 21.2824C24.9312 21.242 25.0848 21.1698 25.22 21.07C25.5349 20.8601 25.8356 20.6296 26.12 20.38C30.6611 16.6335 35.6615 13.4814 41 11C41.45 10.81 41.86 10.64 42.39 10.41ZM45.39 83.35C45.67 83.35 46.1 83.35 46.52 83.29C46.9234 83.2552 47.3242 83.1951 47.72 83.11C50.0354 82.6572 52.186 81.5889 53.9457 80.0175C55.7054 78.4461 57.0092 76.4296 57.72 74.18C58.3799 72.4513 58.4813 70.5593 58.01 68.77C57.3135 65.9587 55.7622 63.4327 53.57 61.54C52.7 60.8 51.78 60.13 50.87 59.43C50.6846 59.2844 50.4833 59.1603 50.27 59.06C50.0653 58.9561 49.829 58.9335 49.6083 58.9965C49.3876 59.0596 49.1989 59.2037 49.08 59.4C49.0257 59.4997 48.9917 59.6091 48.9799 59.722C48.9681 59.835 48.9788 59.9491 49.0113 60.0579C49.0438 60.1667 49.0976 60.2679 49.1694 60.3558C49.2413 60.4437 49.3299 60.5165 49.43 60.57C50.22 61.15 50.99 61.75 51.78 62.32C53.7028 63.7689 55.1678 65.7408 56 68C56.5557 69.4042 56.6946 70.9388 56.4 72.42C55.9533 74.5998 54.8844 76.6034 53.3226 78.1883C51.7608 79.7731 49.7731 80.8714 47.6 81.35C45.9552 81.7827 44.2233 81.7581 42.5915 81.2787C40.9596 80.7994 39.4896 79.8835 38.34 78.63C36.8778 77.1325 35.7988 75.3041 35.1946 73.3002C34.5905 71.2963 34.4791 69.1761 34.87 67.12C35.22 64.98 35.92 62.94 38.24 62.02C38.4242 61.9389 38.5686 61.788 38.6417 61.6006C38.7148 61.4131 38.7106 61.2043 38.63 61.02C38.5746 60.8368 38.4553 60.6796 38.2938 60.5768C38.1324 60.4741 37.9394 60.4326 37.75 60.46C37.5364 60.4872 37.3277 60.5444 37.13 60.63C36.3864 60.8995 35.7368 61.3788 35.26 62.01C34.7481 62.6887 34.309 63.4194 33.95 64.19C33.0004 66.4143 32.6988 68.8617 33.08 71.25C33.4362 74.5453 34.8868 77.6261 37.2 80C38.2554 81.0912 39.5252 81.9522 40.9295 82.5287C42.3339 83.1053 43.8423 83.3849 45.36 83.35H45.39ZM45.39 53.92C41.5416 53.8434 37.8023 55.2015 34.9 57.73C33.1346 59.1906 31.8006 61.1047 31.0412 63.2665C30.2819 65.4283 30.1259 67.7562 30.59 70C30.616 70.2106 30.6733 70.4162 30.76 70.61C30.8287 70.8084 30.9701 70.9735 31.1557 71.0718C31.3412 71.1702 31.5572 71.1946 31.76 71.14C31.9486 71.0972 32.1154 70.9875 32.2294 70.8312C32.3434 70.675 32.3969 70.4827 32.38 70.29C32.3713 70.0505 32.3378 69.8125 32.28 69.58C32.0001 68.204 32.0001 66.7859 32.28 65.41C32.5715 63.8597 33.1895 62.3892 34.0929 61.0961C34.9964 59.803 36.1646 58.7169 37.52 57.91C42.78 54.71 48.14 54.82 53.39 57.91C54.8823 58.7649 56.1735 59.9306 57.1759 61.3282C58.1783 62.7257 58.8686 64.3223 59.2 66.01C59.2382 66.1714 59.2918 66.3288 59.36 66.48C59.4369 66.6429 59.5636 66.7772 59.7217 66.8635C59.8799 66.9498 60.0614 66.9835 60.24 66.96C60.4315 66.9327 60.6077 66.8402 60.7388 66.6981C60.87 66.556 60.9481 66.373 60.96 66.18C60.9694 65.9682 60.9492 65.7561 60.9 65.55C60.371 62.9699 59.0906 60.604 57.22 58.75C55.6754 57.1948 53.8341 55.9659 51.8053 55.1362C49.7765 54.3065 47.6017 53.8929 45.41 53.92H45.39ZM101.54 105.18C101.532 105.36 101.58 105.538 101.676 105.69C101.773 105.842 101.914 105.961 102.08 106.03C102.222 106.095 102.382 106.113 102.535 106.08C102.688 106.048 102.826 105.967 102.93 105.85C103.083 105.668 103.211 105.466 103.31 105.25C103.6 104.68 103.84 104.07 104.17 103.53C105.08 102.05 106.02 100.59 106.97 99.15C108.089 97.4662 109.435 95.9452 110.97 94.63C112.08 93.63 113.23 92.75 114.37 91.82C115.282 91.0785 116.291 90.466 117.37 90L119 89.3C119.11 89.2679 119.212 89.2145 119.3 89.1426C119.389 89.0708 119.462 88.982 119.516 88.8814C119.57 88.7809 119.604 88.6707 119.615 88.5571C119.626 88.4435 119.614 88.3289 119.58 88.2199C119.503 88.004 119.346 87.8258 119.141 87.7217C118.937 87.6176 118.7 87.5955 118.48 87.6599C118.274 87.7104 118.073 87.7808 117.88 87.87C116.124 88.5436 114.484 89.4884 113.02 90.67C112.31 91.27 111.58 91.84 110.87 92.43C109.017 93.8873 107.378 95.5973 106 97.51C104.88 99.14 103.82 100.8 102.78 102.51C102.377 103.213 102.013 103.937 101.69 104.68C101.633 104.843 101.589 105.01 101.56 105.18H101.54ZM73.76 102.83C72.589 102.838 71.4435 103.172 70.4523 103.796C69.4612 104.42 68.6638 105.308 68.15 106.36C67.9355 106.879 67.8832 107.451 68 108C68.0136 108.117 68.0504 108.231 68.1082 108.333C68.166 108.436 68.2437 108.527 68.3367 108.599C68.4298 108.672 68.5363 108.725 68.6502 108.756C68.7641 108.787 68.883 108.795 69 108.78C69.46 108.78 69.72 108.39 69.74 107.78C69.7375 107.497 69.7711 107.215 69.84 106.94C70.1726 106.294 70.6581 105.74 71.2543 105.325C71.8504 104.91 72.539 104.647 73.26 104.56C73.9566 104.522 74.6458 104.718 75.2183 105.117C75.7908 105.515 76.2138 106.094 76.42 106.76C76.6722 107.502 76.8596 108.265 76.98 109.04C77.11 109.64 77.16 110.26 77.28 110.87C77.3076 111.085 77.4182 111.281 77.5883 111.415C77.7584 111.55 77.9743 111.613 78.19 111.59C78.4056 111.563 78.6035 111.457 78.7457 111.293C78.8878 111.128 78.9642 110.917 78.96 110.7C78.9749 110.557 78.9749 110.413 78.96 110.27C78.88 109.68 78.8 109.09 78.69 108.51C78.571 107.517 78.2977 106.549 77.88 105.64C77.5228 104.839 76.9506 104.152 76.2269 103.656C75.5032 103.16 74.6563 102.874 73.78 102.83H73.76ZM103.61 62H103.3C103.127 61.9832 102.953 62.0175 102.8 62.0984C102.646 62.1793 102.519 62.3035 102.435 62.4555C102.351 62.6075 102.314 62.7807 102.327 62.9539C102.34 63.127 102.404 63.2925 102.51 63.43C102.719 63.7444 102.984 64.0188 103.29 64.24C104.151 64.8367 105.142 65.2206 106.18 65.36C107.04 65.51 107.18 65.42 107.68 64.66C107.68 64.66 107.76 64.61 107.8 64.59C108.1 64.6496 108.404 64.6897 108.71 64.71C108.89 64.7124 109.066 64.6533 109.207 64.5423C109.349 64.4314 109.449 64.2753 109.49 64.1C109.536 63.9262 109.524 63.742 109.456 63.5757C109.387 63.4095 109.265 63.2704 109.11 63.18C108.915 63.0913 108.714 63.0145 108.51 62.95C107.95 62.7648 107.405 62.5375 106.88 62.27C105.88 61.68 104.88 61.12 104.55 59.83C104.493 59.658 104.375 59.5125 104.219 59.4206C104.062 59.3287 103.878 59.2965 103.7 59.33C103.523 59.3545 103.357 59.4344 103.228 59.5583C103.099 59.6822 103.012 59.8438 102.98 60.02C102.889 60.4668 102.971 60.9314 103.21 61.32C103.33 61.5 103.46 61.69 103.61 62ZM72.83 105.9C72.5837 105.922 72.3481 106.01 72.1488 106.157C71.9496 106.303 71.7943 106.501 71.7 106.73C71.4172 107.279 71.25 107.879 71.2087 108.495C71.1674 109.111 71.2529 109.729 71.46 110.31C71.5242 110.515 71.6353 110.702 71.7847 110.857C71.934 111.011 72.1173 111.129 72.32 111.2C72.5021 111.289 72.7097 111.312 72.9069 111.265C73.1041 111.217 73.2785 111.102 73.4 110.94C73.5051 110.789 73.5538 110.606 73.5373 110.424C73.5208 110.241 73.4404 110.069 73.31 109.94C73.1722 109.794 73.0676 109.621 73.0038 109.431C72.9399 109.241 72.9181 109.039 72.94 108.84C72.917 108.569 72.9495 108.296 73.0355 108.038C73.1215 107.781 73.2591 107.543 73.44 107.34C73.5616 107.222 73.6418 107.067 73.6688 106.9C73.6958 106.732 73.6682 106.561 73.59 106.41C73.5434 106.245 73.4435 106.101 73.3059 106C73.1683 105.898 73.0009 105.846 72.83 105.85V105.9ZM35.62 86.56C35.62 86.15 35.39 85.91 34.92 85.69C34.0456 85.3772 33.2999 84.7827 32.8 84C32.6882 83.8485 32.5303 83.7374 32.35 83.6833C32.1697 83.6292 31.9767 83.6351 31.8 83.7C31.6216 83.7715 31.475 83.9048 31.3868 84.0756C31.2987 84.2464 31.275 84.4432 31.32 84.63C31.3901 84.95 31.5301 85.2505 31.73 85.51C32.322 86.2552 33.0973 86.8341 33.98 87.19C34.2625 87.3033 34.566 87.3545 34.87 87.34C34.9738 87.3349 35.0756 87.3093 35.1695 87.2648C35.2634 87.2203 35.3476 87.1577 35.4172 87.0806C35.4869 87.0035 35.5407 86.9134 35.5755 86.8155C35.6103 86.7175 35.6254 86.6138 35.62 86.51V86.56ZM102.82 16.56C102.642 16.237 102.423 15.938 102.17 15.67C101.59 15.2 100.96 14.77 100.33 14.35C100.241 14.2652 100.135 14.2004 100.019 14.1599C99.9036 14.1194 99.7804 14.1042 99.6581 14.1153C99.5359 14.1264 99.4174 14.1636 99.3107 14.2242C99.204 14.2849 99.1116 14.3678 99.0396 14.4672C98.9675 14.5666 98.9176 14.6802 98.8932 14.8005C98.8687 14.9208 98.8703 15.045 98.8978 15.1646C98.9253 15.2842 98.9781 15.3966 99.0527 15.4941C99.1272 15.5916 99.2218 15.672 99.33 15.73C100.02 16.26 100.74 16.73 101.45 17.26C101.574 17.3565 101.728 17.4088 101.885 17.4088C102.043 17.4088 102.196 17.3565 102.32 17.26C102.516 17.0455 102.684 16.8069 102.82 16.55V16.56ZM95 13.46C94.7927 13.4352 94.5833 13.485 94.4092 13.6004C94.2352 13.7158 94.1079 13.8893 94.05 14.09C93.9999 14.2979 94.0309 14.5171 94.1368 14.7029C94.2427 14.8888 94.4155 15.0272 94.62 15.09C95.2933 15.313 95.9226 15.6514 96.48 16.09C96.6338 16.2264 96.8348 16.2975 97.0402 16.2882C97.2456 16.2788 97.4392 16.1898 97.58 16.04C97.7297 15.8975 97.8193 15.7032 97.8305 15.4969C97.8416 15.2905 97.7735 15.0877 97.64 14.93C96.9506 14.1567 96.0204 13.6387 95 13.46ZM36.13 83.9C35.37 83.9 34.98 84.47 35.22 85.07C35.5188 85.8371 35.9952 86.5225 36.61 87.07C36.7603 87.2113 36.9587 87.29 37.165 87.29C37.3713 87.29 37.5698 87.2113 37.72 87.07C37.8863 86.9298 37.9917 86.7305 38.0141 86.5142C38.0365 86.2978 37.9741 86.0812 37.84 85.9099C37.47 85.3599 37.1 84.81 36.69 84.29C36.523 84.1339 36.3344 84.0025 36.13 83.9Z" fill="url(#paint2_linear_343_7006)"/>
<path id="Vector_4" opacity="0.82" d="M129.46 43.1C126.939 35.3714 122.808 28.2651 117.34 22.25L117.43 22.12C117.624 22.1426 117.813 22.1966 117.99 22.28C118.535 22.6122 119.053 22.9867 119.54 23.4C123.375 26.8731 126.476 31.0791 128.66 35.77C129.28 37.11 129.84 38.47 130.44 39.77C130.515 39.9259 130.554 40.0968 130.554 40.27C130.554 40.4431 130.515 40.6141 130.44 40.77C130.15 41.54 129.88 42.33 129.6 43.1H129.46Z" fill="url(#paint3_linear_343_7006)"/>
<path id="Vector_5" opacity="0.82" d="M36.5799 121.33L33.3399 122.67L32.7099 121.95C30.4991 119.33 27.8621 117.102 24.9099 115.36C24.3099 114.99 23.7599 114.52 23.1699 114.13C21.9099 113.28 20.6299 112.45 19.3799 111.59C18.9412 111.302 18.5354 110.967 18.1699 110.59C17.7099 110.11 17.7399 110.05 18.2499 109.39C23.6028 114.426 29.8097 118.469 36.5799 121.33Z" fill="url(#paint4_linear_343_7006)"/>
<path id="Vector_6" opacity="0.82" d="M57.78 15.1301C59.17 14.4101 60.59 13.7501 61.95 12.9801C62.9573 12.3985 63.929 11.7574 64.86 11.0601C66.3158 10.0965 67.4864 8.76004 68.25 7.19006C68.2859 7.36348 68.2839 7.54259 68.2442 7.71518C68.2045 7.88777 68.128 8.04976 68.02 8.19006C67.198 9.70049 66.0461 11.0062 64.65 12.0101C62.633 13.4038 60.3996 14.4546 58.04 15.1201L57.78 15.1301Z" fill="url(#paint5_linear_343_7006)"/>
<path id="Vector_7" opacity="0.82" d="M44.2299 10.8101C44.5099 12.6201 44.5099 12.62 46.1399 14.61C44.3599 13.84 43.5199 12.1501 44.2299 10.8101Z" fill="url(#paint6_linear_343_7006)"/>
<path id="Vector_8" opacity="0.82" d="M73.7799 102.83C74.6503 102.882 75.4895 103.173 76.2057 103.67C76.9218 104.168 77.4872 104.853 77.8399 105.65C78.2576 106.559 78.5309 107.527 78.6499 108.52C78.7599 109.1 78.8399 109.69 78.9199 110.28C78.9348 110.423 78.9348 110.567 78.9199 110.71C78.9241 110.927 78.8477 111.138 78.7056 111.303C78.5634 111.467 78.3655 111.573 78.1499 111.6C77.9342 111.623 77.7183 111.56 77.5482 111.426C77.3781 111.291 77.2675 111.095 77.2399 110.88C77.1199 110.27 77.0699 109.65 76.9399 109.05C76.8195 108.275 76.6322 107.512 76.3799 106.77C76.1737 106.104 75.7507 105.525 75.1782 105.127C74.6057 104.728 73.9165 104.532 73.2199 104.57C72.4989 104.658 71.8103 104.92 71.2142 105.335C70.618 105.75 70.1325 106.304 69.7999 106.95C69.731 107.225 69.6974 107.507 69.6999 107.79C69.6999 108.36 69.4199 108.7 68.9599 108.79C68.8429 108.805 68.724 108.797 68.6101 108.766C68.4963 108.735 68.3897 108.682 68.2966 108.609C68.2036 108.537 68.1259 108.446 68.0681 108.344C68.0103 108.241 67.9735 108.127 67.9599 108.01C67.8461 107.471 67.8949 106.911 68.0999 106.4C68.6133 105.33 69.4191 104.426 70.4242 103.795C71.4294 103.163 72.5927 102.828 73.7799 102.83Z" fill="black"/>
<path id="Vector_9" opacity="0.82" d="M103.61 62C103.46 61.74 103.33 61.55 103.21 61.35C102.965 60.9451 102.89 60.4601 103 60C103.032 59.8238 103.119 59.6623 103.248 59.5383C103.377 59.4144 103.543 59.3345 103.72 59.31C103.898 59.2765 104.082 59.3088 104.239 59.4007C104.395 59.4926 104.513 59.638 104.57 59.81C104.87 61.1 105.91 61.66 106.9 62.25C107.425 62.5175 107.97 62.7448 108.53 62.93C108.734 62.9945 108.935 63.0714 109.13 63.16C109.285 63.2505 109.407 63.3895 109.476 63.5558C109.544 63.722 109.556 63.9062 109.51 64.08C109.469 64.2554 109.369 64.4114 109.227 64.5224C109.086 64.6333 108.91 64.6925 108.73 64.69C108.424 64.6697 108.12 64.6296 107.82 64.57C107.82 64.57 107.72 64.57 107.7 64.64C107.23 65.4 107.06 65.49 106.2 65.34C105.162 65.2006 104.171 64.8168 103.31 64.22C103.004 63.9988 102.739 63.7245 102.53 63.41C102.424 63.2726 102.36 63.1071 102.347 62.9339C102.334 62.7608 102.371 62.5875 102.455 62.4355C102.539 62.2835 102.666 62.1594 102.819 62.0784C102.973 61.9975 103.147 61.9633 103.32 61.98L103.61 62ZM104.22 62.58L104.14 62.68L104.45 62.9L104.51 62.82L104.22 62.58Z" fill="black"/>
<path id="Vector_10" opacity="0.82" d="M72.8299 105.85C72.9898 105.84 73.1489 105.879 73.2851 105.964C73.4213 106.048 73.5279 106.172 73.5899 106.32C73.6681 106.471 73.6957 106.642 73.6687 106.81C73.6417 106.977 73.5615 107.132 73.4399 107.25C73.259 107.453 73.1214 107.691 73.0354 107.949C72.9494 108.206 72.9169 108.479 72.9399 108.75C72.918 108.949 72.9398 109.151 73.0037 109.341C73.0676 109.531 73.1721 109.705 73.3099 109.85C73.4403 109.979 73.5208 110.151 73.5372 110.334C73.5537 110.517 73.5051 110.699 73.3999 110.85C73.2784 111.012 73.104 111.127 72.9068 111.175C72.7096 111.222 72.502 111.199 72.3199 111.11C72.1172 111.039 71.9339 110.921 71.7846 110.767C71.6353 110.612 71.5241 110.425 71.4599 110.22C71.2529 109.639 71.1673 109.021 71.2086 108.405C71.2499 107.789 71.4171 107.189 71.6999 106.64C71.7999 106.419 71.9576 106.229 72.1565 106.09C72.3553 105.951 72.588 105.868 72.8299 105.85Z" fill="black"/>
<path id="Vector_11" opacity="0.82" d="M35.62 86.5101C35.6201 86.7145 35.541 86.911 35.3993 87.0583C35.2576 87.2057 35.0643 87.2923 34.86 87.3C34.556 87.3145 34.2525 87.2634 33.97 87.1501C33.0873 86.7942 32.312 86.2153 31.72 85.47C31.5201 85.2105 31.3801 84.91 31.31 84.59C31.265 84.4032 31.2887 84.2064 31.3768 84.0357C31.465 83.8649 31.6116 83.7316 31.79 83.66C31.9667 83.5951 32.1597 83.5893 32.34 83.6434C32.5203 83.6975 32.6782 83.8086 32.79 83.96C33.2915 84.739 34.037 85.3298 34.91 85.6401C35.39 85.8601 35.63 86.1001 35.62 86.5101Z" fill="black"/>
<path id="Vector_12" opacity="0.82" d="M102.82 16.55C102.68 16.8039 102.509 17.0391 102.31 17.25C102.185 17.3465 102.032 17.3989 101.875 17.3989C101.717 17.3989 101.564 17.3465 101.44 17.25C100.73 16.75 100.01 16.25 99.3199 15.72C99.2117 15.662 99.1172 15.5816 99.0426 15.4841C98.9681 15.3866 98.9152 15.2742 98.8877 15.1546C98.8602 15.035 98.8586 14.9108 98.8831 14.7905C98.9075 14.6703 98.9574 14.5566 99.0295 14.4572C99.1015 14.3578 99.194 14.275 99.3007 14.2143C99.4074 14.1536 99.5258 14.1164 99.6481 14.1053C99.7703 14.0942 99.8935 14.1094 100.009 14.1499C100.125 14.1904 100.231 14.2552 100.32 14.34C100.95 14.76 101.58 15.19 102.16 15.66C102.417 15.9274 102.639 16.2264 102.82 16.55Z" fill="black"/>
<path id="Vector_13" opacity="0.82" d="M94.9999 13.4601C96.023 13.6442 96.9536 14.1694 97.6399 14.9501C97.7734 15.1078 97.8415 15.3106 97.8304 15.517C97.8192 15.7233 97.7296 15.9176 97.5799 16.0601C97.4391 16.2099 97.2455 16.299 97.0401 16.3083C96.8347 16.3176 96.6337 16.2465 96.4799 16.1101C95.9225 15.6715 95.2932 15.3331 94.6199 15.1101C94.4154 15.0473 94.2426 14.9089 94.1367 14.723C94.0308 14.5372 93.9998 14.318 94.0499 14.1101C94.1038 13.9057 94.2295 13.7275 94.4039 13.6082C94.5783 13.4888 94.7899 13.4363 94.9999 13.4601Z" fill="black"/>
<path id="Vector_14" opacity="0.82" d="M36.13 83.9C36.3344 84.0026 36.5229 84.1339 36.69 84.29C37.1 84.81 37.47 85.36 37.84 85.91C37.9741 86.0813 38.0365 86.2979 38.0141 86.5143C37.9917 86.7306 37.8863 86.9298 37.72 87.07C37.5698 87.2114 37.3712 87.2901 37.165 87.2901C36.9587 87.2901 36.7602 87.2114 36.61 87.07C35.9951 86.5226 35.5188 85.8372 35.22 85.07C35 84.47 35.37 83.91 36.13 83.9Z" fill="black"/>
<path id="Vector_15" opacity="0.82" d="M104.22 62.53L104.51 62.77L104.45 62.85L104.14 62.63L104.22 62.53Z" fill="white"/>
<path id="Vector_16" opacity="0.82" d="M101.56 105.18C101.597 104.996 101.65 104.815 101.72 104.64C102.043 103.897 102.407 103.173 102.81 102.47C103.81 100.8 104.91 99.14 106.03 97.47C107.408 95.5573 109.047 93.8473 110.9 92.39C111.61 91.8 112.34 91.23 113.05 90.63C114.514 89.4484 116.154 88.5037 117.91 87.83C118.103 87.7408 118.304 87.6705 118.51 87.62C118.73 87.5555 118.967 87.5776 119.171 87.6817C119.376 87.7858 119.532 87.964 119.61 88.18C119.644 88.289 119.655 88.4036 119.645 88.5171C119.634 88.6307 119.6 88.741 119.546 88.8415C119.492 88.942 119.419 89.0307 119.33 89.1026C119.241 89.1744 119.139 89.228 119.03 89.26L117.4 89.96C116.321 90.4261 115.312 91.0385 114.4 91.78C113.26 92.71 112.11 93.64 111 94.59C109.465 95.9052 108.119 97.4262 107 99.11C106 100.55 105.11 102.01 104.2 103.49C103.87 104.03 103.63 104.64 103.34 105.21C103.241 105.426 103.113 105.628 102.96 105.81C102.856 105.927 102.718 106.008 102.565 106.04C102.412 106.073 102.252 106.055 102.11 105.99C101.948 105.925 101.81 105.813 101.712 105.669C101.614 105.524 101.561 105.354 101.56 105.18Z" fill="black"/>
<path id="Vector_17" opacity="0.82" d="M122.07 88C116.79 87.93 112.86 91.56 109.47 95.18C106.08 98.8 102.47 102.84 102.9 108.12C103 109.25 104.78 109.26 104.68 108.12C104.28 103.32 107.68 99.7 110.74 96.44C113.8 93.18 117.29 89.72 122.07 89.78C122.306 89.78 122.532 89.6863 122.699 89.5194C122.866 89.3525 122.96 89.1261 122.96 88.89C122.96 88.654 122.866 88.4276 122.699 88.2607C122.532 88.0938 122.306 88 122.07 88Z" fill="url(#paint7_linear_343_7006)"/>
<path id="Vector_18" opacity="0.82" d="M119.84 91.5901C117.715 92.3903 115.741 93.5431 114 95C111.307 96.9558 109.072 99.474 107.45 102.38C106.91 103.38 108.45 104.3 108.99 103.28C110.498 100.57 112.58 98.2214 115.09 96.4001C116.66 95.0838 118.433 94.0302 120.34 93.2801C120.549 93.2028 120.721 93.0499 120.823 92.8517C120.925 92.6534 120.948 92.4243 120.889 92.2094C120.83 91.9946 120.693 91.8097 120.504 91.6913C120.315 91.5729 120.089 91.5297 119.87 91.57L119.84 91.5901Z" fill="url(#paint8_linear_343_7006)"/>
<path id="Vector_19" opacity="0.82" d="M48.7399 59.4501C52.1699 59.5301 55.5199 63.27 56.5699 66.31C57.2136 67.9379 57.4805 69.6903 57.3506 71.436C57.2207 73.1817 56.6974 74.8754 55.8199 76.3901C51.6799 82.8501 39.5399 84.7101 36.2299 76.3901C35.3899 74.2801 31.9299 75.2 32.7899 77.34C36.0699 85.57 46.2099 87.55 53.4599 83.34C55.2123 82.3614 56.7443 81.0324 57.9607 79.4358C59.177 77.8392 60.0516 76.0093 60.5299 74.06C61.3629 70.418 60.8664 66.5981 59.1299 63.2901C57.2199 59.6201 53.0299 56 48.7399 55.9C46.4399 55.84 46.4499 59.41 48.7399 59.46V59.4501Z" fill="url(#paint9_linear_343_7006)"/>
<path id="Vector_20" opacity="0.82" d="M131.15 43.92C131.56 42.83 131.94 41.73 132.35 40.64C132.452 40.4104 132.488 40.1571 132.454 39.9082C132.42 39.6593 132.319 39.4246 132.16 39.23C132.018 39.0104 131.9 38.7756 131.81 38.53C131.23 37.23 130.67 35.91 130.06 34.63C127.721 29.748 124.43 25.3826 120.38 21.79C119.852 21.2543 119.207 20.8482 118.496 20.6036C117.784 20.359 117.026 20.2824 116.28 20.38C116.06 20.4153 115.834 20.3923 115.625 20.3134C115.416 20.2344 115.232 20.1023 115.09 19.93C104.73 9.84002 92.24 4.24002 77.9799 2.43002C74.2708 1.98716 70.5321 1.84337 66.8 2.00003C66.4931 2.02299 66.1845 1.98908 65.89 1.90002C63.2266 0.96597 60.3651 0.745341 57.59 1.26004C54.5866 1.77504 51.6797 2.74626 48.97 4.14004C48.63 4.31004 48.26 4.42003 47.97 4.60003C47.68 4.78003 47.44 4.86002 47.38 5.06002C47.18 5.68002 46.68 5.84002 46.15 6.06002C40.9404 7.89241 35.9606 10.3219 31.31 13.3C28.9248 14.8225 26.637 16.4924 24.46 18.3C24.3059 18.4454 24.1231 18.557 23.9233 18.6277C23.7235 18.6983 23.5112 18.7263 23.3 18.71C22.54 18.65 21.78 18.65 21.02 18.59C20.45 18.54 19.88 18.46 19.32 18.37C18.9351 18.2744 18.5289 18.3172 18.1724 18.4909C17.816 18.6646 17.5319 18.9581 17.37 19.32C17.15 19.75 16.91 20.16 16.66 20.56C15.82 21.86 15 23.17 14.1 24.42C13.2 25.67 12.16 26.89 11.19 28.12C9.93698 29.83 8.40568 31.3173 6.65996 32.52C6.36089 32.7146 6.07978 32.9355 5.81996 33.18C5.63424 33.3028 5.48021 33.4678 5.3705 33.6615C5.26079 33.8552 5.19852 34.0721 5.18877 34.2945C5.17902 34.5169 5.22205 34.7385 5.31438 34.9411C5.40671 35.1436 5.5457 35.3215 5.71996 35.46C6.09166 35.9298 6.42601 36.428 6.71996 36.95C6.94996 37.36 7.09996 37.82 7.34996 38.22C7.4596 38.3844 7.5181 38.5775 7.5181 38.775C7.5181 38.9726 7.4596 39.1657 7.34996 39.33C6.2082 41.4937 5.20615 43.7283 4.34996 46.02C0.357427 56.2536 -0.698891 67.3986 1.29996 78.2C2.96794 87.371 6.88491 95.9849 12.7 103.27C13.7 104.53 14.79 105.74 15.87 106.94C16.0112 107.074 16.1014 107.253 16.1251 107.447C16.1488 107.64 16.1046 107.836 16 108C15.8235 108.345 15.6265 108.679 15.41 109C15.17 109.3 15.0344 109.671 15.0235 110.055C15.0127 110.439 15.1273 110.817 15.35 111.13C16.0369 112.247 16.9708 113.191 18.08 113.89C19.4 114.7 20.65 115.6 21.93 116.47C22.7 116.99 23.44 117.54 24.22 118.04C26.5306 119.467 28.6082 121.241 30.38 123.3C30.95 123.97 31.56 124.6 32.17 125.24C32.3145 125.448 32.5073 125.619 32.732 125.736C32.9566 125.854 33.2064 125.915 33.46 125.915C33.7135 125.915 33.9633 125.854 34.1879 125.736C34.4126 125.619 34.6054 125.448 34.75 125.24C35.1963 124.765 35.763 124.419 36.39 124.24C36.8 124.12 37.22 124.03 37.63 123.93C38.46 123.73 39.28 123.53 39.54 122.53C39.82 122.61 40.02 122.66 40.22 122.73C50.1775 126.223 60.8132 127.343 71.28 126C81.2533 124.802 90.8566 121.492 99.45 116.29C101.61 114.99 103.64 113.49 105.73 112.09C105.96 111.93 106.15 111.7 106.49 111.78C107.267 111.92 108.068 111.8 108.77 111.44C110.189 110.819 111.515 110.005 112.71 109.02C116.036 106.315 118.988 103.181 121.49 99.7C122.536 98.222 123.374 96.6068 123.98 94.9C124.325 94.0863 124.466 93.2006 124.39 92.32C124.324 92.1302 124.308 91.9268 124.343 91.7291C124.378 91.5313 124.463 91.3458 124.59 91.19C124.637 91.1358 124.671 91.0718 124.69 91.0025C124.709 90.9333 124.713 90.8607 124.7 90.79C124.669 90.5794 124.68 90.3647 124.733 90.1586C124.786 89.9525 124.881 89.7591 125.01 89.59C128.785 82.5499 131.159 74.8442 132 66.9C132.694 60.201 132.21 53.4322 130.57 46.9C130.417 46.5574 130.358 46.1801 130.401 45.8073C130.443 45.4344 130.584 45.0797 130.81 44.78C130.975 44.5166 131.09 44.2251 131.15 43.92ZM68.25 7.19003C68.2859 7.36344 68.2839 7.54256 68.2442 7.71514C68.2045 7.88773 68.128 8.04973 68.02 8.19003C67.198 9.70046 66.0461 11.0062 64.6499 12.01C62.633 13.4038 60.3996 14.4546 58.04 15.12H57.78C59.17 14.4 60.59 13.74 61.95 12.97C62.9573 12.3885 63.929 11.7473 64.86 11.05C66.3144 10.0892 67.4849 8.75634 68.25 7.19003ZM46.57 8.92004C46.7622 8.71361 47.008 8.5647 47.28 8.49002C53.2705 6.39172 59.5237 5.1364 65.86 4.76004C66.0265 4.75006 66.1934 4.75006 66.36 4.76004C66.438 4.77423 66.5149 4.79429 66.59 4.82003C66.698 5.12133 66.7405 5.4422 66.7146 5.76123C66.6887 6.08025 66.5951 6.39009 66.44 6.67004C66.1748 7.17216 65.867 7.65058 65.52 8.10003C65.3917 8.27 65.2441 8.42437 65.08 8.56002C61.46 11.7 57.4 13.89 52.53 14.26C51.3911 14.3654 50.2427 14.2843 49.13 14.02C48.2938 13.8181 47.525 13.401 46.9 12.81C46.4107 12.2959 46.1114 11.6302 46.0514 10.923C45.9914 10.2158 46.1743 9.50928 46.57 8.92004ZM44.23 10.81C44.51 12.62 44.51 12.62 46.14 14.61C44.36 13.84 43.52 12.15 44.23 10.81ZM33.34 122.67L32.71 121.95C30.4992 119.33 27.8621 117.102 24.91 115.36C24.31 114.99 23.76 114.52 23.17 114.13C21.91 113.28 20.63 112.45 19.38 111.59C18.9412 111.302 18.5355 110.967 18.17 110.59C17.71 110.11 17.74 110.05 18.25 109.39C23.6037 114.423 29.8105 118.462 36.58 121.32L33.34 122.67ZM121.69 95.77C121.085 97.1655 120.291 98.4711 119.33 99.65C117.311 102.266 115.043 104.68 112.56 106.86C111.8 107.504 111.002 108.102 110.17 108.65C105.51 110.96 106.17 107.18 106.29 106.7C106.616 105.186 107.205 103.741 108.03 102.43C110.535 98.3655 114.017 94.9929 118.16 92.62C118.721 92.312 119.303 92.0414 119.9 91.81C120.125 91.7288 120.356 91.662 120.59 91.61C123.35 90.45 122.16 94.61 121.69 95.77ZM125.69 81.51C125.05 83.22 124.25 84.87 123.52 86.51C123.42 86.74 123.29 86.96 123.14 87.24C123.051 87.1048 122.954 86.9745 122.85 86.85C122.756 86.7104 122.62 86.6048 122.461 86.5489C122.303 86.493 122.13 86.4899 121.97 86.54C121.803 86.566 121.649 86.647 121.533 86.7702C121.417 86.8933 121.346 87.0516 121.33 87.22C121.275 87.7619 121.275 88.3081 121.33 88.85C121.41 89.59 121.44 89.59 120.71 89.73C119.516 89.957 118.372 90.3938 117.33 91.02C112.867 93.5647 109.121 97.1975 106.44 101.58C105.435 103.203 104.755 105.007 104.44 106.89C104.34 107.56 104.34 108.25 104.29 108.99C104.14 109.005 103.99 109.005 103.84 108.99C102.536 108.838 101.214 109.021 100 109.52C99.7972 109.591 99.6079 109.696 99.44 109.83C99.2941 109.946 99.1899 110.106 99.143 110.287C99.0961 110.467 99.1091 110.658 99.1799 110.83C99.2685 111.009 99.4177 111.15 99.6009 111.229C99.7841 111.308 99.9893 111.319 100.18 111.26C100.62 111.14 101.04 110.97 101.48 110.86C101.904 110.75 102.344 110.716 102.78 110.76C102.66 110.881 102.533 110.995 102.4 111.1C93.3114 117.525 82.8082 121.666 71.78 123.17C66.9712 123.82 62.1066 123.95 57.27 123.56C51.1906 123.095 45.2113 121.747 39.52 119.56C28.6343 115.49 19.2498 108.195 12.62 98.65C7.90114 91.9017 4.81967 84.1467 3.61995 76C1.80291 63.9043 3.90551 51.5445 9.61995 40.73C12.5608 34.9821 16.3725 29.7234 20.92 25.14C21.19 24.87 21.47 24.62 21.75 24.36C21.8907 24.2343 22.0243 24.1008 22.15 23.96C22.303 23.8384 22.429 23.6861 22.5196 23.5129C22.6102 23.3397 22.6636 23.1494 22.6762 22.9543C22.6889 22.7592 22.6605 22.5636 22.593 22.3801C22.5254 22.1967 22.4202 22.0294 22.2841 21.889C22.1479 21.7487 21.9839 21.6384 21.8026 21.5653C21.6213 21.4922 21.4267 21.4579 21.2313 21.4646C21.0359 21.4713 20.8441 21.5189 20.6682 21.6042C20.4923 21.6895 20.3362 21.8107 20.21 21.96C19.8596 22.2758 19.5258 22.6096 19.21 22.96C15.2674 26.941 11.8375 31.3988 8.99996 36.23C8.88996 36.4 8.76996 36.57 8.59996 36.81C8.36996 36.31 8.18996 35.87 7.95996 35.46C7.72996 35.05 7.47996 34.71 7.21996 34.3C7.37919 34.1576 7.5461 34.0241 7.71996 33.9C9.5624 32.6256 11.1838 31.0582 12.52 29.26C13.52 27.99 14.52 26.71 15.52 25.46C16.6116 24.0185 17.5944 22.4976 18.46 20.91L18.94 20.1L19.82 20.18C20.75 20.26 21.67 20.35 22.59 20.4C22.7519 20.3936 22.913 20.4267 23.0593 20.4964C23.2056 20.5661 23.3328 20.6703 23.43 20.8C23.5298 20.9353 23.6552 21.0496 23.7992 21.1363C23.9432 21.2231 24.1028 21.2807 24.269 21.3058C24.4352 21.3308 24.6048 21.3229 24.7679 21.2825C24.9311 21.242 25.0847 21.1698 25.22 21.07C25.5348 20.8601 25.8355 20.6296 26.12 20.38C30.6611 16.6336 35.6614 13.4815 41 11C41.41 10.81 41.82 10.64 42.35 10.41C42.35 10.79 42.26 11.02 42.26 11.26C42.1347 12.1529 42.196 13.062 42.44 13.93C42.5272 14.2013 42.5444 14.4903 42.49 14.77C42.3191 16.2113 41.8996 17.6121 41.25 18.91C41.1277 19.0903 41.0803 19.3109 41.1176 19.5254C41.1549 19.74 41.2741 19.9316 41.45 20.06C41.5365 20.1246 41.635 20.1715 41.7398 20.1979C41.8445 20.2244 41.9534 20.2298 42.0603 20.214C42.1672 20.1982 42.2698 20.1615 42.3624 20.1059C42.4551 20.0503 42.5358 19.9769 42.6 19.89C42.838 19.6251 43.0215 19.3159 43.14 18.98C43.45 18.09 43.7 17.17 43.98 16.26C44.04 16.04 44.09 15.81 44.16 15.55C44.29 15.61 44.38 15.63 44.46 15.68C46.9308 17.3446 49.9053 18.0944 52.87 17.8C57.0934 17.5064 61.1847 16.2032 64.8 14C66.5704 12.9113 68.0631 11.4255 69.16 9.66003L69.55 9.07003L69.75 8.89004C69.8192 9.05985 69.9136 9.21826 70.03 9.36001C71.03 10.23 72.03 11.09 72.9799 11.94C73.1278 12.0581 73.2931 12.1526 73.47 12.22C73.6519 12.3091 73.8601 12.3286 74.0554 12.2748C74.2506 12.221 74.4195 12.0976 74.5302 11.928C74.6408 11.7583 74.6856 11.5541 74.6561 11.3537C74.6266 11.1533 74.5248 10.9706 74.3699 10.84C74.24 10.71 74.07 10.62 73.92 10.49C73.16 9.85002 72.3899 9.21001 71.6499 8.55001C71.0699 8.03201 70.697 7.3216 70.6 6.55001C70.5595 6.31758 70.4783 6.09416 70.36 5.89004C70.19 5.54004 69.98 5.19003 69.72 4.72003C70.08 4.72003 70.32 4.72003 70.56 4.72003C76.7283 4.77163 82.8574 5.70783 88.7599 7.50003C98.408 10.363 107.156 15.6634 114.16 22.89C121.866 30.773 126.963 40.8339 128.76 51.71C130.449 61.7382 129.388 72.0368 125.69 81.51ZM130.48 40.77C130.19 41.54 129.92 42.33 129.64 43.1H129.46C126.939 35.3714 122.808 28.2651 117.34 22.25L117.43 22.12C117.624 22.1426 117.813 22.1966 117.99 22.28C118.535 22.6123 119.053 22.9867 119.54 23.4C123.375 26.8731 126.476 31.0791 128.66 35.77C129.28 37.11 129.84 38.47 130.44 39.77C130.522 39.9229 130.568 40.0923 130.574 40.2654C130.581 40.4386 130.549 40.6111 130.48 40.77Z" fill="black"/>
<path id="Vector_21" opacity="0.82" d="M45.3599 83.3501C43.8422 83.385 42.3337 83.1054 40.9294 82.5288C39.5251 81.9523 38.2553 81.0913 37.1999 80.0001C34.8764 77.6438 33.4085 74.5776 33.0299 71.2901C32.6487 68.9018 32.9503 66.4544 33.8999 64.2301C34.2589 63.4595 34.698 62.7288 35.2099 62.0501C35.6867 61.4189 36.3362 60.9396 37.0799 60.6701C37.2776 60.5846 37.4863 60.5273 37.6999 60.5001C37.8893 60.4728 38.0823 60.5142 38.2437 60.617C38.4052 60.7197 38.5245 60.8769 38.5799 61.0601C38.6605 61.2445 38.6647 61.4533 38.5916 61.6407C38.5185 61.8282 38.374 61.979 38.1899 62.0601C35.8699 62.9801 35.1899 65.0601 34.8199 67.1601C34.429 69.2163 34.5404 71.3364 35.1445 73.3403C35.7486 75.3442 36.8277 77.1726 38.2899 78.6701C39.4394 79.9237 40.9095 80.8395 42.5414 81.3188C44.1732 81.7982 45.905 81.8228 47.5499 81.3901C49.7229 80.9115 51.7107 79.8133 53.2725 78.2284C54.8343 76.6435 55.9032 74.6399 56.3499 72.4601C56.6683 70.9709 56.5467 69.4214 55.9999 68.0001C55.1754 65.7312 53.7136 63.7485 51.7899 62.2901C50.9999 61.7201 50.2299 61.1201 49.4399 60.5401C49.3398 60.4866 49.2512 60.4138 49.1793 60.3259C49.1075 60.238 49.0537 60.1368 49.0212 60.028C48.9886 59.9193 48.978 59.8051 48.9898 59.6922C49.0016 59.5793 49.0356 59.4698 49.0899 59.3701C49.2088 59.1738 49.3975 59.0297 49.6182 58.9667C49.8389 58.9036 50.0752 58.9263 50.2799 59.0301C50.4932 59.1304 50.6945 59.2546 50.8799 59.4001C51.7899 60.1001 52.7099 60.7701 53.5799 61.5101C55.7721 63.4028 57.3234 65.9288 58.0199 68.7401C58.4912 70.5294 58.3897 72.4214 57.7299 74.1501C57.0191 76.3997 55.7153 78.4162 53.9556 79.9876C52.1959 81.5591 50.0453 82.6273 47.7299 83.0801C47.3341 83.1652 46.9333 83.2253 46.5299 83.2601C46.0699 83.3301 45.6399 83.3401 45.3599 83.3501Z" fill="black"/>
<path id="Vector_22" opacity="0.82" d="M45.4099 53.92C47.6025 53.9034 49.7761 54.3277 51.8015 55.1678C53.8268 56.0078 55.6627 57.2464 57.1999 58.81C59.0705 60.664 60.3509 63.0299 60.8799 65.61C60.9291 65.8162 60.9493 66.0282 60.9399 66.24C60.928 66.433 60.8499 66.616 60.7187 66.7581C60.5876 66.9002 60.4114 66.9927 60.2199 67.02C60.0413 67.0436 59.8598 67.0098 59.7016 66.9235C59.5435 66.8372 59.4168 66.7029 59.3399 66.54C59.2717 66.3888 59.2181 66.2314 59.1799 66.07C58.8485 64.3824 58.1582 62.7857 57.1558 61.3882C56.1533 59.9907 54.8622 58.8249 53.3699 57.97C48.1199 54.86 42.7599 54.75 37.4999 57.97C36.1445 58.7769 34.9763 59.863 34.0728 61.1561C33.1694 62.4492 32.5514 63.9197 32.2599 65.47C31.98 66.8459 31.98 68.2641 32.2599 69.64C32.3177 69.8726 32.3512 70.1105 32.3599 70.35C32.3768 70.5427 32.3233 70.735 32.2093 70.8913C32.0953 71.0475 31.9286 71.1572 31.7399 71.2C31.5371 71.2546 31.3211 71.2302 31.1356 71.1319C30.95 71.0335 30.8086 70.8685 30.7399 70.67C30.6532 70.4763 30.5959 70.2707 30.5699 70.06C30.1003 67.8083 30.2555 65.4711 31.0188 63.3014C31.782 61.1316 33.1241 59.2118 34.8999 57.75C37.8044 55.2096 41.552 53.8439 45.4099 53.92Z" fill="black"/>
</g>
<defs>
<linearGradient id="paint0_linear_343_7006" x1="3995.8" y1="4166.75" x2="4423.34" y2="4166.75" gradientUnits="userSpaceOnUse">
<stop stop-color="#504095"/>
<stop offset="0.06" stop-color="#564195"/>
<stop offset="0.13" stop-color="#684393"/>
<stop offset="0.22" stop-color="#854792"/>
<stop offset="0.32" stop-color="#AD4C8F"/>
<stop offset="0.42" stop-color="#E0538B"/>
<stop offset="0.44" stop-color="#E7548B"/>
<stop offset="0.58" stop-color="#D67DA6"/>
<stop offset="0.77" stop-color="#C1B0C8"/>
<stop offset="0.92" stop-color="#B4D0DD"/>
<stop offset="1" stop-color="#AFDCE5"/>
</linearGradient>
<linearGradient id="paint1_linear_343_7006" x1="4610.04" y1="10271.8" x2="4933.35" y2="10271.8" gradientUnits="userSpaceOnUse">
<stop stop-color="#504095"/>
<stop offset="0.06" stop-color="#564195"/>
<stop offset="0.13" stop-color="#684393"/>
<stop offset="0.22" stop-color="#854792"/>
<stop offset="0.32" stop-color="#AD4C8F"/>
<stop offset="0.42" stop-color="#E0538B"/>
<stop offset="0.44" stop-color="#E7548B"/>
<stop offset="0.58" stop-color="#D67DA6"/>
<stop offset="0.77" stop-color="#C1B0C8"/>
<stop offset="0.92" stop-color="#B4D0DD"/>
<stop offset="1" stop-color="#AFDCE5"/>
</linearGradient>
<linearGradient id="paint2_linear_343_7006" x1="18732" y1="58522.1" x2="34752.5" y2="58522.1" gradientUnits="userSpaceOnUse">
<stop stop-color="#504095"/>
<stop offset="0.06" stop-color="#564195"/>
<stop offset="0.13" stop-color="#684393"/>
<stop offset="0.22" stop-color="#854792"/>
<stop offset="0.32" stop-color="#AD4C8F"/>
<stop offset="0.42" stop-color="#E0538B"/>
<stop offset="0.44" stop-color="#E7548B"/>
<stop offset="0.58" stop-color="#D67DA6"/>
<stop offset="0.77" stop-color="#C1B0C8"/>
<stop offset="0.92" stop-color="#B4D0DD"/>
<stop offset="1" stop-color="#AFDCE5"/>
</linearGradient>
<linearGradient id="paint3_linear_343_7006" x1="3584" y1="9664.74" x2="3758.83" y2="9664.74" gradientUnits="userSpaceOnUse">
<stop stop-color="#504095"/>
<stop offset="0.06" stop-color="#564195"/>
<stop offset="0.13" stop-color="#684393"/>
<stop offset="0.22" stop-color="#854792"/>
<stop offset="0.32" stop-color="#AD4C8F"/>
<stop offset="0.42" stop-color="#E0538B"/>
<stop offset="0.44" stop-color="#E7548B"/>
<stop offset="0.58" stop-color="#D67DA6"/>
<stop offset="0.77" stop-color="#C1B0C8"/>
<stop offset="0.92" stop-color="#B4D0DD"/>
<stop offset="1" stop-color="#AFDCE5"/>
</linearGradient>
<linearGradient id="paint4_linear_343_7006" x1="3068.83" y1="7320.81" x2="3419.73" y2="7320.81" gradientUnits="userSpaceOnUse">
<stop stop-color="#504095"/>
<stop offset="0.06" stop-color="#564195"/>
<stop offset="0.13" stop-color="#684393"/>
<stop offset="0.22" stop-color="#854792"/>
<stop offset="0.32" stop-color="#AD4C8F"/>
<stop offset="0.42" stop-color="#E0538B"/>
<stop offset="0.44" stop-color="#E7548B"/>
<stop offset="0.58" stop-color="#D67DA6"/>
<stop offset="0.77" stop-color="#C1B0C8"/>
<stop offset="0.92" stop-color="#B4D0DD"/>
<stop offset="1" stop-color="#AFDCE5"/>
</linearGradient>
<linearGradient id="paint5_linear_343_7006" x1="2186.07" y1="3486.18" x2="2296.27" y2="3486.18" gradientUnits="userSpaceOnUse">
<stop stop-color="#504095"/>
<stop offset="0.06" stop-color="#564195"/>
<stop offset="0.13" stop-color="#684393"/>
<stop offset="0.22" stop-color="#854792"/>
<stop offset="0.32" stop-color="#AD4C8F"/>
<stop offset="0.42" stop-color="#E0538B"/>
<stop offset="0.44" stop-color="#E7548B"/>
<stop offset="0.58" stop-color="#D67DA6"/>
<stop offset="0.77" stop-color="#C1B0C8"/>
<stop offset="0.92" stop-color="#B4D0DD"/>
<stop offset="1" stop-color="#AFDCE5"/>
</linearGradient>
<linearGradient id="paint6_linear_343_7006" x1="452.514" y1="1681.7" x2="457.184" y2="1681.7" gradientUnits="userSpaceOnUse">
<stop stop-color="#504095"/>
<stop offset="0.06" stop-color="#564195"/>
<stop offset="0.13" stop-color="#684393"/>
<stop offset="0.22" stop-color="#854792"/>
<stop offset="0.32" stop-color="#AD4C8F"/>
<stop offset="0.42" stop-color="#E0538B"/>
<stop offset="0.44" stop-color="#E7548B"/>
<stop offset="0.58" stop-color="#D67DA6"/>
<stop offset="0.77" stop-color="#C1B0C8"/>
<stop offset="0.92" stop-color="#B4D0DD"/>
<stop offset="1" stop-color="#AFDCE5"/>
</linearGradient>
<linearGradient id="paint7_linear_343_7006" x1="5083.61" y1="11109.3" x2="5486.92" y2="11109.3" gradientUnits="userSpaceOnUse">
<stop stop-color="#504095"/>
<stop offset="0.06" stop-color="#564195"/>
<stop offset="0.13" stop-color="#684393"/>
<stop offset="0.22" stop-color="#854792"/>
<stop offset="0.32" stop-color="#AD4C8F"/>
<stop offset="0.42" stop-color="#E0538B"/>
<stop offset="0.44" stop-color="#E7548B"/>
<stop offset="0.58" stop-color="#D67DA6"/>
<stop offset="0.77" stop-color="#C1B0C8"/>
<stop offset="0.92" stop-color="#B4D0DD"/>
<stop offset="1" stop-color="#AFDCE5"/>
</linearGradient>
<linearGradient id="paint8_linear_343_7006" x1="3534.8" y1="6476.15" x2="3719.96" y2="6476.15" gradientUnits="userSpaceOnUse">
<stop stop-color="#504095"/>
<stop offset="0.06" stop-color="#564195"/>
<stop offset="0.13" stop-color="#684393"/>
<stop offset="0.22" stop-color="#854792"/>
<stop offset="0.32" stop-color="#AD4C8F"/>
<stop offset="0.42" stop-color="#E0538B"/>
<stop offset="0.44" stop-color="#E7548B"/>
<stop offset="0.58" stop-color="#D67DA6"/>
<stop offset="0.77" stop-color="#C1B0C8"/>
<stop offset="0.92" stop-color="#B4D0DD"/>
<stop offset="1" stop-color="#AFDCE5"/>
</linearGradient>
<linearGradient id="paint9_linear_343_7006" x1="5054.9" y1="14780.2" x2="5854.39" y2="14780.2" gradientUnits="userSpaceOnUse">
<stop stop-color="#504095"/>
<stop offset="0.06" stop-color="#564195"/>
<stop offset="0.13" stop-color="#684393"/>
<stop offset="0.22" stop-color="#854792"/>
<stop offset="0.32" stop-color="#AD4C8F"/>
<stop offset="0.42" stop-color="#E0538B"/>
<stop offset="0.44" stop-color="#E7548B"/>
<stop offset="0.58" stop-color="#D67DA6"/>
<stop offset="0.77" stop-color="#C1B0C8"/>
<stop offset="0.92" stop-color="#B4D0DD"/>
<stop offset="1" stop-color="#AFDCE5"/>
</linearGradient>
</defs>
</svg>
