<svg width="119" height="107" viewBox="0 0 119 107" fill="none" xmlns="http://www.w3.org/2000/svg">
<path d="M60.27 8.54006C60.3544 8.77255 60.3882 9.02032 60.3692 9.2669C60.3503 9.51348 60.2789 9.75321 60.16 9.97006C59.9516 10.351 59.7143 10.7154 59.45 11.0601C59.3525 11.1941 59.2383 11.3151 59.11 11.4201C56.4616 13.9002 53.0704 15.4394 49.46 15.8C48.5855 15.8821 47.7034 15.8178 46.85 15.61C46.2038 15.4651 45.6093 15.1471 45.13 14.6901C44.7507 14.2945 44.5189 13.7805 44.4733 13.2344C44.4278 12.6882 44.5714 12.143 44.88 11.6901C45.0238 11.5295 45.2116 11.4148 45.42 11.36C47.6597 10.5706 49.952 9.93903 52.28 9.47006C54.73 8.96175 57.2129 8.62759 59.71 8.47006C59.8365 8.46018 59.9636 8.46018 60.09 8.47006C60.1532 8.48429 60.2139 8.5079 60.27 8.54006Z" fill="url(#paint0_linear_410_5676)"/>
<path d="M90.21 89.73C90.27 89.25 90.73 87.28 90.8 86.91C91.0525 85.747 91.506 84.6371 92.14 83.63C94.0658 80.5026 96.7438 77.907 99.93 76.08C100.33 75.7826 100.748 75.5088 101.18 75.26C101.34 75.19 104.67 74.66 103.92 75.56C104.15 79 95.92 91.33 90.21 89.73Z" fill="url(#paint1_linear_410_5676)"/>
<path d="M41.6599 12.8499C41.6599 13.1499 41.59 13.3299 41.59 13.5099C41.4916 14.1955 41.5392 14.8941 41.7299 15.5599C41.7854 15.7731 41.7854 15.9968 41.7299 16.2099C41.5937 17.3189 41.2726 18.3971 40.78 19.3999C40.6879 19.538 40.6521 19.7061 40.68 19.8698C40.7079 20.0334 40.7973 20.1801 40.93 20.2799C40.9958 20.3304 41.0712 20.3671 41.1515 20.3878C41.2318 20.4086 41.3154 20.4131 41.3974 20.401C41.4795 20.3888 41.5583 20.3604 41.6292 20.3173C41.7 20.2741 41.7615 20.2172 41.81 20.1499C41.9928 19.9451 42.1353 19.7076 42.2299 19.45C42.4699 18.76 42.66 18.0599 42.87 17.3599C42.92 17.1799 42.96 17.0099 43.01 16.8099C43.0905 16.8335 43.1678 16.8671 43.24 16.9099C45.141 18.1902 47.4293 18.7667 49.71 18.5399C52.9568 18.2898 56.0954 17.2608 58.86 15.5399C60.2227 14.7085 61.3704 13.5677 62.21 12.2099L62.51 11.7499L62.6599 11.6099C62.7129 11.7443 62.7872 11.8693 62.88 11.9799C63.63 12.6499 64.39 13.3099 65.15 13.9799C65.2657 14.0707 65.3937 14.1448 65.53 14.2C65.6712 14.2716 65.8339 14.2883 65.9867 14.247C66.1395 14.2056 66.2716 14.1091 66.3574 13.976C66.4432 13.843 66.4766 13.6829 66.4513 13.5266C66.4259 13.3703 66.3434 13.229 66.2199 13.1299C66.1099 13.0299 65.98 12.9599 65.87 12.8699C65.29 12.3699 64.69 11.8699 64.12 11.3699C63.6779 10.977 63.3936 10.4368 63.32 9.84995C63.2804 9.67519 63.2164 9.50687 63.13 9.34995C63 9.06995 62.84 8.80995 62.64 8.44995C62.91 8.44995 63.0999 8.44995 63.2899 8.44995C68.0346 8.49391 72.7488 9.21448 77.2899 10.5899C84.7098 12.7914 91.4365 16.8694 96.82 22.4299C102.753 28.4873 106.677 36.2244 108.06 44.5899C109.368 52.3289 108.552 60.2778 105.7 67.5899C105.2 68.8999 104.59 70.1699 104.03 71.4599C103.95 71.6399 103.85 71.8099 103.73 72.0199C103.662 71.916 103.589 71.8159 103.51 71.7199C103.436 71.614 103.33 71.5339 103.208 71.4909C103.087 71.4479 102.954 71.4441 102.83 71.4799C102.702 71.5032 102.585 71.5674 102.496 71.663C102.408 71.7586 102.353 71.8804 102.34 72.0099C102.3 72.4257 102.3 72.8442 102.34 73.2599C102.4 73.8299 102.43 73.8299 101.87 73.9399C100.947 74.1151 100.063 74.4537 99.26 74.9399C95.8274 76.8986 92.9477 79.6958 90.89 83.0699C90.1124 84.3114 89.5889 85.6948 89.3499 87.14C89.2799 87.66 89.2699 88.1999 89.2299 88.7599C89.1168 88.77 89.0031 88.77 88.89 88.7599C87.8722 88.6347 86.8394 88.7724 85.89 89.1599C85.7385 89.2179 85.5968 89.2989 85.4699 89.4C85.341 89.4878 85.2486 89.6197 85.2102 89.7709C85.1717 89.9221 85.1898 90.0822 85.2611 90.221C85.3323 90.3598 85.4518 90.4678 85.5971 90.5247C85.7424 90.5816 85.9034 90.5835 86.05 90.53C86.39 90.44 86.71 90.2999 87.05 90.2199C87.3757 90.133 87.7145 90.106 88.05 90.14C87.9583 90.2321 87.8615 90.3189 87.76 90.4C80.7664 95.3364 72.6903 98.5223 64.21 99.6899C60.5082 100.191 56.7628 100.289 53.0399 99.9799C48.367 99.6202 43.7718 98.5793 39.4 96.89C31.0284 93.759 23.8107 88.1495 18.71 80.8099C15.0772 75.62 12.7013 69.6562 11.77 63.39C10.371 54.0918 11.9792 44.5899 16.36 36.2699C18.6241 31.8454 21.5587 27.7976 25.06 24.2699C25.26 24.0599 25.48 23.87 25.69 23.67C25.8007 23.5743 25.9043 23.4707 26 23.3599C26.2039 23.1556 26.3185 22.8787 26.3185 22.5899C26.3185 22.3012 26.2039 22.0243 26 21.8199C25.8996 21.7193 25.7804 21.6394 25.6491 21.5849C25.5179 21.5304 25.3771 21.5023 25.235 21.5023C25.0928 21.5023 24.9521 21.5304 24.8208 21.5849C24.6896 21.6394 24.5703 21.7193 24.4699 21.8199C24.1899 22.0599 23.96 22.3499 23.7 22.6099C20.7336 25.6522 18.148 29.0437 16 32.7099C15.92 32.8499 15.83 32.9699 15.7 33.1599C15.52 32.7699 15.38 32.4399 15.21 32.1599C15.04 31.8799 14.84 31.5799 14.63 31.2699C14.77 31.1599 14.89 31.0499 15.02 30.9599C16.4383 29.9813 17.685 28.7751 18.71 27.39C19.48 26.39 20.24 25.3899 21.02 24.4699C21.8608 23.3621 22.6163 22.1921 23.28 20.9699L23.65 20.3499L24.33 20.4099C25.04 20.4699 25.75 20.5399 26.46 20.5799C26.5844 20.5744 26.7084 20.5988 26.8214 20.651C26.9345 20.7032 27.0334 20.7817 27.11 20.8799C27.2655 21.0867 27.4951 21.2252 27.7506 21.2662C28.0061 21.3072 28.2675 21.2476 28.4799 21.0999C28.7241 20.9344 28.9578 20.754 29.18 20.5599C32.6845 17.6732 36.5463 15.2499 40.67 13.3499L41.6599 12.8499ZM43.94 68.95C44.16 68.95 44.49 68.9499 44.82 68.8999C45.15 68.8499 45.43 68.8299 45.74 68.7699C47.518 68.4176 49.1688 67.5941 50.5198 66.3856C51.8708 65.1771 52.8724 63.6279 53.42 61.8999C53.9267 60.5704 54.0037 59.1155 53.64 57.7399C53.1113 55.5738 51.9149 53.6287 50.2199 52.1799C49.5599 51.6099 48.85 51.0899 48.15 50.5599C48.0091 50.4448 47.8546 50.3474 47.69 50.2699C47.5325 50.1899 47.3505 50.1734 47.1812 50.2236C47.0119 50.2738 46.8683 50.3871 46.78 50.5399C46.7383 50.6159 46.7121 50.6994 46.7031 50.7856C46.6941 50.8718 46.7024 50.9589 46.7276 51.0418C46.7527 51.1247 46.7942 51.2018 46.8496 51.2684C46.9049 51.3351 46.9731 51.39 47.05 51.4299C47.65 51.8799 48.2399 52.3399 48.8499 52.7699C50.3309 53.8942 51.456 55.422 52.09 57.17C52.5165 58.2503 52.6241 59.4303 52.4 60.5699C52.0564 62.2459 51.2338 63.7861 50.0321 65.0037C48.8304 66.2214 47.3012 67.0642 45.63 67.4299C44.3656 67.7664 43.0331 67.7494 41.7776 67.3809C40.5222 67.0124 39.3919 66.3064 38.51 65.3399C37.3856 64.1885 36.5558 62.7827 36.091 61.242C35.6261 59.7012 35.5401 58.0711 35.84 56.4899C36.11 54.8499 36.64 53.2799 38.43 52.5699C38.5652 52.5085 38.6718 52.3975 38.7276 52.2598C38.7834 52.1221 38.7842 51.9682 38.7299 51.8299C38.6882 51.6872 38.5966 51.5643 38.4718 51.4836C38.347 51.4028 38.1972 51.3696 38.05 51.39C37.8884 51.4132 37.7305 51.4569 37.58 51.5199C37.0103 51.7317 36.5114 52.0989 36.14 52.5799C35.7502 53.1079 35.4152 53.6742 35.14 54.2699C34.4103 55.9773 34.178 57.8562 34.4699 59.6899C34.764 62.2184 35.8938 64.5764 37.68 66.39C38.4873 67.2328 39.4601 67.8997 40.5373 68.3489C41.6146 68.798 42.773 69.0197 43.94 68.9999V68.95ZM43.94 46.3199C40.9791 46.2584 38.1017 47.3031 35.87 49.2499C34.5074 50.3751 33.4774 51.8505 32.8907 53.5173C32.3039 55.1841 32.1827 56.9793 32.5399 58.7099C32.568 58.8737 32.6115 59.0344 32.67 59.1899C32.7245 59.339 32.8325 59.4624 32.9729 59.5363C33.1134 59.6103 33.2762 59.6294 33.43 59.5899C33.5726 59.5548 33.6982 59.4702 33.7843 59.3512C33.8703 59.2322 33.9114 59.0864 33.9 58.9399C33.8937 58.7575 33.8668 58.5764 33.82 58.3999C33.605 57.3374 33.605 56.2425 33.82 55.1799C34.0404 53.9912 34.511 52.8629 35.2007 51.8699C35.8903 50.8768 36.7831 50.0417 37.82 49.42C39.6332 48.2334 41.753 47.6014 43.92 47.6014C46.0869 47.6014 48.2068 48.2334 50.02 49.42C51.169 50.0773 52.1636 50.9737 52.9365 52.0485C53.7094 53.1232 54.2425 54.3514 54.5 55.6499C54.5203 55.7756 54.5608 55.8972 54.62 56.0099C54.6781 56.1346 54.7744 56.2375 54.8947 56.304C55.0151 56.3705 55.1535 56.3971 55.2899 56.3799C55.4358 56.3583 55.5702 56.2884 55.6717 56.1815C55.7732 56.0745 55.8359 55.9367 55.8499 55.7899C55.87 55.6272 55.87 55.4626 55.8499 55.2999C55.4453 53.3148 54.4604 51.4946 53.02 50.0699C51.8422 48.8755 50.4375 47.9284 48.8885 47.2845C47.3395 46.6405 45.6775 46.3126 44 46.3199H43.94ZM87.12 85.7399C87.1156 85.8781 87.1534 86.0144 87.2285 86.1305C87.3035 86.2466 87.4122 86.3372 87.5399 86.39C87.6502 86.4415 87.7743 86.4557 87.8934 86.4305C88.0125 86.4052 88.1201 86.3418 88.2 86.2499C88.3136 86.1099 88.4078 85.9552 88.4799 85.7899C88.7099 85.3499 88.89 84.8899 89.15 84.4699C89.85 83.3399 90.57 82.2099 91.31 81.0999C92.1733 79.805 93.2134 78.6371 94.4 77.6299C95.26 76.8899 96.14 76.18 97.02 75.46C97.7136 74.8956 98.4806 74.428 99.3 74.0699L100.56 73.5299C100.728 73.4768 100.869 73.3606 100.952 73.2058C101.036 73.051 101.057 72.8696 101.01 72.7C100.951 72.535 100.831 72.3987 100.675 72.3189C100.519 72.239 100.338 72.2215 100.17 72.2699C100.009 72.3047 99.8515 72.355 99.7 72.42C98.3491 72.9422 97.0874 73.6708 95.96 74.5799C95.42 75.0399 94.86 75.4799 94.31 75.9399C92.885 77.0596 91.6229 78.3722 90.56 79.84C89.7 81.09 88.89 82.3699 88.08 83.6599C87.7755 84.1989 87.4985 84.753 87.25 85.3199C87.22 85.4699 87.1999 85.6399 87.1599 85.7399H87.12ZM65.76 83.9399C64.8595 83.9408 63.9775 84.1956 63.2151 84.6749C62.4528 85.1543 61.841 85.8388 61.45 86.65C61.2941 87.044 61.2559 87.4747 61.34 87.89C61.3625 88.0641 61.4505 88.2231 61.5862 88.3345C61.7218 88.446 61.8948 88.5016 62.07 88.4899C62.43 88.4899 62.63 88.1799 62.65 87.7499C62.6408 87.5303 62.6677 87.3107 62.7299 87.0999C62.9853 86.6051 63.3573 86.18 63.8138 85.8611C64.2703 85.5423 64.7975 85.3394 65.3499 85.27C65.8866 85.2407 66.4177 85.391 66.8595 85.697C67.3013 86.003 67.6286 86.4473 67.7899 86.96C67.979 87.5345 68.1228 88.1229 68.2199 88.7199C68.3099 89.1799 68.35 89.6599 68.44 90.1199C68.4498 90.2029 68.4761 90.2831 68.5173 90.3559C68.5585 90.4286 68.6137 90.4925 68.6798 90.5436C68.7459 90.5948 68.8215 90.6324 68.9022 90.6541C68.9829 90.6757 69.0672 90.6811 69.15 90.6699C69.3152 90.6501 69.4671 90.5695 69.5762 90.4438C69.6853 90.3181 69.7436 90.1563 69.74 89.9899C69.7498 89.8802 69.7498 89.7697 69.74 89.6599C69.68 89.2099 69.6199 88.7599 69.5399 88.3099C69.4515 87.5439 69.2387 86.7974 68.9099 86.0999C68.6405 85.4885 68.2076 84.9634 67.6589 84.5823C67.1102 84.2012 66.4669 83.9789 65.8 83.9399H65.76ZM88.76 52.4899H88.51C87.86 52.5499 87.5699 53.0399 87.9099 53.5999C88.0701 53.8417 88.2736 54.0519 88.51 54.2199C89.1714 54.6784 89.9323 54.9732 90.7299 55.0799C91.3899 55.1899 91.52 55.0799 91.88 54.5399C91.9036 54.5138 91.9353 54.4962 91.9699 54.4899C92.2045 54.5347 92.4417 54.5647 92.68 54.5799C92.8185 54.5814 92.9534 54.5356 93.0624 54.4502C93.1715 54.3648 93.2482 54.2448 93.28 54.1099C93.3132 53.9765 93.3019 53.8359 93.2477 53.7095C93.1935 53.5831 93.0995 53.4779 92.9799 53.4099C92.8316 53.338 92.6778 53.2778 92.52 53.2299C92.0904 53.0895 91.6724 52.9157 91.27 52.7099C90.51 52.2499 89.7099 51.8199 89.4799 50.8299C89.4347 50.6989 89.3447 50.5881 89.2259 50.5168C89.107 50.4454 88.9669 50.4182 88.83 50.4399C88.6929 50.4584 88.565 50.5195 88.4645 50.6147C88.364 50.7098 88.296 50.834 88.27 50.9699C88.1975 51.314 88.262 51.6728 88.45 51.9699C88.53 52.1499 88.63 52.2999 88.75 52.4899H88.76ZM65.08 86.2499C64.8907 86.264 64.7093 86.3316 64.557 86.4449C64.4047 86.5583 64.2878 86.7126 64.2199 86.89C63.9972 87.3112 63.8652 87.7744 63.8325 88.2498C63.7998 88.7252 63.8671 89.2022 64.03 89.65C64.0752 89.809 64.1591 89.9544 64.2743 90.0731C64.3895 90.1917 64.5323 90.28 64.69 90.33C64.8292 90.4024 64.9899 90.4221 65.1424 90.3853C65.295 90.3486 65.4291 90.2579 65.52 90.1299C65.6108 90.014 65.6541 89.8678 65.6411 89.7211C65.6281 89.5744 65.5598 89.4381 65.45 89.34C65.3405 89.2298 65.2582 89.0955 65.2096 88.948C65.161 88.8005 65.1474 88.6436 65.17 88.4899C65.1491 88.2808 65.1721 88.0696 65.2375 87.8698C65.303 87.6701 65.4094 87.4862 65.55 87.33C65.6427 87.2397 65.7043 87.1221 65.7259 86.9945C65.7475 86.8669 65.7279 86.7357 65.67 86.6199C65.6171 86.5063 65.5322 86.4107 65.4255 86.3449C65.3188 86.2791 65.1952 86.2461 65.07 86.2499H65.08ZM36.46 71.3799C36.46 71.0699 36.29 70.8799 35.92 70.7099C35.5663 70.5622 35.2307 70.3743 34.92 70.1499C34.681 69.9303 34.4665 69.6856 34.28 69.42C34.1921 69.3027 34.0687 69.217 33.9281 69.1755C33.7876 69.1341 33.6374 69.1391 33.5 69.1899C33.3617 69.242 33.2475 69.3432 33.1792 69.4742C33.111 69.6052 33.0934 69.7568 33.13 69.8999C33.1804 70.149 33.2902 70.3823 33.45 70.5799C33.9032 71.1569 34.4996 71.6052 35.18 71.8799C35.3972 71.9608 35.6283 71.9981 35.86 71.9899C35.9391 71.99 36.0176 71.9741 36.0905 71.9432C36.1634 71.9123 36.2293 71.867 36.2844 71.8101C36.3394 71.7532 36.3825 71.6858 36.4109 71.6119C36.4394 71.538 36.4527 71.4591 36.45 71.3799H36.46ZM88.15 17.5799C88.0111 17.331 87.8432 17.0995 87.65 16.89C87.2 16.53 86.7099 16.2 86.2299 15.89C86.1611 15.8305 86.0807 15.786 85.9937 15.7591C85.9068 15.7323 85.8153 15.7237 85.7249 15.7339C85.6345 15.7441 85.5472 15.7728 85.4685 15.8184C85.3897 15.8639 85.3212 15.9253 85.2673 15.9985C85.2134 16.0718 85.1752 16.1554 85.1551 16.2442C85.1351 16.3329 85.1336 16.4248 85.1507 16.5142C85.1679 16.6035 85.2033 16.6883 85.2548 16.7633C85.3063 16.8383 85.3728 16.9019 85.45 16.95C85.98 17.36 86.53 17.7399 87.09 18.1299C87.1845 18.2029 87.3005 18.2425 87.42 18.2425C87.5394 18.2425 87.6554 18.2029 87.75 18.1299C87.8993 17.9611 88.03 17.7767 88.14 17.5799H88.15ZM82.15 15.2C81.9919 15.1853 81.8335 15.2249 81.7009 15.3121C81.5683 15.3993 81.4692 15.529 81.42 15.6799C81.3793 15.8416 81.4023 16.0126 81.4842 16.1578C81.5661 16.303 81.7006 16.4111 81.86 16.4599C82.3781 16.6353 82.862 16.8992 83.2899 17.2399C83.405 17.3482 83.557 17.4085 83.715 17.4085C83.873 17.4085 84.025 17.3482 84.14 17.2399C84.2461 17.1238 84.3049 16.9722 84.3049 16.8149C84.3049 16.6577 84.2461 16.5061 84.14 16.39C83.6142 15.774 82.895 15.3544 82.0999 15.2H82.15ZM36.9 69.3799C36.32 69.3799 36.01 69.8199 36.19 70.2799C36.4279 70.8574 36.7978 71.3711 37.27 71.7799C37.3838 71.8905 37.5363 71.9524 37.695 71.9524C37.8537 71.9524 38.0061 71.8905 38.12 71.7799C38.2482 71.6727 38.3295 71.5196 38.3463 71.3533C38.3631 71.187 38.3142 71.0207 38.21 70.89C37.93 70.47 37.64 70.0399 37.32 69.6499C37.1809 69.5323 37.0216 69.4409 36.8499 69.3799H36.9Z" fill="url(#paint2_linear_410_5676)"/>
<path d="M108.63 37.9999C106.681 32.0693 103.502 26.617 99.3 21.9999L99.37 21.8999C99.5185 21.9185 99.6633 21.959 99.8 22.0199C100.219 22.278 100.617 22.5689 100.99 22.8899C103.94 25.5561 106.321 28.7908 107.99 32.3999C108.46 33.3999 108.89 34.4799 109.36 35.5099C109.412 35.6247 109.438 35.7491 109.438 35.8749C109.438 36.0008 109.412 36.1252 109.36 36.2399C109.13 36.8399 108.93 37.4399 108.71 38.0399L108.63 37.9999Z" fill="url(#paint3_linear_410_5676)"/>
<path d="M37.19 98.16L34.7 99.16C34.58 99.02 34.39 98.82 34.22 98.61C32.5156 96.5983 30.4878 94.8848 28.22 93.54C27.75 93.25 27.33 92.9 26.88 92.54C25.88 91.89 24.88 91.25 23.96 90.54C23.625 90.323 23.3163 90.068 23.04 89.78C22.68 89.41 22.7 89.37 23.1 88.86C27.2088 92.7699 31.9797 95.9188 37.19 98.16Z" fill="url(#paint4_linear_410_5676)"/>
<path d="M53.5 16.4801C54.57 15.9401 55.66 15.4201 56.7 14.8301C57.4757 14.3858 58.2237 13.8949 58.94 13.3601C60.0631 12.612 60.9645 11.5759 61.55 10.3601C61.5711 10.4908 61.5661 10.6244 61.5352 10.7532C61.5043 10.8819 61.4482 11.0032 61.37 11.1101C60.7379 12.269 59.8527 13.2706 58.78 14.0401C57.2297 15.1107 55.5133 15.9182 53.7 16.4301L53.5 16.4801Z" fill="url(#paint5_linear_410_5676)"/>
<path d="M43.08 13.1599C43.29 14.5499 43.29 14.5499 44.54 16.0899C43.18 15.4899 42.53 14.1999 43.08 13.1599Z" fill="url(#paint6_linear_410_5676)"/>
<path d="M65.8 83.94C66.4687 83.9772 67.1141 84.1986 67.6647 84.5798C68.2154 84.9611 68.6498 85.4872 68.92 86.1C69.2488 86.7975 69.4616 87.544 69.55 88.31C69.63 88.76 69.69 89.21 69.75 89.66C69.7599 89.7698 69.7599 89.8802 69.75 89.99C69.7537 90.1564 69.6953 90.3182 69.5862 90.4439C69.4772 90.5696 69.3252 90.6502 69.16 90.67C69.0771 90.6812 68.993 90.6758 68.9122 90.6541C68.8315 90.6324 68.7559 90.5949 68.6898 90.5437C68.6237 90.4925 68.5684 90.4287 68.5273 90.356C68.4861 90.2832 68.4599 90.203 68.45 90.12C68.36 89.66 68.32 89.18 68.23 88.72C68.1328 88.123 67.989 87.5346 67.8 86.96C67.6387 86.4474 67.3113 86.003 66.8695 85.697C66.4277 85.391 65.8966 85.2408 65.36 85.27C64.8075 85.3395 64.2803 85.5424 63.8239 85.8612C63.3674 86.18 62.9954 86.6052 62.74 87.1C62.6778 87.3108 62.6507 87.5304 62.66 87.75C62.66 88.18 62.44 88.45 62.08 88.49C61.9048 88.5016 61.7318 88.4461 61.5962 88.3346C61.4606 88.2231 61.3725 88.0641 61.35 87.89C61.2659 87.4747 61.3042 87.044 61.46 86.65C61.8533 85.8342 62.4697 85.1467 63.2379 84.667C64.006 84.1873 64.8944 83.9353 65.8 83.94Z" fill="black"/>
<path d="M88.75 52.49C88.63 52.3 88.53 52.15 88.44 51.99C88.2521 51.6929 88.1875 51.3341 88.26 50.99C88.286 50.8541 88.3541 50.7299 88.4546 50.6348C88.555 50.5397 88.6829 50.4785 88.82 50.46C88.9569 50.4383 89.0971 50.4655 89.216 50.5368C89.3348 50.6082 89.4247 50.719 89.47 50.85C89.7 51.85 90.47 52.2701 91.26 52.7301C91.6625 52.9358 92.0804 53.1096 92.51 53.25C92.6679 53.2979 92.8216 53.358 92.97 53.43C93.0895 53.498 93.1836 53.6032 93.2378 53.7296C93.2919 53.856 93.3033 53.9966 93.27 54.13C93.2383 54.2649 93.1615 54.3849 93.0525 54.4703C92.9434 54.5557 92.8085 54.6015 92.67 54.6C92.4317 54.5848 92.1946 54.5548 91.96 54.5101C91.9254 54.5163 91.8937 54.5339 91.87 54.56C91.51 55.15 91.38 55.21 90.72 55.1C89.9223 54.9933 89.1615 54.6985 88.5 54.24C88.2636 54.072 88.0602 53.8618 87.9 53.62C87.56 53.06 87.9 52.5701 88.5 52.5101L88.75 52.49ZM89.21 52.94L89.15 53.02L89.39 53.19V53.13L89.21 52.94Z" fill="black"/>
<path d="M65.07 86.2501C65.1936 86.2482 65.315 86.2821 65.4197 86.3478C65.5244 86.4134 65.6078 86.508 65.66 86.6201C65.7179 86.7358 65.7375 86.867 65.7159 86.9946C65.6944 87.1223 65.6327 87.2398 65.54 87.3301C65.3994 87.4863 65.293 87.6702 65.2275 87.8699C65.1621 88.0697 65.1391 88.2809 65.16 88.4901C65.1374 88.6438 65.151 88.8006 65.1996 88.9481C65.2482 89.0957 65.3305 89.2299 65.44 89.3401C65.5498 89.4383 65.6181 89.5746 65.6311 89.7213C65.6441 89.868 65.6008 90.0141 65.51 90.1301C65.4191 90.258 65.285 90.3487 65.1324 90.3854C64.9799 90.4222 64.8192 90.4026 64.68 90.3301C64.5223 90.2802 64.3795 90.1919 64.2643 90.0732C64.1492 89.9545 64.0652 89.8092 64.02 89.6501C63.8571 89.2023 63.7898 88.7253 63.8225 88.25C63.8552 87.7746 63.9873 87.3113 64.21 86.8901C64.2778 86.7128 64.3947 86.5584 64.547 86.4451C64.6993 86.3317 64.8807 86.2641 65.07 86.2501Z" fill="black"/>
<path d="M36.45 71.38C36.4527 71.4583 36.4397 71.5364 36.4118 71.6096C36.384 71.6829 36.3419 71.7499 36.2879 71.8067C36.2339 71.8635 36.1691 71.9089 36.0974 71.9404C36.0256 71.9719 35.9483 71.9887 35.87 71.99C35.6383 71.9982 35.4073 71.9609 35.19 71.88C34.5097 71.6052 33.9132 71.157 33.46 70.58C33.3002 70.3824 33.1904 70.1491 33.14 69.9C33.1034 69.7569 33.121 69.6053 33.1893 69.4743C33.2575 69.3433 33.3717 69.2421 33.51 69.19C33.6474 69.1392 33.7976 69.1342 33.9382 69.1756C34.0787 69.217 34.2021 69.3028 34.29 69.42C34.4765 69.6856 34.6911 69.9304 34.93 70.15C35.2407 70.3744 35.5763 70.5623 35.93 70.71C36.28 70.88 36.46 71.07 36.45 71.38Z" fill="black"/>
<path d="M88.14 17.5799C88.0263 17.7737 87.8922 17.9547 87.74 18.1199C87.6454 18.1929 87.5294 18.2325 87.41 18.2325C87.2905 18.2325 87.1745 18.1929 87.08 18.1199C86.52 17.7299 85.97 17.3499 85.44 16.9399C85.3628 16.8919 85.2963 16.8283 85.2448 16.7533C85.1934 16.6783 85.1579 16.5935 85.1407 16.5042C85.1236 16.4148 85.1251 16.3229 85.1452 16.2342C85.1652 16.1454 85.2034 16.0618 85.2573 15.9886C85.3112 15.9153 85.3797 15.854 85.4585 15.8084C85.5372 15.7629 85.6245 15.7341 85.7149 15.7239C85.8053 15.7137 85.8968 15.7223 85.9837 15.7492C86.0707 15.776 86.1511 15.8205 86.2199 15.88C86.6999 16.2 87.22 16.53 87.64 16.88C87.8339 17.0926 88.0017 17.3276 88.14 17.5799Z" fill="black"/>
<path d="M82.1 15.1999C82.8753 15.3521 83.5785 15.7564 84.1 16.3499C84.2061 16.466 84.2649 16.6176 84.2649 16.7749C84.2649 16.9322 84.2061 17.0838 84.1 17.1999C83.9849 17.3082 83.8329 17.3685 83.675 17.3685C83.517 17.3685 83.365 17.3082 83.25 17.1999C82.822 16.8592 82.3382 16.5953 81.82 16.4199C81.6606 16.3711 81.5261 16.2629 81.4442 16.1178C81.3623 15.9726 81.3393 15.8016 81.38 15.6399C81.4358 15.4983 81.5363 15.3786 81.6662 15.2992C81.7962 15.2198 81.9484 15.185 82.1 15.1999Z" fill="black"/>
<path d="M36.85 69.38C37.0061 69.4552 37.1483 69.5566 37.27 69.68C37.59 70.07 37.88 70.5 38.16 70.92C38.2642 71.0507 38.3131 71.217 38.2963 71.3833C38.2795 71.5497 38.1983 71.7028 38.07 71.81C37.9562 71.9206 37.8037 71.9824 37.645 71.9824C37.4863 71.9824 37.3338 71.9206 37.22 71.81C36.7478 71.4012 36.378 70.8875 36.14 70.31C36 69.82 36.27 69.38 36.85 69.38Z" fill="black"/>
<path d="M89.21 52.9399L89.43 53.1299V53.1899L89.19 53.0199L89.21 52.9399Z" fill="white"/>
<path d="M87.1599 85.74C87.1599 85.64 87.22 85.47 87.29 85.32C87.5384 84.753 87.8155 84.199 88.12 83.66C88.93 82.37 89.74 81.09 90.6 79.84C91.6629 78.3723 92.925 77.0596 94.35 75.94C94.9 75.48 95.46 75.04 96 74.58C97.1274 73.6709 98.3891 72.9422 99.74 72.42C99.8915 72.3551 100.049 72.3048 100.21 72.27C100.378 72.2216 100.559 72.2391 100.715 72.319C100.871 72.3988 100.991 72.5351 101.05 72.7C101.097 72.8697 101.076 73.0511 100.993 73.2059C100.909 73.3607 100.768 73.4769 100.6 73.53L99.34 74.07C98.5206 74.428 97.7536 74.8957 97.06 75.46C96.18 76.18 95.3 76.89 94.44 77.63C93.2534 78.6371 92.2133 79.8051 91.35 81.1C90.61 82.21 89.89 83.34 89.19 84.47C88.93 84.89 88.75 85.35 88.52 85.79C88.4478 85.9553 88.3536 86.11 88.24 86.25C88.1601 86.3419 88.0525 86.4053 87.9334 86.4306C87.8144 86.4558 87.6903 86.4416 87.58 86.39C87.4522 86.3372 87.3435 86.2467 87.2685 86.1306C87.1934 86.0144 87.1556 85.8782 87.1599 85.74Z" fill="black"/>
<path d="M102.94 72.55C98.88 72.49 95.86 75.29 93.25 78.08C90.64 80.87 87.86 83.9601 88.25 88.0201C88.32 88.9001 89.69 88.9001 89.62 88.0201C89.31 84.33 91.93 81.5501 94.27 79.0201C96.61 76.4901 99.27 73.85 102.99 73.9C103.157 73.8798 103.312 73.7989 103.423 73.6727C103.535 73.5465 103.597 73.3837 103.597 73.215C103.597 73.0464 103.535 72.8836 103.423 72.7574C103.312 72.6312 103.157 72.5503 102.99 72.53L102.94 72.55Z" fill="url(#paint7_linear_410_5676)"/>
<path d="M101.22 75.28C99.5813 75.9053 98.0575 76.7973 96.71 77.92C94.6583 79.4361 92.9536 81.3725 91.71 83.6C91.3 84.38 92.48 85.08 92.9 84.29C94.0602 82.2067 95.6607 80.4014 97.59 79C98.7845 77.991 100.136 77.1837 101.59 76.61C101.677 76.5857 101.759 76.5445 101.83 76.4886C101.902 76.4327 101.961 76.3634 102.006 76.2844C102.051 76.2055 102.079 76.1185 102.09 76.0286C102.101 75.9386 102.094 75.8473 102.07 75.76C102.046 75.6727 102.004 75.591 101.949 75.5196C101.893 75.4482 101.823 75.3885 101.744 75.3439C101.665 75.2994 101.579 75.2708 101.489 75.2598C101.399 75.2489 101.307 75.2557 101.22 75.28Z" fill="url(#paint8_linear_410_5676)"/>
<path d="M46.54 50.57C49.18 50.64 51.76 53.51 52.54 55.85C53.0285 57.103 53.23 58.4496 53.1296 59.7908C53.0293 61.132 52.6296 62.4336 51.96 63.6C48.77 68.6 39.44 69.99 36.89 63.6C36.24 61.98 33.59 62.69 34.24 64.33C36.77 70.66 44.57 72.18 50.15 68.94C51.4953 68.1845 52.6713 67.1611 53.6053 65.933C54.5393 64.7048 55.2114 63.2982 55.58 61.8C56.2229 58.9997 55.8396 56.0617 54.5 53.52C53.03 50.7 49.81 47.91 46.5 47.83C44.74 47.83 44.74 50.53 46.5 50.57H46.54Z" fill="url(#paint9_linear_410_5676)"/>
<path d="M109.92 38.6301C110.24 37.7901 110.53 36.9401 110.84 36.1001C110.924 35.9258 110.955 35.731 110.93 35.5394C110.905 35.3477 110.825 35.1673 110.7 35.0201C110.588 34.8517 110.498 34.6704 110.43 34.4801C109.98 33.4801 109.56 32.4801 109.09 31.4801C107.287 27.7251 104.754 24.3665 101.64 21.6001C101.232 21.1887 100.735 20.8778 100.186 20.6921C99.6378 20.5064 99.0536 20.4509 98.48 20.5301C98.311 20.5542 98.1387 20.5348 97.9794 20.4735C97.8201 20.4122 97.6792 20.3112 97.57 20.1801C89.8169 12.629 79.7592 7.8906 69 6.72011C66.1472 6.37525 63.2709 6.26489 60.4 6.39012C60.1637 6.40879 59.926 6.38161 59.7 6.3101C57.6522 5.59463 55.4531 5.42575 53.32 5.82011C51.01 6.21339 48.774 6.95871 46.69 8.03011C46.43 8.17011 46.15 8.25011 45.89 8.38011C45.63 8.51011 45.49 8.5901 45.44 8.7401C45.28 9.2201 44.9 9.3401 44.44 9.4901C40.4357 10.899 36.6072 12.7647 33.03 15.0501C31.1948 16.2223 29.4347 17.5082 27.76 18.9001C27.6409 19.0101 27.5004 19.0945 27.3473 19.1478C27.1942 19.2011 27.0317 19.2223 26.87 19.2101C26.28 19.2101 25.7 19.2101 25.11 19.1101C24.68 19.1101 24.24 19.0201 23.81 18.9501C23.5141 18.8765 23.2017 18.9093 22.9275 19.0428C22.6533 19.1762 22.4347 19.4018 22.31 19.6801C22.1445 20.0068 21.9609 20.3239 21.76 20.6301C21.11 21.6301 20.49 22.6301 19.76 23.6301C19.03 24.6301 18.27 25.5301 17.53 26.4801C16.5617 27.7921 15.3823 28.9342 14.04 29.8601C13.8083 30.0101 13.5908 30.1808 13.39 30.3701C13.2487 30.4651 13.1315 30.5919 13.048 30.7404C12.9645 30.8888 12.917 31.0548 12.9092 31.2249C12.9014 31.3951 12.9336 31.5647 13.0032 31.7201C13.0728 31.8756 13.1779 32.0126 13.31 32.1201C13.59 32.4774 13.8376 32.8589 14.05 33.2601C14.23 33.5801 14.35 33.9401 14.54 34.2601C14.6282 34.3861 14.6755 34.5363 14.6755 34.6901C14.6755 34.8439 14.6282 34.994 14.54 35.1201C13.6554 36.7844 12.8804 38.5048 12.22 40.2701C9.20261 48.1484 8.43405 56.7103 10 65.0001C11.2834 72.0533 14.2967 78.6779 18.77 84.2801C19.54 85.2801 20.38 86.1801 21.21 87.1001C21.3314 87.1967 21.4134 87.3342 21.441 87.4869C21.4686 87.6396 21.4398 87.7971 21.36 87.9301C21.2221 88.1893 21.0686 88.4397 20.9 88.6801C20.7231 88.9169 20.6275 89.2045 20.6275 89.5001C20.6275 89.7957 20.7231 90.0833 20.9 90.3201C21.4273 91.1791 22.146 91.9047 23 92.4401C24 93.0601 25 93.7601 26 94.4401C26.59 94.8401 27.16 95.2701 27.76 95.6501C29.5325 96.7371 31.1305 98.0856 32.5 99.6501C32.93 100.16 33.41 100.65 33.87 101.14C33.981 101.303 34.1301 101.436 34.3044 101.528C34.4787 101.621 34.6728 101.669 34.87 101.669C35.0671 101.669 35.2613 101.621 35.4356 101.528C35.6099 101.436 35.759 101.303 35.87 101.14C36.2165 100.785 36.6515 100.53 37.13 100.4L38.13 100.17C38.77 100.02 39.4 99.8601 39.6 99.0901L40.12 99.2401C47.7813 101.931 55.965 102.798 64.02 101.77C71.691 100.843 79.0775 98.2972 85.69 94.3001C87.34 93.3001 88.91 92.1501 90.51 91.0701C90.69 90.9501 90.83 90.7701 91.1 90.8301C91.696 90.9401 92.3117 90.8486 92.85 90.5701C93.9296 90.0888 94.9388 89.4631 95.85 88.7101C98.4118 86.6341 100.682 84.2224 102.6 81.5401C103.408 80.4048 104.054 79.1629 104.52 77.8501C104.783 77.2182 104.89 76.532 104.83 75.8501C104.83 75.5401 104.73 75.2501 104.99 74.9901C105.024 74.947 105.049 74.8971 105.063 74.8437C105.077 74.7902 105.079 74.7345 105.07 74.6801C105.026 74.3507 105.112 74.0172 105.31 73.7501C108.204 68.331 110.018 62.4011 110.65 56.2901C111.191 51.132 110.819 45.9189 109.55 40.8901C109.429 40.6277 109.382 40.3373 109.414 40.0501C109.445 39.7629 109.555 39.4898 109.73 39.2601C109.828 39.062 109.892 38.8491 109.92 38.6301ZM61.55 10.3801C61.5711 10.5108 61.5661 10.6444 61.5352 10.7731C61.5043 10.9019 61.4482 11.0232 61.37 11.1301C60.7379 12.289 59.8527 13.2905 58.78 14.0601C57.2297 15.1307 55.5133 15.9382 53.7 16.4501H53.5C54.57 15.9101 55.66 15.3901 56.7 14.8001C57.4757 14.3557 58.2237 13.8648 58.94 13.3301C60.0563 12.5957 60.9571 11.5776 61.55 10.3801ZM44.88 11.7101C45.0238 11.5496 45.2115 11.4348 45.42 11.3801C47.6597 10.5906 49.952 9.95907 52.28 9.4901C54.73 8.9818 57.2129 8.64763 59.71 8.4901C59.8365 8.48022 59.9635 8.48022 60.09 8.4901C60.1497 8.48175 60.2103 8.48175 60.27 8.4901C60.3544 8.72258 60.3882 8.97038 60.3692 9.21696C60.3502 9.46355 60.2789 9.70327 60.16 9.92012C59.9516 10.3011 59.7142 10.6655 59.45 11.0101C59.3525 11.1441 59.2382 11.2651 59.11 11.3701C56.4616 13.8502 53.0704 15.3894 49.46 15.7501C48.5855 15.8321 47.7034 15.7679 46.85 15.5601C46.2038 15.4151 45.6093 15.0971 45.13 14.6401C44.7677 14.2495 44.5463 13.7489 44.501 13.2181C44.4557 12.6872 44.5891 12.1565 44.88 11.7101ZM43.08 13.1601C43.29 14.5501 43.29 14.5501 44.54 16.0901C43.18 15.4901 42.53 14.2001 43.08 13.1601ZM34.7 99.1601C34.58 99.0201 34.39 98.8201 34.22 98.6101C32.5156 96.5983 30.4878 94.8849 28.22 93.5401C27.75 93.2501 27.33 92.9001 26.88 92.5401C25.88 91.8901 24.88 91.2501 23.96 90.5401C23.625 90.3231 23.3163 90.0681 23.04 89.7801C22.68 89.4101 22.7 89.3701 23.1 88.8601C27.2192 92.7236 31.9894 95.8282 37.19 98.0301L34.7 99.1601ZM102.65 78.4701C102.183 79.5485 101.571 80.5579 100.83 81.4701C99.2811 83.4816 97.5395 85.3371 95.63 87.0101C95.0405 87.501 94.4263 87.9616 93.79 88.3901C90.21 90.1701 90.73 87.2601 90.79 86.8901C91.0425 85.7271 91.496 84.6171 92.13 83.6101C94.0557 80.4826 96.7338 77.887 99.92 76.0601C100.352 75.8232 100.8 75.6161 101.26 75.4401C101.433 75.377 101.61 75.3268 101.79 75.2901C103.92 74.4101 103 77.6101 102.65 78.5001V78.4701ZM105.73 67.4701C105.23 68.7801 104.62 70.0501 104.06 71.3401C103.98 71.5201 103.88 71.6901 103.76 71.9001C103.692 71.7961 103.619 71.696 103.54 71.6001C103.466 71.4942 103.36 71.4141 103.238 71.3711C103.117 71.328 102.984 71.3242 102.86 71.3601C102.732 71.3833 102.615 71.4476 102.526 71.5432C102.438 71.6388 102.383 71.7606 102.37 71.8901C102.33 72.3058 102.33 72.7244 102.37 73.1401C102.43 73.7101 102.46 73.7101 101.9 73.8201C100.977 73.9952 100.093 74.3339 99.29 74.8201C95.8574 76.7788 92.9777 79.576 90.92 82.9501C90.1424 84.1915 89.619 85.5749 89.38 87.0201C89.31 87.5401 89.3 88.0801 89.26 88.6401C89.1469 88.6501 89.0331 88.6501 88.92 88.6401C87.9022 88.5149 86.8694 88.6526 85.92 89.0401C85.7685 89.098 85.6268 89.179 85.5 89.2801C85.3711 89.368 85.2787 89.4999 85.2402 89.6511C85.2018 89.8023 85.2198 89.9624 85.2911 90.1012C85.3623 90.24 85.4819 90.348 85.6271 90.4049C85.7724 90.4618 85.9335 90.4636 86.08 90.4101C86.42 90.3201 86.74 90.1801 87.08 90.1001C87.4058 90.0132 87.7446 89.9861 88.08 90.0201C87.9884 90.1122 87.8915 90.1991 87.79 90.2801C80.7964 95.2166 72.7203 98.4025 64.24 99.5701C60.5382 100.071 56.7928 100.169 53.07 99.8601C48.397 99.5004 43.8017 98.4594 39.43 96.7701C31.0584 93.6391 23.8407 88.0296 18.74 80.6901C15.1072 75.5001 12.7313 69.5363 11.8 63.2701C10.401 53.9719 12.0092 44.47 16.39 36.1501C18.6541 31.7255 21.5888 27.6777 25.09 24.1501C25.29 23.9401 25.51 23.7501 25.72 23.5501C25.8307 23.4544 25.9344 23.3508 26.03 23.2401C26.234 23.0357 26.3485 22.7588 26.3485 22.4701C26.3485 22.1814 26.234 21.9045 26.03 21.7001C25.9297 21.5994 25.8104 21.5195 25.6791 21.465C25.5479 21.4105 25.4072 21.3824 25.265 21.3824C25.1229 21.3824 24.9821 21.4105 24.8508 21.465C24.7195 21.5195 24.6003 21.5994 24.5 21.7001C24.22 21.9401 23.99 22.2301 23.73 22.4801C20.7473 25.5634 18.1515 28.9987 16 32.7101C15.92 32.8501 15.83 32.9701 15.7 33.1601C15.52 32.7701 15.38 32.4401 15.21 32.1601C15.04 31.8801 14.84 31.5801 14.63 31.2701C14.77 31.1601 14.89 31.0501 15.02 30.9601C16.4383 29.9815 17.6851 28.7752 18.71 27.3901C19.48 26.3901 20.24 25.3901 21.02 24.4701C21.8608 23.3623 22.6163 22.1923 23.28 20.9701L23.65 20.3501L24.33 20.4101C25.04 20.4701 25.75 20.5401 26.46 20.5801C26.5844 20.5746 26.7084 20.5989 26.8215 20.6511C26.9346 20.7033 27.0335 20.7818 27.11 20.8801C27.2655 21.0869 27.4951 21.2253 27.7506 21.2664C28.0061 21.3074 28.2675 21.2478 28.48 21.1001C28.7241 20.9345 28.9579 20.7542 29.18 20.5601C32.6845 17.6734 36.5463 15.2501 40.67 13.3501L41.67 12.8901C41.67 13.1901 41.6 13.3701 41.6 13.5501C41.5015 14.2356 41.5493 14.9343 41.74 15.6001C41.7955 15.8132 41.7955 16.037 41.74 16.2501C41.6037 17.359 41.2826 18.4373 40.79 19.4401C40.6979 19.5782 40.6622 19.7463 40.6901 19.9099C40.7179 20.0735 40.8074 20.2203 40.94 20.3201C41.0059 20.3705 41.0812 20.4072 41.1615 20.428C41.2418 20.4488 41.3254 20.4532 41.4075 20.4411C41.4895 20.429 41.5683 20.4005 41.6392 20.3574C41.71 20.3143 41.7715 20.2574 41.82 20.1901C42.0028 19.9853 42.1453 19.7478 42.24 19.4901C42.48 18.8001 42.67 18.1001 42.88 17.4001C42.93 17.2201 42.97 17.0501 43.02 16.8501C43.1006 16.8736 43.1778 16.9072 43.25 16.9501C45.151 18.2303 47.4393 18.8068 49.72 18.5801C52.9667 18.3299 56.1054 17.3009 58.87 15.5801C60.2328 14.7487 61.3804 13.6079 62.22 12.2501L62.52 11.7901L62.67 11.6501C62.7229 11.7845 62.7972 11.9094 62.89 12.0201C63.64 12.6901 64.4 13.3501 65.16 14.0201C65.2757 14.1108 65.4036 14.1849 65.54 14.2401C65.6812 14.3117 65.8439 14.3285 65.9968 14.2871C66.1496 14.2458 66.2816 14.1493 66.3674 14.0162C66.4532 13.8831 66.4867 13.723 66.4613 13.5667C66.4359 13.4105 66.3535 13.2692 66.23 13.1701C66.12 13.0701 65.99 13.0001 65.88 12.9101C65.3 12.4101 64.7 11.9101 64.13 11.4101C63.6879 11.0171 63.4036 10.477 63.33 9.89012C63.2904 9.71537 63.2265 9.54705 63.14 9.39012C63.01 9.11012 62.85 8.8501 62.65 8.4901C62.92 8.4901 63.11 8.4901 63.3 8.4901C68.0447 8.53405 72.7588 9.25466 77.3 10.6301C84.7198 12.8316 91.4465 16.9096 96.83 22.4701C102.763 28.5275 106.688 36.2646 108.07 44.6301C109.368 52.3381 108.559 60.2536 105.73 67.5401V67.4701ZM109.41 36.1301C109.18 36.7301 108.98 37.3301 108.76 37.9301H108.63C106.681 31.9994 103.502 26.5472 99.3 21.9301L99.37 21.8301C99.5184 21.8487 99.6633 21.8892 99.8 21.9501C100.219 22.2082 100.617 22.4991 100.99 22.8201C103.94 25.4863 106.321 28.721 107.99 32.3301C108.46 33.3301 108.89 34.4101 109.36 35.4401C109.424 35.5552 109.462 35.6831 109.47 35.8145C109.479 35.9459 109.458 36.0776 109.41 36.2001V36.1301Z" fill="black"/>
<path d="M43.94 69C42.775 69.0275 41.6169 68.8144 40.538 68.3739C39.4592 67.9334 38.4828 67.275 37.67 66.44C35.8838 64.6264 34.7541 62.2684 34.46 59.74C34.168 57.9062 34.4003 56.0274 35.13 54.32C35.4052 53.7242 35.7402 53.1579 36.13 52.63C36.5015 52.1489 37.0003 51.7817 37.57 51.57C37.7205 51.5069 37.8784 51.4633 38.04 51.44C38.1872 51.4196 38.337 51.4528 38.4618 51.5336C38.5866 51.6144 38.6782 51.7373 38.72 51.88C38.7743 52.0183 38.7734 52.1721 38.7176 52.3098C38.6618 52.4475 38.5553 52.5585 38.42 52.62C36.63 53.33 36.1 54.9 35.83 56.54C35.5301 58.1211 35.6162 59.7513 36.081 61.292C36.5458 62.8327 37.3757 64.2385 38.5 65.39C39.382 66.3565 40.5122 67.0624 41.7676 67.4309C43.0231 67.7994 44.3556 67.8164 45.62 67.48C47.2912 67.1142 48.8205 66.2714 50.0222 65.0537C51.2238 63.8361 52.0464 62.2959 52.39 60.62C52.6141 59.4803 52.5065 58.3003 52.08 57.22C51.446 55.472 50.321 53.9443 48.84 52.82C48.23 52.39 47.64 51.93 47.04 51.48C46.9631 51.44 46.895 51.3851 46.8396 51.3184C46.7842 51.2518 46.7427 51.1747 46.7176 51.0918C46.6924 51.0089 46.6841 50.9218 46.6931 50.8356C46.7021 50.7494 46.7283 50.6659 46.77 50.59C46.8583 50.4371 47.0019 50.3238 47.1712 50.2736C47.3405 50.2234 47.5226 50.24 47.68 50.32C47.8446 50.3974 47.9991 50.4948 48.14 50.6099C48.84 51.1399 49.55 51.66 50.21 52.23C51.9049 53.6788 53.1013 55.6238 53.63 57.79C53.9937 59.1655 53.9167 60.6205 53.41 61.95C52.8624 63.6779 51.8608 65.2271 50.5098 66.4356C49.1588 67.6441 47.508 68.4676 45.73 68.82C45.42 68.88 45.11 68.92 44.81 68.95C44.51 68.98 44.16 68.94 43.94 69Z" fill="black"/>
<path d="M44 46.32C45.6866 46.3073 47.3586 46.6335 48.9166 47.2794C50.4747 47.9253 51.8871 48.8777 53.07 50.08C54.5104 51.5047 55.4954 53.3249 55.9 55.31C55.9201 55.4728 55.9201 55.6373 55.9 55.8C55.886 55.9468 55.8232 56.0846 55.7217 56.1916C55.6202 56.2985 55.4859 56.3684 55.34 56.3901C55.2036 56.4072 55.0652 56.3806 54.9448 56.3141C54.8244 56.2476 54.7282 56.1447 54.67 56.02C54.6108 55.9073 54.5703 55.7857 54.55 55.66C54.2925 54.3615 53.7594 53.1334 52.9865 52.0586C52.2136 50.9838 51.2191 50.0874 50.07 49.43C48.2568 48.2435 46.1369 47.6115 43.97 47.6115C41.803 47.6115 39.6832 48.2435 37.87 49.43C36.8331 50.0518 35.9403 50.8869 35.2507 51.88C34.5611 52.873 34.0905 54.0013 33.87 55.19C33.655 56.2526 33.655 57.3475 33.87 58.41C33.9169 58.5865 33.9437 58.7676 33.95 58.9501C33.9614 59.0965 33.9204 59.2422 33.8343 59.3613C33.7482 59.4803 33.6226 59.5649 33.48 59.6C33.3263 59.6395 33.1634 59.6204 33.023 59.5465C32.8825 59.4725 32.7745 59.3491 32.72 59.2001C32.6615 59.0445 32.618 58.8838 32.59 58.72C32.2328 56.9895 32.354 55.1942 32.9407 53.5274C33.5275 51.8606 34.5575 50.3852 35.92 49.26C38.1528 47.3073 41.0344 46.2588 44 46.32Z" fill="black"/>
<defs>
<linearGradient id="paint0_linear_410_5676" x1="44.47" y1="12.16" x2="60.38" y2="12.16" gradientUnits="userSpaceOnUse">
<stop stop-color="#EC8684"/>
<stop offset="0.08" stop-color="#DC8596"/>
<stop offset="0.27" stop-color="#BC83BC"/>
<stop offset="0.46" stop-color="#A381D9"/>
<stop offset="0.64" stop-color="#9180EE"/>
<stop offset="0.83" stop-color="#867FFB"/>
<stop offset="1" stop-color="#827FFF"/>
</linearGradient>
<linearGradient id="paint1_linear_410_5676" x1="90.2143" y1="82.48" x2="104.035" y2="82.48" gradientUnits="userSpaceOnUse">
<stop stop-color="#EC8684"/>
<stop offset="0.08" stop-color="#DC8596"/>
<stop offset="0.27" stop-color="#BC83BC"/>
<stop offset="0.46" stop-color="#A381D9"/>
<stop offset="0.64" stop-color="#9180EE"/>
<stop offset="0.83" stop-color="#867FFB"/>
<stop offset="1" stop-color="#827FFF"/>
</linearGradient>
<linearGradient id="paint2_linear_410_5676" x1="11.3092" y1="54.4451" x2="108.702" y2="54.4451" gradientUnits="userSpaceOnUse">
<stop stop-color="#EC8684"/>
<stop offset="0.08" stop-color="#DC8596"/>
<stop offset="0.27" stop-color="#BC83BC"/>
<stop offset="0.46" stop-color="#A381D9"/>
<stop offset="0.64" stop-color="#9180EE"/>
<stop offset="0.83" stop-color="#867FFB"/>
<stop offset="1" stop-color="#827FFF"/>
</linearGradient>
<linearGradient id="paint3_linear_410_5676" x1="7746.62" y1="7558.16" x2="7849.73" y2="7558.16" gradientUnits="userSpaceOnUse">
<stop stop-color="#EC8684"/>
<stop offset="0.08" stop-color="#DC8596"/>
<stop offset="0.27" stop-color="#BC83BC"/>
<stop offset="0.46" stop-color="#A381D9"/>
<stop offset="0.64" stop-color="#9180EE"/>
<stop offset="0.83" stop-color="#867FFB"/>
<stop offset="1" stop-color="#827FFF"/>
</linearGradient>
<linearGradient id="paint4_linear_410_5676" x1="9786.76" y1="5559.08" x2="9994.35" y2="5559.08" gradientUnits="userSpaceOnUse">
<stop stop-color="#EC8684"/>
<stop offset="0.08" stop-color="#DC8596"/>
<stop offset="0.27" stop-color="#BC83BC"/>
<stop offset="0.46" stop-color="#A381D9"/>
<stop offset="0.64" stop-color="#9180EE"/>
<stop offset="0.83" stop-color="#867FFB"/>
<stop offset="1" stop-color="#827FFF"/>
</linearGradient>
<linearGradient id="paint5_linear_410_5676" x1="5766.01" y1="2767" x2="5831.08" y2="2767" gradientUnits="userSpaceOnUse">
<stop stop-color="#EC8684"/>
<stop offset="0.08" stop-color="#DC8596"/>
<stop offset="0.27" stop-color="#BC83BC"/>
<stop offset="0.46" stop-color="#A381D9"/>
<stop offset="0.64" stop-color="#9180EE"/>
<stop offset="0.83" stop-color="#867FFB"/>
<stop offset="1" stop-color="#827FFF"/>
</linearGradient>
<linearGradient id="paint6_linear_410_5676" x1="1198.14" y1="1336.4" x2="1200.89" y2="1336.4" gradientUnits="userSpaceOnUse">
<stop stop-color="#EC8684"/>
<stop offset="0.08" stop-color="#DC8596"/>
<stop offset="0.27" stop-color="#BC83BC"/>
<stop offset="0.46" stop-color="#A381D9"/>
<stop offset="0.64" stop-color="#9180EE"/>
<stop offset="0.83" stop-color="#867FFB"/>
<stop offset="1" stop-color="#827FFF"/>
</linearGradient>
<linearGradient id="paint7_linear_410_5676" x1="88.218" y1="80.6301" x2="103.603" y2="80.6301" gradientUnits="userSpaceOnUse">
<stop stop-color="#EC8684"/>
<stop offset="0.08" stop-color="#DC8596"/>
<stop offset="0.27" stop-color="#BC83BC"/>
<stop offset="0.46" stop-color="#A381D9"/>
<stop offset="0.64" stop-color="#9180EE"/>
<stop offset="0.83" stop-color="#867FFB"/>
<stop offset="1" stop-color="#827FFF"/>
</linearGradient>
<linearGradient id="paint8_linear_410_5676" x1="91.628" y1="79.9605" x2="102.099" y2="79.9605" gradientUnits="userSpaceOnUse">
<stop stop-color="#EC8684"/>
<stop offset="0.08" stop-color="#DC8596"/>
<stop offset="0.27" stop-color="#BC83BC"/>
<stop offset="0.46" stop-color="#A381D9"/>
<stop offset="0.64" stop-color="#9180EE"/>
<stop offset="0.83" stop-color="#867FFB"/>
<stop offset="1" stop-color="#827FFF"/>
</linearGradient>
<linearGradient id="paint9_linear_410_5676" x1="34.145" y1="59.2462" x2="55.8921" y2="59.2462" gradientUnits="userSpaceOnUse">
<stop stop-color="#EC8684"/>
<stop offset="0.08" stop-color="#DC8596"/>
<stop offset="0.27" stop-color="#BC83BC"/>
<stop offset="0.46" stop-color="#A381D9"/>
<stop offset="0.64" stop-color="#9180EE"/>
<stop offset="0.83" stop-color="#867FFB"/>
<stop offset="1" stop-color="#827FFF"/>
</linearGradient>
</defs>
</svg>
