<svg width="155" height="155" viewBox="0 0 155 155" fill="none" xmlns="http://www.w3.org/2000/svg">
<path d="M76.5405 10.7395C76.6544 11.073 76.6992 11.4282 76.672 11.7814C76.6447 12.1347 76.5459 12.4777 76.3823 12.7877C76.1003 13.342 75.7758 13.8716 75.4123 14.3709C75.2771 14.559 75.1213 14.7299 74.9483 14.8802C71.1313 18.3455 66.8503 20.7702 61.7153 21.1909C60.5139 21.3037 59.303 21.2102 58.1303 20.9141C57.2477 20.6992 56.4359 20.2405 55.7789 19.5855C55.2682 19.0178 54.9557 18.2851 54.8926 17.507C54.8294 16.7289 55.0191 15.9512 55.431 15.3009C55.6336 15.0723 55.8928 14.9075 56.1796 14.8248C59.2478 13.6879 62.3868 12.7742 65.5745 12.0902C68.9389 11.3791 72.3456 10.9092 75.7708 10.6841C75.9463 10.673 76.1224 10.673 76.298 10.6841C76.3808 10.6909 76.4625 10.7096 76.5405 10.7395Z" fill="url(#paint0_linear_412_5699)"/>
<path d="M117.579 127.609C117.673 126.934 118.296 124.078 118.401 123.546C118.745 121.873 119.366 120.277 120.236 118.83C122.879 114.329 126.551 110.592 130.917 107.958C131.461 107.527 132.032 107.135 132.625 106.784C132.847 106.684 137.412 105.92 136.389 107.205C136.695 112.143 125.413 129.912 117.579 127.609Z" fill="url(#paint1_linear_412_5699)"/>
<path d="M51.0235 16.9392C51.0235 17.371 50.9286 17.6257 50.9286 17.8803C50.7962 18.8689 50.8609 19.8755 51.1184 20.8364C51.1925 21.1415 51.1925 21.4613 51.1184 21.7664C50.9399 23.3661 50.4974 24.9209 49.8109 26.361C49.682 26.5607 49.632 26.8049 49.6713 27.0425C49.7106 27.28 49.8363 27.4922 50.0218 27.6342C50.1131 27.7058 50.2169 27.7577 50.3273 27.7869C50.4378 27.8163 50.5527 27.8222 50.6654 27.8047C50.778 27.7874 50.8863 27.7466 50.9839 27.6851C51.0816 27.6235 51.1668 27.5422 51.2345 27.446C51.4854 27.1528 51.6789 26.8104 51.8037 26.4385C52.1306 25.4421 52.3942 24.4346 52.6895 23.4271C52.7527 23.1725 52.8056 22.9289 52.8794 22.641C52.9887 22.6788 53.0946 22.7269 53.1956 22.785C55.801 24.6279 58.9372 25.4582 62.0633 25.1321C66.5064 24.7825 70.8053 23.3208 74.6004 20.8696C76.4689 19.6713 78.0436 18.0293 79.1976 16.0757L79.6089 15.4114L79.8197 15.2121C79.8927 15.4035 79.9921 15.5827 80.115 15.7435C81.1694 16.7067 82.2238 17.6478 83.2782 18.5889C83.4312 18.727 83.6061 18.8357 83.7949 18.91C83.99 19.0078 84.212 19.0292 84.4208 18.9703C84.6296 18.9115 84.8115 18.7762 84.9337 18.5889C85.047 18.396 85.0904 18.1665 85.0555 17.9428C85.0206 17.719 84.91 17.5161 84.7439 17.371C84.5923 17.2368 84.4338 17.1112 84.2694 16.9946C83.468 16.275 82.6561 15.5775 81.8759 14.7803C81.2815 14.2001 80.9071 13.4136 80.8214 12.566C80.7788 12.3087 80.6931 12.0614 80.5684 11.8353C80.3891 11.4367 80.1677 11.0603 79.8935 10.54C80.2731 10.54 80.5262 10.4846 80.7793 10.54C87.2838 10.5916 93.7472 11.6282 99.9697 13.6178C110.147 16.7788 119.372 22.6483 126.752 30.6567C134.882 39.3814 140.256 50.5217 142.147 62.5646C143.939 73.6888 142.82 85.1153 138.91 95.6239C138.235 97.5171 137.391 99.3439 136.621 101.16C136.516 101.414 136.379 101.658 136.221 101.957C136.094 101.769 136.01 101.647 135.915 101.525C135.813 101.374 135.669 101.26 135.503 101.199C135.337 101.138 135.157 101.132 134.987 101.182C134.809 101.211 134.645 101.302 134.523 101.441C134.401 101.579 134.327 101.757 134.312 101.946C134.254 102.542 134.254 103.143 134.312 103.739C134.397 104.57 134.428 104.57 133.669 104.725C132.407 104.97 131.196 105.45 130.095 106.142C125.389 108.963 121.438 112.989 118.612 117.844C117.553 119.638 116.837 121.631 116.503 123.712C116.398 124.465 116.398 125.229 116.345 126.048C116.197 126.048 116.029 126.048 115.87 126.048C114.497 125.877 113.103 126.075 111.821 126.624C111.607 126.707 111.408 126.826 111.231 126.978C111.074 127.104 110.962 127.282 110.913 127.482C110.863 127.683 110.879 127.895 110.957 128.085C111.046 128.287 111.204 128.447 111.397 128.537C111.591 128.627 111.809 128.639 112.011 128.572C112.475 128.44 112.918 128.251 113.382 128.13C113.828 128.002 114.293 127.965 114.753 128.019C114.626 128.153 114.493 128.279 114.352 128.395C104.769 135.509 93.6941 140.093 82.0657 141.759C76.9954 142.479 71.8654 142.621 66.766 142.179C60.3557 141.664 54.051 140.172 48.05 137.751C36.574 133.241 26.6796 125.165 19.6861 114.6C14.7107 107.125 11.4616 98.5353 10.1963 89.5125C8.28115 76.1243 10.4982 62.4441 16.5228 50.4746C19.6211 44.1092 23.6404 38.2866 28.4378 33.2142C28.7224 32.9153 29.0177 32.6385 29.3129 32.3396C29.4639 32.2033 29.6049 32.0553 29.7347 31.8967C29.8961 31.7621 30.0289 31.5935 30.1245 31.4017C30.22 31.21 30.2763 30.9993 30.2896 30.7833C30.3029 30.5673 30.2731 30.3507 30.2018 30.1476C30.1306 29.9445 30.0197 29.7593 29.8761 29.6039C29.7326 29.4485 29.5597 29.3264 29.3685 29.2455C29.1773 29.1647 28.972 29.1267 28.766 29.134C28.56 29.1414 28.3577 29.194 28.1723 29.2885C27.9868 29.383 27.8222 29.5172 27.6891 29.6825C27.3095 30.0257 26.9932 30.4353 26.6347 30.7896C22.4587 35.2099 18.8244 40.1601 15.8163 45.5257C15.7003 45.725 15.5738 45.9132 15.3946 46.1789C15.152 45.6142 14.9622 45.1271 14.7197 44.6842C14.4772 44.2414 14.2136 43.8428 13.9395 43.4C14.1073 43.2424 14.2833 43.0945 14.4667 42.9571C16.4073 41.5392 18.1165 39.8006 19.5279 37.8089C20.5823 36.4139 21.6367 34.9967 22.6912 33.6017C23.8446 32.0076 24.881 30.3235 25.7912 28.5642L26.2973 27.6675L27.2252 27.756C28.2058 27.8446 29.176 27.9553 30.146 28.0107C30.3158 28.0024 30.485 28.0372 30.6393 28.1124C30.7935 28.1877 30.9281 28.3009 31.0316 28.4425C31.2443 28.7443 31.5616 28.9459 31.9148 29.0039C32.268 29.0619 32.6288 28.9717 32.919 28.7525C33.2536 28.5199 33.5709 28.2608 33.868 27.9775C38.6566 23.833 43.9291 20.3469 49.5578 17.6035L51.0235 16.9392ZM54.1867 97.7053C54.482 97.7053 54.9354 97.7053 55.3782 97.6278C55.8036 97.5894 56.2262 97.5229 56.6435 97.4285C59.0851 96.9315 61.3534 95.7517 63.2093 94.0134C65.0652 92.2752 66.4397 90.0432 67.1878 87.5529C67.8828 85.6388 67.9898 83.5443 67.4935 81.5632C66.7637 78.4488 65.1272 75.6507 62.8119 73.5585C61.8946 72.7392 60.9245 71.9865 59.965 71.2226C59.7721 71.0575 59.5594 70.9198 59.3323 70.8129C59.117 70.6952 58.867 70.6687 58.6336 70.7386C58.4002 70.8087 58.2012 70.9699 58.0776 71.1892C58.0203 71.2996 57.9845 71.4209 57.972 71.5459C57.9596 71.6709 57.9708 71.7972 58.0051 71.9176C58.0395 72.0381 58.0961 72.1501 58.1719 72.2474C58.2476 72.3448 58.3411 72.4254 58.4466 72.4846C59.2796 73.1267 60.0916 73.7801 60.9246 74.4111C62.9537 76.0297 64.495 78.2285 65.3636 80.7439C65.9493 82.2948 66.0958 83.9903 65.7854 85.6265C65.3182 88.0416 64.1923 90.2619 62.5448 92.0173C60.8974 93.7726 58.7995 94.9873 56.5066 95.5133C54.7724 95.9973 52.9449 95.9724 51.2234 95.4414C49.5017 94.9104 47.9518 93.8937 46.7425 92.5018C45.1868 90.8435 44.0373 88.8136 43.3927 86.5864C42.7482 84.3593 42.6276 82.0012 43.0415 79.7142C43.4105 77.345 44.0959 75.0864 46.5949 74.0789C46.7891 73.9891 46.9415 73.8221 47.0186 73.6146C47.0956 73.4071 47.0912 73.1759 47.0061 72.9717C46.9496 72.7677 46.8242 72.5922 46.6535 72.4781C46.4827 72.364 46.2783 72.3191 46.0782 72.3517C45.8535 72.3781 45.6334 72.4378 45.4245 72.5289C44.6424 72.8311 43.9584 73.3611 43.4527 74.0567C42.9152 74.8137 42.4523 75.6261 42.0715 76.4815C41.0711 78.9404 40.7531 81.6462 41.1542 84.2867C41.5534 87.9297 43.1011 91.3278 45.551 93.941C46.6631 95.1539 48.0008 96.1138 49.4809 96.7614C50.9609 97.4088 52.5519 97.7302 54.1551 97.7053H54.1867ZM54.1867 65.111C50.1275 65.0293 46.1846 66.537 43.126 69.3403C41.2534 70.9563 39.838 73.0797 39.0331 75.4803C38.2283 77.8808 38.0647 80.467 38.5602 82.9582C38.5875 83.195 38.6479 83.4263 38.7395 83.6446C38.8096 83.8656 38.9589 84.0492 39.1556 84.1567C39.3525 84.264 39.5813 84.287 39.7939 84.2203C39.9929 84.173 40.1686 84.0515 40.2888 83.8785C40.409 83.7055 40.4654 83.4926 40.4476 83.2792C40.4383 83.0177 40.4031 82.7581 40.3422 82.5044C40.0471 80.9773 40.0471 79.4035 40.3422 77.8765C40.6522 76.1611 41.3048 74.534 42.2571 73.1028C43.2095 71.6715 44.44 70.4685 45.8674 69.5729C51.4136 66.0411 57.0653 66.1519 62.601 69.5729C64.1745 70.5194 65.536 71.81 66.593 73.3573C67.6499 74.9045 68.3778 76.6723 68.7272 78.5407C68.7659 78.7199 68.8224 78.8943 68.896 79.061C68.977 79.2415 69.1106 79.3902 69.2773 79.4857C69.4441 79.5812 69.6355 79.6186 69.8238 79.5925C70.0248 79.5648 70.2105 79.4645 70.3489 79.309C70.4874 79.1536 70.5701 78.9524 70.583 78.74C70.594 78.5055 70.5727 78.2706 70.5197 78.0425C69.9667 75.1841 68.616 72.5634 66.6395 70.5139C65.016 68.7874 63.0794 67.4198 60.9443 66.4919C58.8092 65.5639 56.5186 65.0944 54.2078 65.111H54.1867ZM113.393 121.863C113.383 122.062 113.433 122.261 113.535 122.429C113.636 122.597 113.786 122.729 113.962 122.804C114.112 122.88 114.28 122.902 114.443 122.865C114.605 122.83 114.751 122.738 114.858 122.605C115.02 122.403 115.154 122.18 115.259 121.941C115.565 121.31 115.818 120.645 116.166 120.047C117.125 118.409 118.116 116.792 119.118 115.187C120.298 113.326 121.717 111.646 123.336 110.194C124.506 109.087 125.719 108.113 126.921 107.072C127.882 106.254 128.947 105.58 130.084 105.068C130.653 104.802 131.233 104.559 131.803 104.282C131.918 104.248 132.025 104.19 132.119 104.111C132.212 104.033 132.29 103.935 132.347 103.825C132.404 103.714 132.439 103.593 132.45 103.468C132.462 103.343 132.45 103.217 132.414 103.097C132.335 102.856 132.17 102.657 131.954 102.542C131.737 102.426 131.486 102.403 131.254 102.477C131.037 102.529 130.825 102.603 130.622 102.699C128.771 103.452 127.043 104.502 125.497 105.81L123.23 107.758C121.276 109.372 119.548 111.264 118.095 113.382C116.914 115.176 115.797 117.025 114.7 118.918C114.275 119.692 113.891 120.49 113.551 121.31C113.492 121.49 113.446 121.675 113.414 121.863H113.393ZM84.1007 119.272C82.8654 119.279 81.6565 119.648 80.6111 120.339C79.5655 121.029 78.7253 122.014 78.1854 123.181C77.9686 123.746 77.9171 124.366 78.0378 124.963C78.0694 125.224 78.198 125.461 78.3955 125.623C78.5931 125.785 78.8435 125.858 79.0922 125.827C79.5772 125.827 79.8514 125.384 79.8725 124.72C79.8692 124.41 79.9046 124.101 79.9779 123.801C80.3286 123.085 80.8405 122.472 81.4691 122.013C82.0977 121.553 82.8238 121.263 83.584 121.166C84.3193 121.12 85.0478 121.335 85.6522 121.777C86.2566 122.219 86.7018 122.862 86.916 123.601C87.182 124.42 87.3795 125.261 87.5065 126.115C87.6435 126.79 87.6963 127.476 87.8228 128.141C87.8519 128.379 87.9685 128.596 88.1479 128.744C88.3272 128.894 88.555 128.963 88.7823 128.938C89.0106 128.91 89.2207 128.794 89.371 128.611C89.5214 128.429 89.601 128.194 89.5942 127.952C89.6097 127.797 89.6097 127.642 89.5942 127.487C89.5099 126.834 89.4255 126.181 89.3095 125.539C89.1856 124.439 88.8974 123.367 88.4555 122.361C88.075 121.477 87.4687 120.719 86.7038 120.175C85.939 119.63 85.0453 119.317 84.1219 119.272H84.1007ZM115.554 74.0015H115.227C114.331 74.079 113.941 74.7986 114.394 75.5958C114.618 75.9414 114.896 76.2447 115.217 76.4926C116.125 77.1532 117.169 77.5782 118.264 77.7326C119.171 77.8876 119.318 77.7989 119.846 76.9464C119.846 76.9464 119.93 76.9464 119.972 76.8689C120.288 76.9404 120.609 76.9848 120.932 77.0017C121.121 77.0093 121.307 76.9469 121.457 76.8256C121.608 76.7043 121.712 76.5316 121.754 76.3375C121.803 76.145 121.79 75.9411 121.718 75.7571C121.645 75.573 121.518 75.4191 121.353 75.319C121.15 75.216 120.938 75.1308 120.721 75.0642C120.13 74.8593 119.556 74.6076 119.002 74.3114C117.948 73.6582 116.893 73.0382 116.545 71.61C116.487 71.4182 116.363 71.2557 116.197 71.1536C116.033 71.0515 115.837 71.0169 115.649 71.0564C115.462 71.0813 115.289 71.1675 115.152 71.3028C115.016 71.4381 114.925 71.6155 114.89 71.8092C114.794 72.3039 114.88 72.8183 115.132 73.2485L115.554 74.0015ZM83.099 122.605C82.84 122.632 82.5926 122.73 82.3828 122.893C82.1731 123.054 82.0088 123.273 81.9075 123.524C81.609 124.133 81.4326 124.8 81.389 125.484C81.3455 126.168 81.4359 126.853 81.6544 127.499C81.7242 127.724 81.8422 127.93 81.9994 128.101C82.1565 128.272 82.3487 128.403 82.5612 128.484C82.7533 128.582 82.9721 128.608 83.1801 128.556C83.388 128.503 83.572 128.375 83.7 128.196C83.8109 128.029 83.8622 127.827 83.8448 127.625C83.8274 127.422 83.7425 127.232 83.6051 127.089C83.4597 126.928 83.3496 126.736 83.2823 126.525C83.2149 126.315 83.1919 126.091 83.215 125.871C83.1892 125.57 83.2228 125.265 83.3136 124.978C83.4042 124.69 83.5501 124.425 83.7422 124.199C83.8709 124.071 83.9562 123.901 83.9847 123.718C84.0133 123.534 83.9837 123.346 83.9004 123.181C83.8421 123.012 83.7361 122.867 83.5965 122.764C83.457 122.661 83.2907 122.606 83.1201 122.605H83.099ZM43.8639 101.204C43.8639 100.75 43.6215 100.473 43.126 100.23C42.6463 100.024 42.193 99.7559 41.7762 99.4325C41.4463 99.0957 41.1496 98.7248 40.8906 98.3253C40.7724 98.1581 40.6053 98.0362 40.4148 97.9782C40.2244 97.9202 40.0211 97.9294 39.8362 98.0044C39.6474 98.0793 39.4916 98.2246 39.3983 98.4123C39.3049 98.6002 39.2807 98.8174 39.3299 99.0228C39.4016 99.3813 39.5495 99.7181 39.7622 100.008C40.3924 100.827 41.2082 101.467 42.1347 101.868C42.4339 101.988 42.7529 102.045 43.0731 102.034C43.2833 102.029 43.4837 101.94 43.6343 101.786C43.7849 101.632 43.8745 101.424 43.885 101.204H43.8639ZM114.721 23.7039C114.537 23.3477 114.306 23.0199 114.036 22.7296C113.414 22.2078 112.766 21.72 112.096 21.2682C112.004 21.1692 111.892 21.0925 111.769 21.0433C111.645 20.9942 111.514 20.9738 111.382 20.9838C111.251 20.9936 111.122 21.0335 111.007 21.1006C110.893 21.1676 110.792 21.2603 110.714 21.372C110.636 21.4838 110.584 21.6122 110.557 21.7479C110.532 21.8836 110.535 22.0236 110.566 22.1581C110.597 22.2926 110.655 22.4184 110.738 22.5267C110.82 22.6349 110.923 22.7231 111.041 22.785C111.769 23.3828 112.528 23.8921 113.277 24.49C113.407 24.5968 113.57 24.6548 113.735 24.6548C113.902 24.6548 114.063 24.5968 114.194 24.49C114.405 24.2634 114.589 24.0106 114.742 23.7371L114.721 23.7039ZM106.497 20.316C106.27 20.2792 106.039 20.3294 105.845 20.4576C105.651 20.5858 105.509 20.7832 105.442 21.0135C105.387 21.2439 105.418 21.4878 105.531 21.6943C105.643 21.9007 105.826 22.0536 106.043 22.1207C106.751 22.3727 107.414 22.7468 108.004 23.2278C108.173 23.3575 108.38 23.4195 108.589 23.4026C108.796 23.3858 108.992 23.2913 109.14 23.1361C109.288 22.981 109.378 22.7756 109.394 22.5568C109.41 22.3381 109.351 22.1206 109.228 21.9435C108.517 21.0955 107.555 20.5224 106.497 20.316ZM44.4228 98.3142C43.6214 98.3142 43.2102 98.9453 43.4633 99.6096C43.7817 100.441 44.2841 101.181 44.9289 101.769C45.0818 101.93 45.287 102.026 45.5038 102.036C45.7207 102.046 45.9333 101.971 46.0993 101.824C46.2747 101.669 46.3858 101.448 46.4094 101.209C46.433 100.969 46.3673 100.729 46.226 100.54C45.8358 99.9307 45.4456 99.3107 45.0133 98.746C44.8399 98.5697 44.6405 98.4237 44.4228 98.3142Z" fill="url(#paint2_linear_412_5699)"/>
<path d="M142.832 53.1429C140.175 44.5829 135.819 36.7116 130.052 30.0479L130.147 29.915C130.351 29.9416 130.549 29.9975 130.738 30.0811C131.31 30.4565 131.856 30.8746 132.372 31.3322C136.419 35.1752 139.689 39.8324 141.988 45.0275C142.642 46.5 143.233 48.0168 143.865 49.4561C143.944 49.6288 143.986 49.818 143.986 50.0097C143.986 50.2014 143.944 50.3907 143.865 50.5633C143.56 51.4158 143.275 52.2793 142.98 53.1429H142.832Z" fill="url(#paint3_linear_412_5699)"/>
<path d="M44.8973 139.744L41.481 141.227C41.3122 141.028 41.0592 140.74 40.8167 140.441C38.4859 137.537 35.7054 135.067 32.5922 133.134C31.9595 132.724 31.3796 132.215 30.7575 131.772C29.4289 130.831 28.0793 129.923 26.7612 128.971C26.3011 128.649 25.8736 128.278 25.4854 127.864C25.0003 127.333 25.032 127.266 25.5697 126.535C31.2145 132.108 37.7592 136.581 44.8973 139.744Z" fill="url(#paint4_linear_412_5699)"/>
<path d="M67.251 22.1429C68.7167 21.3569 70.2139 20.615 71.6479 19.7735C72.7077 19.1259 73.7321 18.4162 74.7163 17.6479C76.2489 16.5782 77.4827 15.0993 78.2908 13.3633C78.3279 13.5553 78.3256 13.7534 78.2837 13.9444C78.2419 14.1354 78.1616 14.3148 78.0483 14.4704C77.1812 16.1393 75.9665 17.5812 74.4949 18.6886C72.3585 20.2445 69.9882 21.4122 67.483 22.1429C67.4058 22.1506 67.3282 22.1506 67.251 22.1429Z" fill="url(#paint5_linear_412_5699)"/>
<path d="M52.9636 17.3933C53.2589 19.3862 53.2589 19.3862 54.9776 21.6005C53.1007 20.7369 52.215 18.8769 52.9636 17.3933Z" fill="url(#paint6_linear_412_5699)"/>
<path d="M84.1219 119.273C85.0395 119.33 85.9244 119.652 86.6796 120.203C87.4347 120.754 88.0308 121.512 88.4028 122.395C88.8446 123.4 89.1329 124.473 89.2569 125.572C89.3729 126.214 89.4571 126.868 89.5415 127.521C89.5571 127.676 89.5571 127.831 89.5415 127.986C89.5484 128.227 89.4686 128.462 89.3183 128.644C89.168 128.827 88.9579 128.943 88.7297 128.971C88.5023 128.997 88.2745 128.927 88.0952 128.777C87.9158 128.629 87.7992 128.412 87.7701 128.174C87.6435 127.51 87.5908 126.823 87.4538 126.148C87.3269 125.294 87.1293 124.453 86.8633 123.635C86.6491 122.895 86.2039 122.252 85.5994 121.81C84.995 121.368 84.2665 121.154 83.5313 121.199C82.7711 121.296 82.045 121.586 81.4164 122.046C80.7878 122.505 80.2759 123.119 79.9252 123.834C79.8519 124.134 79.8165 124.443 79.8197 124.753C79.8197 125.384 79.5245 125.771 79.0395 125.86C78.7908 125.891 78.5403 125.818 78.3428 125.656C78.1453 125.495 78.0167 125.258 77.985 124.996C77.8644 124.4 77.9158 123.78 78.1327 123.214C78.6735 122.029 79.5233 121.03 80.5834 120.332C81.6437 119.635 82.8706 119.267 84.1219 119.273Z" fill="black"/>
<path d="M115.575 74.0015L115.153 73.2817C114.901 72.8516 114.815 72.3372 114.911 71.8424C114.945 71.6487 115.037 71.4714 115.173 71.336C115.311 71.2007 115.483 71.1145 115.67 71.0897C115.858 71.0502 116.054 71.0847 116.218 71.1868C116.384 71.2889 116.508 71.4514 116.566 71.6432C116.883 73.0715 117.979 73.6915 119.023 74.3447C119.577 74.6408 120.151 74.8925 120.742 75.0974C120.959 75.1641 121.171 75.2492 121.375 75.3521C121.538 75.4523 121.667 75.6062 121.739 75.7903C121.811 75.9743 121.824 76.1782 121.775 76.3706C121.733 76.5647 121.629 76.7374 121.478 76.8588C121.328 76.98 121.143 77.0425 120.953 77.0349C120.63 77.018 120.31 76.9736 119.993 76.9022C119.993 76.9022 119.888 76.9022 119.867 76.9797C119.371 77.8322 119.192 77.9206 118.285 77.7656C117.191 77.6113 116.146 77.1864 115.238 76.5256C114.917 76.2779 114.639 75.9746 114.415 75.6288C113.962 74.8317 114.352 74.1121 115.248 74.0346L115.575 74.0015ZM116.218 74.6546L116.134 74.7654L116.461 75.0089L116.524 74.9203L116.218 74.6546Z" fill="black"/>
<path d="M83.1201 122.605C83.2893 122.597 83.4566 122.645 83.5997 122.739C83.7429 122.834 83.8552 122.973 83.9214 123.136C84.0048 123.301 84.0345 123.49 84.0059 123.673C83.9773 123.857 83.8921 124.027 83.7633 124.155C83.5712 124.381 83.4253 124.645 83.3346 124.933C83.244 125.221 83.2103 125.524 83.2361 125.827C83.213 126.047 83.2358 126.271 83.3032 126.481C83.3706 126.691 83.4809 126.883 83.6262 127.045C83.7637 127.187 83.8485 127.378 83.8659 127.58C83.8833 127.782 83.832 127.985 83.7211 128.152C83.5931 128.331 83.4091 128.458 83.2012 128.512C82.9932 128.564 82.7743 128.538 82.5823 128.44C82.3697 128.359 82.1776 128.228 82.0204 128.057C81.8633 127.886 81.7454 127.68 81.6755 127.454C81.4569 126.809 81.3667 126.123 81.4101 125.439C81.4537 124.756 81.6301 124.089 81.9286 123.48C82.0358 123.236 82.2026 123.027 82.4119 122.873C82.6212 122.72 82.8656 122.627 83.1201 122.605Z" fill="black"/>
<path d="M43.885 101.204C43.8852 101.43 43.8017 101.648 43.6523 101.811C43.5029 101.974 43.2991 102.07 43.0837 102.079C42.7634 102.089 42.4445 102.033 42.1452 101.913C41.2186 101.511 40.4029 100.871 39.7728 100.053C39.56 99.7624 39.4122 99.4256 39.3405 99.0672C39.2912 98.8617 39.3155 98.6445 39.4088 98.4567C39.5021 98.2688 39.658 98.1237 39.8466 98.0486C40.0316 97.9736 40.2349 97.9646 40.4254 98.0226C40.6158 98.0806 40.7829 98.2024 40.901 98.3697C41.1601 98.769 41.4568 99.1399 41.7867 99.4768C42.2035 99.8001 42.6568 100.068 43.1364 100.274C43.6425 100.473 43.8956 100.75 43.885 101.204Z" fill="black"/>
<path d="M114.742 23.7371C114.595 24.0215 114.414 24.2856 114.204 24.5231C114.074 24.63 113.912 24.688 113.746 24.688C113.58 24.688 113.418 24.63 113.287 24.5231C112.538 23.9696 111.779 23.416 111.052 22.8181C110.934 22.7563 110.83 22.668 110.748 22.5597C110.666 22.4516 110.608 22.3258 110.576 22.1913C110.546 22.0568 110.542 21.9168 110.568 21.781C110.594 21.6452 110.647 21.517 110.725 21.4052C110.803 21.2934 110.903 21.2007 111.018 21.1337C111.133 21.0666 111.262 21.0268 111.392 21.0168C111.524 21.007 111.656 21.0273 111.779 21.0765C111.903 21.1255 112.014 21.2023 112.106 21.3014C112.777 21.7532 113.424 22.241 114.046 22.7628C114.319 23.0523 114.554 23.3802 114.742 23.7371Z" fill="black"/>
<path d="M106.497 20.3159C107.577 20.5194 108.56 21.1054 109.28 21.9766C109.404 22.1536 109.463 22.3712 109.447 22.5898C109.431 22.8086 109.34 23.0141 109.193 23.1692C109.045 23.3243 108.849 23.4189 108.641 23.4357C108.432 23.4524 108.226 23.3905 108.057 23.2609C107.467 22.7798 106.803 22.4056 106.096 22.1537C105.879 22.0866 105.695 21.9337 105.582 21.7274C105.471 21.5209 105.439 21.277 105.495 21.0466C105.553 20.8206 105.686 20.6236 105.869 20.4899C106.053 20.3563 106.274 20.2946 106.497 20.3159Z" fill="black"/>
<path d="M44.4228 98.3143C44.6405 98.4239 44.8399 98.5697 45.0133 98.7462C45.4456 99.3109 45.8357 99.9309 46.2259 100.54C46.3673 100.729 46.4331 100.969 46.4094 101.209C46.3858 101.448 46.2747 101.669 46.0993 101.824C45.9333 101.971 45.7207 102.047 45.5038 102.036C45.287 102.026 45.0818 101.93 44.9289 101.769C44.2841 101.181 43.7817 100.441 43.4633 99.6097C43.2313 98.9454 43.6214 98.3254 44.4228 98.3143Z" fill="black"/>
<path d="M116.218 74.6545L116.524 74.9203L116.461 75.0088L116.134 74.7654L116.218 74.6545Z" fill="white"/>
<path d="M113.414 121.863C113.454 121.659 113.511 121.459 113.582 121.265C113.923 120.446 114.307 119.648 114.732 118.874C115.786 117.025 116.946 115.176 118.127 113.338C119.58 111.22 121.308 109.327 123.262 107.714L125.529 105.765C127.075 104.457 128.803 103.408 130.653 102.654C130.857 102.559 131.069 102.485 131.286 102.433C131.518 102.359 131.769 102.382 131.985 102.497C132.201 102.613 132.367 102.812 132.446 103.053C132.482 103.173 132.493 103.299 132.482 103.424C132.47 103.549 132.435 103.67 132.378 103.78C132.32 103.891 132.243 103.988 132.151 104.067C132.057 104.145 131.949 104.203 131.834 104.237C131.265 104.514 130.685 104.758 130.116 105.024C128.979 105.536 127.914 106.21 126.952 107.027C125.75 108.068 124.538 109.087 123.367 110.15C121.749 111.602 120.33 113.282 119.15 115.143C118.095 116.748 117.157 118.365 116.197 120.003C115.849 120.601 115.596 121.265 115.29 121.896C115.186 122.136 115.051 122.359 114.89 122.561C114.782 122.694 114.637 122.785 114.474 122.821C114.312 122.857 114.143 122.835 113.994 122.76C113.823 122.689 113.675 122.565 113.572 122.406C113.468 122.245 113.414 122.057 113.414 121.863Z" fill="black"/>
<path d="M135.04 102.887C129.472 102.798 125.329 106.828 121.754 110.836C118.18 114.844 114.373 119.306 114.827 125.151C114.932 126.414 116.809 126.425 116.703 125.151C116.282 119.837 119.867 115.84 123.093 112.231C126.32 108.622 130 104.78 135.04 104.858C135.289 104.858 135.527 104.754 135.703 104.569C135.879 104.384 135.978 104.134 135.978 103.872C135.978 103.611 135.879 103.36 135.703 103.175C135.527 102.991 135.289 102.887 135.04 102.887Z" fill="url(#paint7_linear_412_5699)"/>
<path d="M132.688 106.817C130.439 107.715 128.348 108.998 126.499 110.615C123.659 112.78 121.303 115.568 119.593 118.785C119.023 119.892 120.647 120.911 121.216 119.782C122.806 116.784 125.002 114.188 127.648 112.176C129.3 110.711 131.17 109.544 133.184 108.721C133.424 108.652 133.629 108.486 133.752 108.258C133.877 108.031 133.908 107.762 133.843 107.509C133.778 107.257 133.618 107.042 133.402 106.912C133.186 106.782 132.929 106.748 132.688 106.817Z" fill="url(#paint8_linear_412_5699)"/>
<path d="M57.7191 71.2446C61.3357 71.3332 64.868 75.4739 65.9752 78.8396C66.6537 80.64 66.9351 82.5784 66.7982 84.5094C66.6612 86.4403 66.1094 88.3135 65.1844 89.9885C60.8191 97.1407 48.0184 99.2 44.5282 89.9885C43.6425 87.6525 39.9942 88.671 40.901 91.0293C44.3595 100.152 55.0514 102.344 62.6959 97.6721C64.5456 96.5912 66.1626 95.1206 67.4455 93.3526C68.7283 91.5845 69.6493 89.5573 70.1507 87.3978C71.0284 83.3692 70.5048 79.1437 68.6745 75.485C66.6605 71.4218 62.2425 67.4028 57.7191 67.2921C55.2939 67.2921 55.3044 71.1782 57.7191 71.2446Z" fill="url(#paint9_linear_412_5699)"/>
<path d="M144.614 54.0396C145.046 52.8328 145.447 51.6149 145.879 50.4082C145.985 50.1536 146.023 49.8735 145.987 49.5982C145.952 49.3229 145.846 49.0631 145.679 48.8471C145.529 48.6078 145.405 48.3516 145.31 48.0832C144.698 46.6439 144.108 45.1824 143.465 43.7542C140.998 38.3492 137.528 33.516 133.258 29.5385C132.701 28.9453 132.021 28.4964 131.27 28.2273C130.521 27.9583 129.72 27.8765 128.935 27.9885C128.703 28.0276 128.464 28.0021 128.244 27.9148C128.024 27.8273 127.83 27.6811 127.68 27.4903C116.756 16.3192 103.586 10.1193 88.5503 8.10426C84.6391 7.61765 80.6969 7.46213 76.7619 7.63925C76.4383 7.66467 76.113 7.62712 75.8024 7.52852C72.9952 6.48877 69.9766 6.24438 67.0507 6.81997C63.896 7.37436 60.841 8.43485 57.9932 9.96425C57.6347 10.1525 57.2446 10.2743 56.9388 10.4625C56.633 10.6507 56.3799 10.7614 56.3167 10.9828C56.1058 11.6693 55.5786 11.8465 55.0197 12.0901C49.5284 14.123 44.278 16.8126 39.3721 20.1057C36.8598 21.7954 34.4478 23.6441 32.1493 25.6414C31.9858 25.8007 31.7928 25.9231 31.5825 26.0013C31.3721 26.0794 31.1488 26.1114 30.9262 26.0954C30.1248 26.0179 29.3235 26.0178 28.5221 25.9514C27.9211 25.9514 27.3201 25.8076 26.7296 25.719C26.3238 25.6108 25.8946 25.6572 25.5182 25.8497C25.1418 26.0423 24.8426 26.3685 24.6735 26.7707C24.4415 27.2357 24.1884 27.7008 23.9248 28.1436C23.0391 29.5718 22.1745 31.0332 21.2255 32.4171C20.2765 33.801 19.1799 35.1408 18.1571 36.5136C16.8331 38.4042 15.219 40.0504 13.3806 41.3849C13.0653 41.5964 12.7688 41.8372 12.4949 42.1046C12.299 42.2418 12.1366 42.4254 12.021 42.6409C11.9054 42.8562 11.8398 43.0972 11.8296 43.3443C11.8192 43.5913 11.8646 43.8373 11.9619 44.0625C12.0592 44.2875 12.2057 44.4855 12.3895 44.6399C12.7813 45.1563 13.1339 45.7041 13.4439 46.2785C13.6864 46.7324 13.8446 47.2528 14.1082 47.6957C14.2238 47.8777 14.2855 48.0915 14.2855 48.3102C14.2855 48.5289 14.2238 48.7427 14.1082 48.9246C12.9023 51.3191 11.8457 53.7932 10.9449 56.3314C6.75281 67.6667 5.65728 80.0056 7.78166 91.9592C9.53826 102.11 13.6688 111.644 19.802 119.704C20.8565 121.11 22.0058 122.439 23.1446 123.768C23.3088 123.908 23.4195 124.107 23.4562 124.327C23.4929 124.546 23.4535 124.772 23.3449 124.963C23.1614 125.346 22.9536 125.716 22.7228 126.07C22.4697 126.403 22.3268 126.813 22.3154 127.238C22.304 127.664 22.4247 128.082 22.6595 128.429C23.3777 129.67 24.3638 130.717 25.5381 131.484C26.9299 132.381 28.248 133.389 29.5976 134.341C30.4095 134.916 31.1898 135.525 32.0123 136.079C34.4489 137.663 36.6396 139.632 38.5075 141.914C39.1085 142.655 39.7517 143.353 40.3949 144.05C40.5458 144.283 40.7486 144.474 40.9857 144.606C41.2227 144.738 41.4869 144.807 41.7551 144.807C42.0234 144.807 42.2875 144.738 42.5246 144.606C42.7617 144.474 42.9645 144.283 43.1153 144.05C43.5889 143.528 44.1854 143.146 44.8446 142.943L46.152 142.6C47.0272 142.39 47.8918 142.168 48.166 141.05C48.4612 141.139 48.6721 141.194 48.883 141.271C59.3849 145.144 70.6032 146.388 81.6439 144.903C92.1592 143.58 102.285 139.919 111.347 134.164C113.624 132.724 115.765 131.064 117.969 129.503C118.211 129.336 118.412 129.082 118.77 129.17C119.59 129.327 120.436 129.19 121.174 128.783C122.67 128.095 124.069 127.194 125.329 126.104C128.84 123.114 131.955 119.645 134.586 115.785C135.691 114.154 136.575 112.37 137.212 110.482C137.575 109.577 137.723 108.593 137.644 107.614C137.576 107.406 137.56 107.183 137.597 106.966C137.634 106.749 137.722 106.545 137.855 106.374C137.904 106.314 137.939 106.243 137.96 106.166C137.98 106.09 137.984 106.01 137.971 105.931C137.939 105.697 137.951 105.457 138.008 105.227C138.064 104.997 138.162 104.781 138.298 104.592C142.224 96.7932 144.673 88.2698 145.51 79.4928C146.242 72.076 145.732 64.582 144.002 57.3499C143.841 56.9706 143.78 56.5529 143.824 56.1402C143.868 55.7274 144.017 55.3346 144.255 55.0028C144.427 54.7062 144.549 54.3801 144.614 54.0396ZM78.2908 13.3853C78.328 13.5774 78.3256 13.7756 78.2838 13.9664C78.2419 14.1574 78.1617 14.3368 78.0483 14.4924C77.1813 16.1613 75.9667 17.6033 74.4949 18.7107C72.3571 20.2588 69.9868 21.4189 67.483 22.1428C67.3919 22.1535 67.3 22.1535 67.2089 22.1428C68.6745 21.3567 70.1718 20.6149 71.6058 19.7735C72.6656 19.1257 73.6901 18.4162 74.6742 17.6478C76.2195 16.5903 77.468 15.1188 78.2908 13.3853ZM55.431 15.3008C55.6336 15.0721 55.8929 14.9073 56.1796 14.8247C59.2478 13.6878 62.3868 12.774 65.5745 12.0901C68.9389 11.3788 72.3456 10.909 75.7708 10.6839C75.9463 10.6728 76.1224 10.6728 76.298 10.6839C76.3814 10.6943 76.463 10.7166 76.5405 10.7503C76.6545 11.0839 76.6992 11.4392 76.672 11.7923C76.6447 12.1456 76.546 12.4886 76.3823 12.7985C76.1003 13.353 75.7759 13.8824 75.4122 14.3817C75.2771 14.5699 75.1213 14.7409 74.9483 14.8911C71.1313 18.3565 66.8503 20.781 61.7153 21.2017C60.514 21.3145 59.3031 21.2211 58.1303 20.9249C57.2477 20.71 56.4359 20.2515 55.7789 19.5965C55.2656 19.028 54.9516 18.2932 54.8884 17.5126C54.8252 16.732 55.0165 15.9521 55.431 15.3008ZM52.9636 17.3932C53.2588 19.386 53.2588 19.3861 54.9776 21.6004C53.1007 20.7368 52.215 18.8767 52.9636 17.3932ZM41.481 141.227C41.3123 141.028 41.0592 140.74 40.8167 140.441C38.4859 137.537 35.7054 135.067 32.5922 133.134C31.9595 132.724 31.3796 132.215 30.7575 131.772C29.4289 130.831 28.0793 129.923 26.7612 128.971C26.3011 128.649 25.8736 128.278 25.4854 127.864C25.0003 127.333 25.032 127.266 25.5697 126.535C31.2153 132.104 37.7599 136.573 44.8973 139.733C43.7269 140.264 42.6725 140.718 41.481 141.227ZM134.639 111.445C134.003 112.995 133.166 114.444 132.151 115.752C130.021 118.644 127.63 121.314 125.012 123.723C124.211 124.436 123.369 125.098 122.492 125.705C117.579 128.274 118.274 124.078 118.401 123.546C118.745 121.873 119.366 120.277 120.236 118.83C122.879 114.329 126.551 110.592 130.917 107.958C131.51 107.62 132.122 107.324 132.752 107.072C132.99 106.982 133.233 106.908 133.479 106.85C136.389 105.566 135.135 110.172 134.639 111.445ZM138.857 95.6682C138.182 97.5614 137.338 99.3882 136.569 101.204C136.463 101.459 136.326 101.702 136.168 102.001C136.042 101.813 135.957 101.691 135.862 101.569C135.76 101.419 135.617 101.305 135.45 101.243C135.284 101.182 135.104 101.176 134.934 101.226C134.756 101.255 134.593 101.347 134.47 101.485C134.348 101.624 134.274 101.802 134.26 101.99C134.202 102.586 134.202 103.187 134.26 103.784C134.344 104.614 134.376 104.614 133.606 104.769C132.348 105.016 131.141 105.496 130.042 106.186C125.336 109.008 121.385 113.034 118.559 117.889C117.501 119.682 116.785 121.676 116.45 123.756C116.345 124.509 116.345 125.273 116.292 126.093C116.145 126.093 115.976 126.093 115.818 126.093C114.444 125.921 113.05 126.119 111.769 126.668C111.555 126.751 111.355 126.871 111.178 127.023C111.021 127.149 110.909 127.326 110.86 127.526C110.81 127.728 110.826 127.939 110.904 128.13C110.994 128.331 111.151 128.492 111.344 128.581C111.538 128.671 111.756 128.683 111.959 128.617C112.422 128.484 112.865 128.296 113.329 128.174C113.775 128.047 114.24 128.009 114.7 128.063C114.573 128.197 114.441 128.323 114.299 128.44C104.716 135.553 93.6414 140.138 82.0129 141.803C76.9426 142.524 71.8127 142.665 66.7133 142.224C60.303 141.709 53.9983 140.216 47.9973 137.795C36.5213 133.286 26.6269 125.209 19.6333 114.645C14.6579 107.169 11.4088 98.5796 10.1436 89.5568C8.22844 76.1687 10.4455 62.4884 16.4701 50.5189C19.5684 44.1535 23.5877 38.3309 28.385 33.2586C28.6697 32.9597 28.965 32.6828 29.2602 32.3839C29.4112 32.2476 29.5522 32.0996 29.682 31.941C29.8434 31.8064 29.9762 31.6378 30.0718 31.446C30.1673 31.2543 30.2236 31.0436 30.2369 30.8276C30.2502 30.6116 30.2204 30.395 30.1491 30.1919C30.0779 29.9888 29.967 29.8036 29.8234 29.6482C29.6799 29.4928 29.5069 29.3708 29.3158 29.2898C29.1246 29.2089 28.9193 29.1708 28.7133 29.1782C28.5072 29.1857 28.305 29.2384 28.1195 29.3328C27.9341 29.4272 27.7695 29.5614 27.6364 29.7267C27.2568 30.0699 26.9405 30.4796 26.582 30.8339C22.4272 35.2436 18.8109 40.1787 15.8163 45.5257C15.7003 45.7249 15.5738 45.9132 15.3946 46.1789C15.152 45.6142 14.9622 45.1271 14.7197 44.6842C14.4772 44.2414 14.2136 43.8429 13.9395 43.4001C14.1073 43.2424 14.2833 43.0945 14.4667 42.9571C16.4073 41.5392 18.1166 39.8006 19.5279 37.8089C20.5823 36.4139 21.6367 34.9967 22.6912 33.6017C23.8446 32.0076 24.881 30.3235 25.7912 28.5642L26.2973 27.6674L27.2252 27.7561C28.2058 27.8447 29.1759 27.9553 30.1459 28.0107C30.3158 28.0024 30.485 28.0372 30.6393 28.1125C30.7934 28.1877 30.9281 28.3008 31.0316 28.4424C31.2443 28.7442 31.5616 28.946 31.9148 29.004C32.2681 29.062 32.6288 28.9717 32.9191 28.7524C33.2536 28.5198 33.5709 28.2608 33.868 27.9774C38.6566 23.8331 43.929 20.3469 49.5578 17.6035L50.9813 16.9392C50.9813 17.371 50.8864 17.6257 50.8864 17.8803C50.7541 18.8689 50.8187 19.8755 51.0762 20.8365C51.1503 21.1415 51.1503 21.4614 51.0762 21.7664C50.8977 23.3661 50.4552 24.9208 49.7687 26.361C49.6399 26.5606 49.5898 26.8049 49.6291 27.0425C49.6685 27.2799 49.7941 27.4922 49.9796 27.6342C50.0709 27.7057 50.1748 27.7577 50.2852 27.7869C50.3957 27.8162 50.5105 27.8223 50.6231 27.8048C50.7358 27.7873 50.8441 27.7466 50.9418 27.685C51.0394 27.6235 51.1245 27.5422 51.1922 27.4461C51.4432 27.1527 51.6367 26.8104 51.7616 26.4385C52.0884 25.4421 52.352 24.4346 52.6473 23.4271C52.7105 23.1724 52.7633 22.929 52.8371 22.6411C52.9465 22.6788 53.0524 22.7269 53.1534 22.7849C55.7587 24.6279 58.895 25.4581 62.0211 25.1322C66.4642 24.7824 70.7631 23.3208 74.5582 20.8696C76.4267 19.6713 78.0014 18.0293 79.1554 16.0757L79.5667 15.4115L79.7776 15.2121C79.8505 15.4036 79.95 15.5826 80.0728 15.7435C81.1272 16.7067 82.1816 17.6479 83.2361 18.589C83.3891 18.7269 83.5639 18.8357 83.7527 18.9099C83.9478 19.0078 84.1697 19.0292 84.3786 18.9703C84.5874 18.9115 84.7693 18.7762 84.8915 18.589C85.005 18.396 85.0482 18.1665 85.0133 17.9427C84.9784 17.719 84.8678 17.516 84.7017 17.371C84.5501 17.2368 84.3916 17.1112 84.2272 16.9946C83.4259 16.2749 82.614 15.5774 81.8337 14.7803C81.2393 14.2 80.8648 13.4135 80.7793 12.566C80.7367 12.3087 80.6509 12.0614 80.5262 11.8353C80.3469 11.4367 80.1255 11.0603 79.8514 10.54C80.231 10.54 80.484 10.4846 80.7371 10.54C87.2416 10.5916 93.705 11.6283 99.9276 13.6178C110.105 16.7788 119.33 22.6483 126.71 30.6567C134.839 39.3813 140.214 50.5216 142.104 62.5647C143.901 73.7042 142.778 85.1471 138.857 95.6682ZM143.907 50.5633C143.602 51.4158 143.317 52.2792 143.022 53.1428H142.832C140.175 44.5828 135.819 36.7115 130.052 30.0479L130.147 29.9149C130.351 29.9415 130.549 29.9974 130.738 30.0811C131.31 30.4564 131.857 30.8745 132.372 31.3321C136.419 35.1751 139.689 39.8324 141.988 45.0275C142.642 46.5 143.233 48.0168 143.865 49.4561C143.952 49.6254 144 49.8128 144.007 50.0046C144.014 50.1962 143.98 50.3872 143.907 50.5633Z" fill="black"/>
<path d="M54.1551 97.7055C52.5571 97.7404 50.9694 97.4312 49.4896 96.7971C48.0098 96.163 46.6695 95.2175 45.551 94.0187C43.0895 91.4102 41.5304 88.0115 41.1225 84.3644C40.7214 81.7239 41.0394 79.018 42.0398 76.5591C42.4207 75.7037 42.8834 74.8913 43.4211 74.1344C43.9267 73.4388 44.6107 72.9088 45.3929 72.6066C45.6016 72.5153 45.8218 72.4557 46.0466 72.4294C46.2465 72.3968 46.4511 72.4416 46.6219 72.5557C46.7926 72.6699 46.918 72.8453 46.9745 73.0494C47.0595 73.2535 47.0639 73.4846 46.9868 73.6922C46.9098 73.8997 46.7574 74.0668 46.5633 74.1566C44.117 75.1641 43.4 77.4226 43.0099 79.7919C42.5977 82.0683 42.7152 84.4157 43.3521 86.6343C43.9891 88.8529 45.1269 90.8772 46.6687 92.5351C47.878 93.927 49.4278 94.9438 51.1495 95.4748C52.8711 96.0058 54.6986 96.0306 56.4327 95.5466C58.7257 95.0206 60.8236 93.806 62.471 92.0506C64.1184 90.2953 65.2443 88.0749 65.7116 85.6598C66.0219 84.0235 65.8754 82.3282 65.2898 80.7773C64.4212 78.2618 62.8798 76.0629 60.8507 74.4444C60.0177 73.8133 59.2058 73.1601 58.3728 72.518C58.2671 72.4588 58.1738 72.3782 58.098 72.2808C58.0222 72.1835 57.9656 72.0715 57.9313 71.951C57.8969 71.8306 57.8857 71.7042 57.8981 71.5792C57.9105 71.4542 57.9465 71.333 58.0037 71.2226C58.1273 71.0033 58.3263 70.842 58.5597 70.772C58.7931 70.7019 59.0432 70.7285 59.2585 70.8462C59.4855 70.9532 59.6982 71.0908 59.8912 71.2558C60.8507 72.0198 61.8208 72.7726 62.7381 73.5919C65.0534 75.684 66.6899 78.4821 67.4197 81.5966C67.9159 83.5777 67.809 85.6721 67.114 87.5862C66.3658 90.0765 64.9913 92.3086 63.1354 94.0468C61.2795 95.785 59.0113 96.9649 56.5697 97.4619C56.1524 97.5561 55.7298 97.6227 55.3044 97.6612C54.9038 97.6833 54.4503 97.6833 54.1551 97.7055Z" fill="black"/>
<path d="M54.2078 65.111C56.5201 65.0973 58.8115 65.5703 60.9467 66.502C63.0819 67.4338 65.0177 68.8055 66.6395 70.5361C68.616 72.5856 69.9667 75.2063 70.5197 78.0646C70.5726 78.2928 70.5939 78.5277 70.583 78.7621C70.57 78.9745 70.4874 79.1757 70.3489 79.3312C70.2104 79.4867 70.0248 79.5868 69.8238 79.6146C69.6355 79.6407 69.4441 79.6033 69.2773 79.5079C69.1106 79.4123 68.977 79.2636 68.8959 79.0832C68.8224 78.9164 68.7659 78.742 68.7272 78.5629C68.3778 76.6944 67.6499 74.9267 66.593 73.3794C65.536 71.8321 64.1745 70.5414 62.601 69.5949C57.0653 66.1517 51.4136 66.041 45.8674 69.5949C44.4399 70.4905 43.2095 71.6936 42.2571 73.125C41.3048 74.5562 40.6521 76.1831 40.3422 77.8985C40.047 79.4256 40.047 80.9993 40.3422 82.5264C40.403 82.7801 40.4383 83.0399 40.4476 83.3014C40.4654 83.5147 40.409 83.7276 40.2888 83.9007C40.1686 84.0737 39.9928 84.1952 39.7939 84.2425C39.5813 84.3091 39.3524 84.2862 39.1556 84.1788C38.9589 84.0714 38.8096 83.8877 38.7395 83.6667C38.6478 83.4485 38.5875 83.2171 38.5602 82.9803C38.0647 80.4891 38.2283 77.9029 39.0331 75.5024C39.838 73.1018 41.2534 70.9784 43.1259 69.3626C46.1868 66.546 50.1385 65.0299 54.2078 65.111Z" fill="black"/>
<defs>
<linearGradient id="paint0_linear_412_5699" x1="54.8827" y1="15.9541" x2="76.6881" y2="15.9541" gradientUnits="userSpaceOnUse">
<stop stop-color="#504095"/>
<stop offset="0.0001" stop-color="#504095"/>
<stop offset="0.06" stop-color="#564195"/>
<stop offset="0.13" stop-color="#684393"/>
<stop offset="0.22" stop-color="#854792"/>
<stop offset="0.32" stop-color="#AD4C8F"/>
<stop offset="0.42" stop-color="#E0538B"/>
<stop offset="0.44" stop-color="#E7548B"/>
<stop offset="0.58" stop-color="#D67DA6"/>
<stop offset="0.77" stop-color="#C1B0C8"/>
<stop offset="0.92" stop-color="#B4D0DD"/>
<stop offset="1" stop-color="#AFDCE5"/>
</linearGradient>
<linearGradient id="paint1_linear_412_5699" x1="117.581" y1="117.136" x2="136.546" y2="117.136" gradientUnits="userSpaceOnUse">
<stop stop-color="#504095"/>
<stop offset="0.0001" stop-color="#504095"/>
<stop offset="0.06" stop-color="#564195"/>
<stop offset="0.13" stop-color="#684393"/>
<stop offset="0.22" stop-color="#854792"/>
<stop offset="0.32" stop-color="#AD4C8F"/>
<stop offset="0.42" stop-color="#E0538B"/>
<stop offset="0.44" stop-color="#E7548B"/>
<stop offset="0.58" stop-color="#D67DA6"/>
<stop offset="0.77" stop-color="#C1B0C8"/>
<stop offset="0.92" stop-color="#B4D0DD"/>
<stop offset="1" stop-color="#AFDCE5"/>
</linearGradient>
<linearGradient id="paint2_linear_412_5699" x1="9.53885" y1="76.4428" x2="143.029" y2="76.4428" gradientUnits="userSpaceOnUse">
<stop stop-color="#504095"/>
<stop offset="0.0001" stop-color="#504095"/>
<stop offset="0.06" stop-color="#564195"/>
<stop offset="0.13" stop-color="#684393"/>
<stop offset="0.22" stop-color="#854792"/>
<stop offset="0.32" stop-color="#AD4C8F"/>
<stop offset="0.42" stop-color="#E0538B"/>
<stop offset="0.44" stop-color="#E7548B"/>
<stop offset="0.58" stop-color="#D67DA6"/>
<stop offset="0.77" stop-color="#C1B0C8"/>
<stop offset="0.92" stop-color="#B4D0DD"/>
<stop offset="1" stop-color="#AFDCE5"/>
</linearGradient>
<linearGradient id="paint3_linear_412_5699" x1="10975.1" y1="11516.3" x2="11159.4" y2="11516.3" gradientUnits="userSpaceOnUse">
<stop stop-color="#504095"/>
<stop offset="0.06" stop-color="#564195"/>
<stop offset="0.13" stop-color="#684393"/>
<stop offset="0.22" stop-color="#854792"/>
<stop offset="0.32" stop-color="#AD4C8F"/>
<stop offset="0.42" stop-color="#E0538B"/>
<stop offset="0.44" stop-color="#E7548B"/>
<stop offset="0.58" stop-color="#D67DA6"/>
<stop offset="0.77" stop-color="#C1B0C8"/>
<stop offset="0.92" stop-color="#B4D0DD"/>
<stop offset="1" stop-color="#AFDCE5"/>
</linearGradient>
<linearGradient id="paint4_linear_412_5699" x1="13435.5" y1="8617.37" x2="13805.5" y2="8617.37" gradientUnits="userSpaceOnUse">
<stop stop-color="#504095"/>
<stop offset="0.06" stop-color="#564195"/>
<stop offset="0.13" stop-color="#684393"/>
<stop offset="0.22" stop-color="#854792"/>
<stop offset="0.32" stop-color="#AD4C8F"/>
<stop offset="0.42" stop-color="#E0538B"/>
<stop offset="0.44" stop-color="#E7548B"/>
<stop offset="0.58" stop-color="#D67DA6"/>
<stop offset="0.77" stop-color="#C1B0C8"/>
<stop offset="0.92" stop-color="#B4D0DD"/>
<stop offset="1" stop-color="#AFDCE5"/>
</linearGradient>
<linearGradient id="paint5_linear_412_5699" x1="8021.25" y1="4169.28" x2="8137.44" y2="4169.28" gradientUnits="userSpaceOnUse">
<stop stop-color="#504095"/>
<stop offset="0.06" stop-color="#564195"/>
<stop offset="0.13" stop-color="#684393"/>
<stop offset="0.22" stop-color="#854792"/>
<stop offset="0.32" stop-color="#AD4C8F"/>
<stop offset="0.42" stop-color="#E0538B"/>
<stop offset="0.44" stop-color="#E7548B"/>
<stop offset="0.58" stop-color="#D67DA6"/>
<stop offset="0.77" stop-color="#C1B0C8"/>
<stop offset="0.92" stop-color="#B4D0DD"/>
<stop offset="1" stop-color="#AFDCE5"/>
</linearGradient>
<linearGradient id="paint6_linear_412_5699" x1="1659.68" y1="2014.16" x2="1664.61" y2="2014.16" gradientUnits="userSpaceOnUse">
<stop stop-color="#504095"/>
<stop offset="0.06" stop-color="#564195"/>
<stop offset="0.13" stop-color="#684393"/>
<stop offset="0.22" stop-color="#854792"/>
<stop offset="0.32" stop-color="#AD4C8F"/>
<stop offset="0.42" stop-color="#E0538B"/>
<stop offset="0.44" stop-color="#E7548B"/>
<stop offset="0.58" stop-color="#D67DA6"/>
<stop offset="0.77" stop-color="#C1B0C8"/>
<stop offset="0.92" stop-color="#B4D0DD"/>
<stop offset="1" stop-color="#AFDCE5"/>
</linearGradient>
<linearGradient id="paint7_linear_412_5699" x1="114.792" y1="114.489" x2="135.987" y2="114.489" gradientUnits="userSpaceOnUse">
<stop stop-color="#504095"/>
<stop offset="0.0001" stop-color="#504095"/>
<stop offset="0.06" stop-color="#564195"/>
<stop offset="0.13" stop-color="#684393"/>
<stop offset="0.22" stop-color="#854792"/>
<stop offset="0.32" stop-color="#AD4C8F"/>
<stop offset="0.42" stop-color="#E0538B"/>
<stop offset="0.44" stop-color="#E7548B"/>
<stop offset="0.58" stop-color="#D67DA6"/>
<stop offset="0.77" stop-color="#C1B0C8"/>
<stop offset="0.92" stop-color="#B4D0DD"/>
<stop offset="1" stop-color="#AFDCE5"/>
</linearGradient>
<linearGradient id="paint8_linear_412_5699" x1="119.474" y1="113.525" x2="133.882" y2="113.525" gradientUnits="userSpaceOnUse">
<stop stop-color="#504095"/>
<stop offset="0.0001" stop-color="#504095"/>
<stop offset="0.06" stop-color="#564195"/>
<stop offset="0.13" stop-color="#684393"/>
<stop offset="0.22" stop-color="#854792"/>
<stop offset="0.32" stop-color="#AD4C8F"/>
<stop offset="0.42" stop-color="#E0538B"/>
<stop offset="0.44" stop-color="#E7548B"/>
<stop offset="0.58" stop-color="#D67DA6"/>
<stop offset="0.77" stop-color="#C1B0C8"/>
<stop offset="0.92" stop-color="#B4D0DD"/>
<stop offset="1" stop-color="#AFDCE5"/>
</linearGradient>
<linearGradient id="paint9_linear_412_5699" x1="40.7602" y1="83.6659" x2="70.5774" y2="83.6659" gradientUnits="userSpaceOnUse">
<stop stop-color="#504095"/>
<stop offset="0.0001" stop-color="#504095"/>
<stop offset="0.06" stop-color="#564195"/>
<stop offset="0.13" stop-color="#684393"/>
<stop offset="0.22" stop-color="#854792"/>
<stop offset="0.32" stop-color="#AD4C8F"/>
<stop offset="0.42" stop-color="#E0538B"/>
<stop offset="0.44" stop-color="#E7548B"/>
<stop offset="0.58" stop-color="#D67DA6"/>
<stop offset="0.77" stop-color="#C1B0C8"/>
<stop offset="0.92" stop-color="#B4D0DD"/>
<stop offset="1" stop-color="#AFDCE5"/>
</linearGradient>
</defs>
</svg>
