<svg width="80" height="103" viewBox="0 0 80 103" fill="none" xmlns="http://www.w3.org/2000/svg">
<g id="bgPlanet1" opacity="0.82">
<path id="Vector" opacity="0.82" d="M17.45 80.18C17.5737 79.9656 17.7424 79.7804 17.9443 79.6372C18.1463 79.494 18.3767 79.396 18.62 79.35C19.0479 79.2578 19.4828 79.201 19.92 79.18C20.0861 79.1605 20.2539 79.1605 20.42 79.18C24.0424 79.6207 27.4192 81.2406 30.03 83.79C30.6582 84.4132 31.1785 85.1364 31.5699 85.93C31.8717 86.523 32.0098 87.1858 31.97 87.85C31.9054 88.3932 31.6587 88.8986 31.27 89.2836C30.8814 89.6686 30.3738 89.9105 29.83 89.97C29.6145 89.9562 29.407 89.8836 29.23 89.76C27.1753 88.5442 25.2073 87.1876 23.34 85.7C21.3692 84.129 19.5114 82.4215 17.78 80.59C17.6915 80.5015 17.608 80.408 17.53 80.31C17.4985 80.2699 17.4716 80.2262 17.45 80.18Z" fill="url(#paint0_linear_343_7029)"/>
<path id="Vector_2" opacity="0.82" d="M60.74 4.64997C60.33 4.89997 58.51 5.82998 58.17 6.00998C57.1114 6.56625 55.9645 6.93503 54.78 7.09998C51.1215 7.62585 47.3896 7.23409 43.92 5.95997C43.4348 5.84704 42.9571 5.70343 42.49 5.52997C42.33 5.44997 39.7699 3.21998 40.9399 3.21998C43.4399 0.829976 58.28 -0.790032 60.74 4.64997Z" fill="url(#paint1_linear_343_7029)"/>
<path id="Vector_3" opacity="0.82" d="M32.79 91.7501C33.04 91.5801 33.1999 91.5001 33.3399 91.3801C33.9343 91.0134 34.4453 90.5263 34.8399 89.9501C34.9549 89.7618 35.1169 89.6067 35.31 89.5001C36.2507 88.8884 37.2889 88.442 38.38 88.1801C38.547 88.1601 38.7003 88.078 38.8097 87.9502C38.919 87.8224 38.9761 87.6581 38.9699 87.4901C38.9596 87.322 38.8835 87.1649 38.7581 87.0526C38.6327 86.9403 38.4682 86.8819 38.3 86.8901C38.0243 86.8827 37.7495 86.9268 37.4899 87.0201C36.7999 87.2801 36.1299 87.5901 35.4899 87.8801L34.9799 88.1201C34.9442 88.0434 34.9174 87.9629 34.9 87.8801C34.6579 85.6023 33.6287 83.4804 31.9899 81.8801C29.7068 79.5335 26.8952 77.7676 23.79 76.7301C22.2687 76.2187 20.6486 76.0715 19.06 76.3001L18.51 76.3601H18.31C18.37 76.2283 18.4168 76.091 18.4499 75.9501C18.4499 74.9434 18.47 73.9434 18.51 72.9501C18.5076 72.8033 18.4806 72.6579 18.43 72.5201C18.3963 72.3654 18.3055 72.2291 18.1757 72.1383C18.046 72.0475 17.8868 72.0089 17.7299 72.0301C17.5744 72.0497 17.4315 72.1256 17.3283 72.2436C17.2251 72.3616 17.1688 72.5133 17.17 72.6701C17.17 72.8201 17.17 72.9701 17.17 73.1101C17.17 73.8801 17.17 74.6601 17.17 75.4301C17.1538 76.0244 16.9229 76.5928 16.52 77.0301C16.4032 77.1698 16.3118 77.3289 16.25 77.5001C16.12 77.7801 16.02 78.0701 15.87 78.5001C15.68 78.3001 15.55 78.1701 15.43 78.0201C12.3946 74.3397 9.90561 70.2408 8.04 65.8501C4.94172 58.703 3.73966 50.8775 4.55001 43.1301C5.39505 34.6361 8.83007 26.607 14.39 20.1301C19.5116 14.1387 26.1603 9.64637 33.63 7.13008C34.97 6.66008 36.3399 6.31009 37.6999 5.92009C37.8899 5.86009 38.0899 5.83007 38.3199 5.78007C38.3199 5.94007 38.2499 6.04007 38.2299 6.15007C38.1976 6.27639 38.2052 6.40965 38.2518 6.53145C38.2984 6.65324 38.3816 6.75756 38.4899 6.83006C38.5938 6.90796 38.7201 6.95009 38.8499 6.95009C38.9798 6.95009 39.1061 6.90796 39.2099 6.83006C39.5703 6.59525 39.9054 6.32381 40.2099 6.02007C40.6099 5.60007 40.6 5.58009 41.04 5.95009C41.7673 6.54301 42.5931 7.00335 43.4799 7.31007C47.2078 8.69658 51.227 9.11294 55.16 8.52007C56.6229 8.31773 58.0305 7.82473 59.3 7.07008C59.75 6.80008 60.16 6.46008 60.63 6.07008C60.69 6.16008 60.7799 6.25008 60.8399 6.35008C61.3994 7.19329 62.1632 7.88129 63.06 8.35008C63.203 8.4316 63.3584 8.48902 63.52 8.52007C63.6683 8.55138 63.8228 8.52989 63.957 8.45927C64.0911 8.38866 64.1963 8.27338 64.2545 8.13338C64.3126 7.99338 64.32 7.83744 64.2753 7.69258C64.2307 7.54772 64.1368 7.42303 64.01 7.34007C63.72 7.14007 63.41 6.98007 63.13 6.77007C62.8524 6.57414 62.612 6.33033 62.42 6.05006C62.5514 6.0595 62.6819 6.07957 62.81 6.11006C66.9081 7.18466 70.8628 8.74578 74.5899 10.7601C78.4096 12.8276 81.9655 15.3492 85.18 18.2701C87.9556 20.8011 90.4499 23.624 92.62 26.6901C95.3624 30.5275 97.5287 34.7455 99.05 39.2101C102.05 47.6883 102.399 56.8789 100.05 65.5601C98.3787 71.7198 95.2975 77.4063 91.05 82.1701C84.7912 89.2694 76.4219 94.176 67.17 96.1701C62.2991 97.276 57.2852 97.6134 52.31 97.1701C52.01 97.1701 51.72 97.1001 51.43 97.0701C51.14 97.0401 51.1399 97.0701 50.9899 97.0701C50.6969 97.0422 50.4047 97.1319 50.1778 97.3195C49.9509 97.507 49.8078 97.777 49.78 98.0701C49.7663 98.2141 49.7814 98.3594 49.8244 98.4976C49.8674 98.6357 49.9375 98.7639 50.0306 98.8746C50.1237 98.9854 50.2379 99.0765 50.3665 99.1427C50.4952 99.2089 50.6357 99.2488 50.78 99.2601C51.1448 99.3099 51.5119 99.3399 51.88 99.3501C56.1947 99.7056 60.5367 99.5344 64.81 98.8401C64.97 98.8401 65.1299 98.8401 65.3499 98.7801C65.1699 99.1701 65 99.4901 64.87 99.7801C64.74 100.07 64.66 100.44 64.55 100.78C64.3847 100.757 64.221 100.724 64.06 100.68C62.3918 100.217 60.6581 100.034 58.93 100.14C57.68 100.14 56.43 100.22 55.18 100.24C53.7826 100.313 52.3923 100.487 51.02 100.76L50.3 100.88L49.91 100.32C49.5 99.7301 49.1 99.1401 48.67 98.5601C48.5841 98.4695 48.5217 98.3592 48.4886 98.2388C48.4555 98.1185 48.4525 97.9918 48.4799 97.8701C48.5407 97.6156 48.4994 97.3475 48.3648 97.1231C48.2302 96.8988 48.0131 96.7361 47.76 96.6701C47.4781 96.5867 47.1907 96.5232 46.9 96.4801C42.4033 95.643 38.0337 94.228 33.9 92.2701C33.5 92.1101 33.19 92.0001 32.79 91.7501ZM74.5899 53.7501C74.4399 53.6001 74.2299 53.3401 73.99 53.1101C73.7709 52.8878 73.5371 52.6806 73.29 52.4901C71.8675 51.3389 70.1608 50.5929 68.3498 50.3307C66.5388 50.0685 64.6905 50.2997 63 51.0001C61.6491 51.4673 60.4779 52.3448 59.65 53.5101C58.3243 55.3192 57.597 57.4974 57.5699 59.7401C57.5699 60.6301 57.62 61.5101 57.65 62.3901C57.6563 62.5725 57.6831 62.7536 57.7299 62.9301C57.7685 63.1029 57.8719 63.2543 58.019 63.353C58.1661 63.4516 58.3454 63.49 58.52 63.4601C58.6062 63.4446 58.6883 63.412 58.7616 63.364C58.8348 63.316 58.8976 63.2536 58.9461 63.1808C58.9947 63.108 59.028 63.0261 59.0441 62.94C59.0603 62.854 59.0589 62.7656 59.04 62.6801C59.04 61.9201 58.97 61.1701 58.91 60.4201C58.8195 58.552 59.2708 56.6975 60.2099 55.0801C60.763 54.0519 61.6041 53.2074 62.63 52.6501C64.1445 51.8307 65.8641 51.4683 67.5805 51.6067C69.2969 51.7452 70.9364 52.3785 72.3 53.4301C73.3769 54.1899 74.2256 55.2298 74.7544 56.4371C75.2831 57.6444 75.4718 58.9733 75.3 60.2801C75.1372 61.8911 74.5874 63.4389 73.6977 64.7917C72.808 66.1445 71.6046 67.2624 70.1899 68.0501C68.7499 68.9101 67.19 69.5101 65.5 68.5901C65.3643 68.5232 65.208 68.5118 65.0642 68.5585C64.9203 68.6052 64.8004 68.7063 64.7299 68.8401C64.6464 68.9628 64.6106 69.1117 64.629 69.2589C64.6474 69.4062 64.7188 69.5417 64.8299 69.6401C64.9517 69.7536 65.0899 69.8479 65.2399 69.9201C65.7651 70.2304 66.371 70.3767 66.9799 70.3401C67.6556 70.3139 68.3263 70.2132 68.9799 70.0401C70.7668 69.4906 72.3639 68.4513 73.5899 67.0401C75.3534 65.183 76.4447 62.7892 76.6899 60.2401C76.801 59.0723 76.672 57.8941 76.3109 56.778C75.9497 55.6619 75.3641 54.6314 74.5899 53.7501ZM57.0999 68.3401C58.9704 70.6624 61.6355 72.2087 64.5799 72.6801C66.329 73.0037 68.1333 72.8441 69.7984 72.2186C71.4636 71.5931 72.9266 70.5252 74.03 69.1301C74.1412 69.0065 74.2354 68.8686 74.31 68.72C74.4135 68.5874 74.4599 68.4192 74.4393 68.2523C74.4187 68.0854 74.3325 67.9335 74.1999 67.8301C74.0673 67.7267 73.899 67.6801 73.7321 67.7008C73.5652 67.7214 73.4135 67.8075 73.31 67.9401C73.1714 68.0621 73.0471 68.1997 72.9399 68.3501C72.2579 69.1969 71.4151 69.9004 70.4599 70.4201C69.3929 71.0144 68.2122 71.3761 66.9953 71.4812C65.7785 71.5864 64.5531 71.4326 63.4 71.0301C61.3155 70.3931 59.4615 69.1632 58.064 67.4905C56.6666 65.8178 55.7861 63.7746 55.53 61.6101C55.2977 60.3 55.3488 58.9555 55.68 57.6669C56.0112 56.3783 56.6147 55.1757 57.4499 54.1401C57.5317 54.04 57.5991 53.9289 57.65 53.8101C57.7083 53.6838 57.7251 53.5423 57.6982 53.4058C57.6713 53.2693 57.6019 53.1448 57.5 53.0501C57.3841 52.9559 57.2393 52.9044 57.0899 52.9044C56.9406 52.9044 56.7959 52.9559 56.68 53.0501C56.5497 53.1489 56.4349 53.2669 56.3399 53.4001C55.0704 54.9945 54.3014 56.9292 54.13 58.9601C53.9762 60.6425 54.1598 62.3387 54.6698 63.9494C55.1797 65.56 56.0059 67.0527 57.0999 68.3401ZM59.62 9.57008C59.7314 9.48674 59.8136 9.37029 59.8549 9.23738C59.8962 9.10448 59.8945 8.96191 59.8499 8.83006C59.8194 8.71186 59.7512 8.60687 59.6555 8.53105C59.5598 8.45523 59.442 8.41275 59.3199 8.41008C59.1372 8.41291 58.9557 8.43979 58.78 8.49007C58.3 8.60007 57.7799 8.76006 57.3399 8.83006C56.0099 9.02006 54.6799 9.19007 53.3399 9.34007C51.7844 9.51353 50.2123 9.46641 48.67 9.20009C47.54 9.01009 46.43 8.79006 45.31 8.58006C44.4214 8.41168 43.56 8.12233 42.75 7.72008L41.52 7.09007C41.4467 7.04204 41.3645 7.0091 41.2783 6.99315C41.1921 6.9772 41.1037 6.97856 41.018 6.99718C40.9324 7.01579 40.8513 7.05129 40.7795 7.10158C40.7077 7.15187 40.6467 7.21595 40.5999 7.29008C40.5091 7.4408 40.4802 7.62087 40.5194 7.79243C40.5585 7.964 40.6628 8.1137 40.81 8.21007C40.9376 8.31532 41.0788 8.40279 41.2299 8.47008C42.5047 9.17479 43.8811 9.67743 45.31 9.96007L47.42 10.3601C49.2037 10.7373 51.0315 10.8619 52.8499 10.7301C54.3699 10.5801 55.85 10.3901 57.4 10.1701C58.015 10.0648 58.6228 9.92111 59.2199 9.74007C59.3577 9.69441 59.4915 9.63757 59.62 9.57008ZM72 27.2101C72.5844 27.9033 73.3514 28.4187 74.214 28.698C75.0765 28.9773 76.0002 29.0092 76.88 28.7901C77.279 28.6577 77.6279 28.4065 77.88 28.0701C77.9404 28.0044 77.9872 27.9275 78.0179 27.8437C78.0486 27.7599 78.0625 27.6709 78.0588 27.5818C78.0551 27.4927 78.0338 27.4051 77.9963 27.3242C77.9588 27.2432 77.9056 27.1705 77.8399 27.1101C77.7743 27.0497 77.6974 27.0028 77.6136 26.9721C77.5298 26.9414 77.4408 26.9275 77.3516 26.9312C77.2625 26.9349 77.175 26.9562 77.0941 26.9937C77.0131 27.0313 76.9404 27.0844 76.88 27.1501C76.7169 27.2985 76.5312 27.42 76.3299 27.5101C75.784 27.6355 75.2156 27.6244 74.6749 27.4779C74.1342 27.3314 73.6379 27.0539 73.2299 26.6701C72.8525 26.2741 72.6204 25.762 72.5714 25.2172C72.5223 24.6724 72.6592 24.127 72.9599 23.6701C73.2746 23.1509 73.6326 22.6591 74.03 22.2001C74.33 21.8301 74.6699 21.4901 74.9699 21.1201C75.0884 21.0003 75.1549 20.8386 75.1549 20.6701C75.1549 20.5016 75.0884 20.3399 74.9699 20.22C74.8461 20.1055 74.6837 20.0419 74.515 20.0419C74.3463 20.0419 74.1838 20.1055 74.06 20.22C73.9737 20.2864 73.8962 20.3637 73.8299 20.4501C73.5199 20.7901 73.21 21.1301 72.91 21.4501C72.3783 22.0118 71.9424 22.657 71.62 23.3601C71.315 23.9726 71.189 24.6588 71.2562 25.3397C71.3234 26.0207 71.5811 26.669 72 27.2101ZM33 29.8301L33.18 30.0001C33.257 30.1101 33.3643 30.1953 33.489 30.2453C33.6136 30.2952 33.7502 30.3076 33.8818 30.2811C34.0134 30.2545 34.1345 30.1902 34.2301 30.0958C34.3257 30.0015 34.3917 29.8814 34.42 29.7501C34.5051 29.4719 34.5356 29.1799 34.51 28.8901C34.4412 28.0822 34.1769 27.3031 33.7399 26.6201C33.3999 26.0401 33.2699 25.9801 32.5799 26.0801C32.5471 26.0881 32.5128 26.0881 32.4799 26.0801C32.365 25.8729 32.2381 25.6725 32.0999 25.4801C32.011 25.3731 31.8887 25.2992 31.7526 25.2702C31.6166 25.2412 31.4748 25.2588 31.3499 25.3201C31.2251 25.3793 31.1233 25.478 31.06 25.6009C30.9968 25.7238 30.9756 25.864 31 26.0001C31.0394 26.1599 31.0895 26.3169 31.15 26.47C31.3243 26.894 31.4615 27.3324 31.56 27.7801C31.7019 28.2071 31.7494 28.6598 31.6993 29.1069C31.6492 29.5541 31.5028 29.985 31.27 30.3701C31.1976 30.4897 31.1708 30.6315 31.1947 30.7694C31.2185 30.9072 31.2915 31.0317 31.4 31.1201C31.5009 31.2135 31.6288 31.2726 31.7653 31.2888C31.9019 31.3049 32.0401 31.2774 32.16 31.2101C32.4723 31.0449 32.7087 30.7654 32.8199 30.4301C32.8299 30.2201 32.88 30.0501 33 29.8301ZM74.3399 26.2801C74.4671 26.4104 74.6276 26.5034 74.8038 26.5492C74.98 26.595 75.1654 26.5919 75.3399 26.5401C75.8077 26.4363 76.2489 26.2371 76.6361 25.9549C77.0232 25.6727 77.348 25.3136 77.5899 24.9001C77.6776 24.7597 77.7323 24.6012 77.7496 24.4366C77.7669 24.272 77.7465 24.1056 77.6899 23.9501C77.653 23.7969 77.564 23.6613 77.4382 23.5664C77.3123 23.4716 77.1574 23.4234 77 23.4301C76.8503 23.4397 76.7094 23.5042 76.6042 23.6112C76.4991 23.7182 76.4371 23.8602 76.43 24.0101C76.4104 24.163 76.3584 24.3099 76.2773 24.441C76.1962 24.5721 76.088 24.6843 75.9599 24.7701C75.811 24.92 75.6332 25.038 75.4372 25.1171C75.2412 25.1962 75.0312 25.2346 74.8199 25.2301C74.6902 25.2147 74.5591 25.2414 74.4456 25.3062C74.3322 25.371 74.2425 25.4706 74.1899 25.5901C74.1368 25.7022 74.118 25.8274 74.1358 25.9501C74.1536 26.0729 74.2073 26.1877 74.29 26.2801H74.3399ZM81.3399 57.9601C81.0999 58.1601 81.07 58.4201 81.17 58.8101C81.2832 59.174 81.3537 59.5499 81.38 59.9301C81.3665 60.2679 81.3161 60.6032 81.2299 60.9301C81.1924 61.074 81.2046 61.2264 81.2645 61.3625C81.3244 61.4986 81.4286 61.6105 81.56 61.6801C81.6903 61.7509 81.8415 61.7727 81.9864 61.7415C82.1313 61.7103 82.2603 61.6282 82.3499 61.5101C82.5012 61.3048 82.607 61.0695 82.66 60.8201C82.8106 60.0987 82.7692 59.3505 82.54 58.6501C82.4654 58.4284 82.3462 58.2242 82.1899 58.0501C82.1364 57.9859 82.0703 57.9334 81.9956 57.8959C81.9209 57.8583 81.8393 57.8366 81.7558 57.8319C81.6724 57.8272 81.5889 57.8397 81.5105 57.8686C81.432 57.8975 81.3604 57.9423 81.3 58.0001L81.3399 57.9601ZM6.45992 52.8501C6.35374 53.1163 6.28317 53.3954 6.24996 53.6801C6.2668 54.2621 6.31354 54.8428 6.38997 55.4201C6.43997 55.8801 6.71992 56.1401 7.08992 56.1101C7.18186 56.1029 7.27135 56.0768 7.35274 56.0335C7.43413 55.9901 7.50569 55.9304 7.56295 55.8582C7.62021 55.7859 7.66193 55.7026 7.68551 55.6134C7.70908 55.5243 7.71395 55.4312 7.69991 55.3401C7.69991 54.6701 7.62002 53.9901 7.56002 53.3401C7.55761 53.2187 7.51353 53.1018 7.43526 53.0089C7.35699 52.9161 7.24922 52.853 7.12996 52.8301C6.89347 52.805 6.65471 52.8117 6.42 52.8501H6.45992ZM8.51998 59.0401C8.60936 59.1726 8.74202 59.27 8.89522 59.3156C9.04843 59.3612 9.21264 59.3521 9.35994 59.2901C9.51297 59.2202 9.63233 59.0929 9.69222 58.9357C9.75211 58.7785 9.74777 58.6041 9.68001 58.4501C9.48538 57.9347 9.37719 57.3907 9.35994 56.8401C9.36044 56.6813 9.30098 56.5282 9.19344 56.4114C9.0859 56.2946 8.93826 56.2227 8.77999 56.2101C8.62124 56.1972 8.46321 56.243 8.33602 56.3388C8.20882 56.4347 8.12125 56.5739 8.08992 56.7301C7.96402 57.509 8.10127 58.3078 8.47994 59.0001L8.51998 59.0401ZM79.52 58.9501C79.5774 59.052 79.6609 59.1369 79.7619 59.1959C79.863 59.255 79.9779 59.2861 80.0949 59.2861C80.212 59.2861 80.3269 59.255 80.4279 59.1959C80.529 59.1369 80.6126 59.052 80.67 58.9501C80.9596 58.3929 81.1202 57.7777 81.14 57.1501C81.1638 56.9817 81.1199 56.8107 81.0177 56.6747C80.9155 56.5387 80.7633 56.4489 80.5949 56.4251C80.4265 56.4012 80.2556 56.4452 80.1196 56.5474C79.9836 56.6496 79.8938 56.8016 79.87 56.97C79.72 57.46 79.5799 57.9701 79.4799 58.4601C79.4551 58.6399 79.4619 58.8226 79.5 59.0001L79.52 58.9501Z" fill="url(#paint2_linear_343_7029)"/>
<path id="Vector_4" opacity="0.82" d="M8.93001 23.85C5.59961 29.1896 3.4387 35.1744 2.58992 41.41H2.46992C2.38638 41.2836 2.32239 41.1454 2.27998 41C2.20687 40.5102 2.17345 40.0152 2.18001 39.52C2.33539 35.5294 3.29448 31.6112 4.99995 28C5.47995 27 5.99996 26 6.50996 24.94C6.55911 24.823 6.63277 24.7178 6.7259 24.6316C6.81904 24.5454 6.92954 24.48 7.05 24.44C7.66 24.23 8.25994 24 8.85994 23.78L8.93001 23.85Z" fill="url(#paint3_linear_343_7029)"/>
<path id="Vector_5" opacity="0.82" d="M28 80.28C26.88 79.8 25.78 79.28 24.65 78.87C23.8059 78.5602 22.9443 78.2998 22.0699 78.09C20.7679 77.7051 19.3863 77.6775 18.0699 78.01C18.1559 77.9088 18.2613 77.8257 18.3798 77.7656C18.4982 77.7055 18.6275 77.6696 18.76 77.66C20.0614 77.4033 21.4033 77.4375 22.6899 77.76C24.5191 78.2661 26.2523 79.0702 27.8199 80.14C27.8848 80.1801 27.9452 80.2271 28 80.28Z" fill="url(#paint4_linear_343_7029)"/>
<path id="Vector_6" opacity="0.82" d="M32.12 90.4601C33.05 89.4001 33.0501 89.4001 33.4301 87.4601C33.8501 88.8801 33.27 90.2101 32.12 90.4601Z" fill="url(#paint5_linear_343_7029)"/>
<path id="Vector_7" opacity="0.82" d="M72 27.21C71.5972 26.6701 71.3522 26.029 71.2922 25.3581C71.2322 24.6872 71.3595 24.0128 71.66 23.41C71.9825 22.7069 72.4182 22.0617 72.9499 21.5C73.2499 21.15 73.5599 20.81 73.8699 20.5C73.9363 20.4136 74.0136 20.3363 74.0999 20.27C74.2238 20.1555 74.3863 20.0918 74.555 20.0918C74.7237 20.0918 74.8861 20.1555 75.01 20.27C75.1284 20.3898 75.1949 20.5515 75.1949 20.72C75.1949 20.8885 75.1284 21.0502 75.01 21.17C74.71 21.54 74.3699 21.88 74.0699 22.25C73.6725 22.7091 73.3147 23.2008 73 23.72C72.6993 24.1769 72.5622 24.7223 72.6113 25.2672C72.6603 25.812 72.8925 26.324 73.27 26.72C73.6779 27.1038 74.1742 27.3813 74.7149 27.5278C75.2556 27.6743 75.824 27.6854 76.3699 27.56C76.5712 27.4699 76.7569 27.3484 76.92 27.2C76.9804 27.1344 77.0532 27.0812 77.1341 27.0437C77.215 27.0062 77.3025 26.9849 77.3917 26.9812C77.4808 26.9775 77.5699 26.9914 77.6536 27.022C77.7374 27.0527 77.8143 27.0996 77.88 27.16C77.9456 27.2204 77.9988 27.2931 78.0363 27.3741C78.0739 27.455 78.0951 27.5426 78.0988 27.6317C78.1025 27.7209 78.0886 27.8098 78.0579 27.8936C78.0273 27.9774 77.9804 28.0543 77.92 28.12C77.6679 28.4564 77.319 28.7077 76.92 28.84C76.0297 29.0615 75.0948 29.0258 74.224 28.7373C73.3531 28.4488 72.5819 27.9192 72 27.21Z" fill="black"/>
<path id="Vector_8" opacity="0.82" d="M33.0001 29.8301C32.9301 30.0501 32.88 30.22 32.82 30.39C32.7088 30.7254 32.4724 31.0049 32.1601 31.17C32.0402 31.2373 31.902 31.2649 31.7654 31.2488C31.6289 31.2326 31.501 31.1735 31.4001 31.0801C31.2916 30.9917 31.2187 30.8672 31.1948 30.7293C31.1709 30.5915 31.1977 30.4497 31.2701 30.3301C31.5029 29.945 31.6493 29.514 31.6994 29.0669C31.7495 28.6197 31.702 28.167 31.5601 27.74C31.4616 27.2923 31.3244 26.854 31.1501 26.43C31.0896 26.2769 31.0395 26.1199 31.0001 25.9601C30.9757 25.824 30.9969 25.6837 31.0601 25.5608C31.1234 25.4379 31.2252 25.3393 31.35 25.2801C31.4749 25.2187 31.6167 25.2012 31.7527 25.2302C31.8888 25.2592 32.0111 25.3331 32.1 25.44C32.2382 25.6325 32.3651 25.8328 32.48 26.04C32.5129 26.0481 32.5472 26.0481 32.58 26.04C33.27 25.94 33.4 26.0401 33.74 26.5801C34.177 27.2631 34.4413 28.0421 34.5101 28.85C34.5357 29.1398 34.5052 29.4319 34.4201 29.7101C34.3918 29.8413 34.3258 29.9615 34.2302 30.0558C34.1346 30.1501 34.0135 30.2145 33.8819 30.2411C33.7503 30.2676 33.6137 30.2552 33.4891 30.2052C33.3644 30.1553 33.2571 30.0701 33.1801 29.9601L33.0001 29.8301ZM33.0001 29.18H33.1V28.88H33.0001V29.18Z" fill="black"/>
<path id="Vector_9" opacity="0.82" d="M74.2901 26.2801C74.2074 26.1877 74.1537 26.0729 74.1359 25.9501C74.1181 25.8274 74.1369 25.7022 74.19 25.5901C74.2426 25.4705 74.3323 25.371 74.4457 25.3062C74.5591 25.2414 74.6903 25.2147 74.82 25.23C75.0313 25.2346 75.2413 25.1961 75.4373 25.1171C75.6333 25.038 75.8111 24.92 75.96 24.7701C76.0881 24.6843 76.1963 24.5721 76.2774 24.441C76.3585 24.3099 76.4105 24.163 76.4301 24.0101C76.4372 23.8602 76.4992 23.7182 76.6043 23.6112C76.7095 23.5042 76.8504 23.4397 77.0001 23.4301C77.1575 23.4234 77.3124 23.4716 77.4383 23.5664C77.5641 23.6613 77.6531 23.7969 77.69 23.9501C77.7465 24.1056 77.767 24.272 77.7497 24.4366C77.7324 24.6012 77.6777 24.7597 77.59 24.9001C77.3481 25.3136 77.0233 25.6727 76.6362 25.9549C76.249 26.2371 75.8077 26.4363 75.34 26.54C75.1585 26.602 74.9631 26.6104 74.7769 26.5643C74.5907 26.5182 74.4218 26.4196 74.2901 26.2801Z" fill="black"/>
<path id="Vector_10" opacity="0.82" d="M6.42004 52.85C6.64248 52.8218 6.86753 52.8218 7.08997 52.85C7.20922 52.8729 7.31699 52.9361 7.39526 53.0289C7.47354 53.1218 7.51761 53.2386 7.52002 53.36C7.58002 54.03 7.64003 54.71 7.66003 55.36C7.67408 55.4512 7.66908 55.5443 7.64551 55.6334C7.62193 55.7226 7.58021 55.8058 7.52295 55.8781C7.46569 55.9504 7.39413 56.0101 7.31274 56.0535C7.23136 56.0968 7.14198 56.1229 7.05005 56.1301C6.68005 56.1301 6.39998 55.9001 6.34998 55.4401C6.27354 54.8628 6.2268 54.2821 6.20996 53.7001C6.24142 53.4086 6.31214 53.1226 6.42004 52.85Z" fill="black"/>
<path id="Vector_11" opacity="0.82" d="M8.47998 59C8.07859 58.3011 7.92701 57.4865 8.05005 56.69C8.08138 56.5338 8.16895 56.3946 8.29614 56.2988C8.42334 56.2029 8.58124 56.1571 8.73999 56.17C8.89826 56.1826 9.0459 56.2545 9.15344 56.3713C9.26098 56.4882 9.32045 56.6412 9.31995 56.8C9.33719 57.3506 9.44538 57.8946 9.64001 58.41C9.70778 58.5639 9.71223 58.7384 9.65234 58.8956C9.59246 59.0528 9.47298 59.1801 9.31995 59.25C9.17265 59.3121 9.00843 59.3211 8.85522 59.2755C8.70202 59.2299 8.56936 59.1325 8.47998 59Z" fill="black"/>
<path id="Vector_12" opacity="0.82" d="M79.5 59.0001C79.4709 58.828 79.4709 58.6522 79.5 58.48C79.6 57.98 79.74 57.4801 79.89 56.9901C79.9139 56.8216 80.0037 56.6696 80.1396 56.5674C80.2756 56.4652 80.4465 56.4212 80.615 56.4451C80.7834 56.4689 80.9354 56.5587 81.0376 56.6947C81.1398 56.8307 81.1839 57.0016 81.16 57.17C81.1402 57.7977 80.9795 58.4128 80.6899 58.97C80.639 59.0836 80.5571 59.1804 80.4535 59.2494C80.3499 59.3183 80.2289 59.3566 80.1045 59.3597C79.98 59.3629 79.8573 59.3307 79.7503 59.2671C79.6434 59.2035 79.5566 59.1109 79.5 59.0001Z" fill="black"/>
<path id="Vector_13" opacity="0.82" d="M33 29.18V28.89H33.0699V29.19L33 29.18Z" fill="white"/>
<path id="Vector_14" opacity="0.82" d="M59.62 9.57002C59.4915 9.6375 59.3577 9.69434 59.2199 9.74C58.6228 9.92105 58.015 10.0647 57.4 10.17C55.89 10.39 54.3999 10.58 52.8499 10.73C51.0315 10.8618 49.2037 10.7372 47.42 10.36L45.31 9.96C43.8811 9.67736 42.5047 9.17473 41.2299 8.47001C41.0788 8.40272 40.9376 8.31525 40.81 8.21C40.6628 8.11363 40.5585 7.96394 40.5194 7.79237C40.4802 7.6208 40.5091 7.44074 40.5999 7.29002C40.6467 7.21589 40.7077 7.1518 40.7795 7.10151C40.8513 7.05122 40.9324 7.01573 41.018 6.99711C41.1037 6.97849 41.1921 6.97713 41.2783 6.99308C41.3645 7.00903 41.4467 7.04197 41.52 7.09001L42.75 7.72001C43.56 8.12227 44.4214 8.41161 45.31 8.58C46.43 8.79 47.54 9.01002 48.67 9.20002C50.2123 9.46635 51.7844 9.51346 53.3399 9.34001C54.6799 9.19001 56.0099 9.02 57.3399 8.83C57.8199 8.76 58.34 8.6 58.78 8.49C58.9557 8.43973 59.1372 8.41284 59.3199 8.41001C59.442 8.41268 59.5598 8.45517 59.6555 8.53099C59.7512 8.6068 59.8194 8.71179 59.8499 8.83C59.8945 8.96184 59.8962 9.10441 59.8549 9.23731C59.8136 9.37022 59.7314 9.48668 59.62 9.57002Z" fill="black"/>
<path id="Vector_15" opacity="0.82" d="M39.2601 5.92001C41.8401 9.09001 45.9501 9.61998 49.7801 9.82998C53.6101 10.04 57.78 10.19 60.72 7.29998C61.34 6.67998 60.46 5.61998 59.83 6.23998C57.18 8.86998 53.3401 8.64 49.9001 8.45C46.4601 8.26 42.65 7.90999 40.32 5.02999C40.202 4.88943 40.033 4.80152 39.8502 4.78558C39.6673 4.76964 39.4856 4.82698 39.345 4.945C39.2045 5.06302 39.1166 5.23203 39.1006 5.41488C39.0847 5.59773 39.142 5.77944 39.2601 5.92001Z" fill="url(#paint6_linear_343_7029)"/>
<path id="Vector_16" opacity="0.82" d="M42.48 5.48004C44.0348 6.35018 45.7252 6.95195 47.48 7.26004C49.9778 7.88236 52.5806 7.95741 55.11 7.48004C55.98 7.29004 55.7501 5.93002 54.8801 6.12002C52.5228 6.56554 50.0969 6.4939 47.7701 5.91003C46.2073 5.63513 44.7005 5.10469 43.3101 4.34002C42.5701 3.86002 41.7801 4.99004 42.5301 5.48004H42.48Z" fill="url(#paint7_linear_343_7029)"/>
<path id="Vector_17" opacity="0.82" d="M58.73 63.62C57.08 61.55 57.63 57.7 58.91 55.62C59.5574 54.4314 60.4647 53.404 61.5641 52.6145C62.6635 51.825 63.9268 51.2937 65.26 51.06C71.15 50.31 78.26 56.58 75 62.68C74.17 64.22 76.43 65.82 77.27 64.25C80.52 58.25 76.66 51.25 70.55 49.01C69.1016 48.4593 67.5555 48.2115 66.0074 48.282C64.4594 48.3525 62.9424 48.7398 61.55 49.42C58.9771 50.7373 56.9617 52.9336 55.87 55.61C54.64 58.61 54.57 62.84 56.64 65.44C57.75 66.83 59.86 65.06 58.75 63.67L58.73 63.62Z" fill="url(#paint8_linear_343_7029)"/>
<path id="Vector_18" opacity="0.82" d="M8.57998 22.45L6.04007 23.37C5.85324 23.4241 5.68466 23.5281 5.55252 23.6709C5.42037 23.8136 5.32965 23.9896 5.29007 24.18C5.23676 24.3723 5.1595 24.557 5.06009 24.73C4.57009 25.73 4.06001 26.73 3.61001 27.73C1.87791 31.5434 0.922726 35.6635 0.800077 39.85C0.740381 40.4323 0.817776 41.0205 1.02615 41.5675C1.23453 42.1144 1.56805 42.605 2.00003 43C2.12897 43.1143 2.22619 43.26 2.28225 43.4229C2.33832 43.5859 2.35128 43.7606 2.31997 43.93C1.50233 54.7781 4.33597 65.588 10.37 74.64C11.9536 77.0593 13.7258 79.3498 15.6701 81.49C15.8414 81.656 15.9745 81.8573 16.0601 82.08C16.8315 84.124 18.1243 85.9304 19.8101 87.32C21.6084 88.8487 23.6323 90.09 25.8101 91C26.0801 91.12 26.33 91.28 26.6 91.39C26.7672 91.4936 26.9651 91.536 27.1601 91.51C27.3633 91.447 27.5793 91.4368 27.7875 91.4805C27.9958 91.5243 28.1893 91.6205 28.35 91.76C32.0221 93.9391 35.9351 95.6842 40.01 96.96C42.0974 97.6248 44.2251 98.1558 46.38 98.55C46.5438 98.5681 46.7018 98.6213 46.8433 98.7058C46.9848 98.7904 47.1064 98.9043 47.2 99.04C47.54 99.52 47.92 99.97 48.26 100.45C48.6 100.93 48.75 101.19 48.97 101.56C49.1058 101.837 49.3341 102.057 49.6154 102.183C49.8967 102.309 50.2132 102.333 50.51 102.25C50.8696 102.166 51.2334 102.103 51.6 102.06C52.78 101.91 53.9701 101.74 55.1601 101.65C56.3501 101.56 57.5801 101.58 58.8001 101.54C60.4373 101.434 62.0805 101.607 63.6601 102.05C63.9252 102.128 64.196 102.185 64.47 102.22C65.32 102.33 65.72 102 65.87 101.14C65.9698 100.697 66.1035 100.262 66.2701 99.84C66.4 99.49 66.61 99.18 66.72 98.84C66.753 98.6897 66.8326 98.5536 66.9475 98.4512C67.0625 98.3488 67.2069 98.2854 67.36 98.27C69.2139 97.8763 71.0409 97.3652 72.83 96.74C80.8816 94.0152 88.0172 89.1058 93.44 82.56C98.0508 77.0178 101.212 70.4166 102.64 63.35C102.89 62.12 103.07 60.88 103.24 59.64C103.3 59.28 103.44 59.06 103.79 58.99C104.078 58.9313 104.368 58.8879 104.66 58.86C104.954 58.8537 105.238 58.7531 105.47 58.5731C105.703 58.393 105.871 58.143 105.95 57.86C106.274 56.8951 106.37 55.8682 106.23 54.86C106.06 53.68 105.97 52.48 105.85 51.29C105.78 50.58 105.73 49.86 105.64 49.15C105.343 47.0687 105.367 44.9542 105.71 42.88C105.82 42.21 105.89 41.54 105.97 40.88C106.024 40.6911 106.032 40.4918 105.992 40.2993C105.952 40.1069 105.866 39.9271 105.741 39.7754C105.616 39.6238 105.456 39.5048 105.274 39.429C105.093 39.3531 104.896 39.3226 104.7 39.34C104.202 39.3005 103.723 39.1315 103.31 38.85L102.51 38.26C101.98 37.87 101.51 37.48 100.73 37.82C100.64 37.62 100.57 37.47 100.51 37.32C97.6386 29.6452 93.012 22.7482 87 17.18C81.3295 11.8624 74.5942 7.80965 67.24 5.29003C65.4 4.66003 63.5 4.19001 61.63 3.65001C61.42 3.59001 61.19 3.65 61.07 3.36C60.7699 2.82385 60.2979 2.40461 59.73 2.17003C58.6592 1.63473 57.5178 1.25426 56.34 1.04003C53.0838 0.407566 49.7578 0.212494 46.45 0.46001C45.0543 0.57233 43.6811 0.878612 42.37 1.37001C41.7177 1.55784 41.1207 1.90097 40.63 2.37001C40.42 2.60001 40.23 2.83001 39.86 2.80001C39.8061 2.80212 39.7533 2.81569 39.705 2.83983C39.6567 2.86397 39.614 2.89814 39.58 2.94002C39.4684 3.06404 39.333 3.16428 39.1818 3.23473C39.0306 3.30518 38.8667 3.34439 38.7 3.35002C32.6527 4.62418 26.9101 7.05912 21.7901 10.52C17.4588 13.4324 13.6743 17.0849 10.61 21.31C10.26 21.81 9.93002 22.24 9.24002 22.23C9.0084 22.2623 8.78466 22.3369 8.57998 22.45ZM18 78C18.086 77.8988 18.1914 77.8157 18.3098 77.7556C18.4283 77.6955 18.5575 77.6596 18.69 77.65C19.9913 77.3934 21.3334 77.4275 22.62 77.75C24.4492 78.2561 26.1824 79.0602 27.75 80.13C27.8079 80.1713 27.8615 80.2182 27.9101 80.27C26.7901 79.79 25.6901 79.27 24.5601 78.86C23.7159 78.5502 22.8544 78.2898 21.98 78.08C20.6842 77.6988 19.3101 77.6711 18 78ZM29.7901 90C29.5746 89.9862 29.367 89.9136 29.19 89.79C27.1353 88.5742 25.1674 87.2176 23.3001 85.73C21.3293 84.159 19.4714 82.4515 17.74 80.62C17.6515 80.5314 17.568 80.438 17.49 80.34C17.4555 80.2874 17.4286 80.2301 17.4101 80.17C17.5339 79.9556 17.7024 79.7705 17.9043 79.6272C18.1063 79.484 18.3367 79.386 18.58 79.34C19.0079 79.2479 19.4428 79.191 19.88 79.17C20.0461 79.1506 20.2139 79.1506 20.38 79.17C24.0024 79.6107 27.3792 81.2307 29.99 83.78C30.6182 84.4033 31.1386 85.1264 31.5301 85.92C31.8318 86.513 31.9699 87.1759 31.9301 87.84C31.8758 88.3844 31.6385 88.8944 31.2571 89.2866C30.8757 89.6789 30.3726 89.9304 29.83 90H29.7901ZM32.08 90.45C33.01 89.39 33.01 89.39 33.39 87.45C33.85 88.88 33.27 90.21 32.12 90.46L32.08 90.45ZM103.84 41.34C103.84 41.53 103.78 41.8 103.73 42.07C103.29 44.685 103.29 47.355 103.73 49.97C103.81 50.52 103.8 51.07 103.86 51.62C103.98 52.79 104.13 53.96 104.24 55.13C104.285 55.5288 104.285 55.9313 104.24 56.33C104.24 56.85 104.14 56.86 103.49 56.88C103.825 51.2057 103.148 45.5171 101.49 40.08L103.84 41.34ZM44 2.30001C45.1299 1.96329 46.3011 1.78492 47.48 1.77001C50.0316 1.67126 52.5867 1.81861 55.11 2.21001C55.8699 2.34166 56.6213 2.51864 57.36 2.74001C61.05 4.35001 58.47 5.83003 58.13 6.01003C57.0714 6.56629 55.9245 6.93507 54.74 7.10002C51.0815 7.6259 47.3496 7.23414 43.88 5.96001C43.4205 5.77864 42.9729 5.56821 42.5401 5.33C42.38 5.2371 42.2262 5.13353 42.08 5.02001C40.06 4.00001 43.12 2.60001 44 2.30001ZM33.59 7.00002C34.93 6.53002 36.3001 6.18003 37.6601 5.79003C37.8501 5.73003 38.0501 5.70001 38.2801 5.65001C38.2801 5.81001 38.21 5.91001 38.19 6.02001C38.1576 6.14632 38.1652 6.27959 38.2118 6.40139C38.2584 6.52318 38.3416 6.62753 38.45 6.70003C38.5538 6.77792 38.6803 6.82003 38.8101 6.82003C38.9399 6.82003 39.0662 6.77792 39.1701 6.70003C39.5304 6.46522 39.8655 6.19378 40.1701 5.89003C40.5701 5.47003 40.56 5.45003 41 5.82003C41.7273 6.41295 42.5532 6.87328 43.44 7.18001C47.1679 8.56652 51.1871 8.98291 55.12 8.39003C56.5829 8.18769 57.9906 7.69467 59.26 6.94002C59.71 6.67002 60.12 6.33002 60.59 5.94002C60.65 6.03002 60.7401 6.12002 60.8001 6.22002C61.3596 7.06323 62.1232 7.75123 63.02 8.22002C63.163 8.30154 63.3184 8.35898 63.48 8.39003C63.6283 8.42135 63.783 8.39983 63.9171 8.32921C64.0513 8.2586 64.1565 8.14331 64.2146 8.00331C64.2728 7.86331 64.2802 7.70741 64.2355 7.56255C64.1908 7.41769 64.0969 7.29297 63.97 7.21001C63.68 7.01001 63.37 6.85003 63.09 6.64003C62.8124 6.44411 62.5721 6.2003 62.38 5.92003C62.5114 5.92947 62.6419 5.94953 62.77 5.98003C66.8681 7.05463 70.8229 8.61572 74.5501 10.63C78.3698 12.6975 81.9255 15.2192 85.14 18.14C87.9156 20.671 90.41 23.494 92.58 26.56C95.3224 30.3975 97.4887 34.6155 99.01 39.08C102.01 47.5582 102.359 56.7488 100.01 65.43C98.3388 71.5897 95.2576 77.2762 91.01 82.04C84.7512 89.1393 76.3819 94.0459 67.13 96.04C62.2591 97.1459 57.2452 97.4833 52.27 97.04C51.97 97.04 51.68 96.97 51.39 96.94C51.1 96.91 51.1 96.94 50.95 96.94C50.6569 96.9122 50.3649 97.0019 50.138 97.1894C49.911 97.3769 49.7679 97.647 49.74 97.94C49.7263 98.084 49.7414 98.2294 49.7845 98.3675C49.8275 98.5056 49.8975 98.6338 49.9906 98.7446C50.0837 98.8553 50.1979 98.9465 50.3266 99.0126C50.4552 99.0788 50.5958 99.1187 50.74 99.13C51.1048 99.1799 51.472 99.2099 51.84 99.22C56.1547 99.5755 60.4967 99.4043 64.77 98.71C64.93 98.71 65.0901 98.71 65.3101 98.65C65.1301 99.04 64.96 99.36 64.83 99.65C64.7 99.94 64.62 100.31 64.51 100.65C64.3447 100.627 64.181 100.594 64.02 100.55C62.3518 100.087 60.6182 99.9043 58.89 100.01C57.64 100.01 56.39 100.09 55.14 100.11C53.7426 100.183 52.3523 100.357 50.98 100.63L50.26 100.75L49.87 100.19C49.46 99.6 49.06 99.01 48.63 98.43C48.5441 98.3394 48.4819 98.2291 48.4488 98.1088C48.4156 97.9884 48.4125 97.8618 48.44 97.74C48.5008 97.4856 48.4595 97.2174 48.3249 96.9931C48.1903 96.7687 47.9731 96.6061 47.72 96.54C47.4381 96.4566 47.1508 96.3931 46.86 96.35C42.3633 95.513 37.9937 94.0979 33.86 92.14C33.55 92 33.24 91.84 32.86 91.64C33.11 91.47 33.2701 91.39 33.4101 91.27C34.0044 90.9034 34.5154 90.4162 34.9101 89.84C35.025 89.6518 35.1869 89.4967 35.38 89.39C36.3207 88.7784 37.3589 88.332 38.45 88.07C38.617 88.0501 38.7704 87.968 38.8797 87.8402C38.989 87.7123 39.0463 87.5481 39.0401 87.38C39.0297 87.212 38.9536 87.0548 38.8282 86.9425C38.7027 86.8302 38.5382 86.7718 38.37 86.78C38.0943 86.7727 37.8197 86.8167 37.5601 86.91C36.8701 87.17 36.2001 87.48 35.5601 87.77L35.0501 88.01C35.0144 87.9333 34.9874 87.8528 34.97 87.77C34.7279 85.4923 33.6989 83.3704 32.0601 81.77C29.777 79.4235 26.9652 77.6576 23.86 76.62C22.3387 76.1087 20.7186 75.9614 19.13 76.19L18.58 76.25H18.38C18.44 76.1183 18.4869 75.981 18.52 75.84C18.52 74.8334 18.54 73.8334 18.58 72.84C18.5776 72.6932 18.5506 72.5478 18.5 72.41C18.4663 72.2553 18.3755 72.119 18.2458 72.0282C18.116 71.9374 17.957 71.8988 17.8001 71.92C17.6446 71.9396 17.5016 72.0156 17.3983 72.1336C17.2951 72.2515 17.2388 72.4033 17.24 72.56C17.24 72.71 17.24 72.86 17.24 73C17.24 73.77 17.24 74.55 17.24 75.32C17.2238 75.9144 16.9929 76.4827 16.59 76.92C16.4733 77.0597 16.3819 77.2188 16.32 77.39C16.19 77.67 16.09 77.96 15.94 78.39C15.75 78.19 15.62 78.06 15.5 77.91C12.4646 74.2296 9.97562 70.1308 8.11001 65.74C5.01174 58.5929 3.80968 50.7675 4.62002 43.02C5.46506 34.526 8.90009 26.4969 14.46 20.02C19.5489 14.0377 26.1579 9.53951 33.59 7.00002ZM7.00003 24.41C7.61003 24.2 8.21009 23.97 8.81009 23.75L8.89004 23.85C5.55964 29.1896 3.39886 35.1744 2.55008 41.41H2.43008C2.34654 41.2836 2.28243 41.1454 2.24002 41C2.1669 40.5102 2.13349 40.0153 2.14004 39.52C2.30797 35.5266 3.28074 31.6083 5.00003 28C5.48003 27 6.00004 26 6.51004 24.94C6.55017 24.8224 6.61449 24.7144 6.69888 24.6231C6.78328 24.5318 6.88587 24.4592 7.00003 24.41Z" fill="black"/>
<path id="Vector_19" opacity="0.82" d="M74.59 53.75C75.3619 54.6342 75.9447 55.667 76.3024 56.7849C76.6601 57.9028 76.7853 59.082 76.6701 60.25C76.4249 62.7992 75.3335 65.193 73.57 67.05C72.3439 68.4613 70.7469 69.5006 68.96 70.05C68.3064 70.2232 67.6357 70.3238 66.96 70.35C66.3511 70.3866 65.7452 70.2403 65.22 69.93C65.07 69.8579 64.9319 69.7635 64.8101 69.6501C64.699 69.5517 64.6275 69.4162 64.6091 69.2689C64.5906 69.1216 64.6265 68.9727 64.71 68.85C64.7804 68.7162 64.9004 68.6152 65.0442 68.5685C65.1881 68.5218 65.3444 68.5331 65.48 68.6C67.17 69.52 68.7301 68.92 70.1701 68.06C71.5848 67.2724 72.7882 66.1545 73.6779 64.8017C74.5676 63.4488 75.1172 61.901 75.2801 60.29C75.4519 58.9832 75.2632 57.6544 74.7344 56.4471C74.2057 55.2398 73.357 54.1999 72.2801 53.4401C70.9165 52.3885 69.2771 51.7551 67.5607 51.6166C65.8443 51.4782 64.1245 51.8406 62.61 52.66C61.5841 53.2173 60.7431 54.0619 60.19 55.0901C59.2509 56.7075 58.7995 58.5619 58.8901 60.43C58.9501 61.18 58.9801 61.93 59.0201 62.6901C59.0389 62.7755 59.0403 62.8639 59.0242 62.95C59.0081 63.036 58.9748 63.1179 58.9262 63.1908C58.8776 63.2636 58.8148 63.3259 58.7416 63.3739C58.6684 63.4219 58.5862 63.4546 58.5 63.47C58.3255 63.4999 58.1461 63.4616 57.9991 63.363C57.852 63.2643 57.7485 63.1129 57.71 62.9401C57.6631 62.7636 57.6363 62.5825 57.63 62.4001C57.63 61.5201 57.5401 60.64 57.5501 59.75C57.5772 57.5074 58.3044 55.3292 59.63 53.5201C60.4616 52.3478 61.6405 51.4663 63 51C64.6867 50.3055 66.529 50.0773 68.3342 50.3395C70.1393 50.6016 71.8407 51.3444 73.2601 52.49C73.5072 52.6806 73.741 52.8878 73.96 53.11C74.23 53.34 74.44 53.6 74.59 53.75Z" fill="black"/>
<path id="Vector_20" opacity="0.82" d="M57.0999 68.34C56.0044 67.0462 55.179 65.5462 54.6723 63.9283C54.1657 62.3105 53.9881 60.6076 54.15 58.92C54.3214 56.8891 55.0904 54.9544 56.3599 53.36C56.4549 53.2268 56.5695 53.1088 56.6999 53.01C56.8158 52.9158 56.9606 52.8644 57.1099 52.8644C57.2593 52.8644 57.4041 52.9158 57.52 53.01C57.6219 53.1047 57.6913 53.2292 57.7182 53.3657C57.7451 53.5022 57.7283 53.6437 57.67 53.77C57.6191 53.8888 57.5517 53.9999 57.4699 54.1C56.6347 55.1356 56.0312 56.3383 55.7 57.6268C55.3688 58.9154 55.3177 60.26 55.55 61.57C55.8061 63.7345 56.6866 65.7778 58.0841 67.4504C59.4815 69.1231 61.3355 70.353 63.42 70.99C64.5731 71.3925 65.7985 71.5463 67.0153 71.4412C68.2322 71.336 69.4129 70.9744 70.4799 70.38C71.4351 69.8604 72.2779 69.1569 72.9599 68.31C73.0671 68.1596 73.1913 68.0221 73.3299 67.9C73.4333 67.7674 73.5852 67.6813 73.7521 67.6607C73.9191 67.6401 74.0873 67.6865 74.2199 67.79C74.3525 67.8934 74.4387 68.0453 74.4593 68.2122C74.4799 68.3791 74.4333 68.5474 74.3299 68.68C74.2553 68.8286 74.1612 68.9665 74.05 69.09C72.9466 70.4852 71.4836 71.5529 69.8184 72.1785C68.1533 72.804 66.349 72.9636 64.5999 72.64C61.6541 72.1837 58.982 70.6517 57.0999 68.34Z" fill="black"/>
</g>
<defs>
<linearGradient id="paint0_linear_343_7029" x1="17719.4" y1="-98165.9" x2="17570.7" y2="-98344.9" gradientUnits="userSpaceOnUse">
<stop stop-color="#504095"/>
<stop offset="0.06" stop-color="#564195"/>
<stop offset="0.13" stop-color="#684393"/>
<stop offset="0.22" stop-color="#854792"/>
<stop offset="0.32" stop-color="#AD4C8F"/>
<stop offset="0.42" stop-color="#E0538B"/>
<stop offset="0.44" stop-color="#E7548B"/>
<stop offset="0.58" stop-color="#D67DA6"/>
<stop offset="0.77" stop-color="#C1B0C8"/>
<stop offset="0.92" stop-color="#B4D0DD"/>
<stop offset="1" stop-color="#AFDCE5"/>
</linearGradient>
<linearGradient id="paint1_linear_343_7029" x1="-25798.5" y1="-96960.4" x2="-25977.5" y2="-97175.8" gradientUnits="userSpaceOnUse">
<stop stop-color="#504095"/>
<stop offset="0.06" stop-color="#564195"/>
<stop offset="0.13" stop-color="#684393"/>
<stop offset="0.22" stop-color="#854792"/>
<stop offset="0.32" stop-color="#AD4C8F"/>
<stop offset="0.42" stop-color="#E0538B"/>
<stop offset="0.44" stop-color="#E7548B"/>
<stop offset="0.58" stop-color="#D67DA6"/>
<stop offset="0.77" stop-color="#C1B0C8"/>
<stop offset="0.92" stop-color="#B4D0DD"/>
<stop offset="1" stop-color="#AFDCE5"/>
</linearGradient>
<linearGradient id="paint2_linear_343_7029" x1="278641" y1="-811190" x2="272543" y2="-818526" gradientUnits="userSpaceOnUse">
<stop stop-color="#504095"/>
<stop offset="0.06" stop-color="#564195"/>
<stop offset="0.13" stop-color="#684393"/>
<stop offset="0.22" stop-color="#854792"/>
<stop offset="0.32" stop-color="#AD4C8F"/>
<stop offset="0.42" stop-color="#E0538B"/>
<stop offset="0.44" stop-color="#E7548B"/>
<stop offset="0.58" stop-color="#D67DA6"/>
<stop offset="0.77" stop-color="#C1B0C8"/>
<stop offset="0.92" stop-color="#B4D0DD"/>
<stop offset="1" stop-color="#AFDCE5"/>
</linearGradient>
<linearGradient id="paint3_linear_343_7029" x1="81387" y1="-104532" x2="81342.8" y2="-104585" gradientUnits="userSpaceOnUse">
<stop stop-color="#504095"/>
<stop offset="0.06" stop-color="#564195"/>
<stop offset="0.13" stop-color="#684393"/>
<stop offset="0.22" stop-color="#854792"/>
<stop offset="0.32" stop-color="#AD4C8F"/>
<stop offset="0.42" stop-color="#E0538B"/>
<stop offset="0.44" stop-color="#E7548B"/>
<stop offset="0.58" stop-color="#D67DA6"/>
<stop offset="0.77" stop-color="#C1B0C8"/>
<stop offset="0.92" stop-color="#B4D0DD"/>
<stop offset="1" stop-color="#AFDCE5"/>
</linearGradient>
<linearGradient id="paint4_linear_343_7029" x1="-16328.6" y1="-42191.3" x2="-16380.3" y2="-42253.4" gradientUnits="userSpaceOnUse">
<stop stop-color="#504095"/>
<stop offset="0.06" stop-color="#564195"/>
<stop offset="0.13" stop-color="#684393"/>
<stop offset="0.22" stop-color="#854792"/>
<stop offset="0.32" stop-color="#AD4C8F"/>
<stop offset="0.42" stop-color="#E0538B"/>
<stop offset="0.44" stop-color="#E7548B"/>
<stop offset="0.58" stop-color="#D67DA6"/>
<stop offset="0.77" stop-color="#C1B0C8"/>
<stop offset="0.92" stop-color="#B4D0DD"/>
<stop offset="1" stop-color="#AFDCE5"/>
</linearGradient>
<linearGradient id="paint5_linear_343_7029" x1="10195.9" y1="-12839.3" x2="10194.3" y2="-12841.2" gradientUnits="userSpaceOnUse">
<stop stop-color="#504095"/>
<stop offset="0.06" stop-color="#564195"/>
<stop offset="0.13" stop-color="#684393"/>
<stop offset="0.22" stop-color="#854792"/>
<stop offset="0.32" stop-color="#AD4C8F"/>
<stop offset="0.42" stop-color="#E0538B"/>
<stop offset="0.44" stop-color="#E7548B"/>
<stop offset="0.58" stop-color="#D67DA6"/>
<stop offset="0.77" stop-color="#C1B0C8"/>
<stop offset="0.92" stop-color="#B4D0DD"/>
<stop offset="1" stop-color="#AFDCE5"/>
</linearGradient>
<linearGradient id="paint6_linear_343_7029" x1="-38052.2" y1="-97268.3" x2="-38269.1" y2="-97529.2" gradientUnits="userSpaceOnUse">
<stop stop-color="#504095"/>
<stop offset="0.06" stop-color="#564195"/>
<stop offset="0.13" stop-color="#684393"/>
<stop offset="0.22" stop-color="#854792"/>
<stop offset="0.32" stop-color="#AD4C8F"/>
<stop offset="0.42" stop-color="#E0538B"/>
<stop offset="0.44" stop-color="#E7548B"/>
<stop offset="0.58" stop-color="#D67DA6"/>
<stop offset="0.77" stop-color="#C1B0C8"/>
<stop offset="0.92" stop-color="#B4D0DD"/>
<stop offset="1" stop-color="#AFDCE5"/>
</linearGradient>
<linearGradient id="paint7_linear_343_7029" x1="-22359.4" y1="-59093.4" x2="-22450.1" y2="-59202.5" gradientUnits="userSpaceOnUse">
<stop stop-color="#504095"/>
<stop offset="0.06" stop-color="#564195"/>
<stop offset="0.13" stop-color="#684393"/>
<stop offset="0.22" stop-color="#854792"/>
<stop offset="0.32" stop-color="#AD4C8F"/>
<stop offset="0.42" stop-color="#E0538B"/>
<stop offset="0.44" stop-color="#E7548B"/>
<stop offset="0.58" stop-color="#D67DA6"/>
<stop offset="0.77" stop-color="#C1B0C8"/>
<stop offset="0.92" stop-color="#B4D0DD"/>
<stop offset="1" stop-color="#AFDCE5"/>
</linearGradient>
<linearGradient id="paint8_linear_343_7029" x1="32811.8" y1="-164379" x2="32483.4" y2="-164774" gradientUnits="userSpaceOnUse">
<stop stop-color="#504095"/>
<stop offset="0.06" stop-color="#564195"/>
<stop offset="0.13" stop-color="#684393"/>
<stop offset="0.22" stop-color="#854792"/>
<stop offset="0.32" stop-color="#AD4C8F"/>
<stop offset="0.42" stop-color="#E0538B"/>
<stop offset="0.44" stop-color="#E7548B"/>
<stop offset="0.58" stop-color="#D67DA6"/>
<stop offset="0.77" stop-color="#C1B0C8"/>
<stop offset="0.92" stop-color="#B4D0DD"/>
<stop offset="1" stop-color="#AFDCE5"/>
</linearGradient>
</defs>
</svg>
