<svg width="61" height="64" viewBox="0 0 61 64" fill="none" xmlns="http://www.w3.org/2000/svg">
<g id="bgStar6" opacity="0.91">
<path id="Vector" opacity="0.91" d="M37.1 16.49C39.6426 15.8742 42.2909 15.8366 44.85 16.38C47.85 17 50.85 17.68 53.75 18.5C55.3099 18.9229 56.8113 19.5375 58.22 20.3299C58.4136 20.4277 58.6142 20.5113 58.82 20.5799C59.1806 20.7008 59.5345 20.8411 59.88 21C59.9561 21.0339 60.0242 21.0832 60.0802 21.1449C60.1362 21.2066 60.1787 21.2792 60.205 21.3583C60.2313 21.4373 60.241 21.5209 60.2332 21.6039C60.2255 21.6868 60.2005 21.7672 60.16 21.84C58.5138 25.6989 56.6061 29.441 54.45 33.04C53.51 34.57 52.51 36.04 51.53 37.59C51.4367 37.7163 51.3706 37.8607 51.3362 38.0139C51.3017 38.1671 51.2997 38.3259 51.33 38.48C51.5732 40.0139 51.657 41.5688 51.58 43.12C51.49 45.64 51.34 48.1699 51.23 50.6999C51.15 52.4999 51.08 54.3 51.01 56.11C51.01 56.26 51.01 56.41 51.01 56.59L50.13 56.76C49.9962 56.6477 49.8693 56.5275 49.75 56.4C49.4351 56.0707 49.0327 55.8382 48.59 55.73C46.5715 55.0256 44.6444 54.0823 42.85 52.92C41.93 52.29 40.95 51.74 40 51.16L37.74 49.8L36 48.8L34.66 48.03C34.592 48.07 34.5283 48.117 34.47 48.17C31.29 51.5034 28.11 54.8367 24.93 58.17C24.02 59.17 23.15 60.17 22.26 61.1C22.1093 61.3235 21.8872 61.4891 21.63 61.5699C21.56 61.5699 21.49 61.68 21.47 61.75C21.4069 61.9172 21.2815 62.0534 21.12 62.13C20.9751 62.2085 20.8349 62.2953 20.7 62.39C20.6537 62.4294 20.5989 62.4575 20.5398 62.4719C20.4807 62.4864 20.4191 62.4869 20.3598 62.4733C20.3005 62.4596 20.2453 62.4324 20.1984 62.3937C20.1516 62.3549 20.1145 62.3057 20.09 62.25C19.76 61.74 19.43 61.25 19.09 60.73C19.0492 60.6509 18.9867 60.585 18.91 60.54C18.6466 60.4058 18.4355 60.1876 18.31 59.92C17.3746 58.4376 16.5875 56.8666 15.96 55.23C14.8944 52.62 13.9861 49.9485 13.24 47.23C12.5086 44.6173 12.0462 41.9367 11.86 39.23C11.865 39.1002 11.8263 38.9726 11.7502 38.8674C11.674 38.7623 11.5648 38.6857 11.44 38.65C9.57676 37.873 7.76035 36.9882 6 36C4.77691 35.3216 3.63033 34.5135 2.58001 33.59C2.32191 33.3619 2.07807 33.1181 1.84997 32.86C1.71643 32.708 1.60226 32.54 1.51001 32.36C1.45846 32.2567 1.43943 32.1403 1.4555 32.026C1.47157 31.9117 1.52195 31.805 1.59997 31.72C1.97997 31.24 2.36002 30.72 2.71002 30.27C3.61792 28.9009 4.77049 27.711 6.10998 26.76C7.71998 25.65 9.28997 24.47 10.91 23.37C11.74 22.81 12.63 22.37 13.51 21.86C13.7127 21.7553 13.8669 21.5761 13.94 21.36C14.26 20.36 14.58 19.46 14.94 18.51C15.76 16.29 16.59 14.06 17.6 11.9C19.0263 8.87254 20.7981 6.02024 22.88 3.40001C23.29 2.87001 23.75 2.39999 24.21 1.87999C24.4329 1.65669 24.6852 1.46496 24.96 1.31004C25.28 1.14004 25.42 1.22002 25.6 1.53002C25.6489 1.63261 25.7296 1.71674 25.83 1.77001C27.947 3.01571 29.8344 4.6156 31.41 6.49999C33.4172 8.90942 35.052 11.606 36.26 14.5L36.95 16.11C37 16.26 37 16.37 37.1 16.49ZM2.67999 32.35C2.67156 32.3725 2.67156 32.3975 2.67999 32.42L2.88 32.64C3.58084 33.3084 4.34432 33.9079 5.15997 34.43C6.36966 35.2256 7.64033 35.9244 8.96002 36.52C11.05 37.46 13.16 38.34 15.26 39.25C15.6344 39.4631 16.0391 39.6182 16.46 39.7099C16.495 39.7097 16.5296 39.7179 16.5608 39.7337C16.5921 39.7496 16.6191 39.7725 16.6396 39.8009C16.6602 39.8293 16.6736 39.8622 16.6789 39.8968C16.6842 39.9315 16.6811 39.9668 16.67 40C16.67 40.15 16.67 40.3099 16.67 40.4599C16.6796 40.543 16.6796 40.6269 16.67 40.7099C16.6243 40.8193 16.5908 40.9334 16.57 41.05C16.4131 43.4116 16.4867 45.7827 16.79 48.13C16.98 49.68 17.18 51.23 17.41 52.78C17.6103 54.2169 17.901 55.6397 18.28 57.04C18.6701 58.57 19.3714 60.0031 20.34 61.25L20.58 61.53L20.86 61.18C21.15 60.83 21.44 60.47 21.75 60.18C22.06 59.89 22.56 59.34 22.96 58.91C23.36 58.48 23.96 57.8399 24.44 57.3199L33.23 48.1L35.48 45.72C35.56 45.63 35.69 45.51 35.78 45.52C36.0835 45.5294 36.3822 45.5973 36.66 45.72C37.0626 45.959 37.4501 46.2229 37.82 46.51C38.74 47.16 39.64 47.85 40.58 48.51C43.71 50.63 46.79 52.8 49.72 55.18C49.83 55.27 49.92 55.3799 50.11 55.3199V54.72C50.2 52.72 50.3 50.72 50.39 48.72C50.48 46.72 50.58 44.72 50.64 42.72C50.687 41.4867 50.6234 40.2519 50.45 39.03C50.4287 38.8674 50.3742 38.7107 50.29 38.5699C50.242 38.5047 50.2162 38.4259 50.2162 38.345C50.2162 38.264 50.242 38.1852 50.29 38.12C50.45 37.77 50.6 37.42 50.75 37.12C50.7866 37.0219 50.8335 36.928 50.89 36.84C51.12 36.5 51.37 36.17 51.6 35.84C53.4274 33.161 55.0712 30.3612 56.52 27.4599C57.34 25.7399 58.18 24.02 59 22.31C59.07 22.16 59.12 22.01 59.19 21.81C58.9459 21.7073 58.6953 21.6204 58.44 21.55C57.44 21.35 56.44 21.14 55.37 20.99C53.4596 20.6839 51.5226 20.5767 49.59 20.67C47.2378 20.8163 44.8988 21.127 42.59 21.6C41.5139 21.7682 40.4889 22.1748 39.59 22.79C39.22 23.07 38.96 22.9999 38.73 22.5699C38.6 22.3299 38.49 22.07 38.38 21.81C37.33 19.4 36.29 16.9899 35.23 14.5799C34.0335 11.7669 32.4038 9.1586 30.4 6.84996C29.0659 5.34611 27.5276 4.03669 25.83 2.95995L25.44 2.74999C25.3577 2.89071 25.264 3.02451 25.16 3.15001C24.7995 3.49663 24.5225 3.92063 24.35 4.39C24.1 5.03 23.85 5.66993 23.65 6.31993C23.1009 8.19904 22.6997 10.1183 22.45 12.06C22 15.36 21.57 18.6599 21.14 21.9599C21 23.0199 20.91 24.08 20.79 25.14C20.7792 25.2539 20.7416 25.3635 20.68 25.4599C20.5985 25.6034 20.4863 25.7272 20.3515 25.8223C20.2167 25.9173 20.0625 25.9814 19.9 26.01C19.65 26.01 19.41 26.1299 19.16 26.1899C16.2254 26.8227 13.3332 27.6376 10.5 28.63C8.7 29.28 6.89997 29.93 5.15997 30.76C4.24531 31.1383 3.4055 31.6767 2.67999 32.35ZM19.84 24.22C19.84 24.06 19.9 23.9499 19.91 23.8299C20.11 22.2499 20.29 20.6599 20.5 19.0699C20.87 16.2699 21.24 13.4799 21.66 10.6899C21.955 8.45785 22.5157 6.26911 23.33 4.17003C23.3355 4.10014 23.3355 4.02984 23.33 3.95995L22.95 4.43004C21.1335 6.83368 19.5623 9.41318 18.26 12.13C17.16 14.47 16.26 16.89 15.38 19.31C15.11 20.06 14.85 20.81 14.61 21.51L14.99 22.18C15.51 22.33 16.09 22.48 16.65 22.67C17.2075 22.8494 17.7521 23.0664 18.28 23.3199C18.8148 23.5935 19.3355 23.8939 19.84 24.22ZM55.46 19.9399V19.88L55.22 19.77C54.72 19.6 54.22 19.39 53.71 19.26C51.85 18.78 49.99 18.3133 48.13 17.86C46.4826 17.4366 44.8135 17.1027 43.13 16.86C41.226 16.614 39.2928 16.7258 37.43 17.1899C37.9792 18.7123 38.6238 20.1987 39.36 21.64C40.2976 21.1323 41.3104 20.7778 42.36 20.59C43.77 20.27 45.21 20.09 46.64 19.91C49.1721 19.5502 51.7402 19.5199 54.28 19.8199L55.46 19.9399ZM13.86 22.51L13.64 22.61C12.64 23.21 11.64 23.77 10.72 24.4C9.79997 25.03 8.71997 25.8499 7.71997 26.5699L5.98999 27.8199C5.11402 28.4973 4.34539 29.3031 3.71002 30.2099L3.61999 30.39C6.1567 29.1112 8.79181 28.0379 11.5 27.18C14.2079 26.3084 16.958 25.574 19.74 24.98C19.34 24.74 19.01 24.52 18.67 24.34C18.2277 24.0669 17.7627 23.8328 17.28 23.64C16.39 23.32 15.46 23.07 14.56 22.79C14.3211 22.7112 14.0873 22.6177 13.86 22.51ZM12.53 39.16C12.97 45.39 14.94 51.0999 17.34 56.6999C16.34 51.3499 15.47 46 15.85 40.51L12.53 39.16ZM47.17 54.41L47.24 54.3199C47.15 54.2759 47.0631 54.2259 46.98 54.17C46.24 53.62 45.5 53.05 44.75 52.51C42.1433 50.6633 39.5267 48.82 36.9 46.98C36.6431 46.7929 36.3601 46.6447 36.06 46.54L35.13 47.48L36.03 48.02L38.49 49.47L39.8 50.26C40.94 50.95 42.1 51.61 43.21 52.34C44.3607 53.0861 45.5715 53.735 46.83 54.28L47.17 54.41Z" fill="black"/>
<path id="Vector_2" opacity="0.91" d="M2.67999 32.35C3.38329 31.6495 4.20625 31.0806 5.10999 30.67C6.84999 29.84 8.65001 29.19 10.45 28.54C13.2832 27.5477 16.1755 26.7327 19.11 26.1C19.36 26.04 19.6 25.97 19.85 25.92C20.0125 25.8915 20.1667 25.8274 20.3015 25.7323C20.4364 25.6372 20.5485 25.5135 20.63 25.37C20.6916 25.2736 20.7293 25.1639 20.74 25.05C20.86 23.99 20.95 22.93 21.09 21.87C21.52 18.57 21.95 15.27 22.4 11.97C22.6497 10.0283 23.0509 8.10909 23.6 6.22998C23.8 5.57998 24.05 4.94005 24.3 4.30005C24.4725 3.83068 24.7495 3.40668 25.11 3.06006C25.214 2.93455 25.3077 2.80075 25.39 2.66003L25.78 2.87C27.4777 3.94674 29.0159 5.25616 30.35 6.76001C32.3538 9.06865 33.9835 11.6769 35.18 14.49C36.24 16.9 37.28 19.31 38.33 21.72C38.44 21.98 38.55 22.24 38.68 22.48C38.91 22.91 39.17 22.98 39.54 22.7C40.4388 22.0847 41.4638 21.6782 42.54 21.51C44.8487 21.037 47.1878 20.7262 49.54 20.58C51.4725 20.4866 53.4096 20.5939 55.32 20.9C56.32 21.05 57.32 21.26 58.39 21.46C58.6454 21.5304 58.8959 21.6172 59.14 21.72C59.07 21.92 59.02 22.07 58.95 22.22C58.13 23.93 57.29 25.65 56.47 27.37C55.0212 30.2713 53.3774 33.071 51.55 35.75C51.32 36.1 51.07 36.43 50.84 36.75C50.7835 36.8381 50.7366 36.932 50.7 37.03C50.55 37.37 50.4 37.72 50.24 38.03C50.1921 38.0953 50.1662 38.1741 50.1662 38.255C50.1662 38.3359 50.1921 38.4148 50.24 38.48C50.3242 38.6208 50.3787 38.7773 50.4 38.9399C50.5734 40.1618 50.637 41.3968 50.59 42.63C50.53 44.63 50.43 46.63 50.34 48.63C50.25 50.63 50.15 52.63 50.06 54.63V55.23C49.87 55.29 49.78 55.23 49.67 55.09C46.74 52.71 43.67 50.54 40.53 48.42C39.59 47.79 38.69 47.1 37.77 46.42C37.4001 46.1329 37.0127 45.869 36.61 45.63C36.3322 45.5074 36.0334 45.4395 35.73 45.4301C35.64 45.4301 35.51 45.54 35.43 45.63L33.18 48.01L24.39 57.23C23.89 57.75 23.39 58.2999 22.91 58.8199C22.43 59.3399 22.09 59.66 21.7 60.09C21.31 60.52 21.1 60.78 20.81 61.09L20.53 61.4399L20.29 61.16C19.3213 59.9131 18.6201 58.4799 18.23 56.95C17.8509 55.5496 17.5604 54.1268 17.36 52.6899C17.13 51.1399 16.93 49.59 16.74 48.04C16.4367 45.6928 16.3631 43.3215 16.52 40.96C16.5408 40.8433 16.5743 40.7293 16.62 40.62C16.6296 40.5369 16.6296 40.4531 16.62 40.37C16.62 40.22 16.62 40.06 16.62 39.91C16.6311 39.8768 16.6342 39.8414 16.6289 39.8068C16.6236 39.7721 16.6101 39.7393 16.5896 39.7109C16.5691 39.6826 16.542 39.6595 16.5108 39.6437C16.4796 39.6279 16.445 39.6198 16.41 39.62C15.989 39.5282 15.5845 39.3732 15.21 39.16C13.11 38.25 11 37.3701 8.90997 36.4301C7.59028 35.8345 6.31968 35.1355 5.10999 34.34C4.29434 33.8178 3.53086 33.2185 2.83002 32.55L2.63 32.33C2.64819 32.3319 2.66547 32.3389 2.67999 32.35ZM30.36 34.35L29.9 34.49L26.59 35.38C26.5155 35.3953 26.442 35.4153 26.37 35.4399C26.3239 35.4516 26.2807 35.4723 26.2426 35.5007C26.2046 35.5292 26.1725 35.5649 26.1484 35.6058C26.1242 35.6467 26.1084 35.6921 26.1018 35.7391C26.0952 35.7862 26.098 35.834 26.11 35.88C26.1397 35.9658 26.2 36.0377 26.2793 36.0819C26.3586 36.1262 26.4513 36.1397 26.54 36.12L26.8 36.0601L28.45 35.61C29.38 35.35 30.31 35.08 31.23 34.8C31.4339 34.7348 31.6288 34.644 31.81 34.53C31.8555 34.513 31.8968 34.4864 31.9312 34.452C31.9655 34.4177 31.9922 34.3764 32.0092 34.3309C32.0263 34.2854 32.0333 34.2368 32.03 34.1884C32.0267 34.1399 32.0131 34.0928 31.99 34.05C31.9 33.88 31.73 33.8301 31.49 33.9301L31.19 34.05C31.0074 33.6728 30.9752 33.2401 31.1 32.84C31.35 32.78 31.57 32.74 31.79 32.67C32.01 32.6 32.16 32.41 32.11 32.22C32.06 32.03 31.88 31.94 31.62 31.99L31.17 32.08L26.88 32.72L25.75 32.91C25.51 32.91 25.39 33.1 25.41 33.29C25.4149 33.3374 25.4293 33.3834 25.4521 33.4252C25.475 33.467 25.5059 33.5038 25.5432 33.5336C25.5804 33.5633 25.6231 33.5854 25.6689 33.5985C25.7147 33.6116 25.7627 33.6155 25.81 33.61C25.94 33.61 26.07 33.61 26.19 33.61L29.84 33.03L30.29 32.97L30.36 34.35ZM23.84 20.46C23.8351 20.5098 23.8351 20.5601 23.84 20.61C23.84 20.87 23.99 21.03 24.19 21.03C24.39 21.03 24.5 20.9 24.53 20.65C24.56 20.4 24.53 20.19 24.53 19.96C24.61 18.66 24.65 17.35 24.78 16.04C25.04 13.44 25.4 10.85 25.89 8.27002C25.9166 8.18371 25.9097 8.09054 25.8708 8.00903C25.832 7.92753 25.7638 7.86359 25.68 7.82996C25.5964 7.79711 25.5033 7.79875 25.4208 7.83435C25.3384 7.86995 25.2734 7.93667 25.24 8.02002C25.1648 8.16674 25.1173 8.32605 25.1 8.48999C24.9 9.72332 24.71 10.9534 24.53 12.1801C24.1254 14.9227 23.8949 17.6882 23.84 20.46ZM40.76 32.75L40.31 32.89L38.38 33.49C38.2597 33.527 38.1452 33.5809 38.04 33.65C37.972 33.6881 37.9209 33.7505 37.8968 33.8246C37.8727 33.8987 37.8774 33.9792 37.91 34.05C37.9331 34.1241 37.9824 34.1873 38.0486 34.2278C38.1148 34.2683 38.1935 34.2832 38.27 34.27C38.3592 34.2573 38.4465 34.2337 38.53 34.2C39.394 33.8652 40.2881 33.6141 41.2 33.45C41.2732 33.4281 41.3436 33.3979 41.41 33.36C41.55 33.3 41.68 33.2399 41.83 33.1899L42.54 32.9399C42.671 32.8888 42.7852 32.8022 42.87 32.6899C42.8952 32.635 42.9082 32.5754 42.9082 32.515C42.9082 32.4546 42.8952 32.3949 42.87 32.34C42.8432 32.2736 42.792 32.2201 42.7269 32.1903C42.6618 32.1606 42.5878 32.1569 42.52 32.1801C42.4241 32.2096 42.3304 32.2464 42.24 32.29L41.51 32.53C41.4606 32.15 41.4775 31.7643 41.56 31.39C41.56 31.04 41.62 31.04 41.97 30.96C42.1191 30.9339 42.2661 30.8972 42.41 30.85C42.5034 30.8263 42.584 30.767 42.6344 30.6848C42.6848 30.6026 42.7012 30.5041 42.68 30.41C42.6503 30.3242 42.59 30.2524 42.5107 30.2081C42.4314 30.1639 42.3386 30.1503 42.25 30.17H42.07C41.67 30.24 41.27 30.3 40.87 30.39C40.06 30.55 39.25 30.72 38.45 30.9C38.1 30.98 37.97 31.16 38.03 31.39C38.09 31.62 38.28 31.69 38.62 31.61L40.52 31.1899C40.6233 31.184 40.7268 31.184 40.83 31.1899L40.76 32.75Z" fill="#C89458"/>
<path id="Vector_3" opacity="0.91" d="M19.84 24.22C19.3355 23.8939 18.8149 23.5935 18.28 23.3199C17.7521 23.0664 17.2075 22.8494 16.65 22.67C16.09 22.48 15.51 22.3301 14.99 22.1801L14.61 21.51C14.85 20.81 15.11 20.0601 15.38 19.3101C16.27 16.8901 17.16 14.47 18.26 12.13C19.5623 9.41319 21.1335 6.8337 22.95 4.43005L23.33 3.95996C23.3355 4.02985 23.3355 4.10015 23.33 4.17004C22.5157 6.26912 21.955 8.45786 21.66 10.6899C21.24 13.4799 20.87 16.2699 20.5 19.0699C20.29 20.6599 20.11 22.25 19.91 23.83C19.9 24 19.87 24.06 19.84 24.22Z" fill="#A3784C"/>
<path id="Vector_4" opacity="0.91" d="M55.46 19.9399L54.31 19.81C51.7701 19.5099 49.2021 19.5402 46.67 19.9C45.24 20.08 43.8 20.2599 42.39 20.5799C41.3404 20.7677 40.3276 21.1223 39.39 21.63C38.6539 20.1886 38.0093 18.7024 37.46 17.18C39.3229 16.7159 41.256 16.6039 43.16 16.8499C44.8435 17.0927 46.5126 17.4265 48.16 17.8499C50.02 18.2966 51.88 18.7633 53.74 19.25C54.25 19.38 54.74 19.59 55.25 19.76L55.49 19.87L55.46 19.9399Z" fill="#A3784C"/>
<path id="Vector_5" opacity="0.91" d="M13.86 22.51C14.0743 22.6162 14.2947 22.7097 14.52 22.79C15.42 23.07 16.35 23.32 17.24 23.64C17.7227 23.8328 18.1878 24.0669 18.63 24.34C18.97 24.52 19.3 24.74 19.7 24.98C16.918 25.574 14.1679 26.3084 11.46 27.1801C8.75183 28.0379 6.11673 29.1113 3.58002 30.39L3.66998 30.21C4.30536 29.3031 5.07405 28.4973 5.95001 27.8199L7.67999 26.5699C8.67999 25.8499 9.67999 25.09 10.68 24.4C11.68 23.71 12.62 23.21 13.6 22.61L13.86 22.51Z" fill="#A3784C"/>
<path id="Vector_6" opacity="0.91" d="M12.53 39.16L15.85 40.51C15.47 46 16.36 51.35 17.34 56.7C14.94 51.1 13 45.39 12.53 39.16Z" fill="#A3784C"/>
<path id="Vector_7" opacity="0.91" d="M47.17 54.41L46.83 54.28C45.5715 53.7351 44.3607 53.0861 43.21 52.34C42.1 51.61 40.94 50.95 39.8 50.26L38.49 49.47L36 48L35.1 47.46L36.03 46.52C36.3301 46.6247 36.6131 46.7729 36.87 46.96C39.49 48.8 42.1066 50.6433 44.72 52.49C45.47 53.03 46.21 53.6 46.95 54.15C47.0332 54.2059 47.12 54.256 47.21 54.3L47.17 54.41Z" fill="#A3784C"/>
<path id="Vector_8" opacity="0.91" d="M30.36 34.35L30.29 32.9399L29.84 33L26.19 33.58C26.07 33.58 25.94 33.58 25.81 33.58C25.7627 33.5855 25.7147 33.5816 25.6689 33.5685C25.6231 33.5554 25.5804 33.5333 25.5432 33.5035C25.5059 33.4738 25.475 33.437 25.4521 33.3951C25.4293 33.3533 25.4149 33.3074 25.41 33.26C25.41 33.07 25.51 32.93 25.75 32.88L26.88 32.6899L31.17 32.05L31.62 31.96C31.88 31.96 32.06 31.9599 32.11 32.1899C32.16 32.4199 32.05 32.55 31.79 32.64C31.53 32.73 31.35 32.7501 31.1 32.8101C30.9752 33.2102 31.0074 33.6428 31.19 34.02L31.49 33.9C31.73 33.8 31.9 33.9 31.99 34.02C32.0131 34.0628 32.0267 34.11 32.03 34.1584C32.0333 34.2069 32.0263 34.2554 32.0092 34.3009C31.9922 34.3464 31.9655 34.3878 31.9312 34.4221C31.8968 34.4565 31.8555 34.483 31.81 34.5C31.6288 34.614 31.4339 34.7047 31.23 34.77C30.31 35.05 29.38 35.32 28.45 35.58L26.8 36.03L26.54 36.09C26.4513 36.1097 26.3586 36.0961 26.2793 36.0519C26.2 36.0076 26.1397 35.9358 26.11 35.85C26.098 35.804 26.0952 35.7562 26.1018 35.7091C26.1084 35.6621 26.1242 35.6167 26.1484 35.5758C26.1725 35.5349 26.2046 35.4993 26.2426 35.4708C26.2807 35.4424 26.3239 35.4217 26.37 35.41C26.442 35.3854 26.5155 35.3653 26.59 35.35L29.9 34.46L30.36 34.35Z" fill="black"/>
<path id="Vector_9" opacity="0.91" d="M23.84 20.4599C23.9115 17.6871 24.1587 14.9216 24.58 12.18C24.76 10.9467 24.95 9.71662 25.15 8.48995C25.1674 8.32601 25.2148 8.1667 25.29 8.01998C25.3234 7.93663 25.3884 7.86991 25.4708 7.83431C25.5533 7.79871 25.6464 7.79707 25.73 7.82992C25.8138 7.86355 25.8819 7.92749 25.9208 8.00899C25.9597 8.0905 25.9666 8.18367 25.94 8.26998C25.45 10.85 25.09 13.44 24.83 16.04C24.7 17.35 24.66 18.6599 24.58 19.9599C24.58 20.1899 24.58 20.42 24.58 20.65C24.58 20.88 24.42 21.03 24.24 21.03C24.06 21.03 23.91 20.8699 23.89 20.6099C23.8682 20.5618 23.8514 20.5115 23.84 20.4599Z" fill="#DCCFBD"/>
<path id="Vector_10" opacity="0.91" d="M40.76 32.7501L40.86 31.21C40.7568 31.2041 40.6533 31.2041 40.55 31.21L38.6501 31.6301C38.3101 31.7101 38.11 31.6301 38.06 31.4101C38.01 31.1901 38.13 31.0001 38.48 30.9201C39.28 30.7401 40.0901 30.5701 40.9001 30.4101C41.3001 30.3201 41.7 30.26 42.1 30.19H42.2801C42.3687 30.1703 42.4614 30.1838 42.5407 30.2281C42.62 30.2723 42.6803 30.3443 42.7101 30.4301C42.7313 30.5242 42.7149 30.6227 42.6645 30.7049C42.614 30.7871 42.5335 30.8463 42.44 30.87C42.2962 30.9172 42.1491 30.954 42 30.98C41.65 31.06 41.6301 31.0601 41.5901 31.4101C41.5075 31.7843 41.4906 32.1701 41.54 32.5501L42.2701 32.3101C42.3605 32.2665 42.4541 32.2296 42.55 32.2C42.6178 32.1769 42.6918 32.1806 42.7569 32.2104C42.822 32.2401 42.8732 32.2937 42.9001 32.36C42.9252 32.4149 42.9382 32.4747 42.9382 32.5351C42.9382 32.5955 42.9252 32.6551 42.9001 32.71C42.8153 32.8223 42.7011 32.9088 42.57 32.96L41.86 33.21C41.71 33.21 41.58 33.3201 41.44 33.3801C41.3737 33.418 41.3032 33.4481 41.23 33.47C40.3181 33.6341 39.424 33.8853 38.56 34.22C38.4765 34.2538 38.3892 34.2774 38.3 34.2901C38.2235 34.3033 38.1449 34.2882 38.0786 34.2477C38.0124 34.2073 37.9632 34.1441 37.94 34.07C37.9074 33.9992 37.9027 33.9188 37.9268 33.8447C37.9509 33.7705 38.002 33.7082 38.07 33.6701C38.1752 33.6009 38.2897 33.547 38.41 33.5101L40.3401 32.9101L40.76 32.7501Z" fill="black"/>
<path id="Vector_11" opacity="0.91" d="M20.44 63C20.2707 63.0052 20.1033 62.963 19.9567 62.8782C19.81 62.7934 19.69 62.6693 19.61 62.52L18.61 61C18.3067 60.8329 18.0571 60.5833 17.89 60.28V60.22C16.934 58.7064 16.1301 57.102 15.49 55.4301C14.4225 52.8187 13.5076 50.1476 12.75 47.4301C12.0112 44.774 11.5421 42.0502 11.35 39.3C11.3528 39.2735 11.3528 39.2466 11.35 39.22H11.27C9.39356 38.4436 7.56376 37.5587 5.79 36.5699C4.53344 35.8731 3.35655 35.0416 2.28005 34.09C2.0086 33.8485 1.75147 33.5914 1.51003 33.3199C1.34096 33.1345 1.19952 32.9257 1.09005 32.7C0.990269 32.5066 0.951162 32.2877 0.977927 32.0718C1.00469 31.8559 1.09605 31.6531 1.24001 31.49L1.32003 31.39C1.66003 30.96 2.01003 30.5101 2.32003 30.0601C3.2743 28.6399 4.47687 27.4034 5.87002 26.41L8.03005 24.88C8.89005 24.27 9.78 23.63 10.67 23.03C11.3658 22.5638 12.087 22.1365 12.83 21.75L13.31 21.48C13.3517 21.4617 13.3886 21.4342 13.4181 21.3995C13.4475 21.3649 13.4687 21.3241 13.48 21.28L13.65 20.79C13.92 20 14.19 19.2101 14.48 18.4301V18.35C15.29 16.17 16.12 13.92 17.13 11.77C18.5756 8.70873 20.3672 5.82325 22.47 3.17004C22.84 2.70004 23.28 2.16999 23.84 1.60999C24.0984 1.34405 24.3949 1.11818 24.72 0.939941C24.8722 0.8491 25.0433 0.794453 25.22 0.780029C25.4055 0.787918 25.5851 0.847212 25.7388 0.951416C25.8924 1.05562 26.0141 1.20058 26.09 1.37C28.2712 2.65649 30.216 4.30702 31.84 6.25C33.8816 8.69754 35.5436 11.4382 36.77 14.38L37.44 15.9301C38.4274 15.7151 39.4308 15.5812 40.44 15.53C41.9598 15.4738 43.4808 15.6014 44.97 15.91C48.47 16.64 51.31 17.32 53.91 18.04C55.5089 18.4832 57.0497 19.1143 58.5 19.92C58.6048 19.9781 58.7155 20.025 58.83 20.0601L59.0301 20.13C59.1325 20.1803 59.2397 20.2205 59.35 20.25C59.6 20.35 59.87 20.45 60.13 20.58C60.2676 20.643 60.391 20.7332 60.4928 20.8452C60.5945 20.9572 60.6725 21.0887 60.7221 21.2317C60.7716 21.3747 60.7916 21.5263 60.781 21.6772C60.7703 21.8282 60.7291 21.9754 60.66 22.11C59.0145 25.9972 57.0964 29.7632 54.92 33.38C54.12 34.68 53.27 35.99 52.45 37.24L51.99 37.95C51.9354 38.0199 51.8965 38.1008 51.8758 38.187C51.8551 38.2733 51.8531 38.3629 51.87 38.45C52.1216 40.0199 52.2087 41.6119 52.13 43.2C52.07 44.78 51.99 46.3601 51.91 47.9301C51.91 48.9301 51.8201 49.83 51.7801 50.78C51.7201 52 51.67 53.2101 51.63 54.4301L51.56 56.1899V57.09L49.99 57.41L49.79 57.21L49.68 57.11C49.566 57.011 49.459 56.9041 49.36 56.79C49.1449 56.5751 48.8752 56.4229 48.58 56.35H48.43C46.3717 55.6277 44.4077 54.6607 42.58 53.47C41.93 53.03 41.23 52.62 40.58 52.22L39.77 51.73L37.52 50.38L35.7801 49.38L34.7801 48.8L32.71 50.97C30.26 53.54 27.81 56.1001 25.37 58.6801C24.78 59.3101 24.2 59.95 23.62 60.59L22.71 61.59V61.65C22.5308 61.8779 22.2969 62.0568 22.0301 62.17C21.912 62.4171 21.7149 62.6176 21.47 62.74C21.341 62.8071 21.2173 62.884 21.1 62.97C20.8897 63.0545 20.6571 63.0651 20.44 63ZM3.44002 32.36C4.07434 32.9503 4.76042 33.4824 5.49001 33.95C6.68669 34.7062 7.93663 35.3746 9.23 35.95C10.63 36.58 12.07 37.2 13.46 37.79L15.46 38.6801L15.79 38.83C16.012 38.96 16.2561 39.0481 16.51 39.09C16.6147 39.1004 16.7163 39.1315 16.8089 39.1813C16.9016 39.231 16.9835 39.2985 17.05 39.38C17.1147 39.4683 17.1612 39.5686 17.187 39.675C17.2127 39.7815 17.2172 39.8919 17.2 40C17.19 40.0596 17.19 40.1205 17.2 40.1801V40.4C17.1989 40.5257 17.1787 40.6504 17.14 40.77C17.1246 40.8347 17.1046 40.8981 17.08 40.96V41.03C16.9288 43.365 17.0024 45.7091 17.3 48.03C17.46 49.3 17.67 50.97 17.93 52.66C18.1229 54.0728 18.4035 55.4721 18.77 56.85C19.125 58.2109 19.7321 59.4931 20.56 60.63L20.66 60.51C20.88 60.25 21.1 59.98 21.33 59.73C21.56 59.48 21.78 59.25 22.01 59.02L22.55 58.47L23.22 57.73L24.0301 56.87L32.82 47.65L33.92 46.48L35.07 45.26C35.2324 45.061 35.4651 44.9321 35.72 44.9H35.82C36.1934 44.9163 36.5602 45.0046 36.9 45.16C37.2243 45.3445 37.535 45.5517 37.83 45.78L38.11 45.99C38.43 46.21 38.74 46.44 39.05 46.67C39.64 47.1 40.25 47.54 40.86 47.96C43.5 49.74 46.59 51.88 49.6 54.29L49.86 48.64L49.93 47.1C50 45.64 50.07 44.1 50.11 42.63C50.1539 41.4271 50.0937 40.2226 49.93 39.03C49.9219 38.9512 49.8944 38.8757 49.85 38.8101C49.7545 38.6625 49.6997 38.4922 49.6909 38.3167C49.6821 38.1411 49.7197 37.9664 49.8 37.8101C49.91 37.5901 50 37.37 50.1 37.15L50.26 36.79C50.314 36.6671 50.374 36.547 50.44 36.4301C50.54 36.2901 50.64 36.14 50.75 36L51.15 35.41C52.9626 32.75 54.593 29.9703 56.0301 27.09L57.52 24.01L58.52 22.01H58.37L57.86 21.91C57.03 21.74 56.17 21.57 55.32 21.46C53.6082 21.1814 51.8736 21.0676 50.14 21.12H49.66C47.3077 21.2591 44.9684 21.5666 42.66 22.04C41.6538 22.1896 40.6938 22.562 39.85 23.13C39.6582 23.2922 39.4204 23.3902 39.17 23.41C38.9547 23.4144 38.7434 23.3524 38.5645 23.2325C38.3856 23.1127 38.2479 22.9407 38.17 22.74C38.03 22.48 37.91 22.2099 37.79 21.9399L36.7 19.41C36.0334 17.8367 35.3667 16.2666 34.7 14.7C33.5269 11.9383 31.9237 9.37998 29.95 7.12C28.6727 5.66732 27.1945 4.40456 25.56 3.37L25.49 3.44995C25.1945 3.72884 24.9656 4.07061 24.82 4.44995C24.54 5.14995 24.32 5.73998 24.13 6.34998C23.5813 8.20087 23.1866 10.094 22.95 12.01C22.5 15.26 22.07 18.55 21.64 21.9C21.55 22.56 21.48 23.21 21.42 23.9C21.42 24.3 21.34 24.7 21.29 25.11C21.2658 25.2983 21.201 25.4792 21.1 25.64C20.9788 25.8505 20.8131 26.0321 20.6145 26.172C20.4158 26.3119 20.1891 26.4067 19.95 26.45L19.5301 26.54L19.24 26.62C16.3303 27.2479 13.4617 28.0528 10.65 29.03L10.45 29.11C8.72068 29.6903 7.0218 30.3578 5.36001 31.11C4.65803 31.4462 4.00532 31.8769 3.42 32.39L3.44002 32.36ZM13.16 39.96C13.5936 44.0123 14.5482 47.9919 16 51.8C15.3934 48.1904 15.1689 44.5267 15.33 40.87L13.16 39.96ZM38.7801 48.96L39.32 49.28L36.61 47.37C36.4821 47.2812 36.3485 47.2011 36.21 47.13L36.02 47.3199L38.7801 48.96ZM13.08 23.54C12.4 23.94 11.7 24.36 11.08 24.8C10.46 25.24 9.66 25.8 8.98 26.29L8.06002 26.96L7.48 27.37L6.33004 28.2C6.09245 28.3765 5.8654 28.5669 5.65005 28.77C7.49005 27.96 9.36002 27.31 11.19 26.67H11.34C13.6394 25.9149 15.9758 25.2774 18.34 24.76L18.13 24.64C17.8111 24.446 17.4766 24.2788 17.13 24.14C16.56 23.94 15.96 23.76 15.39 23.59L14.39 23.3C14.2314 23.2504 14.0774 23.1868 13.93 23.11L13.08 23.54ZM15.63 21.75L16.85 22.11C17.4259 22.3003 17.9902 22.524 18.54 22.78C18.85 22.93 19.15 23.11 19.45 23.29L19.58 22.15C19.71 21.08 19.84 20.02 19.98 18.95L20.1 18.05C20.43 15.59 20.77 13.0501 21.1 10.5601C21.2769 9.31455 21.5207 8.07936 21.83 6.85999C20.6504 8.59124 19.6104 10.4137 18.72 12.3101C17.64 14.6001 16.72 17.03 15.88 19.37V19.4399C15.6934 19.9599 15.5134 20.47 15.34 20.97L15.19 21.41L15.34 21.67L15.63 21.75ZM38.17 17.53C38.51 18.38 39.24 20.06 39.62 20.85C40.4747 20.4657 41.3705 20.1805 42.29 20C43.64 19.69 45.02 19.52 46.36 19.35H46.62C47.72 19.21 48.73 19.13 49.72 19.08H50.8L48.04 18.4C46.4082 17.9821 44.7561 17.6484 43.09 17.4C42.2853 17.2875 41.4717 17.2507 40.66 17.29C39.8169 17.3197 38.9776 17.4166 38.15 17.58L38.17 17.53Z" fill="black"/>
</g>
</svg>
