<svg width="61" height="63" viewBox="0 0 61 63" fill="none" xmlns="http://www.w3.org/2000/svg">
<g id="bgStar5" opacity="0.91">
<path id="Vector" opacity="0.91" d="M36.36 16.2399C38.9046 15.6159 41.5574 15.5749 44.12 16.1199C47.12 16.7499 50.1201 17.4199 53.0101 18.2399C54.57 18.6628 56.0714 19.2775 57.48 20.0699C57.6737 20.1677 57.8742 20.2512 58.08 20.3199C58.43 20.4599 58.8001 20.5699 59.1401 20.7399C59.2161 20.7738 59.2843 20.8233 59.3403 20.885C59.3962 20.9467 59.4387 21.0192 59.465 21.0982C59.4914 21.1772 59.501 21.2609 59.4932 21.3438C59.4855 21.4268 59.4606 21.5071 59.4201 21.5799C57.7821 25.4427 55.8739 29.1853 53.71 32.78C52.77 34.32 51.7701 35.7799 50.7901 37.3299C50.6973 37.4565 50.6315 37.601 50.5971 37.7541C50.5627 37.9073 50.5603 38.0658 50.59 38.2199C50.8332 39.7538 50.917 41.3088 50.84 42.8599C50.75 45.3899 50.6 47.9099 50.49 50.4399C50.41 52.2399 50.3401 54.0399 50.2701 55.8499C50.2701 55.9999 50.2701 56.1499 50.2701 56.3299L49.3901 56.5C49.2595 56.3876 49.1359 56.2674 49.0201 56.14C48.6997 55.8125 48.2946 55.5804 47.85 55.4699C45.8315 54.7656 43.9044 53.8223 42.11 52.66C41.19 52.03 40.2101 51.48 39.2601 50.9L37 49.54L35.2601 48.54L33.9201 47.77C33.8554 47.8103 33.795 47.8572 33.74 47.91C30.5467 51.2433 27.3633 54.5767 24.19 57.91C23.28 58.91 22.4101 59.8599 21.5201 60.8399C21.3694 61.0634 21.1472 61.2292 20.8901 61.31C20.8153 61.3469 20.7579 61.4114 20.73 61.4899C20.7002 61.5736 20.6539 61.6504 20.5938 61.7157C20.5337 61.7809 20.461 61.8334 20.3801 61.8699C20.2301 61.95 20.1 62.04 19.96 62.13C19.9137 62.1694 19.8589 62.1974 19.7999 62.2119C19.7408 62.2263 19.6792 62.2268 19.6199 62.2132C19.5607 62.1996 19.5054 62.1724 19.4585 62.1336C19.4117 62.0949 19.3745 62.0456 19.35 61.9899C19.02 61.4799 18.69 60.9899 18.35 60.4699C18.3062 60.393 18.2445 60.3279 18.1701 60.28C17.909 60.1428 17.6986 59.9255 17.57 59.66C16.6366 58.1765 15.8496 56.6057 15.22 54.9699C14.1589 52.3583 13.2507 49.6871 12.5 46.9699C11.7686 44.3573 11.3062 41.6767 11.12 38.9699C11.1264 38.8411 11.088 38.714 11.0115 38.6102C10.935 38.5063 10.8249 38.4321 10.7 38.4C8.84593 37.6246 7.03654 36.7465 5.28008 35.77C4.05484 35.095 2.90784 34.2867 1.86003 33.3599C1.60193 33.1318 1.35815 32.8881 1.13005 32.63C0.994248 32.4797 0.879868 32.3115 0.790088 32.13C0.738539 32.0267 0.719452 31.9102 0.735522 31.796C0.751592 31.6817 0.802029 31.575 0.880054 31.4899C1.26005 31.0199 1.64004 30.49 1.99004 30.04C2.90059 28.673 4.05279 27.4836 5.39006 26.53C7.00006 25.42 8.56999 24.24 10.19 23.14C11.02 22.58 11.9101 22.14 12.7901 21.63C12.9928 21.5253 13.1469 21.3461 13.22 21.13C13.54 20.13 13.86 19.23 14.22 18.28C15.05 16.06 15.8701 13.83 16.8801 11.67C18.3064 8.64252 20.0782 5.79023 22.1601 3.17C22.5801 2.65 23.03 2.16999 23.49 1.65999C23.71 1.4306 23.9627 1.23505 24.24 1.07991C24.56 0.909909 24.7001 0.990001 24.8801 1.3C24.9321 1.40039 25.0119 1.48369 25.11 1.53999C27.2249 2.78875 29.1117 4.38822 30.69 6.26997C32.7007 8.67692 34.3359 11.3741 35.5401 14.27C35.7701 14.81 36 15.35 36.24 15.88L36.36 16.2399ZM1.93999 32.0899C1.93156 32.1125 1.93156 32.1374 1.93999 32.16C2.00478 32.2381 2.07504 32.3116 2.15007 32.38C2.8454 33.0505 3.60584 33.6502 4.42009 34.17C5.63323 34.9656 6.90711 35.6644 8.23003 36.26C10.31 37.2 12.4201 38.0799 14.5201 38.9899C14.8945 39.2031 15.2991 39.3581 15.72 39.4499C15.7554 39.4513 15.7901 39.4609 15.8212 39.4779C15.8523 39.4948 15.8791 39.5189 15.8995 39.5479C15.9198 39.577 15.9331 39.6103 15.9384 39.6453C15.9437 39.6804 15.9409 39.7162 15.9301 39.75C15.9301 39.89 15.9301 40.0499 15.9301 40.1999C15.9453 40.2825 15.9453 40.3673 15.9301 40.4499C15.889 40.5608 15.8554 40.6745 15.83 40.79C15.6781 43.1516 15.7519 45.5223 16.0501 47.8699C16.2401 49.4199 16.4401 50.97 16.6701 52.52C16.8753 53.956 17.1658 55.3785 17.5401 56.78C17.9337 58.3105 18.6383 59.7436 19.61 60.9899L19.85 61.27L20.12 60.92C20.42 60.57 20.7001 60.21 21.0101 59.92C21.3201 59.63 21.83 59.08 22.23 58.66C22.63 58.24 23.23 57.58 23.7 57.06L32.49 47.8399L34.74 45.4599C34.82 45.3699 34.9501 45.25 35.0401 45.26C35.3468 45.2694 35.6489 45.3372 35.9301 45.4599C36.328 45.7014 36.7119 45.9652 37.08 46.25C38 46.91 38.9 47.59 39.84 48.25C42.97 50.37 46.06 52.54 48.98 54.93C49.09 55.01 49.19 55.13 49.37 55.06V54.4599C49.47 52.4599 49.5634 50.48 49.6501 48.52C49.7401 46.52 49.8401 44.52 49.9001 42.52C49.9454 41.2871 49.8851 40.0525 49.72 38.8299C49.6969 38.6693 49.639 38.5157 49.5501 38.38C49.5013 38.3132 49.475 38.2327 49.475 38.15C49.475 38.0673 49.5013 37.9868 49.5501 37.92C49.7101 37.58 49.8601 37.22 50.0101 36.92C50.0507 36.827 50.0975 36.7368 50.1501 36.65C50.3901 36.3 50.64 35.97 50.86 35.65C52.6875 32.971 54.3313 30.1713 55.7801 27.27C56.6001 25.55 57.4401 23.8299 58.2601 22.1199C58.3301 21.9699 58.38 21.8199 58.45 21.6199C58.2059 21.5172 57.9553 21.4303 57.7 21.3599C56.7 21.1599 55.7001 20.95 54.6301 20.8C52.7198 20.492 50.7822 20.388 48.85 20.4899C46.4975 20.6268 44.158 20.9343 41.85 21.41C40.7738 21.5779 39.7487 21.9844 38.85 22.5999C38.48 22.8799 38.22 22.81 37.99 22.39C37.86 22.14 37.7501 21.88 37.6401 21.63C36.6401 19.21 35.55 16.8 34.5 14.39C33.2984 11.5804 31.6655 8.97568 29.6601 6.67C28.3315 5.15768 26.7924 3.84422 25.09 2.76997L24.7 2.56001C24.6177 2.70073 24.5241 2.83441 24.4201 2.95991C24.0628 3.30912 23.7862 3.73237 23.61 4.1999C23.36 4.8399 23.1201 5.47996 22.9101 6.12996C22.3642 8.00931 21.9663 9.92849 21.72 11.8699C21.26 15.1699 20.8301 18.47 20.4001 21.77C20.2701 22.83 20.1801 23.8999 20.0601 24.9599C20.0395 25.0697 19.9987 25.1749 19.94 25.27C19.8614 25.4158 19.7501 25.5414 19.6148 25.6368C19.4794 25.7322 19.3238 25.7948 19.1601 25.8199C18.9101 25.8199 18.6701 25.94 18.4201 26C15.4885 26.6314 12.5995 27.4463 9.77007 28.4399C7.96007 29.0999 6.16009 29.7499 4.42009 30.5799C3.51408 30.9396 2.67544 31.4501 1.93999 32.0899ZM19.11 23.9599C19.11 23.7999 19.1601 23.6899 19.1701 23.5799C19.3701 21.9899 19.5501 20.4 19.7601 18.81C20.1301 16.02 20.5001 13.22 20.9201 10.43C21.2199 8.19886 21.7803 6.01055 22.59 3.90999C22.59 3.90999 22.59 3.8199 22.59 3.6999C22.43 3.8999 22.31 4.03 22.21 4.17C20.3868 6.57098 18.8121 9.15083 17.5101 11.8699C16.4201 14.2099 15.5101 16.63 14.6301 19.05C14.3601 19.8 14.1 20.56 13.86 21.25L14.24 21.92C14.76 22.08 15.3401 22.22 15.9101 22.42C16.4651 22.5933 17.0065 22.8072 17.5301 23.06C18.0701 23.31 18.57 23.65 19.11 24V23.9599ZM54.72 19.68V19.6199L54.48 19.51C53.98 19.34 53.48 19.13 52.97 19C51.11 18.52 49.2501 18.0533 47.3901 17.5999C45.7416 17.1813 44.0727 16.8475 42.3901 16.5999C40.4861 16.3539 38.5528 16.4659 36.69 16.93C37.2384 18.4543 37.8865 19.9408 38.6301 21.38C39.5695 20.8869 40.5826 20.5492 41.6301 20.38C43.0401 20.06 44.4801 19.8799 45.9101 19.6999C48.4422 19.3401 51.0102 19.3099 53.5501 19.6099L54.72 19.68ZM13.12 22.25C13.0447 22.2824 12.9712 22.3191 12.9001 22.3599C11.9001 22.9499 10.9 23.51 9.98003 24.14C9.06003 24.77 7.98003 25.59 6.98003 26.31L5.25005 27.56C4.37409 28.2374 3.60539 29.043 2.97002 29.9499L2.88005 30.13C5.4187 28.8555 8.05346 27.7822 10.7601 26.92C13.4679 26.0483 16.2181 25.314 19 24.7199C18.6 24.4799 18.28 24.2599 17.94 24.0799C17.4931 23.809 17.025 23.5749 16.5401 23.38C15.6501 23.06 14.73 22.81 13.82 22.53C13.5811 22.4512 13.3474 22.3576 13.12 22.25ZM11.7901 38.9C12.2301 45.13 14.2 50.8399 16.6 56.4399C15.6 51.0899 14.73 45.74 15.12 40.25L11.7901 38.9ZM46.4301 54.15L46.5 54.06C46.4101 54.016 46.3232 53.9659 46.24 53.91C45.5 53.36 44.7701 52.79 44.0101 52.25C41.4034 50.4033 38.7868 48.5599 36.1601 46.7199C35.9066 46.5331 35.6269 46.3849 35.33 46.28L34.3901 47.2199L35.2901 47.76L37.75 49.2099L39.0601 50C40.2001 50.69 41.36 51.3499 42.47 52.0799C43.6207 52.826 44.8315 53.475 46.09 54.02L46.4301 54.15Z" fill="black"/>
<path id="Vector_2" opacity="0.91" d="M1.93994 32.09C2.64814 31.398 3.47019 30.8332 4.37 30.42C6.10999 29.59 7.90997 28.94 9.71997 28.28C12.5494 27.2864 15.4384 26.4714 18.37 25.84C18.62 25.78 18.86 25.71 19.11 25.66C19.2737 25.635 19.4293 25.5722 19.5647 25.4768C19.7 25.3814 19.8114 25.2558 19.89 25.11C19.9487 25.0149 19.9894 24.9099 20.01 24.8C20.13 23.74 20.22 22.67 20.35 21.61C20.78 18.31 21.21 15.01 21.67 11.71C21.9163 9.76851 22.3141 7.84932 22.86 5.96997C23.07 5.31997 23.3101 4.68004 23.5601 4.04004C23.7362 3.5725 24.0127 3.14925 24.37 2.80005C24.474 2.67454 24.5677 2.54074 24.65 2.40002L25.04 2.60999C26.7424 3.68423 28.2814 4.9977 29.61 6.51001C31.6154 8.81569 33.2483 11.4204 34.45 14.23C35.45 16.64 36.54 19.05 37.59 21.47C37.7 21.72 37.8099 21.98 37.9399 22.23C38.1699 22.65 38.43 22.7199 38.8 22.4399C39.6987 21.8244 40.7238 21.4179 41.8 21.25C44.108 20.7743 46.4475 20.4668 48.8 20.33C50.7323 20.228 52.6697 20.332 54.58 20.64C55.58 20.79 56.58 21 57.65 21.2C57.9054 21.2703 58.1559 21.3572 58.4 21.46C58.33 21.66 58.28 21.81 58.21 21.96C57.39 23.67 56.55 25.39 55.73 27.11C54.2812 30.0113 52.6375 32.811 50.8101 35.49C50.5901 35.84 50.34 36.17 50.1 36.49C50.0474 36.5768 50.0006 36.667 49.96 36.76C49.81 37.1 49.66 37.46 49.5 37.76C49.4512 37.8268 49.4249 37.9073 49.4249 37.99C49.4249 38.0727 49.4512 38.1532 49.5 38.22C49.5889 38.3557 49.647 38.5094 49.67 38.67C49.8352 39.8927 49.8953 41.1271 49.85 42.36C49.79 44.36 49.69 46.36 49.6 48.36C49.51 50.36 49.4199 52.3601 49.3199 54.3V54.9C49.1399 54.97 49.0401 54.9 48.9301 54.77C46.0101 52.38 42.93 50.21 39.79 48.09C38.85 47.46 37.95 46.78 37.03 46.09C36.6619 45.8052 36.2779 45.5415 35.88 45.3C35.5988 45.1773 35.2967 45.1094 34.99 45.1C34.9 45.1 34.7699 45.21 34.6899 45.3L32.4399 47.6801L23.65 56.9C23.15 57.42 22.6501 57.97 22.1801 58.5C21.7101 59.03 21.35 59.33 20.96 59.76C20.57 60.19 20.3699 60.45 20.0699 60.76L19.8 61.11L19.5601 60.83C18.5884 59.5836 17.8836 58.1506 17.49 56.62C17.1157 55.2185 16.8252 53.796 16.62 52.36C16.39 50.81 16.19 49.26 16 47.71C15.7018 45.3623 15.6281 42.9916 15.78 40.63C15.8055 40.5145 15.8389 40.4009 15.88 40.29C15.8952 40.2074 15.8952 40.1227 15.88 40.04C15.88 39.89 15.88 39.73 15.88 39.59C15.8908 39.5562 15.8937 39.5204 15.8884 39.4854C15.8831 39.4503 15.8697 39.417 15.8494 39.3879C15.829 39.3589 15.8022 39.335 15.7711 39.318C15.74 39.301 15.7055 39.2914 15.67 39.29C15.2491 39.1983 14.8444 39.0431 14.47 38.83C12.37 37.92 10.2601 37.04 8.18005 36.1C6.85713 35.5045 5.58313 34.8057 4.37 34.01C3.55575 33.4902 2.7953 32.8906 2.09998 32.22C2.02494 32.1516 1.95481 32.0781 1.89001 32C1.90573 32.0091 1.91868 32.0222 1.92749 32.0381C1.9363 32.0539 1.94055 32.0718 1.93994 32.09ZM29.62 34.09L29.16 34.23L25.86 35.12C25.7852 35.134 25.7116 35.1541 25.64 35.1801C25.5931 35.1906 25.5487 35.2104 25.5095 35.2384C25.4704 35.2664 25.4373 35.302 25.4121 35.343C25.3869 35.384 25.3701 35.4296 25.3629 35.4772C25.3557 35.5248 25.3581 35.5734 25.37 35.62C25.3997 35.7058 25.46 35.7776 25.5393 35.8219C25.6186 35.8662 25.7114 35.8797 25.8 35.86C25.8877 35.8447 25.9746 35.8248 26.0601 35.8L27.71 35.35C28.64 35.09 29.57 34.82 30.49 34.54C30.6939 34.4747 30.8887 34.384 31.0699 34.27C31.1154 34.253 31.1568 34.2264 31.1912 34.192C31.2255 34.1577 31.2521 34.1164 31.2692 34.0709C31.2862 34.0254 31.2934 33.9768 31.29 33.9283C31.2867 33.8799 31.2731 33.8328 31.25 33.79C31.16 33.62 30.99 33.58 30.75 33.67L30.45 33.79C30.2674 33.4128 30.2352 32.9801 30.36 32.58C30.61 32.52 30.84 32.48 31.05 32.41C31.26 32.34 31.42 32.15 31.37 31.96C31.32 31.77 31.15 31.68 30.88 31.73L30.4301 31.8199L26.14 32.46L25.01 32.65C24.77 32.65 24.65 32.84 24.67 33.03C24.6825 33.1266 24.7326 33.2143 24.8093 33.2742C24.8861 33.3341 24.9833 33.3613 25.08 33.35C25.2031 33.3599 25.3268 33.3599 25.45 33.35L29.1 32.77C29.2531 32.7597 29.4069 32.7597 29.5601 32.77L29.62 34.09ZM23.1 20.2C23.1049 20.2498 23.1049 20.3001 23.1 20.35C23.1 20.61 23.25 20.77 23.45 20.77C23.65 20.77 23.77 20.64 23.79 20.39C23.81 20.14 23.79 19.93 23.79 19.7C23.87 18.4 23.92 17.09 24.04 15.79C24.3 13.18 24.66 10.59 25.15 8.01001C25.1772 7.92493 25.1717 7.83278 25.1348 7.75146C25.0978 7.67015 25.0319 7.60541 24.95 7.56995C24.865 7.53671 24.7705 7.538 24.6864 7.57349C24.6023 7.60898 24.5354 7.67593 24.5 7.76001C24.4293 7.90849 24.3821 8.06702 24.36 8.22998C24.16 9.46331 23.97 10.6934 23.79 11.92C23.3854 14.6627 23.1549 17.4281 23.1 20.2ZM40.02 32.49L39.5699 32.63L37.65 33.24C37.5257 33.2746 37.4076 33.3287 37.3 33.4C37.2288 33.4382 37.1739 33.5012 37.146 33.5771C37.1181 33.6531 37.1191 33.7365 37.1487 33.8118C37.1783 33.887 37.2345 33.9488 37.3066 33.9854C37.3788 34.0219 37.4618 34.0307 37.54 34.01C37.6257 33.996 37.7096 33.9725 37.79 33.9399C38.654 33.6052 39.548 33.3541 40.46 33.1899C40.5332 33.1681 40.6037 33.1379 40.67 33.1L41.09 32.9301C41.33 32.8401 41.5701 32.7801 41.8101 32.6801C41.9365 32.6256 42.0466 32.5395 42.13 32.4301C42.1552 32.3751 42.1682 32.3154 42.1682 32.255C42.1682 32.1946 42.1552 32.1349 42.13 32.08C42.13 31.93 41.94 31.89 41.79 31.92C41.6903 31.9479 41.5932 31.9847 41.5 32.03L40.77 32.27C40.7093 31.8924 40.7093 31.5076 40.77 31.13C40.77 30.78 40.8301 30.78 41.1801 30.7C41.3292 30.6739 41.4762 30.6372 41.62 30.59C41.6677 30.5807 41.7129 30.5617 41.7528 30.5341C41.7927 30.5064 41.8264 30.4708 41.8518 30.4294C41.8772 30.3881 41.8937 30.3418 41.9003 30.2937C41.9068 30.2456 41.9034 30.1967 41.89 30.15C41.8623 30.065 41.804 29.9933 41.7263 29.949C41.6487 29.9046 41.5573 29.8907 41.47 29.91H41.28L40.08 30.13C39.27 30.29 38.46 30.46 37.66 30.65C37.32 30.73 37.18 30.91 37.24 31.13C37.3 31.35 37.49 31.43 37.84 31.35L39.73 30.9301C39.8331 30.9199 39.937 30.9199 40.04 30.9301L40.02 32.49Z" fill="#C89458"/>
<path id="Vector_3" opacity="0.91" d="M19.11 24C18.57 23.69 18.11 23.35 17.54 23.1C17.0165 22.8472 16.475 22.6333 15.92 22.46C15.35 22.26 14.77 22.12 14.25 21.96L13.87 21.29C14.11 20.6 14.37 19.84 14.64 19.09C15.54 16.67 16.43 14.25 17.52 11.91C18.8221 9.19092 20.3967 6.61095 22.22 4.20996C22.32 4.06996 22.44 3.93999 22.6 3.73999C22.6 3.85999 22.6 3.90995 22.6 3.94995C21.7903 6.05052 21.2299 8.23882 20.9301 10.47C20.5101 13.26 20.14 16.06 19.77 18.85C19.56 20.44 19.3801 22.03 19.1801 23.62C19.1601 23.69 19.13 23.8 19.11 24Z" fill="#A3784C"/>
<path id="Vector_4" opacity="0.91" d="M54.72 19.68L53.5699 19.55C51.0301 19.25 48.4621 19.2802 45.9301 19.64C44.5001 19.82 43.06 19.9999 41.65 20.3199C40.6026 20.4892 39.5895 20.8269 38.65 21.3199C37.9065 19.8808 37.2583 18.3943 36.71 16.87C38.5728 16.4059 40.5061 16.294 42.41 16.54C44.0927 16.7876 45.7616 17.1214 47.41 17.54C49.27 17.9934 51.13 18.4599 52.99 18.9399C53.5 19.0699 53.99 19.2799 54.5 19.4499L54.74 19.56L54.72 19.68Z" fill="#A3784C"/>
<path id="Vector_5" opacity="0.91" d="M13.12 22.25C13.3343 22.3562 13.5547 22.4497 13.78 22.53C14.69 22.81 15.61 23.06 16.5 23.38C16.9849 23.575 17.4531 23.809 17.9 24.08C18.24 24.26 18.56 24.48 18.96 24.72C16.178 25.314 13.4278 26.0484 10.72 26.92C8.01337 27.7822 5.37861 28.8555 2.83997 30.13L2.93005 29.95C3.56543 29.0431 4.334 28.2374 5.20996 27.5601L6.93994 26.3101C7.93994 25.5901 8.93994 24.83 9.93994 24.14C10.9399 23.45 11.94 22.95 12.86 22.36C12.9441 22.3177 13.031 22.2809 13.12 22.25Z" fill="#A3784C"/>
<path id="Vector_6" opacity="0.91" d="M11.79 38.9L15.12 40.25C14.73 45.74 15.62 51.0899 16.6 56.4399C14.2 50.8399 12.23 45.13 11.79 38.9Z" fill="#A3784C"/>
<path id="Vector_7" opacity="0.91" d="M46.4301 54.15L46.09 54.02C44.8315 53.4751 43.6206 52.8261 42.47 52.08C41.36 51.35 40.2001 50.69 39.0601 50L37.75 49.21L35.29 47.76L34.39 47.22L35.33 46.28C35.6268 46.3849 35.9066 46.5331 36.16 46.72C38.78 48.56 41.3967 50.4033 44.01 52.25C44.77 52.79 45.5 53.36 46.24 53.91C46.3231 53.9659 46.41 54.016 46.5 54.0601L46.4301 54.15Z" fill="#A3784C"/>
<path id="Vector_8" opacity="0.91" d="M29.62 34.09L29.5601 32.6899C29.4069 32.6796 29.2531 32.6796 29.1 32.6899L25.45 33.27C25.3268 33.2799 25.2031 33.2799 25.08 33.27C24.9833 33.2813 24.8861 33.2541 24.8093 33.1942C24.7326 33.1343 24.6825 33.0465 24.67 32.95C24.67 32.76 24.77 32.6199 25.01 32.5699L26.14 32.38L30.4301 31.74L30.88 31.65C31.15 31.65 31.32 31.65 31.37 31.88C31.42 32.11 31.31 32.25 31.05 32.33C30.79 32.41 30.61 32.44 30.36 32.5C30.2352 32.9001 30.2674 33.3327 30.45 33.71L30.75 33.59C30.99 33.5 31.16 33.54 31.25 33.71C31.2731 33.7527 31.2867 33.7999 31.29 33.8484C31.2933 33.8969 31.2862 33.9455 31.2692 33.991C31.2521 34.0364 31.2255 34.0777 31.1912 34.1121C31.1568 34.1464 31.1154 34.1729 31.0699 34.1899C30.8887 34.3039 30.6939 34.3947 30.49 34.46C29.57 34.74 28.64 35.01 27.71 35.27L26.0601 35.72C25.9746 35.7447 25.8877 35.7648 25.8 35.78C25.7114 35.7998 25.6186 35.7862 25.5393 35.7419C25.46 35.6977 25.3997 35.6258 25.37 35.54C25.3581 35.4934 25.3557 35.4448 25.3629 35.3972C25.3701 35.3496 25.3869 35.304 25.4121 35.2629C25.4373 35.2219 25.4704 35.1864 25.5095 35.1584C25.5487 35.1305 25.5931 35.1105 25.64 35.1C25.7116 35.0741 25.7852 35.0541 25.86 35.04L29.16 34.15L29.62 34.09Z" fill="black"/>
<path id="Vector_9" opacity="0.91" d="M23.1 20.1999C23.1714 17.4271 23.4186 14.6616 23.84 11.92C24.02 10.6867 24.21 9.45663 24.41 8.22997C24.4321 8.067 24.4794 7.90848 24.55 7.76C24.5855 7.67592 24.6523 7.60896 24.7363 7.57347C24.8204 7.53798 24.915 7.5367 25 7.56993C25.082 7.60539 25.1479 7.67013 25.1848 7.75145C25.2218 7.83277 25.2271 7.92491 25.2 8.01C24.71 10.59 24.35 13.18 24.09 15.79C23.97 17.09 23.92 18.3999 23.84 19.6999C23.84 19.9299 23.84 20.16 23.84 20.39C23.84 20.62 23.68 20.77 23.5 20.77C23.32 20.77 23.17 20.61 23.15 20.35C23.1386 20.2984 23.1218 20.2481 23.1 20.1999Z" fill="#DCCFBD"/>
<path id="Vector_10" opacity="0.91" d="M40 32.49L40.1 30.96C39.9969 30.9498 39.8932 30.9498 39.7901 30.96L37.9001 31.38C37.5501 31.46 37.3501 31.3801 37.3001 31.1601C37.2501 30.9401 37.38 30.7601 37.72 30.6801C38.52 30.4901 39.3301 30.3201 40.1401 30.1601L41.34 29.94H41.5301C41.6174 29.9207 41.7088 29.9347 41.7864 29.979C41.8641 30.0234 41.9223 30.0951 41.95 30.1801C41.9634 30.2268 41.9669 30.2757 41.9604 30.3238C41.9538 30.3719 41.9373 30.4181 41.9119 30.4595C41.8865 30.5009 41.8528 30.5365 41.8129 30.5641C41.773 30.5918 41.7278 30.6108 41.6801 30.62C41.5363 30.6672 41.3891 30.704 41.24 30.73C40.89 30.81 40.87 30.8101 40.83 31.1601C40.7693 31.5376 40.7693 31.9225 40.83 32.3001L41.5601 32.0601C41.6533 32.0148 41.7502 31.9778 41.85 31.95C42 31.95 42.15 31.95 42.19 32.11C42.2151 32.1649 42.2282 32.2247 42.2282 32.2851C42.2282 32.3455 42.2151 32.4051 42.19 32.46C42.1066 32.5695 41.9964 32.6556 41.87 32.71C41.63 32.81 41.3901 32.87 41.1501 32.96L40.73 33.13C40.6637 33.168 40.5933 33.1981 40.5201 33.22C39.6081 33.3841 38.714 33.6353 37.85 33.97C37.7695 34.0025 37.6857 34.0261 37.6 34.0401C37.5218 34.0607 37.4388 34.052 37.3666 34.0154C37.2945 33.9789 37.2383 33.9171 37.2087 33.8418C37.179 33.7666 37.1782 33.683 37.2061 33.6071C37.234 33.5312 37.2887 33.4683 37.36 33.4301C37.4676 33.3587 37.5857 33.3047 37.71 33.2701L39.63 32.6601L40 32.49Z" fill="black"/>
<path id="Vector_11" opacity="0.91" d="M19.7 62.77C19.5319 62.775 19.3657 62.7339 19.2194 62.651C19.0731 62.5681 18.9522 62.4468 18.87 62.3C18.54 61.7901 18.21 61.3 17.87 60.78C17.562 60.6159 17.3084 60.3658 17.14 60.0601V60C16.184 58.4864 15.3801 56.8819 14.74 55.21C13.678 52.5965 12.7633 49.9257 12 47.21C11.2613 44.5505 10.7922 41.8234 10.6 39.0699C10.602 39.0433 10.602 39.0166 10.6 38.99H10.52C8.64585 38.2157 6.81933 37.3308 5.05008 36.34C3.78892 35.6456 2.6084 34.8139 1.53006 33.86C1.27006 33.63 1.01004 33.37 0.760038 33.1C0.592923 32.9094 0.451659 32.6975 0.339994 32.47C0.240214 32.2766 0.201169 32.0577 0.227934 31.8418C0.254699 31.6259 0.346052 31.4231 0.490019 31.26L0.569975 31.16C0.909975 30.73 1.25997 30.28 1.56997 29.83C2.51729 28.4074 3.71711 27.1704 5.11001 26.1801C5.84335 25.6801 6.56338 25.17 7.27005 24.65C8.13005 24.04 9.02006 23.4 9.91006 22.8C10.6101 22.32 11.35 21.92 12.07 21.52L12.5501 21.26C12.5924 21.2386 12.6301 21.209 12.661 21.173C12.6919 21.1369 12.7153 21.0952 12.73 21.05L12.9001 20.5601C13.1601 19.7701 13.43 18.98 13.72 18.2V18.12C14.53 15.94 15.36 13.69 16.37 11.54C17.8191 8.47848 19.6141 5.5929 21.72 2.93994C22.08 2.46994 22.52 1.94 23.08 1.38C23.3409 1.117 23.637 0.891467 23.96 0.709961C24.1122 0.619119 24.2833 0.564472 24.46 0.550049C24.6455 0.557938 24.8251 0.617232 24.9788 0.721436C25.1324 0.825639 25.254 0.970604 25.33 1.14001C27.5112 2.42651 29.4559 4.07704 31.08 6.02002C33.1216 8.46756 34.7836 11.2082 36.01 14.15L36.69 15.7C37.6767 15.4829 38.6805 15.3525 39.69 15.3101C41.2133 15.2439 42.7389 15.3715 44.23 15.6899C47.72 16.4099 50.5601 17.0901 53.1601 17.8101C54.759 18.2532 56.2997 18.8842 57.75 19.6899C57.8556 19.7464 57.966 19.7933 58.08 19.83L58.2801 19.9L58.6 20.03C58.8667 20.1195 59.1273 20.2263 59.38 20.35C59.5176 20.413 59.641 20.5032 59.7427 20.6152C59.8445 20.7272 59.9225 20.8587 59.9721 21.0017C60.0216 21.1447 60.0416 21.2963 60.0309 21.4473C60.0203 21.5982 59.9792 21.7454 59.9101 21.88C58.2686 25.7691 56.3504 29.5354 54.1701 33.15C53.3701 34.46 52.52 35.76 51.7 37.02L51.24 37.72C51.1854 37.7899 51.1465 37.8708 51.1258 37.957C51.1051 38.0433 51.1031 38.1329 51.12 38.22C51.3713 39.79 51.4584 41.3819 51.38 42.97C51.33 44.55 51.2501 46.13 51.1701 47.7C51.1201 48.7 51.0701 49.6 51.0301 50.55C50.9701 51.7701 50.93 52.9799 50.88 54.2L50.8101 55.96V56.86L49.24 57.1801L49.0401 56.98L48.9301 56.88C48.816 56.781 48.709 56.6741 48.61 56.5601C48.3923 56.3486 48.1236 56.197 47.83 56.12H47.6801C45.624 55.3966 43.6604 54.4333 41.83 53.25C41.18 52.81 40.48 52.39 39.83 51.99L39.02 51.5L36.77 50.15L35.0301 49.15L34.0301 48.5699L31.96 50.74C29.51 53.31 27.06 55.8699 24.62 58.45C24.03 59.08 23.45 59.72 22.87 60.37C22.57 60.7 22.27 61.04 21.96 61.37L21.9101 61.4301C21.7308 61.6579 21.4969 61.8367 21.23 61.95C21.1146 62.1988 20.9169 62.4002 20.6701 62.52C20.5401 62.59 20.4201 62.67 20.3001 62.75C20.1068 62.818 19.8973 62.825 19.7 62.77ZM2.69998 32.13C3.31842 32.718 3.9877 33.25 4.69998 33.72C5.89228 34.4837 7.14279 35.1524 8.43997 35.72C9.83997 36.35 11.2801 36.9699 12.6701 37.5699L14.73 38.45L15.0501 38.6C15.2721 38.73 15.5161 38.8182 15.77 38.86C15.8757 38.8706 15.9781 38.9026 16.071 38.9542C16.1638 39.0058 16.2452 39.0759 16.3101 39.16C16.3763 39.2476 16.4237 39.3477 16.4495 39.4543C16.4753 39.561 16.4788 39.6719 16.46 39.78C16.4552 39.8366 16.4552 39.8934 16.46 39.95V40.17C16.4739 40.293 16.4739 40.4171 16.46 40.54C16.46 40.61 16.46 40.67 16.39 40.73V40.8C16.2439 43.1351 16.3175 45.4788 16.61 47.8C16.77 49.07 16.98 50.7401 17.24 52.4301C17.4357 53.8431 17.7196 55.2424 18.09 56.62C18.4416 57.9802 19.0455 59.2625 19.87 60.4L19.97 60.28C20.19 60.02 20.41 59.75 20.64 59.5C20.87 59.25 21.09 59.03 21.32 58.79C21.55 58.55 21.69 58.42 21.86 58.24L22.5401 57.51C22.8001 57.21 23.07 56.92 23.34 56.64L32.13 47.42L33.24 46.25L34.38 45.03C34.5424 44.831 34.7752 44.7021 35.0301 44.67H35.13C35.5029 44.6901 35.8689 44.7782 36.21 44.9301C36.5342 45.1145 36.8451 45.3217 37.14 45.55L37.4201 45.76L38.4201 46.4399C39.0001 46.8699 39.61 47.32 40.22 47.73C42.87 49.51 45.95 51.6499 48.96 54.0699L49.22 48.41L49.2901 46.88C49.3601 45.41 49.43 43.88 49.48 42.4C49.5158 41.1968 49.4523 39.9928 49.2901 38.8C49.2801 38.7217 49.2527 38.6464 49.21 38.58C49.1159 38.4302 49.0661 38.2569 49.0661 38.08C49.0661 37.9031 49.1159 37.7298 49.21 37.58C49.32 37.36 49.42 37.13 49.51 36.91L49.6701 36.55C49.724 36.4271 49.784 36.3068 49.85 36.1899L50.1601 35.76L50.5601 35.17C52.3778 32.5167 54.0083 29.74 55.44 26.86L56.9301 23.77L57.9301 21.77H57.7801L57.27 21.67C56.44 21.51 55.58 21.33 54.73 21.22C53.0176 20.9465 51.2835 20.8327 49.5501 20.88H49.07C46.7177 21.0191 44.3783 21.3266 42.07 21.8C41.0638 21.9496 40.1038 22.322 39.26 22.89C39.0694 23.054 38.8309 23.1522 38.58 23.17C38.3647 23.1744 38.1534 23.1124 37.9745 22.9926C37.7956 22.8727 37.6579 22.7007 37.58 22.5C37.44 22.24 37.32 21.97 37.2 21.7L36.11 19.17C35.4433 17.5967 34.7767 16.0266 34.11 14.46C32.9369 11.6983 31.3337 9.13999 29.36 6.88C28.0814 5.43253 26.6072 4.17039 24.98 3.13L24.9001 3.20996C24.6085 3.49219 24.3801 3.83301 24.23 4.20996C23.95 4.89996 23.7301 5.48998 23.5401 6.09998C22.9922 7.95109 22.5975 9.84418 22.36 11.76C21.91 15.02 21.4801 18.3 21.0501 21.65C20.9601 22.31 20.9 22.96 20.83 23.65C20.83 24.05 20.75 24.45 20.7 24.86C20.6824 25.0499 20.6171 25.2322 20.51 25.39C20.3904 25.6019 20.2252 25.7845 20.0263 25.9246C19.8274 26.0647 19.5998 26.1587 19.36 26.2L18.94 26.29L18.6501 26.37C15.7404 26.9979 12.8718 27.8028 10.0601 28.78L9.86001 28.86C8.13066 29.4403 6.43185 30.1078 4.77005 30.86C4.01749 31.1836 3.31401 31.6111 2.68008 32.13H2.69998ZM12.4201 39.73C12.8498 43.7713 13.7975 47.7406 15.24 51.54C14.6381 47.9298 14.4135 44.2667 14.57 40.61L12.4201 39.73ZM38.0501 48.73L38.58 49.05L35.87 47.15C35.7461 47.0525 35.6119 46.9687 35.47 46.9L35.2801 47.09L38.0501 48.73ZM12.34 23.3101C11.66 23.7101 10.96 24.1299 10.34 24.5699C9.71999 25.0099 8.92002 25.5701 8.24002 26.0601L7.31997 26.73L6.74002 27.15L5.58999 27.98C5.35019 28.1501 5.12301 28.3373 4.91006 28.54C6.75006 27.73 8.61998 27.0799 10.45 26.4399H10.6C12.8994 25.6848 15.2357 25.0474 17.6 24.53L17.39 24.41C17.073 24.2153 16.7382 24.0512 16.39 23.92C15.82 23.71 15.2301 23.54 14.6501 23.36L13.6501 23.0699C13.4898 23.0199 13.3328 22.9598 13.1801 22.89L12.34 23.3101ZM14.89 21.52L16.11 21.88C16.6859 22.0703 17.2502 22.2941 17.8001 22.55C18.1101 22.7 18.41 22.8801 18.71 23.0601L18.84 21.92C18.97 20.86 19.1 19.79 19.25 18.72L19.37 17.8199C19.69 15.3699 20.03 12.82 20.37 10.33C20.5452 9.0834 20.7923 7.84805 21.11 6.63C19.9273 8.36117 18.884 10.1835 17.99 12.08C16.91 14.37 15.9901 16.8 15.1601 19.14V19.21C14.9667 19.73 14.7867 20.24 14.62 20.74L14.47 21.1801L14.62 21.4399L14.89 21.52ZM37.4301 17.3C37.7701 18.15 38.5 19.83 38.88 20.62C39.7347 20.2357 40.6306 19.9506 41.5501 19.77C42.9001 19.47 44.29 19.29 45.62 19.12H45.89C46.98 18.98 47.99 18.89 48.98 18.84H50.0601L47.3001 18.16C45.7501 17.79 44.08 17.4 42.36 17.16C41.5519 17.0477 40.7351 17.0109 39.9201 17.05C39.0775 17.0731 38.2382 17.1633 37.4101 17.3199L37.4301 17.3Z" fill="black"/>
</g>
</svg>
