<svg width="91" height="95" viewBox="0 0 91 95" fill="none" xmlns="http://www.w3.org/2000/svg">
<g id="bgStar8">
<path id="Vector" d="M43 15.63C46.2869 13.08 50.1095 11.3088 54.18 10.45C58.92 9.44998 63.67 8.45003 68.46 7.75003C71.0009 7.35866 73.5803 7.28143 76.14 7.52005C76.4729 7.54389 76.8071 7.54389 77.14 7.52005C77.74 7.52005 78.35 7.42998 78.95 7.44998C79.2065 7.46282 79.4482 7.57388 79.625 7.76004C79.8019 7.9462 79.9004 8.19321 79.9 8.44998C80.0345 15.1318 79.7003 21.8149 78.9 28.45C78.53 31.29 78.06 34.12 77.61 36.96C77.5579 37.2017 77.5559 37.4515 77.604 37.694C77.6522 37.9365 77.7495 38.1666 77.89 38.37C79.2352 40.4389 80.3645 42.6404 81.26 44.94C82.77 48.66 84.19 52.4201 85.66 56.1601C86.66 58.8301 87.78 61.4901 88.84 64.1601C88.93 64.3901 89.02 64.61 89.12 64.88L87.95 65.7C87.6844 65.6232 87.4238 65.5298 87.17 65.4201C86.4985 65.1466 85.7621 65.0736 85.05 65.21C81.664 65.492 78.2565 65.3678 74.9 64.84C73.15 64.53 71.38 64.36 69.62 64.14C68.24 63.96 66.86 63.79 65.47 63.63C64.41 63.5 63.35 63.39 62.28 63.2701L59.83 63.0201C59.7632 63.1245 59.7063 63.235 59.66 63.35C57.2 70.2633 54.75 77.1733 52.31 84.08C51.61 86.08 50.99 88.08 50.31 90.08C50.2353 90.5017 50.0204 90.8859 49.7 91.1701C49.6565 91.2204 49.6243 91.2794 49.6053 91.3432C49.5863 91.407 49.5811 91.4741 49.59 91.5401C49.6047 91.8253 49.5078 92.1049 49.32 92.32C49.16 92.53 49.02 92.75 48.88 92.97C48.8411 93.063 48.7797 93.145 48.7014 93.2085C48.623 93.272 48.5302 93.3151 48.4311 93.3339C48.332 93.3527 48.2298 93.3468 48.1337 93.3164C48.0375 93.2861 47.9503 93.2324 47.88 93.1601C47.07 92.6301 46.26 92.16 45.44 91.6C45.3323 91.5097 45.1999 91.4539 45.06 91.44C44.5927 91.4114 44.1473 91.2326 43.79 90.9301C41.4685 89.3865 39.3047 87.618 37.33 85.6501C34.1099 82.5619 31.0715 79.2897 28.23 75.85C25.4709 72.5171 23.0584 68.9118 21.03 65.09C20.9484 64.8995 20.8061 64.7413 20.6252 64.64C20.4444 64.5388 20.2351 64.5001 20.03 64.5301C16.8402 64.6151 13.6482 64.5149 10.47 64.23C8.25364 64.0394 6.06431 63.6102 3.94001 62.95C3.42192 62.788 2.91431 62.5944 2.42002 62.37C2.12646 62.2349 1.85098 62.0636 1.60001 61.86C1.45692 61.7418 1.3534 61.5826 1.30335 61.4038C1.2533 61.2251 1.25913 61.0354 1.32001 60.86C1.56001 59.92 1.80002 58.9901 1.98002 58.0401C2.41845 55.4646 3.32326 52.9906 4.65 50.74C6.26 48.08 7.78001 45.36 9.41001 42.74C10.25 41.39 11.25 40.13 12.2 38.85C12.3149 38.7122 12.4007 38.5525 12.4522 38.3806C12.5038 38.2088 12.52 38.0283 12.5 37.85C12.36 36.26 12.2 34.67 12.1 33.08C11.85 29.31 11.6 25.54 11.67 21.76C11.7873 16.4449 12.512 11.1605 13.83 6.01004C14.09 5.01004 14.42 3.94997 14.78 2.93997C14.95 2.46832 15.1929 2.02633 15.5 1.63004C15.84 1.17004 16.1 1.19006 16.57 1.53006C16.7077 1.64101 16.8742 1.71034 17.05 1.73001C20.932 2.16575 24.7102 3.26507 28.22 4.98001C32.6901 7.16949 36.806 10.018 40.43 13.4301L42.48 15.32L43 15.63ZM3.32999 60.9301C3.35413 60.9622 3.38091 60.9923 3.41001 61.0201L3.85001 61.21C5.29541 61.7318 6.78958 62.107 8.31 62.33C10.5855 62.6948 12.8855 62.8854 15.19 62.9001C18.82 62.9001 22.45 62.8201 26.09 62.7801C26.7583 62.8491 27.4333 62.812 28.09 62.6701C28.1414 62.6455 28.198 62.6339 28.2549 62.6361C28.3118 62.6384 28.3673 62.6544 28.4166 62.683C28.4658 62.7116 28.5074 62.7518 28.5376 62.8001C28.5678 62.8483 28.5858 62.9032 28.59 62.96C28.6722 63.1861 28.769 63.4066 28.88 63.62C28.9259 63.7472 28.9626 63.8776 28.99 64.01C28.9946 64.2013 29.0147 64.3919 29.05 64.58C30.3697 68.1051 32.0275 71.4942 34 74.7C35.28 76.83 36.58 78.9501 37.92 81.0401C39.1348 82.995 40.4707 84.872 41.92 86.6601C43.4802 88.6286 45.4312 90.2528 47.65 91.4301L48.18 91.6801C48.24 91.4201 48.29 91.21 48.35 91C48.55 90.3 48.73 89.5901 48.96 88.9101C49.26 88.0301 49.61 87.1701 49.91 86.2901C50.29 85.2001 50.63 84.1001 51.02 83.0201C53.2734 76.66 55.5333 70.3033 57.8 63.95C58.38 62.31 58.94 60.6701 59.52 59.0301C59.58 58.8501 59.68 58.6001 59.82 58.5501C60.2734 58.3747 60.754 58.2799 61.24 58.2701C61.9739 58.3555 62.702 58.4857 63.42 58.6601C65.19 59.0201 66.94 59.43 68.71 59.74C74.62 60.74 80.5 61.93 86.3 63.5C86.5 63.56 86.72 63.66 86.95 63.44C86.83 63.15 86.72 62.8501 86.6 62.5501C85.45 59.6201 84.31 56.68 83.15 53.75C81.99 50.82 80.84 47.75 79.63 44.85C78.891 43.0336 77.9978 41.2839 76.96 39.62C76.8259 39.4027 76.6448 39.2182 76.43 39.08C76.3163 39.0157 76.2253 38.9177 76.1698 38.7995C76.1143 38.6812 76.0969 38.5486 76.12 38.4201C76.12 37.8101 76.12 37.21 76.12 36.61C76.105 36.447 76.105 36.283 76.12 36.12C76.24 35.47 76.38 34.8201 76.49 34.1701C77.3991 29.1002 77.9703 23.9755 78.2 18.83C78.27 15.83 78.37 12.77 78.46 9.75003C78.46 9.49003 78.46 9.24007 78.41 8.91007C77.988 8.91073 77.5668 8.94414 77.15 9.01004C75.54 9.38004 73.92 9.72997 72.33 10.19C69.3614 10.9792 66.4852 12.0821 63.75 13.48C60.4133 15.2113 57.2051 17.1797 54.15 19.37C52.6844 20.3085 51.4502 21.5667 50.54 23.0501C50.18 23.7101 49.75 23.7601 49.15 23.3001C48.8 23.0201 48.47 22.7201 48.15 22.4201C45.06 19.6001 41.99 16.77 38.9 13.96C35.3473 10.6582 31.2979 7.93506 26.9 5.89005C23.9953 4.55782 20.9135 3.65175 17.75 3.19998L17.06 3.14005C17.0292 3.40089 16.9757 3.65856 16.9 3.91007C16.6118 4.64428 16.4889 5.43291 16.54 6.22C16.59 7.31 16.65 8.40001 16.78 9.48001C17.1953 12.5665 17.8642 15.6134 18.78 18.59C20.2467 23.67 21.7467 28.7434 23.28 33.8101C23.77 35.4301 24.28 37.0301 24.84 38.6501C24.8877 38.8235 24.8877 39.0066 24.84 39.1801C24.817 39.4419 24.7359 39.6953 24.6027 39.9219C24.4695 40.1485 24.2876 40.3425 24.07 40.49C23.73 40.71 23.43 40.98 23.07 41.22C19.2181 44.0365 15.5444 47.089 12.07 50.36C9.88001 52.48 7.68002 54.6001 5.70002 56.9201C4.67738 58.1102 3.86567 59.4664 3.29999 60.9301H3.32999ZM22.94 38C22.88 37.74 22.84 37.5701 22.79 37.4001C22.05 34.9601 21.28 32.54 20.56 30.1C19.29 25.8 18.01 21.51 16.82 17.19C15.8032 13.7603 15.1956 10.2225 15.01 6.65006C14.9808 6.54134 14.9371 6.43701 14.88 6.34C14.78 6.73 14.7 6.99005 14.64 7.27005C13.5512 11.9327 12.938 16.6937 12.81 21.48C12.74 25.58 13.02 29.67 13.29 33.76C13.37 35.02 13.5 36.29 13.6 37.46L14.6 38.1801C15.46 38.0701 16.39 37.91 17.34 37.82C18.2601 37.7251 19.1851 37.6851 20.11 37.7C21 37.75 22 37.91 22.94 38ZM71.85 8.70999V8.62003C71.71 8.62003 71.58 8.62003 71.44 8.62003C70.6 8.70003 69.74 8.72002 68.91 8.86002C65.91 9.37335 62.91 9.89997 59.91 10.44C57.25 10.93 54.6 11.44 52 12.21C49.0802 13.091 46.3503 14.5086 43.95 16.39C45.7315 18.2454 47.6322 19.9824 49.64 21.59C50.6762 20.2502 51.9143 19.0796 53.31 18.12C55.16 16.74 57.13 15.56 59.09 14.36C62.5218 12.201 66.2194 10.4968 70.09 9.29007C70.68 9.12007 71.26 8.92001 71.85 8.73001V8.70999ZM13.16 39.4001C13.0661 39.4871 12.9822 39.5843 12.91 39.69C11.91 41.18 10.79 42.6901 9.82001 44.1701C8.85001 45.6501 7.82001 47.5801 6.82001 49.2901C6.25001 50.2901 5.68 51.29 5.12 52.22C4.28209 53.7661 3.68839 55.4325 3.35999 57.1601C3.35104 57.2665 3.35104 57.3735 3.35999 57.48C6.22011 53.9903 9.34613 50.7272 12.71 47.72C15.99 44.65 19.6 41.98 23.25 39.19C22.51 39.1 21.9 39 21.25 38.95C20.4307 38.8501 19.6052 38.81 18.78 38.83C17.28 38.95 15.78 39.2 14.28 39.37C14 39.43 13.63 39.4101 13.16 39.4201V39.4001ZM22.01 64.4001C26.68 73.1501 33.24 80.17 40.35 86.73C35.46 79.61 30.71 72.42 27.71 64.21L22.01 64.4001ZM82.15 64.09V63.9201C82 63.9201 81.84 63.92 81.69 63.86C80.25 63.54 78.82 63.19 77.37 62.86C72.37 61.86 67.37 60.86 62.37 59.86C61.8733 59.76 61.3655 59.7263 60.86 59.76L60.11 61.76L61.78 61.95L66.28 62.47L68.69 62.76C70.79 63.02 72.9 63.23 74.99 63.57C77.1436 63.9045 79.3206 64.0651 81.5 64.0501C81.76 64.1601 82 64.13 82.15 64.12V64.09Z" fill="black"/>
<path id="Vector_2" d="M3.29999 60.9301C3.88188 59.4664 4.71058 58.1135 5.75 56.9301C7.75 54.6101 9.93 52.49 12.12 50.37C15.5943 47.099 19.268 44.0465 23.12 41.23C23.45 40.99 23.75 40.72 24.12 40.5C24.3376 40.3525 24.5196 40.1585 24.6527 39.9319C24.7859 39.7053 24.867 39.4518 24.89 39.1899C24.9377 39.0165 24.9377 38.8335 24.89 38.66C24.38 37.04 23.82 35.4399 23.33 33.8199C21.81 28.7466 20.31 23.6733 18.83 18.6C17.9142 15.6234 17.2452 12.5764 16.83 9.48999C16.7 8.40999 16.64 7.31998 16.59 6.22998C16.5389 5.44289 16.6618 4.65426 16.95 3.92004C17.0257 3.66854 17.0792 3.41087 17.11 3.15002L17.8 3.20996C20.9635 3.66173 24.0453 4.5678 26.95 5.90002C31.3479 7.94504 35.3973 10.6682 38.95 13.97C42.04 16.78 45.11 19.6101 48.2 22.4301C48.52 22.7301 48.85 23.0301 49.2 23.3101C49.8 23.7701 50.2 23.7201 50.59 23.0601C51.5002 21.5767 52.7344 20.3185 54.2 19.38C57.2551 17.1897 60.4633 15.2213 63.8 13.49C66.5352 12.0921 69.4114 10.9892 72.38 10.2C73.97 9.73995 75.59 9.39002 77.2 9.02002C77.6168 8.95412 78.0381 8.92071 78.46 8.92004C78.46 9.25004 78.52 9.50001 78.51 9.76001C78.42 12.76 78.32 15.76 78.25 18.84C78.0203 23.9855 77.449 29.1102 76.54 34.1801C76.43 34.8301 76.29 35.48 76.17 36.13C76.155 36.293 76.155 36.457 76.17 36.62C76.17 37.22 76.17 37.8201 76.17 38.4301C76.1469 38.5586 76.1642 38.6912 76.2198 38.8094C76.2753 38.9277 76.3663 39.0257 76.48 39.09C76.6948 39.2281 76.8759 39.4127 77.01 39.63C78.0477 41.2939 78.941 43.0436 79.68 44.86C80.89 47.86 82.03 50.79 83.2 53.76C84.37 56.73 85.5 59.6301 86.65 62.5601C86.77 62.8601 86.88 63.16 87 63.45C86.77 63.67 86.55 63.57 86.35 63.51C80.55 61.94 74.67 60.79 68.76 59.75C66.99 59.44 65.24 59.03 63.47 58.67C62.7519 58.4957 62.0239 58.3654 61.29 58.28C60.8039 58.2899 60.3234 58.3847 59.87 58.5601C59.73 58.5601 59.63 58.86 59.57 59.04C58.99 60.68 58.43 62.32 57.85 63.96C55.59 70.32 53.33 76.6767 51.07 83.03C50.68 84.11 50.34 85.2101 49.96 86.3C49.66 87.18 49.31 88.04 49.01 88.92C48.78 89.6 48.6 90.31 48.4 91.01C48.34 91.22 48.29 91.4299 48.23 91.6899L47.7 91.4399C45.4812 90.2626 43.5302 88.6386 41.97 86.67C40.5207 84.882 39.1848 83.005 37.97 81.05C36.63 78.9601 35.33 76.84 34.05 74.71C32.0912 71.5026 30.447 68.1135 29.14 64.59C29.1047 64.4019 29.0846 64.2113 29.08 64.02C29.0526 63.8876 29.0159 63.7572 28.97 63.63C28.859 63.4166 28.7621 63.1961 28.68 62.97C28.6758 62.9132 28.6578 62.8583 28.6276 62.8101C28.5974 62.7618 28.5558 62.7216 28.5066 62.693C28.4573 62.6644 28.4018 62.6483 28.3449 62.646C28.288 62.6437 28.2314 62.6555 28.18 62.6801C27.5233 62.822 26.8483 62.8591 26.18 62.79C22.54 62.79 18.91 62.92 15.28 62.91C12.9755 62.8954 10.6755 62.7047 8.39999 62.34C6.87957 62.117 5.3854 61.7417 3.94 61.22L3.5 61.03C3.42859 61.0072 3.36112 60.9735 3.29999 60.9301ZM44.76 45.9301L44.19 46.4301L39.97 49.86C39.8701 49.932 39.7765 50.0123 39.69 50.1C39.6283 50.1451 39.5765 50.2025 39.5378 50.2684C39.499 50.3344 39.4742 50.4075 39.4648 50.4834C39.4555 50.5593 39.4618 50.6362 39.4833 50.7096C39.5048 50.783 39.5411 50.8512 39.59 50.91C39.6874 51.0149 39.8206 51.0792 39.9633 51.0903C40.1059 51.1014 40.2475 51.0584 40.36 50.97C40.4797 50.8956 40.5934 50.812 40.7 50.72C41.4 50.15 42.12 49.58 42.81 49C43.99 48.02 45.16 47.02 46.32 46C46.5718 45.7659 46.7966 45.5042 46.99 45.22C47.0425 45.1644 47.0828 45.0985 47.1083 45.0265C47.1339 44.9545 47.1443 44.878 47.1386 44.8018C47.133 44.7255 47.1115 44.6513 47.0756 44.5839C47.0396 44.5164 46.9901 44.4573 46.93 44.41C46.69 44.22 46.41 44.2701 46.13 44.55L45.77 44.9301C45.2586 44.5007 44.9298 43.8929 44.85 43.23C45.18 42.98 45.48 42.77 45.75 42.53C46.02 42.29 46.12 41.9301 45.92 41.6801C45.72 41.4301 45.41 41.4201 45.06 41.6801C44.86 41.8101 44.67 41.97 44.47 42.1L38.66 45.8199C38.15 46.1399 37.66 46.4799 37.15 46.8199C37.0806 46.8529 37.0187 46.8995 36.9678 46.957C36.9169 47.0145 36.8781 47.0818 36.8538 47.1547C36.8295 47.2275 36.8202 47.3044 36.8264 47.381C36.8327 47.4575 36.8543 47.532 36.89 47.6C36.9724 47.7295 37.1021 47.8218 37.2515 47.8573C37.4008 47.8928 37.5581 47.8687 37.69 47.79C37.8739 47.7071 38.0511 47.6102 38.22 47.5L43.13 44.29L43.76 43.9301L44.76 45.9301ZM26.31 30L26.42 30.22C26.61 30.59 26.9 30.73 27.19 30.6C27.2584 30.566 27.3194 30.5188 27.3696 30.4612C27.4197 30.4035 27.4579 30.3365 27.4821 30.264C27.5062 30.1916 27.5159 30.115 27.5103 30.0388C27.5048 29.9626 27.4843 29.8882 27.45 29.8199C27.33 29.4799 27.19 29.1399 27.06 28.8199C26.33 26.8199 25.54 24.95 24.89 22.97C23.57 19.03 22.41 15.03 21.45 10.97C21.435 10.8277 21.367 10.6963 21.2596 10.6018C21.1521 10.5073 21.013 10.4567 20.87 10.46C20.7259 10.4677 20.5906 10.5319 20.4933 10.6385C20.396 10.7452 20.3445 10.8858 20.35 11.03C20.3432 11.2903 20.3769 11.5501 20.45 11.8C20.9567 13.7134 21.48 15.6234 22.02 17.53C23.1904 21.7715 24.6231 25.9362 26.31 30ZM58.82 36.88L58.26 37.37L55.85 39.49C55.6987 39.624 55.5674 39.7788 55.46 39.95C55.3868 40.0487 55.3533 40.1714 55.3663 40.2937C55.3792 40.416 55.4377 40.5288 55.53 40.61C55.6123 40.7 55.7241 40.7577 55.8452 40.7723C55.9662 40.787 56.0886 40.7577 56.19 40.6899C56.3063 40.6079 56.4166 40.5178 56.52 40.42C57.5541 39.3733 58.6896 38.4319 59.91 37.61C60.01 37.55 60.07 37.43 60.15 37.35C60.23 37.27 60.48 36.9899 60.65 36.8199C60.82 36.6499 61.25 36.28 61.52 35.99C61.6787 35.8343 61.7897 35.6366 61.84 35.42C61.8464 35.3242 61.8337 35.228 61.8028 35.1371C61.7719 35.0461 61.7234 34.9622 61.66 34.89C61.5769 34.8134 61.468 34.7709 61.355 34.7709C61.242 34.7709 61.1331 34.8134 61.05 34.89C60.9293 34.9957 60.8157 35.1093 60.71 35.23L59.81 36.0601C59.4974 35.5399 59.2712 34.9725 59.14 34.38C58.97 33.84 58.99 33.83 59.46 33.49C59.65 33.34 59.85 33.21 60.03 33.04C60.0917 32.9949 60.1435 32.9375 60.1823 32.8716C60.221 32.8056 60.2458 32.7325 60.2552 32.6566C60.2646 32.5807 60.2583 32.5037 60.2368 32.4303C60.2152 32.3569 60.1789 32.2888 60.13 32.23C60.0339 32.1237 59.9014 32.0574 59.7587 32.0444C59.616 32.0315 59.4736 32.0728 59.36 32.16C59.27 32.21 59.2 32.27 59.11 32.33L57.51 33.42C56.45 34.19 55.38 34.95 54.34 35.74C53.89 36.08 53.82 36.43 54.04 36.74C54.26 37.05 54.6 37.01 55.04 36.67C55.86 36.06 56.69 35.44 57.52 34.84C57.6565 34.7512 57.8004 34.6743 57.95 34.61L58.82 36.88Z" fill="#EBC36E"/>
<path id="Vector_3" d="M22.94 38C21.94 37.89 21.03 37.73 20.09 37.7C19.1651 37.685 18.2401 37.7251 17.32 37.8199C16.37 37.9099 15.44 38.0701 14.58 38.1801L13.58 37.46C13.48 36.29 13.35 35.02 13.27 33.76C13 29.67 12.72 25.58 12.79 21.48C12.918 16.6936 13.5311 11.9326 14.62 7.27002C14.68 6.99002 14.76 6.72997 14.86 6.33997C14.9171 6.43697 14.9608 6.54131 14.99 6.65002C15.1756 10.2224 15.7832 13.7603 16.8 17.1899C17.99 21.5099 19.27 25.8 20.54 30.1C21.26 32.54 22.03 34.96 22.77 37.4C22.84 37.59 22.88 37.76 22.94 38Z" fill="#A3784C"/>
<path id="Vector_4" d="M71.85 8.72998C71.26 8.91998 70.68 9.12005 70.09 9.30005C66.2193 10.5067 62.5218 12.2109 59.09 14.37C57.09 15.57 55.16 16.75 53.31 18.13C51.9143 19.0896 50.6762 20.2602 49.64 21.6C47.6322 19.9923 45.7315 18.2554 43.95 16.4C46.3503 14.5186 49.0802 13.101 52 12.22C54.6 11.47 57.25 10.94 59.91 10.45C62.91 9.90995 65.91 9.38333 68.91 8.87C69.74 8.73 70.6 8.71 71.44 8.63C71.58 8.63 71.71 8.63 71.85 8.63V8.72998Z" fill="#A3784C"/>
<path id="Vector_5" d="M13.16 39.42C13.63 39.42 13.96 39.42 14.29 39.42C15.79 39.25 17.29 39 18.79 38.88C19.6152 38.86 20.4407 38.9001 21.26 39C21.88 39 22.49 39.15 23.26 39.24C19.61 42.03 16 44.7 12.72 47.77C9.35613 50.7772 6.23012 54.0403 3.36999 57.53C3.36104 57.4235 3.36104 57.3164 3.36999 57.21C3.6984 55.4824 4.2921 53.8161 5.13 52.27C5.69 51.27 6.25999 50.27 6.82999 49.34C7.82999 47.63 8.76999 45.89 9.82999 44.22C10.89 42.55 11.88 41.22 12.92 39.74C12.9872 39.6243 13.0678 39.5169 13.16 39.42Z" fill="#A3784C"/>
<path id="Vector_6" d="M22 64.4301L27.7 64.24C30.7 72.45 35.45 79.64 40.34 86.76C33.24 80.2 26.68 73.1801 22 64.4301Z" fill="#A3784C"/>
<path id="Vector_7" d="M82.15 64.1199C81.95 64.1199 81.76 64.1199 81.57 64.1199C79.3906 64.135 77.2136 63.9745 75.06 63.64C72.97 63.3 70.86 63.0899 68.76 62.8299L66.35 62.54L61.85 62.02L60.18 61.8299L60.93 59.8299C61.4355 59.7962 61.9433 59.8299 62.44 59.93C67.44 60.93 72.44 61.93 77.44 62.93C78.89 63.21 80.32 63.56 81.76 63.93C81.91 63.93 82.07 63.9299 82.22 63.9899L82.15 64.1199Z" fill="#A3784C"/>
<path id="Vector_8" d="M44.76 45.9L43.76 43.9L43.13 44.26L38.22 47.47C38.0511 47.5801 37.8739 47.6771 37.69 47.76C37.5582 47.8387 37.4008 47.8627 37.2515 47.8273C37.1021 47.7918 36.9724 47.6995 36.89 47.5699C36.8543 47.502 36.8327 47.4275 36.8265 47.351C36.8202 47.2744 36.8295 47.1975 36.8538 47.1246C36.8781 47.0518 36.9169 46.9846 36.9678 46.9271C37.0187 46.8696 37.0806 46.823 37.15 46.79C37.64 46.45 38.15 46.11 38.66 45.79L44.47 42.0699C44.67 41.9399 44.86 41.78 45.06 41.65C45.41 41.41 45.72 41.42 45.92 41.65C46.12 41.88 46.07 42.22 45.75 42.5C45.43 42.78 45.18 42.95 44.85 43.2C44.9298 43.8629 45.2587 44.4707 45.77 44.9L46.13 44.52C46.41 44.24 46.69 44.19 46.93 44.38C46.9901 44.4272 47.0397 44.4865 47.0756 44.554C47.1115 44.6214 47.133 44.6955 47.1386 44.7717C47.1443 44.8479 47.1339 44.9246 47.1083 44.9966C47.0828 45.0686 47.0425 45.1344 46.99 45.1899C46.7966 45.4742 46.5719 45.7359 46.32 45.97C45.16 46.97 43.99 47.97 42.81 48.97C42.12 49.55 41.4 50.1199 40.7 50.6899C40.5934 50.782 40.4797 50.8656 40.36 50.9399C40.2475 51.0284 40.1059 51.0714 39.9633 51.0603C39.8206 51.0492 39.6874 50.9848 39.59 50.88C39.5411 50.8212 39.5048 50.7531 39.4833 50.6797C39.4618 50.6063 39.4555 50.5293 39.4649 50.4534C39.4742 50.3775 39.499 50.3043 39.5378 50.2384C39.5765 50.1725 39.6283 50.1151 39.69 50.0699C39.7765 49.9823 39.8701 49.902 39.97 49.83L44.19 46.4L44.76 45.9Z" fill="black"/>
<path id="Vector_9" d="M26.31 30C24.6227 25.933 23.1899 21.7649 22.02 17.52C21.48 15.6067 20.9567 13.6967 20.45 11.7901C20.3769 11.5401 20.3432 11.2803 20.35 11.02C20.3445 10.8758 20.396 10.7352 20.4933 10.6286C20.5905 10.5219 20.7258 10.4578 20.87 10.45C21.013 10.4467 21.1521 10.4973 21.2595 10.5918C21.367 10.6863 21.435 10.8177 21.45 10.96C22.45 14.96 23.57 18.96 24.89 22.96C25.54 24.96 26.33 26.8601 27.06 28.8101C27.19 29.1501 27.33 29.4901 27.45 29.8101C27.4843 29.8783 27.5048 29.9526 27.5103 30.0288C27.5158 30.105 27.5062 30.1816 27.4821 30.2541C27.4579 30.3265 27.4197 30.3935 27.3695 30.4512C27.3194 30.5089 27.2584 30.556 27.19 30.59C26.9 30.72 26.61 30.59 26.42 30.21L26.31 30Z" fill="#DCCFBD"/>
<path id="Vector_10" d="M58.82 36.85L57.96 34.5501C57.8104 34.6144 57.6665 34.6913 57.53 34.7801C56.7 35.3801 55.87 36 55.05 36.61C54.6 36.95 54.27 36.9801 54.05 36.6801C53.83 36.3801 53.9 36.0401 54.35 35.6801C55.35 34.8901 56.46 34.13 57.52 33.36L59.12 32.27C59.21 32.21 59.28 32.15 59.37 32.1C59.4836 32.0128 59.626 31.9715 59.7687 31.9845C59.9114 31.9975 60.0439 32.0638 60.14 32.1701C60.1889 32.2289 60.2252 32.297 60.2468 32.3704C60.2683 32.4438 60.2745 32.5208 60.2651 32.5967C60.2558 32.6726 60.231 32.7457 60.1922 32.8117C60.1535 32.8776 60.1017 32.9349 60.04 32.98C59.86 33.15 59.66 33.2801 59.47 33.4301C59 33.7701 58.98 33.78 59.15 34.32C59.2812 34.9125 59.5074 35.4799 59.82 36L60.72 35.1701C60.8257 35.0494 60.9393 34.9357 61.06 34.83C61.1431 34.7534 61.252 34.7108 61.365 34.7108C61.478 34.7108 61.5869 34.7534 61.67 34.83C61.7334 34.9021 61.7819 34.9861 61.8128 35.0771C61.8437 35.168 61.8563 35.2642 61.85 35.36C61.7996 35.5766 61.6887 35.7743 61.53 35.9301C61.26 36.2201 60.95 36.48 60.66 36.76C60.37 37.04 60.33 37.1101 60.16 37.2901C59.99 37.4701 60.02 37.4901 59.92 37.5501C58.6996 38.372 57.5641 39.3133 56.53 40.36C56.4266 40.4577 56.3163 40.548 56.2 40.63C56.0986 40.6978 55.9762 40.727 55.8552 40.7123C55.7341 40.6976 55.6222 40.6401 55.54 40.5501C55.4476 40.4689 55.3892 40.3559 55.3762 40.2337C55.3632 40.1114 55.3967 39.9888 55.47 39.89C55.5774 39.7189 55.7087 39.564 55.86 39.4301L58.27 37.3101L58.82 36.85Z" fill="black"/>
<path id="Vector_11" d="M49 93.9399C48.7574 94.0577 48.4871 94.106 48.2188 94.0796C47.9505 94.0531 47.6947 93.9529 47.4799 93.79L45.0499 92.2299C44.5013 92.186 43.977 91.9846 43.54 91.65L43.4299 91.5899C41.0698 90.0071 38.8665 88.2022 36.85 86.1999C33.6092 83.0859 30.5476 79.7906 27.6799 76.3299C24.8874 72.9505 22.4418 69.2989 20.38 65.43C20.3642 65.3891 20.3404 65.3516 20.31 65.3199H20.17C16.9467 65.4048 13.7212 65.3014 10.51 65.01C8.23294 64.8142 5.98341 64.3749 3.79994 63.6999C3.25257 63.5222 2.71514 63.3153 2.18996 63.0799C1.83134 62.913 1.49533 62.7013 1.18996 62.4499C0.922261 62.2307 0.725988 61.9367 0.626238 61.6054C0.526488 61.2741 0.527793 60.9205 0.629961 60.5899L0.679949 60.4C0.889949 59.55 1.10995 58.67 1.27995 57.81C1.73612 55.1363 2.67471 52.5678 4.04994 50.2299C4.78994 49.0299 5.49995 47.8199 6.20995 46.5999C7.04995 45.1599 7.92994 43.6599 8.82994 42.2099C9.52994 41.0699 10.34 39.9999 11.13 38.9599L11.66 38.26C11.7086 38.2042 11.7452 38.139 11.7675 38.0684C11.7899 37.9979 11.7975 37.9235 11.79 37.8499L11.7099 37.03C11.5899 35.71 11.47 34.38 11.38 33.03V32.9C11.14 29.22 10.8999 25.42 10.9599 21.65C11.0774 16.2506 11.8122 10.8824 13.15 5.64999C13.3799 4.72999 13.6899 3.72998 14.15 2.50998C14.3544 1.95582 14.6373 1.4338 14.9899 0.959927C15.153 0.728903 15.369 0.540379 15.62 0.410001C15.8923 0.296025 16.1918 0.262759 16.4825 0.314175C16.7733 0.365592 17.0432 0.49944 17.26 0.699918C21.261 1.15107 25.1545 2.28778 28.7699 4.06002C33.3164 6.28066 37.5005 9.17677 41.1799 12.65L43.1799 14.4699C44.4819 13.5073 45.8635 12.6577 47.31 11.93C49.4757 10.8568 51.7667 10.0573 54.13 9.55002C59.67 8.34002 64.2299 7.47994 68.4699 6.84994C71.0764 6.44425 73.7229 6.36029 76.3499 6.59994C76.5394 6.61961 76.7304 6.61961 76.9199 6.59994H77.25H77.7999C78.2299 6.59994 78.68 6.59994 79.14 6.59994C79.3811 6.60233 79.6193 6.65348 79.8402 6.75021C80.0611 6.84694 80.2602 6.98722 80.4255 7.16281C80.5908 7.33839 80.7189 7.54561 80.8022 7.77194C80.8855 7.99827 80.9221 8.23909 80.9099 8.47995C81.0459 15.1818 80.7117 21.8849 79.9099 28.54C79.5899 30.96 79.2 33.4 78.82 35.75L78.6099 37.0699C78.5789 37.207 78.5771 37.3492 78.6047 37.487C78.6323 37.6249 78.6886 37.7554 78.77 37.87C80.1451 39.9906 81.301 42.2455 82.2199 44.5999C83.1599 46.9199 84.0699 49.2699 84.9699 51.5999C85.5199 53.0099 86.06 54.4099 86.6199 55.8199C87.3199 57.6199 88.04 59.4099 88.76 61.2099L89.76 63.81L90.28 65.15L88.21 66.62L87.7899 66.4699L87.57 66.4C87.3372 66.3303 87.1099 66.2434 86.89 66.14C86.4382 65.9641 85.9461 65.9191 85.4699 66.01H85.2199C81.77 66.2924 78.2988 66.1615 74.88 65.62C73.64 65.41 72.36 65.26 71.13 65.11L69.63 64.93C68.25 64.75 66.8699 64.58 65.4899 64.42L62.31 64.0699L60.4799 63.88L58.89 68.36C56.9966 73.6933 55.1099 79.0266 53.2299 84.36C52.7799 85.65 52.3599 86.96 51.9299 88.27L51.27 90.27V90.38C51.1597 90.8269 50.9397 91.2393 50.63 91.5799C50.6135 92.015 50.4555 92.4329 50.1799 92.77C50.0375 92.9512 49.9072 93.1415 49.7899 93.3399C49.6011 93.6227 49.323 93.8339 49 93.9399ZM4.45995 60.51C5.76031 60.9635 7.09913 61.2982 8.45995 61.51C10.6921 61.871 12.9488 62.0582 15.2099 62.0699C17.6499 62.0699 20.1399 62.07 22.5499 62H26.1C26.2898 61.99 26.4801 61.99 26.67 62C27.0755 62.0392 27.4847 62.0088 27.88 61.91C28.0418 61.852 28.2142 61.8291 28.3856 61.843C28.557 61.8569 28.7235 61.9072 28.8739 61.9904C29.0244 62.0737 29.1554 62.188 29.2582 62.3259C29.3609 62.4638 29.4331 62.622 29.47 62.79C29.4997 62.8779 29.54 62.9618 29.59 63.04C29.6426 63.1439 29.6894 63.2507 29.73 63.36C29.8114 63.5444 29.8653 63.7398 29.89 63.9399C29.9003 64.0463 29.9003 64.1536 29.89 64.26C29.8845 64.2964 29.8845 64.3335 29.89 64.37C31.1742 67.8493 32.7882 71.1979 34.7099 74.37C35.7599 76.11 37.16 78.3699 38.6199 80.6899C39.8199 82.6139 41.1391 84.4609 42.57 86.2199C43.9487 87.9656 45.6452 89.4349 47.57 90.55L47.64 90.31C47.78 89.78 47.9199 89.31 48.0999 88.74C48.2799 88.17 48.45 87.74 48.63 87.27C48.81 86.8 48.9199 86.5 49.0499 86.12C49.1799 85.74 49.3899 85.12 49.5499 84.62C49.7099 84.12 49.9499 83.4299 50.1599 82.8399C51.4399 79.2199 56.94 63.77 56.94 63.77C57.22 62.97 57.4999 62.1599 57.7899 61.3499L58.6599 58.86C58.7584 58.4473 59.0129 58.0889 59.3699 57.86H59.4299H59.51C60.065 57.6459 60.6551 57.5375 61.25 57.54C61.8431 57.5977 62.4312 57.6979 63.01 57.8399L63.5499 57.9499L65.3499 58.3399C66.4899 58.5799 67.66 58.83 68.81 59.03C73.81 59.91 79.66 61.0299 85.59 62.5699C85.59 62.5699 83.1899 56.4499 82.2999 54.1999L81.4099 51.92C80.5599 49.75 79.68 47.5 78.78 45.31C78.0687 43.537 77.202 41.8302 76.19 40.2099C76.1247 40.1015 76.0358 40.0092 75.9299 39.9399C75.6912 39.7921 75.4977 39.5815 75.3707 39.331C75.2437 39.0806 75.1881 38.8 75.21 38.52C75.21 38.14 75.21 37.75 75.21 37.36V36.74C75.1878 36.5272 75.1878 36.3127 75.21 36.0999C75.26 35.8299 75.31 35.55 75.3699 35.28C75.4299 35.01 75.51 34.53 75.57 34.16C76.4846 29.1282 77.0526 24.0396 77.27 18.93C77.27 17.12 77.3699 15.31 77.4199 13.5L77.53 9.93991H77.28L76.4799 10.12C75.1699 10.42 73.8099 10.73 72.4799 11.12C69.8195 11.8395 67.2291 12.7967 64.7399 13.9799L64.06 14.3299C60.7644 16.0493 57.5933 17.9975 54.57 20.16C53.2092 21.0304 52.0583 22.1916 51.2 23.56C51.0259 23.9214 50.7425 24.2187 50.39 24.41C50.0837 24.5485 49.7424 24.5901 49.4118 24.5294C49.0811 24.4686 48.777 24.3083 48.5399 24.0699C48.1699 23.7899 47.8199 23.47 47.4799 23.16L44.2399 20.16L38.2399 14.66C34.7467 11.4171 30.7646 8.74429 26.44 6.73996C23.643 5.46498 20.6807 4.58977 17.64 4.13998C17.6278 4.19138 17.6111 4.24161 17.59 4.29001C17.3385 4.925 17.2359 5.60917 17.29 6.29001C17.34 7.49001 17.3999 8.47996 17.5199 9.48996C17.9227 12.5382 18.5749 15.5483 19.47 18.49C20.92 23.49 22.47 28.5499 23.98 33.6999C24.28 34.6999 24.5999 35.6999 24.9299 36.6999C25.1299 37.2999 25.34 37.91 25.53 38.52C25.6185 38.8148 25.6423 39.1252 25.6 39.43C25.5619 39.8137 25.439 40.1841 25.2401 40.5145C25.0412 40.8448 24.7713 41.1268 24.45 41.3399C24.26 41.4699 24.08 41.61 23.9 41.75L23.53 42.05C19.7133 44.846 16.073 47.875 12.63 51.12L12.4 51.3499C10.33 53.3499 8.19994 55.41 6.32994 57.62C5.56749 58.4961 4.92211 59.4676 4.40996 60.51H4.45995ZM23.4599 65.24C26.7009 70.828 30.6503 75.974 35.2099 80.55C31.988 75.7045 29.2864 70.5325 27.15 65.12L23.4599 65.24ZM66.46 61.7299L67.46 61.8499L62.2899 60.8499C62.0468 60.7941 61.7991 60.7607 61.5499 60.75L61.39 61.15L66.46 61.7299ZM12.7 41.5C11.98 42.5 11.2299 43.58 10.5499 44.65C9.86994 45.72 9.13997 47 8.47997 48.16C8.17997 48.69 7.87996 49.22 7.56996 49.74L6.99996 50.74C6.61996 51.39 6.23995 52.04 5.86995 52.74C5.6393 53.1477 5.4323 53.5684 5.24996 54C7.39996 51.64 9.68996 49.48 11.94 47.37L12.12 47.1999C14.962 44.6074 17.9396 42.1673 21.04 39.89H20.66C20.0666 39.8131 19.4675 39.7896 18.87 39.8199C17.87 39.8899 16.93 40.03 15.98 40.15L14.4 40.3499C14.1335 40.3659 13.8664 40.3659 13.6 40.3499L12.7 41.5ZM15.2399 37.24C15.8899 37.15 16.5699 37.05 17.2399 36.99C18.1962 36.8852 19.1582 36.8418 20.12 36.86C20.67 36.86 21.2299 36.94 21.7699 37.01L21.23 35.27C20.73 33.64 20.2299 32 19.7399 30.36L19.3299 28.99C18.2099 25.21 17.0599 21.2999 15.9899 17.4399C15.4413 15.5154 14.9973 13.5625 14.66 11.5899C14.0713 14.8659 13.7369 18.1825 13.66 21.51C13.59 25.51 13.86 29.6399 14.13 33.5999V33.7199C14.18 34.5899 14.2599 35.45 14.3299 36.29L14.4 37.02L14.79 37.31L15.2399 37.24ZM45.2399 16.52C46.2399 17.52 48.4299 19.52 49.4899 20.41C50.4791 19.2872 51.5929 18.2807 52.81 17.41C54.57 16.09 56.4699 14.9399 58.2999 13.8299L58.6599 13.61C60.1499 12.7 61.56 11.9099 62.96 11.2099C63.49 10.9499 63.96 10.6999 64.51 10.4699C63.1 10.7199 61.63 10.98 60.08 11.27C57.4425 11.7188 54.8292 12.2995 52.25 13.01C51.0072 13.3761 49.7991 13.8513 48.64 14.43C47.4434 15.0353 46.2965 15.7341 45.2099 16.52H45.2399Z" fill="black"/>
</g>
</svg>
