<svg width="39" height="43" viewBox="0 0 39 43" fill="none" xmlns="http://www.w3.org/2000/svg">
<g id="bgStar2" opacity="0.75">
<path id="Vector" opacity="0.75" d="M21.62 8.87999C23.1882 8.01197 24.9308 7.50627 26.72 7.40001C28.8 7.27001 30.88 7.18004 32.97 7.18004C34.0753 7.18342 35.1763 7.31759 36.25 7.57994C36.3945 7.61192 36.542 7.62873 36.69 7.62999C36.94 7.62999 37.21 7.62995 37.46 7.71995C37.5163 7.72814 37.5703 7.74802 37.6185 7.77818C37.6667 7.80834 37.7081 7.8481 37.74 7.89512C37.772 7.94215 37.7939 7.99533 37.8042 8.05125C37.8145 8.10717 37.8131 8.16461 37.8 8.21995C37.4142 11.0625 36.8362 13.8756 36.07 16.64C35.72 17.83 35.34 19 34.97 20.18C34.9282 20.278 34.9067 20.3834 34.9067 20.49C34.9067 20.5965 34.9282 20.702 34.97 20.8C35.4068 21.7625 35.742 22.768 35.97 23.8C36.37 25.48 36.73 27.17 37.12 28.86C37.39 30.06 37.67 31.26 37.95 32.47C37.9802 32.575 38.0036 32.682 38.02 32.79L37.47 33.06C37.3616 33.0133 37.2578 32.9563 37.16 32.89C36.8903 32.7335 36.5816 32.6573 36.27 32.67C34.8125 32.5681 33.3724 32.2927 31.98 31.85C31.25 31.61 30.51 31.4199 29.78 31.2099L28.04 30.72L26.71 30.36L25.71 30.1C25.6754 30.1399 25.6452 30.1835 25.62 30.23L21.14 38.5699C20.72 39.3699 20.33 40.18 19.92 40.99C19.854 41.1595 19.7391 41.3057 19.59 41.41C19.5459 41.4486 19.5175 41.502 19.51 41.56C19.4989 41.6831 19.4418 41.7973 19.35 41.88C19.2683 41.955 19.1915 42.0352 19.12 42.12C19.0948 42.1531 19.0623 42.18 19.025 42.1985C18.9877 42.217 18.9467 42.2267 18.905 42.2267C18.8634 42.2267 18.8223 42.217 18.785 42.1985C18.7477 42.18 18.7152 42.1531 18.69 42.12L17.76 41.3C17.71 41.3 17.66 41.2099 17.6 41.2099C17.4073 41.1618 17.2332 41.0575 17.1 40.91C16.2149 40.1004 15.411 39.2061 14.7 38.24C13.5258 36.7196 12.4438 35.13 11.46 33.48C10.5005 31.8991 9.70631 30.2236 9.09002 28.48C9.07007 28.3934 9.02192 28.316 8.95312 28.2599C8.88432 28.2037 8.79878 28.1722 8.71001 28.17C7.36318 27.9983 6.02756 27.7479 4.71001 27.42C3.77887 27.188 2.87659 26.8526 2.02001 26.42C1.81001 26.31 1.60002 26.1999 1.40002 26.0699C1.28536 25.9938 1.18115 25.9031 1.09002 25.8C1.03805 25.7404 1.00544 25.6663 0.996512 25.5877C0.987582 25.5092 1.00277 25.4297 1.04003 25.36C1.20003 24.98 1.36002 24.5899 1.50002 24.1999C1.85386 23.1334 2.39946 22.1405 3.11001 21.27C3.97001 20.27 4.79003 19.19 5.66003 18.17C6.10003 17.65 6.60002 17.1699 7.09002 16.6999C7.15026 16.6495 7.19921 16.5869 7.23366 16.5162C7.26812 16.4456 7.28733 16.3686 7.29003 16.29C7.29003 15.61 7.37003 14.92 7.42003 14.29C7.56003 12.67 7.70003 11.0499 7.98003 9.43992C8.371 7.18563 9.02201 4.98433 9.92003 2.87999C10.1 2.45999 10.3 2.05 10.52 1.64C10.6217 1.4501 10.7534 1.27787 10.91 1.12999C11.09 0.949986 11.2 0.979986 11.37 1.12999C11.4271 1.18189 11.4956 1.21956 11.57 1.23997C13.1922 1.68039 14.7275 2.39391 16.11 3.34996C17.869 4.57114 19.4334 6.05121 20.75 7.73997L21.5 8.67003L21.62 8.87999ZM1.80001 25.5799L1.98003 25.6899C2.55789 26.01 3.16792 26.2681 3.80001 26.4599C4.74416 26.7639 5.71038 26.9947 6.69002 27.15C8.24002 27.39 9.79002 27.59 11.34 27.81C11.6241 27.8816 11.9176 27.9085 12.21 27.89C12.32 27.89 12.39 27.89 12.41 28.05C12.4273 28.1523 12.4541 28.2527 12.49 28.35C12.4955 28.4065 12.4955 28.4635 12.49 28.52C12.4796 28.603 12.4796 28.687 12.49 28.77C12.8174 30.3523 13.2963 31.8994 13.92 33.39C14.33 34.39 14.74 35.39 15.17 36.39C15.5638 37.3009 16.0147 38.186 16.52 39.04C17.0579 39.9804 17.7828 40.8005 18.65 41.4499L18.85 41.5899C18.9 41.4799 18.93 41.39 18.97 41.31C19.1 41.02 19.22 40.7299 19.37 40.4599C19.52 40.1899 19.75 39.76 19.94 39.4C20.13 39.04 20.39 38.5199 20.62 38.0799C22 35.5299 23.37 32.97 24.75 30.41L25.75 28.41C25.75 28.34 25.85 28.24 25.91 28.23C26.1143 28.1853 26.3258 28.1853 26.53 28.23C26.8364 28.3138 27.137 28.4174 27.43 28.54C28.16 28.81 28.88 29.0899 29.61 29.3399C32.06 30.1699 34.49 31.0399 36.85 32.0799C36.94 32.0799 37.02 32.1799 37.13 32.0799L37.04 31.68C36.74 30.35 36.45 29.03 36.15 27.68C35.85 26.33 35.55 25 35.22 23.68C35.0309 22.8575 34.7664 22.0541 34.43 21.28C34.3852 21.1812 34.3205 21.0927 34.24 21.02C34.1957 20.9856 34.1632 20.9381 34.1471 20.8844C34.131 20.8306 34.132 20.7731 34.15 20.72L34.27 19.9499C34.2605 19.8803 34.2605 19.8097 34.27 19.74C34.36 19.47 34.46 19.2099 34.55 18.9399C35.268 16.8413 35.8426 14.6965 36.27 12.52C36.5 11.24 36.74 9.95003 36.97 8.67003C36.9777 8.55015 36.9777 8.42992 36.97 8.31004C36.77 8.31004 36.6 8.31004 36.43 8.31004C35.72 8.37004 35 8.40999 34.3 8.50999C32.9846 8.65067 31.6875 8.92881 30.43 9.33995C28.9006 9.86399 27.4103 10.4956 25.97 11.23C25.2873 11.539 24.6799 11.9929 24.19 12.56C24 12.82 23.81 12.81 23.59 12.56C23.37 12.31 23.33 12.27 23.21 12.12C22.09 10.72 20.96 9.31003 19.83 7.92003C18.53 6.28205 16.9812 4.85799 15.24 3.69993C14.0873 2.95164 12.835 2.36928 11.52 1.96995L11.23 1.90001C11.23 2.02001 11.16 2.11994 11.11 2.20994C10.9312 2.51437 10.8283 2.85737 10.81 3.20994C10.76 3.67994 10.71 4.14998 10.7 4.61998C10.6683 5.95802 10.752 7.2963 10.95 8.61998C11.24 10.88 11.56 13.13 11.88 15.38C11.98 16.11 12.11 16.82 12.23 17.55C12.2448 17.6226 12.2448 17.6974 12.23 17.77C12.2043 17.8817 12.153 17.9859 12.0801 18.0744C12.0072 18.163 11.9148 18.2333 11.81 18.28C11.66 18.35 11.51 18.45 11.36 18.53C9.53904 19.4796 7.77897 20.5416 6.09002 21.7099C5.00624 22.4486 3.9615 23.243 2.96001 24.0899C2.49319 24.5187 2.10115 25.0222 1.80001 25.5799ZM11.65 17.11C11.65 17 11.65 16.9199 11.65 16.8399C11.49 15.7599 11.32 14.6799 11.18 13.5899C10.92 11.6799 10.65 9.76997 10.42 7.85997C10.2135 6.33504 10.1867 4.79117 10.34 3.25999C10.347 3.21023 10.347 3.15972 10.34 3.10997C10.28 3.26997 10.22 3.37997 10.18 3.48997C9.41996 5.40601 8.85056 7.39232 8.48003 9.42002C8.18003 11.16 8.04004 12.92 7.89004 14.68C7.84004 15.22 7.81002 15.77 7.78002 16.27L8.15002 16.64C8.52002 16.64 8.93002 16.64 9.34002 16.64C9.73876 16.6557 10.1362 16.6958 10.53 16.76C10.85 16.87 11.24 17 11.65 17.11ZM34.36 7.81993H34.18C33.82 7.81993 33.45 7.74999 33.09 7.75999L29.16 7.84996C27.9967 7.86985 26.8351 7.94994 25.68 8.08995C24.3795 8.27225 23.1246 8.69621 21.98 9.33995C22.616 10.2446 23.3108 11.1066 24.06 11.92C24.5921 11.4232 25.1954 11.0085 25.85 10.6899C26.73 10.2199 27.64 9.83994 28.56 9.45994C30.1578 8.76692 31.8384 8.28299 33.56 8.02L34.36 7.81993ZM7.36001 17.0699C7.31319 17.0985 7.26963 17.1321 7.23003 17.17C6.69003 17.74 6.14003 18.29 5.63003 18.88C5.12003 19.47 4.55001 20.2 4.02001 20.88C3.71001 21.25 3.41003 21.63 3.10003 22.01C2.64781 22.621 2.28733 23.2947 2.03002 24.01C2.02689 24.0533 2.02689 24.0967 2.03002 24.14C3.46932 22.8383 5.01097 21.6545 6.64004 20.6C8.23004 19.5 9.94004 18.6 11.64 17.65L10.82 17.43C10.4933 17.3293 10.1588 17.2556 9.82003 17.2099C9.17003 17.2099 8.52002 17.21 7.87002 17.15C7.74002 17.13 7.60002 17.0899 7.40002 17.0699H7.36001ZM9.50002 28.29C10.9964 32.184 13.1436 35.7954 15.85 38.97C14.1132 35.6821 12.7994 32.1877 11.94 28.5699L9.50002 28.29ZM35.1 32.06V31.98H34.91C34.32 31.75 33.73 31.51 33.13 31.29L27 29C26.7944 28.9231 26.5789 28.876 26.36 28.86L25.92 29.65L26.61 29.8399L28.5 30.36L29.5 30.64C30.38 30.88 31.26 31.11 32.13 31.39C33.0247 31.6719 33.9411 31.8793 34.87 32.01L35.1 32.06Z" fill="black"/>
<path id="Vector_2" opacity="0.75" d="M1.79999 25.58C2.1414 24.9927 2.58504 24.4712 3.10999 24.04C4.11147 23.1931 5.15621 22.3987 6.23999 21.66C7.92895 20.4917 9.68904 19.4296 11.51 18.48C11.66 18.4 11.81 18.3 11.96 18.23C12.0647 18.1833 12.1572 18.1129 12.2301 18.0244C12.303 17.9359 12.3543 17.8317 12.38 17.72C12.3948 17.6474 12.3948 17.5726 12.38 17.5C12.26 16.77 12.13 16.06 12.03 15.33C11.71 13.08 11.39 10.8299 11.1 8.56995C10.9019 7.24627 10.8183 5.90799 10.85 4.56995C10.85 4.09995 10.91 3.63003 10.96 3.16003C10.9783 2.80746 11.0812 2.46447 11.26 2.16003C11.31 2.07003 11.33 1.96998 11.38 1.84998L11.67 1.92004C12.985 2.31937 14.2373 2.90173 15.39 3.65002C17.1312 4.80808 18.68 6.23202 19.98 7.87C21.11 9.25999 22.24 10.6699 23.36 12.0699C23.48 12.2199 23.61 12.37 23.74 12.51C23.87 12.65 24.15 12.75 24.34 12.51C24.8299 11.9429 25.4373 11.4891 26.12 11.1801C27.5602 10.4457 29.0506 9.81408 30.58 9.29004C31.8374 8.8789 33.1346 8.60064 34.45 8.45996C35.15 8.35996 35.87 8.32001 36.58 8.26001C36.75 8.26001 36.92 8.26001 37.12 8.26001C37.1277 8.37989 37.1277 8.50012 37.12 8.62C36.89 9.89999 36.65 11.19 36.42 12.47C35.9926 14.6464 35.418 16.7914 34.7 18.89C34.61 19.16 34.51 19.4199 34.42 19.6899C34.4105 19.7596 34.4105 19.8303 34.42 19.9L34.3 20.67C34.2819 20.7232 34.2809 20.7806 34.2971 20.8344C34.3132 20.8881 34.3457 20.9355 34.39 20.97C34.4705 21.0427 34.5352 21.1312 34.58 21.23C34.9164 22.0041 35.1808 22.8075 35.37 23.63C35.7 24.97 35.99 26.31 36.3 27.63C36.61 28.95 36.89 30.27 37.19 31.63L37.28 32.03C37.17 32.11 37.09 32.03 37 32.03C34.64 31.03 32.21 30.12 29.76 29.29C29.03 29.04 28.31 28.76 27.58 28.49C27.287 28.3673 26.9864 28.2639 26.68 28.1801C26.4757 28.1354 26.2642 28.1354 26.06 28.1801C26 28.1801 25.94 28.29 25.9 28.36L24.9 30.36C23.52 32.92 22.15 35.48 20.77 38.03C20.54 38.47 20.32 38.92 20.09 39.35C19.86 39.78 19.7 40.05 19.52 40.41C19.34 40.77 19.25 40.97 19.12 41.26C19.12 41.34 19.05 41.43 19 41.54L18.8 41.4C17.9328 40.7506 17.2079 39.9304 16.67 38.99C16.1647 38.136 15.7137 37.2508 15.32 36.34C14.89 35.34 14.48 34.34 14.07 33.34C13.4463 31.8494 12.9674 30.3023 12.64 28.72C12.6296 28.637 12.6296 28.553 12.64 28.47C12.6455 28.4134 12.6455 28.3566 12.64 28.3C12.6041 28.2027 12.5773 28.1023 12.56 28C12.56 27.87 12.47 27.82 12.36 27.84C12.0676 27.8585 11.7741 27.8315 11.49 27.76C9.93999 27.54 8.39 27.34 6.84 27.1C5.86035 26.9447 4.89416 26.714 3.95001 26.41C3.31793 26.2182 2.70787 25.9601 2.13 25.64L1.95001 25.53C1.95001 25.53 1.80999 25.6 1.79999 25.58ZM20.42 21.88C20.33 21.88 20.24 22 20.14 22.05L18.14 23.24L18.01 23.3199C17.9533 23.3533 17.912 23.4079 17.8951 23.4716C17.8783 23.5352 17.8872 23.6029 17.92 23.66C17.9546 23.7099 18.0061 23.7455 18.0649 23.7603C18.1238 23.775 18.186 23.7678 18.24 23.74L18.4 23.65L19.4 23.0601C19.97 22.7201 20.53 22.3701 21.09 22.0601C21.2114 21.9771 21.3222 21.8797 21.42 21.77C21.4437 21.7485 21.4625 21.7221 21.4755 21.6929C21.4884 21.6636 21.4951 21.632 21.4951 21.6C21.4951 21.568 21.4884 21.5364 21.4755 21.5071C21.4625 21.4778 21.4437 21.4516 21.42 21.4301C21.33 21.3301 21.21 21.3301 21.07 21.4301L20.89 21.5699C20.703 21.3538 20.6031 21.0758 20.61 20.79L21.04 20.55C21.19 20.45 21.24 20.32 21.17 20.2C21.1 20.08 20.97 20.05 20.8 20.13L20.52 20.27L17.81 21.48C17.57 21.58 17.34 21.6901 17.1 21.8101C17.0382 21.8307 16.9869 21.8746 16.957 21.9325C16.9271 21.9904 16.921 22.0577 16.94 22.12C16.9665 22.1812 17.0156 22.2299 17.077 22.256C17.1385 22.282 17.2075 22.2835 17.27 22.26L17.51 22.16L19.81 21.16L20.1 21.04L20.42 21.88ZM13.6 13.88C13.5944 13.9131 13.5944 13.9469 13.6 13.98C13.65 14.15 13.77 14.2299 13.9 14.1899C14.03 14.1499 14.09 14.05 14.06 13.88C14.03 13.71 13.99 13.57 13.96 13.42C13.78 12.55 13.57 11.67 13.42 10.79C13.11 9.03004 12.88 7.24997 12.73 5.46997C12.7333 5.40836 12.7136 5.3478 12.6748 5.2998C12.6361 5.25181 12.5809 5.21975 12.52 5.20996C12.4584 5.20671 12.3978 5.22637 12.3498 5.26514C12.3018 5.3039 12.2698 5.35913 12.26 5.42004C12.2449 5.53287 12.2449 5.64718 12.26 5.76001C12.36 6.60001 12.45 7.45004 12.56 8.29004C12.7897 10.1798 13.137 12.0535 13.6 13.9V13.88ZM26.99 18.88L26.72 19.05L25.56 19.8C25.4865 19.8482 25.4194 19.9052 25.36 19.97C25.3233 20.0074 25.3028 20.0576 25.3028 20.11C25.3028 20.1623 25.3233 20.2126 25.36 20.25C25.3871 20.2944 25.4297 20.3271 25.4796 20.3419C25.5295 20.3567 25.5831 20.3524 25.63 20.33C25.6865 20.306 25.7402 20.2758 25.79 20.24C26.2975 19.8514 26.8437 19.5163 27.42 19.24C27.4647 19.2128 27.5052 19.1791 27.54 19.14L27.78 18.95L28.21 18.66C28.2831 18.601 28.3413 18.5256 28.38 18.4399C28.4092 18.3626 28.4092 18.2773 28.38 18.2C28.3438 18.169 28.2977 18.152 28.25 18.152C28.2023 18.152 28.1562 18.169 28.12 18.2C28.061 18.2401 28.0042 18.2835 27.95 18.33L27.51 18.62C27.4118 18.3778 27.3544 18.121 27.34 17.86C27.34 17.62 27.34 17.62 27.53 17.5C27.6252 17.4599 27.7157 17.4096 27.8 17.35C27.8289 17.3343 27.8545 17.3131 27.8752 17.2875C27.8959 17.2619 27.9114 17.2324 27.9207 17.2008C27.9299 17.1692 27.9329 17.136 27.9294 17.1033C27.9258 17.0705 27.9158 17.0389 27.9 17.01C27.8655 16.9601 27.8139 16.9245 27.7551 16.9098C27.6962 16.8951 27.6339 16.9023 27.58 16.9301L27.46 16.99L26.71 17.35C26.21 17.61 25.71 17.86 25.21 18.13C24.99 18.25 24.94 18.39 25.02 18.53C25.1 18.67 25.24 18.68 25.45 18.53L26.62 17.91C26.6847 17.8841 26.7517 17.864 26.82 17.85L26.99 18.88Z" fill="#C89458"/>
<path id="Vector_3" opacity="0.75" d="M11.65 17.11C11.24 17 10.85 16.87 10.46 16.79C10.0661 16.7258 9.6687 16.6858 9.26996 16.67C8.85996 16.67 8.44996 16.67 8.07996 16.67L7.70996 16.3C7.70996 15.8 7.76998 15.3 7.81998 14.71C7.96998 12.95 8.10997 11.19 8.40997 9.44995C8.7805 7.42225 9.3499 5.43605 10.11 3.52002C10.11 3.41002 10.21 3.30001 10.27 3.14001C10.2769 3.18977 10.2769 3.24028 10.27 3.29004C10.1166 4.82122 10.1435 6.36509 10.35 7.89001C10.58 9.80001 10.85 11.71 11.11 13.62C11.25 14.71 11.42 15.79 11.58 16.87C11.63 16.92 11.64 17 11.65 17.11Z" fill="#A3784C"/>
<path id="Vector_4" opacity="0.75" d="M34.36 7.81995L33.57 7.94995C31.8484 8.21294 30.1678 8.697 28.57 9.39001C27.65 9.77001 26.74 10.15 25.86 10.62C25.2054 10.9386 24.6021 11.3531 24.07 11.85C23.3208 11.0365 22.626 10.1747 21.99 9.27002C23.1346 8.62628 24.3895 8.20233 25.69 8.02002C26.8451 7.88002 28.0066 7.79992 29.17 7.78003L33.1 7.68994C33.46 7.68994 33.83 7.69 34.19 7.75H34.37L34.36 7.81995Z" fill="#A3784C"/>
<path id="Vector_5" opacity="0.75" d="M7.39999 17.0699C7.59999 17.0699 7.74001 17.13 7.88001 17.13C8.53001 17.13 9.17999 17.1299 9.82999 17.1899C10.1688 17.2356 10.5033 17.3093 10.83 17.41L11.65 17.63C9.91999 18.63 8.20999 19.48 6.64999 20.58C5.02093 21.6345 3.47931 22.8183 2.04001 24.12C2.03688 24.0767 2.03688 24.0333 2.04001 23.99C2.29732 23.2747 2.65777 22.601 3.10999 21.99C3.41999 21.61 3.72 21.23 4.03 20.86C4.56 20.19 5.08002 19.51 5.64002 18.86C6.20002 18.21 6.69999 17.72 7.23999 17.15C7.28999 17.1172 7.3437 17.0902 7.39999 17.0699Z" fill="#A3784C"/>
<path id="Vector_6" opacity="0.75" d="M9.54004 28.29L11.98 28.5699C12.8394 32.1877 14.1532 35.6821 15.89 38.97C13.1837 35.7954 11.0364 32.1841 9.54004 28.29Z" fill="#A3784C"/>
<path id="Vector_7" opacity="0.75" d="M35.14 32.0601H34.9C33.9711 31.9293 33.0547 31.7218 32.16 31.4399C31.29 31.1599 30.41 30.9299 29.53 30.6899L28.53 30.41L26.64 29.89L25.95 29.7L26.39 28.91C26.6089 28.9261 26.8244 28.9732 27.03 29.05L33.2 31.27C33.8 31.49 34.39 31.73 34.98 31.96H35.17L35.14 32.0601Z" fill="#A3784C"/>
<path id="Vector_8" opacity="0.75" d="M20.42 21.88L20.12 20.9599L19.8299 21.0799L17.53 22.0799L17.29 22.18C17.2275 22.2035 17.1584 22.2019 17.097 22.1759C17.0355 22.1498 16.9865 22.1012 16.9599 22.04C16.941 21.9777 16.9471 21.9104 16.9769 21.8525C17.0068 21.7946 17.0581 21.7506 17.12 21.7299C17.36 21.6099 17.5899 21.5 17.8299 21.4L20.54 20.1899L20.82 20.05C20.99 19.97 21.12 20.05 21.19 20.12C21.26 20.19 21.19 20.3699 21.06 20.4699L20.63 20.7099C20.6231 20.9957 20.7229 21.2738 20.91 21.4899L21.09 21.3499C21.23 21.2499 21.35 21.2499 21.44 21.3499C21.4636 21.3715 21.4825 21.3978 21.4954 21.4271C21.5084 21.4564 21.515 21.488 21.515 21.52C21.515 21.552 21.5084 21.5836 21.4954 21.6129C21.4825 21.6421 21.4636 21.6683 21.44 21.6899C21.3421 21.7996 21.2313 21.897 21.1099 21.9799C20.5499 22.3299 19.99 22.6799 19.42 22.9799L18.42 23.5699L18.26 23.66C18.206 23.6878 18.1438 23.695 18.0849 23.6803C18.026 23.6655 17.9745 23.6298 17.94 23.5799C17.9072 23.5228 17.8982 23.4551 17.9151 23.3914C17.9319 23.3278 17.9732 23.2733 18.03 23.2399L18.16 23.16L20.16 21.9699C20.24 21.9999 20.33 21.93 20.42 21.88Z" fill="black"/>
<path id="Vector_9" opacity="0.75" d="M13.6 13.9C13.1513 12.0592 12.8173 10.1923 12.6 8.31004C12.49 7.47004 12.4 6.62001 12.3 5.78001C12.2849 5.66718 12.2849 5.55275 12.3 5.43992C12.3098 5.379 12.3417 5.3239 12.3897 5.28514C12.4377 5.24637 12.4984 5.22671 12.56 5.22996C12.6209 5.23975 12.6761 5.27169 12.7148 5.31968C12.7536 5.36768 12.7732 5.42836 12.77 5.48997C12.92 7.26997 13.15 9.05004 13.46 10.81C13.61 11.69 13.82 12.5699 14 13.4399C14 13.5899 14.07 13.75 14.1 13.9C14.13 14.05 14.1 14.1799 13.94 14.2099C13.78 14.2399 13.69 14.21 13.64 14C13.6207 13.9693 13.6072 13.9355 13.6 13.9Z" fill="#DCCFBD"/>
<path id="Vector_10" opacity="0.75" d="M27 18.94L26.78 17.94C26.7117 17.954 26.6447 17.9741 26.58 18L25.41 18.62C25.2 18.74 25.05 18.73 24.98 18.62C24.91 18.51 24.98 18.34 25.17 18.22C25.66 17.95 26.17 17.7 26.67 17.44L27.42 17.08L27.54 17.02C27.594 16.9923 27.6562 16.9851 27.715 16.9998C27.7739 17.0145 27.8254 17.0501 27.86 17.1C27.8758 17.1289 27.8858 17.1606 27.8894 17.1934C27.8929 17.2261 27.8899 17.2592 27.8806 17.2908C27.8713 17.3224 27.8559 17.3519 27.8352 17.3775C27.8145 17.4031 27.7889 17.4243 27.76 17.44C27.6757 17.4996 27.5851 17.5499 27.49 17.59C27.27 17.71 27.26 17.71 27.3 17.95C27.3143 18.2109 27.3718 18.4678 27.47 18.71L27.91 18.4201C27.9642 18.3736 28.0209 18.3302 28.08 18.2901C28.1162 18.2591 28.1623 18.242 28.21 18.242C28.2577 18.242 28.3038 18.2591 28.34 18.2901C28.3692 18.3674 28.3692 18.4527 28.34 18.53C28.3013 18.6157 28.2431 18.691 28.17 18.75L27.74 19.0401L27.5 19.23C27.4651 19.2691 27.4247 19.3028 27.38 19.33C26.8037 19.6063 26.2574 19.9414 25.75 20.33C25.7001 20.3658 25.6465 20.3961 25.59 20.4201C25.5431 20.4425 25.4895 20.4468 25.4396 20.432C25.3897 20.4172 25.3471 20.3844 25.32 20.34C25.2834 20.3026 25.2628 20.2523 25.2628 20.2C25.2628 20.1476 25.2834 20.0975 25.32 20.0601C25.3794 19.9953 25.4465 19.9382 25.52 19.89L26.68 19.14L27 18.94Z" fill="black"/>
<path id="Vector_11" opacity="0.75" d="M18.7482 42.5972C18.8608 42.6253 18.9788 42.6228 19.09 42.59C19.1961 42.5661 19.2954 42.5182 19.38 42.45L19.58 42.23C19.7195 42.1075 19.8144 41.9422 19.85 41.76C20.0037 41.6347 20.124 41.4732 20.2 41.2901C20.34 41.0201 20.47 40.74 20.61 40.46C20.88 39.88 21.14 39.41 21.42 38.88C22.56 36.74 23.71 34.61 24.86 32.47L25.86 30.66L26.62 30.86L27.96 31.22L29.68 31.7L30.31 31.88C30.87 32.02 31.36 32.17 31.87 32.34C33.2909 32.7936 34.7617 33.0724 36.25 33.1701H36.35C36.56 33.1643 36.7675 33.2161 36.95 33.32C37.0346 33.3792 37.1251 33.4295 37.22 33.47L37.31 33.52L37.48 33.61L38.48 33.12L38.35 32.51L38.08 31.34L38.0791 31.3362C37.8894 30.5274 37.6997 29.7188 37.52 28.91C37.37 28.28 37.23 27.64 37.09 27.01C36.86 25.95 36.62 24.9 36.37 23.84C36.1441 22.7815 35.809 21.7493 35.37 20.76C35.3427 20.7057 35.3285 20.6457 35.3285 20.585C35.3285 20.5242 35.3427 20.4644 35.37 20.41L35.54 19.86C35.86 18.86 36.18 17.86 36.47 16.86C37.2517 14.0819 37.8331 11.2513 38.21 8.39003C38.2302 8.28875 38.2297 8.18449 38.2088 8.08339C38.1878 7.98228 38.1467 7.88643 38.0879 7.80153C38.0291 7.71663 37.9539 7.64435 37.8666 7.58912C37.7794 7.5339 37.6819 7.49678 37.58 7.47999C37.3921 7.44193 37.2015 7.41858 37.01 7.41005H36.77H36.63C36.5504 7.42101 36.4697 7.42101 36.39 7.41005C35.2866 7.14314 34.1552 7.00883 33.02 7.01002C31.17 7.00002 29.18 7.06998 26.74 7.21998C25.7028 7.28275 24.6779 7.47773 23.69 7.80006C23.0243 8.01333 22.3785 8.2843 21.76 8.61L21.04 7.69996C19.6978 5.98277 18.103 4.47905 16.31 3.24C14.887 2.25184 13.3036 1.5176 11.63 1.06996C11.5518 0.969082 11.4456 0.893576 11.3246 0.852673C11.2037 0.811771 11.0734 0.807304 10.95 0.839978C10.8357 0.877271 10.7326 0.942655 10.65 1.03004C10.4688 1.20836 10.3169 1.41423 10.2 1.64003C9.97064 2.05189 9.76365 2.47586 9.58 2.91005C8.66241 5.03991 7.99138 7.26773 7.58 9.55006C7.31 11.1501 7.17001 12.79 7.03001 14.37C6.95001 14.9367 6.91002 15.5066 6.91002 16.08V16.44C6.90496 16.5016 6.87629 16.559 6.83 16.6L6.56001 16.87C6.16001 17.26 5.85001 17.54 5.37001 18.1C4.89001 18.66 4.36001 19.3301 3.97001 19.8001C3.58001 20.2701 3.20001 20.74 2.81001 21.2C2.08044 22.0934 1.51504 23.1091 1.14003 24.2C1.02003 24.55 0.860014 24.91 0.720014 25.26V25.34C0.65851 25.4736 0.637098 25.6223 0.658399 25.7678C0.679699 25.9134 0.742793 26.0496 0.840009 26.16C0.956502 26.2918 1.09119 26.4063 1.24 26.5C1.44667 26.6345 1.66032 26.758 1.88002 26.87C2.76603 27.2988 3.69438 27.634 4.65001 27.87C5.99729 28.2032 7.36297 28.4569 8.74 28.63H8.8C9.42872 30.4087 10.2327 32.1204 11.2 33.74C12.1949 35.3973 13.2833 36.9966 14.46 38.53C15.1881 39.5158 16.0085 40.4299 16.91 41.26C17.0776 41.4281 17.2889 41.5459 17.52 41.6L18.45 42.4301C18.5327 42.5114 18.6357 42.569 18.7482 42.5972Z" fill="black"/>
</g>
</svg>
