<svg width="62" height="62" viewBox="0 0 62 62" fill="none" xmlns="http://www.w3.org/2000/svg">
<g id="bgStar3" opacity="0.75">
<path id="Vector" opacity="0.75" d="M39.9001 18.4599C42.5174 18.525 45.0856 19.1851 47.4101 20.39C50.1301 21.77 52.8201 23.21 55.4101 24.77C56.8019 25.5901 58.0881 26.5774 59.2401 27.7099C59.4014 27.8509 59.5717 27.9812 59.7501 28.1C60.0501 28.33 60.3801 28.53 60.6601 28.79C60.7253 28.8417 60.7788 28.9067 60.8172 28.9806C60.8555 29.0545 60.8778 29.1356 60.8825 29.2187C60.8872 29.3018 60.8743 29.3851 60.8446 29.4629C60.8148 29.5406 60.769 29.6112 60.7101 29.67C58.112 32.9649 55.2885 36.0757 52.2601 38.98C50.9501 40.21 49.5901 41.4 48.2601 42.6C48.1402 42.7007 48.0414 42.8241 47.9693 42.9631C47.8973 43.1021 47.8533 43.254 47.8401 43.41C47.668 44.9544 47.3328 46.4762 46.8401 47.9499C46.0901 50.3599 45.2901 52.76 44.5101 55.17C43.9634 56.89 43.4201 58.6099 42.8801 60.3299C42.8801 60.4699 42.7801 60.62 42.7301 60.79L41.8301 60.73C41.7401 60.57 41.6301 60.43 41.5601 60.27C41.3258 59.8656 40.9781 59.5388 40.5601 59.3299C38.8024 58.1135 37.1946 56.6937 35.7701 55.1C35.0401 54.26 34.2401 53.47 33.4701 52.66C32.8701 52.02 32.2701 51.39 31.6601 50.76L30.2501 49.31L29.1501 48.2099L28.9401 48.3L17.0901 55.4699C15.9601 56.1599 14.8601 56.89 13.7501 57.6C13.544 57.7708 13.2875 57.8693 13.0201 57.88C12.977 57.8867 12.9359 57.9027 12.8996 57.9269C12.8634 57.951 12.8328 57.9828 12.8101 58.02C12.7582 58.0919 12.6926 58.1527 12.6171 58.1991C12.5416 58.2454 12.4576 58.2763 12.3701 58.29L11.9001 58.43C11.8458 58.4578 11.7856 58.472 11.7246 58.4717C11.6637 58.4713 11.6037 58.4563 11.5497 58.4278C11.4958 58.3994 11.4495 58.3584 11.4148 58.3083C11.38 58.2582 11.3578 58.2005 11.3501 58.14C11.1701 57.56 10.9801 56.98 10.7901 56.4C10.765 56.3144 10.7205 56.2357 10.6601 56.17C10.4438 55.9711 10.2966 55.7084 10.2401 55.42C9.74132 53.7396 9.40643 52.0149 9.24006 50.27C8.90354 47.4824 8.72659 44.6778 8.71006 41.87C8.69453 39.1472 8.95587 36.4299 9.49006 33.76C9.52768 33.6368 9.52246 33.5045 9.47524 33.3846C9.42803 33.2648 9.34161 33.1644 9.23006 33.1C7.64103 31.8589 6.12828 30.5231 4.70006 29.1C3.69465 28.1251 2.79622 27.0457 2.02006 25.88C1.84006 25.5933 1.67006 25.2933 1.51006 24.98C1.42153 24.7993 1.35763 24.6076 1.32006 24.41C1.29732 24.2969 1.3101 24.1794 1.35664 24.0738C1.40318 23.9682 1.48121 23.8795 1.58006 23.8199C2.07006 23.4499 2.58006 23.0899 3.02006 22.6999C4.26125 21.6221 5.68769 20.7785 7.23006 20.2099C9.08006 19.5599 10.9001 18.8399 12.7501 18.2099C13.7501 17.8799 14.6801 17.67 15.6601 17.43C15.8818 17.3827 16.0759 17.2497 16.2001 17.06C16.7601 16.23 17.3201 15.3899 17.9001 14.5699C19.2901 12.6399 20.6701 10.71 22.2101 8.88999C24.3828 6.34513 26.8425 4.0599 29.5401 2.07993C30.0801 1.67993 30.6501 1.31995 31.2201 0.969946C31.4903 0.806902 31.7836 0.685553 32.0901 0.609961C32.4501 0.519961 32.5601 0.609966 32.6501 0.989966C32.6811 1.09735 32.7358 1.19647 32.8101 1.28C34.5257 3.02849 35.9293 5.05781 36.9601 7.28C38.2641 10.1338 39.1305 13.1679 39.5301 16.28C39.6201 16.85 39.7001 17.43 39.7801 18.01C39.8501 18.2 39.8701 18.3199 39.9001 18.4599ZM2.52006 24.7099C2.52006 24.7099 2.52006 24.71 2.52006 24.78C2.52006 24.85 2.61007 24.96 2.66007 25.05C3.15504 25.881 3.7348 26.6585 4.39006 27.37C5.3481 28.4519 6.39146 29.4551 7.51006 30.37C9.27006 31.82 11.0801 33.23 12.8601 34.66C13.1567 34.9584 13.4932 35.2141 13.8601 35.42C13.895 35.4283 13.9274 35.4449 13.9544 35.4685C13.9815 35.4921 14.0023 35.522 14.0151 35.5555C14.0279 35.5891 14.0324 35.6252 14.028 35.6609C14.0236 35.6965 14.0106 35.7305 13.9901 35.76C13.9383 35.9032 13.8982 36.0503 13.8701 36.1999C13.8434 36.281 13.8064 36.3584 13.7601 36.43C13.6875 36.5238 13.6238 36.6242 13.5701 36.73C12.8009 38.9686 12.2484 41.2758 11.9201 43.62C11.7001 45.17 11.4901 46.71 11.3101 48.27C11.1236 49.7059 11.0267 51.152 11.0201 52.6C10.9988 54.1813 11.3017 55.7502 11.9101 57.2099L12.0701 57.54L12.4301 57.28C12.8001 57.02 13.1701 56.75 13.5601 56.5C13.9501 56.25 14.5601 55.91 15.0601 55.61L16.9101 54.4499L27.8101 47.87L30.6101 46.16C30.7101 46.1 30.8601 46.01 30.9501 46.05C31.2428 46.1385 31.5148 46.2846 31.7501 46.48C32.0769 46.8124 32.381 47.1666 32.6601 47.54C33.3701 48.42 34.0601 49.31 34.8001 50.17C37.2601 53.03 39.6701 55.94 41.8701 59.01C41.9501 59.12 42.0101 59.26 42.2101 59.24C42.2701 59.05 42.3301 58.86 42.4001 58.67C43.0101 56.78 43.6201 54.9 44.2201 53.01C44.8201 51.12 45.4701 49.19 46.0501 47.27C46.4183 46.092 46.6827 44.8841 46.8401 43.66C46.8751 43.5019 46.8751 43.3381 46.8401 43.18C46.8087 43.1046 46.8024 43.021 46.8222 42.9417C46.842 42.8625 46.8869 42.7917 46.9501 42.74C47.2001 42.45 47.4301 42.15 47.6701 41.85C47.7314 41.772 47.7983 41.6985 47.8701 41.63C48.1901 41.36 48.5201 41.0999 48.8701 40.8199C51.3372 38.716 53.6592 36.4475 55.8201 34.03C57.0601 32.59 58.3201 31.1499 59.5701 29.7099C59.6701 29.5899 59.7601 29.45 59.8801 29.29C59.6728 29.1192 59.4521 28.9653 59.2201 28.8299C58.2901 28.3699 57.3601 27.9 56.4001 27.49C54.6391 26.6896 52.799 26.0763 50.9101 25.66C48.6023 25.1674 46.2635 24.8333 43.9101 24.66C42.8208 24.536 41.7175 24.6555 40.6801 25.01C40.2501 25.19 40.0201 25.0099 39.9101 24.5799C39.8501 24.3099 39.8101 24.03 39.7701 23.76C39.3901 21.15 39.0201 18.5499 38.6401 15.9499C38.2197 12.9203 37.329 9.97484 36.0001 7.21995C35.1144 5.40007 33.9728 3.71633 32.6101 2.21995C32.5101 2.10995 32.4001 2.01001 32.2901 1.91001C32.1773 2.02537 32.0534 2.12915 31.9201 2.21995C31.4837 2.46751 31.108 2.80911 30.8201 3.21995C30.4101 3.76995 30.0001 4.32 29.6301 4.9C28.6054 6.56615 27.7159 8.3117 26.9701 10.12C25.6601 13.18 24.3801 16.2599 23.1001 19.3299C22.6901 20.3299 22.3201 21.3299 21.9301 22.3299C21.8878 22.4357 21.8189 22.5287 21.7301 22.6C21.6171 22.7197 21.478 22.8119 21.3237 22.8691C21.1693 22.9264 21.0038 22.9472 20.8401 22.93C20.5801 22.93 20.3301 22.93 20.0701 22.93C17.0716 22.763 14.0656 22.7863 11.0701 23C9.16006 23.16 7.25006 23.32 5.36006 23.66C4.3579 23.8362 3.39578 24.1918 2.52006 24.7099ZM21.2201 21.38C21.2901 21.23 21.3401 21.13 21.3801 21.02C21.9901 19.54 22.5801 18.0199 23.2001 16.5799C24.3001 13.9799 25.3901 11.38 26.5301 8.80002C27.3992 6.72447 28.5138 4.76038 29.8501 2.94993C29.8501 2.94993 29.8501 2.85997 29.9101 2.73997L29.4201 3.09995C27.0334 4.93694 24.8389 7.01091 22.8701 9.29001C21.2001 11.29 19.7001 13.3599 18.2101 15.4599C17.7401 16.1099 17.3001 16.78 16.8801 17.39L17.0701 18.13C17.5301 18.42 18.0701 18.71 18.5501 19.05C19.0367 19.3545 19.5042 19.6885 19.9501 20.05C20.3901 20.48 20.7801 20.93 21.2201 21.38ZM56.7101 26.6C56.6484 26.5406 56.5815 26.487 56.5101 26.4399C56.0701 26.1299 55.6501 25.81 55.1801 25.54C53.5201 24.5933 51.8534 23.6566 50.1801 22.73C48.6901 21.9 47.1801 21.11 45.6201 20.43C43.8485 19.6979 41.9565 19.3011 40.0401 19.26C40.1669 20.8731 40.3974 22.4765 40.7301 24.06C41.7691 23.8239 42.8378 23.7462 43.9001 23.8299C45.3501 23.8999 46.7901 24.11 48.2201 24.31C50.7562 24.6269 53.2404 25.2722 55.6101 26.23L56.7101 26.6ZM15.9001 18.16C15.8205 18.1487 15.7397 18.1487 15.6601 18.16C14.5601 18.47 13.4501 18.75 12.3601 19.16C11.2701 19.57 10.0301 20.0199 8.86006 20.4599C8.20006 20.7099 7.53006 20.9499 6.86006 21.2099C5.83454 21.6269 4.87986 22.2005 4.03006 22.91L3.90006 23.06C6.68285 22.5061 9.50487 22.1717 12.3401 22.06C15.1815 21.9152 18.0286 21.9152 20.8701 22.06C20.5501 21.72 20.2901 21.43 20.0101 21.16C19.651 20.7959 19.2631 20.4615 18.8501 20.16C18.0701 19.62 17.2501 19.16 16.4401 18.63C16.2801 18.48 16.1301 18.34 15.9001 18.16ZM10.2301 33.87C9.02006 39.99 9.42006 46.02 10.2301 52.05C10.6901 46.64 11.2301 41.24 13.0501 36.05L10.2301 33.87ZM39.6501 57.6899L39.7401 57.62C39.665 57.5516 39.5949 57.4781 39.5301 57.4C38.9601 56.68 38.4001 55.9299 37.8101 55.2199C35.8101 52.7466 33.7734 50.2799 31.7001 47.8199C31.4976 47.5722 31.2621 47.3536 31.0001 47.17L29.8501 47.8399L30.5801 48.5899L32.5801 50.64L33.6401 51.74C34.5601 52.74 35.5001 53.65 36.3901 54.64C37.3098 55.665 38.3132 56.6115 39.3901 57.4699L39.6501 57.6899Z" fill="black"/>
<path id="Vector_2" opacity="0.75" d="M2.51996 24.71C3.38378 24.2149 4.32831 23.8763 5.30996 23.71C7.19996 23.37 9.10996 23.21 11.02 23.05C14.0155 22.8364 17.0215 22.813 20.02 22.98C20.28 22.98 20.53 22.98 20.79 22.98C20.9537 22.9972 21.1192 22.9763 21.2736 22.9191C21.4279 22.8618 21.567 22.7698 21.68 22.65C21.7688 22.5788 21.8377 22.4858 21.88 22.38C22.27 21.38 22.64 20.38 23.05 19.38C24.33 16.31 25.61 13.23 26.92 10.17C27.6658 8.36178 28.5553 6.6161 29.58 4.94995C29.95 4.36995 30.36 3.82002 30.77 3.27002C31.0579 2.85918 31.4336 2.51759 31.87 2.27002C32.0033 2.17922 32.1272 2.07532 32.24 1.95996C32.35 2.05996 32.46 2.16002 32.56 2.27002C33.9227 3.76641 35.0643 5.45015 35.95 7.27002C37.2789 10.0249 38.1696 12.9704 38.59 16C38.97 18.6 39.34 21.2001 39.72 23.8101C39.72 24.0801 39.8 24.36 39.86 24.63C39.97 25.1 40.2 25.2401 40.63 25.0601C41.6674 24.7056 42.7707 24.5859 43.86 24.71C46.2134 24.8832 48.5522 25.2173 50.86 25.71C52.7489 26.1263 54.589 26.7397 56.35 27.54C57.35 27.95 58.24 28.42 59.17 28.88C59.402 29.0154 59.6227 29.1692 59.83 29.34C59.71 29.5 59.62 29.64 59.52 29.76C58.27 31.2 57.01 32.64 55.77 34.08C53.6091 36.4975 51.2872 38.766 48.82 40.87C48.51 41.15 48.18 41.4101 47.82 41.6801C47.7482 41.7485 47.6813 41.822 47.62 41.9C47.38 42.2 47.15 42.5 46.9 42.79C46.8368 42.8418 46.7919 42.9126 46.7721 42.9918C46.7523 43.0711 46.7586 43.1546 46.79 43.23C46.825 43.3881 46.825 43.5519 46.79 43.71C46.6326 44.9341 46.3682 46.142 46 47.3199C45.42 49.2399 44.79 51.1501 44.17 53.0601C43.55 54.9701 42.96 56.83 42.35 58.72C42.28 58.91 42.22 59.1 42.16 59.29C41.96 59.29 41.9 59.1701 41.82 59.0601C39.62 55.9901 37.21 53.06 34.75 50.22C34.01 49.36 33.32 48.47 32.61 47.59C32.3309 47.2165 32.0268 46.8625 31.7 46.53C31.4647 46.3347 31.1927 46.1885 30.9 46.1C30.81 46.1 30.66 46.1 30.56 46.21L27.76 47.92L16.86 54.5L15.01 55.66C14.52 55.96 14.01 56.24 13.51 56.55C13.01 56.8601 12.75 57.07 12.38 57.33L12.02 57.59L11.86 57.26C11.2516 55.8002 10.9487 54.2313 10.97 52.65C10.9766 51.2021 11.0735 49.7559 11.26 48.3199C11.44 46.7599 11.65 45.22 11.87 43.67C12.1983 41.3259 12.7508 39.0186 13.52 36.78C13.5737 36.6743 13.6374 36.5738 13.71 36.48C13.7563 36.4083 13.7933 36.331 13.82 36.25C13.8481 36.1003 13.8882 35.9533 13.94 35.8101C13.9605 35.7806 13.9735 35.7466 13.9779 35.7109C13.9823 35.6753 13.9778 35.6391 13.965 35.6056C13.9522 35.5721 13.9314 35.5422 13.9043 35.5186C13.8773 35.4949 13.8449 35.4782 13.81 35.47C13.4431 35.2641 13.1066 35.0083 12.81 34.71C11.03 33.28 9.21996 31.87 7.45996 30.42C6.34136 29.5051 5.298 28.5019 4.33996 27.42C3.6847 26.7085 3.10494 25.931 2.60996 25.1C2.60996 25.01 2.50997 24.92 2.46997 24.83C2.42997 24.74 2.51996 24.73 2.51996 24.71ZM28.7 33.91H24.57C24.33 33.91 24.2 34.07 24.2 34.27C24.2073 34.3585 24.2472 34.4412 24.3118 34.5021C24.3764 34.563 24.4612 34.5978 24.55 34.6C24.6397 34.61 24.7302 34.61 24.82 34.6C25.39 34.6 25.96 34.6 26.53 34.6C27.53 34.6 28.46 34.6 29.42 34.55C29.6368 34.5378 29.8515 34.5008 30.06 34.4399C30.3 34.3699 30.4 34.21 30.35 34.02C30.3 33.83 30.16 33.75 29.91 33.77H29.58C29.5019 33.3585 29.5842 32.9327 29.81 32.58C30.07 32.58 30.3 32.58 30.52 32.58C30.74 32.58 30.95 32.44 30.95 32.24C30.95 32.04 30.81 31.91 30.54 31.88C30.27 31.85 30.23 31.88 30.08 31.88L25.77 31.38C25.39 31.38 25.01 31.3 24.63 31.27C24.25 31.24 24.23 31.35 24.2 31.54C24.1856 31.6368 24.2102 31.7353 24.2683 31.814C24.3264 31.8927 24.4133 31.9452 24.51 31.96C24.6348 31.9904 24.7619 32.0106 24.89 32.02L28.56 32.42L29.01 32.49L28.7 33.91ZM26.06 18.8V18.95C26.06 19.2 26.06 19.3899 26.29 19.4399C26.52 19.4899 26.63 19.44 26.72 19.16C26.81 18.88 26.86 18.73 26.94 18.51C27.36 17.27 27.74 16.02 28.21 14.8C29.14 12.35 30.21 9.93997 31.32 7.58997C31.3669 7.51381 31.3847 7.42321 31.37 7.33496C31.3553 7.24671 31.3091 7.1668 31.24 7.10999C31.1664 7.05739 31.0753 7.03529 30.9859 7.04834C30.8964 7.06139 30.8154 7.10864 30.76 7.18005C30.6494 7.30002 30.5613 7.43881 30.5 7.58997C29.99 8.72997 29.5 9.87001 28.98 11.01C27.8472 13.5441 26.872 16.1457 26.06 18.8ZM39.15 35.1H38.69L36.69 35.1801C36.5642 35.1797 36.4392 35.1999 36.32 35.24C36.2432 35.2588 36.1757 35.3046 36.1298 35.369C36.0839 35.4334 36.0626 35.5121 36.0699 35.5908C36.0772 35.6696 36.1125 35.7431 36.1694 35.798C36.2263 35.8529 36.301 35.8856 36.38 35.89C36.4694 35.9049 36.5606 35.9049 36.65 35.89C37.5711 35.8 38.4988 35.8 39.42 35.89C39.4926 35.9046 39.5674 35.9046 39.64 35.89H40.09C40.34 35.89 40.6 35.89 40.85 35.83C40.9881 35.8161 41.1196 35.7643 41.23 35.6801C41.2715 35.6362 41.3037 35.5842 41.3243 35.5275C41.345 35.4707 41.3537 35.4103 41.35 35.35C41.3424 35.2793 41.3082 35.2142 41.2544 35.1677C41.2005 35.1213 41.131 35.097 41.06 35.1C40.96 35.1 40.86 35.1 40.76 35.1H39.99C40.0409 34.72 40.1558 34.3515 40.33 34.01C40.47 33.68 40.48 33.68 40.84 33.7C40.9931 33.7098 41.1468 33.7098 41.3 33.7C41.54 33.7 41.68 33.54 41.67 33.35C41.6674 33.2606 41.6308 33.1757 41.5676 33.1124C41.5044 33.0492 41.4193 33.0125 41.33 33.01H41.14C40.73 33.01 40.33 32.93 39.92 32.91C39.1 32.85 38.27 32.8 37.45 32.77C37.1 32.77 36.92 32.9 36.92 33.13C36.92 33.36 37.08 33.48 37.43 33.5L39.43 33.59C39.5313 33.6071 39.6315 33.6305 39.73 33.66L39.15 35.1Z" fill="#C89458"/>
<path id="Vector_3" opacity="0.75" d="M21.22 21.38C20.78 20.93 20.39 20.48 19.95 20.09C19.5041 19.7284 19.0366 19.3945 18.55 19.09C18.05 18.75 17.55 18.46 17.07 18.17L16.88 17.4301C17.3 16.8201 17.74 16.15 18.21 15.5C19.7 13.4 21.21 11.3 22.87 9.32996C24.8388 7.05086 27.0334 4.97701 29.42 3.14001L29.91 2.78003C29.91 2.90003 29.91 2.94999 29.85 2.98999C28.5137 4.80044 27.3991 6.76441 26.53 8.83997C25.39 11.42 24.3 14.02 23.2 16.62C22.58 18.09 21.99 19.6201 21.38 21.0601C21.34 21.1301 21.29 21.23 21.22 21.38Z" fill="#A3784C"/>
<path id="Vector_4" opacity="0.75" d="M56.7101 26.6L55.6301 26.1801C53.2604 25.2223 50.7762 24.5768 48.2401 24.26C46.8101 24.06 45.3701 23.85 43.9201 23.78C42.8578 23.6963 41.7891 23.7739 40.7501 24.01C40.4174 22.4265 40.1869 20.8231 40.0601 19.21C41.9765 19.2511 43.8685 19.6479 45.6401 20.38C47.2101 21.06 48.7101 21.8501 50.2001 22.6801C51.8801 23.6001 53.5467 24.5367 55.2001 25.49C55.6701 25.76 56.0901 26.08 56.5301 26.39C56.6015 26.4371 56.6684 26.4907 56.7301 26.55L56.7101 26.6Z" fill="#A3784C"/>
<path id="Vector_5" opacity="0.75" d="M15.9 18.1601C16.13 18.3401 16.28 18.48 16.45 18.6C17.26 19.11 18.08 19.6 18.86 20.13C19.273 20.4315 19.661 20.766 20.02 21.13C20.3 21.4 20.56 21.6901 20.88 22.0301C18.0385 21.8852 15.1915 21.8852 12.35 22.0301C9.51484 22.1417 6.69282 22.4761 3.91003 23.0301L4.04003 22.88C4.88983 22.1705 5.84451 21.5971 6.87003 21.1801C7.53003 20.9201 8.20003 20.6801 8.87003 20.4301C10.04 19.9901 11.19 19.52 12.37 19.13C13.55 18.74 14.57 18.49 15.67 18.13C15.7477 18.1295 15.8251 18.1396 15.9 18.1601Z" fill="#A3784C"/>
<path id="Vector_6" opacity="0.75" d="M10.23 33.87L13.09 36.05C11.28 41.24 10.73 46.64 10.27 52.05C9.42003 46 9.00004 40 10.23 33.87Z" fill="#A3784C"/>
<path id="Vector_7" opacity="0.75" d="M39.6501 57.6899L39.3501 57.47C38.2732 56.6116 37.2698 55.665 36.3501 54.64C35.4601 53.64 34.5201 52.71 33.6001 51.74L32.5401 50.64L30.5401 48.59L29.8101 47.84L30.9601 47.17C31.2221 47.3536 31.4576 47.5722 31.6601 47.8199C33.7001 50.2933 35.7367 52.76 37.7701 55.22C38.3601 55.93 38.9201 56.68 39.4901 57.4C39.5549 57.4782 39.625 57.5516 39.7001 57.62L39.6501 57.6899Z" fill="#A3784C"/>
<path id="Vector_8" opacity="0.75" d="M28.7 33.91L29.0101 32.54L28.56 32.4699L24.89 32.0699C24.7619 32.0605 24.6348 32.0404 24.5101 32.01C24.4134 31.9952 24.3265 31.9427 24.2684 31.864C24.2103 31.7853 24.1857 31.6867 24.2 31.5899C24.2 31.3999 24.39 31.2999 24.63 31.3199C24.87 31.3399 25.39 31.38 25.77 31.43L30.0801 31.93C30.2301 31.93 30.39 31.93 30.54 31.93C30.69 31.93 30.95 32.09 30.95 32.29C30.95 32.49 30.7901 32.62 30.5201 32.63C30.2501 32.64 30.07 32.63 29.81 32.63C29.5842 32.9827 29.502 33.4084 29.5801 33.8199H29.9101C30.1601 33.8199 30.3101 33.8799 30.3501 34.0699C30.3901 34.2599 30.35 34.4199 30.06 34.4899C29.8516 34.5508 29.6369 34.5877 29.42 34.5999C28.42 34.5999 27.49 34.6 26.53 34.65C25.96 34.65 25.39 34.65 24.82 34.65C24.7303 34.66 24.6398 34.66 24.5501 34.65C24.4613 34.6478 24.3764 34.6129 24.3118 34.552C24.2472 34.491 24.2074 34.4084 24.2 34.3199C24.2 34.1199 24.33 33.9899 24.57 33.9599H28.7V33.91Z" fill="black"/>
<path id="Vector_9" opacity="0.75" d="M26.0601 18.8001C26.8782 16.1419 27.8601 13.5369 29.0001 11C29.5001 9.86 30.0001 8.71996 30.5201 7.57996C30.5814 7.4288 30.6695 7.29001 30.7801 7.17005C30.8355 7.09863 30.9165 7.05138 31.006 7.03833C31.0954 7.02528 31.1865 7.04738 31.2601 7.09998C31.3292 7.15679 31.3754 7.2367 31.3901 7.32495C31.4048 7.4132 31.387 7.5038 31.3401 7.57996C30.1901 9.92996 29.1601 12.34 28.2301 14.79C27.7601 16.01 27.3801 17.26 26.9601 18.5C26.8801 18.72 26.8201 18.94 26.7401 19.15C26.6601 19.36 26.4801 19.4801 26.3101 19.4301C26.1401 19.3801 26.0301 19.1899 26.0801 18.9399L26.0601 18.8001Z" fill="#DCCFBD"/>
<path id="Vector_10" opacity="0.75" d="M39.15 35.1L39.66 33.65C39.5616 33.6205 39.4614 33.5971 39.36 33.58L37.36 33.49C37.01 33.49 36.84 33.35 36.85 33.12C36.86 32.89 37.03 32.75 37.38 32.76C38.2 32.76 39.03 32.84 39.85 32.9C40.26 32.9 40.66 32.97 41.07 33H41.26C41.3494 33.0025 41.4344 33.0392 41.4976 33.1024C41.5609 33.1657 41.5975 33.2506 41.6 33.34C41.6 33.53 41.47 33.67 41.23 33.69C41.0768 33.6998 40.9232 33.6998 40.77 33.69C40.41 33.69 40.4 33.69 40.26 34C40.0859 34.3415 39.9709 34.71 39.92 35.09H40.69C40.79 35.09 40.89 35.09 40.99 35.09C41.0611 35.087 41.1306 35.1113 41.1844 35.1577C41.2383 35.2042 41.2724 35.2693 41.28 35.34C41.2837 35.4003 41.275 35.4607 41.2544 35.5175C41.2337 35.5742 41.2016 35.6262 41.16 35.6701C41.0497 35.7543 40.9181 35.8061 40.78 35.82C40.53 35.82 40.27 35.82 40.02 35.88H39.57C39.4974 35.8946 39.4226 35.8946 39.35 35.88C38.4289 35.79 37.5012 35.79 36.58 35.88C36.4906 35.8949 36.3994 35.8949 36.31 35.88C36.2311 35.8756 36.1563 35.8429 36.0994 35.788C36.0425 35.7331 36.0072 35.6596 35.9999 35.5808C35.9927 35.5021 36.0139 35.4234 36.0598 35.359C36.1057 35.2946 36.1732 35.2488 36.25 35.23C36.3692 35.1899 36.4942 35.1697 36.62 35.1701L38.62 35.09L39.15 35.1Z" fill="black"/>
<path id="Vector_11" opacity="0.75" d="M11.6 59C11.434 58.9625 11.2819 58.8787 11.1616 58.7584C11.0412 58.638 10.9574 58.486 10.92 58.3199L10.35 56.5899C10.1055 56.3426 9.92974 56.0359 9.84 55.6999V55.63C9.3184 53.9182 8.96342 52.16 8.78001 50.38C8.44438 47.5722 8.26743 44.7477 8.25001 41.92C8.23712 39.1605 8.50179 36.4065 9.04001 33.6999C9.0429 33.6733 9.0429 33.6465 9.04001 33.62L8.97001 33.56C7.36444 32.3198 5.83501 30.9841 4.39001 29.56C3.35776 28.5581 2.43583 27.4483 1.64001 26.25C1.45001 25.95 1.27001 25.64 1.10001 25.31C0.98985 25.0812 0.909207 24.8391 0.860009 24.5899C0.818972 24.3762 0.84164 24.1552 0.925203 23.9543C1.00877 23.7534 1.14954 23.5815 1.33001 23.4599L1.43001 23.39C1.87001 23.06 2.33001 22.72 2.75001 22.39C4.03928 21.2712 5.5196 20.3939 7.12001 19.8C7.96001 19.51 8.79001 19.2 9.62001 18.89C10.62 18.53 11.62 18.15 12.62 17.8C13.4149 17.5363 14.2226 17.3126 15.04 17.13L15.58 17C15.626 16.9944 15.67 16.9778 15.7082 16.9517C15.7465 16.9257 15.778 16.8907 15.8 16.8499L16.1 16.42C16.56 15.73 17.03 15.04 17.52 14.36V14.29C18.87 12.41 20.27 10.45 21.81 8.63998C24.0097 6.06876 26.4958 3.7571 29.22 1.74997C29.7767 1.34042 30.3541 0.9599 30.95 0.609953C31.2594 0.418695 31.5968 0.27694 31.95 0.189909C32.1203 0.144054 32.2997 0.144054 32.47 0.189909C32.6469 0.24478 32.8051 0.347785 32.9269 0.487272C33.0487 0.62676 33.1294 0.797288 33.16 0.979948C34.9249 2.79474 36.3657 4.89849 37.42 7.19992C38.752 10.0967 39.6387 13.1782 40.05 16.3399L40.29 18.01C42.8345 18.1513 45.3196 18.8331 47.58 20.01C50.76 21.62 53.32 23.01 55.64 24.4C57.0714 25.2346 58.3947 26.2422 59.58 27.4C59.668 27.4799 59.7616 27.5534 59.86 27.62L60.03 27.74L60.31 27.9399C60.5447 28.0981 60.7685 28.2719 60.98 28.4599C61.0969 28.5569 61.1929 28.6765 61.2622 28.8117C61.3314 28.9469 61.3724 29.0948 61.3827 29.2463C61.393 29.3978 61.3723 29.5499 61.322 29.6932C61.2717 29.8365 61.1928 29.9681 61.09 30.0799C58.4812 33.3967 55.6408 36.5245 52.59 39.4399C51.48 40.4899 50.31 41.52 49.19 42.52L48.56 43.0799C48.4908 43.1341 48.4338 43.2021 48.3924 43.2796C48.3511 43.3571 48.3264 43.4424 48.32 43.53C48.1467 45.1101 47.8116 46.6683 47.32 48.18C46.85 49.69 46.32 51.1799 45.87 52.6899C45.57 53.5999 45.28 54.5 44.99 55.4C44.61 56.56 44.25 57.72 43.88 58.88L43.35 60.56L43.07 61.42L41.48 61.31L41.33 61.0699L41.25 60.9499C41.1645 60.8272 41.0908 60.6967 41.03 60.56C40.8778 60.2958 40.6566 60.0781 40.39 59.93L40.26 59.8399C38.4659 58.6009 36.8246 57.1542 35.37 55.53C34.86 54.93 34.29 54.35 33.75 53.78L33.09 53.0999C32.49 52.4599 31.89 51.8299 31.28 51.1999L29.87 49.76L29.05 48.9399L26.49 50.49L17.38 56C16.64 56.45 15.92 56.92 15.19 57.39L14.05 58.12H13.99C13.7534 58.292 13.4791 58.4051 13.19 58.4499C13.0113 58.6568 12.7683 58.7977 12.5 58.8499L12.08 58.9699C11.9248 59.0188 11.7601 59.0292 11.6 59ZM3.22001 25C3.67805 25.7371 4.20365 26.4301 4.79001 27.0699C5.73016 28.1482 6.75328 29.1513 7.85001 30.0699C9.04001 31.0699 10.27 32.0699 11.45 32.9699L13.2 34.36L13.48 34.5899C13.6566 34.7749 13.8671 34.9243 14.1 35.03C14.3001 35.1095 14.4615 35.2636 14.55 35.4599C14.5938 35.5592 14.6164 35.6665 14.6164 35.775C14.6164 35.8835 14.5938 35.9907 14.55 36.0899C14.5452 36.1465 14.5452 36.2034 14.55 36.26C14.5347 36.3345 14.5146 36.408 14.49 36.4799C14.4551 36.5994 14.4047 36.7136 14.34 36.8199C14.3069 36.8788 14.2702 36.9356 14.23 36.99V37.05C13.4797 39.2505 12.9406 41.5173 12.62 43.8199C12.44 45.0799 12.2 46.7499 12 48.4499C11.8232 49.8666 11.7298 51.2924 11.72 52.7199C11.7036 54.1268 11.9512 55.5243 12.45 56.8399L12.58 56.74C12.86 56.55 13.14 56.35 13.43 56.17C13.72 55.99 13.99 55.83 14.28 55.66L14.94 55.27L15.78 54.74L16.78 54.11L27.68 47.53L29.06 46.6899L30.48 45.8199C30.688 45.6698 30.9458 45.6054 31.2 45.64H31.26C31.6239 45.7516 31.9633 45.9315 32.26 46.17C32.5256 46.4363 32.7728 46.7203 33 47.02L33.21 47.29L33.94 48.1899C34.4 48.7599 34.87 49.35 35.35 49.91C37.43 52.33 39.85 55.1999 42.11 58.3199L43.85 52.93L44.32 51.4699C44.77 50.0699 45.24 48.6299 45.68 47.1999C46.0337 46.0505 46.2879 44.8729 46.44 43.68C46.4604 43.6047 46.4604 43.5252 46.44 43.4499C46.3819 43.2798 46.3707 43.0971 46.4076 42.9211C46.4446 42.7451 46.5283 42.5823 46.65 42.4499C46.81 42.2699 46.96 42.08 47.12 41.89L47.36 41.5799C47.4402 41.4746 47.5306 41.3775 47.63 41.29L48.04 40.9499C48.22 40.7999 48.41 40.65 48.58 40.49C51.029 38.401 53.3342 36.1492 55.48 33.75C56.22 32.88 56.97 32.02 57.72 31.16L59.19 29.4699L59.05 29.39L58.59 29.16C57.83 28.78 57.05 28.39 56.26 28.05C54.6772 27.341 53.0339 26.7753 51.35 26.36L50.88 26.26C48.5715 25.7833 46.2325 25.4691 43.88 25.3199C42.8694 25.204 41.8456 25.3099 40.88 25.63C40.6486 25.7358 40.39 25.7672 40.14 25.7199C39.9325 25.6715 39.7459 25.5581 39.6074 25.3962C39.4689 25.2343 39.3857 25.0324 39.37 24.8199C39.31 24.5299 39.27 24.2399 39.22 23.9499L38.83 21.2199C38.59 19.5299 38.35 17.84 38.09 16.14C37.6878 13.167 36.8135 10.2772 35.5 7.57992C34.6481 5.84642 33.5575 4.24091 32.26 2.81003H32.17C31.8032 3.01993 31.486 3.30641 31.24 3.64999C30.79 4.24999 30.42 4.75002 30.08 5.30002C29.06 6.93613 28.1802 8.65549 27.45 10.4399C26.16 13.4399 24.89 16.52 23.59 19.65C23.33 20.26 23.1 20.87 22.86 21.49L22.42 22.62C22.3436 22.7952 22.2351 22.9546 22.1 23.0899C21.9264 23.2611 21.7173 23.392 21.4874 23.4732C21.2575 23.5545 21.0126 23.5842 20.77 23.56C20.6268 23.5501 20.4832 23.5501 20.34 23.56H20C17.0281 23.3999 14.0491 23.4232 11.08 23.63H10.87C9.07001 23.78 7.21001 23.94 5.42001 24.26C4.66119 24.394 3.92212 24.6224 3.22001 24.9399V25ZM10.6 34.89C9.956 38.9039 9.8283 42.9837 10.22 47.03C10.5877 43.3854 11.3351 39.7893 12.45 36.3L10.6 34.89ZM33 50.27L33.43 50.7199C33 50.1899 31.32 48.17 31.32 48.17L31 47.8199L30.76 47.9599L33 50.27ZM14.84 19C14.08 19.21 13.29 19.43 12.54 19.68C11.79 19.93 10.91 20.2699 10.12 20.5699L9.05001 20.9699L8.39001 21.2199L7.06001 21.7199C6.78285 21.827 6.51237 21.9505 6.25001 22.0899C8.25001 21.7899 10.25 21.65 12.16 21.52H12.31C14.7283 21.39 17.1518 21.39 19.57 21.52L19.4 21.3499C19.139 21.0758 18.8546 20.8248 18.55 20.5999C18.06 20.2599 17.55 19.9299 17.01 19.5999L16.16 19.0699C16.03 18.9799 15.91 18.88 15.76 18.76L14.84 19ZM17.77 18C18.12 18.21 18.49 18.43 18.85 18.67C19.358 18.9994 19.8425 19.3635 20.3 19.76C20.57 19.99 20.81 20.2399 21.05 20.4799L21.48 19.43C21.88 18.43 22.29 17.43 22.71 16.43L23.06 15.5999C24.06 13.3099 25.06 10.9499 26.06 8.59994C26.5649 7.44497 27.1289 6.3168 27.75 5.21994C26.1571 6.58254 24.6726 8.06708 23.31 9.66C21.67 11.59 20.17 13.66 18.72 15.74V15.8L17.8 17.13L17.54 17.51L17.62 17.81L17.77 18ZM40.63 19.8499C40.73 20.7499 40.99 22.5699 41.15 23.4399C42.0758 23.2944 43.0147 23.2509 43.95 23.31C45.33 23.38 46.72 23.57 48.05 23.76H48.31C49.4 23.91 50.4 24.09 51.37 24.31L52.37 24.5699L49.89 23.1899C48.49 22.4199 46.98 21.61 45.38 20.92C44.6311 20.6 43.8545 20.3489 43.06 20.17C42.2611 19.9782 41.4488 19.8478 40.63 19.78V19.8499Z" fill="black"/>
</g>
</svg>
