<svg width="75" height="78" viewBox="0 0 75 78" fill="none" xmlns="http://www.w3.org/2000/svg">
<g id="bgStar4" opacity="0.91">
<path id="Vector" opacity="0.91" d="M45.3299 19.6201C48.4784 18.8493 51.7605 18.8014 54.93 19.48C58.62 20.25 62.3 21.09 65.93 22.1C67.858 22.6315 69.7146 23.3937 71.46 24.3701C71.6997 24.4864 71.9469 24.5866 72.1999 24.6701C72.6299 24.8401 73.09 24.98 73.51 25.19C73.5986 25.2326 73.6778 25.2925 73.743 25.3661C73.8083 25.4397 73.8582 25.5256 73.8899 25.6187C73.9215 25.7118 73.9343 25.8103 73.9275 25.9084C73.9206 26.0065 73.8942 26.1022 73.85 26.19C71.8223 30.9688 69.4633 35.6002 66.79 40.0501C65.63 41.9501 64.39 43.82 63.17 45.69C63.06 45.8468 62.9821 46.0239 62.9409 46.211C62.8997 46.3981 62.8961 46.5916 62.93 46.7801C63.2278 48.678 63.3316 50.6012 63.24 52.5201C63.13 55.6501 62.94 58.7801 62.8 61.9001C62.7 64.1301 62.62 66.36 62.53 68.6C62.53 68.78 62.53 68.97 62.53 69.19L61.4399 69.4101C61.2735 69.267 61.1166 69.1133 60.97 68.95C60.5752 68.5505 60.0764 68.27 59.53 68.1401C57.0345 67.2597 54.6514 66.0883 52.43 64.6501C51.29 63.8801 50.08 63.19 48.9 62.48L46.11 60.8001L43.9499 59.5301L42.29 58.5301C42.23 58.5801 42.1301 58.64 42.0601 58.71C38.1201 62.85 34.1833 66.9867 30.25 71.12C29.13 72.3101 28.0499 73.5401 26.9499 74.7501C26.7578 75.021 26.4848 75.2241 26.17 75.33C26.1226 75.3525 26.0803 75.3845 26.0459 75.4241C26.0115 75.4637 25.9856 75.51 25.97 75.5601C25.9305 75.662 25.8714 75.755 25.7959 75.8339C25.7204 75.9128 25.63 75.9761 25.53 76.0201C25.3527 76.1183 25.1823 76.2285 25.02 76.35C24.9623 76.3985 24.8942 76.433 24.821 76.4509C24.7478 76.4687 24.6715 76.4694 24.598 76.4529C24.5245 76.4365 24.4557 76.4033 24.3971 76.356C24.3385 76.3087 24.2916 76.2485 24.26 76.1801C23.85 75.5401 23.44 74.9101 23.02 74.2901C22.9716 74.1904 22.8951 74.107 22.8 74.0501C22.4786 73.8822 22.2193 73.6159 22.06 73.2901C20.9005 71.4543 19.9257 69.5081 19.15 67.48C17.8376 64.2611 16.7124 60.9689 15.78 57.6201C14.8793 54.376 14.3097 51.0489 14.0799 47.69C14.0829 47.5299 14.0338 47.3732 13.9401 47.2433C13.8463 47.1135 13.713 47.0176 13.5601 46.97C11.261 46.0205 9.0203 44.9353 6.84997 43.72C5.33317 42.8798 3.91448 41.8737 2.61999 40.72C2.30033 40.4404 1.99964 40.1397 1.71996 39.82C1.54864 39.6364 1.40702 39.4272 1.30004 39.2C1.23433 39.0731 1.20954 38.929 1.22924 38.7875C1.24894 38.646 1.31216 38.5142 1.41003 38.4101C1.88003 37.8201 2.35002 37.23 2.78002 36.61C3.90776 34.9194 5.33441 33.4487 6.98998 32.2701C8.98998 30.8901 10.92 29.44 12.93 28.08C13.93 27.38 15.06 26.81 16.14 26.2C16.2659 26.1408 16.3781 26.056 16.4694 25.951C16.5606 25.8459 16.629 25.723 16.67 25.59C17.07 24.41 17.47 23.23 17.9 22.07C18.9 19.31 19.8999 16.5501 21.1899 13.8801C22.9586 10.1369 25.1531 6.61029 27.73 3.37005C28.2449 2.71346 28.7958 2.08583 29.38 1.49005C29.6505 1.20986 29.9604 0.970706 30.3 0.780086C30.69 0.560086 30.87 0.660106 31.09 1.05011C31.1595 1.17317 31.2594 1.27636 31.38 1.35003C33.9991 2.89309 36.336 4.87141 38.29 7.20001C40.7741 10.1776 42.7967 13.5114 44.29 17.09L45.16 19.09C45.19 19.32 45.2499 19.4601 45.3299 19.6201ZM2.72997 39.24C2.72997 39.24 2.72997 39.3 2.72997 39.32C2.80797 39.418 2.89144 39.5115 2.97997 39.6C3.84289 40.4301 4.78779 41.1706 5.80004 41.8101C7.29851 42.7976 8.87349 43.6636 10.51 44.4001C13.09 45.5601 15.7 46.6601 18.3 47.7801C18.7615 48.0444 19.2605 48.2365 19.78 48.35C19.8238 48.3498 19.8669 48.3598 19.9061 48.3792C19.9453 48.3987 19.9794 48.4271 20.0056 48.4621C20.0319 48.4971 20.0495 48.5377 20.0572 48.5807C20.0649 48.6238 20.0625 48.6681 20.05 48.71C20.035 48.8964 20.035 49.0837 20.05 49.2701C20.0556 49.3767 20.0556 49.4834 20.05 49.59C19.9931 49.7254 19.9496 49.8662 19.92 50.0101C19.7248 52.9319 19.8151 55.8658 20.1899 58.7701C20.4199 60.6901 20.67 62.6101 20.96 64.5201C21.2115 66.2964 21.5689 68.0563 22.03 69.7901C22.5192 71.6831 23.3904 73.4561 24.59 75.0001L24.89 75.35L25.23 74.9201C25.59 74.4801 25.9399 74.04 26.3299 73.62C26.7199 73.2001 27.3299 72.6201 27.8299 72.0601C28.3299 71.5001 29.04 70.7401 29.66 70.0601C33.28 66.2534 36.9034 62.4501 40.53 58.6501C41.47 57.6501 42.3899 56.6501 43.3199 55.6501C43.4199 55.5401 43.5799 55.3901 43.6899 55.4101C44.0682 55.4221 44.4412 55.5034 44.79 55.6501C45.2862 55.9497 45.7606 56.2839 46.21 56.6501C47.35 57.4601 48.47 58.31 49.63 59.09C53.5 61.71 57.3199 64.4 60.9499 67.35C61.0699 67.45 61.19 67.6001 61.43 67.5201V66.7701C61.55 64.3234 61.6633 61.8734 61.77 59.4201C61.89 56.9401 62.02 54.42 62.09 51.97C62.1481 50.4429 62.0712 48.9137 61.86 47.4001C61.8307 47.2037 61.759 47.016 61.65 46.85C61.5933 46.7658 61.563 46.6665 61.563 46.565C61.563 46.4634 61.5933 46.3643 61.65 46.2801C61.85 45.8501 62.03 45.42 62.22 44.99C62.2706 44.877 62.3274 44.7669 62.39 44.6601C62.68 44.2301 62.99 43.8101 63.28 43.3801C65.5403 40.0658 67.5716 36.6011 69.36 33.0101C70.36 30.8801 71.41 28.7601 72.43 26.6401C72.52 26.4601 72.57 26.2701 72.67 26.0301C72.3687 25.897 72.0578 25.7866 71.74 25.7C70.47 25.45 69.21 25.1901 67.93 25.0101C65.5702 24.6306 63.1771 24.4999 60.79 24.6201C57.8666 24.7982 54.9593 25.1825 52.09 25.7701C50.7484 25.9719 49.4699 26.4744 48.35 27.24C47.89 27.59 47.57 27.49 47.29 26.97C47.13 26.67 46.99 26.3501 46.85 26.0301C45.55 23.0301 44.27 20.0301 42.96 17.0301C41.4709 13.553 39.4463 10.3305 36.96 7.48004C35.317 5.61129 33.4143 3.98812 31.31 2.66009C31.15 2.56009 30.9899 2.48008 30.8299 2.40008C30.7268 2.57265 30.6098 2.73652 30.48 2.89007C30.0411 3.3266 29.7002 3.85161 29.48 4.43011C29.18 5.22011 28.87 6.01 28.62 6.82C27.9326 9.14204 27.4377 11.5168 27.14 13.9201C26.57 18.0001 26.04 22.0901 25.51 26.1801C25.34 27.4801 25.2299 28.8 25.0799 30.11C25.0654 30.2494 25.0173 30.3832 24.9399 30.5001C24.8375 30.6842 24.6941 30.8423 24.5206 30.962C24.3472 31.0816 24.1485 31.1596 23.9399 31.19C23.6299 31.19 23.33 31.3401 23.03 31.4101C19.4004 32.1837 15.8232 33.1857 12.3199 34.4101C10.0738 35.1826 7.86768 36.067 5.70995 37.0601C4.59319 37.601 3.5836 38.3395 2.72997 39.24ZM23.98 29.1801C23.98 28.9801 24.04 28.84 24.06 28.7C24.3 26.7 24.52 24.7701 24.79 22.8101C25.25 19.3501 25.71 15.89 26.22 12.44C26.5868 9.67729 27.2817 6.96822 28.29 4.37005C28.29 4.37005 28.29 4.26003 28.29 4.10003C28.09 4.35003 27.9399 4.51 27.8199 4.69C25.5651 7.6598 23.6153 10.8493 22 14.21C20.65 17.11 19.5499 20.1 18.4499 23.1C18.0999 24.03 17.7899 24.97 17.4499 25.83L17.92 26.6601C18.56 26.8501 19.28 27.0301 19.98 27.2701C20.6638 27.4877 21.332 27.7517 21.98 28.0601C22.7 28.3801 23.31 28.7901 24 29.1801H23.98ZM68.05 23.8801V23.8101L67.76 23.6701C67.14 23.4601 66.52 23.2001 65.89 23.0401C63.59 22.4401 61.29 21.8701 58.98 21.3101C56.9429 20.7847 54.8802 20.3641 52.8 20.0501C50.4411 19.7489 48.0466 19.8913 45.74 20.47C46.4192 22.3537 47.221 24.191 48.14 25.97C49.3024 25.3482 50.5537 24.9098 51.85 24.6701C53.6 24.2801 55.38 24.06 57.16 23.83C60.2923 23.3885 63.4683 23.3515 66.61 23.72L68.05 23.8801ZM16.5699 27.07C16.5699 27.07 16.41 27.13 16.3 27.19C15.09 27.92 13.86 28.6201 12.68 29.4001C11.5 30.1801 10.18 31.19 8.93004 32.09C8.21004 32.6 7.49002 33.0901 6.78002 33.6301C5.69374 34.4817 4.74286 35.4932 3.95995 36.6301C3.91681 36.7 3.88001 36.7736 3.84997 36.85C6.99131 35.2659 10.2512 33.9285 13.6 32.85C16.952 31.7722 20.3564 30.8644 23.8 30.1301C23.3 29.8301 22.9 29.57 22.48 29.33C21.9284 29.0017 21.3536 28.7143 20.76 28.47C19.65 28.07 18.51 27.77 17.38 27.47C17.14 27.33 16.9099 27.21 16.5699 27.07ZM14.92 47.6701C15.47 55.3701 17.92 62.44 20.92 69.37C19.71 62.75 18.5999 56.1301 19.0799 49.3701L14.92 47.6701ZM57.79 66.5401L57.87 66.4301L57.5601 66.24C56.6401 65.56 55.73 64.85 54.79 64.24C51.56 61.95 48.32 59.6801 45.09 57.4001C44.781 57.1728 44.4452 56.9846 44.09 56.84L42.93 58.0101L44.05 58.6801L47.05 60.48L48.67 61.48C50.08 62.33 51.51 63.1501 52.89 64.0501C54.314 64.9761 55.8125 65.7821 57.37 66.46L57.79 66.5401Z" fill="black"/>
<path id="Vector_2" opacity="0.91" d="M2.72998 39.24C3.5987 38.3768 4.61466 37.6758 5.72998 37.17C7.88771 36.177 10.0938 35.2925 12.34 34.52C15.8433 33.2956 19.4205 32.2936 23.05 31.52C23.35 31.45 23.65 31.35 23.96 31.3C24.1685 31.2697 24.3672 31.1916 24.5406 31.0719C24.7141 30.9522 24.8576 30.7942 24.96 30.61C25.0374 30.4932 25.0854 30.3593 25.1 30.22C25.25 28.91 25.36 27.59 25.53 26.29C26.06 22.2 26.59 18.11 27.16 14.03C27.4577 11.6268 27.9527 9.25209 28.64 6.93005C28.89 6.12005 29.2 5.33004 29.5 4.54004C29.7202 3.96154 30.0611 3.43653 30.5 3C30.6298 2.84645 30.7468 2.68258 30.85 2.51001C31.01 2.59001 31.17 2.67002 31.33 2.77002C33.4342 4.09805 35.337 5.72121 36.98 7.58997C39.4664 10.4405 41.4909 13.6629 42.98 17.14C44.29 20.14 45.57 23.14 46.87 26.14C47.01 26.46 47.1501 26.78 47.3101 27.08C47.5901 27.6 47.91 27.7 48.37 27.35C49.4899 26.5844 50.7685 26.0819 52.11 25.88C54.9793 25.2924 57.8866 24.9081 60.8101 24.73C63.1971 24.6098 65.5901 24.7406 67.95 25.12C69.2299 25.3 70.49 25.5601 71.76 25.8101C72.0778 25.8966 72.3886 26.0069 72.6899 26.14C72.5899 26.38 72.5399 26.57 72.45 26.75C71.45 28.87 70.45 30.99 69.38 33.12C67.5917 36.711 65.5603 40.1757 63.3 43.49C63.01 43.92 62.7 44.34 62.41 44.77C62.3474 44.8769 62.2906 44.987 62.24 45.1C62.05 45.53 61.87 45.96 61.67 46.39C61.6133 46.4742 61.5829 46.5735 61.5829 46.675C61.5829 46.7766 61.6133 46.8757 61.67 46.96C61.7791 47.1259 61.8507 47.3136 61.88 47.51C62.0912 49.0236 62.1681 50.5528 62.11 52.08C62.04 54.56 61.91 57.08 61.79 59.53C61.67 61.98 61.57 64.43 61.45 66.88V67.63C61.2099 67.71 61.09 67.56 60.97 67.46C57.34 64.46 53.52 61.82 49.65 59.2C48.49 58.42 47.37 57.57 46.23 56.76C45.7807 56.3938 45.3062 56.0597 44.8101 55.76C44.4612 55.6133 44.0882 55.532 43.71 55.52C43.6 55.52 43.44 55.65 43.34 55.76C42.41 56.76 41.49 57.76 40.55 58.76C36.93 62.56 33.3067 66.3634 29.6801 70.17C29.0601 70.82 28.47 71.49 27.85 72.17C27.23 72.85 26.85 73.17 26.35 73.73C25.85 74.29 25.61 74.59 25.25 75.03L24.91 75.46L24.61 75.11C23.4104 73.566 22.5393 71.7931 22.05 69.9C21.5889 68.1662 21.2316 66.4064 20.98 64.63C20.69 62.72 20.44 60.8 20.21 58.88C19.8351 55.9757 19.7447 53.0418 19.9399 50.12C19.9695 49.9761 20.013 49.8354 20.0699 49.7C20.0755 49.5934 20.0755 49.4866 20.0699 49.38C20.0549 49.1936 20.0549 49.0063 20.0699 48.8199C20.0824 48.778 20.085 48.7337 20.0773 48.6907C20.0696 48.6476 20.0519 48.607 20.0256 48.572C19.9994 48.537 19.9653 48.5086 19.9261 48.4891C19.887 48.4697 19.8438 48.4597 19.8 48.46C19.2806 48.3465 18.7814 48.1543 18.3199 47.89C15.7199 46.77 13.11 45.67 10.53 44.51C8.89352 43.7736 7.31842 42.9075 5.81995 41.92C4.8077 41.2805 3.86292 40.54 3 39.71C2.91147 39.6214 2.828 39.528 2.75 39.4301C2.75 39.4301 2.73998 39.27 2.72998 39.24ZM36.98 41.71C36.81 41.77 36.62 41.83 36.42 41.88L32.33 42.99C32.2371 43.006 32.1466 43.0328 32.0601 43.0699C31.7801 43.1799 31.66 43.38 31.73 43.61C31.7666 43.7155 31.8411 43.8036 31.9391 43.8572C32.037 43.9108 32.1514 43.9261 32.26 43.9C32.37 43.9 32.47 43.85 32.58 43.83L34.63 43.28C35.78 42.95 36.9201 42.62 38.0601 42.28C38.3179 42.2053 38.5636 42.0941 38.79 41.95C38.845 41.9263 38.8944 41.8917 38.9355 41.8483C38.9767 41.8048 39.0085 41.7535 39.0291 41.6974C39.0496 41.6412 39.0586 41.5814 39.0553 41.5217C39.052 41.462 39.0366 41.4035 39.01 41.35C38.89 41.14 38.68 41.09 38.39 41.2L38.02 41.35C37.7863 40.8847 37.7432 40.3465 37.9 39.85C38.21 39.78 38.49 39.73 38.76 39.64C39.03 39.55 39.22 39.33 39.15 39.09C39.08 38.85 38.8801 38.74 38.55 38.8L37.99 38.91L32.6801 39.71C32.2201 39.78 31.75 39.86 31.29 39.95C30.99 39.95 30.84 40.18 30.86 40.42C30.875 40.5379 30.936 40.645 31.0297 40.718C31.1233 40.7911 31.242 40.8242 31.36 40.8101C31.5165 40.8204 31.6735 40.8204 31.83 40.8101L36.35 40.09C36.53 40.09 36.71 40.09 36.91 40.03L36.98 41.71ZM28.92 24.52C28.9248 24.5833 28.9248 24.6467 28.92 24.71C28.92 25.04 29.1 25.23 29.35 25.23C29.6 25.23 29.75 25.07 29.78 24.76C29.81 24.45 29.78 24.19 29.78 23.91C29.88 22.29 29.93 20.6701 30.09 19.0601C30.41 15.8401 30.85 12.6299 31.45 9.43994C31.4691 9.38808 31.4779 9.33295 31.4757 9.27771C31.4735 9.22247 31.4604 9.16821 31.4371 9.11804C31.4139 9.06787 31.381 9.02278 31.3403 8.98535C31.2996 8.94793 31.2519 8.91898 31.2 8.90002C31.0963 8.85985 30.9812 8.86129 30.8787 8.90417C30.7761 8.94705 30.6942 9.02802 30.65 9.13C30.5643 9.31361 30.5069 9.50913 30.48 9.70996C30.24 11.24 30 12.71 29.78 14.28C29.2791 17.672 28.9919 21.092 28.92 24.52ZM49.86 39.74L49.3 39.91C48.51 40.16 47.71 40.4 46.92 40.66C46.7709 40.7007 46.6291 40.7648 46.5 40.85C46.4148 40.8976 46.3494 40.9742 46.3156 41.0658C46.2817 41.1574 46.2816 41.258 46.3153 41.3496C46.3491 41.4412 46.4145 41.5178 46.4996 41.5656C46.5848 41.6133 46.6843 41.629 46.78 41.61C46.8891 41.5939 46.9962 41.5672 47.1 41.53C48.1663 41.1111 49.2718 40.7995 50.4 40.6C50.4915 40.5758 50.579 40.5388 50.66 40.49C50.83 40.42 51.0001 40.34 51.1801 40.28C51.3601 40.22 51.7799 40.09 52.0699 39.96C52.2316 39.9046 52.3716 39.7997 52.47 39.66C52.5251 39.522 52.5251 39.368 52.47 39.23C52.4365 39.1484 52.3742 39.0819 52.2949 39.0432C52.2157 39.0045 52.125 38.9963 52.04 39.02C51.92 39.02 51.8099 39.12 51.6899 39.16L50.79 39.46C50.7304 38.9937 50.7472 38.5209 50.84 38.0601C50.9 37.6201 50.92 37.62 51.35 37.52C51.5371 37.4899 51.7213 37.4431 51.9 37.38C51.9584 37.3685 52.0137 37.3449 52.0625 37.3109C52.1113 37.2769 52.1525 37.2331 52.1835 37.1824C52.2145 37.1316 52.2347 37.0751 52.2427 37.0161C52.2507 36.9572 52.2463 36.8972 52.23 36.84C52.1954 36.7347 52.1233 36.6459 52.0273 36.5906C51.9314 36.5352 51.8184 36.5173 51.71 36.54H51.48C50.98 36.63 50.48 36.7101 49.99 36.8101C48.99 37.0101 47.99 37.22 46.99 37.45C46.56 37.5499 46.4 37.7701 46.46 38.05C46.52 38.33 46.77 38.4199 47.2 38.3199L49.55 37.8C49.67 37.8 49.7901 37.8 49.9301 37.8L49.86 39.74Z" fill="#C89458"/>
<path id="Vector_3" opacity="0.91" d="M24 29.1801C23.33 28.7901 22.7201 28.3801 22.0601 28.0601C21.4121 27.7517 20.7439 27.4877 20.0601 27.27C19.3601 27.03 18.64 26.85 18 26.66L17.53 25.83C17.83 24.97 18.14 24.03 18.53 23.1C19.63 20.1 20.73 17.1 22.08 14.21C23.6953 10.8492 25.6452 7.65975 27.9 4.68994C28.02 4.50994 28.17 4.34998 28.37 4.09998C28.37 4.25998 28.37 4.32 28.37 4.37C27.3617 6.96816 26.6669 9.67723 26.3 12.4399C25.79 15.8899 25.3 19.3501 24.87 22.8101C24.6 24.8101 24.38 26.74 24.14 28.7C24 28.84 24 29.0001 24 29.1801Z" fill="#A3784C"/>
<path id="Vector_4" opacity="0.91" d="M68.05 23.88L66.63 23.72C63.4883 23.3514 60.3123 23.3884 57.1801 23.8299C55.4001 24.0599 53.62 24.28 51.87 24.67C50.5738 24.9097 49.3224 25.3482 48.16 25.97C47.241 24.1909 46.4393 22.3536 45.76 20.47C48.0666 19.8912 50.461 19.7488 52.8199 20.05C54.9001 20.3641 56.9629 20.7846 59 21.31C61.31 21.87 63.61 22.44 65.91 23.04C66.54 23.2 67.16 23.46 67.78 23.67L68.0699 23.81L68.05 23.88Z" fill="#A3784C"/>
<path id="Vector_5" opacity="0.91" d="M16.5699 27.0699C16.9099 27.2099 17.14 27.33 17.38 27.41C18.51 27.76 19.65 28.06 20.76 28.41C21.3536 28.6543 21.9284 28.9417 22.48 29.27C22.9 29.51 23.3 29.7699 23.8 30.0699C20.3564 30.8042 16.952 31.7122 13.6 32.79C10.2512 33.8685 6.99132 35.2059 3.84998 36.79C3.88002 36.7136 3.91682 36.6399 3.95996 36.5699C4.74287 35.4331 5.69375 34.4216 6.78003 33.5699C7.49003 33.0499 8.21005 32.57 8.93005 32.03C10.1801 31.13 11.4001 30.2 12.6801 29.34C13.9601 28.48 15.09 27.86 16.3 27.13C16.41 27.13 16.5299 27.0899 16.5699 27.0699Z" fill="#A3784C"/>
<path id="Vector_6" opacity="0.91" d="M14.92 47.67L19.04 49.34C18.56 56.13 19.67 62.75 20.88 69.34C17.9 62.44 15.47 55.37 14.92 47.67Z" fill="#A3784C"/>
<path id="Vector_7" opacity="0.91" d="M57.79 66.54L57.37 66.38C55.8125 65.7021 54.314 64.896 52.89 63.97C51.51 63.07 50.08 62.25 48.67 61.4L47.05 60.4L44.05 58.6L42.9301 57.9301L44.09 56.76C44.4452 56.9046 44.7811 57.0927 45.09 57.3199C48.32 59.5999 51.56 61.87 54.79 64.16C55.73 64.82 56.6401 65.53 57.5601 66.16L57.87 66.35L57.79 66.54Z" fill="#A3784C"/>
<path id="Vector_8" opacity="0.91" d="M37 41.71L36.9301 39.98C36.7301 39.98 36.55 39.9801 36.37 40.0401L31.85 40.76C31.6935 40.7704 31.5365 40.7704 31.38 40.76C31.2621 40.7742 31.1433 40.741 31.0497 40.668C30.956 40.5949 30.895 40.4879 30.88 40.37C30.88 40.13 31.0101 39.95 31.3101 39.9C31.7701 39.81 32.24 39.7301 32.7 39.6601L38.01 38.86L38.5699 38.75C38.8999 38.69 39.11 38.7501 39.17 39.0401C39.23 39.3301 39.1 39.49 38.78 39.59C38.46 39.69 38.23 39.7301 37.92 39.8001C37.7632 40.2966 37.8063 40.8348 38.04 41.3001L38.41 41.15C38.7 41.04 38.91 41.0901 39.03 41.3001C39.0567 41.3536 39.072 41.412 39.0753 41.4717C39.0786 41.5314 39.0697 41.5912 39.0491 41.6474C39.0285 41.7035 38.9967 41.7549 38.9556 41.7984C38.9145 41.8418 38.865 41.8764 38.8101 41.9C38.5837 42.0442 38.3378 42.1553 38.08 42.23C36.94 42.58 35.8 42.91 34.65 43.23L32.6 43.7801C32.49 43.7801 32.39 43.84 32.28 43.85C32.1715 43.876 32.0571 43.8607 31.9591 43.8072C31.8612 43.7536 31.7866 43.6656 31.75 43.5601C31.68 43.3301 31.75 43.13 32.08 43.02C32.1665 42.9829 32.2571 42.9559 32.35 42.94L36.4399 41.83C36.6199 41.83 36.81 41.77 37 41.71Z" fill="black"/>
<path id="Vector_9" opacity="0.91" d="M28.92 24.5201C29.0118 21.0908 29.319 17.6708 29.84 14.2801C30.06 12.7601 30.3 11.28 30.54 9.71001C30.567 9.50919 30.6242 9.31366 30.71 9.13006C30.7541 9.02807 30.8362 8.94711 30.9387 8.90423C31.0413 8.86135 31.1564 8.8599 31.26 8.90008C31.3119 8.91903 31.3596 8.94798 31.4003 8.9854C31.441 9.02283 31.4738 9.06793 31.4971 9.1181C31.5203 9.16826 31.5334 9.22252 31.5356 9.27776C31.5379 9.333 31.5292 9.38813 31.51 9.43999C30.91 12.63 30.51 15.8401 30.15 19.0601C29.99 20.6701 29.94 22.2901 29.84 23.9101C29.84 24.1901 29.84 24.4801 29.84 24.7601C29.84 25.0401 29.64 25.23 29.41 25.23C29.18 25.23 29 25.04 28.98 24.71C28.9649 24.6452 28.945 24.5818 28.92 24.5201Z" fill="#DCCFBD"/>
<path id="Vector_10" opacity="0.91" d="M49.86 39.7399L49.98 37.8299C49.84 37.8299 49.72 37.8299 49.6 37.8299L47.25 38.3499C46.82 38.4499 46.58 38.3499 46.51 38.0799C46.44 37.8099 46.6101 37.5799 47.0401 37.4799C48.0401 37.2499 49.0401 37.0399 50.0401 36.8399C50.5301 36.7399 51.0401 36.6599 51.5301 36.5699H51.76C51.8684 36.5471 51.9815 36.5652 52.0774 36.6206C52.1734 36.6759 52.2455 36.7647 52.2801 36.8699C52.2964 36.9271 52.3006 36.987 52.2926 37.046C52.2846 37.1049 52.2646 37.1616 52.2335 37.2124C52.2025 37.2631 52.1612 37.3069 52.1124 37.3409C52.0637 37.3749 52.0083 37.3984 51.95 37.41C51.7712 37.4731 51.5872 37.5199 51.4 37.55C50.97 37.65 50.95 37.6499 50.89 38.0899C50.7973 38.5508 50.7804 39.0237 50.84 39.4899L51.74 39.1899C51.86 39.1899 51.97 39.08 52.09 39.05C52.1749 39.0262 52.2657 39.0345 52.345 39.0732C52.4243 39.1119 52.4865 39.1784 52.52 39.26C52.5751 39.398 52.5751 39.5519 52.52 39.6899C52.4217 39.8296 52.2817 39.9346 52.12 39.9899C51.83 40.1199 51.52 40.2 51.23 40.31C50.94 40.42 50.88 40.45 50.71 40.52C50.629 40.5687 50.5414 40.6058 50.45 40.63C49.3218 40.8295 48.2164 41.1411 47.15 41.56C47.0463 41.5972 46.939 41.6239 46.83 41.64C46.7342 41.659 46.6349 41.6433 46.5497 41.5955C46.4645 41.5478 46.3991 41.4712 46.3654 41.3796C46.3316 41.288 46.3317 41.1872 46.3655 41.0957C46.3993 41.0041 46.4648 40.9276 46.5501 40.88C46.6791 40.7948 46.8208 40.7306 46.97 40.6899C47.76 40.4299 48.56 40.1899 49.35 39.9399L49.86 39.7399Z" fill="black"/>
<path id="Vector_11" opacity="0.91" d="M24.72 77.21C24.5159 77.2092 24.3158 77.1541 24.14 77.0504C23.9643 76.9467 23.8193 76.7982 23.72 76.62C23.32 75.99 22.9 75.36 22.49 74.74C22.1133 74.5325 21.8017 74.2243 21.59 73.85V73.77C20.398 71.8965 19.3932 69.9102 18.59 67.84C17.2688 64.5983 16.1369 61.2828 15.2 57.91C14.2898 54.6227 13.7103 51.2525 13.47 47.85C13.472 47.8133 13.472 47.7766 13.47 47.74H13.37C11.046 46.7804 8.78188 45.6817 6.58997 44.45C5.03336 43.5906 3.57481 42.5647 2.24 41.39C1.92 41.1 1.6 40.78 1.24 40.39C1.03079 40.1595 0.85566 39.9002 0.71998 39.62C0.596979 39.3799 0.549361 39.1083 0.583261 38.8407C0.617161 38.5731 0.731063 38.3218 0.910043 38.12L1.00001 38C1.42001 37.46 1.86001 36.91 2.25001 36.35C3.42562 34.5944 4.90959 33.0664 6.63001 31.84C7.53001 31.22 8.42007 30.5799 9.31007 29.9399C10.3701 29.1799 11.47 28.4 12.57 27.65C13.44 27.06 14.36 26.5599 15.24 26.0699L15.84 25.74C15.8925 25.7166 15.9393 25.6822 15.9773 25.639C16.0153 25.5959 16.0435 25.545 16.0601 25.49L16.27 24.88C16.6 23.88 16.94 22.88 17.27 21.96V21.86C18.27 19.17 19.2701 16.38 20.5501 13.72C22.339 9.92897 24.5568 6.3556 27.16 3.06995C27.62 2.48995 28.16 1.88002 28.85 1.15002C29.1667 0.817011 29.5347 0.536727 29.94 0.319946C30.1267 0.202528 30.3399 0.133816 30.5601 0.119995C30.7899 0.125333 31.0131 0.197114 31.203 0.32666C31.3929 0.456206 31.5412 0.637953 31.63 0.849976C34.3275 2.43025 36.7354 4.45939 38.75 6.84998C41.2787 9.87496 43.3383 13.2628 44.86 16.9L45.6899 18.83C46.9192 18.5539 48.1711 18.3899 49.4301 18.34C51.3124 18.2593 53.1974 18.4174 55.04 18.8101C59.36 19.7101 62.88 20.5399 66.04 21.4399C68.0237 21.975 69.932 22.7579 71.72 23.77C71.84 23.83 71.98 23.8799 72.14 23.9399L72.38 24.03L72.78 24.1801C73.123 24.2879 73.4573 24.4215 73.78 24.58C73.9489 24.6591 74.1003 24.7712 74.2252 24.9097C74.3502 25.0481 74.4462 25.21 74.5077 25.3861C74.5692 25.5622 74.5949 25.7488 74.5833 25.9349C74.5716 26.1211 74.5228 26.3029 74.4399 26.47C72.4034 31.2986 70.0275 35.977 67.33 40.47C66.33 42.08 65.33 43.69 64.27 45.25L63.7 46.12C63.6326 46.2068 63.5852 46.3073 63.561 46.4144C63.5368 46.5216 63.5366 46.6327 63.5601 46.74C63.8637 48.6843 63.9709 50.6542 63.88 52.62C63.81 54.62 63.71 56.53 63.61 58.48C63.55 59.65 63.4899 60.83 63.4399 62C63.3699 63.51 63.31 65 63.25 66.51L63.1701 68.6899L63.11 69.8101L61.1701 70.2L60.9201 69.96L60.79 69.84C60.6444 69.7195 60.5105 69.5856 60.39 69.4399C60.1139 69.1697 59.7674 68.9827 59.39 68.9L59.21 68.83C56.6601 67.9439 54.2286 66.7483 51.97 65.27C51.16 64.73 50.3 64.27 49.47 63.72L48.47 63.12C47.55 62.55 46.6199 61.9999 45.6899 61.4399L43.54 60.1801L42.3001 59.46L39.74 62.15C36.7133 65.3234 33.6867 68.5033 30.66 71.6899C29.92 72.4699 29.21 73.2601 28.49 74.0601C28.12 74.4801 27.74 74.8901 27.36 75.3101L27.3001 75.37C27.0817 75.6564 26.792 75.8805 26.46 76.02C26.3206 76.328 26.076 76.5762 25.77 76.72C25.61 76.81 25.4601 76.91 25.3101 77.01C25.1329 77.1242 24.9301 77.1929 24.72 77.21ZM3.65003 39.29C4.43475 40.0318 5.28479 40.7012 6.18995 41.29C7.66299 42.2532 9.2076 43.1022 10.8101 43.83C12.5501 44.61 14.3301 45.38 16.0501 46.12L18.59 47.21L19 47.4C19.2725 47.5571 19.5703 47.6654 19.88 47.72C20.0115 47.7321 20.1393 47.7702 20.256 47.832C20.3727 47.8938 20.4761 47.978 20.5601 48.08C20.6408 48.1893 20.6984 48.314 20.7294 48.4464C20.7603 48.5788 20.7639 48.7161 20.74 48.85C20.73 48.9196 20.73 48.9904 20.74 49.0601C20.745 49.1533 20.745 49.2467 20.74 49.34C20.7346 49.4955 20.7112 49.65 20.6701 49.8C20.6495 49.8787 20.6226 49.9556 20.59 50.03V50.12C20.4036 52.992 20.4941 55.8753 20.86 58.73C21.05 60.3 21.32 62.37 21.63 64.46C21.8769 66.2092 22.2276 67.9423 22.6801 69.65C23.1219 71.3329 23.8711 72.9196 24.89 74.33L25.02 74.1801C25.29 73.8501 25.56 73.5201 25.84 73.1801C26.12 72.8401 26.4 72.59 26.69 72.3L27.36 71.62L28.19 70.71L29.19 69.64L40.07 58.23L41.4399 56.78L42.86 55.28C42.9569 55.1558 43.0775 55.052 43.2149 54.9747C43.3522 54.8975 43.5035 54.8483 43.66 54.83H43.78C44.2431 54.8496 44.698 54.9583 45.12 55.15C45.5246 55.3787 45.9123 55.636 46.28 55.92L46.62 56.1801L47.79 57.02C48.52 57.55 49.27 58.1 50.02 58.61C53.3 60.82 57.12 63.47 60.83 66.45C60.83 66.45 61.07 61.34 61.16 59.45L61.24 57.55C61.33 55.73 61.42 53.85 61.47 52.01C61.5265 50.5231 61.4529 49.0341 61.25 47.5601C61.2352 47.4611 61.2012 47.366 61.15 47.28C61.0267 47.1009 60.9557 46.8909 60.9451 46.6736C60.9345 46.4563 60.9846 46.2404 61.09 46.05C61.22 45.78 61.34 45.5 61.46 45.23L61.66 44.78C61.7212 44.6276 61.7948 44.4804 61.88 44.34L62.26 43.8L62.76 43.08C64.9871 39.7875 66.9916 36.3499 68.76 32.79L70.59 28.97L71.8001 26.47H71.61L70.99 26.34C69.99 26.14 68.89 25.93 67.84 25.78C65.7203 25.4477 63.575 25.3071 61.4301 25.36H60.83C57.9399 25.5296 55.0658 25.9073 52.23 26.49C50.9865 26.6731 49.8003 27.1345 48.76 27.84C48.5194 28.0397 48.222 28.1587 47.91 28.1801C47.6488 28.1832 47.3927 28.1063 47.1764 27.9597C46.9601 27.8131 46.7938 27.6038 46.7 27.36C46.53 27.03 46.38 26.7 46.24 26.36L44.88 23.22C44.04 21.28 43.1967 19.34 42.35 17.4C40.8955 13.9836 38.9111 10.818 36.47 8.02002C34.8871 6.22579 33.0592 4.66373 31.04 3.38L30.95 3.46997C30.5824 3.83805 30.2992 4.28167 30.12 4.77002C29.78 5.63002 29.5 6.35999 29.27 7.12C28.5867 9.40795 28.0983 11.7496 27.8101 14.12C27.2501 18.12 26.7201 22.21 26.1801 26.36C26.0801 27.17 25.99 27.98 25.91 28.8L25.76 30.29C25.7244 30.5237 25.6428 30.748 25.52 30.95C25.3727 31.2138 25.1675 31.4409 24.9198 31.6141C24.6721 31.7873 24.3884 31.9021 24.09 31.95C23.9146 31.9804 23.741 32.0205 23.57 32.0699L23.21 32.16C19.6113 32.9394 16.0645 33.9413 12.59 35.16L12.34 35.25C10.1984 35.986 8.09579 36.8304 6.04005 37.78C5.17854 38.1726 4.37448 38.6806 3.65003 39.29ZM15.65 48.6899C16.1836 53.6924 17.3565 58.606 19.14 63.3101C18.3903 58.8416 18.1121 54.3067 18.3101 49.78L15.65 48.6899ZM47.36 59.86L48.02 60.25L44.6701 57.89C44.5111 57.7776 44.344 57.6773 44.1701 57.59L43.9301 57.83L47.36 59.86ZM15.5501 28.4C14.7101 28.9 13.84 29.4 13.02 29.96C12.2 30.52 11.2701 31.18 10.4301 31.8C10.0501 32.08 9.67004 32.36 9.28004 32.63L8.56995 33.14L7.15003 34.14C6.85351 34.3569 6.56974 34.5905 6.30006 34.84C8.58006 33.84 10.9001 33.03 13.1701 32.24L13.35 32.1801C16.1936 31.2433 19.0843 30.4555 22.01 29.8199L21.75 29.67C21.354 29.4268 20.9354 29.2225 20.5 29.0601C19.8 28.8001 19.06 28.59 18.34 28.37L17.15 28.01C16.9538 27.9498 16.763 27.8729 16.58 27.78L15.5501 28.4ZM18.71 26.1801C19.2 26.3201 19.71 26.46 20.21 26.63C20.9241 26.8606 21.6223 27.1378 22.3001 27.46C22.6901 27.65 23.0701 27.87 23.4301 28.09L23.6 26.6801C23.76 25.3601 23.92 24.0401 24.09 22.6801L24.24 21.5699C24.65 18.5699 25.07 15.38 25.53 12.3C25.7594 10.7556 26.0664 9.22353 26.45 7.70996C24.9859 9.85375 23.6951 12.1109 22.59 14.46C21.26 17.3 20.15 20.3 19.08 23.2V23.29C18.85 23.92 18.6301 24.5601 18.4201 25.1801L18.23 25.72L18.41 26.05L18.71 26.1801ZM46.6 20.96C47.01 21.96 47.92 24.0999 48.39 25.0699C49.4483 24.612 50.5555 24.2765 51.6899 24.0699C53.3699 23.6899 55.0799 23.47 56.6899 23.26H57.01C58.36 23.09 59.61 22.98 60.84 22.92H62.1701L58.77 22.08C56.749 21.5604 54.7031 21.1432 52.64 20.83C51.646 20.6964 50.6419 20.6529 49.64 20.7C48.6306 20.7241 47.6244 20.8244 46.63 21L46.6 20.96Z" fill="black"/>
</g>
</svg>
