<svg width="91" height="95" viewBox="0 0 91 95" fill="none" xmlns="http://www.w3.org/2000/svg">
<g id="bgStar7">
<path id="Vector" d="M48.0699 15.23L50.0699 13.3399C53.6939 9.92786 57.8099 7.07947 62.28 4.88999C65.7898 3.17504 69.568 2.07573 73.45 1.63999C73.6257 1.62032 73.7923 1.55087 73.9301 1.43992C74.4001 1.09992 74.66 1.08001 75 1.54001C75.3034 1.93871 75.546 2.38011 75.72 2.84995C76.08 3.84995 76.41 4.85002 76.72 5.92002C78.0379 11.0705 78.7627 16.3548 78.88 21.67C78.94 25.45 78.7 29.22 78.45 32.99C78.35 34.58 78.19 36.17 78.05 37.76C78.03 37.9383 78.0462 38.1188 78.0978 38.2906C78.1493 38.4625 78.2351 38.6222 78.35 38.76C79.35 40.04 80.35 41.3 81.13 42.65C82.77 45.29 84.29 48.01 85.9 50.65C87.2268 52.9006 88.1315 55.3744 88.5699 57.9499C88.7499 58.9499 88.99 59.83 89.23 60.77C89.2909 60.9453 89.2968 61.1351 89.2467 61.3138C89.1967 61.4926 89.093 61.6518 88.95 61.77C88.699 61.9736 88.4236 62.1449 88.13 62.28C87.635 62.5026 87.1275 62.6963 86.61 62.86C84.4857 63.5202 82.2963 63.9494 80.08 64.14C76.9018 64.4249 73.7098 64.525 70.52 64.4399C70.3149 64.4099 70.1057 64.4486 69.9248 64.5499C69.7439 64.6512 69.6016 64.8094 69.52 65C67.4916 68.8218 65.0791 72.4271 62.3199 75.76C59.4785 79.1997 56.4401 82.4719 53.22 85.56C51.2432 87.5256 49.0797 89.2939 46.76 90.8399C46.4028 91.1425 45.9573 91.3214 45.49 91.35C45.3501 91.3639 45.2177 91.4197 45.11 91.51C44.29 92.02 43.48 92.5099 42.67 93.0699C42.5997 93.1422 42.5126 93.1959 42.4164 93.2263C42.3202 93.2566 42.218 93.2627 42.1189 93.2439C42.0198 93.2251 41.927 93.182 41.8486 93.1185C41.7703 93.055 41.709 92.973 41.67 92.88C41.53 92.66 41.39 92.44 41.23 92.23C41.0421 92.0149 40.9453 91.7351 40.96 91.4499C40.9732 91.3169 40.9337 91.1841 40.85 91.0799C40.5296 90.7957 40.3147 90.4117 40.24 89.99C39.58 87.99 38.96 85.99 38.24 83.99C35.8067 77.0766 33.3567 70.1666 30.89 63.26C30.8437 63.145 30.7867 63.0345 30.72 62.93L28.27 63.18C27.2 63.3 26.14 63.41 25.08 63.54C23.69 63.7 22.3101 63.87 20.9301 64.05C19.1701 64.27 17.39 64.44 15.65 64.75C12.2936 65.2777 8.88598 65.4019 5.5 65.12C4.78789 64.9835 4.05151 65.0565 3.38 65.3299C3.12338 65.4412 2.85939 65.5348 2.58997 65.61L1.43005 64.79C1.53005 64.52 1.61996 64.2999 1.70996 64.0699C2.76996 61.4099 3.84001 58.7499 4.89001 56.0699C6.36001 52.3299 7.78004 48.57 9.29004 44.8499C10.1856 42.5504 11.3148 40.3489 12.66 38.28C12.8005 38.0766 12.8978 37.8465 12.9459 37.604C12.9941 37.3615 12.992 37.1117 12.9399 36.87C12.4899 34.03 12.02 31.2 11.65 28.36C10.8497 21.7249 10.5156 15.0418 10.65 8.35996C10.6412 8.22635 10.661 8.09247 10.7081 7.96714C10.7553 7.8418 10.8285 7.72796 10.9232 7.63328C11.0179 7.53859 11.1317 7.46519 11.2571 7.41807C11.3824 7.37094 11.5164 7.35112 11.65 7.35996C12.25 7.35996 12.85 7.36003 13.46 7.43003C13.7929 7.45387 14.1271 7.45387 14.46 7.43003C17.0164 7.19122 19.5925 7.26845 22.13 7.66001C26.93 8.38001 31.68 9.31996 36.41 10.36C40.4819 11.2148 44.3053 12.9863 47.59 15.54L48.0699 15.23ZM84.83 56.92C82.83 54.6 80.65 52.48 78.46 50.36C74.9875 47.0868 71.3137 44.0342 67.46 41.2199C67.14 40.9799 66.84 40.71 66.46 40.49C66.2424 40.3425 66.0604 40.1484 65.9272 39.9218C65.7941 39.6953 65.713 39.4419 65.6899 39.18C65.6423 39.0066 65.6423 38.8234 65.6899 38.65C66.1999 37.03 66.76 35.43 67.25 33.81C68.76 28.74 70.25 23.6699 71.75 18.5899C72.6611 15.6121 73.3299 12.5656 73.75 9.47996C73.88 8.39996 73.94 7.30995 73.99 6.21995C74.0411 5.43285 73.9182 4.64423 73.63 3.91001C73.5543 3.6585 73.5007 3.40083 73.47 3.13999L72.77 3.19993C69.6068 3.65319 66.5252 4.5592 63.62 5.88999C59.2216 7.93413 55.1721 10.6574 51.62 13.9599C48.53 16.7699 45.46 19.6 42.37 22.42C42.04 22.72 41.72 23.02 41.37 23.3C40.77 23.76 40.37 23.71 39.98 23.05C39.0631 21.5685 37.8262 20.311 36.36 19.37C33.3098 17.1776 30.1048 15.209 26.77 13.48C24.0348 12.0821 21.1585 10.9791 18.1899 10.1899C16.5999 9.72992 14.98 9.37998 13.37 9.00998C12.9499 8.94369 12.5253 8.91028 12.1 8.91001C12.1 9.24001 12.05 9.48997 12.1 9.74998C12.19 12.75 12.29 15.7499 12.36 18.8299C12.5847 23.9759 13.156 29.1009 14.0699 34.17C14.1799 34.82 14.3199 35.47 14.4399 36.12C14.4549 36.283 14.4549 36.447 14.4399 36.61C14.4399 37.21 14.4399 37.81 14.4399 38.42C14.4631 38.5486 14.4457 38.6812 14.3901 38.7994C14.3346 38.9177 14.2437 39.0156 14.13 39.0799C13.9152 39.2181 13.7341 39.4026 13.6 39.62C12.5622 41.2838 11.669 43.0336 10.9301 44.8499C9.72005 47.8499 8.58003 50.78 7.41003 53.75C6.24003 56.72 5.10996 59.62 3.95996 62.55C3.83996 62.85 3.72999 63.1499 3.60999 63.4399C3.83999 63.6599 4.06001 63.56 4.26001 63.5C10.06 61.93 15.94 60.78 21.85 59.74C23.62 59.43 25.37 59.02 27.13 58.66C27.8514 58.4856 28.5827 58.3554 29.3199 58.27C29.8027 58.2798 30.2801 58.3746 30.73 58.55C30.87 58.55 30.97 58.85 31.04 59.03C31.62 60.67 32.18 62.3099 32.76 63.9499C35.02 70.3099 37.28 76.6667 39.54 83.02C39.93 84.1 40.27 85.2 40.65 86.29C40.95 87.17 41.3 88.03 41.65 88.91C41.88 89.59 42.06 90.3 42.26 91C42.32 91.21 42.3701 91.42 42.4301 91.68L42.96 91.43C45.1788 90.2527 47.1298 88.6286 48.6899 86.66C50.1392 84.872 51.4752 82.995 52.6899 81.04C54.0299 78.95 55.33 76.8299 56.61 74.6999C58.5687 71.4926 60.2131 68.1035 61.52 64.5799C61.5554 64.3919 61.5754 64.2013 61.58 64.01C61.6026 63.8764 61.6395 63.7457 61.6899 63.62C61.8009 63.4065 61.8978 63.186 61.98 62.9599C61.9842 62.9031 62.0022 62.8483 62.0325 62.8C62.0627 62.7518 62.1042 62.7115 62.1534 62.683C62.2027 62.6544 62.2582 62.6384 62.3151 62.6361C62.372 62.6338 62.4286 62.6455 62.48 62.67C63.1367 62.8119 63.8117 62.849 64.48 62.78C68.11 62.78 71.75 62.91 75.38 62.9C77.6845 62.8849 79.9845 62.6943 82.26 62.3299C83.7804 62.1069 85.2746 61.7317 86.72 61.2099L87.16 61.02C87.1891 60.9922 87.2159 60.9622 87.24 60.93C86.6713 59.4657 85.8561 58.1094 84.83 56.92ZM70.49 37.7199C71.4149 37.705 72.3399 37.7451 73.26 37.8399C74.26 37.9299 75.14 38.0899 76 38.1999L77 37.48C77.1 36.31 77.2201 35.04 77.3101 33.78C77.5801 29.69 77.86 25.6 77.79 21.5C77.662 16.7136 77.0488 11.9526 75.96 7.29001C75.9 7.01001 75.82 6.74996 75.72 6.35996C75.6629 6.45697 75.6191 6.5613 75.59 6.67002C75.4044 10.2424 74.7969 13.7803 73.78 17.2099C72.58 21.5299 71.31 25.82 70.04 30.12C69.32 32.56 68.5501 34.98 67.8101 37.42C67.8101 37.59 67.72 37.76 67.65 38.02C68.62 37.91 69.55 37.7499 70.49 37.7199ZM20.49 9.30002C24.3607 10.5067 28.0583 12.2109 31.49 14.37C33.49 15.57 35.42 16.75 37.27 18.13C38.6657 19.0896 39.9037 20.2602 40.9399 21.6C42.9478 19.9923 44.8485 18.2553 46.63 16.4C44.2297 14.5186 41.4997 13.101 38.58 12.2199C35.98 11.4699 33.33 10.9399 30.67 10.4499C27.67 9.90993 24.67 9.3833 21.67 8.86997C20.83 8.72997 19.98 8.70998 19.14 8.62998C19 8.62998 18.87 8.62998 18.73 8.62998V8.71995C19.32 8.91995 19.9 9.12002 20.49 9.30002ZM76.29 39.39C74.79 39.22 73.29 38.9699 71.79 38.8499C70.9616 38.8303 70.1328 38.8704 69.3101 38.9699C68.7001 38.9699 68.0901 39.1199 67.3101 39.2099C70.9616 41.874 74.476 44.721 77.84 47.74C81.2089 50.7419 84.3352 54.0054 87.1899 57.5C87.2024 57.3937 87.2024 57.2863 87.1899 57.18C86.8615 55.4524 86.268 53.786 85.4301 52.24C84.8701 51.24 84.3 50.24 83.73 49.31C82.73 47.6 81.73 45.8599 80.73 44.1899C79.73 42.5199 78.73 41.1899 77.64 39.7099C77.5678 39.6042 77.4839 39.507 77.39 39.42C77 39.41 76.62 39.43 76.29 39.39ZM62.87 64.24C59.87 72.45 55.11 79.64 50.23 86.76C57.34 80.2 63.8999 73.18 68.5699 64.43L62.87 64.24ZM9.01001 64.16C11.1894 64.175 13.3664 64.0145 15.52 63.68C17.61 63.34 19.7199 63.13 21.8199 62.87L24.22 62.5799L28.73 62.06L30.4 61.87L29.65 59.87C29.1445 59.8363 28.6367 59.8699 28.14 59.9699C23.14 60.9699 18.14 61.9699 13.14 62.9699C11.7 63.2499 10.27 63.5999 8.82996 63.9699C8.67996 63.9699 8.52 63.97 8.37 64.03V64.1999C8.62 64.1299 8.82 64.16 9 64.16H9.01001Z" fill="black"/>
<path id="Vector_2" d="M87.2 61L86.76 61.1899C85.3146 61.7117 83.8205 62.0871 82.3 62.3101C80.0245 62.6744 77.7245 62.8649 75.42 62.88C71.79 62.88 68.15 62.8 64.52 62.76C63.8517 62.829 63.1767 62.7919 62.52 62.65C62.4686 62.6255 62.412 62.6138 62.3551 62.6161C62.2982 62.6184 62.2427 62.6344 62.1935 62.663C62.1442 62.6915 62.1026 62.7318 62.0724 62.78C62.0422 62.8283 62.0242 62.8831 62.02 62.9399C61.9379 63.166 61.841 63.3865 61.73 63.6C61.6795 63.7257 61.6427 63.8564 61.62 63.99C61.6154 64.1813 61.5954 64.372 61.5601 64.5601C60.2531 68.0836 58.6088 71.4727 56.65 74.6801C55.37 76.8101 54.07 78.93 52.73 81.02C51.5152 82.975 50.1793 84.852 48.73 86.64C47.1698 88.6086 45.2189 90.2327 43 91.41L42.47 91.66C42.41 91.4 42.3601 91.19 42.3 90.98C42.1 90.28 41.9199 89.57 41.6899 88.89C41.3899 88.01 41.0399 87.15 40.6899 86.27C40.3099 85.18 39.97 84.08 39.58 83C37.3333 76.64 35.0734 70.2834 32.8 63.9301C32.22 62.2901 31.66 60.65 31.08 59.01C31.01 58.83 30.91 58.58 30.77 58.53C30.3201 58.3546 29.8428 58.2598 29.36 58.25C28.6227 58.3354 27.8914 58.4657 27.17 58.64C25.41 59 23.66 59.41 21.89 59.72C15.98 60.72 10.1 61.91 4.30005 63.48C4.10005 63.54 3.88002 63.64 3.65002 63.42C3.77002 63.13 3.88 62.83 4 62.53C5.15 59.6 6.28995 56.66 7.44995 53.73C8.60995 50.8 9.75997 47.73 10.97 44.83C11.709 43.0136 12.6023 41.2639 13.64 39.6C13.7741 39.3827 13.9553 39.1982 14.17 39.0601C14.2838 38.9958 14.3746 38.8977 14.4302 38.7794C14.4857 38.6612 14.5031 38.5286 14.48 38.4C14.48 37.79 14.48 37.19 14.48 36.59C14.4949 36.427 14.4949 36.263 14.48 36.1C14.36 35.45 14.22 34.8 14.11 34.15C13.196 29.0809 12.6248 23.956 12.4 18.8101C12.33 15.8101 12.23 12.75 12.14 9.72998C12.14 9.46998 12.14 9.22001 12.14 8.89001C12.5653 8.89028 12.9899 8.92369 13.41 8.98999C15.02 9.35999 16.64 9.71004 18.23 10.17C21.1986 10.9593 24.0749 12.0621 26.8101 13.46C30.1448 15.1891 33.3498 17.1576 36.4 19.35C37.8663 20.291 39.1032 21.5485 40.02 23.03C40.38 23.69 40.81 23.74 41.41 23.28C41.76 23 42.08 22.7 42.41 22.4C45.5 19.58 48.57 16.7499 51.66 13.9399C55.2121 10.6374 59.2616 7.91414 63.66 5.87C66.5653 4.53921 69.6469 3.63332 72.8101 3.18005L73.51 3.12C73.5408 3.38084 73.5943 3.63851 73.67 3.89001C73.9582 4.62423 74.0811 5.41286 74.03 6.19995C74.03 7.28995 73.92 8.37996 73.79 9.45996C73.37 12.5456 72.7011 15.5921 71.79 18.5699C70.32 23.6499 68.79 28.72 67.29 33.79C66.8 35.41 66.29 37.01 65.73 38.63C65.6823 38.8035 65.6823 38.9866 65.73 39.16C65.753 39.4219 65.8341 39.6753 65.9673 39.9019C66.1005 40.1284 66.2824 40.3225 66.5 40.47C66.84 40.69 67.14 40.9599 67.5 41.2C71.3537 44.0142 75.0276 47.0668 78.5 50.34C80.69 52.46 82.89 54.58 84.87 56.9C85.9094 58.0834 86.7381 59.4364 87.3199 60.9C87.2836 60.9376 87.2434 60.9711 87.2 61ZM46.8199 43.89L47.45 44.25L52.36 47.46C52.5277 47.5722 52.7051 47.6693 52.89 47.75C53.0203 47.8281 53.1761 47.8519 53.3239 47.8164C53.4716 47.7809 53.5995 47.6889 53.6801 47.5601C53.7176 47.493 53.7409 47.4188 53.7485 47.3424C53.7562 47.266 53.7481 47.1888 53.7246 47.1156C53.7012 47.0424 53.6629 46.975 53.6122 46.9172C53.5615 46.8595 53.4995 46.8128 53.4301 46.78C52.9301 46.44 52.43 46.1 51.92 45.78L46.11 42.0601C45.91 41.9301 45.72 41.77 45.52 41.64C45.16 41.4 44.86 41.41 44.65 41.64C44.44 41.87 44.51 42.21 44.83 42.49C45.15 42.77 45.4 42.9399 45.73 43.1899C45.6506 43.8553 45.3175 44.4644 44.8 44.89L44.45 44.51C44.17 44.23 43.89 44.18 43.65 44.37C43.5899 44.4172 43.5403 44.4765 43.5044 44.5439C43.4685 44.6114 43.4471 44.6855 43.4414 44.7617C43.4358 44.8379 43.4461 44.9146 43.4717 44.9866C43.4973 45.0586 43.5375 45.1245 43.59 45.1801C43.7803 45.4666 44.0054 45.7285 44.26 45.96C45.42 46.96 46.59 47.96 47.77 48.96C48.46 49.54 49.17 50.1101 49.88 50.6801C49.9866 50.7721 50.1003 50.8557 50.22 50.9301C50.2766 50.9792 50.3426 51.0162 50.4141 51.0389C50.4855 51.0616 50.5608 51.0695 50.6354 51.062C50.71 51.0546 50.7823 51.032 50.8478 50.9956C50.9133 50.9592 50.9707 50.9097 51.0165 50.8503C51.0622 50.791 51.0953 50.7229 51.1138 50.6503C51.1322 50.5776 51.1356 50.5019 51.1238 50.4279C51.1119 50.3538 51.0851 50.2831 51.0449 50.2198C51.0047 50.1566 50.952 50.1022 50.89 50.0601C50.8036 49.9724 50.7099 49.892 50.61 49.8199L46.39 46.39L45.8199 45.89L46.8199 43.89ZM68.5601 17.47C69.1001 15.56 69.56 13.65 70.13 11.74C70.2031 11.4901 70.2368 11.2303 70.23 10.97C70.2328 10.8248 70.1791 10.6842 70.0802 10.5779C69.9813 10.4715 69.845 10.4078 69.7 10.4C69.5586 10.3992 69.4221 10.4509 69.3168 10.5452C69.2114 10.6394 69.1449 10.7695 69.13 10.91C68.13 14.91 67.0099 18.91 65.6899 22.91C65.0399 24.91 64.25 26.81 63.52 28.76C63.39 29.1 63.24 29.44 63.13 29.76C63.0957 29.8283 63.0752 29.9026 63.0697 29.9788C63.0642 30.055 63.0737 30.1315 63.0979 30.204C63.1221 30.2765 63.1603 30.3435 63.2104 30.4011C63.2606 30.4588 63.3216 30.506 63.39 30.54C63.68 30.67 63.97 30.54 64.16 30.16L64.27 29.9399C65.9561 25.8827 67.3889 21.7247 68.5601 17.49V17.47ZM32.5601 34.53C32.7138 34.5923 32.8611 34.6693 33 34.76C33.83 35.36 34.66 35.98 35.48 36.59C35.93 36.93 36.26 36.96 36.48 36.66C36.7 36.36 36.6301 36.02 36.1801 35.66C35.1801 34.87 34.07 34.11 33.01 33.34L31.41 32.25C31.32 32.19 31.25 32.13 31.16 32.08C31.0464 31.9927 30.904 31.9515 30.7614 31.9645C30.6187 31.9774 30.4861 32.0437 30.39 32.15C30.3411 32.2088 30.3047 32.277 30.2832 32.3503C30.2617 32.4237 30.2555 32.5008 30.2649 32.5767C30.2743 32.6525 30.299 32.7257 30.3378 32.7916C30.3765 32.8576 30.4283 32.9148 30.49 32.96C30.6711 33.1209 30.8615 33.2712 31.0601 33.41C31.5201 33.75 31.55 33.76 31.38 34.3C31.2488 34.8925 31.0225 35.4598 30.71 35.98L29.8101 35.15C29.7043 35.0293 29.5907 34.9158 29.47 34.8101C29.3869 34.7335 29.2781 34.6909 29.165 34.6909C29.052 34.6909 28.9431 34.7335 28.86 34.8101C28.7966 34.8822 28.7481 34.9661 28.7172 35.057C28.6863 35.148 28.6737 35.2441 28.6801 35.34C28.7305 35.5543 28.8375 35.7512 28.99 35.91C29.27 36.2 29.58 36.46 29.87 36.74C30.16 37.02 30.2 37.09 30.37 37.27C30.54 37.45 30.51 37.47 30.61 37.53C31.8304 38.352 32.966 39.2932 34 40.34C34.1035 40.4377 34.2137 40.5279 34.33 40.61C34.4314 40.6778 34.5537 40.7071 34.6748 40.6924C34.7959 40.6777 34.9077 40.6201 34.99 40.53C35.0823 40.4489 35.1408 40.3359 35.1538 40.2136C35.1668 40.0914 35.1333 39.9687 35.0601 39.87C34.9526 39.6989 34.8213 39.544 34.67 39.41L32.26 37.29L31.7 36.8L32.5601 34.53Z" fill="#EBC36E"/>
<path id="Vector_3" d="M67.63 38C68.63 37.89 69.55 37.73 70.49 37.7C71.4149 37.685 72.3399 37.7251 73.26 37.8199C74.26 37.9099 75.14 38.0701 76 38.1801L77 37.46C77.1 36.29 77.2201 35.02 77.3101 33.76C77.5801 29.67 77.86 25.58 77.79 21.48C77.662 16.6936 77.0488 11.9326 75.96 7.27002C75.9 6.99002 75.82 6.72997 75.72 6.33997C75.6629 6.43697 75.6191 6.54131 75.59 6.65002C75.4044 10.2224 74.7969 13.7603 73.78 17.1899C72.58 21.5099 71.31 25.8 70.04 30.1C69.32 32.54 68.5501 34.96 67.8101 37.4C67.7401 37.59 67.7 37.76 67.63 38Z" fill="#A3784C"/>
<path id="Vector_4" d="M18.73 8.72998C19.32 8.91998 19.9 9.12005 20.49 9.30005C24.3607 10.5067 28.0583 12.2109 31.49 14.37C33.49 15.57 35.42 16.75 37.27 18.13C38.6657 19.0896 39.9037 20.2602 40.9399 21.6C42.9478 19.9923 44.8485 18.2554 46.63 16.4C44.2297 14.5186 41.4997 13.101 38.58 12.22C35.98 11.47 33.33 10.94 30.67 10.45C27.67 9.90995 24.67 9.38333 21.67 8.87C20.83 8.73 19.98 8.71 19.14 8.63C19 8.63 18.87 8.63 18.73 8.63V8.72998Z" fill="#A3784C"/>
<path id="Vector_5" d="M77.42 39.42C76.95 39.42 76.62 39.42 76.29 39.42C74.79 39.25 73.29 39 71.79 38.88C70.9616 38.8603 70.1328 38.9004 69.3101 39C68.7001 39 68.0901 39.15 67.3101 39.24C70.9616 41.904 74.476 44.751 77.84 47.77C81.2089 50.7719 84.3352 54.0354 87.1899 57.53C87.2024 57.4237 87.2024 57.3162 87.1899 57.2099C86.8615 55.4824 86.268 53.816 85.4301 52.27C84.8701 51.27 84.3 50.2699 83.73 49.3399C82.73 47.6299 81.73 45.8899 80.73 44.2199C79.73 42.5499 78.73 41.22 77.64 39.74C77.5791 39.6253 77.5053 39.518 77.42 39.42Z" fill="#A3784C"/>
<path id="Vector_6" d="M68.5699 64.4301L62.87 64.24C59.87 72.45 55.11 79.64 50.23 86.76C57.34 80.2 63.8999 73.1801 68.5699 64.4301Z" fill="#A3784C"/>
<path id="Vector_7" d="M8.43005 64.1199C8.62005 64.1199 8.82001 64.1199 9.01001 64.1199C11.1894 64.135 13.3664 63.9745 15.52 63.64C17.61 63.3 19.7199 63.0899 21.8199 62.8299L24.22 62.54L28.73 62.02L30.4 61.8299L29.65 59.8299C29.1445 59.7962 28.6367 59.8299 28.14 59.93C23.14 60.93 18.14 61.93 13.14 62.93C11.7 63.21 10.27 63.56 8.82996 63.93C8.67996 63.93 8.52 63.9299 8.37 63.9899L8.43005 64.1199Z" fill="#A3784C"/>
<path id="Vector_8" d="M45.82 45.9L46.82 43.9L47.45 44.26L52.36 47.47C52.5277 47.5822 52.7051 47.6793 52.89 47.76C53.0204 47.8381 53.1762 47.8619 53.3239 47.8264C53.4716 47.7909 53.5995 47.6988 53.6801 47.5699C53.7176 47.5029 53.7409 47.4289 53.7486 47.3524C53.7562 47.276 53.7481 47.1988 53.7246 47.1256C53.7012 47.0524 53.6629 46.985 53.6122 46.9272C53.5615 46.8695 53.4996 46.8228 53.4301 46.79C52.9301 46.45 52.4301 46.11 51.9201 45.79L46.11 42.0699C45.91 41.9399 45.7201 41.78 45.5201 41.65C45.1601 41.41 44.8601 41.42 44.6501 41.65C44.4401 41.88 44.51 42.22 44.83 42.5C45.15 42.78 45.4 42.95 45.73 43.2C45.6507 43.8653 45.3176 44.4744 44.8001 44.9L44.45 44.52C44.17 44.24 43.8901 44.19 43.6501 44.38C43.59 44.4272 43.5403 44.4865 43.5044 44.554C43.4685 44.6214 43.4471 44.6955 43.4414 44.7717C43.4358 44.8479 43.4461 44.9246 43.4717 44.9966C43.4973 45.0686 43.5375 45.1344 43.59 45.1899C43.7804 45.4765 44.0055 45.7385 44.26 45.97C45.42 46.97 46.5901 47.97 47.7701 48.97C48.4601 49.55 49.17 50.1199 49.88 50.6899C49.9867 50.782 50.1003 50.8656 50.22 50.9399C50.2766 50.9891 50.3427 51.0262 50.4141 51.049C50.4855 51.0717 50.5608 51.0795 50.6354 51.072C50.71 51.0646 50.7823 51.042 50.8478 51.0056C50.9133 50.9692 50.9708 50.9197 51.0165 50.8604C51.0622 50.801 51.0953 50.7328 51.1138 50.6602C51.1323 50.5875 51.1357 50.5119 51.1238 50.4379C51.112 50.3639 51.0852 50.2931 51.045 50.2299C51.0048 50.1666 50.952 50.1121 50.89 50.0699C50.8036 49.9823 50.7099 49.902 50.61 49.83L46.39 46.4L45.82 45.9Z" fill="black"/>
<path id="Vector_9" d="M64.2701 30C65.9573 25.9329 67.3901 21.7649 68.5601 17.52C69.1001 15.61 69.5601 13.7 70.1301 11.79C70.2031 11.5401 70.2368 11.2803 70.23 11.02C70.2328 10.8748 70.1791 10.7343 70.0802 10.6279C69.9814 10.5216 69.845 10.4577 69.7 10.45C69.5587 10.4492 69.4221 10.501 69.3168 10.5952C69.2115 10.6895 69.1449 10.8194 69.1301 10.96C68.1301 14.96 67.01 18.96 65.69 22.96C65.04 24.96 64.2501 26.8601 63.5201 28.8101C63.3901 29.1501 63.2401 29.4901 63.1301 29.8101C63.0957 29.8783 63.0753 29.9526 63.0698 30.0288C63.0642 30.105 63.0738 30.1816 63.0979 30.254C63.1221 30.3265 63.1604 30.3935 63.2105 30.4512C63.2606 30.5088 63.3216 30.556 63.3901 30.59C63.6801 30.72 63.9701 30.59 64.1601 30.21L64.2701 30Z" fill="#DCCFBD"/>
<path id="Vector_10" d="M31.76 36.85L32.61 34.5501C32.7638 34.6123 32.9112 34.6893 33.0501 34.7801C33.8801 35.3801 34.71 36 35.53 36.61C35.98 36.95 36.31 36.9801 36.53 36.6801C36.75 36.3801 36.68 36.0401 36.23 35.6801C35.23 34.8901 34.1201 34.13 33.0601 33.36L31.46 32.27C31.37 32.21 31.3 32.15 31.21 32.1C31.0963 32.0128 30.954 31.9715 30.8113 31.9845C30.6686 31.9975 30.536 32.0638 30.4399 32.1701C30.3911 32.2289 30.3548 32.297 30.3333 32.3704C30.3117 32.4438 30.3055 32.5208 30.3148 32.5967C30.3242 32.6726 30.349 32.7457 30.3877 32.8117C30.4264 32.8776 30.4783 32.9349 30.54 32.98C30.7212 33.1409 30.9114 33.2912 31.11 33.4301C31.57 33.7701 31.6001 33.78 31.4301 34.32C31.2989 34.9125 31.0726 35.4799 30.76 36L29.86 35.1701C29.7543 35.0494 29.6407 34.9357 29.52 34.83C29.4369 34.7534 29.328 34.7108 29.215 34.7108C29.1019 34.7108 28.9931 34.7534 28.91 34.83C28.8466 34.9021 28.7981 34.9861 28.7672 35.0771C28.7363 35.168 28.7236 35.2642 28.73 35.36C28.7804 35.5743 28.8876 35.7712 29.04 35.9301C29.32 36.2201 29.63 36.48 29.92 36.76C30.21 37.04 30.25 37.1101 30.42 37.2901C30.59 37.4701 30.56 37.4901 30.66 37.5501C31.8804 38.372 33.016 39.3133 34.0501 40.36C34.1535 40.4577 34.2637 40.548 34.38 40.63C34.4814 40.6978 34.6038 40.727 34.7249 40.7123C34.8459 40.6976 34.9578 40.6401 35.04 40.5501C35.1324 40.4689 35.1908 40.3559 35.2037 40.2337C35.2167 40.1114 35.1832 39.9888 35.11 39.89C35.0026 39.7189 34.8712 39.564 34.72 39.4301L32.3101 37.3101L31.76 36.85Z" fill="black"/>
<path id="Vector_11" d="M41 93.33C40.8827 93.1316 40.7524 92.9412 40.61 92.76C40.3345 92.4229 40.1765 92.0051 40.16 91.57C39.8503 91.2294 39.6303 90.817 39.52 90.37V90.26C39.3 89.58 39.08 88.89 38.85 88.26C38.43 86.9501 38.01 85.64 37.55 84.35C35.6767 79.0167 33.7934 73.6833 31.9 68.35L30.3101 63.87L28.48 64.0601L25.3 64.4101C23.92 64.5701 22.54 64.7401 21.16 64.9201L19.66 65.1C18.42 65.25 17.15 65.4 15.91 65.61C12.4912 66.1515 9.01984 66.2825 5.56995 66H5.31995C4.84047 65.9094 4.34527 65.9544 3.89001 66.13C3.6742 66.235 3.45006 66.3219 3.21997 66.3901L3 66.46L2.57996 66.61L0.51001 65.1401L1.03003 63.8001L2.03003 61.2C2.75003 59.4 3.47004 57.6101 4.17004 55.8101C4.73004 54.4001 5.26995 53 5.81995 51.59C6.71995 49.25 7.62995 46.9 8.56995 44.59C9.4889 42.2356 10.6449 39.9806 12.02 37.86C12.1014 37.7454 12.1577 37.6149 12.1853 37.4771C12.2129 37.3392 12.2111 37.1972 12.1801 37.0601L11.97 35.74C11.59 33.39 11.2 30.9501 10.88 28.5301C10.0732 21.8754 9.73903 15.1719 9.88 8.47001C9.86787 8.22916 9.90454 7.98834 9.98779 7.762C10.071 7.53567 10.1992 7.32858 10.3645 7.15299C10.5298 6.97741 10.7288 6.837 10.9497 6.74027C11.1706 6.64355 11.4089 6.5924 11.65 6.59001C12.11 6.59001 12.56 6.59001 12.99 6.59001H13.54H13.87C14.0595 6.60968 14.2505 6.60968 14.4399 6.59001C17.0669 6.35035 19.7134 6.43431 22.3199 6.84001C26.5599 7.47001 31.12 8.33008 36.66 9.54008C39.0233 10.0474 41.3142 10.8469 43.48 11.9201C44.9264 12.6477 46.3081 13.4974 47.61 14.46L49.61 12.6401C53.2947 9.16875 57.4818 6.2729 62.03 4.05009C65.6454 2.27784 69.539 1.14113 73.54 0.689982C73.7562 0.488408 74.0261 0.353751 74.3171 0.302287C74.6082 0.250823 74.9079 0.284838 75.1801 0.400065C75.431 0.530443 75.647 0.718967 75.8101 0.949992C76.1627 1.42386 76.4455 1.94589 76.65 2.50004C77.08 3.72004 77.39 4.72006 77.65 5.64006C78.9878 10.8724 79.7225 16.2407 79.84 21.6401C79.9 25.4101 79.65 29.2101 79.42 32.8901V33.0201C79.33 34.3401 79.21 35.6701 79.09 37.0201L79.01 37.84C79.0024 37.9136 79.0101 37.988 79.0325 38.0585C79.0548 38.129 79.0914 38.1943 79.14 38.25L79.67 38.95C80.45 39.95 81.27 41.06 81.97 42.2C82.87 43.65 83.75 45.2 84.59 46.59C85.3 47.81 86.01 49.02 86.74 50.22C88.123 52.5551 89.0653 55.1245 89.52 57.8001C89.69 58.6601 89.91 59.5401 90.12 60.3901V60.58C90.2222 60.9106 90.2234 61.2642 90.1237 61.5955C90.0239 61.9268 89.8278 62.2208 89.5601 62.44C89.2547 62.6914 88.9187 62.9031 88.5601 63.07C88.0349 63.3053 87.4973 63.5123 86.95 63.69C84.7665 64.365 82.517 64.8042 80.24 65C77.0288 65.2914 73.8032 65.395 70.58 65.3101H70.4399C70.4095 65.3417 70.3858 65.3791 70.37 65.4201C68.3082 69.2889 65.8625 72.9405 63.0699 76.32C60.2023 79.7807 57.1408 83.076 53.9 86.19C51.8799 88.1923 49.6733 89.9972 47.3101 91.58L47.21 91.6401C46.7729 91.9747 46.2486 92.176 45.7 92.22C44.8899 92.74 44.07 93.2201 43.27 93.7801C43.0552 93.943 42.7994 94.0431 42.5311 94.0696C42.2628 94.0961 41.9925 94.0479 41.75 93.9301C41.4417 93.8164 41.1786 93.6058 41 93.33ZM84.1899 57.48C82.3099 55.27 80.19 53.21 78.12 51.21L77.88 50.98C74.4424 47.7329 70.8053 44.7037 66.99 41.9101L66.62 41.61C66.44 41.47 66.2599 41.33 66.0699 41.2C65.7471 40.9884 65.4762 40.7069 65.2771 40.3763C65.078 40.0456 64.956 39.6744 64.92 39.2901C64.8777 38.9852 64.9015 38.6748 64.99 38.38C65.18 37.77 65.38 37.1601 65.59 36.5601C65.91 35.5601 66.24 34.5601 66.59 33.5601C68.14 28.4101 69.59 23.37 71.1 18.35C72.0119 15.4098 72.6808 12.3997 73.1 9.35002C73.22 8.35002 73.28 7.35007 73.33 6.15006C73.3841 5.46923 73.2815 4.78506 73.03 4.15007C73.0089 4.10167 72.9921 4.05144 72.98 4.00004C69.9386 4.44695 66.9759 5.32229 64.1801 6.60002C59.8527 8.59952 55.8699 11.2728 52.38 14.5201L46.38 20.0201L43.15 23.0201C42.81 23.3301 42.46 23.6501 42.09 23.9301C41.8529 24.1685 41.5488 24.3287 41.2181 24.3894C40.8875 24.4502 40.5463 24.4086 40.24 24.2701C39.8853 24.0816 39.6012 23.7834 39.4301 23.4201C38.5699 22.0531 37.4194 20.8923 36.0601 20.0201C33.0367 17.8576 29.8655 15.9094 26.5699 14.19L25.89 13.84C23.352 12.6551 20.711 11.7045 18 11C16.69 10.62 15.33 10.31 14 10L13.2 9.81999H12.95L13.0601 13.38C13.1101 15.19 13.17 17.0001 13.21 18.8101C13.4273 23.9197 13.9954 29.0083 14.91 34.0401C14.97 34.4101 15.04 34.7901 15.11 35.1601C15.18 35.5301 15.22 35.71 15.27 35.98C15.2922 36.1928 15.2922 36.4073 15.27 36.62V37.24C15.27 37.63 15.27 38.0201 15.27 38.4001C15.2919 38.68 15.2363 38.9606 15.1093 39.2111C14.9823 39.4616 14.7888 39.6722 14.55 39.82C14.4442 39.8893 14.3553 39.9816 14.29 40.09C13.2742 41.7081 12.4072 43.4151 11.7 45.19C10.8 47.38 9.91995 49.6301 9.06995 51.8001L8.18005 54.08C7.29005 56.33 4.89001 62.45 4.89001 62.45C10.81 60.89 16.68 59.7901 21.67 58.9101C22.82 58.7101 23.99 58.46 25.13 58.22L26.9301 57.83L27.47 57.72C28.0487 57.578 28.6369 57.4778 29.23 57.4201C29.8217 57.4167 30.4086 57.5252 30.96 57.74H31.05H31.11C31.4671 57.969 31.7215 58.3274 31.8199 58.74L32.6899 61.23C32.9699 62.04 33.26 62.8501 33.54 63.6501C33.54 63.6501 39.0399 79.1 40.3199 82.72C40.5299 83.31 40.73 83.91 40.92 84.5C41.11 85.09 41.2501 85.5 41.4301 86C41.6101 86.5 41.71 86.7701 41.85 87.1501C41.99 87.5301 42.22 88.15 42.38 88.62C42.54 89.09 42.7 89.62 42.84 90.19L42.91 90.4301C44.8348 89.3149 46.5313 87.8457 47.91 86.1C49.358 84.3424 50.694 82.4954 51.91 80.57C53.37 78.28 54.7699 75.99 55.8199 74.25C57.7417 71.078 59.3558 67.7294 60.64 64.25C60.6455 64.2136 60.6455 64.1765 60.64 64.1401C60.6297 64.0336 60.6297 63.9264 60.64 63.82C60.6662 63.6213 60.7166 63.4265 60.79 63.24L60.9399 62.9201C60.9859 62.8398 61.0261 62.7562 61.0601 62.6701C61.0969 62.5021 61.1691 62.3438 61.2719 62.206C61.3746 62.0681 61.5056 61.9538 61.656 61.8705C61.8065 61.7873 61.9729 61.7369 62.1443 61.7231C62.3157 61.7092 62.4881 61.7321 62.65 61.7901C63.042 61.8883 63.4478 61.9188 63.85 61.88C64.0432 61.8701 64.2368 61.8701 64.4301 61.88H67.98C70.39 61.88 72.8699 61.96 75.3199 61.95C77.5777 61.9379 79.8313 61.7507 82.0601 61.3901C83.421 61.1789 84.7598 60.8441 86.0601 60.3901C85.5587 59.3423 84.9234 58.3641 84.17 57.48H84.1899ZM63.48 65.12C61.3395 70.5307 58.6381 75.7023 55.42 80.5501C59.9797 75.9741 63.9291 70.8281 67.17 65.24L63.48 65.12ZM29.22 61.12L29.0699 60.72C28.8175 60.7313 28.5665 60.7647 28.3199 60.82L23.16 61.82L24.16 61.7L29.22 61.12ZM77.04 40.25C76.7736 40.266 76.5064 40.266 76.24 40.25L74.66 40.0501C73.71 39.9301 72.73 39.79 71.77 39.72C71.1725 39.6898 70.5733 39.7132 69.98 39.7901H69.6C72.6984 42.07 75.6758 44.5099 78.52 47.1L78.7 47.2701C80.95 49.3801 83.24 51.5401 85.39 53.9001C85.2077 53.4685 85.0007 53.0478 84.77 52.6401L83.64 50.6401L83.0699 49.6401C82.7599 49.1201 82.46 48.6401 82.16 48.0601C81.5 46.9001 80.81 45.6901 80.08 44.5501C79.35 43.4101 78.6601 42.4201 77.9301 41.4001L77.04 40.25ZM75.79 37.25L76.1801 36.96L76.25 36.23C76.32 35.39 76.3999 34.5301 76.45 33.6601V33.5401C76.7199 29.5401 76.99 25.48 76.92 21.45C76.8431 18.1225 76.5088 14.806 75.92 11.5301C75.5779 13.5017 75.1339 15.4543 74.59 17.38C73.52 21.24 72.36 25.1501 71.25 28.9301L70.84 30.3001C70.36 31.9401 69.84 33.58 69.35 35.21L68.8101 36.95C69.3501 36.88 69.91 36.8201 70.46 36.8001C71.4218 36.7819 72.3837 36.8253 73.34 36.9301C74.02 36.9901 74.7 37.0901 75.34 37.1801L75.79 37.25ZM41.99 14.4001C40.8308 13.8214 39.6228 13.3461 38.38 12.98C35.8007 12.2696 33.1875 11.6888 30.55 11.24C29 10.95 27.55 10.69 26.11 10.44C26.63 10.67 27.11 10.9201 27.66 11.1801C29.07 11.8801 30.48 12.67 31.97 13.58L32.33 13.8001C34.16 14.9101 36.0599 16.06 37.8199 17.38C39.037 18.2507 40.1509 19.2572 41.14 20.38C42.2 19.48 44.36 17.51 45.39 16.49C44.3143 15.7266 43.1809 15.0479 42 14.46L41.99 14.4001Z" fill="black"/>
</g>
</svg>
