<svg width="65" height="67" viewBox="0 0 65 67" fill="none" xmlns="http://www.w3.org/2000/svg">
<g id="bgStar1">
<path id="Vector" d="M22.52 20.5699C22.52 19.9499 22.59 19.3299 22.63 18.7199C22.7684 15.3983 23.4124 12.1173 24.54 8.98993C25.4176 6.53273 26.7133 4.24572 28.37 2.22992C28.4406 2.13539 28.4885 2.02596 28.51 1.90997C28.58 1.52997 28.69 1.3999 29.07 1.4599C29.3992 1.50926 29.7194 1.60702 30.02 1.74994C30.66 2.06994 31.3 2.39994 31.91 2.74994C34.9377 4.60291 37.7427 6.79731 40.27 9.28998C42.07 11.07 43.7 12.99 45.34 14.91C46.03 15.72 46.69 16.5499 47.34 17.3799C47.4934 17.5608 47.706 17.6813 47.94 17.7199C48.94 17.8799 50.06 18.02 51.09 18.28C53.09 18.78 55.09 19.38 57.09 19.9C58.7722 20.3637 60.3573 21.1258 61.77 22.15C62.3 22.52 62.85 22.86 63.4 23.15C63.5087 23.2047 63.5979 23.2918 63.6552 23.3992C63.7124 23.5067 63.7351 23.6291 63.72 23.7499C63.7009 23.9629 63.6504 24.1718 63.57 24.3699C63.43 24.7099 63.28 25.0399 63.11 25.3699C62.3989 26.67 61.5508 27.8903 60.58 29.01C59.1929 30.6303 57.7103 32.1663 56.14 33.6099C56.0304 33.6922 55.9505 33.808 55.9126 33.9398C55.8747 34.0715 55.8808 34.2119 55.93 34.3399C56.7341 37.1137 57.2567 39.9614 57.49 42.8399C57.7317 45.8101 57.7985 48.7919 57.69 51.77C57.661 53.6327 57.45 55.4883 57.06 57.31C57.0302 57.6195 56.9003 57.9109 56.69 58.14C56.6317 58.2158 56.5939 58.3053 56.58 58.4C56.43 59.02 56.28 59.65 56.14 60.28C56.1366 60.3449 56.1178 60.4082 56.0852 60.4644C56.0526 60.5207 56.007 60.5683 55.9523 60.6035C55.8976 60.6386 55.8352 60.6603 55.7705 60.6667C55.7058 60.673 55.6405 60.6638 55.58 60.64C55.4125 60.5951 55.2421 60.5618 55.07 60.54C54.8803 60.5237 54.7045 60.434 54.58 60.29C54.5552 60.2543 54.5224 60.2247 54.4842 60.2039C54.446 60.1831 54.4035 60.1715 54.36 60.17C54.0745 60.178 53.794 60.0938 53.56 59.93C52.31 59.28 51.08 58.6 49.83 57.93C45.4434 55.75 41.05 53.5833 36.65 51.43C36.5755 51.3975 36.4986 51.3707 36.42 51.3499L35.36 52.6099C34.9 53.1599 34.45 53.71 34 54.27C33.41 54.99 32.83 55.7099 32.25 56.4399C31.51 57.3699 30.74 58.2799 30.05 59.2399C28.6863 61.0533 27.112 62.6982 25.36 64.14C24.9547 64.4027 24.635 64.778 24.44 65.2199C24.3702 65.3945 24.2901 65.5648 24.2 65.7299L23.26 65.8699C23.18 65.6999 23.12 65.55 23.06 65.4C22.32 63.63 21.6 61.8599 20.86 60.0899C19.86 57.6199 18.75 55.16 17.74 52.67C17.1009 51.1531 16.6184 49.5748 16.3 47.9599C16.2728 47.7967 16.2126 47.6408 16.1232 47.5015C16.0338 47.3623 15.9171 47.2427 15.78 47.15C14.24 46 12.7 44.86 11.2 43.67C7.73001 40.8813 4.46181 37.8503 1.41998 34.5999C1.35233 34.5417 1.29808 34.4696 1.26086 34.3885C1.22365 34.3074 1.20435 34.2192 1.20435 34.1299C1.20435 34.0407 1.22365 33.9525 1.26086 33.8714C1.29808 33.7903 1.35233 33.7182 1.41998 33.66C1.70586 33.3747 2.00629 33.1043 2.32001 32.8499C2.50065 32.7125 2.66805 32.5585 2.82001 32.39C3.93775 31.0895 5.21053 29.9308 6.60999 28.9399C9.23999 27.0499 11.95 25.2899 14.7 23.5799C17.0478 22.0907 19.706 21.1602 22.47 20.8599L22.52 20.5699ZM59.52 23.43C57.52 23.24 55.46 23.2499 53.42 23.2499C50.238 23.298 47.062 23.5418 43.91 23.9799C43.64 23.9799 43.37 23.9799 43.11 24.0799C42.9338 24.1162 42.7516 24.1108 42.5779 24.0639C42.4042 24.017 42.2439 23.9301 42.11 23.81C42.0126 23.74 41.9337 23.6473 41.88 23.54C41.37 22.54 40.88 21.54 40.37 20.54C38.7367 17.4 37.0933 14.27 35.44 11.15C34.4878 9.30399 33.3875 7.53818 32.15 5.86994C31.71 5.28994 31.23 4.73989 30.75 4.19989C30.4068 3.79922 29.9802 3.47846 29.5 3.25995C29.3469 3.17469 29.2029 3.07413 29.07 2.9599C28.97 3.0799 28.86 3.18989 28.76 3.31989C27.4569 5.00721 26.4028 6.87296 25.63 8.85993C24.4716 11.8924 23.7967 15.088 23.63 18.3299C23.4633 21.1099 23.3 23.8965 23.14 26.6899C23.14 26.9799 23.14 27.2799 23.07 27.5699C23 28.0699 22.76 28.2499 22.29 28.0999C21.1607 27.8136 19.9814 27.7863 18.84 28.02C16.3584 28.3966 13.9059 28.9446 11.5 29.66C9.53929 30.2681 7.64868 31.0826 5.85999 32.0899C4.85999 32.6099 3.95001 33.19 3.01001 33.77C2.77525 33.9274 2.55441 34.1048 2.34998 34.3C2.49998 34.47 2.59997 34.6099 2.71997 34.7299L7.08002 38.9499C9.59458 41.3157 12.2674 43.5075 15.08 45.5099C15.43 45.7699 15.8 46.01 16.16 46.27C16.247 46.3352 16.3275 46.4089 16.4 46.4899C16.68 46.7799 16.95 47.0799 17.24 47.3599C17.3112 47.4105 17.3648 47.482 17.3935 47.5644C17.4222 47.6468 17.4245 47.7361 17.4 47.8199C17.3601 47.9875 17.3601 48.1622 17.4 48.3299C17.6757 49.6083 18.0638 50.8599 18.56 52.0699C19.35 54.0699 20.19 56.0099 21.01 57.9699C21.83 59.9299 22.64 61.85 23.46 63.79C23.54 63.99 23.62 64.1899 23.71 64.3799C23.92 64.3799 23.97 64.2299 24.04 64.1099C26.09 60.6599 28.37 57.3699 30.72 54.1099C31.42 53.1099 32.07 52.1099 32.72 51.1099C32.9803 50.6917 33.2677 50.2909 33.58 49.91C33.8177 49.6883 34.0917 49.509 34.39 49.3799C34.48 49.3799 34.64 49.3799 34.76 49.4699L37.87 51.02L50 57.02C50.69 57.36 51.36 57.73 52.05 58.02C52.74 58.31 53.17 58.5499 53.72 58.8299C54.27 59.1099 54.57 59.31 54.99 59.55L55.39 59.8C55.44 59.65 55.49 59.54 55.53 59.43C56.0435 57.8164 56.2204 56.1147 56.05 54.43C55.9119 52.8969 55.6781 51.3739 55.35 49.8699C55.02 48.2399 54.66 46.6299 54.28 45.0099C53.7213 42.5625 52.9276 40.1748 51.91 37.8799C51.8454 37.7712 51.7682 37.6705 51.68 37.5799C51.63 37.4999 51.59 37.4199 51.55 37.3399C51.5038 37.1862 51.447 37.0358 51.38 36.89C51.3575 36.8591 51.3423 36.8234 51.3356 36.7858C51.329 36.7482 51.3311 36.7096 51.3417 36.6729C51.3524 36.6362 51.3712 36.6025 51.3969 36.5743C51.4226 36.546 51.4545 36.524 51.49 36.5099C51.8648 36.2634 52.2016 35.9636 52.49 35.6199C54.25 33.9499 56.03 32.2899 57.76 30.6199C58.8464 29.5409 59.8493 28.3809 60.76 27.15C61.383 26.3327 61.9223 25.455 62.37 24.53C62.4211 24.4335 62.4646 24.3332 62.5 24.2299C62.5047 24.2188 62.5071 24.2069 62.5071 24.1949C62.5071 24.1829 62.5047 24.1711 62.5 24.16C61.5598 23.7463 60.5549 23.4993 59.53 23.43H59.52ZM43.72 20.91C44.1511 20.4656 44.6122 20.0513 45.1 19.67C45.59 19.28 46.1 18.9199 46.58 18.5799L46.72 17.77C46.22 17.16 45.72 16.4999 45.14 15.8499C43.37 13.7699 41.6 11.6799 39.65 9.74994C37.3632 7.50118 34.8536 5.49083 32.16 3.74994C32.01 3.63994 31.84 3.54997 31.61 3.40997C31.6289 3.48421 31.6593 3.55502 31.7 3.61994C33.2546 5.42351 34.5968 7.39983 35.7 9.50995C37.13 12.1399 38.52 14.7899 39.92 17.4399C40.71 18.9399 41.47 20.4399 42.24 21.9699L42.45 22.3299C42.92 21.8699 43.29 21.36 43.73 20.91H43.72ZM6.53998 30.5799C8.95916 29.351 11.5271 28.4401 14.18 27.8699C15.68 27.5299 17.18 27.1799 18.7 26.9799C19.8165 26.8049 20.9535 26.8049 22.07 26.9799C22.2861 25.2753 22.3863 23.5581 22.37 21.8399C20.3446 22.0509 18.3771 22.6412 16.57 23.5799C14.98 24.4399 13.46 25.41 11.96 26.42C10.27 27.55 8.59002 28.6999 6.96002 29.8499C6.49002 30.1699 6.07001 30.56 5.64001 30.92C5.56845 30.978 5.50157 31.0414 5.44 31.1099C5.82 30.9399 6.18999 30.7699 6.54999 30.5799H6.53998ZM47.28 18.9999C46.48 19.6099 45.65 20.1899 44.88 20.8399C44.4705 21.2113 44.0926 21.6161 43.75 22.05C43.48 22.35 43.23 22.69 42.92 23.05C45.9044 22.6284 48.9082 22.358 51.92 22.2399C54.9235 22.1099 57.9326 22.2136 60.92 22.55C60.8763 22.497 60.8259 22.4499 60.77 22.41C59.8087 21.7359 58.7497 21.2131 57.63 20.8599L55.45 20.2499C54.17 19.8999 52.91 19.4999 51.63 19.2499C50.35 18.9999 49.25 18.77 48.06 18.53C47.96 18.53 47.85 18.53 47.81 18.53C47.61 18.71 47.46 18.8699 47.28 18.9999ZM52.43 37.15C54.81 42.47 55.88 48.15 56.85 53.81C57.21 47.36 57.08 40.9499 55.25 34.5799L52.43 37.15ZM26.6 62.15C27.649 61.1424 28.6155 60.0523 29.49 58.89C30.33 57.76 31.25 56.6699 32.13 55.5699L33.13 54.31L35.04 51.9699L35.75 51.0999L34.47 50.4999C34.2097 50.7144 33.9838 50.9673 33.8 51.2499C31.86 54.0366 29.9267 56.8299 28 59.6299C27.44 60.4399 26.92 61.2699 26.38 62.0899C26.32 62.1799 26.25 62.2499 26.18 62.3399L26.28 62.4L26.6 62.15Z" fill="black"/>
<path id="Vector_2" d="M62.58 24.28C62.5446 24.3833 62.5011 24.4835 62.45 24.58C62.0023 25.5049 61.463 26.3827 60.84 27.2C59.9293 28.4309 58.9264 29.591 57.84 30.67C56.11 32.36 54.33 34.02 52.57 35.67C52.2817 36.0137 51.9448 36.3135 51.57 36.5601C51.5345 36.5741 51.5026 36.596 51.4769 36.6243C51.4512 36.6525 51.4323 36.6863 51.4217 36.723C51.4111 36.7597 51.409 36.7983 51.4156 36.8359C51.4223 36.8736 51.4375 36.9091 51.46 36.9399C51.527 37.0858 51.5838 37.2363 51.63 37.39C51.63 37.47 51.71 37.55 51.76 37.63C51.8483 37.7206 51.9254 37.8213 51.99 37.9301C53.0076 40.2249 53.8013 42.6127 54.36 45.0601C54.74 46.6801 55.1 48.29 55.43 49.92C55.7582 51.424 55.992 52.9469 56.13 54.48C56.3004 56.1647 56.1234 57.8664 55.61 59.48C55.61 59.59 55.52 59.7 55.47 59.85L55.07 59.6C54.65 59.36 54.23 59.1 53.8 58.88C53.37 58.66 52.68 58.3499 52.13 58.0699C51.58 57.7899 50.77 57.3599 50.08 57.0699L37.95 51.0699L34.84 49.52C34.72 49.52 34.56 49.3901 34.47 49.4301C34.1716 49.5591 33.8977 49.7382 33.66 49.96C33.3476 50.3409 33.0604 50.7418 32.8 51.16C32.12 52.16 31.47 53.16 30.8 54.16C28.45 57.41 26.17 60.7 24.12 64.16C24.05 64.28 24 64.4301 23.79 64.4301C23.7 64.2401 23.62 64.04 23.54 63.84C22.72 61.9 21.9 59.97 21.09 58.02C20.28 56.07 19.43 54.1 18.64 52.12C18.1438 50.91 17.7556 49.6584 17.48 48.38C17.44 48.2124 17.44 48.0376 17.48 47.87C17.5044 47.7862 17.5022 47.6968 17.4735 47.6144C17.4448 47.5319 17.3912 47.4606 17.32 47.41C17.03 47.13 16.76 46.83 16.48 46.54C16.4074 46.459 16.327 46.3852 16.24 46.3199C15.88 46.0599 15.51 45.8201 15.16 45.5601C12.3474 43.5576 9.67454 41.3658 7.15997 39L2.79999 34.78C2.67999 34.66 2.57999 34.52 2.42999 34.35C2.63442 34.1548 2.85527 33.9774 3.09003 33.8199C4.03003 33.2399 4.97 32.66 5.94 32.14C7.7287 31.1327 9.61931 30.3181 11.58 29.71C13.9859 28.9946 16.4384 28.4466 18.92 28.0699C20.0613 27.8363 21.2407 27.8637 22.37 28.15C22.84 28.3 23.08 28.15 23.15 27.62C23.15 27.33 23.15 27.03 23.22 26.74C23.38 23.9467 23.5434 21.16 23.71 18.38C23.8767 15.1381 24.5516 11.9425 25.71 8.91003C26.4828 6.92307 27.5369 5.05732 28.84 3.37C28.94 3.24 29.05 3.13001 29.15 3.01001C29.2829 3.12424 29.4269 3.2248 29.58 3.31006C30.0602 3.52856 30.4868 3.84933 30.83 4.25C31.31 4.79 31.83 5.34004 32.23 5.92004C33.4675 7.58829 34.5678 9.35398 35.52 11.2C37.18 14.32 38.8233 17.45 40.45 20.59C40.97 21.59 41.45 22.59 41.96 23.59C42.0137 23.6973 42.0926 23.79 42.19 23.86C42.324 23.9801 42.4842 24.0671 42.6579 24.114C42.8316 24.1609 43.0138 24.1664 43.19 24.13C43.45 24.13 43.72 24.07 43.99 24.03C47.142 23.5919 50.318 23.3482 53.5 23.3C55.5 23.3 57.57 23.3 59.6 23.48C60.638 23.5617 61.6536 23.8257 62.6 24.26C62.5944 24.2677 62.5877 24.2745 62.58 24.28ZM35.27 34.89L35.74 34.78L39.59 34.02L39.98 33.92C40.0299 33.9083 40.077 33.8867 40.1187 33.8567C40.1603 33.8267 40.1956 33.7888 40.2225 33.7451C40.2495 33.7015 40.2675 33.6529 40.2757 33.6023C40.2838 33.5516 40.2819 33.4999 40.27 33.45C40.2552 33.4018 40.231 33.3572 40.1988 33.3185C40.1666 33.2798 40.1269 33.2479 40.0823 33.2246C40.0376 33.2013 39.9888 33.1872 39.9386 33.183C39.8884 33.1788 39.8379 33.1845 39.79 33.2L38.6 33.42L34.08 34.34C33.92 34.34 33.76 34.39 33.6 34.42C33.44 34.45 33.18 34.62 33.2 34.83C33.22 35.04 33.4 35.17 33.68 35.16C33.9314 35.1431 34.1817 35.113 34.43 35.0699C34.7064 35.4244 34.8322 35.8735 34.78 36.3199H34.44C34.17 36.3199 34.02 36.43 33.99 36.63C33.96 36.83 34.08 36.99 34.34 37.04C34.5623 37.0947 34.7916 37.1148 35.02 37.1L38.08 36.9L39.9 36.73C39.9933 36.7349 40.0867 36.7349 40.18 36.73C40.2746 36.7199 40.3616 36.6737 40.4231 36.6011C40.4845 36.5285 40.5157 36.4349 40.51 36.34C40.51 36.13 40.35 36 40.09 36C40.0101 35.995 39.9299 35.995 39.85 36L36.23 36.3199H35.72L35.27 34.89ZM33.39 12.12L31.47 8.64001C31.3871 8.48899 31.2827 8.35084 31.16 8.22998C31.094 8.16455 31.0058 8.12641 30.9129 8.12305C30.82 8.11968 30.7293 8.15131 30.6588 8.21179C30.5882 8.27227 30.5429 8.35717 30.532 8.44946C30.5212 8.54176 30.5454 8.63473 30.6 8.70996C32.03 11.1 33.33 13.5501 34.54 16.0601C35.15 17.3101 35.67 18.6 36.22 19.87C36.32 20.09 36.41 20.32 36.51 20.54C36.61 20.76 36.81 20.86 37 20.79C37.19 20.72 37.27 20.51 37.19 20.25C37.1794 20.195 37.1626 20.1413 37.14 20.09C36.0571 17.3578 34.8047 14.696 33.39 12.12ZM24.12 37.02C24.2209 36.9822 24.3245 36.9521 24.43 36.9301L26.43 36.65C26.81 36.6 26.98 36.46 26.95 36.21C26.92 35.96 26.72 35.84 26.35 35.89C25.48 35.99 24.61 36.12 23.75 36.25L22.47 36.48H22.27C22.1764 36.4924 22.0907 36.5392 22.0297 36.6113C21.9687 36.6834 21.9367 36.7756 21.94 36.87C21.94 37.07 22.11 37.21 22.37 37.21C22.5298 37.2198 22.6901 37.2198 22.85 37.21C23.23 37.21 23.24 37.15 23.42 37.49C23.6304 37.8372 23.7856 38.2151 23.88 38.61H23.06C22.95 38.61 22.84 38.61 22.74 38.61C22.6646 38.6147 22.5936 38.6468 22.5402 38.7002C22.4868 38.7536 22.4547 38.8247 22.45 38.9C22.4571 39.0299 22.5145 39.1518 22.61 39.24C22.7347 39.3213 22.8811 39.3632 23.03 39.36C23.29 39.36 23.56 39.36 23.83 39.36H24.31C24.3897 39.3696 24.4703 39.3696 24.55 39.36C25.5196 39.1837 26.5047 39.1067 27.49 39.13C27.5833 39.1349 27.6768 39.1349 27.77 39.13C27.8504 39.1178 27.9234 39.0763 27.975 39.0135C28.0267 38.9508 28.0534 38.8712 28.05 38.79C28.0585 38.7067 28.0339 38.6232 27.9815 38.5577C27.9291 38.4923 27.8532 38.45 27.77 38.4399C27.6372 38.4242 27.5029 38.4242 27.37 38.4399L25.23 38.54H24.74L24.12 37.02Z" fill="#EBC36E"/>
<path id="Vector_3" d="M42.5 22.38C42.92 21.87 43.29 21.38 43.73 20.91C44.1611 20.4657 44.6222 20.0514 45.11 19.67C45.6 19.28 46.11 18.92 46.59 18.58L46.73 17.77C46.23 17.16 45.73 16.5 45.15 15.85C43.38 13.77 41.61 11.68 39.66 9.75C37.3732 7.50124 34.8636 5.49089 32.17 3.75C32.02 3.64 31.85 3.55003 31.62 3.41003C31.6389 3.48427 31.6693 3.55508 31.71 3.62C33.2646 5.42357 34.6068 7.39989 35.71 9.51001C37.14 12.14 38.53 14.7899 39.93 17.4399C40.72 18.9399 41.48 20.44 42.25 21.97L42.5 22.38Z" fill="#A3784C"/>
<path id="Vector_4" d="M5.45001 31.12C5.82001 30.94 6.18999 30.77 6.54999 30.58C8.96917 29.351 11.5372 28.4402 14.19 27.87C15.69 27.53 17.19 27.18 18.71 26.98C19.8265 26.805 20.9635 26.805 22.08 26.98C22.2961 25.2754 22.3963 23.5581 22.38 21.84C20.3546 22.051 18.3871 22.6412 16.58 23.58C14.99 24.44 13.47 25.41 11.97 26.42C10.28 27.55 8.59997 28.7 6.96997 29.85C6.49997 30.17 6.08002 30.56 5.65002 30.92C5.57846 30.978 5.51158 31.0415 5.45001 31.11V31.12Z" fill="#A3784C"/>
<path id="Vector_5" d="M47.84 18.49C47.61 18.71 47.46 18.87 47.28 19.01C46.48 19.62 45.65 20.2 44.88 20.85C44.4705 21.2214 44.0926 21.6262 43.75 22.0601C43.48 22.3601 43.23 22.7001 42.92 23.0601C45.9044 22.6385 48.9082 22.3681 51.92 22.25C54.9235 22.1199 57.9326 22.2236 60.92 22.5601C60.8763 22.5071 60.8259 22.46 60.77 22.42C59.8087 21.746 58.7497 21.2232 57.63 20.87L55.45 20.26C54.17 19.91 52.91 19.51 51.63 19.26C50.35 19.01 49.25 18.78 48.06 18.54C48 18.49 47.88 18.5 47.84 18.49Z" fill="#A3784C"/>
<path id="Vector_6" d="M55.25 34.59L52.43 37.16C54.81 42.48 55.88 48.1599 56.85 53.8199C57.21 47.3699 57.08 41 55.25 34.59Z" fill="#A3784C"/>
<path id="Vector_7" d="M26.3 62.4399L26.6 62.1899C27.649 61.1824 28.6155 60.0924 29.49 58.9301C30.33 57.8001 31.25 56.71 32.13 55.61L33.13 54.35L35.04 52.01L35.75 51.14L34.47 50.54C34.2097 50.7545 33.9838 51.0074 33.8 51.29C31.86 54.0767 29.9267 56.87 28 59.67C27.44 60.48 26.92 61.31 26.38 62.13C26.32 62.22 26.25 62.29 26.18 62.38L26.3 62.4399Z" fill="#A3784C"/>
<path id="Vector_8" d="M35.72 36.3101L35.27 34.89L35.74 34.78L39.59 34.02L39.98 33.92C40.0299 33.9083 40.077 33.8867 40.1186 33.8567C40.1603 33.8267 40.1956 33.7888 40.2225 33.7451C40.2495 33.7015 40.2675 33.6529 40.2757 33.6023C40.2838 33.5516 40.2819 33.4999 40.27 33.45C40.2552 33.4018 40.231 33.3572 40.1988 33.3185C40.1666 33.2798 40.1269 33.2479 40.0823 33.2246C40.0376 33.2014 39.9888 33.1872 39.9386 33.183C39.8884 33.1788 39.8379 33.1845 39.79 33.2L38.6 33.42L34.08 34.34C33.92 34.34 33.76 34.39 33.6 34.42C33.44 34.45 33.18 34.62 33.2 34.83C33.22 35.04 33.4 35.17 33.68 35.16C33.9314 35.1431 34.1817 35.113 34.43 35.07C34.7064 35.4244 34.8322 35.8735 34.78 36.32H34.44C34.17 36.32 34.02 36.43 33.99 36.63C33.96 36.83 34.08 36.99 34.34 37.04C34.5623 37.0947 34.7916 37.1148 35.02 37.1L38.08 36.9L39.9 36.73C39.9933 36.7349 40.0867 36.7349 40.18 36.73C40.2746 36.7199 40.3616 36.6737 40.4231 36.6011C40.4845 36.5285 40.5157 36.4349 40.51 36.34C40.51 36.13 40.35 36 40.09 36C40.0101 35.995 39.9299 35.995 39.85 36L36.23 36.32L35.72 36.3101Z" fill="black"/>
<path id="Vector_9" d="M37.14 20.09C36.0583 17.3476 34.8058 14.6757 33.39 12.09L31.47 8.60998C31.3871 8.45896 31.2827 8.3208 31.16 8.19995C31.094 8.13452 31.0058 8.09638 30.9129 8.09302C30.82 8.08965 30.7293 8.1214 30.6587 8.18188C30.5882 8.24237 30.5429 8.32713 30.532 8.41943C30.5211 8.51173 30.5454 8.60482 30.6 8.68005C32.03 11.0701 33.33 13.52 34.54 16.03C35.15 17.28 35.67 18.57 36.22 19.84C36.32 20.06 36.41 20.29 36.51 20.51C36.61 20.73 36.81 20.83 37 20.76C37.19 20.69 37.27 20.48 37.19 20.22C37.1774 20.1752 37.1607 20.1317 37.14 20.09Z" fill="#DCCFBD"/>
<path id="Vector_10" d="M24.78 38.5201L24.12 37.0201C24.2209 36.9822 24.3245 36.9522 24.43 36.9301L26.43 36.6501C26.81 36.6001 26.98 36.46 26.95 36.21C26.92 35.96 26.72 35.8401 26.35 35.8901C25.48 35.9901 24.61 36.1201 23.75 36.2501L22.47 36.48H22.27C22.1764 36.4924 22.0907 36.5393 22.0297 36.6114C21.9686 36.6835 21.9367 36.7757 21.94 36.8701C21.94 37.0701 22.11 37.21 22.37 37.21C22.5298 37.2198 22.6901 37.2198 22.85 37.21C23.23 37.21 23.24 37.15 23.42 37.49C23.6304 37.8373 23.7856 38.2151 23.88 38.61H23.06C22.95 38.61 22.84 38.61 22.74 38.61C22.6646 38.6148 22.5935 38.6469 22.5401 38.7003C22.4868 38.7536 22.4547 38.8247 22.45 38.9001C22.4571 39.0299 22.5145 39.1518 22.61 39.24C22.7347 39.3214 22.8811 39.3632 23.03 39.36C23.29 39.36 23.56 39.36 23.83 39.36H24.31C24.3897 39.3697 24.4703 39.3697 24.55 39.36C25.5196 39.1838 26.5047 39.1068 27.49 39.1301C27.5832 39.135 27.6767 39.135 27.77 39.1301C27.8504 39.1178 27.9234 39.0763 27.975 39.0136C28.0267 38.9509 28.0534 38.8713 28.05 38.7901C28.0584 38.7067 28.0339 38.6232 27.9815 38.5578C27.9291 38.4923 27.8532 38.45 27.77 38.44C27.6371 38.4243 27.5029 38.4243 27.37 38.44L25.23 38.5401L24.78 38.5201Z" fill="black"/>
<path id="Vector_11" d="M55.49 61.28C55.3391 61.2361 55.1855 61.2028 55.03 61.1801C54.7425 61.1523 54.4737 61.0248 54.27 60.82C53.9613 60.8079 53.6613 60.7148 53.4 60.5501H53.33L52.06 59.88C51.24 59.45 50.43 59.02 49.61 58.61L39.48 53.61L36.63 52.2L35.84 53.15C35.39 53.69 34.93 54.2401 34.48 54.8001L32.74 56.97L32.11 57.75C31.58 58.4 31.04 59.06 30.55 59.75C29.1635 61.6029 27.5586 63.2816 25.77 64.75L25.65 64.86C25.3792 65.0391 25.1616 65.2878 25.02 65.58C24.9694 65.7334 24.9023 65.881 24.82 66.02L24.75 66.16L24.62 66.4301L22.94 66.6801L22.57 65.8001L21.85 64.07C21.36 62.88 20.85 61.68 20.37 60.49L19.2 57.71C18.54 56.16 17.88 54.62 17.2 53.07C16.5414 51.5153 16.0454 49.8967 15.72 48.24C15.7072 48.1472 15.6736 48.0585 15.6216 47.9806C15.5697 47.9027 15.5007 47.8375 15.42 47.79L14.71 47.25C13.43 46.25 12.11 45.31 10.83 44.25C7.34292 41.4414 4.0581 38.3905 1 35.12C0.883837 35.0089 0.791373 34.8755 0.72821 34.7277C0.665048 34.5799 0.632507 34.4208 0.632507 34.26C0.632507 34.0993 0.665048 33.9402 0.72821 33.7924C0.791373 33.6446 0.883837 33.5111 1 33.4C1.20758 33.1868 1.42796 32.9864 1.65997 32.8001L1.94 32.5601L2.10999 32.41C2.20788 32.3284 2.30138 32.2416 2.39001 32.15C3.53443 30.8136 4.83736 29.6214 6.27002 28.6C8.60002 26.93 11.18 25.22 14.39 23.22C15.7616 22.3746 17.2329 21.7028 18.77 21.22C19.7994 20.887 20.8571 20.6493 21.93 20.51L22.03 18.71C22.1987 15.3319 22.8729 11.9981 24.03 8.81995C24.9523 6.27463 26.3054 3.90681 28.03 1.81995C28.0373 1.62251 28.1029 1.43167 28.2186 1.27149C28.3343 1.11132 28.4949 0.989072 28.68 0.920053C28.8638 0.873492 29.0562 0.873492 29.24 0.920053C29.6293 0.977387 30.0073 1.09547 30.36 1.27003C31.14 1.66003 31.75 1.99003 32.29 2.27003C35.3523 4.15258 38.1935 6.37316 40.76 8.89002C42.55 10.67 44.2 12.6 45.76 14.48V14.54C46.34 15.22 46.89 15.91 47.45 16.54L47.8 16.97C47.8273 17.0117 47.8643 17.0462 47.9078 17.0706C47.9514 17.0949 48.0001 17.1085 48.05 17.11L48.63 17.2C49.49 17.33 50.38 17.4701 51.25 17.6801C52.35 17.9601 53.47 18.27 54.55 18.57C55.45 18.82 56.36 19.0701 57.27 19.3001C59.0171 19.7827 60.6632 20.5752 62.13 21.64C62.6 21.98 63.13 22.29 63.62 22.64L63.73 22.71C63.9304 22.8225 64.0933 22.9917 64.1982 23.1962C64.3032 23.4007 64.3455 23.6315 64.32 23.86C64.2959 24.128 64.2319 24.3909 64.13 24.64C63.98 25 63.82 25.36 63.65 25.64C62.9194 26.9791 62.0478 28.2362 61.05 29.39C59.6472 31.028 58.1479 32.5808 56.56 34.04L56.49 34.1C56.4933 34.1299 56.4933 34.16 56.49 34.1899C57.3103 37.0016 57.8398 39.8902 58.07 42.8101C58.3105 45.8037 58.3773 48.8087 58.27 51.8101C58.2423 53.7098 58.0279 55.6021 57.63 57.46V57.54C57.5817 57.9123 57.4212 58.2611 57.17 58.54C57.02 59.17 56.87 59.7901 56.73 60.4201C56.7003 60.5974 56.6233 60.7634 56.5071 60.9006C56.391 61.0379 56.24 61.1413 56.07 61.2C55.8879 61.28 55.687 61.3078 55.49 61.28ZM59.49 24C57.56 23.82 55.58 23.82 53.67 23.82H53.44C50.2815 23.873 47.1291 24.1169 44 24.5501H43.69C43.5357 24.5563 43.382 24.5729 43.23 24.6C42.9768 24.6486 42.716 24.6398 42.4667 24.574C42.2175 24.5082 41.9862 24.3872 41.79 24.22C41.6262 24.0988 41.4928 23.9414 41.4 23.76L40.84 22.6C40.53 21.97 40.23 21.34 39.9 20.72C38.24 17.54 36.62 14.42 34.98 11.34C34.0422 9.52196 32.9587 7.78298 31.74 6.14002C31.33 5.60002 30.89 5.14001 30.36 4.50001C30.0709 4.1575 29.7086 3.88409 29.3 3.69996H29.2C27.9579 5.33265 26.9482 7.12987 26.2 9.04005C25.05 12.0126 24.3751 15.1475 24.2 18.33C24.09 20.14 23.98 21.95 23.88 23.76L23.71 26.69C23.71 27 23.71 27.31 23.63 27.62C23.6228 27.8407 23.5493 28.0541 23.4191 28.2324C23.2889 28.4108 23.108 28.5458 22.9 28.62C22.6469 28.7046 22.3731 28.7046 22.12 28.62C21.0723 28.3531 19.977 28.3327 18.92 28.5601C16.4642 28.925 14.0379 29.4664 11.66 30.1801L11.18 30.33C9.43342 30.9209 7.74334 31.6674 6.13 32.5601C5.33 32.9901 4.54002 33.4699 3.77002 33.9399L3.29999 34.23L3.15997 34.33L4.87 35.98L7.47998 38.51C9.96119 40.8583 12.6008 43.0334 15.38 45.02C15.58 45.17 15.79 45.31 16 45.45L16.46 45.77C16.5686 45.8609 16.6721 45.9578 16.77 46.0601L17.06 46.36L17.6 46.9201C17.7408 47.0407 17.8453 47.1981 17.9018 47.3746C17.9583 47.5512 17.9646 47.7401 17.92 47.9201C17.9 48.0022 17.9 48.0879 17.92 48.1701C18.1901 49.4172 18.5682 50.6384 19.05 51.82C19.64 53.29 20.26 54.82 20.87 56.21L21.5 57.71C22.12 59.2 23.83 63.25 23.83 63.25C25.94 59.75 28.23 56.49 30.22 53.75C30.67 53.11 31.12 52.4501 31.54 51.8101L32.23 50.8101L32.44 50.51C32.6472 50.1591 32.8813 49.8248 33.14 49.51C33.4283 49.2309 33.7679 49.0101 34.14 48.86H34.2C34.332 48.8275 34.4693 48.8223 34.6034 48.8446C34.7375 48.867 34.8656 48.9164 34.98 48.99L36.56 49.78L38.1 50.54L50.22 56.54L51.34 57.12L52.27 57.6L53.01 57.96C53.33 58.1 53.65 58.25 53.95 58.41C54.25 58.57 54.59 58.76 54.95 58.95L55.1 59.03C55.5105 57.595 55.6462 56.0954 55.5 54.61C55.3615 53.1007 55.1311 51.6012 54.81 50.12C54.45 48.35 54.05 46.6 53.74 45.28C53.1914 42.8781 52.4145 40.5342 51.42 38.28V38.22C51.42 38.17 51.33 38.1101 51.28 38.0501C51.2032 37.9412 51.1394 37.8237 51.09 37.7C51.09 37.63 51.09 37.56 51.01 37.48C51.0007 37.4201 50.9804 37.3625 50.95 37.3101C50.8903 37.2119 50.8521 37.1022 50.838 36.9882C50.8239 36.8742 50.8342 36.7585 50.8683 36.6488C50.9023 36.5391 50.9594 36.4379 51.0355 36.3519C51.1117 36.2659 51.2052 36.1971 51.31 36.15C51.5413 36.0124 51.7475 35.8366 51.92 35.63L52.19 35.36L53.91 33.73C55.08 32.62 56.29 31.48 57.46 30.34C58.5476 29.2835 59.5507 28.1434 60.46 26.9301C61.0205 26.2001 61.5125 25.4201 61.93 24.6C61.1436 24.2921 60.3197 24.0903 59.48 24H59.49ZM53.13 37.3001C54.6228 40.8872 55.7355 44.6208 56.45 48.4399C56.5022 44.1265 55.998 39.8245 54.95 35.64L53.13 37.3001ZM34.87 51.3001L34.61 51.1701C34.4995 51.2976 34.396 51.4311 34.3 51.57L32.3 54.46L32.72 53.9399L34.87 51.3001ZM48.06 19.04C47.9368 19.1709 47.803 19.2913 47.66 19.4L46.81 20.04C46.3 20.42 45.81 20.82 45.27 21.23C44.972 21.492 44.6976 21.7798 44.45 22.09L44.28 22.29C46.827 21.9383 49.3904 21.718 51.96 21.63H52.12C54.18 21.63 56.28 21.56 58.41 21.69C58.1227 21.5702 57.8289 21.4668 57.53 21.38L56.08 20.97L55.35 20.77L54.18 20.44C53.32 20.19 52.43 19.93 51.55 19.72C50.67 19.51 49.88 19.37 49.06 19.21L48.06 19.04ZM46.06 18.2V17.88L45.75 17.5C45.4 17.07 45.03 16.6201 44.65 16.1801L44.6 16.12C42.88 14.12 41.11 12 39.2 10.12C37.6171 8.55629 35.9117 7.12168 34.1 5.82996C34.8585 6.93097 35.5563 8.07272 36.19 9.25001C37.47 11.6 38.74 14 39.97 16.33L40.41 17.1801C40.94 18.1801 41.41 19.1801 41.98 20.1801L42.53 21.26C42.7634 20.9734 43.0033 20.6934 43.25 20.4201C43.705 19.9661 44.1858 19.5387 44.69 19.14C45.05 18.85 45.42 18.59 45.77 18.33L46.06 18.2ZM19.23 23C18.4035 23.257 17.6033 23.5918 16.84 24C15.22 24.87 13.69 25.8601 12.28 26.8101L9.78998 28.49L10.87 28.12C11.87 27.81 12.87 27.53 14.05 27.27L14.33 27.2C15.72 26.89 17.17 26.56 18.63 26.37C19.6216 26.2109 20.6283 26.1673 21.63 26.24C21.72 25.32 21.84 23.37 21.86 22.4C20.9707 22.5465 20.0946 22.7639 19.24 23.0501L19.23 23Z" fill="black"/>
</g>
</svg>
