<svg width="263" height="151" viewBox="0 0 263 151" fill="none" xmlns="http://www.w3.org/2000/svg">
<g id="buildingsBlack">
<path id="Vector" d="M202.65 86.3201H178.32C177.514 86.321 176.729 86.5753 176.076 87.0474C175.422 87.5194 174.934 88.185 174.68 88.95V101.05C174.682 101.336 174.649 101.622 174.58 101.9C174.772 102.749 175.247 103.508 175.926 104.053C176.605 104.598 177.449 104.897 178.32 104.9H202.65C203.666 104.897 204.64 104.493 205.359 103.776C206.078 103.058 206.485 102.086 206.49 101.07V90.1699C206.49 89.1506 206.086 88.1729 205.366 87.4512C204.646 86.7294 203.669 86.3227 202.65 86.3201Z" fill="#0B0B0B"/>
<path id="Vector_2" d="M178.32 86.3201H205.54C205.996 86.3195 206.446 86.2073 206.849 85.9934C207.252 85.7795 207.597 85.4701 207.853 85.0925C208.109 84.7149 208.269 84.2805 208.319 83.8269C208.369 83.3733 208.308 82.9144 208.14 82.49L206.39 78.0701C206.184 77.5486 205.826 77.101 205.362 76.7854C204.898 76.4698 204.351 76.3008 203.79 76.3H177.48C176.737 76.3 176.025 76.595 175.5 77.1201C174.975 77.6452 174.68 78.3575 174.68 79.1001V83.52C174.683 84.2618 174.978 84.9725 175.503 85.4971C176.028 86.0216 176.738 86.3174 177.48 86.3201H178.32Z" fill="#0B0B0B"/>
<path id="Vector_3" d="M157.37 25.1201L140.83 41.6499V101.05C140.835 102.066 141.242 103.038 141.961 103.756C142.68 104.473 143.654 104.877 144.67 104.88H170.85C171.72 104.878 172.563 104.58 173.241 104.034C173.919 103.489 174.391 102.729 174.58 101.88C174.649 101.602 174.682 101.316 174.68 101.03V42.4099L157.37 25.1201Z" fill="#0B0B0B"/>
<path id="Vector_4" d="M143.15 48.52C145.26 48.52 146.98 47.96 146.98 47.28V47C146.98 46.31 145.26 45.76 143.15 45.76H142.35V48.55L143.15 48.52Z" fill="#0B0B0B"/>
<path id="Vector_5" d="M143.15 53.8799C145.26 53.8799 146.98 53.3299 146.98 52.6399V52.3301C146.98 51.6501 145.26 51.0901 143.15 51.0901H142.35V53.8799H143.15Z" fill="#0B0B0B"/>
<path id="Vector_6" d="M143.15 59.25C145.26 59.25 146.98 58.69 146.98 58.01V57.7C146.98 57.01 145.26 56.45 143.15 56.45H142.35V59.25H143.15Z" fill="#0B0B0B"/>
<path id="Vector_7" d="M143.15 64.6101C145.26 64.6101 146.98 64.0601 146.98 63.3701V63.0601C146.98 62.3801 145.26 61.8201 143.15 61.8201H142.35V64.6101H143.15Z" fill="#0B0B0B"/>
<path id="Vector_8" d="M143.15 70C145.26 70 146.98 69.44 146.98 68.76V68.45C146.98 67.76 145.26 67.2 143.15 67.2H142.35V70H143.15Z" fill="#0B0B0B"/>
<path id="Vector_9" d="M143.15 75.3401C145.26 75.3401 146.98 74.7801 146.98 74.1001V73.79C146.98 73.11 145.26 72.55 143.15 72.55H142.35V75.3401H143.15Z" fill="#0B0B0B"/>
<path id="Vector_10" d="M143.15 80.71C145.26 80.71 146.98 80.15 146.98 79.47V79.1599C146.98 78.4699 145.26 77.9099 143.15 77.9099H142.35V80.71H143.15Z" fill="#0B0B0B"/>
<path id="Vector_11" d="M143.15 86.0701C145.26 86.0701 146.98 85.5101 146.98 84.8301V84.52C146.98 83.84 145.26 83.28 143.15 83.28H142.35V86.0701H143.15Z" fill="#0B0B0B"/>
<path id="Vector_12" d="M143.15 91.4399C145.26 91.4399 146.98 90.88 146.98 90.2V89.8899C146.98 89.1999 145.26 88.6399 143.15 88.6399H142.35V91.4399H143.15Z" fill="#0B0B0B"/>
<path id="Vector_13" d="M143.15 96.8C145.26 96.8 146.98 96.2401 146.98 95.5601V95.25C146.98 94.57 145.26 94.01 143.15 94.01H142.35V96.8H143.15Z" fill="#0B0B0B"/>
<path id="Vector_14" d="M143.15 102.17C145.26 102.17 146.98 101.61 146.98 100.93V100.62C146.98 99.9301 145.26 99.3701 143.15 99.3701H142.35V102.17H143.15Z" fill="#0B0B0B"/>
<path id="Vector_15" d="M172.69 48.52C170.58 48.52 168.86 47.96 168.86 47.28V47C168.86 46.31 170.58 45.76 172.69 45.76H173.49V48.55L172.69 48.52Z" fill="#0B0B0B"/>
<path id="Vector_16" d="M172.69 53.8799C170.58 53.8799 168.86 53.3299 168.86 52.6399V52.3301C168.86 51.6501 170.58 51.0901 172.69 51.0901H173.49V53.8799H172.69Z" fill="#0B0B0B"/>
<path id="Vector_17" d="M172.69 59.25C170.58 59.25 168.86 58.69 168.86 58.01V57.7C168.86 57.01 170.58 56.45 172.69 56.45H173.49V59.25H172.69Z" fill="#0B0B0B"/>
<path id="Vector_18" d="M172.69 64.6101C170.58 64.6101 168.86 64.0601 168.86 63.3701V63.0601C168.86 62.3801 170.58 61.8201 172.69 61.8201H173.49V64.6101H172.69Z" fill="#0B0B0B"/>
<path id="Vector_19" d="M172.69 70C170.58 70 168.86 69.44 168.86 68.76V68.45C168.86 67.76 170.58 67.2 172.69 67.2H173.49V70H172.69Z" fill="#0B0B0B"/>
<path id="Vector_20" d="M172.69 75.3401C170.58 75.3401 168.86 74.7801 168.86 74.1001V73.79C168.86 73.11 170.58 72.55 172.69 72.55H173.49V75.3401H172.69Z" fill="#0B0B0B"/>
<path id="Vector_21" d="M172.69 80.71C170.58 80.71 168.86 80.15 168.86 79.47V79.1599C168.86 78.4699 170.58 77.9099 172.69 77.9099H173.49V80.71H172.69Z" fill="#0B0B0B"/>
<path id="Vector_22" d="M172.69 86.0701C170.58 86.0701 168.86 85.5101 168.86 84.8301V84.52C168.86 83.84 170.58 83.28 172.69 83.28H173.49V86.0701H172.69Z" fill="#0B0B0B"/>
<path id="Vector_23" d="M172.69 91.4399C170.58 91.4399 168.86 90.88 168.86 90.2V89.8899C168.86 89.1999 170.58 88.6399 172.69 88.6399H173.49V91.4399H172.69Z" fill="#0B0B0B"/>
<path id="Vector_24" d="M172.69 96.8C170.58 96.8 168.86 96.2401 168.86 95.5601V95.25C168.86 94.57 170.58 94.01 172.69 94.01H173.49V96.8H172.69Z" fill="#0B0B0B"/>
<path id="Vector_25" d="M172.69 102.17C170.58 102.17 168.86 101.61 168.86 100.93V100.62C168.86 99.9301 170.58 99.3701 172.69 99.3701H173.49V102.17H172.69Z" fill="#0B0B0B"/>
<path id="Vector_26" d="M158.56 55.23H157.56C156.545 55.2326 155.572 55.637 154.855 56.3547C154.137 57.0724 153.733 58.0451 153.73 59.0601V68H162.35V59.0601C162.347 58.052 161.949 57.0852 161.24 56.3687C160.53 55.6521 159.568 55.2431 158.56 55.23Z" fill="#0B0B0B"/>
<path id="Vector_27" d="M169.29 24.3301H168.68C167.36 24.3301 166.27 26.0599 166.27 28.1699V37.1101H171.7V28.1699C171.7 26.0599 170.61 24.3301 169.29 24.3301Z" fill="#0B0B0B"/>
<path id="Vector_28" d="M155.74 22.5801L134.25 44.0701C134.088 44.2284 133.96 44.4173 133.872 44.626C133.784 44.8346 133.739 45.0586 133.739 45.2849C133.739 45.5113 133.784 45.7355 133.872 45.9441C133.96 46.1527 134.088 46.3417 134.25 46.5L134.38 46.6299C134.702 46.9517 135.139 47.1326 135.595 47.1326C136.051 47.1326 136.488 46.9517 136.81 46.6299L155.88 27.5701C156.075 27.3693 156.308 27.2096 156.566 27.1006C156.823 26.9916 157.1 26.9353 157.38 26.9353C157.66 26.9353 157.937 26.9916 158.194 27.1006C158.452 27.2096 158.685 27.3693 158.88 27.5701L177.94 46.6299C178.264 46.9523 178.703 47.1333 179.16 47.1333C179.617 47.1333 180.056 46.9523 180.38 46.6299L180.51 46.5C180.832 46.1775 181.013 45.7405 181.013 45.2849C181.013 44.8293 180.832 44.3925 180.51 44.0701L159 22.5801C158.567 22.149 157.981 21.9067 157.37 21.9067C156.759 21.9067 156.173 22.149 155.74 22.5801Z" fill="#0B0B0B"/>
<path id="Vector_29" d="M157.76 50.75C160.317 50.75 162.39 48.6772 162.39 46.1201C162.39 43.563 160.317 41.49 157.76 41.49C155.203 41.49 153.13 43.563 153.13 46.1201C153.13 48.6772 155.203 50.75 157.76 50.75Z" fill="#0B0B0B"/>
<path id="Vector_30" d="M184.1 66.3999H148.66C147.776 66.3999 147.06 67.1142 147.06 67.9951C147.06 68.876 147.776 69.5901 148.66 69.5901H184.1C184.984 69.5901 185.7 68.876 185.7 67.9951C185.7 67.1142 184.984 66.3999 184.1 66.3999Z" fill="#0B0B0B"/>
<path id="Vector_31" d="M231.1 28.3999H195.66C194.776 28.3999 194.06 29.1142 194.06 29.9951C194.06 30.876 194.776 31.5901 195.66 31.5901H231.1C231.984 31.5901 232.7 30.876 232.7 29.9951C232.7 29.1142 231.984 28.3999 231.1 28.3999Z" fill="#0B0B0B"/>
<path id="Vector_32" d="M169.14 70.4999L143.46 104.9C143.221 105.247 142.854 105.486 142.44 105.562C142.025 105.639 141.597 105.548 141.25 105.31C140.901 105.076 140.658 104.713 140.576 104.301C140.493 103.888 140.578 103.46 140.81 103.11L166.49 68.7199C166.607 68.5471 166.758 68.3992 166.932 68.2845C167.107 68.1699 167.303 68.0909 167.508 68.0519C167.713 68.0129 167.924 68.0147 168.129 68.0573C168.333 68.0998 168.527 68.1823 168.7 68.2999C168.874 68.4149 169.024 68.5631 169.14 68.7362C169.256 68.9093 169.337 69.1037 169.378 69.3082C169.419 69.5128 169.419 69.7233 169.378 69.9279C169.337 70.1324 169.256 70.3268 169.14 70.4999Z" fill="#0B0B0B"/>
<path id="Vector_33" d="M183.78 75.6699C183.78 72.3176 181.065 69.6001 177.715 69.6001C174.365 69.6001 171.65 72.3176 171.65 75.6699V98.6599C171.65 102.012 174.365 104.73 177.715 104.73C181.065 104.73 183.78 102.012 183.78 98.6599V75.6699Z" fill="#0B0B0B"/>
<path id="Vector_34" d="M182.35 99.29H172.76C170.91 99.29 169.41 100.79 169.41 102.64V102.65C169.41 104.5 170.91 106 172.76 106H182.35C184.2 106 185.7 104.5 185.7 102.65V102.64C185.7 100.79 184.2 99.29 182.35 99.29Z" fill="#0B0B0B"/>
<path id="Vector_35" d="M168.62 56.1799H168.61C167.113 56.1799 165.9 57.3932 165.9 58.8899V59.54C165.9 61.0367 167.113 62.25 168.61 62.25H168.62C170.117 62.25 171.33 61.0367 171.33 59.54V58.8899C171.33 57.3932 170.117 56.1799 168.62 56.1799Z" fill="#0B0B0B"/>
<path id="Vector_36" d="M76 52C80.9706 52 85 49.3137 85 46C85 42.6863 80.9706 40 76 40C71.0294 40 67 42.6863 67 46C67 49.3137 71.0294 52 76 52Z" fill="#0B0B0B"/>
<path id="Vector_37" d="M55 0H12C5.37258 0 0 5.37258 0 12V128C0 134.627 5.37258 140 12 140H55C61.6274 140 67 134.627 67 128V12C67 5.37258 61.6274 0 55 0Z" fill="#0B0B0B"/>
<path id="Vector_38" d="M222 31.3301H205C198.373 31.3301 193 36.7027 193 43.3301V105C193 111.627 198.373 117 205 117H222C228.627 117 234 111.627 234 105V43.3301C234 36.7027 228.627 31.3301 222 31.3301Z" fill="#0B0B0B"/>
<path id="Vector_39" d="M84 51H50C43.3726 51 38 56.3726 38 63V114C38 120.627 43.3726 126 50 126H84C90.6274 126 96 120.627 96 114V63C96 56.3726 90.6274 51 84 51Z" fill="#0B0B0B"/>
<path id="Vector_40" d="M251 76H217C210.373 76 205 81.3726 205 88V139C205 145.627 210.373 151 217 151H251C257.627 151 263 145.627 263 139V88C263 81.3726 257.627 76 251 76Z" fill="#0B0B0B"/>
<path id="Vector_41" d="M153 74H98C91.3726 74 86 79.3726 86 86V117C86 123.627 91.3726 129 98 129H153C159.627 129 165 123.627 165 117V86C165 79.3726 159.627 74 153 74Z" fill="#0B0B0B"/>
</g>
</svg>
