<svg width="610" height="831" viewBox="0 0 610 831" fill="none" xmlns="http://www.w3.org/2000/svg">
<g id="bgCakesRdmp">
<g id="bgCake3Rdmp">
<path id="Vector" d="M361.09 736.65C361.09 737.02 361.09 737.39 361.09 737.76C361.46 742.98 360.09 744.9 354.4 747.11C348.31 749.5 342.09 751.56 335.91 753.68C330.535 755.603 325.06 757.236 319.51 758.57C310.2 760.68 300.86 762.69 291.51 764.8C290.928 764.964 290.311 764.957 289.733 764.779C289.155 764.602 288.64 764.262 288.25 763.8C287.912 763.408 287.726 762.908 287.726 762.39C287.726 761.872 287.912 761.372 288.25 760.98C288.83 760.2 288.48 759.6 288.16 758.98C285.39 753.4 284.28 747.31 282.82 741.33C282.747 740.787 282.602 740.256 282.39 739.75C279.28 734.34 278.68 728.44 278.94 722.37C278.975 722.001 278.975 721.629 278.94 721.26C278.31 716.9 280.37 713.43 282.53 709.94C283.162 708.924 284.138 708.168 285.28 707.81C288.59 706.64 292.02 705.94 295.41 705.11C296.77 704.78 297.29 704.16 297.27 702.85C297.27 701.19 297.27 699.53 297.27 697.85C297 690.26 299.47 683.36 302.61 676.64C303.76 674.2 305.36 672.37 308.31 671.97C309.211 671.922 310.114 672.027 310.98 672.28C313.603 672.84 316.013 674.134 317.93 676.01C320.17 678.01 322.56 679.94 324.66 682.17C328.248 685.764 330.982 690.117 332.66 694.91C333.37 697.09 333.41 697.11 335.79 696.66C340.12 695.85 344.44 695.01 348.79 694.38C353.92 693.64 356.92 696.49 358.13 700.15C358.98 702.73 359.13 705.55 359.51 708.26C360.13 712.26 359.36 716.39 360.44 720.35C360.461 720.533 360.461 720.717 360.44 720.9C360.331 726.158 360.548 731.418 361.09 736.65V736.65Z" fill="#F9F0F0"/>
<path id="Vector_2" d="M344.69 699.39C347.202 699.294 349.687 699.945 351.83 701.26C352.559 701.661 353.178 702.237 353.631 702.934C354.085 703.632 354.359 704.431 354.43 705.26C354.7 708.11 355.1 710.94 355.43 713.78C355.65 715.6 355.43 717.25 353.87 718.52C352.31 719.79 351.62 721.63 350.98 723.52C350.798 724.241 350.449 724.909 349.96 725.47C349.472 726.031 348.859 726.47 348.17 726.75C346.34 727.4 345.31 727.08 344.64 725.29C344.099 723.721 343.665 722.117 343.34 720.49C342.896 718.109 341.697 715.935 339.92 714.29C337.28 711.97 334.06 711.88 331 713.9C328.476 715.623 326.415 717.941 325 720.65C323.52 723.32 322.56 726.23 321 728.87C318.32 733.4 316.13 734.07 311.51 731.54C310.23 730.793 309.054 729.882 308.01 728.83C305.32 726.27 302.49 725.83 299.13 727.44C296.456 728.721 294.052 730.503 292.05 732.69C291.29 733.5 290.54 734.33 289.72 735.07C287.77 736.84 286.53 736.62 285.06 734.36C283.33 731.594 282.606 728.317 283.01 725.08C283.22 722.61 283.63 720.15 284.06 717.7C284.272 716.176 284.947 714.754 285.993 713.626C287.039 712.497 288.406 711.717 289.91 711.39C300.08 708.74 310.29 706.3 320.63 704.39C327.25 703.18 333.77 701.46 340.32 699.9C341.75 699.552 343.218 699.381 344.69 699.39V699.39Z" fill="#FF7C7C"/>
<path id="Vector_3" d="M290.18 754.65C288.99 752.21 288.97 749.49 288.44 746.9C288.392 746.077 288.202 745.269 287.88 744.51C287.693 744.269 287.566 743.987 287.51 743.687C287.453 743.387 287.468 743.078 287.554 742.786C287.64 742.493 287.794 742.224 288.004 742.003C288.213 741.781 288.473 741.612 288.76 741.51C291.54 739.96 293.68 737.69 295.97 735.51C297.69 733.89 299.42 732.25 301.82 731.51C302.312 731.264 302.875 731.198 303.41 731.324C303.945 731.45 304.42 731.76 304.75 732.2C307.29 735.27 310.75 736.61 314.49 737.52C319.24 738.66 323.21 736.41 325.35 732.52C326.14 731.058 326.732 729.498 327.11 727.88C328.008 724.28 330.008 721.049 332.83 718.64C335.34 716.35 337.43 716.98 338.29 720.26C338.835 722.673 339.503 725.056 340.29 727.4C342.29 732.77 348.05 732.4 351.41 730.56C352.815 729.836 353.914 728.634 354.51 727.17C354.775 726.235 355.307 725.398 356.04 724.76C357.2 726.59 356.44 728.55 356.67 730.38C356.9 732.21 357.43 734.17 357.22 736.13C357.204 736.588 357.043 737.029 356.76 737.39C355.911 738.121 354.869 738.593 353.76 738.75C333.88 743.75 314.17 749.52 294.22 754.31C292.91 754.63 291.59 755.33 290.18 754.65Z" fill="#FDEAEA"/>
<path id="Vector_4" d="M301.77 698.86C301.933 691.896 303.67 685.058 306.85 678.86C307.98 676.51 308.85 676.23 311.26 677.24C311.612 677.37 311.948 677.541 312.26 677.75C319.01 682.75 325.01 688.41 328.55 696.26C328.92 697.08 328.55 697.43 328.05 697.86C327.586 698.159 327.052 698.332 326.5 698.36C318.97 699.79 311.43 701.13 303.96 702.85C301.96 703.31 301.96 703.25 301.82 701.31C301.82 701.03 301.82 700.75 301.82 700.47C301.77 700 301.77 699.41 301.77 698.86Z" fill="#B42323"/>
<path id="Vector_5" d="M356.68 736.79L357.21 736.13C358.31 737.83 357.67 739.7 357.67 741.49C357.67 742.49 356.67 742.65 355.87 742.94C353.52 743.78 351.05 744.09 348.66 744.76C341.66 746.7 334.66 748.87 327.83 751.22C320.67 753.67 313.24 754.91 305.92 756.64C302.16 757.53 298.38 758.29 294.61 759.12C291.96 759.7 291.88 759.67 290.69 757.12C296.69 755.06 302.96 753.72 309.1 752.04C323.64 748.04 338.2 744.15 352.78 740.37C354.69 739.82 356.66 739.38 356.68 736.79Z" fill="#FDEAEA"/>
<path id="Vector_6" d="M356.68 736.79C357.86 739.28 357.68 739.79 355.25 740.41C345.75 742.97 336.24 745.51 326.72 748.03C315.687 750.97 304.663 753.917 293.65 756.87C292.706 757.294 291.642 757.365 290.65 757.07L290.14 754.65L342 741.14C346.453 739.967 350.893 738.773 355.32 737.56C355.857 737.491 356.345 737.215 356.68 736.79V736.79Z" fill="#C75A5A"/>
<path id="Vector_7" d="M315.46 727.43C315.449 727.52 315.42 727.606 315.374 727.684C315.329 727.762 315.267 727.829 315.194 727.882C315.12 727.935 315.037 727.972 314.948 727.99C314.86 728.009 314.768 728.009 314.68 727.99C314.499 727.972 314.331 727.884 314.215 727.743C314.099 727.602 314.043 727.422 314.06 727.24C314.06 726.75 314.46 726.69 314.83 726.71C314.919 726.715 315.006 726.738 315.086 726.777C315.166 726.816 315.238 726.871 315.296 726.938C315.355 727.005 315.4 727.083 315.428 727.168C315.456 727.252 315.467 727.341 315.46 727.43V727.43Z" fill="#F4CCCC"/>
<path id="Vector_8" d="M290.91 722.5C290.776 722.5 290.647 722.45 290.549 722.359C290.45 722.268 290.39 722.143 290.38 722.01C290.369 721.922 290.375 721.833 290.399 721.748C290.423 721.663 290.464 721.584 290.519 721.515C290.574 721.446 290.642 721.389 290.72 721.347C290.797 721.305 290.882 721.279 290.97 721.27C291.37 721.2 291.67 721.42 291.62 721.84C291.595 722.015 291.511 722.175 291.382 722.296C291.253 722.416 291.086 722.488 290.91 722.5V722.5Z" fill="#F7BDBD"/>
<path id="Vector_9" d="M291.06 727.85C290.98 728.14 290.79 728.28 290.52 728.18C290.455 728.135 290.403 728.075 290.366 728.006C290.33 727.936 290.31 727.859 290.31 727.78C290.311 727.719 290.328 727.66 290.358 727.606C290.388 727.553 290.43 727.509 290.482 727.476C290.533 727.443 290.592 727.424 290.653 727.419C290.713 727.415 290.774 727.425 290.83 727.45C290.94 727.48 291 727.71 291.06 727.85Z" fill="#F6C4C4"/>
<path id="Vector_10" d="M318.18 723.25C318.12 723.37 318.1 723.59 317.99 723.65C317.939 723.684 317.88 723.705 317.819 723.711C317.758 723.717 317.697 723.708 317.64 723.684C317.584 723.66 317.534 723.623 317.496 723.575C317.457 723.527 317.431 723.47 317.42 723.41C317.413 723.332 317.425 723.253 317.457 723.182C317.488 723.11 317.538 723.047 317.6 723C317.653 722.969 317.713 722.95 317.774 722.946C317.836 722.942 317.897 722.953 317.954 722.977C318.01 723.002 318.06 723.039 318.1 723.087C318.139 723.134 318.167 723.19 318.18 723.25V723.25Z" fill="#F5C6C6"/>
<path id="Vector_11" d="M319.19 688.26C318.99 688.75 319.05 689.52 318.19 689.26C317.68 689.11 317.65 688.55 317.7 688.09C317.75 687.63 317.98 687.18 318.57 687.25C319.16 687.32 319.29 687.78 319.19 688.26Z" fill="#E7B3B3"/>
<path id="Vector_12" d="M316.9 695.41C317.076 695.412 317.246 695.474 317.381 695.587C317.516 695.7 317.608 695.857 317.64 696.03C317.661 696.139 317.66 696.251 317.636 696.359C317.611 696.468 317.565 696.57 317.499 696.659C317.433 696.749 317.35 696.823 317.253 696.878C317.157 696.934 317.05 696.968 316.94 696.98C316.763 696.994 316.587 696.938 316.451 696.824C316.314 696.71 316.228 696.547 316.21 696.37C316.191 696.262 316.195 696.151 316.219 696.043C316.244 695.936 316.29 695.835 316.354 695.746C316.418 695.656 316.5 695.581 316.593 695.523C316.687 695.465 316.791 695.427 316.9 695.41V695.41Z" fill="#E3B3B3"/>
<path id="Vector_13" d="M308.65 697.52C308.96 698.28 308.65 698.4 308.41 698.46C308.306 698.507 308.193 698.531 308.078 698.529C307.964 698.527 307.851 698.5 307.749 698.449C307.647 698.399 307.557 698.326 307.486 698.236C307.415 698.146 307.365 698.042 307.34 697.93C307.321 697.863 307.316 697.793 307.326 697.725C307.337 697.656 307.362 697.591 307.4 697.533C307.438 697.475 307.488 697.426 307.546 697.389C307.605 697.353 307.671 697.329 307.74 697.32C307.894 697.254 308.064 697.238 308.227 697.274C308.39 697.31 308.538 697.396 308.65 697.52V697.52Z" fill="#E7BEBE"/>
<path id="Vector_14" d="M325 695.1C324.93 695.52 325 696.03 324.36 696.1C324.185 696.123 324.008 696.076 323.868 695.969C323.728 695.862 323.635 695.705 323.61 695.53C323.47 694.86 323.92 694.6 324.48 694.47C324.81 694.54 324.86 694.86 325 695.1Z" fill="#E9C2C2"/>
<path id="Vector_15" d="M313 692.78C313.07 693.1 312.86 693.26 312.61 693.34C312.534 693.377 312.451 693.396 312.366 693.394C312.282 693.393 312.199 693.371 312.124 693.331C312.05 693.291 311.986 693.233 311.939 693.164C311.891 693.094 311.86 693.014 311.85 692.93C311.76 692.62 311.99 692.45 312.23 692.36C312.67 692.21 312.91 692.42 313 692.78Z" fill="#EED2D2"/>
<path id="Vector_16" d="M314.56 686.48C314.83 686.48 314.99 686.79 315.03 687.14C315.046 687.225 315.043 687.313 315.023 687.397C315.003 687.482 314.965 687.561 314.912 687.629C314.859 687.698 314.793 687.755 314.717 687.797C314.64 687.838 314.556 687.863 314.47 687.87C314.01 687.93 313.84 687.61 313.82 687.25C313.8 686.89 313.94 686.56 314.56 686.48Z" fill="#E0ABAB"/>
<path id="Vector_17" d="M325 695.1L324.48 694.46C324.55 694.04 324.64 693.37 325.18 693.7C325.72 694.03 325.11 694.63 325 695.1Z" fill="#C04646"/>
<path id="Vector_18" d="M309.85 685.08C309.76 684.76 309.59 684.94 309.34 685.08C309.222 685.139 309.085 685.149 308.96 685.108C308.834 685.067 308.73 684.978 308.67 684.86C308.628 684.785 308.606 684.701 308.607 684.615C308.608 684.529 308.631 684.445 308.675 684.371C308.719 684.297 308.781 684.236 308.855 684.194C308.93 684.152 309.014 684.129 309.1 684.13C309.36 684 309.59 684.17 309.85 685.08Z" fill="#EACFCF"/>
<path id="Vector_19" d="M312.32 682.22C311.97 682.28 311.83 682.06 311.75 681.79C311.67 681.52 311.89 681.3 312.17 681.25C312.45 681.2 312.66 681.4 312.74 681.68C312.82 681.96 312.58 682.13 312.32 682.22Z" fill="#E9C1C1"/>
<path id="Vector_20" d="M305.67 695C305.93 695.08 306.16 695.21 306.04 695.53C306.021 695.591 305.99 695.646 305.948 695.694C305.907 695.742 305.856 695.781 305.798 695.808C305.741 695.836 305.679 695.851 305.615 695.853C305.552 695.855 305.489 695.844 305.43 695.82C305.36 695.775 305.301 695.715 305.258 695.644C305.215 695.573 305.188 695.493 305.18 695.41C305.15 695.1 305.37 695 305.67 695Z" fill="#EDCBCB"/>
<path id="Vector_21" d="M308.29 689C307.69 688.61 307.7 688.21 308.29 687.81C308.398 687.747 308.52 687.713 308.645 687.713C308.77 687.713 308.892 687.747 309 687.81C309.132 687.984 309.204 688.197 309.204 688.415C309.204 688.634 309.132 688.846 309 689.02V689.02C308.893 689.087 308.768 689.121 308.642 689.117C308.516 689.114 308.393 689.073 308.29 689Z" fill="#E1A9A9"/>
<path id="Vector_22" d="M314.66 682.9C314.73 683.12 314.66 683.24 314.42 683.24C314.331 683.229 314.25 683.186 314.19 683.12C314.05 682.96 314.05 682.75 314.24 682.68C314.43 682.61 314.52 682.82 314.66 682.9Z" fill="#BB3939"/>
<path id="Vector_23" d="M309.83 697.12C309.83 697.19 309.92 697.26 309.9 697.32C309.88 697.38 309.73 697.55 309.62 697.32C309.51 697.09 309.62 697.17 309.62 697.11C309.62 697.05 309.77 697.13 309.83 697.12Z" fill="#BE4242"/>
<path id="Vector_24" d="M309 689C309 688.6 309 688.2 309 687.79C309.64 688.2 309.58 688.61 309 689Z" fill="#E2A4A4"/>
<path id="Vector_25" d="M308.29 689H309C308.75 689.39 308.52 689.31 308.29 689Z" fill="#E2A4A4"/>
<path id="Vector_26" d="M309 687.8H308.29C308.52 687.48 308.75 687.41 309 687.8Z" fill="#E2A4A4"/>
</g>
<g id="bgCake2Rdmp">
<path id="Vector_27" d="M122.49 492.44C122.26 492.73 122 493 121.79 493.31C118.79 497.59 116.48 498.19 110.7 496.36C104.47 494.36 98.34 492.09 92.2 489.84C86.8119 487.952 81.5278 485.779 76.37 483.33C67.8 479.11 59.28 474.81 50.72 470.59C50.1652 470.357 49.6881 469.971 49.3446 469.477C49.001 468.983 48.8052 468.401 48.78 467.8C48.7619 467.282 48.9308 466.775 49.2558 466.371C49.5807 465.967 50.0401 465.693 50.55 465.6C51.49 465.36 51.55 464.68 51.76 463.96C53.11 457.87 56.09 452.45 58.71 446.88C58.9956 446.412 59.2176 445.907 59.37 445.38C60.37 439.22 63.6 434.26 67.62 429.7C67.8747 429.431 68.1055 429.14 68.31 428.83C70.56 425.05 74.31 423.64 78.22 422.29C79.3496 421.888 80.5875 421.913 81.7 422.36C84.9599 423.621 88.154 425.046 91.27 426.63C92.54 427.22 93.33 427.08 94.13 426.04C95.13 424.73 96.26 423.48 97.26 422.16C101.82 416.08 108.08 412.27 114.75 409.03C117.18 407.85 119.58 407.43 122.12 408.98C122.853 409.506 123.49 410.156 124 410.9C125.693 412.982 126.755 415.504 127.06 418.17C127.51 421.17 128.19 424.17 128.42 427.17C128.962 432.24 128.357 437.366 126.65 442.17C125.83 444.31 125.86 444.36 127.99 445.5C131.87 447.59 135.75 449.65 139.53 451.91C143.99 454.57 144.53 458.66 143.17 462.27C142.17 464.81 140.52 467.07 139.17 469.44C137.17 472.97 133.94 475.66 132.29 479.44C132.208 479.606 132.1 479.758 131.97 479.89C128.556 483.876 125.391 488.067 122.49 492.44V492.44Z" fill="#F9F0F0"/>
<path id="Vector_28" d="M133.17 453.16C135.188 454.658 136.71 456.728 137.54 459.1C137.86 459.871 137.981 460.709 137.894 461.538C137.807 462.368 137.513 463.163 137.04 463.85C135.46 466.24 134.04 468.69 132.47 471.11C131.47 472.67 130.3 473.82 128.27 473.82C126.24 473.82 124.57 474.82 122.91 475.82C122.315 476.264 121.624 476.562 120.893 476.69C120.162 476.819 119.411 476.774 118.7 476.56C116.87 475.92 116.26 475.02 116.87 473.21C117.433 471.65 118.102 470.13 118.87 468.66C120.025 466.52 120.46 464.066 120.11 461.66C119.52 458.19 117.11 456.1 113.42 455.74C110.369 455.485 107.301 455.986 104.49 457.2C101.66 458.35 99.09 460.01 96.22 461.08C91.28 462.91 89.16 462.08 87.15 457.18C86.6312 455.796 86.295 454.35 86.15 452.88C85.66 449.19 83.73 447.1 80.15 446.21C77.2643 445.523 74.2733 445.397 71.34 445.84C70.24 445.99 69.14 446.17 68.04 446.23C65.4 446.38 64.58 445.42 64.86 442.75C65.2567 439.511 66.7535 436.507 69.1 434.24C70.82 432.45 72.69 430.79 74.57 429.16C75.6901 428.131 77.0974 427.469 78.6037 427.262C80.1101 427.055 81.6438 427.312 83 428C92.58 432.33 102 436.85 111.28 441.89C117.19 445.11 123.34 447.89 129.41 450.78C130.759 451.41 132.023 452.21 133.17 453.16Z" fill="#FF7C7C"/>
<path id="Vector_29" d="M56 461.84C56.61 459.19 58.3 457.06 59.52 454.71C60.0041 454.042 60.3663 453.294 60.59 452.5C60.5979 452.197 60.6773 451.9 60.8219 451.634C60.9664 451.368 61.1719 451.14 61.4216 450.968C61.6713 450.796 61.9581 450.686 62.2585 450.647C62.5589 450.607 62.8644 450.639 63.15 450.74C66.28 451.28 69.39 450.86 72.51 450.63C74.87 450.45 77.24 450.26 79.59 451.19C80.1258 451.307 80.6035 451.608 80.9398 452.041C81.2761 452.475 81.4496 453.012 81.43 453.56C81.43 457.56 83.31 460.76 85.66 463.83C88.66 467.7 93.13 468.44 97.26 466.75C98.7962 466.114 100.239 465.273 101.55 464.25C104.509 462.014 108.093 460.759 111.8 460.66C115.2 460.47 116.42 462.26 115.03 465.36C113.93 467.573 112.949 469.843 112.09 472.16C110.27 477.6 114.99 480.9 118.74 481.62C120.287 481.932 121.895 481.688 123.28 480.93C124.076 480.36 125.022 480.037 126 480C125.75 482.14 123.93 483.19 122.95 484.76C122.083 486.483 121.016 488.098 119.77 489.57C119.471 489.92 119.068 490.165 118.62 490.27C117.502 490.304 116.398 490.016 115.44 489.44C96.81 480.85 77.89 472.91 59.36 464.1C58.17 463.54 56.71 463.26 56 461.84Z" fill="#FDEAEA"/>
<path id="Vector_30" d="M100.14 425.75C104.641 420.456 110.277 416.245 116.63 413.43C118.99 412.32 119.88 412.68 121.08 414.95C121.263 415.266 121.41 415.602 121.52 415.95C123.62 424.09 124.73 432.26 122.52 440.59C122.3 441.46 121.81 441.52 121.14 441.52C120.588 441.458 120.061 441.255 119.61 440.93C112.86 437.31 106.15 433.61 99.26 430.25C97.43 429.35 97.46 429.25 98.57 427.7C98.73 427.47 98.9 427.26 99.07 427.04L100.14 425.75Z" fill="#B42323"/>
<path id="Vector_31" d="M119 489.78L119.83 489.59C119.61 491.59 117.94 492.66 116.83 494.05C116.19 494.83 115.32 494.33 114.53 494.05C112.17 493.22 110.05 491.91 107.77 490.92C101.1 488.02 94.34 485.35 87.52 482.85C80.41 480.25 73.85 476.54 67.07 473.28C63.59 471.61 60.18 469.82 56.72 468.1C54.3 466.88 54.25 466.81 54.96 464.04C60.96 466.23 66.64 469.11 72.47 471.67C86.2767 477.717 100.043 483.85 113.77 490.07C115.52 490.88 117.33 491.77 119 489.78Z" fill="#FDEAEA"/>
<path id="Vector_32" d="M119 489.78C118.35 492.46 117.95 492.73 115.62 491.69C106.62 487.69 97.62 483.69 88.62 479.69C78.2 475.023 67.7767 470.38 57.35 465.76C56.3645 465.499 55.5034 464.896 54.92 464.06L56.05 461.86C72.3034 469.193 88.5534 476.527 104.8 483.86C108.987 485.753 113.187 487.617 117.4 489.45C117.628 489.614 117.889 489.729 118.165 489.786C118.441 489.843 118.725 489.841 119 489.78Z" fill="#C75A5A"/>
<path id="Vector_33" d="M92.81 456.58C92.743 456.647 92.6626 456.699 92.5741 456.733C92.4856 456.766 92.391 456.78 92.2965 456.775C92.202 456.769 92.1098 456.743 92.0259 456.7C91.9421 456.656 91.8685 456.595 91.81 456.52C91.7434 456.455 91.6906 456.377 91.6545 456.291C91.6184 456.206 91.5999 456.113 91.5999 456.02C91.5999 455.927 91.6184 455.835 91.6545 455.749C91.6906 455.663 91.7434 455.585 91.81 455.52C92.13 455.16 92.47 455.35 92.74 455.6C92.8132 455.657 92.8736 455.728 92.9173 455.81C92.961 455.892 92.987 455.982 92.9936 456.075C93.0002 456.167 92.9873 456.26 92.9556 456.347C92.924 456.434 92.8744 456.514 92.81 456.58V456.58Z" fill="#F4CCCC"/>
<path id="Vector_34" d="M76.83 437.3C76.7251 437.215 76.6557 437.095 76.6353 436.961C76.615 436.828 76.6452 436.692 76.72 436.58C76.7668 436.506 76.8278 436.442 76.8996 436.392C76.9714 436.341 77.0524 436.306 77.1381 436.287C77.2237 436.268 77.3122 436.267 77.3984 436.283C77.4846 436.299 77.5667 436.332 77.64 436.38C77.724 436.409 77.7986 436.461 77.8561 436.529C77.9136 436.596 77.952 436.678 77.9673 436.766C77.9826 436.854 77.9742 436.944 77.9431 437.027C77.9119 437.11 77.8591 437.184 77.79 437.24C77.6615 437.359 77.4957 437.43 77.3207 437.441C77.1458 437.452 76.9724 437.402 76.83 437.3V437.3Z" fill="#F7BDBD"/>
<path id="Vector_35" d="M73.57 441.55C73.5278 441.594 73.476 441.627 73.4187 441.647C73.3614 441.667 73.3002 441.673 73.24 441.665C73.1798 441.658 73.1222 441.636 73.0719 441.602C73.0215 441.568 72.9798 441.523 72.95 441.47C72.9258 441.396 72.9204 441.317 72.9343 441.24C72.9483 441.163 72.9812 441.091 73.03 441.03C73.0704 440.984 73.1214 440.948 73.1786 440.926C73.2357 440.904 73.2974 440.896 73.3583 440.903C73.4192 440.91 73.4776 440.931 73.5284 440.966C73.5792 441 73.6209 441.046 73.65 441.1C73.71 441.2 73.61 441.4 73.57 441.55Z" fill="#F6C4C4"/>
<path id="Vector_36" d="M97.5501 455C97.4301 455.06 97.28 455.21 97.15 455.19C97.0896 455.185 97.0314 455.164 96.981 455.131C96.9305 455.097 96.8894 455.051 96.8615 454.997C96.8335 454.943 96.8197 454.883 96.8212 454.823C96.8227 454.762 96.8395 454.702 96.87 454.65C96.9134 454.586 96.9715 454.534 97.0394 454.497C97.1073 454.461 97.183 454.441 97.26 454.44C97.3219 454.447 97.3811 454.469 97.4324 454.505C97.4837 454.54 97.5255 454.588 97.5542 454.643C97.5828 454.698 97.5974 454.76 97.5967 454.822C97.596 454.884 97.58 454.945 97.5501 455V455Z" fill="#F5C6C6"/>
<path id="Vector_37" d="M120.34 428.47C119.88 428.73 119.44 429.36 118.96 428.66C118.65 428.22 118.96 427.77 119.31 427.45C119.66 427.13 120.1 426.91 120.51 427.34C120.92 427.77 120.73 428.16 120.34 428.47Z" fill="#E7B3B3"/>
<path id="Vector_38" d="M114.07 432.58C114.216 432.696 114.316 432.861 114.351 433.045C114.385 433.228 114.353 433.418 114.26 433.58C114.206 433.677 114.133 433.762 114.046 433.831C113.958 433.899 113.858 433.949 113.751 433.978C113.643 434.007 113.531 434.014 113.421 433.999C113.311 433.984 113.205 433.947 113.11 433.89C113.031 433.838 112.962 433.77 112.91 433.691C112.858 433.611 112.822 433.522 112.805 433.429C112.788 433.335 112.791 433.239 112.812 433.146C112.834 433.054 112.874 432.966 112.93 432.89C113.043 432.7 113.225 432.562 113.437 432.505C113.65 432.447 113.877 432.474 114.07 432.58V432.58Z" fill="#E3B3B3"/>
<path id="Vector_39" d="M106.33 429C106.1 429.78 105.77 429.68 105.55 429.58C105.441 429.55 105.34 429.496 105.253 429.423C105.167 429.35 105.097 429.258 105.05 429.156C105.002 429.053 104.978 428.941 104.978 428.828C104.978 428.715 105.002 428.603 105.05 428.5C105.078 428.436 105.118 428.379 105.169 428.331C105.221 428.284 105.281 428.248 105.347 428.225C105.413 428.202 105.483 428.194 105.552 428.2C105.622 428.206 105.689 428.226 105.75 428.26C105.91 428.31 106.051 428.408 106.155 428.54C106.258 428.672 106.32 428.832 106.33 429V429Z" fill="#E7BEBE"/>
<path id="Vector_40" d="M120.56 437.44C120.24 437.72 119.95 438.14 119.44 437.81C119.291 437.715 119.185 437.566 119.144 437.395C119.103 437.223 119.13 437.042 119.22 436.89C119.53 436.28 120.04 436.36 120.56 436.61C120.77 436.89 120.6 437.16 120.56 437.44Z" fill="#E9C2C2"/>
<path id="Vector_41" d="M112.72 428.11C112.693 428.168 112.654 428.219 112.605 428.261C112.557 428.303 112.5 428.335 112.439 428.353C112.378 428.372 112.314 428.378 112.25 428.371C112.186 428.363 112.125 428.342 112.07 428.31C111.988 428.289 111.911 428.249 111.846 428.193C111.782 428.138 111.731 428.068 111.698 427.99C111.665 427.911 111.651 427.826 111.656 427.741C111.662 427.656 111.687 427.573 111.73 427.5C111.86 427.21 112.15 427.22 112.39 427.3C112.79 427.44 112.85 427.75 112.72 428.11Z" fill="#EED2D2"/>
<path id="Vector_42" d="M117.86 424.17C118.09 424.33 118.01 424.68 117.81 424.98C117.77 425.056 117.715 425.122 117.647 425.175C117.579 425.228 117.501 425.265 117.418 425.285C117.334 425.305 117.248 425.307 117.164 425.29C117.079 425.274 117 425.24 116.93 425.19C116.53 424.95 116.59 424.6 116.81 424.3C116.866 424.217 116.939 424.146 117.025 424.094C117.11 424.041 117.206 424.008 117.305 423.995C117.405 423.983 117.506 423.992 117.602 424.022C117.697 424.052 117.785 424.103 117.86 424.17V424.17Z" fill="#E0ABAB"/>
<path id="Vector_43" d="M120.56 437.44V436.61C120.88 436.33 121.37 435.86 121.56 436.46C121.75 437.06 121 437.14 120.56 437.44Z" fill="#C04646"/>
<path id="Vector_44" d="M115.08 420.12C115.22 419.82 114.98 419.84 114.72 419.76C114.591 419.731 114.479 419.654 114.406 419.544C114.333 419.434 114.306 419.3 114.33 419.17C114.343 419.084 114.379 419.003 114.434 418.936C114.489 418.868 114.561 418.816 114.642 418.786C114.724 418.755 114.812 418.747 114.897 418.762C114.983 418.777 115.063 418.814 115.13 418.87C115.36 419 115.45 419.25 115.08 420.12Z" fill="#EACFCF"/>
<path id="Vector_45" d="M118.8 419.45C118.5 419.28 118.52 419.02 118.63 418.76C118.74 418.5 119.05 418.47 119.3 418.6C119.55 418.73 119.58 419.03 119.47 419.29C119.36 419.55 119.06 419.54 118.8 419.45Z" fill="#E9C1C1"/>
<path id="Vector_46" d="M105.59 425.21C105.74 425.44 105.84 425.68 105.54 425.85C105.488 425.886 105.429 425.91 105.367 425.921C105.304 425.932 105.241 425.93 105.179 425.915C105.118 425.9 105.061 425.872 105.011 425.833C104.961 425.795 104.92 425.746 104.89 425.69C104.86 425.613 104.85 425.53 104.861 425.448C104.871 425.366 104.902 425.287 104.95 425.22C105.13 425 105.37 425 105.59 425.21Z" fill="#EDCBCB"/>
<path id="Vector_47" d="M111.4 422.18C111.19 421.5 111.4 421.18 112.15 421.25C112.276 421.266 112.394 421.317 112.493 421.396C112.592 421.476 112.667 421.581 112.71 421.7V421.7C112.693 421.917 112.611 422.123 112.473 422.291C112.335 422.459 112.149 422.581 111.94 422.64V422.64C111.815 422.624 111.698 422.572 111.602 422.49C111.506 422.408 111.436 422.301 111.4 422.18Z" fill="#E1A9A9"/>
<path id="Vector_48" d="M120.2 421.45C120.12 421.67 119.98 421.71 119.8 421.56C119.738 421.498 119.699 421.417 119.69 421.33C119.69 421.12 119.82 420.95 120 421.02C120.18 421.09 120.14 421.3 120.2 421.45Z" fill="#BB3939"/>
<path id="Vector_49" d="M107.5 429.47C107.5 429.54 107.5 429.63 107.43 429.67C107.36 429.71 107.15 429.74 107.18 429.53C107.18 429.48 107.27 429.41 107.34 429.4C107.41 429.39 107.44 429.44 107.5 429.47Z" fill="#BE4242"/>
<path id="Vector_50" d="M111.93 422.62L112.7 421.68C113 422.42 112.66 422.69 111.93 422.62Z" fill="#E2A4A4"/>
<path id="Vector_51" d="M111.4 422.18L111.95 422.62C111.52 422.78 111.39 422.57 111.4 422.18Z" fill="#E2A4A4"/>
<path id="Vector_52" d="M112.71 421.7L112.15 421.26C112.54 421.15 112.77 421.24 112.71 421.7Z" fill="#E2A4A4"/>
</g>
<g id="bgCake1Rdmp">
<path id="Vector_53" d="M585 173.4C585.07 173.77 585.11 174.14 585.19 174.49C586.44 179.58 585.37 181.71 580.19 184.85C574.6 188.24 568.83 191.32 563.09 194.46C558.119 197.267 553.002 199.807 547.76 202.07C538.94 205.73 530.09 209.3 521.27 212.96C520.729 213.225 520.123 213.331 519.525 213.263C518.926 213.196 518.359 212.959 517.89 212.58C517.492 212.25 517.225 211.788 517.137 211.278C517.049 210.769 517.146 210.244 517.41 209.8C517.84 208.93 517.41 208.4 516.97 207.8C513.29 202.8 511.16 196.95 508.71 191.31C508.546 190.787 508.311 190.289 508.01 189.83C504.01 185.02 502.44 179.31 501.66 173.29C501.628 172.922 501.565 172.557 501.47 172.2C500.1 168.01 501.54 164.2 503.08 160.43C503.521 159.314 504.358 158.399 505.43 157.86C508.49 156.15 511.75 154.86 514.95 153.48C515.216 153.416 515.466 153.297 515.685 153.133C515.903 152.968 516.086 152.76 516.221 152.522C516.356 152.284 516.44 152.021 516.47 151.749C516.499 151.477 516.472 151.201 516.39 150.94C516.08 149.31 515.87 147.65 515.53 146.03C513.97 138.59 515.23 131.37 517.19 124.21C517.9 121.62 519.19 119.54 522.01 118.65C522.888 118.442 523.795 118.392 524.69 118.5C527.37 118.596 529.967 119.461 532.17 120.99C534.73 122.63 537.41 124.08 539.85 125.91C544.031 128.834 547.5 132.662 550 137.11C551.07 139.11 551.12 139.11 553.39 138.31C557.51 136.77 561.62 135.21 565.82 133.85C570.75 132.25 574.18 134.54 576 137.94C577.28 140.34 577.87 143.11 578.74 145.71C580.04 149.57 579.97 153.71 581.74 157.46C581.809 157.629 581.853 157.808 581.87 157.99C582.598 163.186 583.643 168.332 585 173.4V173.4Z" fill="#F9F0F0"/>
<path id="Vector_54" d="M562.53 139.47C564.992 138.95 567.552 139.169 569.89 140.1C570.68 140.368 571.39 140.83 571.956 141.443C572.522 142.056 572.926 142.801 573.13 143.61C573.88 146.37 574.76 149.09 575.58 151.83C576.1 153.59 576.18 155.25 574.84 156.77C573.5 158.29 573.16 160.22 572.84 162.15C572.785 162.892 572.556 163.611 572.17 164.247C571.784 164.883 571.253 165.419 570.62 165.81C568.93 166.81 567.86 166.62 566.89 164.97C566.097 163.517 565.399 162.014 564.8 160.47C563.958 158.198 562.409 156.255 560.38 154.93C557.38 153.09 554.19 153.56 551.51 156.07C549.308 158.193 547.665 160.828 546.73 163.74C545.73 166.62 545.28 169.65 544.19 172.52C542.31 177.44 540.27 178.47 535.28 176.76C533.896 176.243 532.584 175.547 531.38 174.69C528.29 172.63 525.44 172.69 522.38 174.83C519.961 176.545 517.896 178.711 516.3 181.21C515.69 182.13 515.09 183.07 514.41 183.95C512.78 186.03 511.52 186.01 509.69 184.04C507.521 181.607 506.251 178.505 506.09 175.25C505.88 172.77 505.87 170.25 505.88 167.79C505.829 166.253 506.252 164.737 507.091 163.447C507.929 162.158 509.144 161.157 510.57 160.58C520.14 156.24 529.78 152.1 539.66 148.48C545.97 146.16 552.11 143.36 558.29 140.7C559.648 140.12 561.072 139.707 562.53 139.47V139.47Z" fill="#FF7C7C"/>
<path id="Vector_55" d="M518.22 203.19C516.62 200.98 516.14 198.31 515.22 195.84C515.016 195.039 514.677 194.279 514.22 193.59C513.998 193.383 513.828 193.126 513.724 192.841C513.619 192.556 513.583 192.251 513.618 191.949C513.653 191.648 513.758 191.359 513.925 191.105C514.092 190.852 514.317 190.641 514.58 190.49C517.05 188.49 518.78 185.89 520.67 183.39C522.09 181.49 523.52 179.59 525.76 178.39C526.201 178.061 526.744 177.899 527.293 177.932C527.842 177.965 528.362 178.191 528.76 178.57C531.76 181.17 535.42 181.9 539.27 182.16C544.15 182.48 547.67 179.58 549.12 175.36C549.648 173.786 549.964 172.148 550.06 170.49C550.342 166.79 551.764 163.268 554.13 160.41C556.22 157.74 558.38 158 559.79 161.09C560.732 163.374 561.793 165.607 562.97 167.78C565.86 172.73 571.45 171.36 574.46 169.01C575.72 168.057 576.596 166.684 576.93 165.14C577.039 164.176 577.42 163.264 578.03 162.51C579.48 164.11 579.03 166.17 579.61 167.94C580.326 169.73 580.836 171.595 581.13 173.5C581.198 173.958 581.114 174.425 580.89 174.83C580.181 175.69 579.241 176.329 578.18 176.67C559.44 185.02 540.99 194.01 522.18 202.13C520.9 202.71 519.72 203.63 518.22 203.19Z" fill="#FDEAEA"/>
<path id="Vector_56" d="M520.16 146.24C519.141 139.367 519.688 132.352 521.76 125.72C522.48 123.21 523.34 122.78 525.83 123.38C526.196 123.444 526.552 123.555 526.89 123.71C534.39 127.5 541.27 132.05 546.09 139.18C546.59 139.93 546.31 140.33 545.87 140.84C545.463 141.218 544.962 141.48 544.42 141.6C537.25 144.29 530.04 146.89 522.97 149.86C521.1 150.64 521.08 150.59 520.61 148.7C520.54 148.43 520.49 148.15 520.44 147.88C520.34 147.34 520.25 146.79 520.16 146.24Z" fill="#B42323"/>
<path id="Vector_57" d="M580.71 174.29L581.12 173.54C582.49 175.04 582.18 176.99 582.48 178.76C582.65 179.76 581.69 180.07 580.96 180.48C578.79 181.71 576.4 182.48 574.16 183.48C567.58 186.59 561.16 189.91 554.73 193.39C548.09 197.02 540.98 199.51 534.06 202.46C530.51 203.97 526.91 205.36 523.34 206.82C520.83 207.82 520.74 207.82 519.13 205.47C524.72 202.41 530.64 200.03 536.41 197.33C550.063 190.943 563.75 184.637 577.47 178.41C579.26 177.61 581.13 176.84 580.71 174.29Z" fill="#FDEAEA"/>
<path id="Vector_58" d="M580.71 174.29C582.3 176.54 582.23 177.03 579.92 178.1C570.98 182.233 562.037 186.35 553.09 190.45L522 204.78C521.155 205.352 520.134 205.603 519.12 205.49C518.81 204.72 518.51 203.96 518.21 203.19L566.92 181.07C571.113 179.17 575.287 177.24 579.44 175.28C579.93 175.06 580.49 174.87 580.71 174.29Z" fill="#C75A5A"/>
<path id="Vector_59" d="M538.5 172.07C538.504 172.161 538.49 172.251 538.457 172.335C538.424 172.42 538.374 172.496 538.31 172.56C538.246 172.624 538.17 172.674 538.085 172.707C538.001 172.74 537.91 172.754 537.82 172.75C537.73 172.758 537.64 172.748 537.554 172.721C537.469 172.693 537.389 172.649 537.321 172.59C537.253 172.531 537.197 172.459 537.158 172.379C537.118 172.298 537.095 172.21 537.09 172.12C537.02 171.64 537.39 171.51 537.75 171.47C537.839 171.457 537.93 171.463 538.016 171.487C538.103 171.511 538.184 171.552 538.254 171.608C538.325 171.664 538.383 171.734 538.425 171.814C538.467 171.893 538.493 171.981 538.5 172.07Z" fill="#F4CCCC"/>
<path id="Vector_60" d="M513.47 171.39C513.337 171.409 513.202 171.379 513.089 171.306C512.977 171.232 512.895 171.12 512.86 170.99C512.834 170.907 512.825 170.819 512.834 170.732C512.843 170.645 512.869 170.561 512.911 170.484C512.953 170.408 513.01 170.341 513.078 170.287C513.147 170.233 513.226 170.193 513.31 170.17C513.7 170.03 514.04 170.17 514.06 170.62C514.061 170.796 514.004 170.967 513.897 171.106C513.79 171.246 513.64 171.345 513.47 171.39Z" fill="#F7BDBD"/>
<path id="Vector_61" d="M514.52 176.63C514.52 176.93 514.33 177.1 514.05 177.05C513.978 177.017 513.915 176.966 513.867 176.904C513.818 176.841 513.785 176.768 513.77 176.69C513.761 176.63 513.768 176.568 513.789 176.511C513.81 176.454 513.845 176.402 513.89 176.362C513.936 176.321 513.991 176.293 514.05 176.278C514.109 176.264 514.171 176.265 514.23 176.28C514.35 176.29 514.43 176.51 514.52 176.63Z" fill="#F6C4C4"/>
<path id="Vector_62" d="M540.46 167.49C540.46 167.62 540.46 167.83 540.34 167.91C540.297 167.952 540.245 167.983 540.187 168C540.129 168.016 540.068 168.018 540.01 168.005C539.951 167.992 539.897 167.965 539.851 167.926C539.806 167.886 539.771 167.836 539.75 167.78C539.73 167.704 539.729 167.624 539.746 167.548C539.764 167.471 539.799 167.4 539.85 167.34C539.896 167.299 539.952 167.269 540.012 167.254C540.072 167.239 540.134 167.239 540.195 167.254C540.255 167.268 540.31 167.298 540.357 167.339C540.403 167.38 540.438 167.432 540.46 167.49V167.49Z" fill="#F5C6C6"/>
<path id="Vector_63" d="M535.52 132.84C535.4 133.36 535.59 134.1 534.74 134.01C534.21 133.95 534.09 133.41 534.07 132.95C534.05 132.49 534.18 132 534.77 131.95C535.36 131.9 535.53 132.35 535.52 132.84Z" fill="#E7B3B3"/>
<path id="Vector_64" d="M534.47 140.27C534.644 140.244 534.821 140.277 534.973 140.364C535.126 140.451 535.244 140.587 535.31 140.75C535.349 140.855 535.366 140.966 535.36 141.078C535.354 141.19 535.326 141.299 535.276 141.399C535.226 141.5 535.157 141.589 535.072 141.661C534.986 141.733 534.887 141.787 534.78 141.82C534.605 141.86 534.422 141.832 534.267 141.741C534.113 141.65 533.999 141.502 533.95 141.33C533.882 141.12 533.899 140.893 533.996 140.695C534.093 140.497 534.263 140.345 534.47 140.27Z" fill="#E3B3B3"/>
<path id="Vector_65" d="M526.71 143.76C527.14 144.44 526.85 144.62 526.63 144.76C526.536 144.825 526.429 144.869 526.316 144.887C526.203 144.905 526.088 144.898 525.978 144.865C525.868 144.832 525.768 144.775 525.683 144.698C525.599 144.621 525.533 144.526 525.49 144.42C525.459 144.358 525.442 144.291 525.44 144.222C525.438 144.153 525.45 144.085 525.477 144.021C525.503 143.957 525.543 143.9 525.594 143.854C525.644 143.807 525.705 143.772 525.77 143.75C525.908 143.652 526.073 143.601 526.242 143.602C526.411 143.604 526.574 143.659 526.71 143.76V143.76Z" fill="#E7BEBE"/>
<path id="Vector_66" d="M542.4 138.59C542.4 139.02 542.52 139.51 541.95 139.67C541.78 139.724 541.596 139.709 541.437 139.629C541.278 139.548 541.157 139.409 541.1 139.24C540.86 138.6 541.25 138.24 541.78 138.05C542.12 138.07 542.22 138.38 542.4 138.59Z" fill="#E9C2C2"/>
<path id="Vector_67" d="M530.22 138.33C530.35 138.64 530.17 138.83 529.94 138.96C529.87 139.007 529.79 139.038 529.705 139.05C529.621 139.061 529.536 139.053 529.455 139.026C529.375 138.999 529.302 138.953 529.242 138.893C529.182 138.833 529.137 138.76 529.11 138.68C528.98 138.39 529.17 138.18 529.4 138.05C529.63 137.92 530 138 530.22 138.33Z" fill="#EED2D2"/>
<path id="Vector_68" d="M530.65 131.87C530.91 131.81 531.13 132.1 531.22 132.44C531.253 132.52 531.267 132.607 531.263 132.693C531.259 132.78 531.237 132.865 531.197 132.942C531.157 133.019 531.101 133.086 531.032 133.14C530.964 133.193 530.884 133.23 530.8 133.25C530.35 133.39 530.13 133.11 530.06 132.75C529.99 132.39 530.05 132.06 530.65 131.87Z" fill="#E0ABAB"/>
<path id="Vector_69" d="M542.4 138.59L541.78 138.05C541.78 137.62 541.78 136.94 542.34 137.18C542.9 137.42 542.43 138.1 542.4 138.59Z" fill="#C04646"/>
<path id="Vector_70" d="M525.77 131.29C525.63 130.99 525.49 131.19 525.26 131.29C525.153 131.367 525.02 131.4 524.89 131.381C524.759 131.363 524.641 131.294 524.56 131.19C524.507 131.123 524.472 131.042 524.459 130.958C524.446 130.873 524.455 130.786 524.485 130.706C524.515 130.625 524.566 130.554 524.631 130.499C524.697 130.444 524.776 130.406 524.86 130.39C525.11 130.34 525.36 130.44 525.77 131.29Z" fill="#EACFCF"/>
<path id="Vector_71" d="M527.72 128.05C527.39 128.17 527.21 127.98 527.09 127.73C526.97 127.48 527.09 127.22 527.4 127.12C527.71 127.02 527.91 127.19 528.04 127.44C528.17 127.69 528 127.92 527.72 128.05Z" fill="#E9C1C1"/>
<path id="Vector_72" d="M523.34 141.79C523.61 141.79 523.85 141.91 523.79 142.25C523.783 142.313 523.763 142.374 523.731 142.429C523.699 142.484 523.655 142.531 523.602 142.567C523.55 142.603 523.491 142.627 523.428 142.638C523.366 142.649 523.301 142.646 523.24 142.63C523.164 142.6 523.095 142.553 523.04 142.492C522.984 142.431 522.943 142.359 522.92 142.28C522.84 142 523 141.82 523.34 141.79Z" fill="#EDCBCB"/>
<path id="Vector_73" d="M524.9 135.42C524.24 135.13 524.18 134.74 524.69 134.25C524.784 134.167 524.899 134.111 525.022 134.088C525.145 134.065 525.273 134.076 525.39 134.12C525.549 134.272 525.654 134.471 525.688 134.688C525.722 134.905 525.684 135.127 525.58 135.32V135.32C525.489 135.401 525.376 135.453 525.255 135.471C525.134 135.489 525.011 135.471 524.9 135.42V135.42Z" fill="#E1A9A9"/>
<path id="Vector_74" d="M530.14 128.33C530.25 128.52 530.19 128.66 529.96 128.7C529.873 128.702 529.788 128.674 529.72 128.62C529.55 128.49 529.51 128.28 529.72 128.18C529.93 128.08 530 128.27 530.14 128.33Z" fill="#BB3939"/>
<path id="Vector_75" d="M527.8 143.16C527.8 143.22 527.91 143.28 527.9 143.34C527.9 143.55 527.77 143.59 527.64 143.44C527.623 143.408 527.613 143.372 527.613 143.335C527.613 143.298 527.623 143.262 527.64 143.23C527.64 143.23 527.74 143.18 527.8 143.16Z" fill="#BE4242"/>
<path id="Vector_76" d="M525.57 135.31C525.51 134.91 525.44 134.51 525.38 134.11C526.1 134.4 526.11 134.81 525.57 135.31Z" fill="#E2A4A4"/>
<path id="Vector_77" d="M524.9 135.42L525.58 135.3C525.42 135.73 525.18 135.69 524.9 135.42Z" fill="#E2A4A4"/>
<path id="Vector_78" d="M525.39 134.12L524.69 134.25C524.86 133.89 525.08 133.77 525.39 134.12Z" fill="#E2A4A4"/>
</g>
</g>
</svg>
