<svg width="86" height="96" viewBox="0 0 86 96" fill="none" xmlns="http://www.w3.org/2000/svg">
<g id="cakeBg1">
<path id="Vector" d="M85 55.3998C85.07 55.7698 85.11 56.1399 85.19 56.4899C86.44 61.5799 85.37 63.71 80.19 66.85C74.6 70.24 68.83 73.3198 63.09 76.4598C58.1189 79.2671 53.0016 81.8075 47.76 84.0699C38.94 87.7299 30.09 91.2998 21.27 94.9598C20.7291 95.2254 20.1234 95.3306 19.5246 95.2633C18.9257 95.196 18.3585 94.959 17.89 94.58C17.4918 94.2498 17.2246 93.7882 17.1366 93.2784C17.0486 92.7687 17.1455 92.2445 17.41 91.7999C17.84 90.9299 17.41 90.3999 16.97 89.7999C13.29 84.7999 11.16 78.9499 8.71004 73.3099C8.54626 72.7866 8.31067 72.2886 8.01003 71.83C4.01003 67.02 2.43999 61.3099 1.65999 55.2899C1.62844 54.9218 1.56487 54.557 1.46999 54.1998C0.0999909 50.0098 1.54004 46.1998 3.08004 42.4298C3.52145 41.3138 4.35784 40.3993 5.43001 39.86C8.49001 38.15 11.75 36.8599 14.95 35.4799C15.2161 35.4157 15.4661 35.2974 15.6847 35.1327C15.9033 34.9679 16.0857 34.7602 16.2207 34.5221C16.3556 34.284 16.4404 34.0208 16.4695 33.7487C16.4986 33.4765 16.4716 33.2011 16.39 32.9398C16.08 31.3098 15.87 29.6499 15.53 28.0299C13.97 20.5899 15.23 13.3698 17.19 6.20984C17.9 3.61984 19.19 1.53978 22.01 0.649784C22.8876 0.442434 23.7948 0.391752 24.69 0.499881C27.3704 0.59624 29.9667 1.4605 32.17 2.98987C34.73 4.62987 37.41 6.07979 39.85 7.90979C44.0308 10.8343 47.4999 14.6624 50 19.11C51.07 21.11 51.12 21.1099 53.39 20.3099C57.51 18.7699 61.62 17.21 65.82 15.85C70.75 14.25 74.18 16.5398 76 19.9398C77.28 22.3398 77.87 25.1098 78.74 27.7098C80.04 31.5698 79.97 35.7098 81.74 39.4598C81.809 39.6292 81.8528 39.8078 81.87 39.9899C82.598 45.1856 83.6433 50.3318 85 55.3998Z" fill="#F9F0F0"/>
<path id="Vector_2" d="M62.53 21.47C64.9918 20.9498 67.5525 21.1691 69.89 22.1002C70.68 22.3684 71.3903 22.8301 71.9562 23.4432C72.5222 24.0563 72.9257 24.8013 73.13 25.6102C73.88 28.3702 74.76 31.0902 75.58 33.8302C76.1 35.5902 76.18 37.2501 74.84 38.7701C73.5 40.2901 73.16 42.22 72.84 44.15C72.7854 44.892 72.5557 45.6107 72.1698 46.2469C71.7839 46.8831 71.2528 47.4188 70.62 47.8101C68.93 48.8101 67.86 48.62 66.89 46.97C66.0968 45.5168 65.3987 44.0136 64.8 42.47C63.9582 40.1975 62.4088 38.2554 60.38 36.93C57.38 35.09 54.19 35.5601 51.51 38.0701C49.3077 40.1929 47.6655 42.8279 46.73 45.7401C45.73 48.6201 45.28 51.6501 44.19 54.5201C42.31 59.4401 40.27 60.4701 35.28 58.7601C33.8956 58.2426 32.5845 57.5466 31.38 56.69C28.29 54.63 25.44 54.6902 22.38 56.8302C19.961 58.545 17.8965 60.7113 16.3 63.21C15.69 64.13 15.09 65.07 14.41 65.95C12.78 68.03 11.52 68.0101 9.69001 66.0401C7.52145 63.6072 6.25105 60.5052 6.09003 57.2501C5.88003 54.7701 5.87001 52.2501 5.88001 49.7901C5.82923 48.2527 6.25179 46.7366 7.09058 45.4471C7.92937 44.1576 9.14395 43.1569 10.57 42.5802C20.14 38.2402 29.78 34.1001 39.66 30.4801C45.97 28.1601 52.11 25.36 58.29 22.7C59.6484 22.12 61.0722 21.7071 62.53 21.47Z" fill="#FF7C7C"/>
<path id="Vector_3" d="M18.22 85.19C16.62 82.98 16.14 80.3102 15.22 77.8402C15.0155 77.0393 14.6775 76.2786 14.22 75.5902C13.9982 75.3828 13.8283 75.1264 13.7238 74.8414C13.6192 74.5564 13.5829 74.2508 13.6179 73.9493C13.6529 73.6478 13.7583 73.3587 13.9254 73.1053C14.0924 72.8519 14.3167 72.6411 14.58 72.4901C17.05 70.4901 18.78 67.89 20.67 65.39C22.09 63.49 23.52 61.59 25.76 60.39C26.2009 60.061 26.7439 59.8988 27.2929 59.9317C27.842 59.9647 28.3617 60.1909 28.76 60.5701C31.76 63.1701 35.42 63.9 39.27 64.16C44.15 64.48 47.67 61.5802 49.12 57.3602C49.6476 55.7856 49.9637 54.1479 50.06 52.4901C50.3415 48.79 51.7635 45.2682 54.13 42.41C56.22 39.74 58.38 40.0002 59.79 43.0902C60.7318 45.3744 61.7932 47.6075 62.97 49.7801C65.86 54.7301 71.45 53.3601 74.46 51.0101C75.72 50.0572 76.5963 48.684 76.93 47.14C77.0387 46.1764 77.4203 45.2641 78.03 44.5101C79.48 46.1101 79.03 48.17 79.61 49.94C80.3257 51.7298 80.8356 53.5951 81.13 55.5001C81.198 55.9577 81.1137 56.4251 80.89 56.8301C80.1815 57.6903 79.2409 58.3288 78.18 58.67C59.44 67.02 40.99 76.01 22.18 84.13C20.9 84.71 19.72 85.63 18.22 85.19Z" fill="#FDEAEA"/>
<path id="Vector_4" d="M20.16 28.2399C19.1414 21.3667 19.6884 14.3522 21.76 7.71992C22.48 5.20992 23.34 4.77983 25.83 5.37983C26.196 5.44411 26.5522 5.55509 26.89 5.70991C34.39 9.49991 41.27 14.0499 46.09 21.1799C46.59 21.9299 46.31 22.33 45.87 22.84C45.4627 23.2175 44.9622 23.4798 44.42 23.6C37.25 26.29 30.04 28.8901 22.97 31.8601C21.1 32.6401 21.08 32.5899 20.61 30.6999C20.54 30.4299 20.49 30.1498 20.44 29.8798C20.34 29.3398 20.25 28.7899 20.16 28.2399Z" fill="#B42323"/>
<path id="Vector_5" d="M80.71 56.29L81.12 55.54C82.49 57.04 82.18 58.99 82.48 60.76C82.65 61.76 81.69 62.07 80.96 62.48C78.79 63.71 76.4 64.48 74.16 65.48C67.58 68.59 61.16 71.9099 54.73 75.3899C48.09 79.0199 40.98 81.51 34.06 84.46C30.51 85.97 26.91 87.3601 23.34 88.8201C20.83 89.8201 20.74 89.82 19.13 87.47C24.72 84.41 30.64 82.0301 36.41 79.3301C50.0633 72.9434 63.75 66.6366 77.47 60.4099C79.26 59.6099 81.13 58.84 80.71 56.29Z" fill="#FDEAEA"/>
<path id="Vector_6" d="M80.71 56.29C82.3 58.54 82.23 59.0301 79.92 60.1001C70.98 64.2334 62.0367 68.35 53.09 72.45L22 86.78C21.155 87.3516 20.1339 87.6033 19.12 87.49C18.81 86.72 18.51 85.9599 18.21 85.1899L66.92 63.0701C71.1133 61.1701 75.2867 59.24 79.44 57.28C79.93 57.06 80.49 56.87 80.71 56.29Z" fill="#C75A5A"/>
<path id="Vector_7" d="M38.5 54.0702C38.5043 54.1606 38.4896 54.2509 38.457 54.3353C38.4243 54.4197 38.3744 54.4964 38.3104 54.5604C38.2463 54.6244 38.1696 54.6745 38.0852 54.7071C38.0008 54.7398 37.9104 54.7544 37.82 54.7501C37.7304 54.7583 37.64 54.7483 37.5543 54.7208C37.4686 54.6933 37.3893 54.649 37.3212 54.5902C37.2531 54.5314 37.1975 54.4593 37.1578 54.3785C37.118 54.2978 37.095 54.2101 37.09 54.1202C37.02 53.6402 37.39 53.5101 37.75 53.4701C37.8391 53.4575 37.9297 53.4634 38.0165 53.4871C38.1032 53.5109 38.1842 53.5521 38.2544 53.6082C38.3247 53.6644 38.3827 53.7344 38.4249 53.8138C38.4671 53.8932 38.4927 53.9805 38.5 54.0702Z" fill="#F4CCCC"/>
<path id="Vector_8" d="M13.4699 53.3899C13.337 53.4093 13.2015 53.3794 13.0891 53.3057C12.9768 53.232 12.8952 53.1197 12.86 52.99C12.8341 52.9066 12.8252 52.8188 12.834 52.7319C12.8427 52.6451 12.8689 52.5609 12.9109 52.4844C12.9529 52.4079 13.0098 52.3407 13.0784 52.2866C13.147 52.2326 13.2257 52.1929 13.31 52.1699C13.7 52.0299 14.04 52.1701 14.06 52.6201C14.0612 52.7958 14.0039 52.9668 13.8971 53.1062C13.7902 53.2457 13.6399 53.3454 13.4699 53.3899Z" fill="#F7BDBD"/>
<path id="Vector_9" d="M14.52 58.6299C14.52 58.9299 14.33 59.1001 14.05 59.0501C13.9781 59.0166 13.9153 58.9664 13.8666 58.9039C13.8179 58.8413 13.7848 58.7679 13.77 58.69C13.7615 58.6296 13.7679 58.5681 13.7889 58.5108C13.8099 58.4535 13.8446 58.4024 13.8902 58.3619C13.9357 58.3213 13.9905 58.2926 14.0498 58.2784C14.1091 58.2641 14.171 58.2646 14.23 58.2801C14.35 58.2901 14.43 58.5099 14.52 58.6299Z" fill="#F6C4C4"/>
<path id="Vector_10" d="M40.46 49.4899C40.46 49.6199 40.46 49.8299 40.34 49.9099C40.2973 49.952 40.2446 49.9831 40.1869 49.9997C40.1292 50.0164 40.0683 50.0182 40.0097 50.0053C39.951 49.9924 39.8965 49.9651 39.8512 49.9257C39.8058 49.8864 39.771 49.8362 39.75 49.78C39.7302 49.704 39.7289 49.6244 39.7463 49.5478C39.7637 49.4712 39.7992 49.4 39.85 49.34C39.896 49.2987 39.9515 49.2691 40.0116 49.2541C40.0716 49.2391 40.1345 49.2388 40.1946 49.2536C40.2548 49.2684 40.3104 49.2976 40.3566 49.3388C40.4028 49.38 40.4384 49.4319 40.46 49.4899Z" fill="#F5C6C6"/>
<path id="Vector_11" d="M35.52 14.84C35.4 15.36 35.59 16.0999 34.74 16.0099C34.21 15.9499 34.09 15.4099 34.07 14.9499C34.05 14.4899 34.18 13.9999 34.77 13.9499C35.36 13.8999 35.53 14.35 35.52 14.84Z" fill="#E7B3B3"/>
<path id="Vector_12" d="M34.47 22.27C34.6436 22.2438 34.821 22.2769 34.9734 22.364C35.1258 22.4511 35.2444 22.5871 35.31 22.75C35.3489 22.8548 35.366 22.9664 35.3602 23.0781C35.3543 23.1898 35.3258 23.2991 35.2761 23.3994C35.2265 23.4996 35.1569 23.5888 35.0715 23.6611C34.9862 23.7334 34.887 23.7875 34.78 23.82C34.6053 23.8602 34.4217 23.8319 34.2672 23.7407C34.1128 23.6495 33.9993 23.5025 33.95 23.33C33.8825 23.1204 33.8989 22.8928 33.9959 22.695C34.0929 22.4973 34.2629 22.3449 34.47 22.27Z" fill="#E3B3B3"/>
<path id="Vector_13" d="M26.71 25.7601C27.14 26.4401 26.85 26.6201 26.63 26.7601C26.5362 26.8255 26.4289 26.8688 26.316 26.887C26.2031 26.9052 26.0876 26.8977 25.978 26.865C25.8684 26.8324 25.7677 26.7753 25.6832 26.6983C25.5987 26.6212 25.5326 26.5261 25.49 26.42C25.4593 26.3583 25.4422 26.2908 25.44 26.222C25.4377 26.1531 25.4503 26.0846 25.4768 26.021C25.5034 25.9575 25.5433 25.9003 25.5939 25.8536C25.6445 25.8068 25.7046 25.7715 25.77 25.75C25.9077 25.6523 26.0728 25.6005 26.2417 25.6023C26.4105 25.6041 26.5745 25.6594 26.71 25.7601Z" fill="#E7BEBE"/>
<path id="Vector_14" d="M42.4 20.5901C42.4 21.0201 42.52 21.5099 41.95 21.6699C41.7803 21.7239 41.5961 21.7091 41.4371 21.6287C41.2782 21.5483 41.1571 21.4087 41.1 21.24C40.86 20.6 41.25 20.24 41.78 20.05C42.12 20.07 42.22 20.3801 42.4 20.5901Z" fill="#E9C2C2"/>
<path id="Vector_15" d="M30.2199 20.33C30.3499 20.64 30.17 20.8298 29.94 20.9598C29.8698 21.0074 29.7895 21.0383 29.7055 21.0497C29.6214 21.0611 29.5358 21.0529 29.4555 21.0258C29.3751 20.9987 29.3021 20.9535 29.2422 20.8934C29.1822 20.8334 29.137 20.7602 29.11 20.6798C28.98 20.3898 29.17 20.1799 29.4 20.0499C29.63 19.9199 29.9999 20 30.2199 20.33Z" fill="#EED2D2"/>
<path id="Vector_16" d="M30.65 13.8702C30.91 13.8102 31.13 14.1 31.22 14.44C31.2526 14.5204 31.2674 14.6068 31.2634 14.6935C31.2593 14.7801 31.2366 14.865 31.1966 14.942C31.1567 15.019 31.1006 15.0863 31.0322 15.1395C30.9637 15.1927 30.8844 15.2305 30.8 15.2501C30.35 15.3901 30.13 15.1101 30.06 14.7501C29.99 14.3901 30.05 14.0602 30.65 13.8702Z" fill="#E0ABAB"/>
<path id="Vector_17" d="M42.4 20.59L41.78 20.0499C41.78 19.6199 41.78 18.9398 42.34 19.1798C42.9 19.4198 42.43 20.1 42.4 20.59Z" fill="#C04646"/>
<path id="Vector_18" d="M25.77 13.2901C25.63 12.9901 25.49 13.1901 25.26 13.2901C25.153 13.3671 25.0204 13.3998 24.8899 13.3812C24.7593 13.3625 24.6411 13.2939 24.56 13.19C24.507 13.1225 24.4723 13.0424 24.4592 12.9576C24.4461 12.8728 24.455 12.786 24.4851 12.7056C24.5153 12.6253 24.5656 12.5541 24.6312 12.4989C24.6969 12.4436 24.7757 12.406 24.86 12.39C25.11 12.34 25.36 12.4401 25.77 13.2901Z" fill="#EACFCF"/>
<path id="Vector_19" d="M27.7199 10.0501C27.3899 10.1701 27.21 9.98007 27.09 9.73007C26.97 9.48007 27.09 9.2202 27.4 9.1202C27.71 9.0202 27.91 9.19003 28.04 9.44003C28.17 9.69003 27.9999 9.92013 27.7199 10.0501Z" fill="#E9C1C1"/>
<path id="Vector_20" d="M23.34 23.79C23.61 23.79 23.85 23.91 23.79 24.25C23.7834 24.3132 23.7633 24.3743 23.7309 24.429C23.6985 24.4836 23.6548 24.5305 23.6025 24.5667C23.5502 24.6028 23.4907 24.627 23.4282 24.6379C23.3656 24.6489 23.3014 24.6461 23.24 24.6299C23.1636 24.5997 23.095 24.5526 23.0396 24.4919C22.9841 24.4313 22.9432 24.3589 22.92 24.28C22.84 24 23 23.82 23.34 23.79Z" fill="#EDCBCB"/>
<path id="Vector_21" d="M24.9 17.42C24.24 17.13 24.18 16.7401 24.69 16.2501C24.7838 16.1668 24.8986 16.1106 25.0219 16.0877C25.1452 16.0648 25.2725 16.0762 25.39 16.1202C25.549 16.2716 25.6538 16.4709 25.6881 16.6878C25.7224 16.9047 25.6845 17.127 25.58 17.3201C25.4885 17.4009 25.3755 17.4533 25.2548 17.471C25.1341 17.4888 25.0109 17.471 24.9 17.42Z" fill="#E1A9A9"/>
<path id="Vector_22" d="M30.14 10.3301C30.25 10.5201 30.19 10.6599 29.96 10.6999C29.8731 10.7023 29.7881 10.6741 29.72 10.6201C29.55 10.4901 29.51 10.2799 29.72 10.1799C29.93 10.0799 30 10.2701 30.14 10.3301Z" fill="#BB3939"/>
<path id="Vector_23" d="M27.8 25.1599C27.8 25.2199 27.91 25.2801 27.9 25.3401C27.9 25.5501 27.77 25.5899 27.64 25.4399C27.6225 25.4077 27.6133 25.3716 27.6133 25.335C27.6133 25.2983 27.6225 25.2622 27.64 25.23C27.64 25.23 27.74 25.1799 27.8 25.1599Z" fill="#BE4242"/>
<path id="Vector_24" d="M25.57 17.3101C25.51 16.9101 25.44 16.5101 25.38 16.1101C26.1 16.4001 26.11 16.8101 25.57 17.3101Z" fill="#E2A4A4"/>
<path id="Vector_25" d="M24.9 17.4199L25.58 17.3C25.42 17.73 25.18 17.6899 24.9 17.4199Z" fill="#E2A4A4"/>
<path id="Vector_26" d="M25.39 16.12L24.69 16.2499C24.86 15.8899 25.08 15.77 25.39 16.12Z" fill="#E2A4A4"/>
</g>
</svg>
