<svg width="96" height="91" viewBox="0 0 96 91" fill="none" xmlns="http://www.w3.org/2000/svg">
<g id="cakeBg2">
<path id="Vector" d="M74.49 85.4401C74.26 85.7301 74 86.0002 73.79 86.3102C70.79 90.5902 68.48 91.1902 62.7 89.3602C56.47 87.3602 50.34 85.0902 44.2 82.8402C38.8119 80.9517 33.5278 78.7786 28.37 76.3302C19.8 72.1102 11.28 67.8102 2.72 63.5902C2.16517 63.3572 1.6881 62.971 1.34457 62.4769C1.00103 61.9829 0.805211 61.4014 0.779999 60.8002C0.761937 60.2821 0.9308 59.7749 1.25575 59.371C1.58071 58.9671 2.04008 58.6935 2.55 58.6002C3.49 58.3602 3.55 57.6801 3.76 56.9601C5.11 50.8701 8.09 45.45 10.71 39.88C10.9956 39.4115 11.2176 38.9071 11.37 38.38C12.37 32.22 15.6 27.2601 19.62 22.7001C19.8747 22.4305 20.1055 22.1395 20.31 21.8302C22.56 18.0502 26.31 16.6402 30.22 15.2902C31.3496 14.8877 32.5875 14.9127 33.7 15.3602C36.9599 16.6213 40.154 18.0462 43.27 19.63C44.54 20.22 45.33 20.0802 46.13 19.0402C47.13 17.7302 48.26 16.48 49.26 15.16C53.82 9.08003 60.08 5.27015 66.75 2.03015C69.18 0.850147 71.58 0.430098 74.12 1.9801C74.8534 2.50606 75.4896 3.15569 76 3.90002C77.6928 5.98174 78.7546 8.50437 79.06 11.17C79.51 14.17 80.19 17.17 80.42 20.17C80.9621 25.2395 80.3572 30.366 78.65 35.17C77.83 37.31 77.86 37.3601 79.99 38.5001C83.87 40.5901 87.75 42.65 91.53 44.91C95.99 47.57 96.53 51.6601 95.17 55.2701C94.17 57.8101 92.52 60.0701 91.17 62.4401C89.17 65.9701 85.94 68.6601 84.29 72.4401C84.2077 72.606 84.0997 72.7578 83.97 72.89C80.5565 76.8757 77.3906 81.0669 74.49 85.4401Z" fill="#F9F0F0"/>
<path id="Vector_2" d="M85.17 46.1598C87.1878 47.6584 88.71 49.7276 89.54 52.1C89.8596 52.8706 89.9812 53.7088 89.8939 54.5385C89.8065 55.3681 89.513 56.1628 89.04 56.85C87.46 59.24 86.04 61.69 84.47 64.11C83.47 65.67 82.3 66.82 80.27 66.82C78.24 66.82 76.57 67.82 74.91 68.82C74.3149 69.2637 73.6241 69.5618 72.893 69.6903C72.1619 69.8188 71.4108 69.7742 70.7 69.56C68.87 68.92 68.26 68.0199 68.87 66.2099C69.4334 64.6498 70.1016 63.1297 70.87 61.6598C72.025 59.5204 72.4598 57.0658 72.11 54.6598C71.52 51.1898 69.11 49.0999 65.42 48.7399C62.3686 48.4849 59.3014 48.9863 56.49 50.1999C53.66 51.3499 51.09 53.01 48.22 54.08C43.28 55.91 41.16 55.0798 39.15 50.1798C38.6312 48.7961 38.295 47.3505 38.15 45.8798C37.66 42.1898 35.73 40.0999 32.15 39.2099C29.2643 38.5227 26.2733 38.3972 23.34 38.84C22.24 38.99 21.14 39.1699 20.04 39.2299C17.4 39.3799 16.58 38.4199 16.86 35.7499C17.2567 32.5112 18.7535 29.507 21.1 27.2399C22.82 25.4499 24.69 23.7898 26.57 22.1598C27.6901 21.1315 29.0974 20.4694 30.6037 20.2621C32.1101 20.0548 33.6438 20.3123 35 20.9999C44.58 25.3299 54 29.8498 63.28 34.8898C69.19 38.1098 75.34 40.8899 81.41 43.7799C82.7593 44.4104 84.0228 45.2101 85.17 46.1598Z" fill="#FF7C7C"/>
<path id="Vector_3" d="M8 54.8402C8.61 52.1902 10.3 50.0601 11.52 47.7101C12.0041 47.0422 12.3663 46.2941 12.59 45.5001C12.5979 45.1972 12.6773 44.9004 12.8219 44.6341C12.9664 44.3678 13.1719 44.1395 13.4216 43.9679C13.6713 43.7962 13.9581 43.6862 14.2585 43.6466C14.5589 43.607 14.8644 43.639 15.15 43.7401C18.28 44.2801 21.39 43.86 24.51 43.63C26.87 43.45 29.24 43.26 31.59 44.19C32.1258 44.3069 32.6035 44.6082 32.9398 45.0414C33.2761 45.4745 33.4496 46.0121 33.43 46.5602C33.43 50.5602 35.31 53.7602 37.66 56.8302C40.66 60.7002 45.13 61.4401 49.26 59.7501C50.7962 59.114 52.2393 58.273 53.55 57.2501C56.5089 55.0143 60.0927 53.759 63.8 53.66C67.2 53.47 68.42 55.2602 67.03 58.3602C65.9301 60.5732 64.9487 62.8428 64.09 65.16C62.27 70.6 66.99 73.9002 70.74 74.6202C72.2874 74.9322 73.8952 74.6877 75.28 73.93C76.0761 73.3605 77.0218 73.0372 78 73.0001C77.75 75.1401 75.93 76.1901 74.95 77.7601C74.0834 79.4833 73.016 81.0979 71.77 82.5702C71.471 82.9201 71.0681 83.1653 70.62 83.2701C69.5023 83.3041 68.3985 83.0159 67.44 82.44C48.81 73.85 29.89 65.9102 11.36 57.1002C10.17 56.5402 8.71 56.2602 8 54.8402Z" fill="#FDEAEA"/>
<path id="Vector_4" d="M52.14 18.7501C56.6409 13.4563 62.2773 9.24521 68.63 6.42999C70.99 5.31999 71.88 5.68 73.08 7.95C73.2627 8.26627 73.4103 8.6016 73.52 8.95C75.62 17.09 76.73 25.2601 74.52 33.5901C74.3 34.4601 73.81 34.5201 73.14 34.5201C72.5877 34.4583 72.0607 34.255 71.61 33.93C64.86 30.31 58.15 26.6101 51.26 23.2501C49.43 22.3501 49.46 22.25 50.57 20.7C50.73 20.47 50.9 20.2601 51.07 20.0401L52.14 18.7501Z" fill="#B42323"/>
<path id="Vector_5" d="M71 82.78L71.83 82.5901C71.61 84.5901 69.94 85.66 68.83 87.05C68.19 87.83 67.32 87.33 66.53 87.05C64.17 86.22 62.05 84.9099 59.77 83.9199C53.1 81.0199 46.34 78.3501 39.52 75.8501C32.41 73.2501 25.85 69.54 19.07 66.28C15.59 64.61 12.18 62.8201 8.72001 61.1001C6.3 59.8801 6.25 59.81 6.96 57.04C12.96 59.23 18.64 62.1099 24.47 64.6699C38.2767 70.7166 52.0433 76.8501 65.77 83.0701C67.52 83.8801 69.33 84.77 71 82.78Z" fill="#FDEAEA"/>
<path id="Vector_6" d="M71 82.78C70.35 85.46 69.95 85.7299 67.62 84.6899C58.62 80.6899 49.62 76.6899 40.62 72.6899C30.2 68.0233 19.7767 63.38 9.35004 58.76C8.36445 58.4986 7.50345 57.8963 6.92004 57.0601L8.05005 54.8601C24.3034 62.1934 40.5534 69.5268 56.8 76.8601C60.9867 78.7534 65.1867 80.6166 69.4 82.45C69.6285 82.6145 69.8891 82.729 70.1648 82.7859C70.4405 82.8428 70.7251 82.8407 71 82.78Z" fill="#C75A5A"/>
<path id="Vector_7" d="M44.81 49.5802C44.743 49.6471 44.6626 49.699 44.5741 49.7325C44.4856 49.7661 44.391 49.7804 44.2965 49.7748C44.202 49.7691 44.1098 49.7435 44.0259 49.6996C43.9421 49.6557 43.8685 49.5945 43.81 49.5201C43.7434 49.455 43.6906 49.3772 43.6545 49.2914C43.6184 49.2055 43.5999 49.1133 43.5999 49.0201C43.5999 48.927 43.6184 48.8348 43.6545 48.7489C43.6906 48.663 43.7434 48.5853 43.81 48.5201C44.13 48.1601 44.47 48.3502 44.74 48.6002C44.8132 48.657 44.8736 48.7284 44.9173 48.8102C44.961 48.8919 44.987 48.9821 44.9936 49.0746C45.0002 49.167 44.9873 49.2597 44.9556 49.3468C44.924 49.4339 44.8744 49.5135 44.81 49.5802Z" fill="#F4CCCC"/>
<path id="Vector_8" d="M28.83 30.3C28.7251 30.2154 28.6557 30.0946 28.6353 29.9614C28.615 29.8282 28.6452 29.6922 28.72 29.5801C28.7668 29.5059 28.8278 29.4419 28.8996 29.3916C28.9714 29.3413 29.0524 29.3057 29.1381 29.2871C29.2237 29.2685 29.3122 29.267 29.3984 29.2829C29.4846 29.2989 29.5667 29.3318 29.64 29.3799C29.724 29.4093 29.7986 29.4607 29.8561 29.5286C29.9136 29.5964 29.952 29.6785 29.9673 29.7661C29.9826 29.8537 29.9742 29.9438 29.9431 30.0271C29.9119 30.1104 29.8591 30.1839 29.79 30.24C29.6615 30.3592 29.4957 30.4302 29.3207 30.4411C29.1458 30.4521 28.9724 30.4023 28.83 30.3Z" fill="#F7BDBD"/>
<path id="Vector_9" d="M25.57 34.55C25.5278 34.5936 25.476 34.6266 25.4187 34.6467C25.3614 34.6667 25.3002 34.6733 25.24 34.6655C25.1798 34.6577 25.1222 34.6359 25.0719 34.602C25.0215 34.5681 24.9798 34.5228 24.95 34.4699C24.9258 34.3957 24.9204 34.3168 24.9343 34.2399C24.9483 34.1631 24.9812 34.0909 25.03 34.03C25.0704 33.9839 25.1214 33.9483 25.1786 33.9262C25.2357 33.9041 25.2974 33.8962 25.3583 33.903C25.4192 33.9099 25.4776 33.9312 25.5284 33.9655C25.5792 33.9998 25.6209 34.0461 25.65 34.1001C25.71 34.2001 25.61 34.4 25.57 34.55Z" fill="#F6C4C4"/>
<path id="Vector_10" d="M49.5501 48C49.4301 48.06 49.28 48.2099 49.15 48.1899C49.0896 48.1847 49.0314 48.1643 48.981 48.1306C48.9305 48.0969 48.8894 48.051 48.8615 47.9971C48.8335 47.9432 48.8197 47.8832 48.8212 47.8225C48.8227 47.7618 48.8395 47.7023 48.87 47.6499C48.9134 47.5861 48.9715 47.5339 49.0394 47.4973C49.1073 47.4608 49.183 47.441 49.26 47.4399C49.3219 47.447 49.3811 47.4693 49.4324 47.5046C49.4837 47.54 49.5255 47.5875 49.5542 47.6428C49.5828 47.6981 49.5974 47.7597 49.5967 47.822C49.596 47.8843 49.58 47.9454 49.5501 48Z" fill="#F5C6C6"/>
<path id="Vector_11" d="M72.3399 21.47C71.8799 21.73 71.4399 22.3599 70.9599 21.6599C70.6499 21.2199 70.9599 20.7699 71.3099 20.4499C71.6599 20.1299 72.0999 19.9101 72.5099 20.3401C72.9199 20.7701 72.7299 21.16 72.3399 21.47Z" fill="#E7B3B3"/>
<path id="Vector_12" d="M66.07 25.5801C66.2162 25.6964 66.3157 25.8612 66.3506 26.0447C66.3855 26.2282 66.3533 26.4183 66.26 26.5801C66.206 26.6772 66.1332 26.7624 66.0456 26.8308C65.9581 26.8992 65.8578 26.9494 65.7506 26.9783C65.6433 27.0072 65.5314 27.0142 65.4213 26.999C65.3113 26.9839 65.2054 26.9467 65.11 26.8899C65.0305 26.8377 64.9625 26.77 64.91 26.6907C64.8576 26.6114 64.8219 26.5223 64.805 26.4287C64.7882 26.3351 64.7906 26.2391 64.8121 26.1465C64.8336 26.0539 64.8737 25.9665 64.93 25.8899C65.0427 25.7005 65.2247 25.5625 65.4374 25.5046C65.65 25.4468 65.8769 25.4739 66.07 25.5801Z" fill="#E3B3B3"/>
<path id="Vector_13" d="M58.33 21.9999C58.1 22.7799 57.77 22.68 57.55 22.58C57.4409 22.5498 57.3396 22.4963 57.2532 22.423C57.1668 22.3498 57.0974 22.2584 57.0498 22.1557C57.0023 22.0529 56.9776 21.941 56.9777 21.8278C56.9777 21.7145 57.0024 21.6027 57.05 21.4999C57.0777 21.4359 57.1183 21.3785 57.1695 21.3312C57.2206 21.2839 57.281 21.2476 57.347 21.225C57.4129 21.2024 57.4828 21.1939 57.5522 21.1999C57.6216 21.2059 57.689 21.2263 57.75 21.2599C57.9102 21.3101 58.0514 21.4078 58.1549 21.5399C58.2585 21.6721 58.3195 21.8324 58.33 21.9999Z" fill="#E7BEBE"/>
<path id="Vector_14" d="M72.56 30.44C72.24 30.72 71.95 31.1401 71.44 30.8101C71.291 30.7153 71.1848 30.5663 71.1438 30.3946C71.1027 30.2229 71.13 30.0418 71.22 29.8899C71.53 29.2799 72.04 29.3602 72.56 29.6102C72.77 29.8902 72.6 30.16 72.56 30.44Z" fill="#E9C2C2"/>
<path id="Vector_15" d="M64.7201 21.11C64.6928 21.1679 64.6537 21.2194 64.6053 21.2614C64.557 21.3033 64.5004 21.3346 64.4392 21.3534C64.378 21.3722 64.3136 21.3782 64.25 21.3707C64.1865 21.3632 64.1252 21.3425 64.0701 21.3099C63.9875 21.289 63.9109 21.2491 63.8464 21.1935C63.7819 21.1379 63.7311 21.0682 63.6981 20.9896C63.6652 20.9111 63.6509 20.8261 63.6564 20.7411C63.662 20.6561 63.6872 20.5735 63.73 20.4999C63.86 20.2099 64.15 20.2199 64.39 20.2999C64.79 20.4399 64.8501 20.75 64.7201 21.11Z" fill="#EED2D2"/>
<path id="Vector_16" d="M69.86 17.1699C70.09 17.3299 70.01 17.68 69.81 17.98C69.7702 18.0559 69.7146 18.1224 69.647 18.175C69.5793 18.2277 69.5012 18.2652 69.4178 18.2851C69.3344 18.305 69.2477 18.3069 69.1636 18.2905C69.0795 18.2741 68.9998 18.2397 68.93 18.1899C68.53 17.9499 68.59 17.6 68.81 17.3C68.8659 17.2167 68.9391 17.1463 69.0245 17.0937C69.11 17.0411 69.2058 17.0077 69.3053 16.9953C69.4049 16.983 69.506 16.992 69.6017 17.0222C69.6974 17.0523 69.7855 17.1027 69.86 17.1699Z" fill="#E0ABAB"/>
<path id="Vector_17" d="M72.5601 30.44V29.6101C72.8801 29.3301 73.3701 28.86 73.5601 29.46C73.7501 30.06 73.0001 30.14 72.5601 30.44Z" fill="#C04646"/>
<path id="Vector_18" d="M67.08 13.1201C67.22 12.8201 66.98 12.84 66.72 12.76C66.5913 12.7312 66.4788 12.6537 66.4061 12.5437C66.3334 12.4337 66.3061 12.2996 66.33 12.1699C66.3432 12.084 66.3791 12.0031 66.434 11.9356C66.4889 11.8681 66.5607 11.8165 66.6422 11.7859C66.7236 11.7554 66.8117 11.747 66.8975 11.7617C66.9832 11.7765 67.0634 11.8141 67.13 11.8701C67.36 12.0001 67.45 12.2501 67.08 13.1201Z" fill="#EACFCF"/>
<path id="Vector_19" d="M70.8 12.4498C70.5 12.2798 70.52 12.0199 70.63 11.7599C70.74 11.4999 71.05 11.47 71.3 11.6C71.55 11.73 71.58 12.0299 71.47 12.2899C71.36 12.5499 71.06 12.5398 70.8 12.4498Z" fill="#E9C1C1"/>
<path id="Vector_20" d="M57.59 18.21C57.74 18.44 57.84 18.6801 57.54 18.8501C57.4878 18.8856 57.4288 18.9097 57.3666 18.9209C57.3045 18.9321 57.2407 18.9299 57.1794 18.9148C57.1181 18.8997 57.0606 18.872 57.0108 18.8333C56.9609 18.7945 56.9198 18.7456 56.89 18.69C56.8604 18.6128 56.8504 18.5296 56.8608 18.4475C56.8713 18.3655 56.902 18.2873 56.95 18.22C57.13 18 57.37 18 57.59 18.21Z" fill="#EDCBCB"/>
<path id="Vector_21" d="M63.4 15.1799C63.19 14.4999 63.4 14.1799 64.15 14.2499C64.2756 14.2663 64.3944 14.317 64.4932 14.3964C64.5919 14.4758 64.667 14.5807 64.71 14.6999C64.6935 14.9166 64.6108 15.123 64.473 15.2912C64.3353 15.4593 64.1492 15.581 63.94 15.6398C63.8151 15.6237 63.6976 15.5718 63.6017 15.4902C63.5058 15.4085 63.4357 15.3006 63.4 15.1799Z" fill="#E1A9A9"/>
<path id="Vector_22" d="M72.1999 14.4498C72.1199 14.6698 71.9799 14.7099 71.7999 14.5599C71.7379 14.4982 71.699 14.417 71.6899 14.33C71.6899 14.12 71.8199 13.9499 71.9999 14.0199C72.1799 14.0899 72.1399 14.2998 72.1999 14.4498Z" fill="#BB3939"/>
<path id="Vector_23" d="M59.5 22.47C59.5 22.54 59.5 22.63 59.43 22.67C59.36 22.71 59.15 22.7401 59.18 22.5301C59.18 22.4801 59.27 22.41 59.34 22.4C59.41 22.39 59.44 22.44 59.5 22.47Z" fill="#BE4242"/>
<path id="Vector_24" d="M63.9299 15.6201L64.6999 14.6799C64.9999 15.4199 64.6599 15.6901 63.9299 15.6201Z" fill="#E2A4A4"/>
<path id="Vector_25" d="M63.3999 15.1799L63.9499 15.6201C63.5199 15.7801 63.3899 15.5699 63.3999 15.1799Z" fill="#E2A4A4"/>
<path id="Vector_26" d="M64.71 14.7001L64.15 14.2601C64.54 14.1501 64.77 14.2401 64.71 14.7001Z" fill="#E2A4A4"/>
</g>
</svg>
