<svg width="84" height="94" viewBox="0 0 84 94" fill="none" xmlns="http://www.w3.org/2000/svg">
<g id="cakeBg3">
<path id="Vector" d="M83.09 65.65C83.09 66.02 83.09 66.3901 83.09 66.7601C83.46 71.9801 82.09 73.9002 76.4 76.1102C70.31 78.5002 64.09 80.56 57.91 82.68C52.5351 84.603 47.0605 86.2355 41.5101 87.5702C32.2001 89.6802 22.8601 91.6901 13.5101 93.8001C12.928 93.9639 12.3111 93.9567 11.733 93.7794C11.155 93.6021 10.6401 93.2621 10.25 92.8001C9.91219 92.4081 9.72636 91.9075 9.72636 91.39C9.72636 90.8724 9.91219 90.3722 10.25 89.9801C10.83 89.2001 10.48 88.6001 10.16 87.9801C7.39005 82.4001 6.28005 76.3102 4.82005 70.3302C4.74674 69.7869 4.60217 69.2556 4.39006 68.7501C1.28006 63.3401 0.680045 57.4402 0.940045 51.3702C0.975047 51.001 0.975047 50.6293 0.940045 50.2601C0.310045 45.9001 2.37004 42.43 4.53004 38.94C5.16224 37.9238 6.13799 37.1681 7.28004 36.8101C10.59 35.6401 14.02 34.9402 17.41 34.1102C18.77 33.7802 19.29 33.1602 19.27 31.8502C19.27 30.1902 19.27 28.5302 19.27 26.8502C19 19.2602 21.47 12.36 24.61 5.63998C25.76 3.19998 27.36 1.37006 30.31 0.970059C31.2112 0.922066 32.1139 1.02694 32.9801 1.28012C35.6032 1.84009 38.0134 3.1336 39.93 5.0101C42.17 7.0101 44.56 8.94001 46.66 11.17C50.2477 14.7635 52.9818 19.1175 54.66 23.91C55.37 26.09 55.41 26.11 57.7901 25.66C62.12 24.85 66.4401 24.01 70.7901 23.38C75.9201 22.64 78.9201 25.49 80.1301 29.15C80.98 31.73 81.1301 34.5501 81.5101 37.2601C82.1301 41.2601 81.36 45.3902 82.44 49.3502C82.4606 49.5329 82.4606 49.7172 82.44 49.9C82.3307 55.1584 82.5477 60.4185 83.09 65.65Z" fill="#F9F0F0"/>
<path id="Vector_2" d="M66.69 28.3898C69.2025 28.2943 71.6869 28.9452 73.83 30.2599C74.5589 30.6614 75.1775 31.2365 75.631 31.9342C76.0845 32.6319 76.359 33.4308 76.43 34.2599C76.7 37.1099 77.1 39.9399 77.43 42.7799C77.65 44.5999 77.43 46.2499 75.87 47.5199C74.31 48.7899 73.62 50.6299 72.98 52.5199C72.7979 53.241 72.4486 53.909 71.9605 54.4701C71.4723 55.0312 70.859 55.4697 70.17 55.7499C68.34 56.3999 67.31 56.0799 66.64 54.2899C66.0993 52.721 65.6649 51.1173 65.34 49.4899C64.8964 47.1092 63.6971 44.9351 61.92 43.2899C59.28 40.9699 56.06 40.8798 53 42.8998C50.4761 44.623 48.4154 46.9413 47 49.6498C45.52 52.3198 44.56 55.23 43 57.87C40.32 62.4 38.13 63.0699 33.51 60.5399C32.2302 59.793 31.0536 58.882 30.01 57.83C27.32 55.27 24.49 54.8298 21.13 56.4398C18.4558 57.7207 16.0523 59.5029 14.05 61.6898C13.29 62.4998 12.54 63.33 11.72 64.07C9.77001 65.84 8.53001 65.62 7.06001 63.36C5.33032 60.5943 4.60637 57.317 5.01002 54.08C5.22002 51.61 5.63001 49.1499 6.06001 46.6999C6.27245 45.1759 6.94723 43.754 7.99333 42.6256C9.03942 41.4973 10.4065 40.7168 11.91 40.3898C22.08 37.7398 32.29 35.2998 42.63 33.3898C49.25 32.1798 55.77 30.4598 62.32 28.8998C63.7505 28.5523 65.218 28.3811 66.69 28.3898Z" fill="#FF7C7C"/>
<path id="Vector_3" d="M12.18 83.65C10.99 81.21 10.97 78.49 10.44 75.9C10.3915 75.0772 10.2021 74.2689 9.88002 73.5101C9.69326 73.2689 9.56638 72.9867 9.50975 72.6869C9.45311 72.3871 9.46834 72.0783 9.55421 71.7855C9.64009 71.4928 9.79416 71.2245 10.0038 71.0028C10.2134 70.7811 10.4725 70.6123 10.76 70.5101C13.54 68.9601 15.68 66.6901 17.97 64.5101C19.69 62.8901 21.42 61.2501 23.82 60.5101C24.3119 60.2641 24.8746 60.1983 25.41 60.3243C25.9454 60.4504 26.4196 60.7603 26.75 61.2001C29.29 64.2701 32.75 65.6101 36.49 66.5201C41.24 67.6601 45.21 65.4101 47.35 61.5201C48.1398 60.0583 48.7316 58.4978 49.11 56.88C50.0081 53.2796 52.0078 50.0493 54.83 47.64C57.34 45.35 59.43 45.9801 60.29 49.2601C60.8351 51.6725 61.5026 54.0555 62.29 56.4C64.29 61.77 70.05 61.4002 73.41 59.5602C74.8148 58.8364 75.9144 57.6338 76.51 56.17C76.775 55.2351 77.3067 54.3977 78.04 53.7601C79.2 55.5901 78.44 57.55 78.67 59.38C78.9 61.21 79.43 63.17 79.22 65.13C79.2043 65.5882 79.0432 66.0295 78.76 66.39C77.9106 67.1208 76.8695 67.5929 75.76 67.7501C55.88 72.7501 36.17 78.5202 16.22 83.3102C14.91 83.6302 13.59 84.33 12.18 83.65Z" fill="#FDEAEA"/>
<path id="Vector_4" d="M23.77 27.8601C23.9335 20.8957 25.6702 14.0584 28.85 7.86014C29.98 5.51014 30.85 5.23002 33.26 6.24002C33.6122 6.37024 33.9478 6.54143 34.26 6.75003C41.01 11.75 47.01 17.41 50.55 25.26C50.92 26.08 50.55 26.4301 50.05 26.8601C49.5859 27.1594 49.0515 27.3318 48.5 27.3601C40.97 28.7901 33.43 30.1301 25.96 31.8501C23.96 32.3101 23.96 32.2501 23.82 30.3101C23.82 30.0301 23.82 29.75 23.82 29.47C23.77 29 23.77 28.4101 23.77 27.8601Z" fill="#B42323"/>
<path id="Vector_5" d="M78.68 65.79L79.21 65.1299C80.31 66.8299 79.67 68.7 79.67 70.49C79.67 71.49 78.67 71.6499 77.87 71.9399C75.52 72.7799 73.05 73.09 70.66 73.76C63.66 75.7 56.66 77.87 49.83 80.22C42.67 82.67 35.24 83.9099 27.92 85.6399C24.16 86.5299 20.38 87.2901 16.61 88.1201C13.96 88.7001 13.88 88.6701 12.69 86.1201C18.69 84.0601 24.96 82.72 31.1 81.04C45.64 77.04 60.2 73.1501 74.78 69.3701C76.69 68.8201 78.66 68.38 78.68 65.79Z" fill="#FDEAEA"/>
<path id="Vector_6" d="M78.68 65.79C79.86 68.28 79.68 68.7899 77.25 69.4099C67.75 71.9699 58.24 74.51 48.72 77.03C37.6867 79.97 26.6633 82.9168 15.65 85.8701C14.7062 86.2939 13.6417 86.3648 12.65 86.0701L12.14 83.6499L64 70.1399C68.4533 68.9666 72.8933 67.7734 77.32 66.5601C77.8565 66.491 78.3447 66.2146 78.68 65.79Z" fill="#C75A5A"/>
<path id="Vector_7" d="M37.46 56.43C37.4495 56.5197 37.4203 56.6063 37.3745 56.6842C37.3286 56.762 37.267 56.8295 37.1936 56.8822C37.1202 56.9349 37.0366 56.9717 36.9482 56.9903C36.8598 57.0089 36.7684 57.0088 36.68 56.9901C36.4986 56.9723 36.3315 56.8835 36.2153 56.743C36.0991 56.6025 36.0433 56.4216 36.06 56.2401C36.06 55.7501 36.46 55.69 36.83 55.71C36.919 55.7151 37.006 55.7378 37.0861 55.7769C37.1661 55.816 37.2376 55.8708 37.2962 55.9378C37.3549 56.0049 37.3996 56.083 37.4277 56.1676C37.4558 56.2521 37.4668 56.3412 37.46 56.43Z" fill="#F4CCCC"/>
<path id="Vector_8" d="M12.91 51.4999C12.7761 51.5003 12.647 51.4499 12.5487 51.359C12.4504 51.2681 12.3901 51.1434 12.38 51.0099C12.3689 50.9224 12.3754 50.8334 12.3992 50.7484C12.4231 50.6635 12.4637 50.5843 12.5187 50.5153C12.5737 50.4463 12.642 50.389 12.7195 50.3468C12.797 50.3047 12.8822 50.2786 12.97 50.2699C13.37 50.1999 13.67 50.42 13.62 50.84C13.5952 51.0147 13.5112 51.1754 13.3819 51.2955C13.2527 51.4157 13.0861 51.4879 12.91 51.4999Z" fill="#F7BDBD"/>
<path id="Vector_9" d="M13.06 56.8501C12.98 57.1401 12.79 57.28 12.52 57.18C12.4555 57.135 12.4027 57.0753 12.3661 57.0057C12.3296 56.936 12.3103 56.8587 12.31 56.7801C12.3113 56.7191 12.3277 56.6596 12.3577 56.6065C12.3876 56.5534 12.4302 56.5085 12.4817 56.4759C12.5331 56.4432 12.5918 56.4237 12.6526 56.4192C12.7134 56.4147 12.7743 56.4253 12.83 56.45C12.94 56.48 13 56.7101 13.06 56.8501Z" fill="#F6C4C4"/>
<path id="Vector_10" d="M40.18 52.2501C40.12 52.3701 40.1 52.59 39.99 52.65C39.9391 52.6842 39.8805 52.7051 39.8194 52.711C39.7584 52.7169 39.6968 52.7077 39.6403 52.6839C39.5837 52.6601 39.534 52.6226 39.4956 52.5748C39.4571 52.527 39.4312 52.4703 39.42 52.41C39.4126 52.332 39.4253 52.2535 39.4568 52.1817C39.4883 52.11 39.5376 52.0474 39.6 52.0001C39.653 51.9686 39.7127 51.9501 39.7742 51.9461C39.8356 51.9421 39.8972 51.9527 39.9538 51.9771C40.0104 52.0015 40.0604 52.0391 40.0997 52.0865C40.139 52.134 40.1665 52.19 40.18 52.2501Z" fill="#F5C6C6"/>
<path id="Vector_11" d="M41.19 17.2599C40.99 17.7499 41.05 18.5199 40.19 18.2599C39.68 18.1099 39.65 17.55 39.7 17.09C39.75 16.63 39.98 16.1799 40.57 16.2499C41.16 16.3199 41.29 16.7799 41.19 17.2599Z" fill="#E7B3B3"/>
<path id="Vector_12" d="M38.9 24.4099C39.0761 24.4115 39.2461 24.4743 39.3811 24.5874C39.516 24.7005 39.6076 24.857 39.64 25.03C39.6615 25.1389 39.66 25.2511 39.6357 25.3594C39.6115 25.4677 39.565 25.5698 39.4991 25.6592C39.4333 25.7485 39.3496 25.8232 39.2533 25.8784C39.1571 25.9337 39.0504 25.9682 38.94 25.98C38.7627 25.9939 38.587 25.938 38.4506 25.824C38.3141 25.7099 38.2278 25.5471 38.21 25.3701C38.1915 25.2617 38.1947 25.1506 38.2194 25.0435C38.2441 24.9363 38.29 24.8349 38.3542 24.7456C38.4184 24.6563 38.4997 24.5806 38.5934 24.5229C38.6871 24.4653 38.7913 24.4269 38.9 24.4099Z" fill="#E3B3B3"/>
<path id="Vector_13" d="M30.65 26.5201C30.96 27.2801 30.65 27.4001 30.41 27.4601C30.3059 27.5075 30.1926 27.531 30.0783 27.5291C29.964 27.5273 29.8515 27.5001 29.749 27.4493C29.6466 27.3986 29.5567 27.3258 29.4859 27.2359C29.4152 27.1461 29.3653 27.0415 29.34 26.93C29.3206 26.8635 29.316 26.7935 29.3262 26.7249C29.3365 26.6564 29.3615 26.591 29.3995 26.5331C29.4375 26.4751 29.4876 26.426 29.5464 26.3893C29.6052 26.3525 29.6712 26.329 29.74 26.3202C29.8935 26.2543 30.0639 26.2382 30.2271 26.274C30.3903 26.3099 30.5382 26.3959 30.65 26.5201Z" fill="#E7BEBE"/>
<path id="Vector_14" d="M47 24.1001C46.93 24.5201 47 25.0301 46.36 25.1001C46.1851 25.1229 46.0083 25.0757 45.8679 24.969C45.7275 24.8623 45.6348 24.7046 45.61 24.53C45.47 23.86 45.92 23.6 46.48 23.47C46.81 23.54 46.86 23.8601 47 24.1001Z" fill="#E9C2C2"/>
<path id="Vector_15" d="M35 21.7799C35.07 22.0999 34.86 22.26 34.61 22.34C34.5342 22.3773 34.4506 22.3958 34.3661 22.3942C34.2816 22.3926 34.1987 22.3711 34.1243 22.331C34.0499 22.2908 33.9862 22.2335 33.9385 22.1637C33.8908 22.094 33.8605 22.0137 33.85 21.9298C33.76 21.6198 33.99 21.45 34.23 21.36C34.67 21.21 34.91 21.4199 35 21.7799Z" fill="#EED2D2"/>
<path id="Vector_16" d="M36.56 15.48C36.83 15.48 36.99 15.7899 37.03 16.1399C37.0457 16.2252 37.0433 16.3129 37.023 16.3972C37.0027 16.4815 36.9649 16.5606 36.9122 16.6294C36.8594 16.6982 36.7928 16.7552 36.7166 16.7966C36.6405 16.8381 36.5565 16.8632 36.47 16.8701C36.01 16.9301 35.84 16.61 35.82 16.25C35.8 15.89 35.94 15.56 36.56 15.48Z" fill="#E0ABAB"/>
<path id="Vector_17" d="M47 24.1001L46.48 23.46C46.55 23.04 46.64 22.37 47.18 22.7C47.72 23.03 47.11 23.6301 47 24.1001Z" fill="#C04646"/>
<path id="Vector_18" d="M31.85 14.0801C31.76 13.7601 31.59 13.9401 31.34 14.0801C31.2219 14.1394 31.0852 14.1494 30.9596 14.1082C30.8341 14.0669 30.73 13.9779 30.67 13.8601C30.628 13.7853 30.6063 13.7007 30.6072 13.615C30.6081 13.5292 30.6315 13.4452 30.675 13.3713C30.7185 13.2974 30.7807 13.2362 30.8553 13.1938C30.9298 13.1515 31.0142 13.1294 31.1 13.1299C31.36 12.9999 31.59 13.1701 31.85 14.0801Z" fill="#EACFCF"/>
<path id="Vector_19" d="M34.32 11.2201C33.97 11.2801 33.83 11.0602 33.75 10.7902C33.67 10.5202 33.89 10.3001 34.17 10.2501C34.45 10.2001 34.66 10.4 34.74 10.68C34.82 10.96 34.58 11.1301 34.32 11.2201Z" fill="#E9C1C1"/>
<path id="Vector_20" d="M27.67 24C27.93 24.08 28.16 24.21 28.04 24.53C28.0211 24.5906 27.9899 24.6464 27.9483 24.6943C27.9067 24.7422 27.8557 24.7811 27.7984 24.8083C27.7411 24.8356 27.6788 24.8508 27.6154 24.8528C27.552 24.8548 27.4889 24.8436 27.43 24.8201C27.36 24.7751 27.3012 24.7148 27.2579 24.6438C27.2146 24.5728 27.1879 24.4927 27.18 24.4099C27.15 24.0999 27.37 24 27.67 24Z" fill="#EDCBCB"/>
<path id="Vector_21" d="M30.29 18C29.69 17.61 29.7 17.2101 30.29 16.8101C30.3976 16.7467 30.5201 16.7134 30.645 16.7134C30.7698 16.7134 30.8924 16.7467 31 16.8101C31.1322 16.984 31.2038 17.1965 31.2038 17.415C31.2038 17.6336 31.1322 17.846 31 18.02C30.8929 18.0872 30.7683 18.121 30.642 18.1174C30.5156 18.1139 30.3932 18.0731 30.29 18Z" fill="#E1A9A9"/>
<path id="Vector_22" d="M36.66 11.8998C36.73 12.1198 36.6601 12.2399 36.4201 12.2399C36.3314 12.229 36.2497 12.1865 36.19 12.12C36.05 11.96 36.05 11.7498 36.24 11.6798C36.43 11.6098 36.52 11.8198 36.66 11.8998Z" fill="#BB3939"/>
<path id="Vector_23" d="M31.83 26.1202C31.83 26.1902 31.92 26.2601 31.9 26.3201C31.88 26.3801 31.73 26.5501 31.62 26.3201C31.51 26.0901 31.62 26.1702 31.62 26.1102C31.62 26.0502 31.77 26.1302 31.83 26.1202Z" fill="#BE4242"/>
<path id="Vector_24" d="M31 18C31 17.6 31 17.2 31 16.79C31.64 17.2 31.58 17.61 31 18Z" fill="#E2A4A4"/>
<path id="Vector_25" d="M30.29 18H31C30.75 18.39 30.52 18.31 30.29 18Z" fill="#E2A4A4"/>
<path id="Vector_26" d="M31 16.8001H30.29C30.52 16.4801 30.75 16.4101 31 16.8001Z" fill="#E2A4A4"/>
</g>
</svg>
