<svg width="77" height="64" viewBox="0 0 77 64" fill="none" xmlns="http://www.w3.org/2000/svg">
<g id="chestnut">
<path id="Vector" d="M32.1 61.6499C39.38 63.5399 47.4 63.4 54.79 62.55C56.7063 62.3856 58.6 62.0202 60.44 61.46C62.15 60.88 63.59 59.95 64.05 58.77C64.1065 58.6549 64.1359 58.5282 64.1359 58.3999C64.1359 58.2716 64.1065 58.1452 64.05 58.03C63.5565 57.5406 62.9111 57.2337 62.22 57.1599C60.5205 56.7869 58.7958 56.5396 57.06 56.4199" fill="#0B0B0B"/>
<path id="Vector_2" d="M2.39001 39C4.02001 45.47 8.82 53.0001 14.88 55.8101C20.94 58.6201 28.26 61.31 34.94 61.23C42.12 61.15 49.41 60.17 55.94 57.23C62.47 54.29 70.28 47.23 72.94 40.51C79.45 24 68.94 9.50999 66.44 6.98999" fill="#5E4531"/>
<path id="Vector_3" d="M1.17997 39.3099C3.45997 47.8399 8.84995 54.61 16.97 58.07C21.341 60.049 25.9595 61.428 30.7 62.1698C35.8117 62.719 40.9771 62.4898 46.02 61.4899C55.3204 59.9818 63.7604 55.1579 69.78 47.9098C72.478 44.558 74.4125 40.6582 75.4488 36.4821C76.485 32.306 76.5981 27.9541 75.78 23.7299C74.69 17.5099 71.78 10.66 67.34 6.06995C66.22 4.91995 64.45 6.68997 65.57 7.83997C74.25 16.75 76.71 33.12 69.9 43.62C60.03 58.84 38.9 63.2599 22.49 57.5499C17.91 55.9499 13.4 54.1799 10.05 50.5499C6.97757 47.1604 4.77142 43.0773 3.61998 38.6498C3.52433 38.3396 3.31176 38.0788 3.0272 37.9225C2.74264 37.7662 2.40844 37.7269 2.09532 37.8126C1.7822 37.8984 1.5147 38.1025 1.34947 38.382C1.18424 38.6614 1.13424 38.9943 1.21 39.3099H1.17997Z" fill="black"/>
<path id="Vector_4" d="M3.39 40.9999C5.39 43.9999 22.58 58.4099 56.51 36.8099C71.93 26.9899 72.43 12.4799 66.92 7.48987C59.28 0.549873 32.97 2.91981 25.01 7.66981C1.88999 21.4698 0.0499997 35.9999 3.39 40.9999Z" fill="#AD8961"/>
<path id="Vector_5" d="M2.31003 41.6101C6.31003 47.4501 15.38 49.51 21.92 49.7C29.36 49.93 36.7301 47.9701 43.5301 45.1001C52.1201 41.4801 61.34 36.6001 66.89 28.8701C70.35 24.0401 72.51 17.5299 70.79 11.6299C69.29 6.46991 64.88 4.1 59.92 2.97C52.92 1.38 45.44 1.64013 38.37 2.60013C31.644 3.34911 25.2087 5.75421 19.64 9.60013C12.64 14.4201 5.80001 20.6001 2.48001 28.6001C0.830009 32.6001 -0.159974 37.7801 2.31003 41.6001C3.17003 42.9501 5.31 41.7001 4.47 40.3401C2.62 37.4501 3.31005 33.53 4.40005 30.49C6.57005 24.42 11.26 19.4101 16.13 15.3601C21.51 10.8901 27.0501 7.35993 33.9001 5.89993C40.3174 4.50905 46.9019 4.05113 53.45 4.54007C58.02 4.88007 64.61 5.59992 67.33 9.88992C70.17 14.3899 68.79 20.5799 66.41 24.8899C62.16 32.6599 53.9901 37.3001 46.2801 41.0601C39.7301 44.2601 32.5801 46.6801 25.2801 47.0601C20.2154 47.4527 15.132 46.5906 10.48 44.5501C8.40001 43.5501 5.65001 41.93 4.48001 40.26C3.56001 39 1.39003 40.2801 2.31003 41.6101Z" fill="black"/>
<path id="Vector_6" d="M7.50999 38.8601C11.75 44.2001 19.68 45.6399 26.09 45.1499C32.3811 44.503 38.4907 42.66 44.09 39.7199C50.54 36.5199 57.2 32.6199 60.95 26.2399C63.3406 22.3961 64.2803 17.8252 63.6 13.3501C62.79 9.16006 59.06 7.44994 55.17 6.47994C44.39 3.79994 31.51 7.65984 22.44 13.6298C16.73 17.3998 10.9 22.1999 7.83 28.4699C6.39 31.4699 5.12 35.6701 7.27 38.6101C8.21 39.9001 10.38 38.6101 9.42997 37.3501C7.82997 35.1501 8.91997 31.9199 9.98997 29.7399C12.3 24.9999 16.34 21.17 20.5 18.05C28.79 11.79 39.28 7.80996 49.79 8.24996C53.22 8.38996 59.79 9.13002 60.96 13.06C62.05 16.58 60.96 20.7799 59.37 23.9399C56.37 29.7999 50.76 33.3301 45.13 36.3701C39.7354 39.4479 33.8258 41.5181 27.69 42.4799C21.43 43.2899 13.46 42.4 9.22996 37.09C8.26996 35.83 6.50999 37.6201 7.50999 38.8601Z" fill="black"/>
<path id="Vector_7" d="M7.57003 35.5901C7.49925 35.4207 7.45213 35.2423 7.43001 35.06C7.08001 32.72 4.93003 16.4499 11.89 9.95995C15.39 6.68995 16.5 4.18993 16.68 2.43993C16.7156 2.12817 16.8179 1.82788 16.9798 1.55907C17.1416 1.29026 17.3594 1.05915 17.6182 0.881821C17.8771 0.704495 18.1711 0.585056 18.4802 0.531235C18.7894 0.477414 19.1064 0.490651 19.41 0.570053C22.344 1.34134 25.3818 1.64164 28.41 1.45995C34.9 0.959946 53.33 -2.53991 60.87 10.3601C60.9176 10.429 60.9579 10.5027 60.99 10.5801C61.69 12.1301 68.15 27.9099 44.89 37.9399C20.66 48.3699 10.76 43.3201 7.57003 35.5901Z" fill="#DECD9E"/>
<path id="Vector_8" d="M22 44.3502C19.3913 44.4042 16.7969 43.9525 14.36 43.0201C12.7159 42.3774 11.2218 41.4027 9.97104 40.1571C8.72024 38.9115 7.73951 37.4216 7.09 35.7802C6.99866 35.5734 6.93796 35.3543 6.90995 35.13C6.44995 32.02 4.48 16.1302 11.53 9.59021C15.08 6.28021 16.01 3.85001 16.17 2.39001C16.2105 2.01181 16.3315 1.64665 16.5246 1.31897C16.7178 0.991289 16.9787 0.708756 17.29 0.49011C17.6111 0.267171 17.9762 0.115254 18.3608 0.0445538C18.7453 -0.0261462 19.1405 -0.0139153 19.52 0.0801984C22.398 0.840023 25.3786 1.13695 28.3499 0.960081C29.0099 0.910081 29.79 0.820101 30.68 0.730101C38.36 -0.0698993 54.34 -1.73977 61.28 10.1102C61.33 10.1902 61.37 10.28 61.42 10.38C63.2057 14.6308 63.2774 19.4077 61.62 23.7101C59.29 29.7101 53.72 34.66 45.06 38.39C35.87 42.36 28.16 44.3502 22 44.3502ZM7.99997 35.4C8.60279 36.9156 9.51022 38.2913 10.6661 39.442C11.822 40.5927 13.2017 41.4942 14.7199 42.0902C21.2899 44.7602 31.36 43.2001 44.65 37.4801C53.06 33.8501 58.45 29.1002 60.65 23.3502C62.2111 19.2968 62.1466 14.7971 60.4699 10.7902C60.4405 10.7281 60.4071 10.668 60.37 10.6102C53.77 -0.679772 38.21 0.950101 30.74 1.7301C29.85 1.8201 29.05 1.90007 28.38 1.95007C25.3016 2.13212 22.2138 1.8285 19.23 1.05017C18.99 0.990197 18.74 0.982369 18.4968 1.02722C18.2536 1.07207 18.0228 1.16857 17.82 1.31018C17.6233 1.44522 17.4587 1.62165 17.3377 1.82727C17.2168 2.03289 17.1425 2.26263 17.12 2.50012C16.87 4.86012 15.21 7.5002 12.17 10.3302C5.34996 16.6902 7.57996 33.1301 7.85996 34.9801C7.88964 35.1252 7.93666 35.2661 7.99997 35.4Z" fill="black"/>
<path id="Vector_9" d="M22 44.3502C19.3913 44.4042 16.7969 43.9525 14.36 43.0201C12.7159 42.3774 11.2218 41.4027 9.97104 40.1571C8.72024 38.9115 7.73951 37.4216 7.09 35.7802C6.99866 35.5734 6.93796 35.3543 6.90995 35.13C6.44995 32.02 4.48 16.1302 11.53 9.59021C15.08 6.28021 16.01 3.85001 16.17 2.39001C16.2105 2.01181 16.3315 1.64665 16.5246 1.31897C16.7178 0.991289 16.9787 0.708756 17.29 0.49011C17.6111 0.267171 17.9762 0.115254 18.3608 0.0445538C18.7453 -0.0261462 19.1405 -0.0139153 19.52 0.0801984C22.398 0.840023 25.3786 1.13695 28.3499 0.960081C29.0099 0.910081 29.79 0.820101 30.68 0.730101C38.36 -0.0698993 54.34 -1.73977 61.28 10.1102C61.33 10.1902 61.37 10.28 61.42 10.38C63.2057 14.6308 63.2774 19.4077 61.62 23.7101C59.29 29.7101 53.72 34.66 45.06 38.39C35.87 42.36 28.16 44.3502 22 44.3502ZM7.99997 35.4C8.60279 36.9156 9.51022 38.2913 10.6661 39.442C11.822 40.5927 13.2017 41.4942 14.7199 42.0902C21.2899 44.7602 31.36 43.2001 44.65 37.4801C53.06 33.8501 58.45 29.1002 60.65 23.3502C62.2111 19.2968 62.1466 14.7971 60.4699 10.7902C60.4405 10.7281 60.4071 10.668 60.37 10.6102C53.77 -0.679772 38.21 0.950101 30.74 1.7301C29.85 1.8201 29.05 1.90007 28.38 1.95007C25.3016 2.13212 22.2138 1.8285 19.23 1.05017C18.99 0.990197 18.74 0.982369 18.4968 1.02722C18.2536 1.07207 18.0228 1.16857 17.82 1.31018C17.6233 1.44522 17.4587 1.62165 17.3377 1.82727C17.2168 2.03289 17.1425 2.26263 17.12 2.50012C16.87 4.86012 15.21 7.5002 12.17 10.3302C5.34996 16.6902 7.57996 33.1301 7.85996 34.9801C7.88964 35.1252 7.93666 35.2661 7.99997 35.4Z" fill="black"/>
<path id="Vector_10" d="M7.89001 38C8.42118 38.5735 9.01109 39.0897 9.65002 39.54C10.2856 40.0015 10.9541 40.4159 11.65 40.78C13.0026 41.5104 14.4355 42.0809 15.92 42.48C17.3897 42.8954 18.8971 43.1634 20.42 43.28C21.9343 43.4 23.4557 43.4 24.97 43.28C28.0301 43.0342 31.0507 42.43 33.97 41.48C36.9005 40.5504 39.7528 39.3901 42.5 38.01C45.2775 36.6529 47.9783 35.1439 50.59 33.49C53.1755 31.9 55.5052 29.9276 57.5 27.6399C59.5058 25.3524 61.0538 22.7012 62.06 19.8301C62.5678 18.3842 62.8838 16.8781 63 15.3501C63.0552 14.5858 63.025 13.8177 62.91 13.0601C62.8403 12.2834 62.5211 11.5501 62 10.97C62.6278 11.4824 63.0733 12.1839 63.27 12.97C63.5018 13.744 63.6394 14.5432 63.68 15.3501C63.7652 16.9668 63.6136 18.5871 63.23 20.1599C62.453 23.3282 61.0149 26.2967 59.01 28.8701C57.0126 31.4473 54.6035 33.6771 51.88 35.47C49.2191 37.2322 46.454 38.8318 43.6 40.26C40.7205 41.6738 37.7265 42.8413 34.65 43.75C33.87 43.97 33.09 44.1501 32.3 44.3401C31.51 44.5301 30.73 44.69 29.93 44.8C28.3335 45.0681 26.7187 45.2118 25.1 45.23C21.8501 45.3129 18.6146 44.7696 15.57 43.6299C14.064 43.0565 12.6388 42.2903 11.33 41.3501C9.9866 40.4551 8.82031 39.3192 7.89001 38Z" fill="black"/>
<path id="Vector_11" d="M14.16 14.9098C13.2719 15.7688 12.64 16.8577 12.3345 18.0548C12.029 19.252 12.0621 20.5104 12.43 21.6899C12.72 22.6099 14.17 22.2199 13.88 21.2899C13.5777 20.368 13.5441 19.379 13.7832 18.4386C14.0222 17.4983 14.524 16.6455 15.23 15.9799C15.92 15.2999 14.86 14.2398 14.16 14.9098Z" fill="#AD8961"/>
<path id="Vector_12" d="M13.4401 27.4399C13.8379 27.4399 14.2194 27.282 14.5007 27.0007C14.782 26.7194 14.9401 26.3378 14.9401 25.9399C14.9401 25.5421 14.782 25.1607 14.5007 24.8794C14.2194 24.5981 13.8379 24.4399 13.4401 24.4399C13.0422 24.4399 12.6607 24.5981 12.3794 24.8794C12.0981 25.1607 11.9401 25.5421 11.9401 25.9399C11.9401 26.3378 12.0981 26.7194 12.3794 27.0007C12.6607 27.282 13.0422 27.4399 13.4401 27.4399Z" fill="#AD8961"/>
</g>
</svg>
