<svg width="272" height="242" viewBox="0 0 272 242" fill="none" xmlns="http://www.w3.org/2000/svg">
<g id="houseLeft">
<path id="Vector" d="M70.07 171.15H42.27C33.4942 171.15 26.38 178.264 26.38 187.04V189.68C26.38 198.456 33.4942 205.57 42.27 205.57H70.07C78.8458 205.57 85.96 198.456 85.96 189.68V187.04C85.96 178.264 78.8458 171.15 70.07 171.15Z" fill="#959CE2" stroke="black" stroke-width="4" stroke-miterlimit="10"/>
<path id="Vector_2" d="M170 138.71H28.37C24.1597 138.723 20.1257 140.402 17.1486 143.379C14.1715 146.356 12.4932 150.39 12.48 154.6V223.45C12.4932 227.66 14.1715 231.694 17.1486 234.671C20.1257 237.648 24.1597 239.327 28.37 239.34H170C174.209 239.327 178.242 237.648 181.218 234.671C184.193 231.693 185.869 227.659 185.88 223.45V154.6C185.869 150.391 184.193 146.357 181.218 143.379C178.242 140.402 174.209 138.723 170 138.71ZM85.3 189C85.2868 193.209 83.6081 197.242 80.6307 200.218C77.6533 203.193 73.6193 204.869 69.41 204.88H41.61C37.4006 204.869 33.3666 203.193 30.3892 200.218C27.4118 197.242 25.7332 193.209 25.72 189V186.35C25.7332 182.14 27.4115 178.106 30.3886 175.129C33.3657 172.152 37.3997 170.473 41.61 170.46H69.41C73.6202 170.473 77.6542 172.152 80.6313 175.129C83.6084 178.106 85.2868 182.14 85.3 186.35V189Z" fill="#FBD06A" stroke="black" stroke-width="4" stroke-miterlimit="10"/>
<path id="Vector_3" d="M185.92 130.88V92.26C185.92 90.1834 185.095 88.1918 183.627 86.7234C182.158 85.255 180.167 84.4299 178.09 84.4299H25.09C23.5109 84.4301 21.9688 84.9077 20.666 85.8C19.3633 86.6924 18.3607 87.9576 17.79 89.4299L2.73999 128C2.27847 129.188 2.11332 130.47 2.25882 131.735C2.40432 133.001 2.8561 134.212 3.57504 135.264C4.29398 136.316 5.25844 137.177 6.38491 137.772C7.51139 138.367 8.76595 138.679 10.04 138.68H178.09C180.161 138.68 182.149 137.859 183.616 136.397C185.084 134.935 185.912 132.951 185.92 130.88Z" fill="#959CE2" stroke="black" stroke-width="4" stroke-miterlimit="10"/>
<path id="Vector_4" d="M249.48 15.5802H201.81C197.6 15.5934 193.566 17.2715 190.589 20.2486C187.612 23.2257 185.933 27.2599 185.92 31.4701V223.47C185.933 227.68 187.612 231.714 190.589 234.692C193.566 237.669 197.6 239.347 201.81 239.36H207.81V202.29C207.823 198.08 209.502 194.046 212.479 191.069C215.456 188.092 219.49 186.413 223.7 186.4H227.7C231.91 186.413 235.944 188.092 238.921 191.069C241.898 194.046 243.577 198.08 243.59 202.29V239.36H249.59C253.8 239.347 257.834 237.669 260.811 234.692C263.788 231.714 265.467 227.68 265.48 223.47V31.4701C265.473 29.376 265.054 27.3038 264.247 25.3717C263.439 23.4396 262.258 21.6855 260.772 20.2098C259.287 18.7342 257.524 17.5658 255.587 16.7714C253.649 15.977 251.574 15.5723 249.48 15.5802Z" fill="#959CE2" stroke="black" stroke-width="4" stroke-miterlimit="10"/>
<path id="Vector_5" d="M227.63 186.38H223.63C219.42 186.393 215.386 188.071 212.409 191.049C209.432 194.026 207.753 198.06 207.74 202.27V239.34H243.49V202.27C243.477 198.065 241.803 194.035 238.832 191.059C235.861 188.083 231.835 186.401 227.63 186.38Z" fill="#FBD06A" stroke="black" stroke-width="4" stroke-miterlimit="10"/>
<path id="Vector_6" d="M141.57 185.72H137.57C133.361 185.731 129.327 187.407 126.349 190.382C123.372 193.358 121.693 197.391 121.68 201.6V238.68H157.43V201.6C157.417 197.396 155.742 193.367 152.771 190.393C149.8 187.418 145.774 185.738 141.57 185.72Z" fill="#FBD06A" stroke="black" stroke-width="4" stroke-miterlimit="10"/>
<path id="Vector_7" d="M264 2.99997H184.6C183.759 2.90241 182.908 2.98375 182.101 3.23874C181.294 3.49372 180.55 3.91658 179.918 4.47946C179.286 5.04234 178.78 5.73265 178.434 6.50485C178.087 7.27705 177.908 8.11363 177.908 8.95993C177.908 9.80623 178.087 10.6431 178.434 11.4153C178.78 12.1875 179.286 12.8775 179.918 13.4404C180.55 14.0033 181.294 14.4261 182.101 14.6811C182.908 14.9361 183.759 15.0174 184.6 14.9199H264C265.462 14.7503 266.81 14.0495 267.789 12.9507C268.768 11.8518 269.308 10.4315 269.308 8.95993C269.308 7.4884 268.768 6.06832 267.789 4.96945C266.81 3.87058 265.462 3.1696 264 2.99997Z" fill="#FBD06A" stroke="black" stroke-width="4" stroke-miterlimit="10"/>
<path id="Vector_8" d="M260.73 143.35H190.56V146H260.73V143.35Z" fill="#EFF3F4"/>
<path id="Vector_9" d="M236.67 98.3301H215.95C210.703 98.3301 206.45 102.583 206.45 107.83V113.99C206.45 119.237 210.703 123.49 215.95 123.49H236.67C241.917 123.49 246.17 119.237 246.17 113.99V107.83C246.17 102.583 241.917 98.3301 236.67 98.3301Z" fill="#EFF3F4" stroke="black" stroke-width="3" stroke-miterlimit="10"/>
<path id="Vector_10" d="M236 42.72H215.28C210.033 42.72 205.78 46.9733 205.78 52.22V58.3799C205.78 63.6266 210.033 67.8799 215.28 67.8799H236C241.247 67.8799 245.5 63.6266 245.5 58.3799V52.22C245.5 46.9733 241.247 42.72 236 42.72Z" fill="#EFF3F4" stroke="black" stroke-width="3" stroke-miterlimit="10"/>
<path id="Vector_11" d="M225.65 187.04V240" stroke="black" stroke-width="4" stroke-miterlimit="10"/>
<path id="Vector_12" d="M140.25 187.04V240" stroke="black" stroke-width="4" stroke-miterlimit="10"/>
<path id="Vector_13" d="M137.61 107.57L95 133.36C94.5295 133.647 94.1655 134.08 93.9635 134.593C93.7614 135.105 93.7323 135.67 93.8806 136.201C94.0288 136.731 94.3463 137.199 94.7849 137.533C95.2234 137.867 95.7589 138.048 96.31 138.05H181.48C182.031 138.048 182.567 137.867 183.005 137.533C183.444 137.199 183.761 136.731 183.909 136.201C184.058 135.67 184.029 135.105 183.827 134.593C183.624 134.08 183.261 133.647 182.79 133.36L140.2 107.57C139.809 107.336 139.361 107.212 138.905 107.212C138.449 107.212 138.001 107.336 137.61 107.57Z" fill="#EFF3F4" stroke="black" stroke-width="3" stroke-miterlimit="10"/>
<path id="Vector_14" d="M47.63 107.5L2.79001 133.33C2.30857 133.609 1.9323 134.038 1.71942 134.552C1.50655 135.066 1.46895 135.635 1.6124 136.173C1.75585 136.71 2.07237 137.185 2.513 137.524C2.95364 137.864 3.49381 138.049 4.04999 138.05H93.72C94.277 138.051 94.8187 137.868 95.261 137.529C95.7034 137.19 96.0216 136.715 96.1663 136.177C96.311 135.639 96.2742 135.069 96.0615 134.554C95.8488 134.039 95.4722 133.609 94.99 133.33L50.15 107.5C49.7669 107.279 49.3324 107.162 48.89 107.162C48.4477 107.162 48.0131 107.279 47.63 107.5Z" fill="#EFF3F4" stroke="black" stroke-width="3" stroke-miterlimit="10"/>
<path id="Vector_15" d="M48.89 130.77C52.5462 130.77 55.51 127.806 55.51 124.15C55.51 120.494 52.5462 117.53 48.89 117.53C45.2339 117.53 42.27 120.494 42.27 124.15C42.27 127.806 45.2339 130.77 48.89 130.77Z" fill="#EFF3F4" stroke="black" stroke-width="3" stroke-miterlimit="10"/>
<path id="Vector_16" d="M173.17 144.67H172.2C171.372 144.67 170.7 145.341 170.7 146.17V157.73C170.7 158.558 171.372 159.23 172.2 159.23H173.17C173.998 159.23 174.67 158.558 174.67 157.73V146.17C174.67 145.341 173.998 144.67 173.17 144.67Z" fill="#E0B763"/>
<path id="Vector_17" d="M165 144.67H164.03C163.202 144.67 162.53 145.341 162.53 146.17V157.73C162.53 158.558 163.202 159.23 164.03 159.23H165C165.828 159.23 166.5 158.558 166.5 157.73V146.17C166.5 145.341 165.828 144.67 165 144.67Z" fill="#E0B763"/>
<path id="Vector_18" d="M156.84 144.67H155.87C155.042 144.67 154.37 145.341 154.37 146.17V157.73C154.37 158.558 155.042 159.23 155.87 159.23H156.84C157.668 159.23 158.34 158.558 158.34 157.73V146.17C158.34 145.341 157.668 144.67 156.84 144.67Z" fill="#E0B763"/>
<path id="Vector_19" d="M148.67 144.67H147.7C146.872 144.67 146.2 145.341 146.2 146.17V157.73C146.2 158.558 146.872 159.23 147.7 159.23H148.67C149.498 159.23 150.17 158.558 150.17 157.73V146.17C150.17 145.341 149.498 144.67 148.67 144.67Z" fill="#E0B763"/>
<path id="Vector_20" d="M140.51 144.67H139.54C138.712 144.67 138.04 145.341 138.04 146.17V157.73C138.04 158.558 138.712 159.23 139.54 159.23H140.51C141.338 159.23 142.01 158.558 142.01 157.73V146.17C142.01 145.341 141.338 144.67 140.51 144.67Z" fill="#E0B763"/>
<path id="Vector_21" d="M132.34 144.67H131.37C130.542 144.67 129.87 145.341 129.87 146.17V157.73C129.87 158.558 130.542 159.23 131.37 159.23H132.34C133.168 159.23 133.84 158.558 133.84 157.73V146.17C133.84 145.341 133.168 144.67 132.34 144.67Z" fill="#E0B763"/>
<path id="Vector_22" d="M124.18 144.67H123.21C122.382 144.67 121.71 145.341 121.71 146.17V157.73C121.71 158.558 122.382 159.23 123.21 159.23H124.18C125.008 159.23 125.68 158.558 125.68 157.73V146.17C125.68 145.341 125.008 144.67 124.18 144.67Z" fill="#E0B763"/>
<path id="Vector_23" d="M116.01 144.67H115.04C114.212 144.67 113.54 145.341 113.54 146.17V157.73C113.54 158.558 114.212 159.23 115.04 159.23H116.01C116.838 159.23 117.51 158.558 117.51 157.73V146.17C117.51 145.341 116.838 144.67 116.01 144.67Z" fill="#E0B763"/>
<path id="Vector_24" d="M107.85 144.67H106.88C106.052 144.67 105.38 145.341 105.38 146.17V157.73C105.38 158.558 106.052 159.23 106.88 159.23H107.85C108.678 159.23 109.35 158.558 109.35 157.73V146.17C109.35 145.341 108.678 144.67 107.85 144.67Z" fill="#E0B763"/>
<path id="Vector_25" d="M99.69 144.67H98.72C97.8915 144.67 97.22 145.341 97.22 146.17V157.73C97.22 158.558 97.8915 159.23 98.72 159.23H99.69C100.518 159.23 101.19 158.558 101.19 157.73V146.17C101.19 145.341 100.518 144.67 99.69 144.67Z" fill="#E0B763"/>
<path id="Vector_26" d="M91.52 144.67H90.55C89.7216 144.67 89.05 145.341 89.05 146.17V157.73C89.05 158.558 89.7216 159.23 90.55 159.23H91.52C92.3484 159.23 93.02 158.558 93.02 157.73V146.17C93.02 145.341 92.3484 144.67 91.52 144.67Z" fill="#E0B763"/>
<path id="Vector_27" d="M83.36 144.67H82.39C81.5616 144.67 80.89 145.341 80.89 146.17V157.73C80.89 158.558 81.5616 159.23 82.39 159.23H83.36C84.1884 159.23 84.86 158.558 84.86 157.73V146.17C84.86 145.341 84.1884 144.67 83.36 144.67Z" fill="#E0B763"/>
<path id="Vector_28" d="M75.19 144.67H74.22C73.3915 144.67 72.72 145.341 72.72 146.17V157.73C72.72 158.558 73.3915 159.23 74.22 159.23H75.19C76.0184 159.23 76.69 158.558 76.69 157.73V146.17C76.69 145.341 76.0184 144.67 75.19 144.67Z" fill="#E0B763"/>
<path id="Vector_29" d="M67.03 144.67H66.06C65.2316 144.67 64.56 145.341 64.56 146.17V157.73C64.56 158.558 65.2316 159.23 66.06 159.23H67.03C67.8584 159.23 68.53 158.558 68.53 157.73V146.17C68.53 145.341 67.8584 144.67 67.03 144.67Z" fill="#E0B763"/>
<path id="Vector_30" d="M58.86 144.67H57.89C57.0616 144.67 56.39 145.341 56.39 146.17V157.73C56.39 158.558 57.0616 159.23 57.89 159.23H58.86C59.6884 159.23 60.36 158.558 60.36 157.73V146.17C60.36 145.341 59.6884 144.67 58.86 144.67Z" fill="#E0B763"/>
<path id="Vector_31" d="M50.7 144.67H49.73C48.9016 144.67 48.23 145.341 48.23 146.17V157.73C48.23 158.558 48.9016 159.23 49.73 159.23H50.7C51.5284 159.23 52.2 158.558 52.2 157.73V146.17C52.2 145.341 51.5284 144.67 50.7 144.67Z" fill="#E0B763"/>
<path id="Vector_32" d="M42.53 144.67H41.56C40.7316 144.67 40.06 145.341 40.06 146.17V157.73C40.06 158.558 40.7316 159.23 41.56 159.23H42.53C43.3584 159.23 44.03 158.558 44.03 157.73V146.17C44.03 145.341 43.3584 144.67 42.53 144.67Z" fill="#E0B763"/>
<path id="Vector_33" d="M34.37 144.67H33.4C32.5716 144.67 31.9 145.341 31.9 146.17V157.73C31.9 158.558 32.5716 159.23 33.4 159.23H34.37C35.1985 159.23 35.87 158.558 35.87 157.73V146.17C35.87 145.341 35.1985 144.67 34.37 144.67Z" fill="#E0B763"/>
<path id="Vector_34" d="M26.2 144.67H25.23C24.4016 144.67 23.73 145.341 23.73 146.17V157.73C23.73 158.558 24.4016 159.23 25.23 159.23H26.2C27.0284 159.23 27.7 158.558 27.7 157.73V146.17C27.7 145.341 27.0284 144.67 26.2 144.67Z" fill="#E0B763"/>
<path id="Vector_35" d="M172.33 138.71H170.39C168.733 138.71 167.39 140.053 167.39 141.71V235.01C167.39 236.667 168.733 238.01 170.39 238.01H172.33C173.987 238.01 175.33 236.667 175.33 235.01V141.71C175.33 140.053 173.987 138.71 172.33 138.71Z" fill="#EFF3F4" stroke="black" stroke-width="3" stroke-miterlimit="10"/>
</g>
</svg>
