<svg width="69" height="55" viewBox="0 0 69 55" fill="none" xmlns="http://www.w3.org/2000/svg">
<g id="nut1">
<path id="Vector" d="M45.91 13.8601C44.8205 11.123 43.4392 8.51118 41.79 6.07007C41.87 6.25007 41.94 6.42009 42.02 6.59009C43.4724 9.79778 44.3232 13.2449 44.53 16.76C44.705 20.2411 44.705 23.7288 44.53 27.21C44.3789 30.7571 44.0014 34.291 43.4 37.79C43.0291 40.2685 42.3296 42.6863 41.32 44.98C43.1333 44.38 44.9633 43.8633 46.81 43.4299C47.15 41.6699 47.41 39.8901 47.62 38.1201C48.54 30.1801 48.9 21.4201 45.91 13.8601Z" fill="#8A5835"/>
<path id="Vector_2" d="M43.25 15.76C42.93 10.76 40.6899 5.76004 38.0399 1.54004C31.7706 4.83806 25.9944 8.99839 20.88 13.8999C15.53 19.1999 11.13 25.8201 9.87998 33.3701C9.47694 35.6251 9.42294 37.9285 9.71994 40.2C10.3699 40.04 11.02 39.89 11.67 39.76C13.6878 39.2918 15.7686 39.1568 17.83 39.3601C18.35 39.4201 18.83 39.5199 19.37 39.6299C19.227 39.0138 19.1235 38.3893 19.06 37.76C18.99 37.08 18.95 36.39 18.94 35.71C18.9033 34.3419 18.9468 32.9731 19.07 31.6101C19.1948 30.2381 19.4391 28.8796 19.8 27.55C19.984 26.8721 20.2044 26.2044 20.46 25.55C20.53 25.38 20.61 25.21 20.69 25.04C20.77 24.87 20.8399 24.7001 20.9099 24.5601L21.36 23.6599C21.94 22.4499 22.5199 21.22 23.1599 20.02C23.7976 18.8106 24.4986 17.6356 25.26 16.5C26.7888 14.236 28.6731 12.2337 30.84 10.5701L30.9699 10.72C30.0024 11.6541 29.1035 12.6567 28.28 13.72C27.4663 14.7705 26.7373 15.8841 26.0999 17.05C25.4463 18.204 24.8555 19.3924 24.33 20.6101C23.79 21.8301 23.3299 23.0701 22.7899 24.3201L22.4099 25.27C22.3399 25.43 22.3 25.57 22.25 25.71C22.2 25.85 22.1399 25.9999 22.0999 26.1499C21.9306 26.769 21.7937 27.3966 21.69 28.03L21.01 31.9099L19.62 39.74C20.9749 40.0998 22.3101 40.5305 23.62 41.03L31.06 43.73C31.22 43.37 31.42 43.0399 31.56 42.6699L32.03 41.5901C32.18 41.2301 32.36 40.89 32.48 40.52C32.6 40.15 32.7599 39.7899 32.9099 39.4299C33.0599 39.0699 33.2 38.7201 33.31 38.3501L33.7 37.25C33.83 36.89 33.97 36.5299 34.08 36.1599L34.44 35.0601C34.55 34.6901 34.7 34.33 34.8 33.96C34.9 33.59 35.03 33.2201 35.14 32.8501C35.25 32.4801 35.4 32.12 35.5 31.75C35.72 31 35.95 30.26 36.15 29.51L36.7 27.24L37.12 24.95C37.24 24.18 37.34 23.3999 37.45 22.6299C37.56 21.8599 37.6 21.0801 37.69 20.3101C37.69 19.9201 37.69 19.5299 37.76 19.1399L37.81 17.97C37.9571 14.8369 37.7017 11.6979 37.05 8.62988L37.24 8.57007L37.57 9.71997L37.73 10.29C37.7905 10.4805 37.8406 10.6742 37.88 10.8701L38.12 12.04C38.19 12.43 38.29 12.81 38.33 13.21L38.49 14.3899C38.55 14.7899 38.61 15.1801 38.63 15.5801L38.7199 16.77C38.7199 17.17 38.7899 17.57 38.7899 17.96V19.1599C38.7899 19.5599 38.7899 19.9601 38.7899 20.3601C38.7899 21.1501 38.79 21.95 38.71 22.75C38.63 23.55 38.59 24.3399 38.51 25.1399L38.21 27.52L37.82 29.8899C37.67 30.6799 37.5 31.46 37.34 32.25C37.18 33.04 36.93 33.8001 36.71 34.5801C36.49 35.3601 36.16 36.0901 35.88 36.8401C35.74 37.2201 35.56 37.59 35.39 37.95C35.22 38.31 35.05 38.68 34.87 39.04C34.69 39.4 34.49 39.7501 34.2899 40.1001C34.0899 40.4501 33.89 40.7999 33.68 41.1499C33.4741 41.4946 33.2505 41.8284 33.01 42.1499L32.3 43.1499C32.181 43.3154 32.0506 43.4726 31.9099 43.6201L31.58 43.99L37.9099 46.29C38.4999 46.06 39.09 45.8301 39.69 45.6201C39.6795 45.5056 39.7039 45.3905 39.76 45.29C41.1557 42.4179 42.0421 39.3252 42.38 36.1499C43.4117 29.4052 43.7034 22.5681 43.25 15.76ZM32.9 18.3201C32.73 19.4601 32.54 20.6 32.34 21.74L32 23.45L31.64 25.1499C31.51 25.7099 31.38 26.2801 31.26 26.8501C31.14 27.4201 30.99 27.98 30.86 28.55C30.5755 29.6847 30.201 30.795 29.74 31.8701C29.2733 32.9535 28.7251 33.9997 28.0999 35C27.946 35.255 27.7791 35.502 27.5999 35.74C27.4299 35.98 27.25 36.22 27.07 36.45C26.6998 36.91 26.3024 37.3475 25.88 37.76L25.71 37.6499C25.88 37.0799 26.1099 36.56 26.2899 36.01L26.57 35.2L26.7199 34.8101C26.7199 34.6701 26.7999 34.5299 26.8499 34.3999C27.2099 33.3299 27.5599 32.2499 27.8499 31.1799C28.1399 30.1099 28.56 29.04 28.96 27.98C29.15 27.44 29.3599 26.9101 29.5399 26.3701C29.7199 25.8301 29.91 25.29 30.08 24.75L30.56 23.1101L31.02 21.45C31.32 20.35 31.62 19.2399 31.89 18.1299C32.48 15.9099 32.98 13.6599 33.51 11.4199H33.71C33.53 13.7499 33.23 16.0001 32.9 18.3201Z" fill="#D47338"/>
<path id="Vector_3" d="M31.94 18.1299C31.67 19.2399 31.37 20.35 31.07 21.45L30.61 23.1101L30.13 24.75C29.9633 25.29 29.7834 25.8301 29.59 26.3701C29.41 26.9101 29.2 27.44 29.01 27.98C28.61 29.04 28.25 30.1099 27.9 31.1799C27.55 32.2499 27.21 33.3299 26.9 34.3999C26.85 34.5299 26.82 34.6701 26.77 34.8101L26.62 35.2L26.34 36.01C26.16 36.56 25.93 37.0799 25.76 37.6499L25.93 37.76C26.3524 37.3475 26.7498 36.91 27.12 36.45C27.3 36.22 27.48 35.98 27.65 35.74C27.8292 35.502 27.9961 35.255 28.15 35C28.7751 33.9997 29.3233 32.9535 29.79 31.8701C30.251 30.795 30.6255 29.6847 30.91 28.55C31.04 27.98 31.19 27.4201 31.31 26.8501C31.43 26.2801 31.56 25.7099 31.69 25.1499L32.05 23.45L32.39 21.74C32.59 20.6 32.78 19.4601 32.95 18.3201C33.28 16.0301 33.58 13.75 33.81 11.46H33.61C33 13.66 32.53 15.9099 31.94 18.1299Z" fill="white"/>
<path id="Vector_4" d="M66.89 41.9999C60.6035 41.4334 54.2677 41.8042 48.0901 43.1C49.0648 37.902 49.5037 32.6176 49.4001 27.33C49.464 22.9724 48.8085 18.6341 47.4601 14.4899C46.2138 11.0815 44.5152 7.85593 42.41 4.89984C41.3194 3.29119 40.1093 1.76707 38.79 0.340022C38.7613 0.308027 38.7275 0.280918 38.69 0.259944C38.5873 0.162002 38.4549 0.101086 38.3137 0.0866038C38.1725 0.0721217 38.0305 0.104817 37.91 0.179865C27.99 5.54987 18.19 12.6398 12.5 22.6298C9.57076 27.5241 8.14501 33.1718 8.40005 38.8701C8.427 39.4061 8.48374 39.9401 8.57004 40.4699C5.80312 41.1764 3.18736 42.3793 0.850006 44.02C-0.409994 44.95 0.950001 47.02 2.22 46.02C5.3472 43.9391 8.89476 42.5733 12.61 42.02C14.5844 41.5914 16.6249 41.5641 18.61 41.9399C20.5467 42.43 22.4478 43.0515 24.3 43.8L37.07 48.4399C37.1774 48.5547 37.3103 48.6426 37.458 48.6965C37.6057 48.7503 37.7639 48.7687 37.92 48.7499L47.86 52.35C49.32 52.88 50.4401 50.6998 48.9601 50.1598L41.49 47.4499C49.481 44.7154 57.9581 43.6932 66.37 44.4499C67.94 44.5799 68.46 42.1799 66.89 41.9999ZM39.73 45.4799C39.13 45.6899 38.54 45.9198 37.95 46.1498L31.62 43.85L31.95 43.4799C32.0907 43.3324 32.2211 43.1754 32.3401 43.0099L33.05 42.0099C33.2905 41.6884 33.5141 41.3546 33.72 41.0099C33.93 40.6599 34.13 40.3199 34.33 39.9599C34.53 39.5999 34.74 39.2598 34.91 38.8998C35.08 38.5398 35.26 38.17 35.43 37.81C35.6 37.45 35.78 37.0799 35.92 36.6999C36.2 35.9499 36.52 35.2099 36.75 34.4399C36.98 33.6699 37.2 32.89 37.38 32.11C37.56 31.33 37.71 30.5399 37.86 29.7499L38.25 27.3798L38.55 24.9999C38.63 24.1999 38.69 23.41 38.75 22.61C38.81 21.81 38.81 21.0099 38.83 20.2199C38.83 19.8199 38.83 19.42 38.83 19.02V17.82C38.83 17.43 38.83 17.0298 38.76 16.6298L38.67 15.4399C38.67 15.0399 38.5901 14.6499 38.5301 14.2499L38.37 13.07C38.37 12.67 38.23 12.2898 38.16 11.8998L37.92 10.7299C37.8806 10.534 37.8306 10.3403 37.7701 10.1498L37.61 9.58001L37.2801 8.42987L37.0901 8.48992C37.7418 11.5579 37.9972 14.697 37.85 17.83L37.8 18.9999C37.8 19.3899 37.8 19.7799 37.73 20.1699C37.64 20.9399 37.59 21.7199 37.49 22.4899C37.39 23.2599 37.28 24.04 37.16 24.81L36.74 27.1L36.19 29.3701C35.99 30.1201 35.76 30.86 35.54 31.61C35.44 31.98 35.3 32.3399 35.18 32.7099C35.06 33.0799 34.9501 33.45 34.8401 33.82C34.7301 34.19 34.59 34.5499 34.48 34.9199L34.12 36.02C34.01 36.39 33.87 36.75 33.74 37.11L33.35 38.2099C33.24 38.5799 33.09 38.94 32.95 39.29C32.81 39.64 32.66 40.0098 32.5201 40.3798C32.3801 40.7498 32.22 41.0899 32.07 41.4499L31.6 42.53C31.46 42.9 31.26 43.23 31.1 43.59L23.66 40.8898C22.3501 40.3903 21.015 39.9599 19.66 39.6L21.05 31.77L21.73 27.8898C21.8338 27.2564 21.9707 26.629 22.14 26.0099C22.14 25.8599 22.24 25.72 22.29 25.57C22.34 25.42 22.38 25.2898 22.45 25.1298L22.83 24.1799C23.33 22.9299 23.83 21.6899 24.37 20.4699C24.8955 19.2522 25.4864 18.0638 26.14 16.9098C26.7773 15.7438 27.5063 14.6305 28.32 13.58C29.1435 12.5167 30.0425 11.5141 31.01 10.58L30.88 10.4299C28.7131 12.0935 26.8289 14.0961 25.3 16.36C24.5387 17.4957 23.8377 18.6704 23.2 19.8798C22.56 21.0798 21.9801 22.31 21.4001 23.52L20.95 24.4199C20.88 24.5599 20.8 24.7398 20.73 24.8998C20.66 25.0598 20.57 25.2398 20.5 25.4098C20.2444 26.0642 20.0241 26.7319 19.8401 27.4098C19.4792 28.7394 19.2349 30.0979 19.11 31.4699C18.9868 32.8329 18.9434 34.202 18.98 35.57C18.98 36.25 18.98 36.9401 19.1 37.6201C19.1635 38.2493 19.267 38.8738 19.41 39.4899C18.9 39.3799 18.41 39.2799 17.87 39.2199C15.8086 39.0166 13.7279 39.1518 11.7101 39.6201C11.0601 39.7501 10.41 39.9 9.76004 40.06C9.46304 37.7886 9.51698 35.4849 9.92001 33.2299C11.16 25.6799 15.56 19.0599 20.92 13.7599C26.0188 8.91392 31.7673 4.80116 38 1.53997C40.65 5.75997 42.8901 10.7899 43.2101 15.7599C43.6694 22.5334 43.3911 29.3367 42.38 36.05C42.0422 39.2253 41.1557 42.3178 39.76 45.1899C39.7176 45.2945 39.7071 45.4094 39.73 45.52V45.4799ZM46.73 43.3898C44.8767 43.8232 43.0467 44.3399 41.24 44.9399C42.2496 42.6462 42.9491 40.2284 43.32 37.7499C43.9214 34.2509 44.2989 30.717 44.45 27.1699C44.625 23.6887 44.625 20.201 44.45 16.7199C44.2432 13.2048 43.3924 9.75767 41.94 6.54998C41.86 6.37998 41.7901 6.20996 41.7101 6.02996C43.3593 8.47107 44.7406 11.0829 45.83 13.82C48.83 21.38 48.46 30.14 47.51 38.08C47.38 39.89 47.1201 41.6699 46.7801 43.4299L46.73 43.3898Z" fill="white"/>
<path id="Vector_5" d="M2.62003 48C5.74631 45.9174 9.29428 44.5515 13.01 44C14.9846 43.5698 17.026 43.5459 19.01 43.93C20.9479 44.412 22.8493 45.0303 24.7 45.7801L48.26 54.3301C49.72 54.8601 50.83 52.6799 49.36 52.1399L23.99 42.94C22.1315 42.179 20.1924 41.6322 18.2101 41.3101C16.1519 41.1078 14.0746 41.2429 12.06 41.71C8.18523 42.3566 4.493 43.8226 1.23001 46.01C-0.0299894 46.94 1.33001 49.01 2.60001 48.01L2.62003 48Z" fill="#BC9262"/>
<path id="Vector_6" d="M38.69 50.6102C47.5852 46.9784 57.2186 45.5214 66.7899 46.3602C68.3399 46.5002 68.8599 44.1001 67.2899 43.9601C57.285 43.0419 47.2054 44.5265 37.89 48.2902C36.44 48.8802 37.22 51.2002 38.69 50.6102Z" fill="#BC9262"/>
<path id="Vector_7" d="M10.05 41.5801C9.40989 38.8864 9.35536 36.0867 9.89 33.3701C11.13 25.8201 15.53 19.1999 20.89 13.8999C26.1649 8.85911 32.1316 4.59629 38.61 1.24001L37.76 1.07009C40.53 5.38009 42.93 10.61 43.26 15.76C43.7194 22.5335 43.441 29.3368 42.43 36.0501C42.0922 39.2254 41.2057 42.3179 39.81 45.19C39.43 45.88 40.53 46.43 40.91 45.74C42.155 43.2399 42.989 40.5555 43.38 37.7901C43.9814 34.291 44.3588 30.7571 44.51 27.21C44.685 23.7288 44.685 20.2412 44.51 16.76C44.3032 13.2449 43.4524 9.7978 42 6.59011C41.0814 4.43933 39.9912 2.36578 38.74 0.389914C38.647 0.258174 38.507 0.167145 38.3489 0.135519C38.1907 0.103893 38.0265 0.134157 37.89 0.219992C27.97 5.58999 18.17 12.6799 12.48 22.6699C9.5507 27.5642 8.12495 33.2117 8.38 38.9099C8.42759 39.9484 8.59195 40.9783 8.86999 41.98C9.09999 42.73 10.26 42.3301 10.03 41.5801H10.05Z" fill="black"/>
<path id="Vector_8" d="M47.85 44.29C49.0002 38.7261 49.5202 33.0504 49.4 27.3701C49.4639 23.0125 48.8084 18.6742 47.46 14.53C46.2137 11.1216 44.5151 7.89603 42.41 4.93993C41.3194 3.33128 40.1093 1.80692 38.79 0.379871C38.25 -0.190129 37.44 0.730037 37.98 1.30004C41.3805 4.95776 44.0698 9.21718 45.91 13.8601C48.91 21.4201 48.54 30.1801 47.59 38.1201C47.35 40.1201 47.07 42.12 46.66 44.04C46.6407 44.192 46.6794 44.3457 46.7683 44.4704C46.8572 44.5952 46.9898 44.6821 47.1398 44.7136C47.2897 44.7451 47.446 44.7188 47.5776 44.6404C47.7092 44.5619 47.8064 44.4369 47.85 44.29Z" fill="black"/>
<path id="Vector_9" opacity="0.65" d="M30.35 10.0901C29.3643 10.9956 28.4421 11.9678 27.59 13C26.7545 14.0309 25.999 15.1241 25.33 16.27C24.649 17.4135 24.0282 18.5918 23.47 19.8C22.9 21 22.38 22.22 21.84 23.47L21.44 24.3999C21.3737 24.5427 21.3169 24.6898 21.27 24.8401C21.27 24.9901 21.16 25.12 21.11 25.27C20.93 25.88 20.78 26.4999 20.65 27.1399L19.88 31.01L18.28 38.8899H18.09C17.9315 38.2164 17.831 37.5308 17.79 36.8401C17.73 36.1501 17.71 35.47 17.71 34.78C17.7102 33.4132 17.7904 32.0474 17.95 30.6899C18.1022 29.3346 18.3767 27.9958 18.77 26.6899C18.98 26.0199 19.21 25.3599 19.49 24.6899C19.56 24.5299 19.65 24.3599 19.72 24.1899L19.96 23.71L20.43 22.8301C21.04 21.6301 21.65 20.42 22.32 19.23C22.9872 18.0348 23.7183 16.8765 24.51 15.76C26.0924 13.5345 28.0239 11.5793 30.23 9.96997L30.35 10.0901Z" fill="white"/>
<path id="Vector_10" opacity="0.65" d="M33.11 10.9099C32.83 13.1999 32.47 15.47 32.11 17.75C31.91 18.89 31.69 20.0199 31.46 21.1599L31.09 22.8501L30.68 24.55C30.54 25.11 30.39 25.67 30.26 26.24C30.13 26.81 29.97 27.3599 29.82 27.9299C29.5064 29.0575 29.1017 30.1578 28.61 31.22C28.119 32.2918 27.5474 33.3248 26.9 34.3101C26.74 34.5634 26.57 34.8034 26.39 35.03C26.21 35.27 26.02 35.5 25.84 35.73C25.456 36.184 25.0452 36.6148 24.61 37.02L24.45 36.8999C24.63 36.3399 24.87 35.82 25.07 35.28L25.37 34.48L25.52 34.0801C25.58 33.9501 25.62 33.8099 25.67 33.6799C26.05 32.6099 26.43 31.55 26.8 30.49C27.17 29.43 27.56 28.3601 27.98 27.3101C28.19 26.7801 28.41 26.25 28.61 25.72L29.18 24.1101L29.7 22.48L30.2 20.8401C30.5333 19.7401 30.8667 18.64 31.2 17.54C31.83 15.33 32.39 13.1001 32.98 10.8701L33.11 10.9099Z" fill="white"/>
<path id="Vector_11" opacity="0.65" d="M36.68 8L36.98 9.1499L37.13 9.71997C37.13 9.90997 37.23 10.11 37.26 10.3L37.47 11.48C37.53 11.87 37.62 12.2599 37.65 12.6599L37.79 13.8401C37.79 14.2401 37.88 14.63 37.89 15.03L37.96 16.22C37.96 16.62 37.96 17.0199 37.96 17.4199V18.6201C37.96 19.0201 37.96 19.4201 37.96 19.8101C37.96 20.6101 37.89 21.41 37.82 22.2C37.75 22.99 37.66 23.7901 37.56 24.5901L37.2 26.96L36.75 29.3201C36.59 30.1001 36.4 30.8799 36.22 31.6699C36.04 32.4599 35.77 33.21 35.53 33.98C35.29 34.75 34.95 35.48 34.65 36.22C34.49 36.6 34.31 36.9601 34.13 37.3201C33.95 37.6801 33.77 38.0399 33.58 38.3999C33.39 38.7599 33.19 39.0999 32.98 39.3999C32.77 39.6999 32.55 40.0899 32.34 40.3999C32.1277 40.7474 31.8939 41.0814 31.64 41.3999L30.91 42.3999C30.79 42.5599 30.65 42.7101 30.52 42.8601L30.1 43.3C29.83 43.6 29.55 43.8899 29.26 44.1599L29.11 44.04C29.27 43.68 29.45 43.32 29.63 42.97C29.81 42.62 30.01 42.2899 30.16 41.9199L30.65 40.8501C30.81 40.5001 30.99 40.16 31.13 39.79C31.27 39.42 31.42 39.07 31.58 38.72C31.74 38.37 31.89 38.0099 32.01 37.6399L32.43 36.5601C32.57 36.2001 32.71 35.84 32.83 35.47L33.21 34.3799C33.34 34.0199 33.49 33.66 33.6 33.29C33.71 32.92 33.85 32.5599 33.98 32.1899C34.11 31.8199 34.25 31.4701 34.36 31.1001C34.59 30.3601 34.85 29.6199 35.07 28.8799L35.67 26.6299L36.15 24.3401C36.29 23.5701 36.4 22.8 36.53 22.03C36.66 21.26 36.73 20.49 36.83 19.71C36.83 19.33 36.9 18.94 36.93 18.55L37.01 17.3799C37.2287 14.25 37.0506 11.1052 36.48 8.02002L36.68 8Z" fill="white"/>
<path id="Vector_12" d="M2.22 46.09C5.3472 44.0092 8.89476 42.6434 12.61 42.09C14.5844 41.6614 16.6249 41.6341 18.61 42.01C20.5467 42.5001 22.4478 43.1216 24.3 43.8701L47.86 52.4199C49.32 52.9499 50.4401 50.7699 48.9601 50.2299L23.5901 41.03C21.7345 40.2703 19.7988 39.7233 17.82 39.3998C15.7586 39.1965 13.6778 39.3318 11.66 39.8C7.78521 40.4466 4.09304 41.9126 0.830047 44.1C-0.429953 45.03 0.930042 47.1 2.20004 46.1L2.22 46.09Z" fill="#050007"/>
<path id="Vector_13" d="M38.2899 48.6899C47.1854 45.0588 56.8186 43.6019 66.39 44.4399C67.94 44.5799 68.46 42.18 66.89 42.04C56.885 41.1226 46.8056 42.6072 37.49 46.3701C36.04 46.9601 36.8199 49.2799 38.2899 48.6899Z" fill="#050007"/>
<path id="Vector_14" d="M31 10.71C30.0325 11.6441 29.1335 12.6467 28.31 13.71C27.4963 14.7605 26.7673 15.874 26.13 17.04C25.4764 18.194 24.8855 19.3824 24.36 20.6001C23.82 21.8201 23.36 23.0601 22.82 24.3101L22.44 25.26C22.37 25.42 22.33 25.56 22.28 25.7C22.23 25.84 22.17 25.9899 22.13 26.1399C21.9606 26.759 21.8237 27.3866 21.72 28.02L21.04 31.8999L19.63 39.8201H19.44C19.2667 39.1646 19.1497 38.4955 19.09 37.8201C19.02 37.1401 18.98 36.45 18.97 35.77C18.9333 34.402 18.9768 33.0329 19.1 31.6699C19.2248 30.2979 19.4691 28.9397 19.83 27.6101C20.01 26.9401 20.24 26.2701 20.49 25.6101C20.56 25.4401 20.64 25.2701 20.72 25.1001C20.8 24.9301 20.87 24.7601 20.94 24.6201L21.39 23.72C21.97 22.51 22.55 21.2801 23.19 20.0801C23.8277 18.8707 24.5286 17.6957 25.29 16.5601C26.8188 14.2961 28.7031 12.2935 30.87 10.6299L31 10.71Z" fill="black"/>
<path id="Vector_15" d="M33.76 11.46C33.53 13.75 33.23 16.0301 32.9 18.3201C32.73 19.4601 32.54 20.6 32.34 21.74L32 23.45L31.64 25.1499C31.51 25.7099 31.38 26.2801 31.26 26.8501C31.14 27.4201 30.99 27.98 30.86 28.55C30.5755 29.6847 30.201 30.795 29.74 31.8701C29.2733 32.9535 28.7251 33.9997 28.1 35C27.946 35.255 27.7792 35.502 27.6 35.74C27.43 35.98 27.25 36.22 27.07 36.45C26.6998 36.91 26.3024 37.3475 25.88 37.76L25.71 37.6499C25.88 37.0799 26.11 36.56 26.29 36.01L26.57 35.2L26.72 34.8101C26.72 34.6701 26.8 34.5299 26.85 34.3999C27.21 33.3299 27.56 32.2499 27.85 31.1799C28.14 30.1099 28.56 29.04 28.96 27.98C29.15 27.44 29.36 26.9101 29.54 26.3701C29.72 25.8301 29.91 25.29 30.08 24.75L30.56 23.1101L31.02 21.45C31.32 20.35 31.62 19.2399 31.89 18.1299C32.48 15.9099 32.98 13.6599 33.51 11.4199L33.76 11.46Z" fill="black"/>
<path id="Vector_16" d="M37.25 8.48999L37.58 9.63989L37.74 10.21C37.8005 10.4004 37.8506 10.5941 37.89 10.79L38.13 11.96C38.2 12.35 38.3 12.7299 38.34 13.1299L38.5 14.3101C38.56 14.7101 38.62 15.1 38.64 15.5L38.73 16.6899C38.73 17.0899 38.8 17.4899 38.8 17.8799V19.0801C38.8 19.4801 38.8 19.88 38.8 20.28C38.8 21.07 38.8 21.8699 38.72 22.6699C38.64 23.4699 38.6 24.2601 38.52 25.0601L38.22 27.4399L37.83 29.8101C37.68 30.6001 37.51 31.3799 37.35 32.1699C37.19 32.9599 36.94 33.72 36.72 34.5C36.5 35.28 36.17 36.01 35.89 36.76C35.75 37.14 35.57 37.5101 35.4 37.8701C35.23 38.2301 35.06 38.6 34.88 38.96C34.7 39.32 34.5 39.67 34.3 40.02C34.1 40.37 33.9 40.7201 33.69 41.0701C33.4841 41.4148 33.2605 41.7485 33.02 42.0701L32.31 43.0701C32.191 43.2355 32.0607 43.3926 31.92 43.54C31.79 43.69 31.66 43.85 31.52 43.99C31.25 44.29 30.98 44.5901 30.7 44.8701L30.54 44.76C30.7 44.39 30.87 44.0299 31.04 43.6699C31.21 43.3099 31.4 42.9801 31.54 42.6101L32.01 41.53C32.16 41.17 32.34 40.83 32.46 40.46C32.58 40.09 32.74 39.7301 32.89 39.3701C33.04 39.0101 33.18 38.66 33.29 38.29L33.68 37.1899C33.81 36.8299 33.95 36.4701 34.06 36.1001L34.42 35C34.53 34.63 34.68 34.2699 34.78 33.8999C34.88 33.5299 35.01 33.16 35.12 32.79C35.23 32.42 35.38 32.0599 35.48 31.6899C35.7 30.9399 35.93 30.2 36.13 29.45L36.68 27.1799L37.1 24.8899C37.22 24.1199 37.32 23.3401 37.43 22.5701C37.54 21.8001 37.58 21.02 37.67 20.25C37.67 19.86 37.67 19.4701 37.74 19.0801L37.79 17.9099C37.9371 14.7769 37.6818 11.6381 37.03 8.57007L37.25 8.48999Z" fill="black"/>
</g>
</svg>
