<svg width="163" height="92" viewBox="0 0 163 92" fill="none" xmlns="http://www.w3.org/2000/svg">
<g id="nut2">
<path id="Vector" d="M160.53 60.54C145.849 55.7706 130.21 54.7394 115.03 57.54C113.923 57.7467 112.823 57.9766 111.73 58.23C111.39 31.6 92.02 4.31998 63.64 4.22998C50.51 4.22998 35.74 9.01998 26.97 19.23C28.16 17.86 30.15 19.86 28.97 21.23C25.4713 25.2173 22.3575 29.5266 19.67 34.1001C18.3478 40.3727 18.1615 46.8315 19.12 53.1699C19.8827 58.9424 21.3122 64.607 23.38 70.05C19.9671 70.5309 16.5992 71.2901 13.31 72.3201C12.41 72.6001 11.51 72.91 10.62 73.24C7.97591 74.2166 5.41157 75.3968 2.95002 76.77C-0.219982 78.55 2.62001 83.4199 5.79001 81.6399C18.84 74.3399 33.91 73.97 48.53 75.53C50.22 75.71 51.89 75.9199 53.53 76.1399C55.75 76.4399 57.94 76.7699 60.11 77.1399C64.11 77.8066 68.11 78.4732 72.11 79.1399L80.43 80.5601L90.68 82.3101C99.35 83.7701 109.68 84.45 116.58 90.48C119.3 92.86 123.31 88.88 120.58 86.48C113.1 79.97 103.26 78.7299 93.83 77.1299L83.64 75.3899L81.31 74.99C82.11 74.77 82.9 74.53 83.7 74.28C86.7614 73.3279 89.7662 72.2026 92.7 70.9099L93.36 70.6201L96.07 69.46L97.07 69.02C99.31 68.09 101.56 67.2099 103.83 66.4199C107.307 65.1774 110.866 64.1751 114.48 63.4199C129.291 60.3815 144.639 61.2711 159 66C162.49 67.11 164 61.67 160.53 60.54Z" fill="#9B7A52"/>
<path id="Vector_2" d="M93.2 16.7401C88.5429 11.7293 82.7362 7.92733 76.2812 5.66243C69.8262 3.39752 62.917 2.73774 56.15 3.74006C42.96 5.60006 29.41 11.97 23.72 24.67C18.11 37.2 20.4 53.61 25.47 65.95C27.88 65.69 30.31 65.5501 32.75 65.5001C32.43 64.8901 32.1 64.28 31.83 63.64C31.06 61.9 30.24 60.1602 29.63 58.3502C29.3 57.4402 28.93 56.56 28.63 55.63L27.81 52.8602C27.6617 52.402 27.5448 51.9341 27.46 51.46L27.15 50.0501L26.84 48.63C26.74 48.16 26.69 47.68 26.61 47.2L26.41 45.7601C26.3287 45.2833 26.272 44.8027 26.24 44.3201L26.07 41.4L26.15 38.4801C26.22 37.4801 26.35 36.5301 26.45 35.5601C27.0017 31.6717 28.259 27.9167 30.16 24.4801C32.1019 21.0834 34.6947 18.1032 37.79 15.71C40.8606 13.3492 44.3095 11.5268 47.99 10.3201C55.3024 7.94126 63.1075 7.5036 70.64 9.05012V9.2801C63.1734 8.03815 55.512 8.76175 48.41 11.38C44.9014 12.6432 41.6344 14.4967 38.75 16.8602C35.8741 19.1953 33.4941 22.0819 31.75 25.3502C30.0664 28.623 29.0211 32.1864 28.67 35.8502C28.285 39.5104 28.3421 43.2036 28.84 46.8502C29.2963 50.5708 30.0487 54.2492 31.09 57.8502C31.79 60.4102 32.63 62.94 33.51 65.47C36.45 65.47 39.4 65.53 42.34 65.72C37.2325 58.7482 34.5364 50.3016 34.66 41.66C34.66 32.66 37.94 16.3501 50.03 17.3301L50.26 17.38H50.4C51.3875 17.5233 52.3363 17.8634 53.19 18.38C53.2495 18.3166 53.3208 18.2657 53.4 18.2301C55.9529 16.9429 58.8095 16.3793 61.66 16.6002C63.2934 14.8687 65.5081 13.8005 67.88 13.6002C79.19 12.0502 86.39 21.9902 92.19 30.0902C97.8436 37.9697 102.23 46.6848 105.19 55.92C106.19 55.62 107.19 55.3401 108.19 55.0701C108.179 54.9704 108.179 54.8698 108.19 54.7701C108.051 40.6792 102.713 27.1361 93.2 16.7401Z" fill="#A67E5E"/>
<path id="Vector_3" d="M66.23 16.9398C65.6241 17.0982 65.0397 17.3299 64.49 17.6298H64.44C64.2079 17.8937 64.0004 18.1783 63.82 18.4799C60.96 22.9599 64.35 26.62 67.9 29.33C71.6654 32.0529 74.6876 35.6768 76.69 39.87C77.64 42.01 78.79 45.32 77.4 47.55C76.01 49.78 73.48 49.19 72.18 47.31C71.8727 46.6692 71.5149 46.0538 71.1099 45.4699C70.1999 44.5599 68.99 44.6399 68.98 46.2099C68.98 47.1099 69.93 48.3299 70.46 49.0299C70.5919 49.2433 70.6617 49.4891 70.6617 49.7399C70.6617 49.9907 70.5919 50.2365 70.46 50.4499C66.65 56.9899 56.87 51.3499 56 45.4499C55.8581 43.5357 56.0441 41.6114 56.55 39.7599C57.2029 36.9146 57.2472 33.9636 56.68 31.1C55.87 27.24 54.5 21.0298 49.91 20.1498C44.14 19.7698 40.86 25.0398 39.26 29.9398C37.1692 36.8018 36.8902 44.0882 38.45 51.09C39.716 56.6204 42.3459 61.746 46.1 65.9999C50.76 66.4299 55.39 67.0599 59.95 67.7699L66.9 68.8798C67.0878 68.5985 67.3361 68.3629 67.6268 68.1898C67.9175 68.0168 68.2431 67.9108 68.58 67.8798C71.2149 67.5204 73.8287 67.0196 76.41 66.3798C75.18 65.4898 73.88 64.69 72.65 63.81C71.42 62.93 70.16 62.0799 70.18 60.5299C70.18 58.6499 72.11 57.7598 73.7 57.4198C74.981 57.2498 76.2789 57.2498 77.56 57.4198C78.19 57.4198 78.8999 57.7298 78.6099 56.9098C78.0899 55.4998 80 54.6699 80.96 55.5399C83.6171 57.9763 86.5116 60.1404 89.6 61.9999C90.55 61.6099 91.51 61.1899 92.48 60.7699C95.79 59.3099 99.13 57.99 102.48 56.86C99.3383 47.2403 94.6649 38.1906 88.64 30.06C83.45 22.93 76.29 13.8898 66.23 16.9398ZM58.67 64.62C54.04 62.19 50.06 57.6199 49.25 52.2699C49.09 51.1999 50.72 50.75 50.88 51.82C51.63 56.74 55.24 60.9098 59.52 63.1598C60.49 63.6698 59.63 65.13 58.67 64.62ZM86.42 46.07C86.16 47.07 84.53 46.67 84.79 45.62C85.39 43.23 85.91 40.2899 84.59 38.0199C84.3313 37.5545 83.9928 37.1381 83.59 36.7899C83.48 36.6899 82.79 36.3599 83.16 36.4999C82.16 36.1099 82.5999 34.5 83.6099 34.87C87.8399 36.56 87.3 42.56 86.42 46.07Z" fill="#844419"/>
<path id="Vector_4" d="M80.24 59.77C78.99 60.58 77.55 60.1599 76.18 60.1299C75.87 60.1299 73 60.2099 73.06 60.6399C73.06 60.8799 73.9 61.3099 74.06 61.4399C75.65 62.6199 77.96 63.93 79.83 65.51C82.04 64.86 84.22 64.11 86.4 63.29C84.4676 62.0423 82.614 60.6763 80.85 59.2C80.6781 59.421 80.4722 59.6134 80.24 59.77Z" fill="#4E381F"/>
<path id="Vector_5" d="M60 35.92C59.81 39.5 57.46 44.1201 59.82 47.3201C61.3 49.3201 65.39 52.0001 67.57 49.7501C66 47.2501 65.16 43.5802 68.63 42.3402C69.4301 42.0195 70.3133 41.9701 71.1441 42.1995C71.975 42.4289 72.7077 42.9245 73.23 43.6102C73.69 44.1602 74.01 45.3801 74.56 45.7701C75.11 46.1601 74.89 46.3901 75.2 45.5301C75.76 43.9901 74.28 41.17 73.61 39.92C72.2475 37.4295 70.4607 35.1961 68.33 33.3201C64.67 30.0201 59.71 27.3901 59.94 21.7301C59.9674 20.5481 60.2256 19.383 60.7 18.3001C58.6307 18.2748 56.5816 18.7086 54.7 19.5701C58.73 23.4201 60.19 31.3 60 35.92Z" fill="#4E381F"/>
<path id="Vector_6" d="M18.92 30.3701C16.5056 34.4426 14.6331 38.8129 13.35 43.3701C11.2776 51.6122 11.0082 60.2043 12.56 68.5601C15.8491 67.5301 19.217 66.7709 22.63 66.29C20.5622 60.847 19.1327 55.1823 18.37 49.4099C17.4101 43.0816 17.5964 36.6325 18.92 30.3701Z" fill="#81593E"/>
<path id="Vector_7" d="M64.44 17.6599H64.49C64.74 17.3499 64.16 17.8399 64.44 17.6599Z" fill="white"/>
<path id="Vector_8" d="M59.52 63.1599C55.24 60.9099 51.63 56.74 50.88 51.82C50.72 50.75 49.09 51.2 49.25 52.27C50.06 57.59 54.04 62.1901 58.67 64.6201C59.63 65.1301 60.49 63.6699 59.52 63.1599Z" fill="#551F08"/>
<path id="Vector_9" d="M83.57 34.8702C82.57 34.4702 82.12 36.1101 83.12 36.5001C82.75 36.3601 83.44 36.6902 83.55 36.7902C83.9529 37.1383 84.2914 37.5547 84.55 38.0201C85.87 40.2901 85.35 43.2302 84.75 45.6202C84.49 46.6702 86.12 47.1202 86.38 46.0702C87.3 42.5602 87.84 36.5602 83.57 34.8702Z" fill="#551F08"/>
<path id="Vector_10" d="M159.79 56.8301C145.11 52.0556 129.47 51.0244 114.29 53.8301C113.18 54.0301 112.08 54.26 110.98 54.51C110.65 27.88 91.28 0.60001 62.9 0.51001C49.76 0.51001 35 5.31001 26.23 15.51L25.8 16.02C19.23 23.67 13.28 32.8299 10.64 42.6499C8.42845 51.4403 8.16903 60.6086 9.87998 69.51C7.23343 70.4884 4.66589 71.6686 2.19998 73.04C-0.960018 74.82 1.87996 79.6899 5.04996 77.9099C18.05 70.6099 33.17 70.2401 47.79 71.8101C49.47 71.9901 51.15 72.1899 52.79 72.4199C55 72.7099 57.2 73.0399 59.37 73.4199C63.37 74.0866 67.37 74.7533 71.37 75.4199L79.69 76.8401L89.94 78.5901C98.61 80.0601 108.94 80.73 115.83 86.76C118.56 89.14 122.57 85.16 119.83 82.76C112.35 76.25 102.51 75.0099 93.08 73.4199L82.89 71.6699L80.55 71.27C81.35 71.05 82.15 70.8101 82.94 70.5601C86.0019 69.6095 89.0068 68.4842 91.94 67.1899L92.61 66.8999L95.32 65.74L96.37 65.3C98.61 64.37 100.85 63.5 103.12 62.7C106.601 61.4588 110.163 60.4564 113.78 59.7C128.58 56.6949 143.909 57.605 158.25 62.3401C161.75 63.4001 163.23 58.0001 159.79 56.8301ZM28.56 16.8301C28.5553 16.7969 28.5553 16.7632 28.56 16.73C28.5577 16.7533 28.5577 16.7768 28.56 16.8V16.8301ZM28.56 17C28.4975 17.1984 28.3954 17.3821 28.26 17.54C28.3812 17.3788 28.4695 17.1953 28.52 17H28.56ZM28.46 15.9399C28.4643 15.9597 28.4643 15.9802 28.46 16C28.458 15.9661 28.4438 15.9341 28.42 15.9099L28.46 15.9399ZM28.56 16.1899C28.5646 16.2097 28.5646 16.2303 28.56 16.25C28.559 16.2159 28.5446 16.1835 28.52 16.1599L28.56 16.1899ZM12.6 68.6201C11.0482 60.2644 11.3176 51.672 13.39 43.4299C14.673 38.8727 16.5455 34.5024 18.96 30.4299C17.6327 36.702 17.4465 43.1619 18.41 49.5C19.1727 55.2724 20.6022 60.9368 22.67 66.3799C19.2452 66.8389 15.8639 67.5783 12.56 68.5901L12.6 68.6201ZM79.89 65.54C78.02 63.96 75.71 62.65 74.12 61.47C73.94 61.34 73.12 60.9099 73.12 60.6699C73.06 60.2399 75.93 60.1599 76.24 60.1599C77.61 60.1599 79.05 60.6101 80.3 59.8C80.5415 59.6482 80.7548 59.4552 80.93 59.23C82.694 60.7063 84.5475 62.0723 86.48 63.3201C84.24 64.1101 82.06 64.86 79.85 65.51L79.89 65.54ZM92.52 60.8201C91.52 61.2401 90.59 61.66 89.64 62.05C86.5516 60.1905 83.6571 58.0264 81 55.5901C80 54.7201 78.13 55.59 78.65 56.96C78.94 57.78 78.23 57.51 77.6 57.47C76.3189 57.3 75.021 57.3 73.74 57.47C72.15 57.81 70.24 58.7001 70.22 60.5801C70.22 62.1301 71.57 63.0501 72.69 63.8601C73.81 64.6701 75.22 65.5399 76.45 66.4299C73.8687 67.0698 71.2549 67.5705 68.62 67.9299C68.2831 67.9609 67.9575 68.0667 67.6668 68.2397C67.3761 68.4128 67.1278 68.6486 66.94 68.9299L60 67.8C55.44 67.09 50.81 66.46 46.15 66.03C42.3944 61.7733 39.7645 56.6441 38.5 51.1101C36.9402 44.1083 37.2192 36.8219 39.31 29.96C40.91 25.06 44.19 19.7899 49.96 20.1699C54.55 21.0499 55.96 27.2601 56.73 31.1201C57.2972 33.9837 57.2529 36.9348 56.6 39.78C56.0941 41.6316 55.9081 43.5558 56.05 45.47C56.92 51.4 66.7 57.04 70.51 50.47C70.6419 50.2566 70.7118 50.0108 70.7118 49.76C70.7118 49.5092 70.6419 49.2634 70.51 49.05C69.98 48.35 69.03 47.13 69.03 46.23C69.03 44.66 70.25 44.58 71.16 45.49C71.5649 46.074 71.9227 46.6893 72.23 47.3301C73.53 49.2101 76.09 49.7601 77.45 47.5701C78.81 45.3801 77.69 42.0299 76.74 39.8899C74.7376 35.6967 71.7154 32.073 67.95 29.3501C64.4 26.6401 61.01 22.98 63.87 18.5C64.0504 18.1984 64.2579 17.9138 64.49 17.6499H64.54H64.49C64.21 17.8299 64.79 17.3399 64.54 17.6499C65.0898 17.35 65.6741 17.1183 66.28 16.96C76.34 13.91 83.5 22.9601 88.74 30.1001C94.7649 38.2308 99.4383 47.2802 102.58 56.8999C99.13 57.9999 95.79 59.33 92.48 60.79L92.52 60.8201ZM68.32 33.3501C70.4507 35.2261 72.2375 37.4594 73.6 39.95C74.27 41.2 75.75 44.0201 75.19 45.5601C74.88 46.4201 75.19 46.25 74.55 45.8C73.91 45.35 73.68 44.1899 73.22 43.6399C72.6977 42.9542 71.965 42.4586 71.1341 42.2292C70.3033 41.9999 69.4201 42.0495 68.62 42.3701C65.15 43.6101 65.99 47.28 67.56 49.78C65.38 52.03 61.29 49.3601 59.81 47.3501C57.45 44.1501 59.81 39.53 59.99 35.95C60.23 31.33 58.77 23.4501 54.73 19.6001C56.6115 18.7385 58.6607 18.3048 60.73 18.3301C60.2555 19.413 59.9973 20.5781 59.97 21.76C59.66 27.39 64.62 30.0001 68.28 33.3201L68.32 33.3501ZM105.26 56.05C102.3 46.8149 97.9136 38.0995 92.26 30.22C86.46 22.12 79.26 12.22 67.95 13.73C65.5781 13.9303 63.3634 14.9985 61.73 16.73C58.8795 16.5091 56.0229 17.0729 53.47 18.3601C53.3908 18.3958 53.3194 18.4467 53.26 18.51C52.4062 17.9934 51.4575 17.6534 50.47 17.51H50.33L50.1 17.46C38.01 16.46 34.76 32.82 34.73 41.79C34.6063 50.4317 37.3025 58.8783 42.41 65.8501C39.47 65.6601 36.52 65.5701 33.58 65.6001C32.7 63.0701 31.86 60.54 31.16 57.98C30.1186 54.379 29.3663 50.7006 28.91 46.98C28.412 43.3334 28.3549 39.6402 28.74 35.98C29.091 32.3162 30.1363 28.7528 31.82 25.48C33.5641 22.2117 35.9441 19.3251 38.82 16.99C41.7044 14.6265 44.9714 12.7732 48.48 11.51C55.582 8.89181 63.2433 8.16796 70.71 9.40991V9.17993C63.1775 7.63342 55.3724 8.07107 48.06 10.45C44.3795 11.6566 40.9305 13.4793 37.86 15.8401C34.7647 18.2333 32.1719 21.2135 30.23 24.6101C28.329 28.0467 27.0717 31.8015 26.52 35.6899C26.42 36.6899 26.29 37.6301 26.22 38.6101L26.14 41.53L26.31 44.45C26.3419 44.9325 26.3987 45.4131 26.48 45.8899L26.68 47.3301C26.76 47.8101 26.81 48.33 26.91 48.76L27.22 50.1799L27.53 51.5901C27.6147 52.0642 27.7317 52.5318 27.88 52.99L28.7 55.76C28.96 56.69 29.33 57.57 29.7 58.48C30.31 60.29 31.13 62.03 31.9 63.77C32.17 64.41 32.5 65.0199 32.82 65.6299C30.38 65.6299 27.95 65.8201 25.54 66.0801C20.47 53.7401 18.18 37.33 23.79 24.8C29.48 12.1 43.03 5.73012 56.22 3.87012C62.9869 2.8678 69.8962 3.52758 76.3512 5.79248C82.8061 8.05738 88.6128 11.8593 93.27 16.8701C102.809 27.2902 108.153 40.8732 108.27 55C108.259 55.0997 108.259 55.2003 108.27 55.3C107.2 55.44 106.21 55.72 105.22 56L105.26 56.05Z" fill="#0B0B0B"/>
</g>
</svg>
