<svg width="267" height="196" viewBox="0 0 267 196" fill="none" xmlns="http://www.w3.org/2000/svg">
<g id="nutsBoard">
<path id="Vector" d="M7.99999 177.48C35.3333 179.927 62.6899 182.167 90.0699 184.2C115.31 186.09 140.57 187.86 165.83 189.69C181.583 190.837 197.337 192.02 213.09 193.24C214.461 193.273 215.79 192.768 216.793 191.834C217.797 190.899 218.395 189.61 218.46 188.24C218.473 186.875 217.961 185.557 217.031 184.558C216.101 183.558 214.823 182.955 213.46 182.87C186.467 180.777 159.467 178.777 132.46 176.87C107.1 175.05 81.74 173.21 56.4 171.17C40.4 169.883 24.4 168.52 8.40002 167.08C7.02025 167.045 5.68233 167.555 4.67687 168.501C3.67141 169.447 3.07962 170.751 3.03002 172.13C3.01716 173.495 3.52861 174.813 4.45892 175.812C5.38922 176.811 6.66744 177.416 8.03002 177.5L7.99999 177.48Z" fill="#BC9262"/>
<path id="Vector_2" opacity="0.13" d="M7.99999 177.48C35.3333 179.927 62.6899 182.167 90.0699 184.2C115.31 186.09 140.57 187.86 165.83 189.69C181.583 190.837 197.337 192.02 213.09 193.24C214.461 193.273 215.79 192.768 216.793 191.834C217.797 190.899 218.395 189.61 218.46 188.24C218.473 186.875 217.961 185.557 217.031 184.558C216.101 183.558 214.823 182.955 213.46 182.87C186.467 180.777 159.467 178.777 132.46 176.87C107.1 175.05 81.74 173.21 56.4 171.17C40.4 169.883 24.4 168.52 8.40002 167.08C7.02025 167.045 5.68233 167.555 4.67687 168.501C3.67141 169.447 3.07962 170.751 3.03002 172.13C3.01716 173.495 3.52861 174.813 4.45892 175.812C5.38922 176.811 6.66744 177.416 8.03002 177.5L7.99999 177.48Z" fill="url(#paint0_linear_344_21)"/>
<path id="Vector_3" d="M249 187.8C251.746 187.207 254.542 186.872 257.35 186.8C259.02 186.8 259.11 184.15 257.43 184.19C254.406 184.245 251.393 184.58 248.43 185.19C246.79 185.54 247.43 188.08 249.05 187.73L249 187.8Z" fill="#BC9262"/>
<path id="Vector_4" d="M213.28 193.24C230.355 189.383 248.15 190.167 264.82 195.51C265.15 195.612 265.507 195.579 265.813 195.417C266.119 195.256 266.348 194.98 266.45 194.65C266.552 194.32 266.519 193.963 266.358 193.657C266.196 193.351 265.92 193.122 265.59 193.02C248.473 187.539 230.2 186.741 212.67 190.71C212.504 190.75 212.347 190.822 212.209 190.923C212.071 191.024 211.954 191.15 211.865 191.296C211.776 191.442 211.716 191.604 211.69 191.773C211.663 191.941 211.67 192.114 211.71 192.28C211.75 192.446 211.822 192.603 211.923 192.741C212.024 192.879 212.15 192.996 212.296 193.085C212.442 193.174 212.604 193.234 212.773 193.26C212.941 193.287 213.114 193.28 213.28 193.24Z" fill="#BC9262"/>
<path id="Vector_5" opacity="0.13" d="M249 187.8C251.746 187.207 254.542 186.872 257.35 186.8C259.02 186.8 259.11 184.15 257.43 184.19C254.406 184.245 251.393 184.58 248.43 185.19C246.79 185.54 247.43 188.08 249.05 187.73L249 187.8Z" fill="url(#paint1_linear_344_21)"/>
<path id="Vector_6" opacity="0.13" d="M213.28 193.24C230.355 189.383 248.15 190.167 264.82 195.51C265.15 195.612 265.507 195.579 265.813 195.417C266.119 195.256 266.348 194.98 266.45 194.65C266.552 194.32 266.519 193.963 266.358 193.657C266.196 193.351 265.92 193.122 265.59 193.02C248.473 187.539 230.2 186.741 212.67 190.71C212.504 190.75 212.347 190.822 212.209 190.923C212.071 191.024 211.954 191.15 211.865 191.296C211.776 191.442 211.716 191.604 211.69 191.773C211.663 191.941 211.67 192.114 211.71 192.28C211.75 192.446 211.822 192.603 211.923 192.741C212.024 192.879 212.15 192.996 212.296 193.085C212.442 193.174 212.604 193.234 212.773 193.26C212.941 193.287 213.114 193.28 213.28 193.24Z" fill="url(#paint2_linear_344_21)"/>
<path id="Vector_7" d="M209.77 124C209.77 123.08 209.84 122.26 209.85 121.44C209.91 117.69 208.32 115.33 204.68 114.44C200.57 113.38 196.41 112.55 192.25 111.7C189.86 111.21 187.44 110.84 185.02 110.49C182.9 110.19 181.08 110.71 180.02 112.79C177.23 111.99 175.76 112.79 175.09 115.63C174.7 117.29 174.41 118.97 174.15 120.63C174.03 121.37 173.77 121.63 172.99 121.63C171.19 121.48 169.39 121.39 167.6 121.3C166.73 121.3 166.43 120.91 166.44 120.01C166.5 114.38 166.57 108.75 166.51 103.12C166.51 100.5 166.22 97.87 165.97 95.25C165.961 94.7488 165.852 94.2546 165.649 93.7964C165.446 93.3381 165.153 92.9251 164.787 92.582C164.422 92.239 163.991 91.9727 163.521 91.7988C163.051 91.625 162.551 91.5473 162.05 91.5701C158.05 91.3201 154.12 91.1299 150.15 90.8899C146.18 90.6499 142.38 89.9801 138.56 90.3101C135.79 90.5501 133.56 89.03 130.84 89.26C127.49 89.54 124.11 89.32 120.74 89.26C118.74 89.26 116.68 89.16 114.65 89.21C113.792 89.2911 112.942 89.4449 112.11 89.6699C110.94 87.5899 109.01 87.6 106.79 87.75C104.12 87.794 101.449 87.6938 98.79 87.45C97.32 87.38 95.85 87.6201 94.6 86.3401C94.1875 85.9801 93.6513 85.7945 93.1046 85.8225C92.5579 85.8505 92.0435 86.0898 91.67 86.49C91.3123 86.7739 90.8974 86.9772 90.4538 87.0859C90.0103 87.1947 89.5484 87.2064 89.1 87.1201C82.2933 86.5601 75.48 86.0334 68.66 85.54C66.76 85.4 64.85 84.7799 62.97 85.9199C62.56 86.1699 61.75 85.6799 61.11 85.6499C57.96 85.4699 54.8 85.32 51.65 85.2C50.48 85.2 49.6499 86.0001 49.4599 87.5801C49.2399 89.4101 49.12 91.2601 49.04 93.1001C48.87 96.9301 48.9 96.95 45.04 96.78C42.78 96.69 40.52 96.5501 38.27 96.3401C37.87 96.3401 37.1899 95.75 37.1999 95.46C37.3899 90.58 37.6699 85.6999 37.9399 80.6899C38.5699 80.6899 39.06 80.69 39.55 80.74C45.59 81.1867 51.6233 81.6368 57.65 82.0901C58.6565 82.1301 59.6589 82.2402 60.65 82.4199C61.3967 82.572 62.1686 82.5482 62.9045 82.3503C63.6404 82.1525 64.3202 81.786 64.89 81.28C65.2088 81.0357 65.4203 80.6772 65.48 80.28C65.62 77.28 65.69 74.2799 65.79 71.1399L93.3299 73.28C93.0599 75.43 92.84 77.4299 92.55 79.4199C92.29 81.2099 92.1 83.02 93.79 84.21C94.6182 84.7849 95.5709 85.1551 96.5699 85.29C99.6399 85.67 102.72 85.8699 105.8 86.1899C106.338 86.2514 106.86 86.4107 107.34 86.6599C109.25 87.6599 111.16 86.9101 111.69 84.8201C111.977 83.3752 112.157 81.9112 112.23 80.4399C112.38 78.9699 112.53 77.5 112.6 76.02C112.6 75.16 112.92 74.8099 113.86 74.8899C124.527 75.7499 135.193 76.5899 145.86 77.4099C151.57 77.8599 157.28 78.27 162.99 78.71C170.07 79.26 177.16 79.8399 184.25 80.3799C193.5 81.0899 202.76 81.76 212.01 82.47C215.88 82.76 219.74 83.0999 223.6 83.3999C224.28 83.4499 224.6 83.6499 224.51 84.3999C224.28 85.9899 224.07 87.6 223.94 89.21C223.87 90 223.62 90.3901 222.77 90.3401C221.66 90.2601 220.55 90.34 219.45 90.22C216.88 89.97 215.54 91.09 215.45 93.71C215.23 99.71 215.06 105.81 214.81 111.86C214.66 115.69 214.4 119.51 214.23 123.34C214.23 124.34 213.81 124.55 212.93 124.4C212.05 124.25 211 124.19 209.77 124Z" fill="#EA9F58"/>
<path id="Vector_8" d="M132 8.73993L198.75 13.8L241.17 17.02H241.45C244.63 17.02 247.08 18.02 248.28 21.29C248.79 22.3762 249.402 23.4108 250.11 24.3798C250.509 25.0446 250.77 25.7833 250.877 26.5515C250.983 27.3196 250.933 28.1017 250.73 28.85C250.23 31.903 249.896 34.9808 249.73 38.07C247.623 62.5967 245.523 87.1299 243.43 111.67C241.85 130.077 240.277 148.487 238.71 166.9C238.32 171.5 237.9 176.1 237.52 180.71C237.503 181.466 237.275 182.201 236.861 182.834C236.448 183.467 235.865 183.971 235.18 184.29C233.976 185.132 232.984 186.24 232.28 187.53C231.868 188.205 231.275 188.751 230.568 189.105C229.86 189.459 229.067 189.606 228.28 189.53C225.73 189.19 223.17 188.8 220.6 188.6C185.46 185.867 150.317 183.15 115.17 180.45L14 172.69C11.1867 172.47 8.37667 172.28 5.57001 172.12C4.23583 172.015 2.99435 171.397 2.10663 170.395C1.2189 169.394 0.754102 168.087 0.809996 166.75C1.89666 155.95 3.00334 145.15 4.13 134.35L10.61 71.07C12.8433 49.37 15.0933 27.6799 17.36 5.99994C17.5958 4.50649 18.072 3.06108 18.77 1.71991C19.34 0.479908 20.59 0.28983 21.86 0.38983L37.2 1.54999L123.85 8.11004L132.01 8.74994L132 8.73993ZM209.77 124C210.99 124.16 212 124.25 213 124.42C214 124.59 214.26 124.31 214.3 123.36C214.47 119.53 214.73 115.71 214.88 111.88C215.13 105.88 215.3 99.7799 215.52 93.7299C215.62 91.1099 216.96 89.9899 219.52 90.2399C220.62 90.3399 221.73 90.24 222.84 90.36C223.69 90.41 223.94 90.0199 224.01 89.2299C224.14 87.6199 224.35 86.0099 224.58 84.4199C224.69 83.6499 224.35 83.4199 223.67 83.4199C219.81 83.1199 215.95 82.7799 212.08 82.4899C202.83 81.7799 193.57 81.1098 184.32 80.3998C177.23 79.8598 170.14 79.2799 163.06 78.7299C157.35 78.2899 151.64 77.8799 145.93 77.4299C135.263 76.6032 124.597 75.7632 113.93 74.9099C112.99 74.8298 112.72 75.18 112.67 76.04C112.6 77.52 112.45 78.9899 112.3 80.4599C112.227 81.9311 112.047 83.3952 111.76 84.84C111.23 86.93 109.32 87.6399 107.41 86.6799C106.93 86.4307 106.408 86.2714 105.87 86.2099C102.79 85.8899 99.71 85.69 96.64 85.31C95.6409 85.1751 94.6881 84.8048 93.86 84.2299C92.17 83.0399 92.36 81.2299 92.62 79.4399C92.91 77.4399 93.13 75.44 93.4 73.3L65.86 71.1599C65.76 74.3399 65.69 77.32 65.55 80.3C65.4904 80.6972 65.2788 81.0557 64.96 81.3C64.3902 81.806 63.7104 82.1724 62.9745 82.3703C62.2386 82.5682 61.4667 82.5919 60.72 82.4399C59.7289 82.2602 58.7264 82.1501 57.72 82.11C51.72 81.65 45.6867 81.2 39.62 80.7599C39.13 80.7599 38.62 80.7599 38.01 80.7099C37.74 85.7099 37.46 90.5999 37.27 95.4799C37.27 95.7699 37.94 96.32 38.34 96.36C40.59 96.57 42.85 96.71 45.11 96.8C48.97 96.97 48.94 96.9501 49.11 93.1201C49.19 91.2801 49.31 89.43 49.53 87.6C49.72 86.02 50.53 85.1699 51.72 85.2199C54.87 85.3399 58.0301 85.4899 61.1801 85.6699C61.8201 85.6699 62.63 86.1899 63.04 85.9399C64.92 84.7999 66.83 85.42 68.73 85.56C75.55 86.06 82.3634 86.5865 89.17 87.1398C89.6185 87.2262 90.0804 87.2146 90.5239 87.1059C90.9675 86.9972 91.3823 86.7939 91.74 86.5099C92.1135 86.1097 92.628 85.8705 93.1747 85.8425C93.7214 85.8145 94.2576 86.0001 94.67 86.36C95.92 87.64 97.39 87.3599 98.86 87.4699C101.519 87.7137 104.19 87.8139 106.86 87.77C109.08 87.62 111.01 87.6099 112.18 89.6899C113.012 89.4649 113.862 89.3111 114.72 89.2299C116.72 89.1799 118.78 89.23 120.81 89.28C124.18 89.28 127.56 89.52 130.91 89.28C133.6 89.05 135.86 90.57 138.63 90.33C142.45 90 146.35 90.6798 150.22 90.9099C154.09 91.1399 158.16 91.34 162.12 91.59C162.621 91.5672 163.121 91.645 163.591 91.8188C164.061 91.9926 164.492 92.2589 164.857 92.602C165.223 92.9451 165.516 93.3579 165.719 93.8161C165.922 94.2743 166.031 94.7688 166.04 95.27C166.29 97.89 166.55 100.52 166.58 103.14C166.64 108.77 166.58 114.4 166.51 120.03C166.51 120.93 166.8 121.28 167.67 121.32C169.46 121.41 171.26 121.5 173.06 121.65C173.84 121.71 174.06 121.42 174.22 120.65C174.48 118.96 174.77 117.28 175.16 115.65C175.83 112.84 177.3 112.01 180.09 112.81C181.09 110.73 182.93 110.21 185.09 110.51C187.51 110.86 189.93 111.23 192.32 111.72C196.48 112.57 200.64 113.4 204.75 114.46C208.39 115.4 209.98 117.76 209.92 121.46C209.84 122.29 209.8 123.11 209.77 124ZM60.62 119.85L49.8 119.11C48.98 119.11 48.72 119.55 48.61 120.31C48.18 123.31 47.61 126.23 47.24 129.2C47.163 129.896 46.8802 130.553 46.4277 131.088C45.9753 131.622 45.3737 132.009 44.7 132.2C43.4799 132.65 42.85 131.61 42.21 130.86C41.7201 130.242 41.3009 129.571 40.96 128.86C39.28 125.63 37.66 122.36 35.96 119.17C35.7741 118.881 35.5292 118.634 35.2415 118.446C34.9537 118.259 34.6295 118.134 34.29 118.08C30.02 117.7 25.72 117.47 21.44 117.08C20.31 116.98 19.97 117.3 19.86 118.46C19.17 126.23 18.31 133.99 17.66 141.77C17.18 147.51 16.93 153.28 16.56 159.03C16.56 159.86 16.68 160.27 17.65 160.33C20.28 160.49 22.89 160.79 25.51 161.02C25.8115 161.1 26.1273 161.108 26.4325 161.044C26.7376 160.979 27.0236 160.845 27.2675 160.651C27.5113 160.456 27.7064 160.208 27.837 159.924C27.9677 159.641 28.0304 159.332 28.02 159.02C28.3 156.26 28.5 153.5 28.88 150.75C28.96 150.16 29.63 149.24 30.08 149.21C30.4726 149.201 30.8626 149.277 31.2233 149.432C31.584 149.587 31.9068 149.819 32.17 150.11C34.86 153.69 37.45 157.34 40 161.01C40.2113 161.353 40.5049 161.638 40.8541 161.839C41.2034 162.039 41.5973 162.15 42 162.16C46.28 162.44 50.57 162.78 54.85 163.08C55.61 163.08 56.38 163.08 57.11 163.15L60.62 119.85ZM230.29 30.9999L166.36 25.6899L170.65 47.5099H171.06C171.15 46.7899 171.23 46.07 171.32 45.36C171.41 44.65 171.5 43.8 171.64 43.03C172.13 40.42 173.83 39.33 176.36 40.03C176.804 40.1381 177.255 40.2116 177.71 40.2499C180.2 40.4499 182.71 40.59 185.16 40.85C186.049 40.8948 186.891 41.2648 187.526 41.8898C188.16 42.5149 188.542 43.3513 188.6 44.2399L189.01 46.6799C190.12 45.3899 191.1 44.3699 191.94 43.2499C193.23 41.5199 194.22 40.9998 196.19 41.8898C199.37 43.3298 202.43 45.0401 205.54 46.6201C205.892 46.81 206.274 46.9352 206.67 46.9899C210.77 47.3099 214.87 47.5999 218.96 47.9199C222.04 48.1699 223.46 49.9199 222.77 53.0099C221.86 57.0099 220.77 61.0099 219.77 64.9399C219.636 65.2711 219.611 65.6369 219.702 65.9828C219.792 66.3288 219.991 66.6365 220.27 66.86C221.83 68.42 223.27 70.0899 224.76 71.7399C225.056 72.1102 225.33 72.4974 225.58 72.8998L225.93 72.6398C227.35 58.8298 228.81 44.9999 230.29 30.9999ZM170.07 171.6C170.63 171.66 170.99 171.72 171.35 171.74L188.9 173.06C190.9 173.22 190.99 173.26 191.54 171.23C194.07 161.78 196.54 152.31 199.08 142.86C199.33 141.95 199.02 141.63 198.24 141.35C195.24 140.283 192.24 139.193 189.24 138.08C188.498 137.843 187.792 137.506 187.14 137.08C186.616 136.689 186.241 136.131 186.078 135.498C185.914 134.865 185.971 134.196 186.24 133.6C186.465 133.012 186.887 132.522 187.435 132.211C187.982 131.901 188.62 131.791 189.24 131.9C192.483 132.794 195.668 133.883 198.78 135.16C200.7 135.98 201.36 136.02 201.83 133.93C202.54 130.78 203.22 127.62 203.71 124.43C204.31 120.54 204.23 120.43 200.37 119.67C194.06 118.39 187.74 117.2 181.25 115.95C180.53 119.72 179.88 123.2 179.19 126.67C177.79 133.67 176.4 140.67 174.92 147.67C174.68 148.82 174.92 149.3 176.02 149.53C179.71 150.33 183.39 151.21 187.1 151.93C188.95 152.28 190.1 153.28 190.05 154.98C190.023 155.767 189.698 156.514 189.141 157.071C188.584 157.628 187.837 157.953 187.05 157.98C186.499 158.03 185.943 157.999 185.4 157.89C182.59 157.34 179.79 156.78 176.99 156.16C175.8 155.9 174.64 155.51 173.31 155.16C172.25 160.74 171.18 166.11 170.07 171.64V171.6ZM20.53 111.31L59.53 113.96C59.53 106.34 59.53 98.9599 59.53 91.4999L54.78 91.05C54.7 93.66 54.78 96.11 54.49 98.53C54.4391 99.5672 53.9787 100.542 53.21 101.24C51.8621 102.103 50.317 102.608 48.72 102.71C44.85 102.71 40.98 102.39 37.1 102.22C36.3728 102.183 35.6439 102.236 34.9301 102.38C34.5418 102.501 34.1318 102.537 33.7284 102.485C33.325 102.432 32.9378 102.293 32.5936 102.076C32.2493 101.859 31.9563 101.57 31.7347 101.229C31.5131 100.888 31.3682 100.503 31.31 100.1C31.1948 99.3256 31.1646 98.5409 31.22 97.7599C31.47 92.6399 31.8 87.5198 31.98 82.3998C32.05 80.3498 32.09 78.4 33.22 76.56C33.5033 75.9295 33.9793 75.4049 34.5793 75.0617C35.1794 74.7185 35.8729 74.5743 36.5601 74.6498C43.2267 75.1498 49.8934 75.6367 56.5601 76.11C57.6501 76.18 58.75 76.1799 60.09 76.2199L60.27 70.55L24.66 67.77C23.31 82.4 21.93 96.77 20.53 111.35V111.31ZM139.3 53.31C139.43 59.31 139.55 65.0599 139.68 70.9799L170.01 73.34C169.74 71.75 169.56 70.39 169.28 69.04C167.21 59.04 165.09 49.04 163.05 39.1C162.2 34.95 161.47 30.76 160.73 26.59C160.724 26.3858 160.676 26.185 160.59 25.9999C160.504 25.8148 160.38 25.6494 160.228 25.5136C160.075 25.3778 159.896 25.2746 159.702 25.2104C159.508 25.1462 159.303 25.122 159.1 25.1398C157.3 25.0598 155.51 24.8899 153.72 24.6899C153.552 24.6503 153.378 24.645 153.209 24.6743C153.039 24.7035 152.877 24.7669 152.732 24.8603C152.588 24.9537 152.463 25.0751 152.367 25.2177C152.27 25.3603 152.203 25.5209 152.17 25.6899C148.99 33.9599 145.75 42.1999 142.6 50.4699C142 51.9999 141.24 53.13 139.3 53.3V53.31ZM29.84 14.3798C29.39 19.0898 28.94 23.7699 28.52 28.4599C28.5679 28.798 28.726 29.111 28.97 29.35C30.0963 30.4822 31.1612 31.6737 32.16 32.9199C34.06 35.5899 35.78 38.38 37.61 41.1C39.25 43.54 40.95 45.9498 42.61 48.3898C43.3252 49.4748 43.6236 50.7822 43.45 52.07C43.2299 54.46 43.13 56.8699 43.01 59.2599C42.94 60.6299 42.92 61.9999 42.88 63.4799L53.1899 64.2399C53.3299 62.5099 53.4599 60.9598 53.5699 59.3998C53.8899 54.9598 53.71 50.4 56.5 46.52C57.33 45.36 58.0201 44.0998 58.8 42.8998L72.24 22.3998C73.1 21.0698 73.94 19.7299 74.92 18.1699C70.49 17.8099 66.4001 17.4599 62.3101 17.1699C62.1218 17.179 61.9383 17.2327 61.7749 17.3266C61.6115 17.4205 61.4727 17.5519 61.37 17.7099C58.84 22.9499 56.28 28.1799 53.91 33.4799C53.5941 34.3237 53.0389 35.0569 52.3124 35.5898C51.5859 36.1227 50.7196 36.432 49.8199 36.4799C48.0299 36.6399 47.11 35.29 46.45 33.85C45.33 31.42 44.18 28.9999 43.2 26.5099C41.85 23.1199 40.63 19.6899 39.41 16.2499C39.3011 15.8783 39.0678 15.5552 38.7493 15.3349C38.4307 15.1146 38.0462 15.0106 37.66 15.04C35.13 14.88 32.6 14.6201 29.84 14.3701V14.3798ZM152.44 144.14C149.17 144.04 146.37 143.9 143.56 143.88C141.889 143.88 140.219 143.984 138.56 144.19C138.314 144.207 138.075 144.276 137.858 144.392C137.641 144.507 137.45 144.668 137.299 144.862C137.148 145.057 137.04 145.281 136.982 145.52C136.923 145.759 136.916 146.008 136.96 146.25C136.96 146.71 136.91 147.17 136.9 147.63C136.84 149.36 136.79 151.1 136.74 152.74L160.74 152.59C159.91 134.32 161.38 115.93 160.52 97.4599L137.64 95.9999C137.8 103.94 137.96 111.58 138.12 119.35L147.04 119.98C147.503 120.015 147.967 120.015 148.43 119.98C148.703 119.945 148.969 119.871 149.22 119.76C151.49 119.04 153.22 120.26 153.22 122.66C153.22 123.91 153.12 125.15 153.08 126.4C152.84 132.313 152.627 138.223 152.44 144.13V144.14ZM65.74 132.81C67.51 132.87 69.12 132.81 70.74 132.98C78.42 133.65 86.0701 134.69 93.8101 133.67C94.8101 133.53 96.0601 134.44 97.1801 134.88C97.7121 135.195 98.2885 135.427 98.89 135.57C101.43 135.71 103.97 135.65 106.5 135.83C107.73 135.91 107.99 135.47 108.02 134.37C108.063 132.386 108.217 130.406 108.48 128.44C108.72 126.73 109.24 126.44 110.93 126.57C111.93 126.66 112.93 126.87 113.93 126.97C117.51 127.33 121.1 127.68 124.68 127.97C124.969 127.971 125.255 128.03 125.522 128.142C125.788 128.255 126.03 128.419 126.233 128.625C126.435 128.832 126.595 129.076 126.703 129.345C126.811 129.613 126.864 129.901 126.86 130.19C127.03 132.07 127.18 133.95 127.29 135.84C127.35 136.79 127.67 137.14 128.72 137.17C133.72 137.32 138.72 137.57 143.72 137.79C144.67 137.79 145.63 137.85 146.72 137.88L147.09 125.88L138.27 125.27C127.357 124.503 116.443 123.73 105.53 122.95C98.94 122.5 92.35 122.1 85.77 121.65C79.92 121.25 74.07 120.85 68.22 120.39C67.22 120.31 66.81 120.63 66.76 121.64C66.76 122.83 66.5301 124.02 66.4301 125.22C66.1501 127.67 66 130.1 65.74 132.8V132.81ZM98.74 67.81C98.8 67.08 98.87 66.5399 98.88 65.9999C98.96 60.5499 99.07 55.0998 99.09 49.6599C99.09 45.6599 99.0201 41.7199 98.9301 37.7499C98.8801 35.6199 98.84 35.62 96.77 35.57C95.71 35.57 94.65 35.5699 93.59 35.4499L71.9 34.1298C71.757 34.1233 71.6142 34.1479 71.4813 34.2014C71.3485 34.2548 71.2287 34.3361 71.13 34.4399C71.0322 34.766 71.0322 35.1137 71.13 35.4399C71.4897 36.5494 71.7179 37.6974 71.8101 38.86C71.4501 46.74 70.97 54.6199 70.53 62.4999C70.47 63.4999 70.4601 64.5 70.4301 65.61L98.74 67.81ZM236.32 103.18H236.09C236.09 102.86 236.09 102.53 236.09 102.18C236.23 98.3299 235.95 98.08 232.09 97.36C229.15 96.8 226.24 96.08 223.33 95.36C222.932 95.234 222.513 95.1937 222.099 95.2424C221.684 95.291 221.285 95.4273 220.928 95.642C220.57 95.8567 220.263 96.145 220.025 96.4877C219.787 96.8305 219.626 97.2197 219.55 97.6298C219.44 98.2199 219.389 98.8197 219.4 99.4199C219.31 114.7 219.25 129.98 219.13 145.26C219.105 146.027 218.899 146.777 218.53 147.45C218.24 147.899 218.08 148.419 218.065 148.954C218.051 149.488 218.183 150.016 218.448 150.48C218.714 150.945 219.101 151.327 219.569 151.586C220.036 151.845 220.566 151.971 221.1 151.95C223.1 151.95 225.127 151.863 227.18 151.69C227.692 151.68 228.193 151.544 228.64 151.296C229.087 151.047 229.466 150.692 229.744 150.263C230.023 149.834 230.191 149.343 230.236 148.833C230.28 148.324 230.199 147.811 230 147.34C229.811 146.829 229.743 146.282 229.8 145.74C230.97 138.35 232.23 130.98 233.36 123.59C234.45 116.8 235.35 110 236.31 103.17L236.32 103.18ZM104.73 68.28L133.92 70.54C133.44 59.61 133.92 48.9 132.16 38.36L122.93 38.07C122.83 41.33 122.77 44.45 122.62 47.58C122.572 48.9114 122.391 50.2346 122.08 51.53C121.91 52.1438 121.532 52.6791 121.01 53.0441C120.488 53.4091 119.855 53.581 119.22 53.53C118.567 53.4944 117.946 53.2387 117.458 52.8046C116.969 52.3706 116.642 51.7837 116.53 51.1398C116.403 50.3667 116.356 49.5827 116.39 48.8C116.39 46.08 116.52 43.3498 116.57 40.6298C116.57 39.7298 116.51 38.82 116.47 37.78L104.97 37.9799C104.88 48.2399 104.8 58.15 104.72 68.27L104.73 68.28ZM74.95 28.7399C78.3999 28.9499 81.61 29.18 84.83 29.33C89.95 29.58 95.0699 29.71 100.19 30.07C101.19 30.15 102.19 31.07 103.19 31.55C103.627 31.8083 104.103 31.9941 104.6 32.1C105.151 32.096 105.702 32.0625 106.25 31.9999C114.84 32.1399 123.43 32.2599 132.02 32.4599C135.5 32.5399 137.02 33.88 137.77 37.28C138.19 39.28 138.45 41.2799 138.84 43.4999L146.49 24.1L130.49 22.7499L105.09 20.6201C97.5366 19.9867 89.9866 19.3733 82.4399 18.78C82.2073 18.7526 81.9716 18.7758 81.7489 18.8483C81.5262 18.9208 81.3219 19.0408 81.15 19.1999C79.08 22.2499 77.0999 25.3599 74.9399 28.7299L74.95 28.7399ZM91.84 165.87L92.65 140.11L82.8 140.36L82.01 146.9C81.9363 148.14 81.776 149.373 81.53 150.59C81.4278 151.003 81.2372 151.388 80.9716 151.72C80.7059 152.052 80.3714 152.322 79.9912 152.512C79.611 152.702 79.1939 152.808 78.769 152.821C78.3441 152.835 77.9215 152.756 77.53 152.59C75.7 151.95 74.9099 150.7 74.9399 148.49C74.9399 145.86 75.0799 143.23 75.0699 140.6C75.0699 140.22 74.69 139.52 74.46 139.51C71.46 139.34 68.4001 139.27 65.1801 139.17C64.5501 147.17 63.9 155.39 63.25 163.72L91.84 165.87ZM163.98 171.45C166.4 156.71 170.16 142.45 172.83 127.69L166.3 127.48C166.22 130 166.18 132.61 166.05 135.23C165.71 142.183 165.343 149.137 164.95 156.09C164.79 158.95 164.72 159 161.85 158.9C155.39 158.68 148.93 158.47 142.48 158.22C140.08 158.13 137.69 157.82 135.29 157.82C132.17 157.82 129.04 158.01 125.91 158.19C125.66 158.19 125.23 158.79 125.23 159.12C125.23 161.61 125.23 164.12 125.23 166.6C125.203 166.977 125.26 167.355 125.398 167.707C125.535 168.059 125.748 168.376 126.023 168.635C126.297 168.894 126.626 169.089 126.985 169.206C127.345 169.323 127.725 169.358 128.1 169.31C129.03 169.31 129.95 169.1 130.86 169.15C138.23 169.56 145.6 169.98 152.97 170.48C156.71 170.72 160.47 171.12 164 171.44L163.98 171.45ZM98.98 141.94C98.8519 143.603 98.8119 145.272 98.86 146.94C99.11 149.94 99.99 150.64 102.98 150.79C105.97 150.94 109.06 151.16 112.1 151.27C113.1 151.27 113.46 151.64 113.37 152.67C113.05 156.76 112.81 160.86 112.5 164.95C112.403 165.548 112.499 166.161 112.775 166.7C113.05 167.24 113.489 167.677 114.03 167.95C114.672 168.344 115.407 168.561 116.16 168.581C116.913 168.6 117.659 168.421 118.32 168.061C118.982 167.701 119.538 167.173 119.931 166.531C120.324 165.888 120.541 165.153 120.56 164.4C120.77 160.99 120.91 157.58 121.1 154.17C121.23 151.71 120.61 151.81 123.67 151.9C126.01 151.97 128.35 151.9 130.67 151.79C131.01 151.79 131.61 151.37 131.67 151.11C131.81 148.78 131.85 146.45 131.94 143.71C129.35 143.63 126.74 143.51 124.12 143.49C123.12 143.49 122.83 143.14 122.84 142.2C122.84 139.66 122.78 137.12 122.84 134.59C122.84 133.31 122.49 132.46 121.06 132.32C119.37 132.15 117.67 131.94 115.98 131.68C113.69 131.33 112.98 131.83 112.98 134.22C112.98 136.06 113.08 137.91 113.22 139.75C113.36 141.59 113.35 141.59 111.65 141.64L98.98 141.94ZM90.61 93.1L65.36 91.1C65.36 98.96 65.36 106.64 65.36 114.41L91.1 116.16C90.91 108.36 90.75 100.81 90.58 93.09L90.61 93.1ZM214.28 130.58C212.55 130.42 211.18 130.31 209.81 130.15C208.99 130.05 208.6 130.29 208.39 131.15C207.18 136.15 205.9 141.15 204.61 146.15C202.763 153.33 200.893 160.51 199 167.69C198.49 169.62 197.94 171.55 197.38 173.6C202.38 173.97 207.2 174.35 212.03 174.6C214.23 174.74 214.23 174.6 214.15 172.45C214.03 169.597 213.967 166.74 213.96 163.88C213.897 163.232 214.001 162.578 214.262 161.981C214.523 161.384 214.931 160.864 215.45 160.47C216.87 159.47 217.12 158.75 216.7 156.91C216.524 156.861 216.342 156.841 216.16 156.85C214.74 157.14 214.32 156.47 214.29 155.15C214.19 151.05 213.93 146.95 213.92 142.85C213.91 138.75 214.12 134.82 214.25 130.57L214.28 130.58ZM119.73 117.87C119.73 117 119.73 116.13 119.82 115.26C120.11 112.09 120.33 108.91 120.76 105.76C120.785 105.352 120.897 104.955 121.088 104.594C121.279 104.233 121.545 103.916 121.867 103.666C122.19 103.415 122.562 103.236 122.959 103.14C123.356 103.044 123.769 103.034 124.17 103.11C125.78 103.4 126.57 104.75 126.37 106.68C126.1 109.39 125.84 112.1 125.67 114.82C125.45 118.48 125.49 118.48 129.16 118.73C131.9 118.92 132.16 118.73 132.23 115.94C132.235 115.847 132.235 115.753 132.23 115.66C132.057 109.293 131.897 102.927 131.75 96.56C131.75 95.56 131.35 95.27 130.33 95.27C124.33 95.27 118.41 95.17 112.33 95.11C111.87 102.61 111.43 110 110.97 117.59L119.73 117.87ZM193.56 75.1699L221.5 77.34L221.79 76.8898C219.64 74.6598 217.51 72.4099 215.33 70.1999C214.33 69.1499 213.06 68.2899 212.11 67.1999C210.6 65.4499 211.38 63.2 213.59 62.52C213.93 62.42 214.4 62.1598 214.48 61.8798C215.24 59.1298 215.93 56.3698 216.7 53.3898C212.94 53.1898 209.22 52.96 205.49 52.81C205.248 52.8334 205.012 52.9047 204.798 53.0197C204.583 53.1347 204.394 53.2911 204.24 53.4799C201.48 56.8799 198.74 60.3 196.07 63.77C195.232 64.6887 194.622 65.7917 194.29 66.9899C193.82 69.5799 193.76 72.2699 193.53 75.1599L193.56 75.1699ZM199.78 49.8C198.78 49.26 197.95 48.9099 197.21 48.4499C196.21 47.7899 195.49 47.9599 194.67 48.9399C192.04 52.0899 189.3 55.1499 186.57 58.2099C186.357 58.5008 186.089 58.7467 185.781 58.933C185.473 59.1194 185.13 59.2426 184.774 59.2956C184.418 59.3486 184.055 59.3304 183.705 59.2419C183.356 59.1534 183.028 58.9963 182.74 58.78C182.168 58.3388 181.778 57.7025 181.646 56.9924C181.513 56.2823 181.646 55.548 182.02 54.9299C182.218 54.5144 182.485 54.1357 182.81 53.81C183.143 53.4921 183.389 53.0952 183.527 52.6564C183.665 52.2176 183.69 51.751 183.6 51.3C183.46 50.02 183.42 48.7199 183.22 47.4499C183.16 47.0499 182.76 46.4498 182.44 46.3898C181.03 46.1898 179.6 46.12 178.17 46.06C177.36 46.06 176.94 46.45 176.87 47.32C176.59 50.73 176.34 54.14 175.87 57.53C175.663 58.4883 175.164 59.3586 174.44 60.02C173.96 60.5 173.69 60.7699 173.82 61.4699C174.51 65.1999 175.17 68.9199 175.82 72.6599C175.823 72.8401 175.864 73.0178 175.94 73.1813C176.015 73.3449 176.125 73.4908 176.26 73.6096C176.396 73.7283 176.555 73.8173 176.727 73.8708C176.899 73.9243 177.081 73.9408 177.26 73.9199C180.48 74.1299 183.7 74.4099 186.93 74.6599C187.238 74.6573 187.546 74.6307 187.85 74.58C188.07 71.43 188.25 68.35 188.54 65.28C188.574 64.3627 188.846 63.4701 189.33 62.6899C190.86 60.6299 192.59 58.6899 194.21 56.6899C196 54.4499 197.81 52.19 199.75 49.79L199.78 49.8ZM106.6 93.58C103.51 93.48 100.6 93.44 97.72 93.28C96.54 93.22 96.25 93.59 96.29 94.7599C96.48 99.8299 96.5799 104.91 96.7 109.99C96.7 112.14 96.79 114.3 96.84 116.64L105.22 116.9C105.65 109.25 106.1 101.59 106.57 93.57L106.6 93.58ZM37.38 63.07C37.51 59.07 37.65 55.2599 37.72 51.4799C37.675 50.984 37.4875 50.5118 37.1801 50.1201C34.3801 46.1201 31.55 42.1201 28.73 38.1201C28.45 37.7401 28.19 37.3398 27.73 36.6498C26.9 45.3498 26.1 53.65 25.29 62.1L37.38 63.07ZM98.6899 155.3C98.5799 158.93 98.46 162.3 98.41 165.65C98.41 165.88 98.92 166.31 99.21 166.33C102.05 166.47 104.89 166.53 107.78 166.63C107.66 163.28 107.54 159.74 107.37 156.21C107.316 156.055 107.225 155.915 107.105 155.804C106.985 155.692 106.839 155.612 106.68 155.57C104 155.44 101.43 155.37 98.66 155.29L98.6899 155.3ZM64.78 64.9999L65.46 43.32C64.09 45.18 62.6801 47.17 61.1801 49.08C60.2884 50.1988 59.7894 51.5796 59.76 53.0099C59.65 55.8699 59.34 58.72 59.13 61.57C59.06 62.57 59.06 63.65 59.03 64.82L64.78 64.9999ZM49.88 27.9999L55.49 16.6L45.1899 15.7299C46.7799 19.8499 48.27 23.7299 49.88 27.9999ZM227 174.86C227.06 173.06 227.11 171.6 227.14 170.13C227.2 169.351 227.2 168.569 227.14 167.79C227.106 167.613 227.029 167.448 226.916 167.308C226.802 167.169 226.656 167.059 226.49 166.99C225.482 166.681 224.434 166.526 223.38 166.53C222.404 166.575 221.467 166.925 220.7 167.53C219.42 168.71 219.27 172.1 220.33 173.48C220.789 174.085 221.448 174.507 222.19 174.67C223.71 174.86 225.32 174.8 227 174.86ZM106.4 79.9999C106.55 78.4199 106.68 76.86 106.83 75.3C106.9 74.59 106.72 74.1798 105.89 74.1298C104 74.0098 102.12 73.7999 100.23 73.7099C99.89 73.7099 99.23 74.02 99.23 74.27C98.92 76.02 98.74 77.7899 98.49 79.7499L106.4 79.9999Z" fill="#0B0B0B"/>
<path id="Vector_9" d="M60.62 119.88L57.0899 163.2C56.3599 163.2 55.5899 163.2 54.8299 163.13C50.5499 162.83 46.26 162.49 41.98 162.21C41.5772 162.2 41.1833 162.09 40.8341 161.889C40.4848 161.688 40.1913 161.403 39.98 161.06C37.43 157.39 34.84 153.74 32.15 150.16C31.8869 149.869 31.5639 149.637 31.2032 149.482C30.8425 149.327 30.4526 149.251 30.06 149.26C29.61 149.26 28.94 150.21 28.86 150.8C28.48 153.55 28.28 156.31 28 159.07C28.0103 159.382 27.9477 159.692 27.817 159.975C27.6863 160.258 27.4913 160.506 27.2474 160.701C27.0036 160.895 26.7177 161.03 26.4125 161.094C26.1074 161.158 25.7914 161.15 25.49 161.07C22.87 160.84 20.26 160.54 17.63 160.38C16.63 160.32 16.49 159.91 16.54 159.08C16.91 153.33 17.16 147.56 17.64 141.82C18.29 134.04 19.15 126.28 19.84 118.51C19.95 117.35 20.29 117.03 21.42 117.13C25.7 117.48 30 117.71 34.27 118.13C34.6094 118.184 34.9336 118.309 35.2214 118.497C35.5092 118.685 35.754 118.931 35.9399 119.22C37.6899 122.41 39.3099 125.68 40.9399 128.91C41.2808 129.621 41.7001 130.292 42.1899 130.91C42.8299 131.66 43.46 132.7 44.68 132.25C45.3538 132.059 45.9552 131.672 46.4077 131.138C46.8602 130.603 47.143 129.946 47.22 129.25C47.6 126.25 48.1599 123.33 48.5899 120.36C48.6999 119.6 48.96 119.11 49.78 119.16L60.62 119.88ZM47.7099 141.73C47.9899 143.51 48.2699 145.33 48.5799 147.14C48.5882 147.362 48.6438 147.58 48.7429 147.778C48.842 147.977 48.9824 148.152 49.1546 148.292C49.3269 148.432 49.5272 148.534 49.7419 148.591C49.9567 148.647 50.1811 148.657 50.4 148.62C51.5 148.49 51.79 147.62 51.72 146.68C51.6515 145.854 51.5381 145.033 51.38 144.22C50.88 141.6 50.8899 139.11 52.7099 136.87C52.8361 136.575 52.8892 136.253 52.8648 135.933C52.8405 135.613 52.7393 135.303 52.5699 135.03C52.3136 134.833 52.0149 134.697 51.6974 134.635C51.3798 134.572 51.052 134.584 50.74 134.67C50.1166 134.952 49.6086 135.439 49.3 136.05C48.8129 137.026 48.3789 138.027 48 139.05C46.81 139.05 45.8099 139.05 44.8199 139.13C42.0799 139.34 39.3 139.99 36.6 139.76C32.06 139.38 27.7 138.28 25.79 133.25C25.6128 132.983 25.3697 132.766 25.0841 132.621C24.7985 132.476 24.4801 132.406 24.16 132.42C23.856 132.567 23.5892 132.782 23.3797 133.046C23.1701 133.311 23.0233 133.62 22.95 133.95C22.9037 134.647 23.0636 135.343 23.41 135.95C24.4372 138.153 26.2075 139.923 28.41 140.95C34.7 144 41.1299 143.63 47.7099 141.73Z" fill="white"/>
<path id="Vector_10" d="M170.07 171.64C171.18 166.11 172.25 160.74 173.35 155.22C174.68 155.59 175.84 155.98 177.03 156.22C179.83 156.84 182.63 157.4 185.44 157.95C185.983 158.06 186.539 158.09 187.09 158.04C187.877 158.013 188.624 157.688 189.181 157.131C189.738 156.574 190.063 155.827 190.09 155.04C190.09 153.34 188.99 152.34 187.14 151.99C183.43 151.27 179.75 150.39 176.06 149.59C175 149.36 174.72 148.88 174.96 147.73C176.44 140.73 177.83 133.73 179.23 126.73C179.92 123.26 180.57 119.78 181.29 116.01C187.78 117.26 194.1 118.45 200.41 119.73C204.27 120.52 204.35 120.6 203.75 124.49C203.26 127.68 202.58 130.84 201.87 133.99C201.4 136.08 200.74 136.04 198.82 135.22C195.708 133.943 192.523 132.854 189.28 131.96C188.66 131.851 188.022 131.961 187.475 132.271C186.927 132.581 186.505 133.072 186.28 133.66C186.011 134.256 185.954 134.926 186.118 135.558C186.281 136.191 186.656 136.749 187.18 137.14C187.832 137.566 188.538 137.903 189.28 138.14C192.26 139.247 195.26 140.337 198.28 141.41C199.06 141.69 199.37 142.01 199.12 142.92C196.58 152.37 194.12 161.84 191.58 171.29C191.03 173.29 190.95 173.29 188.94 173.12L171.39 171.8C171 171.76 170.63 171.7 170.07 171.64Z" fill="white"/>
<path id="Vector_11" d="M20.53 111.35C21.93 96.7701 23.31 82.4001 24.72 67.8101L60.33 70.5901L60.15 76.26C58.81 76.26 57.71 76.2599 56.62 76.1499C49.9533 75.6699 43.2867 75.1833 36.62 74.6899C35.9329 74.6144 35.2395 74.7586 34.6394 75.1018C34.0393 75.445 33.5634 75.9696 33.28 76.6001C32.15 78.4401 32.11 80.3899 32.04 82.4399C31.86 87.5599 31.53 92.68 31.28 97.8C31.2247 98.581 31.2548 99.3655 31.37 100.14C31.4282 100.543 31.5731 100.928 31.7947 101.269C32.0163 101.61 32.3093 101.899 32.6536 102.116C32.9978 102.333 33.3849 102.472 33.7883 102.525C34.1917 102.577 34.6017 102.541 34.99 102.42C35.7038 102.277 36.4329 102.223 37.16 102.26C41.04 102.43 44.91 102.79 48.78 102.75C50.3771 102.648 51.9221 102.143 53.27 101.28C54.0388 100.582 54.4992 99.6073 54.55 98.5701C54.7901 96.1501 54.76 93.7001 54.84 91.0901L59.59 91.54C59.59 99.01 59.59 106.38 59.59 114L20.53 111.35Z" fill="white"/>
<path id="Vector_12" d="M139.3 53.3002C141.24 53.1302 142 51.98 142.6 50.42C145.75 42.15 148.99 33.91 152.17 25.64C152.203 25.471 152.27 25.3104 152.367 25.1678C152.463 25.0253 152.588 24.9038 152.732 24.8104C152.877 24.7171 153.039 24.6539 153.209 24.6246C153.378 24.5954 153.552 24.6005 153.72 24.64C155.51 24.84 157.3 25.0102 159.1 25.0902C159.303 25.0724 159.508 25.0963 159.702 25.1605C159.896 25.2248 160.075 25.328 160.228 25.4637C160.38 25.5995 160.504 25.765 160.59 25.9501C160.676 26.1352 160.724 26.336 160.73 26.5402C161.47 30.7102 162.2 34.9002 163.05 39.0502C165.05 49.0502 167.21 59.0501 169.28 68.9901C169.56 70.3401 169.74 71.7002 170.01 73.2902L139.68 70.9301C139.55 65.0501 139.43 59.2602 139.3 53.3002ZM156.97 49.5201C157.09 46.9601 156.17 45.5902 154.64 45.3402C154.273 45.278 153.898 45.2906 153.536 45.3778C153.174 45.465 152.834 45.6248 152.536 45.8473C152.237 46.0698 151.987 46.3506 151.801 46.6725C151.614 46.9944 151.495 47.3507 151.45 47.7201C150.883 50.8001 150.39 53.8901 149.97 56.9901C149.847 57.7289 150.018 58.4865 150.445 59.1012C150.873 59.7159 151.525 60.139 152.26 60.2802C152.637 60.3515 153.025 60.3452 153.4 60.2618C153.775 60.1785 154.129 60.0198 154.44 59.7953C154.752 59.5708 155.015 59.2852 155.212 58.9559C155.41 58.6267 155.538 58.2605 155.59 57.88C156.16 54.89 156.59 51.8801 157 49.5201H156.97Z" fill="white"/>
<path id="Vector_13" d="M29.84 14.3701C32.6 14.6201 35.13 14.88 37.65 15.04C38.0362 15.0107 38.4207 15.1147 38.7393 15.335C39.0578 15.5552 39.2911 15.8783 39.4 16.25C40.62 19.69 41.8399 23.12 43.1899 26.51C44.1899 29 45.3199 31.4201 46.4399 33.8501C47.0999 35.2901 48.0201 36.64 49.8101 36.48C50.7098 36.4321 51.5759 36.1227 52.3024 35.5898C53.0289 35.057 53.5841 34.3237 53.9 33.48C56.27 28.18 58.83 22.95 61.36 17.71C61.4627 17.5519 61.6015 17.4205 61.7649 17.3267C61.9283 17.2328 62.1118 17.1791 62.3 17.1699C66.39 17.4599 70.48 17.8099 74.91 18.1699C73.91 19.7299 73.09 21.0699 72.23 22.3999L58.79 42.8999C58.01 44.0999 57.32 45.36 56.49 46.52C53.7 50.41 53.8801 54.9599 53.5601 59.3999C53.4501 60.9599 53.3201 62.51 53.1801 64.24L42.87 63.48C42.87 62 42.93 60.63 43 59.26C43.12 56.87 43.2199 54.4601 43.4399 52.0701C43.6136 50.7822 43.3152 49.4749 42.6 48.3899C40.95 45.9499 39.25 43.5401 37.6 41.1001C35.77 38.3801 34.05 35.5899 32.15 32.9199C31.1512 31.6738 30.0864 30.4823 28.96 29.3501C28.7161 29.1111 28.5579 28.7981 28.51 28.46C28.94 23.76 29.39 19.0801 29.84 14.3701Z" fill="white"/>
<path id="Vector_14" d="M152.44 144.13C152.62 138.217 152.803 132.313 152.99 126.42C152.99 125.17 153.13 123.93 153.13 122.68C153.13 120.28 151.42 119.06 149.13 119.78C148.879 119.891 148.613 119.965 148.34 120C147.877 120.035 147.413 120.035 146.95 120L138.03 119.37C137.87 111.6 137.71 103.96 137.55 96.02L160.43 97.48C161.29 115.95 159.82 134.34 160.65 152.61L136.65 152.76C136.65 151.12 136.75 149.38 136.81 147.65C136.81 147.19 136.89 146.73 136.87 146.27C136.826 146.028 136.833 145.779 136.892 145.54C136.95 145.301 137.058 145.077 137.209 144.882C137.36 144.688 137.551 144.527 137.768 144.412C137.985 144.296 138.224 144.227 138.47 144.21C140.129 144.004 141.799 143.9 143.47 143.9C146.37 143.89 149.17 144 152.44 144.13ZM148.65 110.64L150.65 110.71C151.34 110.71 152.04 110.8 152.73 110.76C153.429 110.753 154.101 110.488 154.616 110.015C155.131 109.543 155.453 108.896 155.52 108.2C155.588 107.522 155.406 106.844 155.008 106.291C154.61 105.738 154.024 105.35 153.36 105.2C153.009 105.09 152.647 105.02 152.28 104.99C149.84 104.84 147.4 104.67 144.96 104.6C144.58 104.545 144.192 104.571 143.822 104.675C143.452 104.78 143.109 104.961 142.813 105.208C142.518 105.454 142.278 105.759 142.109 106.104C141.939 106.449 141.844 106.826 141.83 107.21C141.797 107.979 142.068 108.73 142.585 109.301C143.101 109.872 143.822 110.216 144.59 110.26C146 110.46 147.39 110.54 148.65 110.64Z" fill="white"/>
<path id="Vector_15" d="M98.73 67.8001L70.38 65.5901C70.38 64.4701 70.38 63.48 70.48 62.48C70.92 54.6 71.4 46.7201 71.76 38.8401C71.6679 37.6775 71.4396 36.5294 71.08 35.42C70.9821 35.0938 70.9821 34.7461 71.08 34.42C71.1786 34.3162 71.2984 34.2349 71.4313 34.1814C71.5641 34.128 71.7069 34.1037 71.85 34.1102L93.54 35.43C94.6 35.5 95.66 35.5201 96.72 35.5501C98.79 35.6001 98.83 35.6 98.88 37.73C98.97 41.73 99.06 45.6699 99.04 49.6399C99.04 55.0799 98.91 60.53 98.83 65.98C98.86 66.53 98.79 67.0701 98.73 67.8001ZM86.84 53.74C86.84 53.1 86.84 52.4501 86.78 51.8101C86.59 49.0501 86.48 46.2701 86.14 43.5301C85.89 41.4501 84.31 40.2701 82.65 40.6001C80.99 40.9301 80.21 42.36 80.49 44.48C80.64 45.62 80.7599 46.77 80.8199 47.92C80.9499 50.78 81.02 53.64 81.16 56.49C81.25 58.56 82.43 59.8401 84.11 59.8201C85.79 59.8001 86.91 58.4402 86.91 56.3702C86.92 55.5002 86.87 54.62 86.84 53.74Z" fill="white"/>
<path id="Vector_16" d="M236.31 103.17C235.31 109.98 234.45 116.8 233.41 123.59C232.28 130.98 231.02 138.35 229.85 145.74C229.793 146.282 229.861 146.829 230.05 147.34C230.25 147.811 230.33 148.324 230.286 148.833C230.241 149.343 230.072 149.834 229.794 150.263C229.516 150.692 229.137 151.047 228.69 151.296C228.243 151.544 227.741 151.68 227.23 151.69C225.23 151.83 223.203 151.917 221.15 151.95C220.616 151.971 220.086 151.845 219.619 151.586C219.151 151.327 218.764 150.945 218.498 150.48C218.233 150.016 218.101 149.488 218.115 148.954C218.13 148.419 218.29 147.899 218.58 147.45C218.949 146.777 219.155 146.027 219.18 145.26C219.3 129.98 219.36 114.7 219.45 99.4199C219.439 98.8197 219.49 98.22 219.6 97.6299C219.675 97.2198 219.837 96.8305 220.075 96.4878C220.312 96.145 220.62 95.8568 220.978 95.6421C221.335 95.4274 221.734 95.2911 222.149 95.2424C222.563 95.1938 222.982 95.2341 223.38 95.3601C226.29 96.0701 229.2 96.7901 232.14 97.3601C235.97 98.0801 236.25 98.3599 236.14 102.18C236.14 102.5 236.14 102.83 236.14 103.18L236.31 103.17Z" fill="white"/>
<path id="Vector_17" d="M104.72 68.27C104.8 58.15 104.88 48.2699 104.96 37.9399L116.46 37.74C116.46 38.74 116.58 39.7401 116.56 40.5901C116.56 43.3101 116.42 46.04 116.38 48.76C116.346 49.5427 116.393 50.327 116.52 51.1001C116.632 51.7439 116.959 52.3306 117.448 52.7646C117.936 53.1987 118.557 53.4544 119.21 53.49C119.845 53.541 120.478 53.3691 121 53.0042C121.522 52.6392 121.9 52.1038 122.07 51.49C122.381 50.1946 122.562 48.8714 122.61 47.54C122.76 44.41 122.82 41.29 122.92 38.03L132.15 38.3201C133.93 48.8601 133.43 59.57 133.91 70.5L104.72 68.27ZM119.24 59.74C123.57 59.6 127.5 58.18 130 54.05C130.22 53.68 130 53.05 130 52.49C129.545 52.726 129.122 53.0184 128.74 53.3601C128.2 53.9801 127.88 54.7901 127.3 55.3601C126.174 56.4334 124.834 57.2556 123.367 57.7727C121.9 58.2898 120.34 58.4901 118.79 58.3601C115.99 58.2301 113.45 57.36 111.79 54.8C111.475 54.4099 111.101 54.0723 110.68 53.8C110.64 54.3226 110.64 54.8475 110.68 55.3701C110.785 55.6737 110.956 55.9501 111.18 56.1799C113.16 58.7299 116 59.49 119.24 59.74ZM115.51 63.21L115.57 63.7C114.57 64.36 113.4 64.1801 112.29 64.3101C111.908 64.4328 111.55 64.6187 111.23 64.8601C111.55 65.1201 111.88 65.6001 112.23 65.6001C113.33 65.6001 114.43 65.4401 115.52 65.3501C116.61 65.2601 117.52 65.25 117.08 63.8C117.08 63.61 117.3 63.3301 117.42 63.1001L117.91 62.1499C117.557 61.9886 117.184 61.8777 116.8 61.8201C115.24 61.8201 113.67 61.7501 112.11 61.8201C111.632 61.9196 111.17 62.088 110.74 62.3201C111.159 62.6559 111.632 62.9165 112.14 63.0901C113.23 63.2101 114.38 63.17 115.51 63.21ZM127.77 63.29L127.93 63.9199C127.183 64.0821 126.445 64.2858 125.72 64.53C125.43 64.63 125.24 64.99 125.01 65.24C125.22 65.43 125.46 65.83 125.63 65.8C126.811 65.6475 127.974 65.3761 129.1 64.99C129.38 64.88 129.32 63.9201 129.44 63.3501C129.502 63.1791 129.594 63.0199 129.71 62.8799C130.24 62.0099 129.71 61.74 129 61.8C127.45 61.95 125.9 62.18 124.36 62.46C124.07 62.52 123.85 62.98 123.6 63.26C123.96 63.42 124.34 63.74 124.69 63.71C125.72 63.64 126.74 63.44 127.77 63.29Z" fill="white"/>
<path id="Vector_18" d="M91.83 165.86L63.21 163.74C63.86 155.41 64.51 147.2 65.14 139.19C68.36 139.29 71.39 139.36 74.42 139.53C74.65 139.53 75.03 140.24 75.03 140.62C75.03 143.25 74.95 145.88 74.9 148.51C74.9 150.72 75.66 151.97 77.49 152.61C77.8814 152.776 78.3042 152.855 78.7291 152.841C79.154 152.828 79.5709 152.722 79.9512 152.532C80.3314 152.342 80.6659 152.072 80.9315 151.74C81.1972 151.408 81.3877 151.023 81.49 150.61C81.7359 149.393 81.8963 148.16 81.97 146.92L82.76 140.38L92.61 140.13L91.83 165.86Z" fill="white"/>
<path id="Vector_19" d="M99 141.93L111.61 141.65C113.31 141.6 113.32 141.52 113.18 139.76C113.04 138 112.92 136.07 112.94 134.23C112.94 131.84 113.65 131.34 115.94 131.69C117.63 131.95 119.33 132.16 121.02 132.33C122.45 132.47 122.81 133.33 122.8 134.6C122.8 137.13 122.87 139.67 122.8 142.21C122.8 143.15 123.12 143.49 124.08 143.5C126.7 143.5 129.31 143.64 131.9 143.72C131.81 146.46 131.77 148.79 131.63 151.12C131.63 151.38 131.01 151.79 130.63 151.8C128.28 151.9 125.94 151.98 123.63 151.91C120.57 151.82 121.19 151.72 121.06 154.18C120.87 157.59 120.73 161 120.52 164.41C120.507 165.165 120.295 165.903 119.905 166.55C119.515 167.197 118.961 167.729 118.3 168.094C117.638 168.458 116.892 168.641 116.137 168.625C115.382 168.608 114.645 168.393 114 168C113.459 167.727 113.02 167.29 112.744 166.75C112.469 166.211 112.373 165.598 112.47 165C112.78 160.91 113.02 156.81 113.34 152.72C113.43 151.72 113.1 151.35 112.07 151.32C109.07 151.21 105.99 151 102.95 150.84C99.9099 150.68 99.0799 149.96 98.8299 146.99C98.7963 145.302 98.8531 143.612 99 141.93Z" fill="white"/>
<path id="Vector_20" d="M90.58 93.0901C90.75 100.81 90.91 108.36 91.08 116.09L65.34 114.34C65.34 106.57 65.34 98.89 65.34 91.03L90.58 93.0901ZM81.64 105.09H81.73C81.55 102.79 81.4401 100.49 81.1801 98.21C80.9601 96.21 79.65 95.1101 77.99 95.3101C76.33 95.5101 75.38 96.9301 75.5 98.8601C75.66 101.25 75.77 103.64 75.91 106.03C75.9182 106.857 75.9816 107.682 76.1 108.5C76.2059 109.188 76.5566 109.815 77.0875 110.265C77.6185 110.715 78.294 110.958 78.99 110.95C79.7142 110.916 80.3975 110.604 80.897 110.079C81.3964 109.553 81.6734 108.855 81.67 108.13C81.74 107.08 81.66 106.07 81.64 105.05V105.09Z" fill="white"/>
<path id="Vector_21" d="M119.7 117.86L110.96 117.58C111.42 109.99 111.86 102.58 112.32 95.1001C118.39 95.1601 124.32 95.25 130.32 95.26C131.32 95.26 131.72 95.53 131.74 96.55C131.88 102.917 132.04 109.283 132.22 115.65C132.225 115.743 132.225 115.837 132.22 115.93C132.14 118.68 131.89 118.93 129.15 118.72C125.48 118.47 125.44 118.47 125.66 114.81C125.83 112.09 126.09 109.38 126.36 106.67C126.56 104.74 125.77 103.39 124.16 103.1C123.759 103.024 123.346 103.034 122.949 103.13C122.552 103.226 122.18 103.405 121.857 103.656C121.535 103.906 121.269 104.223 121.078 104.584C120.887 104.945 120.775 105.342 120.75 105.75C120.32 108.9 120.1 112.08 119.81 115.25C119.72 116.12 119.73 117 119.7 117.86Z" fill="white"/>
<path id="Vector_22" d="M193.53 75.1599C193.76 72.2699 193.82 69.58 194.26 66.96C194.592 65.7618 195.202 64.6587 196.04 63.74C198.71 60.27 201.45 56.85 204.21 53.45C204.364 53.2611 204.553 53.1048 204.768 52.9897C204.982 52.8747 205.218 52.8035 205.46 52.78C209.19 52.93 212.91 53.1601 216.67 53.3601C215.9 56.3601 215.21 59.1001 214.45 61.8501C214.37 62.1301 213.9 62.39 213.56 62.49C211.35 63.17 210.56 65.4199 212.08 67.1699C213.08 68.2799 214.26 69.1699 215.3 70.1699C217.48 72.3799 219.61 74.6301 221.76 76.8601L221.47 77.3101L193.53 75.1599ZM205.3 58.9399C205.254 59.5214 205.402 60.1018 205.723 60.5891C206.044 61.0764 206.518 61.4425 207.07 61.6299C207.624 61.8758 208.244 61.9337 208.834 61.7947C209.425 61.6557 209.954 61.3276 210.34 60.8601C211.019 60.0524 211.634 59.1931 212.18 58.29C212.48 57.8401 212.628 57.3054 212.601 56.7651C212.574 56.2249 212.374 55.7078 212.03 55.29C211.719 54.8268 211.267 54.475 210.742 54.2861C210.217 54.0973 209.645 54.0811 209.11 54.24C207.51 54.62 205.34 57.2799 205.3 58.9399Z" fill="white"/>
<path id="Vector_23" d="M199.75 49.7901C197.81 52.1901 196 54.45 194.17 56.7C192.55 58.7 190.82 60.62 189.29 62.7C188.806 63.4802 188.534 64.3728 188.5 65.2901C188.21 68.3601 188.03 71.4401 187.81 74.5901C187.506 74.6408 187.198 74.6674 186.89 74.67C183.66 74.42 180.44 74.14 177.22 73.93C177.041 73.951 176.859 73.9344 176.687 73.8809C176.515 73.8274 176.356 73.7384 176.22 73.6197C176.085 73.5009 175.975 73.355 175.899 73.1914C175.824 73.0279 175.783 72.8502 175.78 72.67C175.16 68.93 174.5 65.21 173.78 61.48C173.65 60.78 173.92 60.4801 174.4 60.0301C175.124 59.3687 175.623 58.4984 175.83 57.5401C176.28 54.1501 176.53 50.7401 176.83 47.3301C176.9 46.4601 177.32 46.0401 178.13 46.0701C179.56 46.1301 180.99 46.1999 182.4 46.3999C182.72 46.3999 183.12 47.06 183.18 47.46C183.38 48.73 183.42 50.0301 183.56 51.3101C183.65 51.7611 183.626 52.2277 183.487 52.6665C183.349 53.1054 183.102 53.5022 182.77 53.8201C182.445 54.1458 182.178 54.5245 181.98 54.94C181.606 55.5581 181.473 56.2924 181.606 57.0025C181.738 57.7126 182.128 58.3489 182.7 58.7901C182.988 59.0065 183.316 59.1635 183.665 59.252C184.015 59.3405 184.378 59.3587 184.734 59.3057C185.09 59.2527 185.433 59.1295 185.741 58.9432C186.049 58.7568 186.317 58.5109 186.53 58.22C189.26 55.16 192 52.1 194.63 48.95C195.45 47.95 196.13 47.8 197.17 48.46C197.92 48.9 198.73 49.2501 199.75 49.7901Z" fill="white"/>
<path id="Vector_24" d="M106.57 93.5701C106.1 101.57 105.65 109.25 105.19 116.89L96.8101 116.63C96.8101 114.29 96.72 112.13 96.67 109.98C96.55 104.9 96.45 99.8201 96.26 94.7501C96.26 93.5801 96.5099 93.2101 97.6899 93.2701C100.58 93.4301 103.48 93.4701 106.57 93.5701Z" fill="white"/>
<path id="Vector_25" d="M65.74 132.8C65.96 130.1 66.15 127.67 66.36 125.25C66.46 124.05 66.6399 122.86 66.6899 121.67C66.6899 120.67 67.13 120.34 68.15 120.42C74 120.88 79.85 121.28 85.7 121.68C92.28 122.13 98.87 122.53 105.46 122.98C116.367 123.74 127.28 124.513 138.2 125.3L147.02 125.91L146.65 137.91C145.56 137.91 144.6 137.86 143.65 137.82C138.65 137.6 133.65 137.35 128.65 137.2C127.65 137.2 127.28 136.82 127.22 135.87C127.11 133.98 126.96 132.1 126.79 130.22C126.794 129.931 126.741 129.644 126.633 129.375C126.525 129.106 126.366 128.862 126.163 128.656C125.96 128.449 125.719 128.285 125.452 128.172C125.186 128.06 124.899 128.001 124.61 128C121.03 127.68 117.44 127.33 113.86 127C112.86 126.9 111.86 126.69 110.86 126.6C109.17 126.45 108.65 126.76 108.41 128.47C108.147 130.437 107.993 132.416 107.95 134.4C107.95 135.5 107.66 135.94 106.43 135.86C103.9 135.68 101.36 135.74 98.8199 135.6C98.2185 135.457 97.642 135.225 97.11 134.91C95.99 134.47 94.79 133.56 93.74 133.7C86 134.7 78.35 133.7 70.67 133.01C69.12 132.83 67.51 132.86 65.74 132.8Z" fill="#EBC36E"/>
<path id="Vector_26" d="M164 171.44C160.5 171.12 156.74 170.72 153 170.44C145.63 169.94 138.26 169.52 130.89 169.11C129.98 169.11 129.06 169.25 128.13 169.27C127.755 169.318 127.375 169.283 127.015 169.166C126.656 169.05 126.327 168.854 126.053 168.595C125.778 168.336 125.565 168.019 125.427 167.667C125.29 167.315 125.233 166.937 125.26 166.56C125.26 164.06 125.26 161.56 125.26 159.08C125.26 158.75 125.69 158.17 125.94 158.15C129.07 157.97 132.2 157.78 135.32 157.78C137.72 157.78 140.11 158.09 142.51 158.18C148.96 158.43 155.42 158.64 161.88 158.86C164.75 158.96 164.82 158.91 164.98 156.05C165.367 149.103 165.733 142.15 166.08 135.19C166.21 132.57 166.25 129.96 166.33 127.44L172.86 127.65C170.15 142.43 166.39 156.7 164 171.44Z" fill="#EBC36E"/>
<path id="Vector_27" d="M214.25 130.57C214.12 134.82 213.88 138.87 213.89 142.93C213.9 146.99 214.16 151.13 214.26 155.23C214.26 156.55 214.71 157.23 216.13 156.93C216.312 156.921 216.494 156.941 216.67 156.99C217.09 158.83 216.84 159.54 215.42 160.55C214.902 160.944 214.492 161.464 214.232 162.061C213.971 162.658 213.867 163.312 213.93 163.96C213.93 166.82 213.993 169.677 214.12 172.53C214.2 174.71 214.2 174.82 212 174.68C207.17 174.38 202.35 174 197.35 173.68C197.91 171.63 198.46 169.68 198.97 167.77C200.85 160.59 202.72 153.41 204.58 146.23C205.87 141.23 207.15 136.23 208.36 131.23C208.57 130.35 208.96 130.11 209.78 130.23C211.15 130.3 212.52 130.41 214.25 130.57Z" fill="#EBC36E"/>
<path id="Vector_28" d="M98.6601 155.29C101.43 155.37 104.04 155.44 106.66 155.56C106.819 155.602 106.965 155.682 107.085 155.794C107.205 155.905 107.296 156.045 107.35 156.2C107.52 159.73 107.64 163.27 107.76 166.62C104.87 166.52 102.03 166.46 99.19 166.32C98.9 166.32 98.38 165.87 98.39 165.64C98.43 162.28 98.5501 158.92 98.6601 155.29Z" fill="#EBC36E"/>
<path id="Vector_29" d="M230.29 31C228.81 45 227.35 58.7901 225.89 72.5801L225.54 72.8401C225.29 72.4377 225.016 72.0502 224.72 71.6799C223.24 70.0299 221.79 68.3601 220.23 66.8C219.951 66.5765 219.752 66.2688 219.662 65.9229C219.572 65.5769 219.595 65.2111 219.73 64.8799C220.8 60.8799 221.86 56.95 222.73 52.95C223.42 49.95 222 48.1101 218.92 47.8601C214.83 47.5401 210.73 47.2499 206.63 46.9299C206.234 46.8752 205.852 46.75 205.5 46.5601C202.39 44.9801 199.33 43.2701 196.15 41.8301C194.15 40.9401 193.15 41.4599 191.9 43.1899C191.06 44.3099 190.08 45.3301 188.97 46.6201L188.56 44.1799C188.502 43.2913 188.12 42.4549 187.486 41.8298C186.851 41.2048 186.009 40.8348 185.12 40.79C182.65 40.53 180.12 40.3899 177.67 40.1899C177.215 40.1516 176.764 40.0781 176.32 39.97C173.79 39.31 172.09 40.4 171.6 42.97C171.46 43.74 171.38 44.52 171.28 45.3C171.18 46.08 171.11 46.73 171.02 47.45H170.61L166.32 25.6299L230.29 31Z" fill="#EA726D"/>
<path id="Vector_30" d="M74.9399 28.7299C77.0999 25.3599 79.08 22.2499 81.13 19.1899C81.3019 19.0308 81.5062 18.9108 81.7289 18.8383C81.9516 18.7658 82.1874 18.7425 82.42 18.7699C89.9667 19.3633 97.5166 19.9767 105.07 20.61L130.47 22.7399L146.47 24.09L138.82 43.4899C138.43 41.2299 138.17 39.2299 137.75 37.2699C137.02 33.8699 135.48 32.5299 132 32.4499C123.41 32.2499 114.82 32.1299 106.23 31.9899C105.682 32.0525 105.131 32.086 104.58 32.09C104.083 31.984 103.607 31.7983 103.17 31.54C102.17 31.04 101.17 30.14 100.17 30.06C95.05 29.7 89.9301 29.57 84.8101 29.32C81.6001 29.17 78.3899 28.9399 74.9399 28.7299Z" fill="#EA726D"/>
<path id="Vector_31" d="M37.35 63.0601L25.25 62.0601C26.06 53.6101 26.86 45.3101 27.69 36.6101C28.16 37.3001 28.42 37.7001 28.69 38.0801C31.51 42.0801 34.34 46.0801 37.14 50.0801C37.4475 50.4718 37.6351 50.944 37.6801 51.4399C37.6201 55.2499 37.48 59.0001 37.35 63.0601Z" fill="#EA726D"/>
<path id="Vector_32" d="M64.78 65L59.03 64.8201C59.03 63.6501 59.03 62.6101 59.13 61.5701C59.34 58.7201 59.65 55.87 59.76 53.01C59.7894 51.5797 60.2884 50.1988 61.1801 49.0801C62.6801 47.1701 64.09 45.1801 65.46 43.3201L64.78 65Z" fill="#EA726D"/>
<path id="Vector_33" d="M49.88 28C48.27 23.78 46.7799 19.9 45.1899 15.73L55.49 16.6001L49.88 28Z" fill="#EA726D"/>
<path id="Vector_34" d="M227 174.86C225.33 174.8 223.72 174.86 222.15 174.65C221.408 174.487 220.749 174.065 220.29 173.46C219.23 172.08 219.38 168.69 220.66 167.51C221.427 166.905 222.364 166.556 223.34 166.51C224.394 166.506 225.442 166.661 226.45 166.97C226.616 167.039 226.762 167.149 226.875 167.288C226.989 167.428 227.066 167.593 227.1 167.77C227.16 168.549 227.16 169.331 227.1 170.11C227.1 171.6 227.05 173.06 227 174.86Z" fill="white"/>
<path id="Vector_35" d="M106.4 79.9999L98.48 79.7499C98.73 77.7499 98.91 76.0199 99.22 74.2699C99.22 74.0199 99.89 73.6899 100.22 73.7099C102.11 73.7999 103.99 74.0098 105.88 74.1298C106.71 74.1298 106.88 74.5899 106.82 75.2999C106.68 76.8799 106.55 78.4399 106.4 79.9999Z" fill="white"/>
<path id="Vector_36" d="M47.71 141.73C41.13 143.63 34.71 143.97 28.41 140.87C26.2075 139.843 24.4373 138.073 23.41 135.87C23.0637 135.263 22.9037 134.568 22.95 133.87C23.0233 133.54 23.1702 133.231 23.3797 132.966C23.5893 132.701 23.856 132.487 24.16 132.34C24.4802 132.326 24.7985 132.395 25.0841 132.541C25.3697 132.686 25.6128 132.903 25.79 133.17C27.7 138.17 32.06 139.3 36.6 139.68C39.3 139.91 42.08 139.26 44.82 139.05C45.82 138.97 46.82 139 48 138.97C48.379 137.947 48.813 136.946 49.3001 135.97C49.6086 135.359 50.1167 134.872 50.74 134.59C51.0521 134.504 51.3798 134.492 51.6974 134.554C52.015 134.617 52.3136 134.752 52.57 134.95C52.7393 135.223 52.8405 135.533 52.8649 135.853C52.8893 136.173 52.8361 136.495 52.71 136.79C50.89 139.03 50.88 141.52 51.38 144.14C51.5381 144.953 51.6516 145.775 51.72 146.6C51.79 147.6 51.5 148.41 50.4 148.54C50.1811 148.577 49.9567 148.567 49.742 148.511C49.5272 148.454 49.327 148.353 49.1547 148.212C48.9824 148.072 48.842 147.897 48.7429 147.698C48.6438 147.5 48.5882 147.282 48.58 147.06C48.27 145.33 48 143.51 47.71 141.73Z" fill="black"/>
<path id="Vector_37" d="M157 49.52C156.62 51.88 156.19 54.8899 155.62 57.8799C155.568 58.2604 155.44 58.6266 155.242 58.9558C155.045 59.285 154.782 59.5706 154.471 59.7952C154.159 60.0197 153.805 60.1784 153.43 60.2617C153.055 60.3451 152.667 60.3514 152.29 60.28C151.557 60.1388 150.907 59.7172 150.479 59.1047C150.052 58.4923 149.88 57.7372 150 57C150.42 53.9 150.913 50.81 151.48 47.73C151.525 47.3606 151.644 47.0043 151.831 46.6824C152.017 46.3604 152.267 46.0797 152.566 45.8572C152.864 45.6347 153.204 45.4749 153.566 45.3877C153.928 45.3005 154.303 45.2879 154.67 45.3501C156.17 45.5901 157.09 47 157 49.52Z" fill="black"/>
<path id="Vector_38" d="M148.65 110.64C147.39 110.54 146.01 110.46 144.65 110.29C143.882 110.246 143.161 109.902 142.645 109.331C142.128 108.76 141.857 108.009 141.89 107.24C141.904 106.856 141.999 106.479 142.169 106.134C142.338 105.789 142.578 105.484 142.873 105.238C143.168 104.991 143.512 104.81 143.882 104.705C144.252 104.601 144.64 104.575 145.02 104.63C147.46 104.7 149.9 104.87 152.34 105.02C152.707 105.05 153.069 105.121 153.42 105.23C154.084 105.38 154.67 105.769 155.068 106.321C155.466 106.874 155.648 107.553 155.58 108.23C155.513 108.926 155.191 109.573 154.676 110.045C154.161 110.518 153.489 110.783 152.79 110.79C152.1 110.79 151.4 110.79 150.71 110.74L148.65 110.64Z" fill="black"/>
<path id="Vector_39" d="M86.8399 53.74C86.8399 54.62 86.92 55.5001 86.91 56.3701C86.91 58.4401 85.7899 59.8001 84.1099 59.8201C82.4299 59.8401 81.25 58.56 81.16 56.49C81.02 53.64 80.9499 50.7799 80.8199 47.9199C80.7599 46.7699 80.64 45.62 80.49 44.48C80.21 42.36 80.98 40.9301 82.65 40.6001C84.32 40.2701 85.89 41.45 86.14 43.53C86.48 46.27 86.59 49.05 86.78 51.81C86.78 52.45 86.7799 53.1 86.8399 53.74Z" fill="black"/>
<path id="Vector_40" d="M119.24 59.74C115.95 59.49 113.16 58.7399 111.18 56.1799C110.956 55.9501 110.785 55.6737 110.68 55.3701C110.64 54.8475 110.64 54.3226 110.68 53.8C111.101 54.0723 111.475 54.4099 111.79 54.8C113.42 57.37 115.96 58.2301 118.79 58.3601C120.34 58.4901 121.9 58.2898 123.367 57.7727C124.834 57.2556 126.174 56.4334 127.3 55.3601C127.88 54.8001 128.2 53.9901 128.74 53.3601C129.122 53.0184 129.545 52.726 130 52.49C130 53.02 130.27 53.68 130 54.05C127.5 58.18 123.57 59.6 119.24 59.74Z" fill="black"/>
<path id="Vector_41" d="M115.51 63.21C114.38 63.21 113.23 63.2101 112.11 63.0701C111.602 62.8965 111.128 62.6359 110.71 62.3001C111.14 62.068 111.602 61.8996 112.08 61.8001C113.64 61.7501 115.21 61.8001 116.77 61.8001C117.154 61.8576 117.527 61.9686 117.88 62.1299L117.39 63.0801C117.27 63.3101 117 63.59 117.05 63.78C117.44 65.23 116.46 65.2501 115.49 65.3301C114.52 65.4101 113.3 65.5901 112.2 65.5801C111.88 65.5801 111.55 65.1001 111.2 64.8401C111.52 64.5987 111.878 64.4127 112.26 64.29C113.37 64.16 114.56 64.3399 115.54 63.6799L115.51 63.21Z" fill="black"/>
<path id="Vector_42" d="M127.77 63.29C126.77 63.44 125.77 63.6399 124.69 63.7099C124.34 63.7099 123.96 63.4199 123.6 63.2599C123.85 62.9799 124.07 62.5199 124.36 62.4599C125.9 62.1799 127.45 61.95 129 61.8C129.7 61.74 130.24 62.0098 129.71 62.8798C129.594 63.0199 129.502 63.1791 129.44 63.35C129.32 63.92 129.38 64.8799 129.1 64.9899C127.974 65.376 126.811 65.6475 125.63 65.8C125.46 65.8 125.22 65.4299 125.01 65.2399C125.24 64.9899 125.43 64.63 125.72 64.53C126.445 64.2858 127.183 64.082 127.93 63.9199L127.77 63.29Z" fill="black"/>
<path id="Vector_43" d="M81.64 105.05C81.64 106.05 81.74 107.05 81.64 108.05C81.6434 108.775 81.3664 109.473 80.8669 109.999C80.3675 110.524 79.6842 110.837 78.96 110.87C78.264 110.878 77.5884 110.635 77.0575 110.185C76.5266 109.734 76.1759 109.108 76.07 108.42C75.9516 107.602 75.8882 106.777 75.88 105.95C75.74 103.56 75.63 101.17 75.47 98.78C75.35 96.85 76.33 95.42 77.96 95.23C79.59 95.04 80.96 96.1499 81.15 98.1299C81.41 100.41 81.52 102.71 81.7 105.01L81.64 105.05Z" fill="black"/>
<path id="Vector_44" d="M205.3 58.9399C205.3 57.2799 207.51 54.62 209.11 54.27C209.645 54.1111 210.217 54.1273 210.742 54.3161C211.267 54.505 211.719 54.8568 212.03 55.32C212.374 55.7378 212.574 56.2549 212.601 56.7951C212.628 57.3354 212.48 57.8701 212.18 58.32C211.634 59.2231 211.019 60.0822 210.34 60.8899C209.954 61.3574 209.425 61.6857 208.834 61.8247C208.244 61.9637 207.624 61.9058 207.07 61.6599C206.512 61.4713 206.034 61.1004 205.713 60.6069C205.392 60.1134 205.247 59.5262 205.3 58.9399Z" fill="black"/>
<path id="Vector_45" d="M132 143.73V144.73C133.89 144.73 135.77 144.63 137.66 144.6C137.95 144.378 138.297 144.243 138.66 144.21C140.336 144.012 142.022 143.908 143.71 143.9C146.52 143.9 149.32 144.06 152.59 144.16L152.8 137.46C150.8 137.57 146.8 137.94 146.8 137.94L143.8 137.84C138.8 137.63 133.8 137.37 128.8 137.23C127.8 137.23 127.43 136.84 127.37 135.89C127.26 134.01 127.11 132.12 126.94 130.24C126.944 129.951 126.891 129.664 126.783 129.395C126.675 129.126 126.515 128.882 126.313 128.676C126.11 128.469 125.868 128.305 125.602 128.192C125.335 128.08 125.049 128.021 124.76 128.02C122.76 127.853 120.76 127.667 118.76 127.46C118.85 129.02 118.89 130.57 118.95 132.13L121.02 132.36C122.45 132.5 122.81 133.36 122.8 134.63C122.8 137.17 122.87 139.7 122.85 142.24C122.85 143.18 123.17 143.52 124.13 143.53C126.78 143.53 129.39 143.65 132 143.73Z" fill="#0B0B0B"/>
<path id="Vector_46" d="M235.82 85.6599L238.03 65.1899L241.52 32.72L242.33 25.25C242.341 24.6597 242.122 24.0882 241.718 23.657C241.315 23.2257 240.76 22.9684 240.17 22.9399L234.37 22.48L218.59 21.22L195.39 19.3601L166.94 17.0801L135.78 14.5801L104.33 12.06L75.13 9.71996L50.3299 7.71996L32.5 6.30004C29.69 6.07004 26.87 5.74011 24.05 5.62011H23.69C23.1014 5.61164 22.5324 5.8321 22.1033 6.2351C21.6742 6.6381 21.4185 7.19202 21.39 7.78002L19.87 23.46L16.19 61.27L11.75 106.88L7.90996 146.41L6.65001 159.41C6.45001 161.41 6.13997 163.5 6.04997 165.55C6.05545 165.637 6.05545 165.723 6.04997 165.81C6.0416 166.4 6.26351 166.971 6.66862 167.4C7.07374 167.829 7.63019 168.084 8.21996 168.11L14.08 168.55L29.94 169.71L53.49 171.44L82.1 173.55L113.58 175.86L145.22 178.19L174.85 180.37L199.78 182.2L217.78 183.53C220.61 183.73 223.45 184.04 226.28 184.15H226.66C229.53 184.36 229.66 179.9 226.8 179.68L220.93 179.25L205.07 178.09L181.52 176.36L152.91 174.25L121.43 171.94L89.8 169.61L60.16 167.43L35.23 165.6L17.23 164.27C14.42 164.07 11.55 163.66 8.72996 163.65C8.59997 163.65 8.47997 163.65 8.35997 163.65L10.52 165.95L12.04 150.27L15.72 112.46L20.16 66.8601L24 27.3301L25.26 14.3301C25.46 12.3301 25.86 10.2099 25.86 8.18993C25.86 8.09993 25.86 8.00991 25.86 7.91991L23.56 10.0801L29.36 10.55L45.14 11.81L68.34 13.6699L96.78 15.9499L127.95 18.4499L159.4 20.97L188.6 23.31L213.4 25.31L231.23 26.74C234.02 26.97 236.88 27.4099 239.68 27.4199H240.04L237.87 25.1201L235.67 45.5901L232.17 78.0601L231.37 85.53C231.06 88.39 235.53 88.5299 235.83 85.6699L235.82 85.6599Z" fill="#EFBAB7"/>
<path id="Vector_47" d="M246.57 18.7601C245.2 17.3901 243.12 14.0701 232.57 12.7601C223.57 11.6301 212.64 10.41 203.65 9.65999C191.98 8.65999 180.31 7.85013 168.65 7.05013C167.018 7.00367 165.389 7.20929 163.82 7.65999C163.055 7.77893 162.366 8.18885 161.897 8.80379C161.427 9.41873 161.214 10.1912 161.3 10.96C162.87 11.08 164.3 11.2501 165.8 11.2801C169.1 11.3501 171.1 12.9101 171.45 15.8001C171.66 17.5301 172.69 18.0701 174.32 17.2801C175.08 16.9201 175.79 16.42 176.57 16.14C179.24 15.2 181.51 17.0701 180.96 19.7901C180.56 21.7901 179.04 28.6101 179.96 30.0201C181.56 32.5301 184.81 33.0701 186.96 27.5701C187.96 25.0201 188.51 21.41 191.88 21.66C193.66 21.8 195.51 24.45 194.79 26.66C191.48 36.84 192.12 46.7601 195.66 47.0301C198.33 47.2201 200.51 42.03 201.21 36.69C201.46 34.69 201.21 28.9302 202.21 26.6202C202.94 25.0402 205.57 23.38 207.41 24.92C209.25 26.46 202.53 37.0902 209.41 37.6102C216.29 38.1302 211.15 30.2702 215.05 26.0902C215.78 25.3002 218.4 25.0902 219.52 26.0902C220.081 26.619 220.519 27.265 220.803 27.9823C221.086 28.6995 221.208 29.4703 221.16 30.2401C220.647 33.9674 219.925 37.6632 219 41.3101C218.24 44.3101 216.86 47.0701 216 50.0101C214.49 55.4201 217.31 59.6501 222.63 60.2301C225.4 60.5301 226.97 59.5601 227.1 56.8001C227.161 54.1868 226.937 51.5746 226.43 49.0101C225.43 43.4101 225.86 38.55 228.78 33.65C229.7 32.11 231.4 30.5601 233.22 31.0401C235.34 31.6001 233.72 37.4602 233.9 38.8502C234.08 40.2402 234.5 41.04 235.64 41.42C236.707 41.6648 237.826 41.5327 238.807 41.046C239.788 40.5593 240.57 39.748 241.02 38.7501C241.376 37.7864 241.882 36.8853 242.52 36.0802C243.52 34.9302 244.72 33.96 245.8 32.88C247.54 31.15 247.88 28.8802 248.14 26.6002C248.56 23.8402 248.74 20.9301 246.57 18.7601Z" fill="#EC8684"/>
<path id="Vector_48" d="M223.4 61.33C223.15 61.33 222.89 61.33 222.63 61.33C221.333 61.2353 220.073 60.8576 218.938 60.2235C217.803 59.5895 216.821 58.7143 216.06 57.6598C215.327 56.5013 214.858 55.196 214.685 53.8361C214.512 52.4762 214.64 51.0949 215.06 49.7899C215.47 48.3499 216 46.94 216.51 45.58C217.099 44.1191 217.606 42.6269 218.03 41.11C218.939 37.5016 219.65 33.8459 220.16 30.1598C220.182 29.5628 220.078 28.968 219.856 28.4135C219.634 27.8589 219.298 27.3568 218.87 26.9398C218.414 26.6856 217.905 26.5432 217.383 26.5241C216.862 26.5049 216.343 26.6098 215.87 26.83C214.47 28.33 214.46 30.49 214.44 32.59C214.42 34.69 214.44 36.5099 213.11 37.7099C212.595 38.1287 211.998 38.4343 211.357 38.6066C210.716 38.7789 210.046 38.8141 209.39 38.7099C208.743 38.7051 208.106 38.5542 207.526 38.2685C206.946 37.9827 206.438 37.5697 206.04 37.06C204.61 35.06 205.42 31.9499 206.14 29.1999C206.52 28.0887 206.719 26.924 206.73 25.7499C206.532 25.5909 206.299 25.4817 206.05 25.4313C205.801 25.3808 205.544 25.3905 205.3 25.4599C204.85 25.5753 204.429 25.7824 204.062 26.068C203.696 26.3536 203.392 26.7118 203.17 27.12C202.52 28.52 202.43 31.74 202.36 34.12C202.36 35.27 202.3 36.2698 202.21 36.9298C201.45 42.7098 199.1 48.4198 195.55 48.1598C195.041 48.1115 194.551 47.9433 194.12 47.6686C193.689 47.3939 193.329 47.0208 193.07 46.58C190.79 43.18 191.07 34.7098 193.77 26.4398C193.88 26.0119 193.894 25.5651 193.811 25.1312C193.728 24.6974 193.55 24.2871 193.29 23.9298C193.129 23.6467 192.91 23.4002 192.648 23.2057C192.387 23.0112 192.088 22.8731 191.77 22.7999C189.98 22.6599 189.34 23.9298 188.41 26.6398C188.24 27.1098 188.08 27.6399 187.9 28.0499C186.36 31.8799 184.41 32.8399 183.04 32.9699C182.228 32.994 181.425 32.794 180.72 32.3917C180.014 31.9895 179.433 31.4007 179.04 30.6898C178.26 29.4698 178.47 26.6399 179.8 20.2199L179.91 19.6798C180.014 19.2991 180.013 18.8974 179.907 18.5172C179.802 18.137 179.595 17.7925 179.31 17.5199C178.971 17.2573 178.567 17.0908 178.141 17.038C177.715 16.9852 177.283 17.048 176.89 17.2199C176.462 17.3962 176.048 17.6036 175.65 17.84C175.36 18 175.06 18.17 174.75 18.32C174.305 18.5996 173.796 18.761 173.271 18.789C172.746 18.817 172.222 18.7106 171.75 18.4799C171.329 18.2191 170.978 17.8579 170.731 17.4286C170.483 16.9993 170.345 16.5154 170.33 16.0199C170.06 13.7199 168.53 12.5098 165.8 12.4298H165.7C164.7 12.4298 163.7 12.3199 162.6 12.2299L161.14 12.11L160.14 12.0399V11.0399C160.066 10.0418 160.361 9.05118 160.969 8.25649C161.578 7.4618 162.457 6.91846 163.44 6.72988C165.117 6.25508 166.857 6.03936 168.6 6.08999C179 6.79999 191.29 7.65985 203.6 8.69985C211.76 9.37985 222.6 10.5399 232.6 11.7999C242.6 13.0599 245.35 16.0899 246.86 17.7199L247.24 18.1298C249.7 20.5898 249.56 23.77 249.24 26.83C248.95 29.37 248.53 31.8299 246.6 33.7299C246.19 34.1399 245.76 34.5398 245.34 34.9198C244.639 35.5332 243.971 36.1844 243.34 36.87C242.78 37.5922 242.332 38.3944 242.01 39.2499C241.458 40.4906 240.488 41.4979 239.269 42.0956C238.049 42.6933 236.659 42.8435 235.34 42.5199C234.63 42.2536 234.021 41.77 233.601 41.1381C233.181 40.5062 232.971 39.7581 233 38.9999C232.968 38.2131 233.021 37.425 233.16 36.6498C233.336 35.5354 233.416 34.408 233.4 33.2799C233.4 32.2799 233.14 32.07 233.09 32.06C231.89 31.74 230.57 32.9099 229.81 34.1999C227.26 38.4698 226.58 42.99 227.59 48.84C228.1 51.4749 228.328 54.1567 228.27 56.84C228.285 57.4892 228.164 58.1343 227.914 58.7338C227.665 59.3332 227.292 59.8737 226.82 60.32C225.853 61.0861 224.628 61.4481 223.4 61.33ZM217.52 24.3798C218.523 24.3688 219.501 24.7006 220.29 25.32C220.984 25.9616 221.525 26.7516 221.871 27.6312C222.217 28.5108 222.361 29.4571 222.29 30.3998C221.774 34.1645 221.047 37.8973 220.11 41.58C219.675 43.1728 219.148 44.7387 218.53 46.2699C218.03 47.5899 217.53 48.9499 217.14 50.2699C216.798 51.2782 216.679 52.3491 216.793 53.4079C216.907 54.4666 217.251 55.4875 217.8 56.3998C218.387 57.2076 219.147 57.8745 220.024 58.352C220.901 58.8294 221.873 59.1053 222.87 59.1598C223.309 59.2619 223.765 59.2756 224.209 59.2001C224.654 59.1246 225.079 58.9613 225.46 58.7199C225.709 58.4524 225.903 58.1377 226.028 57.7941C226.153 57.4505 226.208 57.0851 226.19 56.7199C226.244 54.1839 226.026 51.6494 225.54 49.1598C224.43 42.7798 225.19 37.82 228.01 33.09C229.1 31.27 231.21 29.3699 233.62 29.9999C236.03 30.6299 235.56 34.24 235.23 36.87C235.125 37.4711 235.072 38.0798 235.07 38.6898C235.24 40.0198 235.59 40.2298 236.07 40.3998C236.884 40.5659 237.73 40.4519 238.471 40.0761C239.212 39.7002 239.803 39.0848 240.15 38.33C240.549 37.2481 241.116 36.2357 241.83 35.33C242.499 34.5837 243.211 33.8758 243.96 33.2099C244.37 32.8399 244.78 32.45 245.16 32.07C246.61 30.63 246.95 28.6498 247.16 26.4098C247.48 23.6498 247.59 21.2298 245.79 19.4098L245.34 18.9398C244.02 17.5098 241.56 14.8398 232.34 13.6798C222.34 12.4198 211.6 11.27 203.46 10.58C191.13 9.57998 178.85 8.68988 168.46 7.97988C166.939 7.94392 165.422 8.13957 163.96 8.55996C163.594 8.61265 163.25 8.76579 162.966 9.00234C162.681 9.23889 162.468 9.54944 162.35 9.8998H162.75C163.75 9.9998 164.75 10.08 165.75 10.1C169.57 10.18 172.01 12.1599 172.41 15.5299C172.48 16.0799 172.64 16.3498 172.76 16.4198C172.88 16.4898 173.24 16.4699 173.76 16.1999C174.02 16.0799 174.27 15.9299 174.55 15.7799C175.047 15.4811 175.569 15.2267 176.11 15.0199C176.852 14.7232 177.66 14.6307 178.449 14.7521C179.239 14.8734 179.982 15.2041 180.6 15.7099C181.163 16.2228 181.579 16.8778 181.802 17.6061C182.025 18.3344 182.049 19.1094 181.87 19.85L181.76 20.3998C180.35 27.2198 180.5 28.92 180.76 29.33C180.957 29.7187 181.255 30.0472 181.623 30.2811C181.991 30.5151 182.414 30.6459 182.85 30.6598C183.95 30.5498 185.08 29.2299 185.96 27.0399C186.12 26.6299 186.27 26.1899 186.43 25.7299C187.23 23.3999 188.33 20.2199 191.93 20.4799C192.56 20.5664 193.164 20.7905 193.698 21.1361C194.232 21.4817 194.683 21.9404 195.02 22.4799C195.457 23.0995 195.749 23.8094 195.876 24.557C196.002 25.3047 195.959 26.0711 195.75 26.7999C193.05 35.1399 193.14 42.6698 194.75 45.1398C195.17 45.7698 195.54 45.8 195.65 45.81C197.15 45.81 199.31 42.0298 200.05 36.3798C200.13 35.8198 200.15 34.8799 200.19 33.7799C200.26 31.1099 200.36 27.7799 201.19 25.9999C201.547 25.3038 202.05 24.6925 202.664 24.2077C203.279 23.7228 203.99 23.3758 204.75 23.1898C205.314 23.0492 205.903 23.0439 206.47 23.1742C207.036 23.3046 207.564 23.5669 208.01 23.9398C209.24 24.9398 208.72 26.9399 208.06 29.4799C207.49 31.6799 206.78 34.41 207.64 35.61C207.867 35.8668 208.147 36.0698 208.462 36.2047C208.777 36.3396 209.118 36.4028 209.46 36.3898C210.204 36.5396 210.977 36.3886 211.61 35.9699C212.25 35.3799 212.26 33.92 212.27 32.36C212.27 30.1 212.27 27.2899 214.27 25.1999C214.73 24.854 215.254 24.6036 215.812 24.4628C216.37 24.322 216.951 24.2936 217.52 24.3798Z" fill="#0B0B0B"/>
<path id="Vector_49" d="M198.71 15.99C199.284 15.99 199.75 15.5243 199.75 14.95C199.75 14.3756 199.284 13.9099 198.71 13.9099C198.136 13.9099 197.67 14.3756 197.67 14.95C197.67 15.5243 198.136 15.99 198.71 15.99Z" fill="white"/>
<path id="Vector_50" d="M210.48 20.52C211.054 20.52 211.52 20.0544 211.52 19.48C211.52 18.9056 211.054 18.4399 210.48 18.4399C209.906 18.4399 209.44 18.9056 209.44 19.48C209.44 20.0544 209.906 20.52 210.48 20.52Z" fill="white"/>
<path id="Vector_51" d="M220.42 17.26C220.994 17.26 221.46 16.7943 221.46 16.22C221.46 15.6456 220.994 15.1799 220.42 15.1799C219.846 15.1799 219.38 15.6456 219.38 16.22C219.38 16.7943 219.846 17.26 220.42 17.26Z" fill="white"/>
<path id="Vector_52" d="M230.46 19.96C231.034 19.96 231.5 19.4943 231.5 18.9199C231.5 18.3455 231.034 17.8799 230.46 17.8799C229.886 17.8799 229.42 18.3455 229.42 18.9199C229.42 19.4943 229.886 19.96 230.46 19.96Z" fill="white"/>
<path id="Vector_53" d="M227.26 17.47C227.834 17.47 228.3 17.0043 228.3 16.4299C228.3 15.8556 227.834 15.3899 227.26 15.3899C226.686 15.3899 226.22 15.8556 226.22 16.4299C226.22 17.0043 226.686 17.47 227.26 17.47Z" fill="white"/>
<path id="Vector_54" d="M239.06 21.1201C239.634 21.1201 240.1 20.6545 240.1 20.0801C240.1 19.5057 239.634 19.04 239.06 19.04C238.486 19.04 238.02 19.5057 238.02 20.0801C238.02 20.6545 238.486 21.1201 239.06 21.1201Z" fill="white"/>
<path id="Vector_55" d="M240.99 26.24C241.564 26.24 242.03 25.7743 242.03 25.2C242.03 24.6256 241.564 24.1599 240.99 24.1599C240.416 24.1599 239.95 24.6256 239.95 25.2C239.95 25.7743 240.416 26.24 240.99 26.24Z" fill="white"/>
<path id="Vector_56" d="M249.07 186.5C251.816 185.907 254.612 185.572 257.42 185.5C259.09 185.5 259.18 182.85 257.5 182.89C254.474 182.961 251.461 183.312 248.5 183.94C246.85 184.28 247.5 186.82 249.11 186.48L249.07 186.5Z" fill="#0B0B0B"/>
<path id="Vector_57" d="M213.29 192.46C230.186 187.892 247.997 187.937 264.87 192.59C266.49 193.03 267.26 190.54 265.64 190.09C248.306 185.299 230.005 185.24 212.64 189.92C212.322 190.019 212.055 190.236 211.891 190.526C211.727 190.816 211.68 191.157 211.759 191.481C211.838 191.804 212.037 192.085 212.316 192.267C212.595 192.449 212.932 192.518 213.26 192.46H213.29Z" fill="#0B0B0B"/>
</g>
<defs>
<linearGradient id="paint0_linear_344_21" x1="2.86059" y1="176.764" x2="218.655" y2="183.508" gradientUnits="userSpaceOnUse">
<stop stop-color="#827FFF"/>
<stop offset="0.17" stop-color="#867FFB"/>
<stop offset="0.36" stop-color="#9180EE"/>
<stop offset="0.54" stop-color="#A381D9"/>
<stop offset="0.73" stop-color="#BC83BC"/>
<stop offset="0.92" stop-color="#DC8596"/>
<stop offset="1" stop-color="#EC8684"/>
</linearGradient>
<linearGradient id="paint1_linear_344_21" x1="12589.2" y1="10843.1" x2="12714.3" y2="10843.1" gradientUnits="userSpaceOnUse">
<stop stop-color="#827FFF"/>
<stop offset="0.17" stop-color="#867FFB"/>
<stop offset="0.36" stop-color="#9180EE"/>
<stop offset="0.54" stop-color="#A381D9"/>
<stop offset="0.73" stop-color="#BC83BC"/>
<stop offset="0.92" stop-color="#DC8596"/>
<stop offset="1" stop-color="#EC8684"/>
</linearGradient>
<linearGradient id="paint2_linear_344_21" x1="58826.3" y1="21908.8" x2="61832.4" y2="21908.8" gradientUnits="userSpaceOnUse">
<stop stop-color="#827FFF"/>
<stop offset="0.17" stop-color="#867FFB"/>
<stop offset="0.36" stop-color="#9180EE"/>
<stop offset="0.54" stop-color="#A381D9"/>
<stop offset="0.73" stop-color="#BC83BC"/>
<stop offset="0.92" stop-color="#DC8596"/>
<stop offset="1" stop-color="#EC8684"/>
</linearGradient>
</defs>
</svg>
