<svg width="1440" height="256" viewBox="0 0 1440 256" fill="none" xmlns="http://www.w3.org/2000/svg">
<g id="planet">
<g id="Group" opacity="0.91">
<path id="Vector" opacity="0.91" d="M1372 80.7C1373.28 69.4957 1371.33 58.1581 1366.37 48.03C1365.2 45.54 1364.87 44.1001 1367.44 42.1201C1369.65 40.4101 1370.85 37.4399 1372.71 35.1999C1377.82 29.0399 1383.08 23.0001 1388.21 16.8501C1390.08 14.7558 1391.76 12.4928 1393.21 10.0901C1395.09 6.74009 1394.47 3.5801 1392.1 1.8501C1389.73 0.120095 1387.21 0.390115 1384.2 3.12011C1378.41 8.35011 1374.99 15.1201 1371.75 22.1201C1371.34 22.9801 1370.95 23.8499 1370.57 24.6799C1364.32 23.2199 1358.42 22.4499 1353 26.6799C1352.49 27.0899 1350.67 26.3599 1349.81 25.6799C1342.73 20.2599 1335.11 15.94 1326.2 14.54C1318.8 13.37 1312.11 15.65 1306.55 20.46C1295.63 29.91 1289.74 42.46 1285.77 56.02C1283.9 62.37 1282.56 68.88 1280.77 75.26C1280.37 76.5032 1279.48 77.5351 1278.32 78.1299C1267.2 82.9099 1257.08 89.02 1249.25 98.51C1248.4 99.51 1246.43 100.51 1245.25 100.29C1234.54 97.89 1223.88 95.2101 1213.25 92.5901C1212.76 92.3869 1212.3 92.1213 1211.88 91.8L1210.83 93.4099C1211.92 100.06 1213.76 106.5 1217.49 112.27C1223.95 122.27 1234.49 129.38 1245.09 134.41C1256.09 139.734 1268 142.934 1280.19 143.84C1294.39 144.74 1308.42 140.84 1321.73 136.24C1327.48 134.24 1332.4 131.24 1337.73 128.42C1331.66 126.36 1325.57 124.333 1319.48 122.34C1318.24 122.032 1317.12 121.383 1316.24 120.467C1315.35 119.551 1314.74 118.405 1314.48 117.16C1312.73 111.16 1310.48 105.29 1308.39 99.3401C1308.39 99.3401 1308.63 99.0901 1308.76 99.1201C1317.89 101.54 1327.03 103.87 1336.12 106.42C1354.17 111.49 1369.63 100.44 1372 80.7ZM1298.83 107C1300.07 110 1301.27 113 1302.65 116.33C1296.71 115.57 1295.38 111.79 1298.83 107ZM1267.47 106.29C1272.11 100.46 1276.33 95.29 1280.41 89.97C1281.55 88.49 1282.34 87.3099 1284.54 88.4399C1286.74 89.5699 1288.08 90.39 1287.31 93.3C1286.66 96.3651 1286.26 99.4793 1286.13 102.61C1285.87 105.37 1285.75 108.14 1285.53 111.47L1267.47 106.29ZM1294.87 58.4499C1295.63 61.7833 1296.39 65.1166 1297.16 68.45C1297.45 69.39 1298.39 70.1699 1298.96 71.1599C1301.96 76.4599 1304.86 81.8199 1307.79 87.1599C1307.68 87.4399 1307.56 87.71 1307.45 87.99C1305.45 86.9 1303.45 85.79 1301.45 84.73C1300.59 84.2595 1299.68 83.8777 1298.74 83.5901C1295.57 82.7001 1292.37 81.97 1289.24 80.98C1288.93 80.7184 1288.7 80.3848 1288.56 80.0093C1288.41 79.6338 1288.37 79.2284 1288.42 78.8301C1289.12 76.2501 1290.05 73.7299 1290.95 71.2C1291.31 70.5741 1291.61 69.9222 1291.87 69.25C1292.54 65.58 1293.12 61.89 1293.73 58.25L1294.87 58.4499ZM1315.94 72.8899L1321.79 70.77L1318.06 76.47L1315.94 72.8899ZM1347.54 38.55C1339.95 42.27 1332.31 45.8999 1324.86 49.8899C1320.22 52.3699 1315.86 55.45 1311.04 58.5C1309.54 52.2976 1309.46 45.8371 1310.81 39.6001C1313.45 27.4001 1326.91 20.84 1337.93 26.74C1341.6 28.74 1344.86 31.5299 1348.13 34.1699C1350.94 36.4899 1350.73 37.0001 1347.54 38.5901V38.55ZM1347.91 97.5C1337.91 98.35 1330.97 92.3801 1324.03 85.8601C1334.27 75.8783 1343.28 64.7053 1350.86 52.5801C1352.24 50.3401 1354.86 48.8899 1357.48 46.6299C1364.06 59.8999 1366.94 72.4899 1362.27 85.9399C1359.91 92.7599 1355 97 1347.91 97.54V97.5Z" fill="#0B0B0B"/>
<path id="Vector_2" opacity="0.91" d="M1357.48 46.6699C1354.9 48.9299 1352.24 50.3801 1350.86 52.6201C1343.27 64.747 1334.25 75.9198 1324 85.8999C1330.94 92.4199 1337.84 98.39 1347.88 97.54C1355.01 96.95 1359.88 92.76 1362.24 85.98C1366.94 72.53 1364.06 59.9399 1357.48 46.6699Z" fill="#E07771"/>
<path id="Vector_3" opacity="0.91" d="M1311 58.55C1315.86 55.49 1320.18 52.4099 1324.82 49.9299C1332.27 45.9299 1339.91 42.31 1347.5 38.59C1350.69 37.02 1350.9 36.4899 1348.09 34.2099C1344.82 31.5699 1341.56 28.75 1337.89 26.78C1326.89 20.88 1313.41 27.4398 1310.77 39.6398C1309.42 45.8802 1309.5 52.3442 1311 58.55Z" fill="#E07771"/>
<path id="Vector_4" opacity="0.91" d="M1267.47 106.33L1285.53 111.51C1285.75 108.18 1285.87 105.41 1286.13 102.65C1286.26 99.5159 1286.66 96.3986 1287.31 93.33C1288.08 90.43 1286.67 89.58 1284.54 88.48C1282.41 87.38 1281.54 88.53 1280.41 90.01C1276.33 95.31 1272.11 100.5 1267.47 106.33Z" fill="#E07771"/>
<path id="Vector_5" opacity="0.91" d="M1293.68 58.26C1293.07 61.94 1292.49 65.63 1291.82 69.26C1291.56 69.9323 1291.26 70.5841 1290.9 71.21C1290 73.74 1289.07 76.2601 1288.37 78.8401C1288.32 79.2384 1288.36 79.6438 1288.51 80.0193C1288.65 80.3948 1288.88 80.7284 1289.19 80.99C1292.32 81.99 1295.52 82.7101 1298.69 83.6001C1299.63 83.8877 1300.54 84.2695 1301.4 84.74C1303.4 85.8 1305.4 86.91 1307.4 88C1307.51 87.72 1307.63 87.4499 1307.74 87.1699C1304.81 81.8399 1301.9 76.4799 1298.91 71.1699C1298.34 70.1699 1297.4 69.4 1297.11 68.46C1296.34 65.1266 1295.58 61.7933 1294.82 58.46L1293.68 58.26Z" fill="#E07771"/>
<path id="Vector_6" opacity="0.91" d="M1315.94 72.9299L1318.06 76.51L1321.79 70.8101L1315.94 72.9299Z" fill="#E07771"/>
</g>
<path id="Vector_7" d="M65.48 165.22C65.48 165.22 84.48 138.16 73.48 110.22C72.15 106.82 75.17 103.34 80.48 102.04L214.54 69.57C218.94 68.5 223.96 69.1699 227.24 71.2499C243.49 81.5999 293.91 111.25 332.68 107.96" fill="#BC9262"/>
<path id="Vector_8" d="M68.6801 166.36C72.7344 160.413 75.8069 153.852 77.7801 146.93C79.7555 140.574 80.7173 133.946 80.6301 127.29C80.5312 123.7 80.0723 120.128 79.2601 116.63C78.8468 114.813 78.3327 113.02 77.7201 111.26C77.0901 109.47 76.3801 107.89 77.9901 106.2C80.4501 103.61 87.7901 102.69 91.9901 101.67L120.77 94.67L192 77.44L213.12 72.3301C215.286 71.6439 217.548 71.3063 219.82 71.3301C223.39 71.5801 225.6 73.4299 227.95 74.8799C230.11 76.2133 232.3 77.5301 234.52 78.8301C247.136 86.3023 260.285 92.8364 273.86 98.3799C288.09 104.13 304.17 109.24 321.4 110.29C325.178 110.525 328.967 110.495 332.74 110.2C337.41 109.83 337.47 105.31 332.74 105.68C315.74 107.03 299.08 102.45 284.83 97.2501C270.412 91.8959 256.475 85.3257 243.17 77.6102C238.69 75.0502 234.49 72.3401 230.09 69.7501C224.91 66.8831 218.839 66.076 213.09 67.49C207.5 68.79 201.96 70.1901 196.39 71.5401L125.88 88.6202C110.47 92.3502 94.9601 95.9601 79.6401 99.8201C71.4101 101.9 68.4201 106.53 70.2401 111.64C72.8168 118.86 73.7328 126.567 72.9201 134.19C71.8146 144.39 68.4239 154.211 63.0001 162.92C62.7701 163.28 61.5101 165.17 62.2701 164.08C60.4201 166.73 66.8101 169.08 68.6801 166.36Z" fill="#0B0B0B"/>
<path id="Vector_9" d="M-3.86999 207.28V325.65H1449.34L1463.06 153.28C1114.06 31.5201 238.7 52.2799 -4.23999 184.91L-3.86999 207.28Z" fill="#F1BD76"/>
<path id="Vector_10" d="M97 111.86C109.16 115.08 123.75 114.27 136.46 112.96C154.94 111.05 173.79 107.47 189.27 100.9C199.073 96.8038 208.437 91.7281 217.22 85.75C220.37 83.58 215.14 80.3801 211.97 82.5601C204.558 87.6511 196.695 92.0527 188.48 95.71C182.977 98.3045 177.259 100.416 171.39 102.02C154.46 106.36 135.49 109.59 117 109.51C111.67 109.51 105.4 109.19 100.74 107.96C96.41 106.81 92.63 110.7 97 111.86Z" fill="#9B7A52"/>
<path id="Vector_11" d="M91.06 113.22C109.32 118.12 130.44 118.15 149.63 115.49C159.487 114.28 169.185 112.017 178.56 108.74C186.89 105.671 195.002 102.04 202.84 97.8701C211.3 93.3401 220.03 87.8699 223.36 81.1399C224.75 78.3499 217.59 77.1399 216.21 79.9399C213.57 85.2599 206.61 89.6301 200.07 93.3101C192.711 97.3936 185.068 100.943 177.2 103.93C169.666 106.85 161.837 108.942 153.85 110.17C142.139 112.234 130.242 113.045 118.36 112.59C110.416 112.337 102.521 111.237 94.81 109.31C90.48 108.15 86.7 112.04 91.06 113.22Z" fill="#0B0B0B"/>
<path id="Vector_12" d="M1464.93 155.57C1385.68 127.08 1296.33 110.25 1207.57 98.18C1100.4 83.61 990.78 76.1802 881.33 73.3202C767 70.3202 652.22 72.3202 538.33 79.5502C434.85 86.1502 331.4 96.8901 231.45 115.26C154.45 129.42 75.53 147.98 11.45 179.07C5.16995 182.117 -0.930044 185.297 -6.85004 188.61C-10.42 190.61 -5.16004 193.91 -1.61004 191.91C56.23 159.42 131.72 140.07 204.62 125.33C301.57 105.73 402.55 94.0902 503.54 86.6202C615.54 78.3202 728.66 75.35 841.41 77.14C951.32 78.89 1061.41 85.1402 1169.41 98.0602C1260.51 108.99 1352.21 124.41 1435.32 150.85C1444.05 153.63 1452.67 156.547 1461.16 159.6C1465.31 161.09 1469.05 157.06 1464.9 155.6L1464.93 155.57Z" fill="#BC9262"/>
<path id="Vector_13" d="M-16.85 198.47C-16.85 198.47 -94.06 312.66 -54.68 279.34C210.14 55.24 1170.79 88.6699 1463.06 158.71C1291 59.3099 265.78 22.2599 -16.85 198.47Z" fill="#BC9262"/>
<path id="Vector_14" d="M-7.58006 207.28V325.65C-7.58006 326.87 -5.88006 327.91 -3.87006 327.91H1390.53C1409.33 327.91 1428.16 328.11 1446.96 327.91H1449.34C1451.41 327.91 1452.95 326.91 1453.05 325.65L1457.67 267.53L1465.06 174.76L1466.77 153.28C1466.83 152.51 1466.02 151.71 1464.93 151.28C1381.76 122.35 1287.52 105.76 1194.22 94.0301C1081.38 79.8401 966.01 73.0301 850.92 71.0301C731.97 68.9101 612.58 71.93 494.43 80.71C389.67 88.49 284.76 100.47 184.71 121.29C143.97 129.76 103.85 139.77 66.1099 152.46C49.3799 158.08 33.1099 164.25 17.7099 171.16C10.9399 174.16 4.32994 177.37 -2.05006 180.7C-4.64006 182.06 -7.36006 183.06 -7.95006 185.16C-8.59006 187.47 -7.86006 190.24 -7.82006 192.57L-7.58006 207.24C-7.58006 210.14 -0.110061 210.15 -0.160061 207.24L-0.420061 191.74C-0.420061 189.68 -1.06006 187.3 -0.53006 185.27C-0.25006 184.21 -1.30006 186.27 -0.83006 186.04C-0.186394 185.642 0.481581 185.285 1.16994 184.97C2.99708 184.147 4.77655 183.222 6.49994 182.2C20.8415 175.043 35.5749 168.7 50.6299 163.2C86.0499 150 124.18 139.6 163.04 130.81C258.87 109.14 360.11 96.45 461.15 87.9C576.89 78.11 694.07 74.1802 810.88 75.0802C926.33 75.9702 1042.09 81.55 1155.76 94.13C1251.06 104.67 1347.22 119.78 1434.13 146.4C1443.28 149.2 1452.3 152.143 1461.19 155.23L1459.35 153.28L1454.72 211.4L1447.34 304.17L1445.63 325.65L1449.34 323.39H17.9999C11.6399 323.39 4.79994 322.96 -1.53006 323.39C-2.30006 323.45 -3.13006 323.39 -3.91006 323.39L-0.200061 325.65V207.28C-0.160061 204.37 -7.58006 204.36 -7.58006 207.28Z" fill="#0B0B0B"/>
<path id="Vector_15" d="M654.5 75.5001C654.5 75.5001 565 177 544 264L892 270C892 270 831 105.35 784.5 75.5001C707.5 70.5001 654.5 75.5001 654.5 75.5001Z" fill="#EFF3F4" stroke="black" stroke-width="3" stroke-miterlimit="10"/>
<path id="Vector_16" d="M726 100H711L712.574 73H724.679L726 100Z" fill="#BC9262"/>
<path id="Vector_17" d="M728.23 149.67H709.17L710.73 115.67H726.92L728.23 149.67Z" fill="#CEA069"/>
<path id="Vector_18" d="M730.15 199.33H706.89L708.45 165.33H728.84L730.15 199.33Z" fill="#DFAF6F"/>
<path id="Vector_19" d="M732.07 249H704.62L706.18 215H730.76L732.07 249Z" fill="#F1BD76"/>
<path id="Vector_20" d="M482.81 190C486.326 188.147 490.223 187.13 494.196 187.027C498.169 186.925 502.113 187.74 505.72 189.41C509.62 191.2 517.23 197.79 514.72 202.82C513.72 204.96 516.86 206.82 517.92 204.7C521.05 198.33 514.7 190.12 509.32 187.11C504.984 184.688 500.111 183.39 495.144 183.336C490.178 183.282 485.278 184.473 480.89 186.8C478.78 187.91 480.65 191.12 482.77 190H482.81Z" fill="black"/>
<path id="Vector_21" d="M487.59 194.94C493.37 194 506.52 194.05 508.21 201.8C509.71 208.65 497.89 210.39 493.35 211.16C488.35 212.01 479.76 213.39 475.78 209.41C474.1 207.72 473.63 206.62 474.44 204.58C475.44 202.17 477.01 199.96 479.56 199.09C481.8 198.33 480.84 194.75 478.56 195.52C473.65 197.18 468.32 203.88 471.02 209.17C475.21 217.41 486.77 216.04 494.33 214.74C501.12 213.56 514.27 210.58 511.78 200.81C509.21 190.73 494.78 190.04 486.59 191.37C484.24 191.75 485.24 195.37 487.59 194.94Z" fill="black"/>
<path id="Vector_22" d="M1199.53 273.68C1224.05 242.41 1260.92 223.76 1299.81 217.77C1322.18 214.32 1345.23 214.96 1367.55 218.43C1385.38 221.21 1403.22 225.57 1419.42 233.7C1436.48 242.27 1451.7 255.19 1458.56 273.46C1460.22 277.89 1467.39 275.98 1465.71 271.46C1452.53 236.33 1414.98 219.98 1380.57 213.2C1336 204.42 1288.57 206.2 1247.14 226.3C1226.57 236.16 1208.49 250.554 1194.28 268.4C1191.37 272.12 1196.58 277.4 1199.53 273.65V273.68Z" fill="#BC9262"/>
<path id="Vector_23" d="M1197.3 267.74C1222.74 235.97 1260.97 217.39 1300.82 211.67C1323.82 208.36 1347.49 209.12 1370.43 212.74C1388.43 215.6 1406.54 220.06 1422.93 228.33C1439.76 236.81 1454.93 249.53 1461.79 267.53C1463.48 271.94 1470.65 270.03 1468.94 265.53C1455.48 230.33 1417.35 214.16 1382.81 207.4C1337.29 198.49 1288.81 200.09 1246.35 220.2C1225.45 230.1 1206.54 244.37 1192.05 262.47C1189.05 266.16 1194.32 271.47 1197.3 267.71V267.74Z" fill="#0B0B0B"/>
<path id="Vector_24" d="M1242.27 254.23C1266.17 239.162 1293.8 231.055 1322.06 230.82C1326.83 230.82 1326.84 223.37 1322.06 223.41C1292.49 223.636 1263.56 232.092 1238.52 247.83C1234.52 250.37 1238.21 256.83 1242.27 254.23Z" fill="#0B0B0B"/>
<path id="Vector_25" d="M1058.76 224.1C1060.98 224.56 1062.66 225.74 1062.53 227.01C1062.41 227.922 1061.95 228.756 1061.25 229.35C1058.33 231.693 1054.85 233.255 1051.16 233.89C1049.55 234.191 1047.91 234.272 1046.28 234.13C1044.01 233.97 1042.28 232.96 1041.67 231.83C1041.06 230.7 1041.9 229.74 1043.78 229.31C1045.64 229.009 1047.46 228.565 1049.25 227.98C1050.88 227.244 1052.4 226.292 1053.78 225.15C1054.46 224.586 1055.27 224.196 1056.14 224.013C1057.01 223.83 1057.91 223.86 1058.76 224.1Z" fill="#0B0B0B"/>
<path id="Vector_26" d="M1045.3 220C1046.01 219.485 1046.81 219.099 1047.65 218.86C1050.6 218.23 1053.71 217.76 1056.83 217.3C1057.88 217.12 1058.96 217.164 1059.99 217.43C1061.03 217.695 1061.99 218.176 1062.83 218.84C1064.05 220 1063.88 221.22 1061.99 221.84C1058.43 223.065 1054.69 223.696 1050.93 223.71C1047.68 223.77 1044.92 222.1 1045.3 220Z" fill="#0B0B0B"/>
<path id="Vector_27" d="M923.26 159.65C925.56 150.19 947.1 144.65 963.68 144.89C981.54 145.09 1001.53 148.89 1016.39 157.36C1048.19 175.56 1051.39 211.3 1005.74 211.98C994.18 212.15 997.14 222.71 1008.86 222.54C1054.07 221.87 1070.01 195.64 1051.71 171.09C1042.84 159.2 1027.13 148.47 1006.62 141.82C988.081 135.776 968.555 133.342 949.1 134.65C928.72 136.19 907.33 144.12 904.45 155.97C902.91 162.32 921.72 165.97 923.26 159.65Z" fill="#BC9262"/>
<path id="Vector_28" d="M1047.41 193.7C1045.66 202.85 1038.2 209.09 1025.41 212.99C1011.41 217.26 995.08 217.76 977.2 215.65C964.543 214.29 952.163 211.026 940.48 205.97C936.748 204.238 933.136 202.257 929.67 200.04C926.977 198.491 924.797 196.185 923.4 193.41C923.086 192.83 922.905 192.188 922.87 191.53C922.87 190.27 924.27 189.53 926.31 189.64C928.35 189.75 930.59 190.49 931.19 191.74C934.77 199.15 945.19 203.19 956.25 206.36C978.87 212.84 1000.08 213.74 1018.8 208.57C1034.33 204.28 1040.22 196.25 1038.19 185.57C1035.67 172.32 1018.32 158.57 995.9 151.85C988.294 149.504 980.37 148.35 972.41 148.43C959.98 148.64 948.74 150.14 939.97 154.28C936.54 155.89 932.97 157.43 929.51 159.01C928.506 159.464 927.41 159.68 926.308 159.64C925.206 159.6 924.129 159.306 923.16 158.78C921.16 157.73 920.65 156.26 922 155.14C922.69 154.596 923.454 154.155 924.27 153.83C928.43 152.03 932.49 150.15 936.86 148.49C948.26 144.19 962.01 142.72 977.42 143.55C987.16 144.104 996.741 146.26 1005.78 149.93C1029.78 159.65 1044.33 171.93 1047.4 186.93C1047.62 188.09 1047.72 189.27 1047.69 190.45C1047.65 191.537 1047.56 192.622 1047.41 193.7Z" fill="#0B0B0B"/>
<path id="Vector_29" d="M892.27 163.22C895.21 150.59 905.5 141.08 924.49 135.4C935.49 132.1 948.17 130.97 962.35 132.16C963.484 132.23 964.611 132.39 965.72 132.64C967.87 133.17 969.32 134.34 969.4 135.45C969.48 136.56 968.33 137.26 966.4 137.45C965.545 137.514 964.685 137.514 963.83 137.45C944.7 135.9 929.23 138.61 917.95 145.31C898.71 156.73 895.24 171.56 909.22 189.51C916.68 199.09 929.22 206.6 945.89 211.84C953.047 214.069 960.423 215.52 967.89 216.17C969.14 216.28 970.41 216.39 971.65 216.62C973.99 217.06 975.51 218.07 975.79 219.22C976.07 220.37 974.87 221.32 972.5 221.4C971.384 221.415 970.269 221.362 969.16 221.24C942.77 218.61 921.96 210.15 906.65 196.5C894.33 185.41 890.39 174.29 892.27 163.22Z" fill="#0B0B0B"/>
<path id="Vector_30" d="M145.33 205.73C152.187 200.677 159.946 196.981 168.19 194.84C170.5 194.24 169.52 190.66 167.19 191.26C158.629 193.473 150.569 197.298 143.44 202.53C141.54 203.93 143.39 207.15 145.31 205.73H145.33Z" fill="#0B0B0B"/>
<path id="Vector_31" d="M159.1 215C168.437 213.44 177.895 212.73 187.36 212.88C189.75 212.88 189.75 209.21 187.36 209.18C177.562 209.04 167.772 209.79 158.11 211.42C155.76 211.82 156.76 215.42 159.11 215H159.1Z" fill="#0B0B0B"/>
<path id="Vector_32" d="M866.72 110.92C871.506 109.907 876.452 109.905 881.239 110.914C886.026 111.923 890.55 113.921 894.52 116.78C896.52 118.16 898.32 114.95 896.39 113.57C891.993 110.462 886.997 108.302 881.721 107.23C876.444 106.157 871.001 106.195 865.74 107.34C863.4 107.83 864.39 111.41 866.74 110.92H866.72Z" fill="#0B0B0B"/>
<path id="Vector_33" d="M892.53 106.87C894.98 106.822 897.412 107.286 899.672 108.233C901.931 109.18 903.967 110.589 905.65 112.37C907.31 114.1 909.93 111.47 908.27 109.75C906.242 107.627 903.797 105.946 901.088 104.812C898.38 103.678 895.466 103.115 892.53 103.16C890.14 103.16 890.14 106.9 892.53 106.87Z" fill="#0B0B0B"/>
</g>
</svg>
