<svg width="1440" height="791" viewBox="0 0 1440 791" fill="none" xmlns="http://www.w3.org/2000/svg">
<g id="conveyorPipeLayer">
<g id="pipeAbout">
<path id="Vector" d="M1421.88 231.86H1405.73C1399.1 231.86 1393.73 237.233 1393.73 243.86V274.6C1393.73 281.227 1399.1 286.6 1405.73 286.6H1421.88C1428.51 286.6 1433.88 281.227 1433.88 274.6V243.86C1433.88 237.233 1428.51 231.86 1421.88 231.86Z" fill="white" stroke="black" stroke-width="7" stroke-miterlimit="10"/>
<path id="Vector_2" d="M1393.73 277.08H1433.88" stroke="black" stroke-width="4" stroke-miterlimit="10"/>
<path id="Vector_3" d="M1393.83 268.15H1433.97" stroke="black" stroke-width="4" stroke-miterlimit="10"/>
<path id="Vector_4" d="M1393.92 259.23H1434.07" stroke="black" stroke-width="4" stroke-miterlimit="10"/>
<path id="Vector_5" d="M1394.02 250.31H1434.17" stroke="black" stroke-width="4" stroke-miterlimit="10"/>
<path id="Vector_6" d="M1394.12 241.38H1434.27" stroke="black" stroke-width="4" stroke-miterlimit="10"/>
<path id="Vector_7" d="M1422.02 286.99H1405.59C1402.08 286.99 1399.24 289.831 1399.24 293.335C1399.24 296.839 1402.08 299.68 1405.59 299.68H1422.02C1425.53 299.68 1428.37 296.839 1428.37 293.335C1428.37 289.831 1425.53 286.99 1422.02 286.99Z" fill="black" stroke="black" stroke-width="4" stroke-miterlimit="10"/>
<path id="Vector_8" d="M1433.04 299.69H1392.98C1390.13 299.69 1387.82 301.998 1387.82 304.845C1387.82 307.692 1390.13 310 1392.98 310H1433.04C1435.89 310 1438.2 307.692 1438.2 304.845C1438.2 301.998 1435.89 299.69 1433.04 299.69Z" fill="#F8AD3B" stroke="black" stroke-width="4" stroke-miterlimit="10"/>
<path id="Vector_9" d="M1182.63 231.86H1166.48C1159.85 231.86 1154.48 237.233 1154.48 243.86V274.6C1154.48 281.227 1159.85 286.6 1166.48 286.6H1182.63C1189.26 286.6 1194.63 281.227 1194.63 274.6V243.86C1194.63 237.233 1189.26 231.86 1182.63 231.86Z" fill="white" stroke="black" stroke-width="7" stroke-miterlimit="10"/>
<path id="Vector_10" d="M1154.48 277.08H1194.63" stroke="black" stroke-width="4" stroke-miterlimit="10"/>
<path id="Vector_11" d="M1154.58 268.15H1194.72" stroke="black" stroke-width="4" stroke-miterlimit="10"/>
<path id="Vector_12" d="M1154.67 259.23H1194.82" stroke="black" stroke-width="4" stroke-miterlimit="10"/>
<path id="Vector_13" d="M1154.77 250.31H1194.92" stroke="black" stroke-width="4" stroke-miterlimit="10"/>
<path id="Vector_14" d="M1154.87 241.38H1195.02" stroke="black" stroke-width="4" stroke-miterlimit="10"/>
<path id="Vector_15" d="M1182.77 286.99H1166.34C1162.83 286.99 1159.99 289.831 1159.99 293.335C1159.99 296.839 1162.83 299.68 1166.34 299.68H1182.77C1186.28 299.68 1189.12 296.839 1189.12 293.335C1189.12 289.831 1186.28 286.99 1182.77 286.99Z" fill="black" stroke="black" stroke-width="4" stroke-miterlimit="10"/>
<path id="Vector_16" d="M1193.79 299.69H1153.73C1150.88 299.69 1148.57 301.998 1148.57 304.845C1148.57 307.692 1150.88 310 1153.73 310H1193.79C1196.64 310 1198.95 307.692 1198.95 304.845C1198.95 301.998 1196.64 299.69 1193.79 299.69Z" fill="#F8AD3B" stroke="black" stroke-width="4" stroke-miterlimit="10"/>
<path id="Vector_17" d="M943.38 231.86H927.23C920.603 231.86 915.23 237.233 915.23 243.86V274.6C915.23 281.227 920.603 286.6 927.23 286.6H943.38C950.007 286.6 955.38 281.227 955.38 274.6V243.86C955.38 237.233 950.007 231.86 943.38 231.86Z" fill="white" stroke="black" stroke-width="7" stroke-miterlimit="10"/>
<path id="Vector_18" d="M915.23 277.08H955.38" stroke="black" stroke-width="4" stroke-miterlimit="10"/>
<path id="Vector_19" d="M915.33 268.15H955.47" stroke="black" stroke-width="4" stroke-miterlimit="10"/>
<path id="Vector_20" d="M915.42 259.23H955.57" stroke="black" stroke-width="4" stroke-miterlimit="10"/>
<path id="Vector_21" d="M915.52 250.31H955.67" stroke="black" stroke-width="4" stroke-miterlimit="10"/>
<path id="Vector_22" d="M915.62 241.38H955.77" stroke="black" stroke-width="4" stroke-miterlimit="10"/>
<path id="Vector_23" d="M943.52 286.99H927.09C923.583 286.99 920.74 289.831 920.74 293.335C920.74 296.839 923.583 299.68 927.09 299.68H943.52C947.027 299.68 949.87 296.839 949.87 293.335C949.87 289.831 947.027 286.99 943.52 286.99Z" fill="black" stroke="black" stroke-width="4" stroke-miterlimit="10"/>
<path id="Vector_24" d="M954.54 299.69H914.48C911.63 299.69 909.32 301.998 909.32 304.845C909.32 307.692 911.63 310 914.48 310H954.54C957.39 310 959.7 307.692 959.7 304.845C959.7 301.998 957.39 299.69 954.54 299.69Z" fill="#F8AD3B" stroke="black" stroke-width="4" stroke-miterlimit="10"/>
<path id="Vector_25" d="M704.13 231.86H687.98C681.353 231.86 675.98 237.233 675.98 243.86V274.6C675.98 281.227 681.353 286.6 687.98 286.6H704.13C710.757 286.6 716.13 281.227 716.13 274.6V243.86C716.13 237.233 710.757 231.86 704.13 231.86Z" fill="white" stroke="black" stroke-width="7" stroke-miterlimit="10"/>
<path id="Vector_26" d="M675.98 277.08H716.13" stroke="black" stroke-width="4" stroke-miterlimit="10"/>
<path id="Vector_27" d="M676.08 268.15H716.22" stroke="black" stroke-width="4" stroke-miterlimit="10"/>
<path id="Vector_28" d="M676.17 259.23H716.32" stroke="black" stroke-width="4" stroke-miterlimit="10"/>
<path id="Vector_29" d="M676.27 250.31H716.42" stroke="black" stroke-width="4" stroke-miterlimit="10"/>
<path id="Vector_30" d="M676.37 241.38H716.52" stroke="black" stroke-width="4" stroke-miterlimit="10"/>
<path id="Vector_31" d="M704.27 286.99H687.84C684.333 286.99 681.49 289.831 681.49 293.335C681.49 296.839 684.333 299.68 687.84 299.68H704.27C707.777 299.68 710.62 296.839 710.62 293.335C710.62 289.831 707.777 286.99 704.27 286.99Z" fill="black" stroke="black" stroke-width="4" stroke-miterlimit="10"/>
<path id="Vector_32" d="M715.29 299.69H675.23C672.38 299.69 670.07 301.998 670.07 304.845C670.07 307.692 672.38 310 675.23 310H715.29C718.14 310 720.45 307.692 720.45 304.845C720.45 301.998 718.14 299.69 715.29 299.69Z" fill="#F8AD3B" stroke="black" stroke-width="4" stroke-miterlimit="10"/>
<path id="Vector_33" d="M464.88 231.86H448.73C442.103 231.86 436.73 237.233 436.73 243.86V274.6C436.73 281.227 442.103 286.6 448.73 286.6H464.88C471.507 286.6 476.88 281.227 476.88 274.6V243.86C476.88 237.233 471.507 231.86 464.88 231.86Z" fill="white" stroke="black" stroke-width="7" stroke-miterlimit="10"/>
<path id="Vector_34" d="M436.73 277.08H476.88" stroke="black" stroke-width="4" stroke-miterlimit="10"/>
<path id="Vector_35" d="M436.83 268.15H476.97" stroke="black" stroke-width="4" stroke-miterlimit="10"/>
<path id="Vector_36" d="M436.92 259.23H477.07" stroke="black" stroke-width="4" stroke-miterlimit="10"/>
<path id="Vector_37" d="M437.02 250.31H477.17" stroke="black" stroke-width="4" stroke-miterlimit="10"/>
<path id="Vector_38" d="M437.12 241.38H477.27" stroke="black" stroke-width="4" stroke-miterlimit="10"/>
<path id="Vector_39" d="M465.02 286.99H448.59C445.083 286.99 442.24 289.831 442.24 293.335C442.24 296.839 445.083 299.68 448.59 299.68H465.02C468.527 299.68 471.37 296.839 471.37 293.335C471.37 289.831 468.527 286.99 465.02 286.99Z" fill="black" stroke="black" stroke-width="4" stroke-miterlimit="10"/>
<path id="Vector_40" d="M476.04 299.69H435.98C433.13 299.69 430.82 301.998 430.82 304.845C430.82 307.692 433.13 310 435.98 310H476.04C478.89 310 481.2 307.692 481.2 304.845C481.2 301.998 478.89 299.69 476.04 299.69Z" fill="#F8AD3B" stroke="black" stroke-width="4" stroke-miterlimit="10"/>
<path id="Vector_41" d="M1462.5 147.24H434C427.373 147.24 422 152.613 422 159.24V237.57C422 244.197 427.373 249.57 434 249.57H1462.5C1469.13 249.57 1474.5 244.197 1474.5 237.57V159.24C1474.5 152.613 1469.13 147.24 1462.5 147.24Z" fill="#B2A8E0" stroke="black" stroke-width="4" stroke-miterlimit="10"/>
<path id="Vector_42" d="M557 21.5H1580.69C1594.51 21.5 1608.36 21.72 1622.19 21.5H1624C1627.22 21.5 1627.22 16.5 1624 16.5H600.31C586.49 16.5 572.64 16.28 558.81 16.5H557C553.78 16.5 553.78 21.5 557 21.5Z" fill="white"/>
<path id="Vector_43" d="M417.05 45.5C417.05 35.57 409.3 27.5 399.73 27.5H163.52C106.34 27.5 64.4 54.4 64.4 100.95V323C64.4 332.93 72.16 341.08 81.73 341.08C104.314 341.049 116.976 341.031 139.56 341C139.56 341 157.79 332.92 157.8 323C157.97 231.57 157.8 182.57 157.8 156.84C157.8 127.84 178.8 132.01 187.35 132.01H399.73C409.3 132.01 417.05 124.01 417.05 114.01V45.5Z" fill="#B2A8E0" stroke="black" stroke-width="4" stroke-miterlimit="10"/>
<path id="Vector_44" d="M152.87 137H65C58.3726 137 53 142.373 53 149V156C53 162.627 58.3726 168 65 168H152.87C159.497 168 164.87 162.627 164.87 156V149C164.87 142.373 159.497 137 152.87 137Z" fill="#B2A8E0" stroke="black" stroke-width="4" stroke-miterlimit="10"/>
<path id="Vector_45" d="M152.87 171.2H65C58.3726 171.2 53 176.573 53 183.2V190.2C53 196.827 58.3726 202.2 65 202.2H152.87C159.497 202.2 164.87 196.827 164.87 190.2V183.2C164.87 176.573 159.497 171.2 152.87 171.2Z" fill="#B2A8E0" stroke="black" stroke-width="4" stroke-miterlimit="10"/>
<path id="Vector_46" d="M152.87 205.4H65C58.3726 205.4 53 210.773 53 217.4V224.4C53 231.027 58.3726 236.4 65 236.4H152.87C159.497 236.4 164.87 231.027 164.87 224.4V217.4C164.87 210.773 159.497 205.4 152.87 205.4Z" fill="#B2A8E0" stroke="black" stroke-width="4" stroke-miterlimit="10"/>
<path id="Vector_47" d="M152.87 239.6H65C58.3726 239.6 53 244.973 53 251.6V258.6C53 265.227 58.3726 270.6 65 270.6H152.87C159.497 270.6 164.87 265.227 164.87 258.6V251.6C164.87 244.973 159.497 239.6 152.87 239.6Z" fill="#B2A8E0" stroke="black" stroke-width="4" stroke-miterlimit="10"/>
<path id="Vector_48" d="M152.87 273.8H65C58.3726 273.8 53 279.173 53 285.8V292.8C53 299.427 58.3726 304.8 65 304.8H152.87C159.497 304.8 164.87 299.427 164.87 292.8V285.8C164.87 279.173 159.497 273.8 152.87 273.8Z" fill="#B2A8E0" stroke="black" stroke-width="4" stroke-miterlimit="10"/>
<path id="Vector_49" d="M152.87 308H65C58.3726 308 53 313.373 53 320V327C53 333.627 58.3726 339 65 339H152.87C159.497 339 164.87 333.627 164.87 327V320C164.87 313.373 159.497 308 152.87 308Z" fill="#B2A8E0" stroke="black" stroke-width="4" stroke-miterlimit="10"/>
<path id="Vector_50" d="M152.87 342.2H65C58.3726 342.2 53 347.573 53 354.2V361.2C53 367.827 58.3726 373.2 65 373.2H152.87C159.497 373.2 164.87 367.827 164.87 361.2V354.2C164.87 347.573 159.497 342.2 152.87 342.2Z" fill="#B2A8E0" stroke="black" stroke-width="4" stroke-miterlimit="10"/>
<path id="Vector_51" d="M152.87 376.4H65C58.3726 376.4 53 381.773 53 388.4V395.4C53 402.027 58.3726 407.4 65 407.4H152.87C159.497 407.4 164.87 402.027 164.87 395.4V388.4C164.87 381.773 159.497 376.4 152.87 376.4Z" fill="#B2A8E0" stroke="black" stroke-width="4" stroke-miterlimit="10"/>
<path id="Vector_52" d="M152.87 410.6H65C58.3726 410.6 53 415.973 53 422.6V429.6C53 436.227 58.3726 441.6 65 441.6H152.87C159.497 441.6 164.87 436.227 164.87 429.6V422.6C164.87 415.973 159.497 410.6 152.87 410.6Z" fill="#B2A8E0" stroke="black" stroke-width="4" stroke-miterlimit="10"/>
<path id="Vector_53" d="M152.87 444.8H65C58.3726 444.8 53 450.173 53 456.8V463.8C53 470.427 58.3726 475.8 65 475.8H152.87C159.497 475.8 164.87 470.427 164.87 463.8V456.8C164.87 450.173 159.497 444.8 152.87 444.8Z" fill="#B2A8E0" stroke="black" stroke-width="4" stroke-miterlimit="10"/>
<path id="Vector_54" d="M152.87 479H65C58.3726 479 53 484.373 53 491V498C53 504.627 58.3726 510 65 510H152.87C159.497 510 164.87 504.627 164.87 498V491C164.87 484.373 159.497 479 152.87 479Z" fill="#B2A8E0" stroke="black" stroke-width="4" stroke-miterlimit="10"/>
<path id="Vector_55" d="M152.87 513.2H65C58.3726 513.2 53 518.573 53 525.2V532.2C53 538.827 58.3726 544.2 65 544.2H152.87C159.497 544.2 164.87 538.827 164.87 532.2V525.2C164.87 518.573 159.497 513.2 152.87 513.2Z" fill="#B2A8E0" stroke="black" stroke-width="4" stroke-miterlimit="10"/>
<path id="Vector_56" d="M152.87 547.4H65C58.3726 547.4 53 552.773 53 559.4V566.4C53 573.027 58.3726 578.4 65 578.4H152.87C159.497 578.4 164.87 573.027 164.87 566.4V559.4C164.87 552.773 159.497 547.4 152.87 547.4Z" fill="#B2A8E0" stroke="black" stroke-width="4" stroke-miterlimit="10"/>
<path id="Vector_57" d="M152.87 581.6H65C58.3726 581.6 53 586.973 53 593.6V600.6C53 607.227 58.3726 612.6 65 612.6H152.87C159.497 612.6 164.87 607.227 164.87 600.6V593.6C164.87 586.973 159.497 581.6 152.87 581.6Z" fill="#B2A8E0" stroke="black" stroke-width="4" stroke-miterlimit="10"/>
<path id="Vector_58" d="M152.87 615.8H65C58.3726 615.8 53 621.173 53 627.8V634.8C53 641.427 58.3726 646.8 65 646.8H152.87C159.497 646.8 164.87 641.427 164.87 634.8V627.8C164.87 621.173 159.497 615.8 152.87 615.8Z" fill="#B2A8E0" stroke="black" stroke-width="4" stroke-miterlimit="10"/>
<path id="Vector_59" d="M152.87 650H65C58.3726 650 53 655.373 53 662V669C53 675.627 58.3726 681 65 681H152.87C159.497 681 164.87 675.627 164.87 669V662C164.87 655.373 159.497 650 152.87 650Z" fill="#B2A8E0" stroke="black" stroke-width="4" stroke-miterlimit="10"/>
<path id="Vector_60" d="M1007 131.5H1411.31C1416.72 131.5 1422.31 131.94 1427.75 131.5C1428 131.5 1428.25 131.5 1428.5 131.5C1431.72 131.5 1431.72 126.5 1428.5 126.5H1024.19C1018.78 126.5 1013.19 126.06 1007.75 126.5C1007.5 126.5 1007.25 126.5 1007 126.5C1003.78 126.5 1003.78 131.5 1007 131.5Z" fill="#B0B0B0"/>
<path id="Vector_61" opacity="0.29" d="M1555 4.5H474V149.5H1555V4.5Z" fill="#B3C8F2"/>
<path id="Vector_62" d="M426.5 4H1493.5" stroke="black" stroke-width="4" stroke-miterlimit="10"/>
<path id="Vector_63" d="M406.5 22H398.67C392.043 22 386.67 27.3726 386.67 34V126C386.67 132.627 392.043 138 398.67 138H406.5C413.127 138 418.5 132.627 418.5 126V34C418.5 27.3726 413.127 22 406.5 22Z" fill="#B2A8E0" stroke="black" stroke-width="4" stroke-miterlimit="10"/>
<path id="Vector_64" d="M368.17 22H360.34C353.713 22 348.34 27.3726 348.34 34V126C348.34 132.627 353.713 138 360.34 138H368.17C374.798 138 380.17 132.627 380.17 126V34C380.17 27.3726 374.798 22 368.17 22Z" fill="#B2A8E0" stroke="black" stroke-width="4" stroke-miterlimit="10"/>
<path id="Vector_65" d="M329.83 22H322C315.373 22 310 27.3726 310 34V126C310 132.627 315.373 138 322 138H329.83C336.457 138 341.83 132.627 341.83 126V34C341.83 27.3726 336.457 22 329.83 22Z" fill="#B2A8E0" stroke="black" stroke-width="4" stroke-miterlimit="10"/>
<path id="Vector_66" d="M291.5 22H283.67C277.043 22 271.67 27.3726 271.67 34V126C271.67 132.627 277.043 138 283.67 138H291.5C298.127 138 303.5 132.627 303.5 126V34C303.5 27.3726 298.127 22 291.5 22Z" fill="#B2A8E0" stroke="black" stroke-width="4" stroke-miterlimit="10"/>
<path id="Vector_67" d="M253.17 22H245.34C238.713 22 233.34 27.3726 233.34 34V126C233.34 132.627 238.713 138 245.34 138H253.17C259.798 138 265.17 132.627 265.17 126V34C265.17 27.3726 259.798 22 253.17 22Z" fill="#B2A8E0" stroke="black" stroke-width="4" stroke-miterlimit="10"/>
<path id="Vector_68" d="M214.83 22H207C200.373 22 195 27.3726 195 34V126C195 132.627 200.373 138 207 138H214.83C221.457 138 226.83 132.627 226.83 126V34C226.83 27.3726 221.457 22 214.83 22Z" fill="#B2A8E0" stroke="black" stroke-width="4" stroke-miterlimit="10"/>
<path id="Vector_69" d="M176.5 22H168.67C162.043 22 156.67 27.3726 156.67 34V126C156.67 132.627 162.043 138 168.67 138H176.5C183.127 138 188.5 132.627 188.5 126V34C188.5 27.3726 183.127 22 176.5 22Z" fill="#B2A8E0" stroke="black" stroke-width="4" stroke-miterlimit="10"/>
<path id="Vector_70" d="M433.5 2C453.391 2 472.468 9.90175 486.533 23.967C500.598 38.0322 508.5 57.1088 508.5 77V134C508.5 137.183 507.236 140.235 504.985 142.485C502.735 144.736 499.683 146 496.5 146H433.5C430.317 146 427.265 144.736 425.015 142.485C422.764 140.235 421.5 137.183 421.5 134V14C421.5 10.8174 422.764 7.76516 425.015 5.51472C427.265 3.26429 430.317 2 433.5 2V2Z" fill="#B2A8E0" stroke="black" stroke-width="4" stroke-miterlimit="10"/>
</g>
<g id="conveyor">
<path id="Vector_71" d="M1563 435.5H-8C-14.6274 435.5 -20 440.873 -20 447.5V792.5C-20 799.127 -14.6274 804.5 -8 804.5H1563C1569.63 804.5 1575 799.127 1575 792.5V447.5C1575 440.873 1569.63 435.5 1563 435.5Z" fill="#6D60CA" stroke="black" stroke-width="7" stroke-miterlimit="10"/>
<path id="Vector_72" d="M1494 713.5H-3C-9.62742 713.5 -15 718.872 -15 725.5V779.5C-15 786.127 -9.62742 791.5 -3 791.5H1494C1500.63 791.5 1506 786.127 1506 779.5V725.5C1506 718.872 1500.63 713.5 1494 713.5Z" fill="#333333" stroke="black" stroke-width="4" stroke-miterlimit="10"/>
<g id="wheels">
<path id="Vector_73" d="M51.5 778.5C45.0721 778.5 38.7886 776.594 33.444 773.023C28.0994 769.452 23.9338 764.376 21.4739 758.437C19.0141 752.499 18.3705 745.964 19.6245 739.659C20.8785 733.355 23.9738 727.564 28.519 723.019C33.0643 718.474 38.8552 715.378 45.1596 714.124C51.464 712.87 57.9986 713.514 63.9372 715.974C69.8758 718.434 74.9516 722.599 78.5228 727.944C82.0939 733.288 84 739.572 84 746C83.9894 754.616 80.5619 762.877 74.4693 768.969C68.3767 775.062 60.1163 778.489 51.5 778.5ZM51.5 720.19C46.3953 720.19 41.4052 721.704 37.1607 724.54C32.9163 727.376 29.6082 731.407 27.6547 736.123C25.7012 740.839 25.1901 746.029 26.1859 751.035C27.1818 756.042 29.64 760.641 33.2496 764.25C36.8592 767.86 41.4581 770.318 46.4647 771.314C51.4714 772.31 56.6609 771.799 61.3771 769.845C66.0932 767.892 70.1242 764.584 72.9602 760.339C75.7963 756.095 77.31 751.105 77.31 746C77.3021 739.157 74.5803 732.597 69.7417 727.758C64.9031 722.92 58.3428 720.198 51.5 720.19V720.19Z" fill="black"/>
<path id="Vector_74" d="M51.5 761.27C48.4799 761.27 45.5276 760.374 43.0164 758.696C40.5053 757.018 38.5481 754.634 37.3923 751.843C36.2366 749.053 35.9342 745.983 36.5234 743.021C37.1126 740.059 38.5669 737.338 40.7025 735.202C42.838 733.067 45.5589 731.612 48.521 731.023C51.483 730.434 54.5533 730.736 57.3436 731.892C60.1338 733.048 62.5186 735.005 64.1965 737.516C65.8744 740.027 66.77 742.98 66.77 746C66.7647 750.048 65.1542 753.929 62.2917 756.792C59.4291 759.654 55.5482 761.265 51.5 761.27V761.27ZM51.5 733.87C49.1009 733.87 46.7557 734.581 44.7609 735.914C42.7662 737.247 41.2114 739.141 40.2933 741.358C39.3752 743.574 39.135 746.013 39.6031 748.366C40.0711 750.719 41.2264 752.881 42.9228 754.577C44.6192 756.273 46.7806 757.429 49.1335 757.897C51.4865 758.365 53.9255 758.125 56.1419 757.207C58.3584 756.288 60.2529 754.734 61.5857 752.739C62.9186 750.744 63.63 748.399 63.63 746C63.6273 742.784 62.3485 739.7 60.0743 737.426C57.8 735.151 54.7163 733.872 51.5 733.87V733.87Z" fill="black"/>
<path id="Vector_75" d="M116.5 761.27C113.48 761.268 110.529 760.371 108.019 758.692C105.509 757.013 103.554 754.627 102.399 751.837C101.245 749.046 100.944 745.976 101.535 743.015C102.125 740.053 103.58 737.334 105.716 735.199C107.852 733.064 110.573 731.611 113.535 731.023C116.496 730.434 119.566 730.737 122.356 731.893C125.145 733.049 127.53 735.007 129.207 737.518C130.885 740.028 131.78 742.98 131.78 746C131.772 750.049 130.159 753.93 127.295 756.792C124.431 759.655 120.549 761.265 116.5 761.27V761.27ZM116.5 720.19C111.395 720.19 106.405 721.704 102.161 724.54C97.9163 727.376 94.6081 731.407 92.6546 736.123C90.7011 740.839 90.19 746.029 91.1859 751.035C92.1818 756.042 94.6399 760.641 98.2495 764.25C101.859 767.86 106.458 770.318 111.465 771.314C116.471 772.31 121.661 771.799 126.377 769.845C131.093 767.892 135.124 764.584 137.96 760.339C140.796 756.095 142.31 751.105 142.31 746C142.302 739.157 139.58 732.597 134.742 727.758C129.903 722.92 123.343 720.198 116.5 720.19Z" fill="#1A1A1A"/>
<path id="Vector_76" d="M116.5 758.13C123.199 758.13 128.63 752.699 128.63 746C128.63 739.301 123.199 733.87 116.5 733.87C109.801 733.87 104.37 739.301 104.37 746C104.37 752.699 109.801 758.13 116.5 758.13Z" fill="black"/>
<path id="Vector_77" d="M116.5 771.81C111.395 771.81 106.405 770.296 102.161 767.46C97.9163 764.624 94.6082 760.593 92.6547 755.877C90.7012 751.161 90.1901 745.971 91.1859 740.965C92.1818 735.958 94.64 731.359 98.2496 727.749C101.859 724.14 106.458 721.682 111.465 720.686C116.471 719.69 121.661 720.201 126.377 722.155C131.093 724.108 135.124 727.416 137.96 731.661C140.796 735.905 142.31 740.895 142.31 746C142.302 752.843 139.58 759.403 134.742 764.242C129.903 769.08 123.343 771.802 116.5 771.81V771.81ZM116.5 713.5C110.072 713.5 103.789 715.406 98.444 718.977C93.0994 722.548 88.9338 727.624 86.4739 733.563C84.0141 739.501 83.3705 746.036 84.6245 752.34C85.8785 758.645 88.9738 764.436 93.519 768.981C98.0642 773.526 103.855 776.621 110.16 777.875C116.464 779.129 122.999 778.486 128.937 776.026C134.876 773.566 139.952 769.401 143.523 764.056C147.094 758.711 149 752.428 149 746C148.989 737.384 145.562 729.123 139.469 723.031C133.377 716.938 125.116 713.51 116.5 713.5Z" fill="black"/>
<path id="Vector_78" d="M116.5 758.13C114.101 758.13 111.756 757.418 109.761 756.086C107.766 754.753 106.211 752.858 105.293 750.642C104.375 748.425 104.135 745.986 104.603 743.633C105.071 741.28 106.226 739.119 107.923 737.423C109.619 735.726 111.781 734.571 114.134 734.103C116.487 733.635 118.925 733.875 121.142 734.793C123.358 735.711 125.253 737.266 126.586 739.261C127.919 741.256 128.63 743.601 128.63 746C128.627 749.216 127.349 752.3 125.074 754.574C122.8 756.848 119.716 758.127 116.5 758.13V758.13ZM116.5 730.73C113.48 730.732 110.529 731.629 108.019 733.308C105.509 734.987 103.554 737.373 102.399 740.163C101.245 742.954 100.944 746.024 101.535 748.985C102.125 751.946 103.58 754.666 105.716 756.801C107.852 758.935 110.573 760.389 113.535 760.977C116.496 761.566 119.566 761.263 122.356 760.107C125.146 758.951 127.53 756.993 129.207 754.482C130.885 751.972 131.78 749.02 131.78 746C131.772 741.951 130.159 738.07 127.295 735.208C124.431 732.345 120.549 730.735 116.5 730.73V730.73Z" fill="#B2A8E0"/>
<path id="Vector_79" d="M180.45 761.27C177.43 761.268 174.479 760.371 171.969 758.692C169.459 757.013 167.504 754.627 166.35 751.837C165.195 749.046 164.894 745.976 165.485 743.015C166.075 740.053 167.53 737.334 169.666 735.199C171.802 733.064 174.523 731.611 177.485 731.023C180.446 730.434 183.516 730.737 186.306 731.893C189.096 733.049 191.48 735.007 193.157 737.518C194.835 740.028 195.73 742.98 195.73 746C195.725 750.05 194.113 753.932 191.248 756.795C188.383 759.658 184.5 761.267 180.45 761.27V761.27ZM180.45 720.19C175.345 720.19 170.355 721.704 166.111 724.54C161.866 727.376 158.558 731.407 156.605 736.123C154.651 740.839 154.14 746.029 155.136 751.035C156.132 756.042 158.59 760.641 162.2 764.25C165.809 767.86 170.408 770.318 175.415 771.314C180.421 772.31 185.611 771.799 190.327 769.845C195.043 767.892 199.074 764.584 201.91 760.339C204.746 756.095 206.26 751.105 206.26 746C206.252 739.157 203.53 732.597 198.692 727.758C193.853 722.92 187.293 720.198 180.45 720.19V720.19Z" fill="#1A1A1A"/>
<path id="Vector_80" d="M180.45 758.13C187.149 758.13 192.58 752.699 192.58 746C192.58 739.301 187.149 733.87 180.45 733.87C173.751 733.87 168.32 739.301 168.32 746C168.32 752.699 173.751 758.13 180.45 758.13Z" fill="black"/>
<path id="Vector_81" d="M180.45 771.81C175.345 771.81 170.355 770.296 166.111 767.46C161.866 764.624 158.558 760.593 156.605 755.877C154.651 751.161 154.14 745.971 155.136 740.965C156.132 735.958 158.59 731.359 162.2 727.749C165.809 724.14 170.408 721.682 175.415 720.686C180.421 719.69 185.611 720.201 190.327 722.155C195.043 724.108 199.074 727.416 201.91 731.661C204.746 735.905 206.26 740.895 206.26 746C206.252 752.843 203.53 759.403 198.692 764.242C193.853 769.08 187.293 771.802 180.45 771.81V771.81ZM180.45 713.5C174.024 713.51 167.746 715.424 162.408 719.001C157.07 722.579 152.912 727.658 150.46 733.597C148.007 739.537 147.371 746.07 148.631 752.371C149.89 758.672 152.99 764.458 157.537 768.998C162.084 773.539 167.875 776.629 174.178 777.879C180.481 779.129 187.013 778.482 192.949 776.021C198.884 773.56 203.957 769.394 207.526 764.051C211.095 758.707 213 752.426 213 746C212.989 737.375 209.555 729.107 203.452 723.013C197.348 716.919 189.075 713.497 180.45 713.5V713.5Z" fill="black"/>
<path id="Vector_82" d="M180.45 758.13C178.051 758.13 175.706 757.418 173.711 756.086C171.716 754.753 170.161 752.858 169.243 750.642C168.325 748.425 168.085 745.986 168.553 743.633C169.021 741.28 170.176 739.119 171.873 737.423C173.569 735.726 175.731 734.571 178.084 734.103C180.436 733.635 182.875 733.875 185.092 734.793C187.308 735.711 189.203 737.266 190.536 739.261C191.869 741.256 192.58 743.601 192.58 746C192.577 749.216 191.298 752.3 189.024 754.574C186.75 756.848 183.666 758.127 180.45 758.13V758.13ZM180.45 730.73C177.43 730.732 174.479 731.629 171.969 733.308C169.459 734.987 167.504 737.373 166.349 740.163C165.195 742.954 164.894 746.024 165.485 748.985C166.075 751.946 167.53 754.666 169.666 756.801C171.802 758.935 174.523 760.389 177.485 760.977C180.446 761.566 183.516 761.263 186.306 760.107C189.095 758.951 191.48 756.993 193.157 754.482C194.835 751.972 195.73 749.02 195.73 746C195.725 741.95 194.113 738.067 191.248 735.205C188.383 732.342 184.5 730.733 180.45 730.73V730.73Z" fill="#B2A8E0"/>
<path id="Vector_83" d="M244.4 761.27C241.38 761.268 238.429 760.371 235.919 758.692C233.409 757.013 231.454 754.627 230.3 751.837C229.145 749.046 228.844 745.976 229.435 743.015C230.025 740.053 231.48 737.334 233.616 735.199C235.752 733.064 238.473 731.611 241.435 731.023C244.397 730.434 247.466 730.737 250.256 731.893C253.046 733.049 255.43 735.007 257.107 737.518C258.785 740.028 259.68 742.98 259.68 746C259.675 750.05 258.063 753.932 255.198 756.795C252.334 759.658 248.45 761.267 244.4 761.27V761.27ZM244.4 720.19C239.295 720.19 234.305 721.704 230.061 724.54C225.816 727.376 222.508 731.407 220.555 736.123C218.601 740.839 218.09 746.029 219.086 751.035C220.082 756.042 222.54 760.641 226.15 764.25C229.759 767.86 234.358 770.318 239.365 771.314C244.371 772.31 249.561 771.799 254.277 769.845C258.993 767.892 263.024 764.584 265.86 760.339C268.696 756.095 270.21 751.105 270.21 746C270.205 739.156 267.484 732.595 262.645 727.755C257.806 722.916 251.244 720.195 244.4 720.19V720.19Z" fill="#1A1A1A"/>
<path id="Vector_84" d="M244.4 758.13C251.099 758.13 256.53 752.699 256.53 746C256.53 739.301 251.099 733.87 244.4 733.87C237.701 733.87 232.27 739.301 232.27 746C232.27 752.699 237.701 758.13 244.4 758.13Z" fill="black"/>
<path id="Vector_85" d="M244.4 771.81C239.295 771.81 234.305 770.296 230.061 767.46C225.816 764.624 222.508 760.593 220.555 755.877C218.601 751.161 218.09 745.971 219.086 740.965C220.082 735.958 222.54 731.359 226.149 727.749C229.759 724.14 234.358 721.682 239.365 720.686C244.371 719.69 249.561 720.201 254.277 722.155C258.993 724.108 263.024 727.416 265.86 731.661C268.696 735.905 270.21 740.895 270.21 746C270.205 752.843 267.484 759.405 262.644 764.244C257.805 769.084 251.244 771.805 244.4 771.81ZM244.4 713.5C237.972 713.5 231.688 715.406 226.344 718.977C220.999 722.548 216.834 727.624 214.374 733.563C211.914 739.501 211.27 746.036 212.524 752.34C213.778 758.645 216.874 764.436 221.419 768.981C225.964 773.526 231.755 776.621 238.059 777.875C244.364 779.129 250.899 778.486 256.837 776.026C262.776 773.566 267.852 769.401 271.423 764.056C274.994 758.711 276.9 752.428 276.9 746C276.889 737.384 273.462 729.123 267.369 723.031C261.277 716.938 253.016 713.51 244.4 713.5V713.5Z" fill="black"/>
<path id="Vector_86" d="M244.4 758.13C242.001 758.13 239.656 757.418 237.661 756.086C235.666 754.753 234.111 752.858 233.193 750.642C232.275 748.425 232.035 745.986 232.503 743.633C232.971 741.28 234.126 739.119 235.823 737.423C237.519 735.726 239.681 734.571 242.034 734.103C244.387 733.635 246.825 733.875 249.042 734.793C251.258 735.711 253.153 737.266 254.486 739.261C255.819 741.256 256.53 743.601 256.53 746C256.525 749.215 255.245 752.298 252.971 754.571C250.698 756.845 247.615 758.125 244.4 758.13V758.13ZM244.4 730.73C241.38 730.732 238.429 731.629 235.919 733.308C233.409 734.987 231.454 737.373 230.3 740.163C229.145 742.954 228.844 746.024 229.435 748.985C230.025 751.946 231.48 754.666 233.616 756.801C235.752 758.935 238.473 760.389 241.435 760.977C244.396 761.566 247.466 761.263 250.256 760.107C253.046 758.951 255.43 756.993 257.107 754.482C258.785 751.972 259.68 749.02 259.68 746C259.675 741.95 258.063 738.067 255.198 735.205C252.333 732.342 248.45 730.733 244.4 730.73V730.73Z" fill="#B2A8E0"/>
<path id="Vector_87" d="M308.36 761.27C305.34 761.27 302.388 760.374 299.876 758.697C297.365 757.019 295.408 754.634 294.252 751.844C293.097 749.053 292.794 745.983 293.383 743.021C293.973 740.059 295.427 737.338 297.563 735.203C299.698 733.067 302.419 731.613 305.381 731.023C308.343 730.434 311.413 730.737 314.204 731.892C316.994 733.048 319.379 735.005 321.057 737.516C322.734 740.028 323.63 742.98 323.63 746C323.625 750.048 322.014 753.929 319.152 756.792C316.289 759.654 312.408 761.265 308.36 761.27V761.27ZM308.36 720.19C303.255 720.19 298.265 721.704 294.021 724.54C289.776 727.376 286.468 731.407 284.515 736.123C282.561 740.839 282.05 746.029 283.046 751.035C284.042 756.042 286.5 760.641 290.11 764.25C293.719 767.86 298.318 770.318 303.325 771.314C308.331 772.31 313.521 771.799 318.237 769.845C322.953 767.892 326.984 764.584 329.82 760.339C332.656 756.095 334.17 751.105 334.17 746C334.162 739.157 331.44 732.597 326.602 727.758C321.763 722.92 315.203 720.198 308.36 720.19V720.19Z" fill="#1A1A1A"/>
<path id="Vector_88" d="M308.36 758.13C315.059 758.13 320.49 752.699 320.49 746C320.49 739.301 315.059 733.87 308.36 733.87C301.661 733.87 296.23 739.301 296.23 746C296.23 752.699 301.661 758.13 308.36 758.13Z" fill="black"/>
<path id="Vector_89" d="M308.36 771.81C303.255 771.81 298.265 770.296 294.021 767.46C289.776 764.624 286.468 760.593 284.515 755.877C282.561 751.161 282.05 745.971 283.046 740.965C284.042 735.958 286.5 731.359 290.11 727.749C293.719 724.14 298.318 721.682 303.325 720.686C308.331 719.69 313.521 720.201 318.237 722.155C322.953 724.108 326.984 727.416 329.82 731.661C332.656 735.905 334.17 740.895 334.17 746C334.162 752.843 331.44 759.403 326.602 764.242C321.763 769.08 315.203 771.802 308.36 771.81V771.81ZM308.36 713.5C301.932 713.5 295.649 715.406 290.304 718.977C284.959 722.548 280.794 727.624 278.334 733.563C275.874 739.501 275.23 746.036 276.484 752.34C277.738 758.645 280.834 764.436 285.379 768.981C289.924 773.526 295.715 776.621 302.02 777.875C308.324 779.129 314.859 778.486 320.797 776.026C326.736 773.566 331.812 769.401 335.383 764.056C338.954 758.711 340.86 752.428 340.86 746C340.849 737.384 337.422 729.123 331.329 723.031C325.237 716.938 316.976 713.51 308.36 713.5V713.5Z" fill="black"/>
<path id="Vector_90" d="M308.36 758.13C305.961 758.13 303.616 757.418 301.621 756.086C299.626 754.753 298.072 752.858 297.153 750.642C296.235 748.425 295.995 745.986 296.463 743.633C296.931 741.28 298.086 739.119 299.783 737.423C301.479 735.726 303.641 734.571 305.994 734.103C308.347 733.635 310.786 733.875 313.002 734.793C315.219 735.711 317.113 737.266 318.446 739.261C319.779 741.256 320.49 743.601 320.49 746C320.487 749.216 319.209 752.3 316.934 754.574C314.66 756.848 311.576 758.127 308.36 758.13V758.13ZM308.36 730.73C305.34 730.73 302.388 731.625 299.877 733.303C297.365 734.981 295.408 737.366 294.252 740.156C293.097 742.947 292.794 746.017 293.384 748.979C293.973 751.941 295.427 754.662 297.563 756.797C299.698 758.933 302.419 760.387 305.381 760.976C308.343 761.566 311.413 761.263 314.204 760.108C316.994 758.952 319.379 756.995 321.057 754.483C322.735 751.972 323.63 749.02 323.63 746C323.625 741.952 322.014 738.071 319.152 735.208C316.289 732.346 312.408 730.735 308.36 730.73V730.73Z" fill="#B2A8E0"/>
<path id="Vector_91" d="M372.31 761.27C369.29 761.27 366.338 760.374 363.826 758.697C361.315 757.019 359.358 754.634 358.202 751.844C357.047 749.053 356.744 745.983 357.333 743.021C357.923 740.059 359.377 737.338 361.512 735.203C363.648 733.067 366.369 731.613 369.331 731.023C372.293 730.434 375.363 730.737 378.154 731.892C380.944 733.048 383.329 735.005 385.007 737.516C386.684 740.028 387.58 742.98 387.58 746C387.572 750.047 385.961 753.927 383.099 756.789C380.237 759.651 376.357 761.262 372.31 761.27V761.27ZM372.31 720.19C367.205 720.19 362.215 721.704 357.971 724.54C353.726 727.376 350.418 731.407 348.465 736.123C346.511 740.839 346 746.029 346.996 751.035C347.992 756.042 350.45 760.641 354.06 764.25C357.669 767.86 362.268 770.318 367.275 771.314C372.281 772.31 377.471 771.799 382.187 769.845C386.903 767.892 390.934 764.584 393.77 760.339C396.606 756.095 398.12 751.105 398.12 746C398.112 739.157 395.39 732.597 390.552 727.758C385.713 722.92 379.153 720.198 372.31 720.19Z" fill="#1A1A1A"/>
<path id="Vector_92" d="M372.31 758.13C379.009 758.13 384.44 752.699 384.44 746C384.44 739.301 379.009 733.87 372.31 733.87C365.611 733.87 360.18 739.301 360.18 746C360.18 752.699 365.611 758.13 372.31 758.13Z" fill="black"/>
<path id="Vector_93" d="M372.31 771.81C367.205 771.81 362.215 770.296 357.971 767.46C353.726 764.624 350.418 760.593 348.465 755.877C346.511 751.161 346 745.971 346.996 740.965C347.992 735.958 350.45 731.359 354.06 727.749C357.669 724.14 362.268 721.682 367.275 720.686C372.281 719.69 377.471 720.201 382.187 722.155C386.903 724.108 390.934 727.416 393.77 731.661C396.606 735.905 398.12 740.895 398.12 746C398.112 752.843 395.39 759.403 390.552 764.242C385.713 769.08 379.153 771.802 372.31 771.81V771.81ZM372.31 713.5C365.882 713.5 359.599 715.406 354.254 718.977C348.909 722.548 344.744 727.624 342.284 733.563C339.824 739.501 339.181 746.036 340.435 752.34C341.689 758.645 344.784 764.436 349.329 768.981C353.874 773.526 359.665 776.621 365.97 777.875C372.274 779.129 378.809 778.486 384.747 776.026C390.686 773.566 395.762 769.401 399.333 764.056C402.904 758.711 404.81 752.428 404.81 746C404.799 737.384 401.372 729.123 395.279 723.031C389.187 716.938 380.926 713.51 372.31 713.5V713.5Z" fill="black"/>
<path id="Vector_94" d="M372.31 758.13C369.911 758.13 367.566 757.418 365.571 756.086C363.576 754.753 362.021 752.858 361.103 750.642C360.185 748.425 359.945 745.986 360.413 743.633C360.881 741.28 362.036 739.119 363.733 737.423C365.429 735.726 367.591 734.571 369.944 734.103C372.297 733.635 374.736 733.875 376.952 734.793C379.168 735.711 381.063 737.266 382.396 739.261C383.729 741.256 384.44 743.601 384.44 746C384.437 749.216 383.159 752.3 380.884 754.574C378.61 756.848 375.526 758.127 372.31 758.13V758.13ZM372.31 730.73C369.29 730.73 366.338 731.625 363.826 733.303C361.315 734.981 359.358 737.366 358.202 740.156C357.047 742.947 356.744 746.017 357.333 748.979C357.923 751.941 359.377 754.662 361.513 756.797C363.648 758.933 366.369 760.387 369.331 760.976C372.293 761.566 375.363 761.263 378.154 760.108C380.944 758.952 383.329 756.995 385.007 754.483C386.684 751.972 387.58 749.02 387.58 746C387.572 741.952 385.961 738.073 383.099 735.211C380.237 732.349 376.357 730.738 372.31 730.73V730.73Z" fill="#B2A8E0"/>
<path id="Vector_95" d="M436.26 761.27C433.24 761.268 430.289 760.371 427.779 758.692C425.269 757.013 423.314 754.627 422.159 751.837C421.005 749.046 420.704 745.976 421.295 743.015C421.885 740.053 423.34 737.334 425.476 735.199C427.612 733.064 430.333 731.611 433.295 731.023C436.256 730.434 439.326 730.737 442.116 731.893C444.905 733.049 447.29 735.007 448.967 737.518C450.645 740.028 451.54 742.98 451.54 746C451.535 750.05 449.923 753.932 447.058 756.795C444.193 759.658 440.31 761.267 436.26 761.27V761.27ZM436.26 720.19C431.155 720.19 426.165 721.704 421.921 724.54C417.676 727.376 414.368 731.407 412.415 736.123C410.461 740.839 409.95 746.029 410.946 751.035C411.942 756.042 414.4 760.641 418.01 764.25C421.619 767.86 426.218 770.318 431.225 771.314C436.231 772.31 441.421 771.799 446.137 769.845C450.853 767.892 454.884 764.584 457.72 760.339C460.556 756.095 462.07 751.105 462.07 746C462.062 739.157 459.34 732.597 454.502 727.758C449.663 722.92 443.103 720.198 436.26 720.19Z" fill="#1A1A1A"/>
<path id="Vector_96" d="M436.26 758.13C442.959 758.13 448.39 752.699 448.39 746C448.39 739.301 442.959 733.87 436.26 733.87C429.561 733.87 424.13 739.301 424.13 746C424.13 752.699 429.561 758.13 436.26 758.13Z" fill="black"/>
<path id="Vector_97" d="M436.26 771.81C431.155 771.81 426.165 770.296 421.921 767.46C417.676 764.624 414.368 760.593 412.415 755.877C410.461 751.161 409.95 745.971 410.946 740.965C411.942 735.958 414.4 731.359 418.01 727.749C421.619 724.14 426.218 721.682 431.225 720.686C436.231 719.69 441.421 720.201 446.137 722.155C450.853 724.108 454.884 727.416 457.72 731.661C460.556 735.905 462.07 740.895 462.07 746C462.062 752.843 459.34 759.403 454.502 764.242C449.663 769.08 443.103 771.802 436.26 771.81V771.81ZM436.26 713.5C429.832 713.5 423.549 715.406 418.204 718.977C412.859 722.548 408.694 727.624 406.234 733.563C403.774 739.501 403.13 746.036 404.385 752.34C405.639 758.645 408.734 764.436 413.279 768.981C417.824 773.526 423.615 776.621 429.92 777.875C436.224 779.129 442.759 778.486 448.697 776.026C454.636 773.566 459.712 769.401 463.283 764.056C466.854 758.711 468.76 752.428 468.76 746C468.749 737.384 465.322 729.123 459.229 723.031C453.137 716.938 444.876 713.51 436.26 713.5Z" fill="black"/>
<path id="Vector_98" d="M436.26 758.13C433.861 758.13 431.516 757.418 429.521 756.086C427.526 754.753 425.971 752.858 425.053 750.642C424.135 748.425 423.895 745.986 424.363 743.633C424.831 741.28 425.986 739.119 427.683 737.423C429.379 735.726 431.541 734.571 433.894 734.103C436.247 733.635 438.685 733.875 440.902 734.793C443.118 735.711 445.013 737.266 446.346 739.261C447.679 741.256 448.39 743.601 448.39 746C448.387 749.216 447.109 752.3 444.834 754.574C442.56 756.848 439.476 758.127 436.26 758.13V758.13ZM436.26 730.73C433.24 730.732 430.289 731.629 427.779 733.308C425.269 734.987 423.314 737.373 422.16 740.163C421.005 742.954 420.704 746.024 421.295 748.985C421.885 751.946 423.34 754.666 425.476 756.801C427.612 758.935 430.333 760.389 433.295 760.977C436.256 761.566 439.326 761.263 442.116 760.107C444.906 758.951 447.29 756.993 448.967 754.482C450.645 751.972 451.54 749.02 451.54 746C451.535 741.95 449.923 738.067 447.058 735.205C444.193 732.342 440.31 730.733 436.26 730.73V730.73Z" fill="#B2A8E0"/>
<path id="Vector_99" d="M500.21 761.27C497.19 761.268 494.239 760.371 491.729 758.692C489.219 757.013 487.264 754.627 486.11 751.837C484.955 749.046 484.654 745.976 485.245 743.015C485.835 740.053 487.29 737.334 489.426 735.199C491.562 733.064 494.283 731.611 497.245 731.023C500.206 730.434 503.276 730.737 506.066 731.893C508.856 733.049 511.24 735.007 512.917 737.518C514.595 740.028 515.49 742.98 515.49 746C515.485 750.05 513.873 753.932 511.008 756.795C508.143 759.658 504.26 761.267 500.21 761.27V761.27ZM500.21 720.19C495.104 720.186 490.112 721.696 485.865 724.53C481.618 727.364 478.307 731.393 476.35 736.109C474.394 740.825 473.88 746.015 474.874 751.023C475.867 756.031 478.324 760.632 481.933 764.243C485.541 767.855 490.14 770.315 495.147 771.313C500.155 772.31 505.345 771.8 510.062 769.847C514.78 767.894 518.812 764.586 521.649 760.341C524.486 756.097 526 751.106 526 746C525.995 739.16 523.277 732.601 518.442 727.763C513.607 722.924 507.05 720.201 500.21 720.19V720.19Z" fill="#1A1A1A"/>
<path id="Vector_100" d="M500.21 758.13C506.909 758.13 512.34 752.699 512.34 746C512.34 739.301 506.909 733.87 500.21 733.87C493.511 733.87 488.08 739.301 488.08 746C488.08 752.699 493.511 758.13 500.21 758.13Z" fill="black"/>
<path id="Vector_101" d="M500.21 771.81C495.104 771.814 490.112 770.303 485.865 767.47C481.618 764.636 478.307 760.607 476.35 755.891C474.394 751.175 473.88 745.985 474.873 740.977C475.867 735.969 478.324 731.368 481.932 727.757C485.541 724.145 490.14 721.685 495.147 720.687C500.155 719.69 505.345 720.2 510.062 722.153C514.78 724.106 518.812 727.414 521.649 731.659C524.486 735.903 526 740.894 526 746C525.995 752.84 523.276 759.399 518.442 764.237C513.607 769.076 507.05 771.799 500.21 771.81V771.81ZM500.21 713.5C493.782 713.5 487.499 715.406 482.154 718.977C476.809 722.548 472.644 727.624 470.184 733.563C467.724 739.501 467.08 746.036 468.334 752.34C469.588 758.645 472.684 764.436 477.229 768.981C481.774 773.526 487.565 776.621 493.87 777.875C500.174 779.129 506.709 778.486 512.647 776.026C518.586 773.566 523.662 769.401 527.233 764.056C530.804 758.711 532.71 752.428 532.71 746C532.699 737.384 529.272 729.123 523.179 723.031C517.087 716.938 508.826 713.51 500.21 713.5Z" fill="black"/>
<path id="Vector_102" d="M500.21 758.13C497.811 758.13 495.466 757.418 493.471 756.086C491.476 754.753 489.921 752.858 489.003 750.642C488.085 748.425 487.845 745.986 488.313 743.633C488.781 741.28 489.936 739.119 491.633 737.423C493.329 735.726 495.491 734.571 497.844 734.103C500.197 733.635 502.635 733.875 504.852 734.793C507.068 735.711 508.963 737.266 510.296 739.261C511.629 741.256 512.34 743.601 512.34 746C512.335 749.215 511.055 752.298 508.781 754.571C506.508 756.845 503.425 758.125 500.21 758.13V758.13ZM500.21 730.73C497.19 730.732 494.239 731.629 491.729 733.308C489.219 734.987 487.264 737.373 486.109 740.163C484.955 742.954 484.654 746.024 485.245 748.985C485.835 751.946 487.29 754.666 489.426 756.801C491.562 758.935 494.283 760.389 497.245 760.977C500.206 761.566 503.276 761.263 506.066 760.107C508.855 758.951 511.24 756.993 512.917 754.482C514.595 751.972 515.49 749.02 515.49 746C515.485 741.95 513.873 738.067 511.008 735.205C508.143 732.342 504.26 730.733 500.21 730.73V730.73Z" fill="#B2A8E0"/>
<path id="Vector_103" d="M564.17 761.27C561.15 761.27 558.198 760.374 555.686 758.697C553.175 757.019 551.218 754.634 550.062 751.844C548.907 749.053 548.604 745.983 549.193 743.021C549.783 740.059 551.237 737.338 553.373 735.203C555.508 733.067 558.229 731.613 561.191 731.023C564.153 730.434 567.223 730.737 570.014 731.892C572.804 733.048 575.189 735.005 576.867 737.516C578.544 740.028 579.44 742.98 579.44 746C579.435 750.048 577.824 753.929 574.962 756.792C572.099 759.654 568.218 761.265 564.17 761.27V761.27ZM564.17 720.19C559.066 720.194 554.078 721.711 549.836 724.55C545.594 727.388 542.289 731.42 540.339 736.137C538.389 740.853 537.88 746.042 538.878 751.048C539.877 756.053 542.336 760.65 545.947 764.258C549.557 767.865 554.156 770.321 559.162 771.316C564.168 772.31 569.357 771.798 574.072 769.843C578.787 767.889 582.816 764.581 585.652 760.337C588.487 756.093 590 751.104 590 746C589.992 739.154 587.268 732.591 582.425 727.751C577.582 722.912 571.016 720.193 564.17 720.19V720.19Z" fill="#1A1A1A"/>
<path id="Vector_104" d="M564.17 758.13C570.869 758.13 576.3 752.699 576.3 746C576.3 739.301 570.869 733.87 564.17 733.87C557.471 733.87 552.04 739.301 552.04 746C552.04 752.699 557.471 758.13 564.17 758.13Z" fill="black"/>
<path id="Vector_105" d="M564.17 771.81C559.066 771.806 554.078 770.289 549.836 767.45C545.594 764.612 542.289 760.58 540.339 755.863C538.388 751.147 537.88 745.958 538.878 740.952C539.876 735.947 542.336 731.35 545.947 727.742C549.557 724.135 554.156 721.679 559.162 720.684C564.168 719.69 569.357 720.202 574.072 722.156C578.787 724.111 582.816 727.419 585.652 731.663C588.487 735.907 590 740.896 590 746C589.992 752.846 587.267 759.409 582.424 764.249C577.582 769.088 571.016 771.807 564.17 771.81V771.81ZM564.17 713.5C557.742 713.5 551.458 715.406 546.114 718.977C540.769 722.548 536.604 727.624 534.144 733.563C531.684 739.501 531.04 746.036 532.294 752.34C533.548 758.645 536.644 764.436 541.189 768.981C545.734 773.526 551.525 776.621 557.83 777.875C564.134 779.129 570.669 778.486 576.607 776.026C582.546 773.566 587.622 769.401 591.193 764.056C594.764 758.711 596.67 752.428 596.67 746C596.659 737.384 593.232 729.123 587.139 723.031C581.047 716.938 572.786 713.51 564.17 713.5Z" fill="black"/>
<path id="Vector_106" d="M564.17 758.13C561.771 758.13 559.426 757.418 557.431 756.086C555.436 754.753 553.881 752.858 552.963 750.642C552.045 748.425 551.805 745.986 552.273 743.633C552.741 741.28 553.896 739.119 555.593 737.423C557.289 735.726 559.451 734.571 561.804 734.103C564.157 733.635 566.596 733.875 568.812 734.793C571.028 735.711 572.923 737.266 574.256 739.261C575.589 741.256 576.3 743.601 576.3 746C576.297 749.216 575.019 752.3 572.744 754.574C570.47 756.848 567.386 758.127 564.17 758.13V758.13ZM564.17 730.73C561.15 730.73 558.198 731.625 555.686 733.303C553.175 734.981 551.218 737.366 550.062 740.156C548.907 742.947 548.604 746.017 549.193 748.979C549.783 751.941 551.237 754.662 553.373 756.797C555.508 758.933 558.229 760.387 561.191 760.976C564.153 761.566 567.223 761.263 570.014 760.108C572.804 758.952 575.189 756.995 576.867 754.483C578.544 751.972 579.44 749.02 579.44 746C579.435 741.952 577.824 738.071 574.962 735.208C572.099 732.346 568.218 730.735 564.17 730.73V730.73Z" fill="#B2A8E0"/>
<path id="Vector_107" d="M628.12 761.27C625.1 761.27 622.148 760.374 619.636 758.697C617.125 757.019 615.168 754.634 614.012 751.844C612.857 749.053 612.554 745.983 613.143 743.021C613.733 740.059 615.187 737.338 617.323 735.203C619.458 733.067 622.179 731.613 625.141 731.023C628.103 730.434 631.173 730.737 633.964 731.892C636.754 733.048 639.139 735.005 640.817 737.516C642.494 740.028 643.39 742.98 643.39 746C643.382 750.047 641.771 753.927 638.909 756.789C636.047 759.651 632.167 761.262 628.12 761.27V761.27ZM628.12 720.19C623.015 720.19 618.025 721.704 613.781 724.54C609.536 727.376 606.228 731.407 604.275 736.123C602.321 740.839 601.81 746.029 602.806 751.035C603.802 756.042 606.26 760.641 609.87 764.25C613.479 767.86 618.078 770.318 623.085 771.314C628.091 772.31 633.281 771.799 637.997 769.845C642.713 767.892 646.744 764.584 649.58 760.339C652.416 756.095 653.93 751.105 653.93 746C653.922 739.157 651.2 732.597 646.362 727.758C641.523 722.92 634.963 720.198 628.12 720.19V720.19Z" fill="#1A1A1A"/>
<path id="Vector_108" d="M628.12 758.13C634.819 758.13 640.25 752.699 640.25 746C640.25 739.301 634.819 733.87 628.12 733.87C621.421 733.87 615.99 739.301 615.99 746C615.99 752.699 621.421 758.13 628.12 758.13Z" fill="black"/>
<path id="Vector_109" d="M628.12 771.81C623.015 771.81 618.025 770.296 613.781 767.46C609.536 764.624 606.228 760.593 604.275 755.877C602.321 751.161 601.81 745.971 602.806 740.965C603.802 735.958 606.26 731.359 609.87 727.749C613.479 724.14 618.078 721.682 623.085 720.686C628.091 719.69 633.281 720.201 637.997 722.155C642.713 724.108 646.744 727.416 649.58 731.661C652.416 735.905 653.93 740.895 653.93 746C653.922 752.843 651.2 759.403 646.362 764.242C641.523 769.08 634.963 771.802 628.12 771.81V771.81ZM628.12 713.5C621.692 713.5 615.409 715.406 610.064 718.977C604.719 722.548 600.554 727.624 598.094 733.563C595.634 739.501 594.99 746.036 596.244 752.34C597.499 758.645 600.594 764.436 605.139 768.981C609.684 773.526 615.475 776.621 621.78 777.875C628.084 779.129 634.619 778.486 640.557 776.026C646.496 773.566 651.572 769.401 655.143 764.056C658.714 758.711 660.62 752.428 660.62 746C660.609 737.384 657.182 729.123 651.089 723.031C644.997 716.938 636.736 713.51 628.12 713.5Z" fill="black"/>
<path id="Vector_110" d="M628.12 758.13C625.721 758.13 623.376 757.418 621.381 756.086C619.386 754.753 617.831 752.858 616.913 750.642C615.995 748.425 615.755 745.986 616.223 743.633C616.691 741.28 617.846 739.119 619.543 737.423C621.239 735.726 623.401 734.571 625.754 734.103C628.107 733.635 630.545 733.875 632.762 734.793C634.978 735.711 636.873 737.266 638.206 739.261C639.539 741.256 640.25 743.601 640.25 746C640.247 749.216 638.968 752.3 636.694 754.574C634.42 756.848 631.336 758.127 628.12 758.13V758.13ZM628.12 730.73C625.1 730.73 622.148 731.625 619.636 733.303C617.125 734.981 615.168 737.366 614.012 740.156C612.857 742.947 612.554 746.017 613.143 748.979C613.733 751.941 615.187 754.662 617.322 756.797C619.458 758.933 622.179 760.387 625.141 760.976C628.103 761.566 631.173 761.263 633.964 760.108C636.754 758.952 639.139 756.995 640.817 754.483C642.494 751.972 643.39 749.02 643.39 746C643.382 741.952 641.771 738.073 638.909 735.211C636.047 732.349 632.167 730.738 628.12 730.73V730.73Z" fill="#B2A8E0"/>
<path id="Vector_111" d="M692.07 761.27C689.05 761.268 686.099 760.371 683.589 758.692C681.079 757.013 679.124 754.627 677.97 751.837C676.815 749.046 676.514 745.976 677.105 743.015C677.695 740.053 679.15 737.334 681.286 735.199C683.422 733.064 686.143 731.611 689.105 731.023C692.067 730.434 695.136 730.737 697.926 731.893C700.716 733.049 703.1 735.007 704.777 737.518C706.455 740.028 707.35 742.98 707.35 746C707.345 750.05 705.733 753.932 702.868 756.795C700.003 759.658 696.12 761.267 692.07 761.27V761.27ZM692.07 720.19C686.965 720.19 681.975 721.704 677.731 724.54C673.486 727.376 670.178 731.407 668.225 736.123C666.271 740.839 665.76 746.029 666.756 751.035C667.752 756.042 670.21 760.641 673.82 764.25C677.429 767.86 682.028 770.318 687.035 771.314C692.041 772.31 697.231 771.799 701.947 769.845C706.663 767.892 710.694 764.584 713.53 760.339C716.366 756.095 717.88 751.105 717.88 746C717.872 739.157 715.15 732.597 710.312 727.758C705.473 722.92 698.913 720.198 692.07 720.19Z" fill="#1A1A1A"/>
<path id="Vector_112" d="M692.07 758.13C698.769 758.13 704.2 752.699 704.2 746C704.2 739.301 698.769 733.87 692.07 733.87C685.371 733.87 679.94 739.301 679.94 746C679.94 752.699 685.371 758.13 692.07 758.13Z" fill="black"/>
<path id="Vector_113" d="M692.07 771.81C686.965 771.81 681.975 770.296 677.731 767.46C673.486 764.624 670.178 760.593 668.225 755.877C666.271 751.161 665.76 745.971 666.756 740.965C667.752 735.958 670.21 731.359 673.82 727.749C677.429 724.14 682.028 721.682 687.035 720.686C692.041 719.69 697.231 720.201 701.947 722.155C706.663 724.108 710.694 727.416 713.53 731.661C716.366 735.905 717.88 740.895 717.88 746C717.872 752.843 715.15 759.403 710.312 764.242C705.473 769.08 698.913 771.802 692.07 771.81V771.81ZM692.07 713.5C685.642 713.5 679.359 715.406 674.014 718.977C668.669 722.548 664.504 727.624 662.044 733.563C659.584 739.501 658.94 746.036 660.194 752.34C661.449 758.645 664.544 764.436 669.089 768.981C673.634 773.526 679.425 776.621 685.73 777.875C692.034 779.129 698.569 778.486 704.507 776.026C710.446 773.566 715.522 769.401 719.093 764.056C722.664 758.711 724.57 752.428 724.57 746C724.559 737.384 721.132 729.123 715.039 723.031C708.947 716.938 700.686 713.51 692.07 713.5V713.5Z" fill="black"/>
<path id="Vector_114" d="M692.07 758.13C689.671 758.13 687.326 757.418 685.331 756.086C683.336 754.753 681.781 752.858 680.863 750.642C679.945 748.425 679.705 745.986 680.173 743.633C680.641 741.28 681.796 739.119 683.493 737.423C685.189 735.726 687.351 734.571 689.704 734.103C692.057 733.635 694.496 733.875 696.712 734.793C698.928 735.711 700.823 737.266 702.156 739.261C703.489 741.256 704.2 743.601 704.2 746C704.197 749.216 702.919 752.3 700.644 754.574C698.37 756.848 695.286 758.127 692.07 758.13V758.13ZM692.07 730.73C689.05 730.732 686.099 731.629 683.589 733.308C681.079 734.987 679.124 737.373 677.97 740.163C676.815 742.954 676.514 746.024 677.105 748.985C677.695 751.946 679.15 754.666 681.286 756.801C683.422 758.935 686.143 760.389 689.105 760.977C692.067 761.566 695.136 761.263 697.926 760.107C700.716 758.951 703.1 756.993 704.777 754.482C706.455 751.972 707.35 749.02 707.35 746C707.345 741.95 705.733 738.067 702.868 735.205C700.003 732.342 696.12 730.733 692.07 730.73V730.73Z" fill="#B2A8E0"/>
<path id="Vector_115" d="M756 761.27C752.981 761.264 750.032 760.363 747.525 758.682C745.017 757.001 743.065 754.614 741.914 751.823C740.763 749.032 740.465 745.963 741.057 743.003C741.65 740.043 743.106 737.325 745.243 735.192C747.38 733.059 750.101 731.608 753.062 731.021C756.023 730.435 759.092 730.739 761.881 731.895C764.669 733.052 767.052 735.009 768.729 737.52C770.405 740.03 771.3 742.981 771.3 746C771.295 750.053 769.68 753.939 766.811 756.802C763.942 759.666 760.053 761.273 756 761.27V761.27ZM756 720.19C750.895 720.19 745.905 721.704 741.661 724.54C737.416 727.376 734.108 731.407 732.155 736.123C730.201 740.839 729.69 746.029 730.686 751.035C731.682 756.042 734.14 760.641 737.75 764.25C741.359 767.86 745.958 770.318 750.965 771.314C755.971 772.31 761.161 771.799 765.877 769.845C770.593 767.892 774.624 764.584 777.46 760.339C780.296 756.095 781.81 751.105 781.81 746C781.802 739.157 779.08 732.597 774.242 727.758C769.403 722.92 762.843 720.198 756 720.19V720.19Z" fill="#1A1A1A"/>
<path id="Vector_116" d="M756.02 758.13C762.719 758.13 768.15 752.699 768.15 746C768.15 739.301 762.719 733.87 756.02 733.87C749.321 733.87 743.89 739.301 743.89 746C743.89 752.699 749.321 758.13 756.02 758.13Z" fill="black"/>
<path id="Vector_117" d="M756 771.81C750.895 771.81 745.905 770.296 741.661 767.46C737.416 764.624 734.108 760.593 732.155 755.877C730.201 751.161 729.69 745.971 730.686 740.965C731.682 735.958 734.14 731.359 737.75 727.749C741.359 724.14 745.958 721.682 750.965 720.686C755.971 719.69 761.161 720.201 765.877 722.155C770.593 724.108 774.624 727.416 777.46 731.661C780.296 735.905 781.81 740.895 781.81 746C781.802 752.843 779.08 759.403 774.242 764.242C769.403 769.08 762.843 771.802 756 771.81V771.81ZM756 713.5C749.572 713.5 743.289 715.406 737.944 718.977C732.599 722.548 728.434 727.624 725.974 733.563C723.514 739.501 722.87 746.036 724.124 752.34C725.378 758.645 728.474 764.436 733.019 768.981C737.564 773.526 743.355 776.621 749.66 777.875C755.964 779.129 762.499 778.486 768.437 776.026C774.376 773.566 779.452 769.401 783.023 764.056C786.594 758.711 788.5 752.428 788.5 746C788.489 737.384 785.062 729.123 778.969 723.031C772.877 716.938 764.616 713.51 756 713.5Z" fill="black"/>
<path id="Vector_118" d="M756 758.13C753.601 758.13 751.256 757.418 749.261 756.086C747.266 754.753 745.711 752.858 744.793 750.642C743.875 748.425 743.635 745.986 744.103 743.633C744.571 741.28 745.726 739.119 747.423 737.423C749.119 735.726 751.281 734.571 753.634 734.103C755.987 733.635 758.426 733.875 760.642 734.793C762.858 735.711 764.753 737.266 766.086 739.261C767.419 741.256 768.13 743.601 768.13 746C768.125 749.215 766.845 752.298 764.571 754.571C762.298 756.845 759.215 758.125 756 758.13V758.13ZM756 730.73C752.981 730.736 750.032 731.636 747.525 733.318C745.017 734.999 743.065 737.386 741.914 740.177C740.763 742.968 740.465 746.037 741.057 748.997C741.65 751.957 743.106 754.675 745.243 756.808C747.38 758.941 750.101 760.392 753.062 760.979C756.023 761.565 759.092 761.261 761.881 760.105C764.669 758.948 767.052 756.991 768.729 754.48C770.405 751.97 771.3 749.019 771.3 746C771.295 741.946 769.68 738.061 766.811 735.198C763.942 732.334 760.053 730.727 756 730.73V730.73Z" fill="#B2A8E0"/>
<path id="Vector_119" d="M820 761.27C816.98 761.27 814.028 760.374 811.516 758.697C809.005 757.019 807.048 754.634 805.892 751.844C804.737 749.053 804.434 745.983 805.023 743.021C805.613 740.059 807.067 737.338 809.202 735.203C811.338 733.067 814.059 731.613 817.021 731.023C819.983 730.434 823.053 730.737 825.844 731.892C828.634 733.048 831.019 735.005 832.697 737.516C834.374 740.028 835.27 742.98 835.27 746C835.265 750.048 833.654 753.929 830.792 756.792C827.929 759.654 824.048 761.265 820 761.27V761.27ZM820 720.19C814.895 720.19 809.905 721.704 805.661 724.54C801.416 727.376 798.108 731.407 796.155 736.123C794.201 740.839 793.69 746.029 794.686 751.035C795.682 756.042 798.14 760.641 801.75 764.25C805.359 767.86 809.958 770.318 814.965 771.314C819.971 772.31 825.161 771.799 829.877 769.845C834.593 767.892 838.624 764.584 841.46 760.339C844.296 756.095 845.81 751.105 845.81 746C845.802 739.157 843.08 732.597 838.242 727.758C833.403 722.92 826.843 720.198 820 720.19V720.19Z" fill="#1A1A1A"/>
<path id="Vector_120" d="M819.98 758.13C826.679 758.13 832.11 752.699 832.11 746C832.11 739.301 826.679 733.87 819.98 733.87C813.281 733.87 807.85 739.301 807.85 746C807.85 752.699 813.281 758.13 819.98 758.13Z" fill="black"/>
<path id="Vector_121" d="M820 771.81C814.895 771.81 809.905 770.296 805.661 767.46C801.416 764.624 798.108 760.593 796.155 755.877C794.201 751.161 793.69 745.971 794.686 740.965C795.682 735.958 798.14 731.359 801.75 727.749C805.359 724.14 809.958 721.682 814.965 720.686C819.971 719.69 825.161 720.201 829.877 722.155C834.593 724.108 838.624 727.416 841.46 731.661C844.296 735.905 845.81 740.895 845.81 746C845.802 752.843 843.08 759.403 838.242 764.242C833.403 769.08 826.843 771.802 820 771.81V771.81ZM820 713.5C813.572 713.5 807.289 715.406 801.944 718.977C796.599 722.548 792.434 727.624 789.974 733.563C787.514 739.501 786.87 746.036 788.124 752.34C789.378 758.645 792.474 764.436 797.019 768.981C801.564 773.526 807.355 776.621 813.66 777.875C819.964 779.129 826.499 778.486 832.437 776.026C838.376 773.566 843.452 769.401 847.023 764.056C850.594 758.711 852.5 752.428 852.5 746C852.489 737.384 849.062 729.123 842.969 723.031C836.877 716.938 828.616 713.51 820 713.5Z" fill="black"/>
<path id="Vector_122" d="M820 758.13C817.601 758.13 815.256 757.418 813.261 756.086C811.266 754.753 809.711 752.858 808.793 750.642C807.875 748.425 807.635 745.986 808.103 743.633C808.571 741.28 809.726 739.119 811.423 737.423C813.119 735.726 815.281 734.571 817.634 734.103C819.987 733.635 822.425 733.875 824.642 734.793C826.858 735.711 828.753 737.266 830.086 739.261C831.419 741.256 832.13 743.601 832.13 746C832.127 749.216 830.848 752.3 828.574 754.574C826.3 756.848 823.216 758.127 820 758.13V758.13ZM820 730.73C816.98 730.73 814.028 731.625 811.516 733.303C809.005 734.981 807.048 737.366 805.892 740.156C804.737 742.947 804.434 746.017 805.023 748.979C805.613 751.941 807.067 754.662 809.202 756.797C811.338 758.933 814.059 760.387 817.021 760.976C819.983 761.566 823.053 761.263 825.844 760.108C828.634 758.952 831.019 756.995 832.697 754.483C834.374 751.972 835.27 749.02 835.27 746C835.265 741.952 833.654 738.071 830.792 735.208C827.929 732.346 824.048 730.735 820 730.73Z" fill="#B2A8E0"/>
<path id="Vector_123" d="M1139.74 758.13C1137.34 758.13 1135 757.418 1133 756.086C1131.01 754.753 1129.45 752.858 1128.53 750.642C1127.62 748.425 1127.37 745.986 1127.84 743.633C1128.31 741.28 1129.47 739.119 1131.16 737.423C1132.86 735.726 1135.02 734.571 1137.37 734.103C1139.73 733.635 1142.17 733.875 1144.38 734.793C1146.6 735.711 1148.49 737.266 1149.83 739.261C1151.16 741.256 1151.87 743.601 1151.87 746C1151.87 749.216 1150.59 752.3 1148.31 754.574C1146.04 756.848 1142.96 758.127 1139.74 758.13V758.13ZM1139.74 730.73C1136.72 730.728 1133.77 731.622 1131.25 733.298C1128.74 734.975 1126.78 737.359 1125.63 740.149C1124.47 742.939 1124.16 746.01 1124.75 748.973C1125.34 751.936 1126.79 754.657 1128.93 756.794C1131.06 758.93 1133.78 760.386 1136.75 760.976C1139.71 761.566 1142.78 761.264 1145.57 760.108C1148.36 758.953 1150.75 756.996 1152.43 754.485C1154.1 751.973 1155 749.02 1155 746C1154.99 741.954 1153.38 738.076 1150.52 735.215C1147.66 732.353 1143.79 730.74 1139.74 730.73V730.73Z" fill="#B2A8E0"/>
<path id="Vector_124" d="M1203.69 761.27C1200.67 761.262 1197.72 760.36 1195.22 758.677C1192.71 756.994 1190.76 754.607 1189.61 751.816C1188.46 749.025 1188.16 745.956 1188.76 742.997C1189.35 740.037 1190.81 737.32 1192.95 735.188C1195.08 733.057 1197.8 731.607 1200.77 731.021C1203.73 730.435 1206.79 730.739 1209.58 731.896C1212.37 733.053 1214.75 735.01 1216.43 737.521C1218.11 740.031 1219 742.982 1219 746C1219 748.008 1218.6 749.996 1217.83 751.85C1217.06 753.704 1215.93 755.388 1214.51 756.806C1213.09 758.224 1211.4 759.348 1209.54 760.114C1207.69 760.88 1205.7 761.273 1203.69 761.27V761.27ZM1203.69 720.19C1198.59 720.19 1193.6 721.704 1189.35 724.54C1185.11 727.376 1181.8 731.407 1179.84 736.123C1177.89 740.839 1177.38 746.029 1178.38 751.035C1179.37 756.042 1181.83 760.641 1185.44 764.25C1189.05 767.86 1193.65 770.318 1198.65 771.314C1203.66 772.31 1208.85 771.799 1213.57 769.845C1218.28 767.892 1222.31 764.584 1225.15 760.339C1227.99 756.095 1229.5 751.105 1229.5 746C1229.49 739.157 1226.77 732.597 1221.93 727.758C1217.09 722.92 1210.53 720.198 1203.69 720.19Z" fill="#1A1A1A"/>
<path id="Vector_125" d="M1203.69 758.13C1210.39 758.13 1215.82 752.699 1215.82 746C1215.82 739.301 1210.39 733.87 1203.69 733.87C1196.99 733.87 1191.56 739.301 1191.56 746C1191.56 752.699 1196.99 758.13 1203.69 758.13Z" fill="black"/>
<path id="Vector_126" d="M1203.69 771.81C1198.59 771.81 1193.6 770.296 1189.35 767.46C1185.11 764.624 1181.8 760.593 1179.84 755.877C1177.89 751.161 1177.38 745.971 1178.38 740.965C1179.37 735.958 1181.83 731.359 1185.44 727.749C1189.05 724.14 1193.65 721.682 1198.65 720.686C1203.66 719.69 1208.85 720.201 1213.57 722.155C1218.28 724.108 1222.31 727.416 1225.15 731.661C1227.99 735.905 1229.5 740.895 1229.5 746C1229.49 752.843 1226.77 759.403 1221.93 764.242C1217.09 769.08 1210.53 771.802 1203.69 771.81V771.81ZM1203.69 713.5C1197.26 713.5 1190.98 715.406 1185.63 718.977C1180.29 722.548 1176.12 727.624 1173.66 733.563C1171.2 739.501 1170.56 746.036 1171.81 752.34C1173.07 758.645 1176.16 764.436 1180.71 768.981C1185.25 773.526 1191.05 776.621 1197.35 777.875C1203.65 779.129 1210.19 778.486 1216.13 776.026C1222.07 773.566 1227.14 769.401 1230.71 764.056C1234.28 758.711 1236.19 752.428 1236.19 746C1236.18 737.384 1232.75 729.123 1226.66 723.031C1220.57 716.938 1212.31 713.51 1203.69 713.5Z" fill="black"/>
<path id="Vector_127" d="M1203.69 758.13C1201.29 758.13 1198.95 757.419 1196.95 756.086C1194.96 754.753 1193.4 752.858 1192.48 750.642C1191.57 748.425 1191.33 745.986 1191.79 743.633C1192.26 741.28 1193.42 739.119 1195.11 737.423C1196.81 735.726 1198.97 734.571 1201.32 734.103C1203.68 733.635 1206.12 733.875 1208.33 734.793C1210.55 735.711 1212.44 737.266 1213.78 739.261C1215.11 741.256 1215.82 743.601 1215.82 746C1215.82 749.216 1214.54 752.3 1212.26 754.574C1209.99 756.848 1206.91 758.127 1203.69 758.13V758.13ZM1203.69 730.73C1200.67 730.738 1197.72 731.64 1195.22 733.323C1192.71 735.005 1190.76 737.393 1189.61 740.184C1188.46 742.975 1188.16 746.044 1188.76 749.003C1189.35 751.963 1190.81 754.68 1192.95 756.811C1195.08 758.943 1197.8 760.393 1200.77 760.979C1203.73 761.565 1206.79 761.261 1209.58 760.104C1212.37 758.947 1214.75 756.99 1216.43 754.479C1218.11 751.969 1219 749.018 1219 746C1219 743.992 1218.6 742.004 1217.83 740.15C1217.06 738.296 1215.93 736.612 1214.51 735.194C1213.09 733.776 1211.4 732.652 1209.54 731.886C1207.69 731.12 1205.7 730.727 1203.69 730.73V730.73Z" fill="#B2A8E0"/>
<path id="Vector_128" d="M1267.64 761.27C1264.62 761.268 1261.67 760.371 1259.16 758.692C1256.65 757.013 1254.69 754.627 1253.54 751.837C1252.39 749.046 1252.08 745.976 1252.67 743.015C1253.27 740.053 1254.72 737.334 1256.86 735.199C1258.99 733.064 1261.71 731.611 1264.67 731.023C1267.64 730.434 1270.71 730.737 1273.5 731.893C1276.29 733.049 1278.67 735.007 1280.35 737.518C1282.02 740.028 1282.92 742.98 1282.92 746C1282.91 750.05 1281.3 753.932 1278.44 756.795C1275.57 759.658 1271.69 761.267 1267.64 761.27V761.27ZM1267.64 720.19C1262.54 720.19 1257.55 721.704 1253.3 724.54C1249.06 727.376 1245.75 731.407 1243.79 736.123C1241.84 740.839 1241.33 746.029 1242.33 751.035C1243.32 756.042 1245.78 760.641 1249.39 764.25C1253 767.86 1257.6 770.318 1262.6 771.314C1267.61 772.31 1272.8 771.799 1277.52 769.845C1282.23 767.892 1286.26 764.584 1289.1 760.339C1291.94 756.095 1293.45 751.105 1293.45 746C1293.44 739.157 1290.72 732.597 1285.88 727.758C1281.04 722.92 1274.48 720.198 1267.64 720.19Z" fill="#1A1A1A"/>
<path id="Vector_129" d="M1267.64 758.13C1274.34 758.13 1279.77 752.699 1279.77 746C1279.77 739.301 1274.34 733.87 1267.64 733.87C1260.94 733.87 1255.51 739.301 1255.51 746C1255.51 752.699 1260.94 758.13 1267.64 758.13Z" fill="black"/>
<path id="Vector_130" d="M1267.64 771.81C1262.54 771.81 1257.55 770.296 1253.3 767.46C1249.06 764.624 1245.75 760.593 1243.79 755.877C1241.84 751.161 1241.33 745.971 1242.33 740.965C1243.32 735.958 1245.78 731.359 1249.39 727.749C1253 724.14 1257.6 721.682 1262.6 720.686C1267.61 719.69 1272.8 720.201 1277.52 722.155C1282.23 724.108 1286.26 727.416 1289.1 731.661C1291.94 735.905 1293.45 740.895 1293.45 746C1293.44 752.843 1290.72 759.403 1285.88 764.242C1281.04 769.08 1274.48 771.802 1267.64 771.81V771.81ZM1267.64 713.5C1261.21 713.5 1254.93 715.406 1249.58 718.977C1244.24 722.548 1240.07 727.624 1237.61 733.563C1235.15 739.501 1234.51 746.036 1235.76 752.34C1237.02 758.645 1240.11 764.436 1244.66 768.981C1249.2 773.526 1255 776.621 1261.3 777.875C1267.6 779.129 1274.14 778.486 1280.08 776.026C1286.02 773.566 1291.09 769.401 1294.66 764.056C1298.23 758.711 1300.14 752.428 1300.14 746C1300.13 737.384 1296.7 729.123 1290.61 723.031C1284.52 716.938 1276.26 713.51 1267.64 713.5Z" fill="black"/>
<path id="Vector_131" d="M1267.64 758.13C1265.24 758.13 1262.9 757.418 1260.9 756.086C1258.91 754.753 1257.35 752.858 1256.43 750.642C1255.52 748.425 1255.28 745.986 1255.74 743.633C1256.21 741.28 1257.37 739.119 1259.06 737.423C1260.76 735.726 1262.92 734.571 1265.27 734.103C1267.63 733.635 1270.07 733.875 1272.28 734.793C1274.5 735.711 1276.39 737.266 1277.73 739.261C1279.06 741.256 1279.77 743.601 1279.77 746C1279.77 749.216 1278.49 752.3 1276.21 754.574C1273.94 756.848 1270.86 758.127 1267.64 758.13V758.13ZM1267.64 730.73C1264.62 730.732 1261.67 731.629 1259.16 733.308C1256.65 734.987 1254.69 737.373 1253.54 740.163C1252.39 742.954 1252.08 746.024 1252.67 748.985C1253.27 751.946 1254.72 754.666 1256.86 756.801C1258.99 758.935 1261.71 760.389 1264.67 760.977C1267.64 761.566 1270.71 761.263 1273.5 760.107C1276.29 758.951 1278.67 756.993 1280.35 754.482C1282.02 751.972 1282.92 749.02 1282.92 746C1282.91 741.95 1281.3 738.067 1278.44 735.205C1275.57 732.342 1271.69 730.733 1267.64 730.73V730.73Z" fill="#B2A8E0"/>
<path id="Vector_132" d="M1331.6 761.27C1328.58 761.27 1325.63 760.374 1323.12 758.697C1320.61 757.019 1318.65 754.634 1317.49 751.844C1316.34 749.053 1316.03 745.983 1316.62 743.021C1317.21 740.059 1318.67 737.338 1320.8 735.203C1322.94 733.067 1325.66 731.613 1328.62 731.024C1331.58 730.434 1334.65 730.737 1337.44 731.892C1340.23 733.048 1342.62 735.005 1344.3 737.516C1345.97 740.028 1346.87 742.98 1346.87 746C1346.86 750.048 1345.25 753.929 1342.39 756.792C1339.53 759.654 1335.65 761.265 1331.6 761.27V761.27ZM1331.6 720.19C1326.49 720.188 1321.5 721.7 1317.26 724.535C1313.01 727.37 1309.7 731.4 1307.75 736.116C1305.79 740.832 1305.28 746.022 1306.27 751.029C1307.27 756.037 1309.73 760.636 1313.34 764.247C1316.95 767.858 1321.54 770.317 1326.55 771.313C1331.56 772.31 1336.75 771.8 1341.46 769.846C1346.18 767.893 1350.21 764.585 1353.05 760.34C1355.89 756.096 1357.4 751.105 1357.4 746C1357.39 739.158 1354.68 732.598 1349.84 727.759C1345 722.92 1338.44 720.198 1331.6 720.19V720.19Z" fill="#1A1A1A"/>
<path id="Vector_133" d="M1331.6 758.13C1338.3 758.13 1343.73 752.699 1343.73 746C1343.73 739.301 1338.3 733.87 1331.6 733.87C1324.9 733.87 1319.47 739.301 1319.47 746C1319.47 752.699 1324.9 758.13 1331.6 758.13Z" fill="black"/>
<path id="Vector_134" d="M1331.6 771.81C1326.49 771.812 1321.5 770.3 1317.26 767.465C1313.01 764.63 1309.7 760.6 1307.75 755.884C1305.79 751.168 1305.28 745.978 1306.27 740.971C1307.27 735.963 1309.73 731.364 1313.34 727.753C1316.95 724.142 1321.54 721.683 1326.55 720.687C1331.56 719.69 1336.75 720.2 1341.46 722.154C1346.18 724.107 1350.21 727.415 1353.05 731.66C1355.89 735.904 1357.4 740.895 1357.4 746C1357.39 752.842 1354.68 759.402 1349.84 764.241C1345 769.08 1338.44 771.802 1331.6 771.81V771.81ZM1331.6 713.5C1325.17 713.5 1318.89 715.406 1313.54 718.977C1308.2 722.548 1304.03 727.624 1301.57 733.563C1299.11 739.501 1298.47 746.036 1299.72 752.34C1300.98 758.645 1304.07 764.436 1308.62 768.981C1313.16 773.526 1318.96 776.621 1325.26 777.875C1331.56 779.129 1338.1 778.486 1344.04 776.026C1349.98 773.566 1355.05 769.401 1358.62 764.056C1362.19 758.711 1364.1 752.428 1364.1 746C1364.09 737.383 1360.67 729.121 1354.57 723.028C1348.48 716.934 1340.22 713.508 1331.6 713.5Z" fill="black"/>
<path id="Vector_135" d="M1331.6 758.13C1329.2 758.13 1326.86 757.418 1324.86 756.086C1322.87 754.753 1321.31 752.858 1320.39 750.642C1319.48 748.425 1319.24 745.986 1319.7 743.633C1320.17 741.28 1321.33 739.119 1323.02 737.423C1324.72 735.726 1326.88 734.571 1329.23 734.103C1331.59 733.635 1334.03 733.875 1336.24 734.793C1338.46 735.711 1340.35 737.266 1341.69 739.261C1343.02 741.256 1343.73 743.601 1343.73 746C1343.73 749.216 1342.45 752.3 1340.17 754.574C1337.9 756.848 1334.82 758.127 1331.6 758.13V758.13ZM1331.6 730.73C1328.58 730.73 1325.63 731.625 1323.12 733.303C1320.61 734.981 1318.65 737.366 1317.49 740.156C1316.34 742.947 1316.03 746.017 1316.62 748.979C1317.21 751.941 1318.67 754.662 1320.8 756.797C1322.94 758.933 1325.66 760.387 1328.62 760.976C1331.58 761.566 1334.65 761.263 1337.44 760.108C1340.23 758.952 1342.62 756.995 1344.3 754.483C1345.97 751.972 1346.87 749.02 1346.87 746C1346.86 741.952 1345.25 738.071 1342.39 735.208C1339.53 732.346 1335.65 730.735 1331.6 730.73V730.73Z" fill="#B2A8E0"/>
<path id="Vector_136" d="M1395.55 761.27C1392.53 761.27 1389.58 760.374 1387.07 758.697C1384.56 757.019 1382.6 754.634 1381.44 751.844C1380.29 749.053 1379.98 745.983 1380.57 743.021C1381.16 740.059 1382.62 737.338 1384.75 735.203C1386.89 733.067 1389.61 731.613 1392.57 731.023C1395.53 730.434 1398.6 730.737 1401.39 731.892C1404.18 733.048 1406.57 735.005 1408.25 737.516C1409.92 740.028 1410.82 742.98 1410.82 746C1410.81 750.047 1409.2 753.927 1406.34 756.789C1403.48 759.651 1399.6 761.262 1395.55 761.27V761.27ZM1395.55 720.19C1390.45 720.19 1385.46 721.704 1381.21 724.54C1376.97 727.376 1373.66 731.407 1371.7 736.123C1369.75 740.839 1369.24 746.029 1370.24 751.035C1371.23 756.042 1373.69 760.641 1377.3 764.25C1380.91 767.86 1385.51 770.318 1390.51 771.314C1395.52 772.31 1400.71 771.799 1405.43 769.845C1410.14 767.892 1414.17 764.584 1417.01 760.339C1419.85 756.095 1421.36 751.105 1421.36 746C1421.35 739.157 1418.63 732.597 1413.79 727.758C1408.95 722.92 1402.39 720.198 1395.55 720.19Z" fill="#1A1A1A"/>
<path id="Vector_137" d="M1395.55 758.13C1402.25 758.13 1407.68 752.699 1407.68 746C1407.68 739.301 1402.25 733.87 1395.55 733.87C1388.85 733.87 1383.42 739.301 1383.42 746C1383.42 752.699 1388.85 758.13 1395.55 758.13Z" fill="black"/>
<path id="Vector_138" d="M1395.55 771.81C1390.45 771.81 1385.46 770.296 1381.21 767.46C1376.97 764.624 1373.66 760.593 1371.7 755.877C1369.75 751.161 1369.24 745.971 1370.24 740.965C1371.23 735.958 1373.69 731.359 1377.3 727.749C1380.91 724.14 1385.51 721.682 1390.51 720.686C1395.52 719.69 1400.71 720.201 1405.43 722.155C1410.14 724.108 1414.17 727.416 1417.01 731.661C1419.85 735.905 1421.36 740.895 1421.36 746C1421.35 752.843 1418.63 759.403 1413.79 764.242C1408.95 769.08 1402.39 771.802 1395.55 771.81V771.81ZM1395.55 713.5C1389.12 713.5 1382.84 715.406 1377.49 718.977C1372.15 722.548 1367.98 727.624 1365.52 733.563C1363.06 739.501 1362.42 746.036 1363.67 752.34C1364.93 758.645 1368.02 764.436 1372.57 768.981C1377.11 773.526 1382.91 776.621 1389.21 777.875C1395.51 779.129 1402.05 778.486 1407.99 776.026C1413.93 773.566 1419 769.401 1422.57 764.056C1426.14 758.711 1428.05 752.428 1428.05 746C1428.04 737.384 1424.61 729.123 1418.52 723.031C1412.43 716.938 1404.17 713.51 1395.55 713.5V713.5Z" fill="black"/>
<path id="Vector_139" d="M1395.55 758.13C1393.15 758.13 1390.81 757.418 1388.81 756.086C1386.82 754.753 1385.26 752.858 1384.34 750.642C1383.43 748.425 1383.19 745.986 1383.65 743.633C1384.12 741.28 1385.28 739.119 1386.97 737.423C1388.67 735.726 1390.83 734.571 1393.18 734.103C1395.54 733.635 1397.98 733.875 1400.19 734.793C1402.41 735.711 1404.3 737.266 1405.64 739.261C1406.97 741.256 1407.68 743.601 1407.68 746C1407.68 749.216 1406.4 752.3 1404.12 754.574C1401.85 756.848 1398.77 758.127 1395.55 758.13V758.13ZM1395.55 730.73C1392.53 730.73 1389.58 731.625 1387.07 733.303C1384.56 734.981 1382.6 737.366 1381.44 740.156C1380.29 742.947 1379.98 746.017 1380.57 748.979C1381.16 751.941 1382.62 754.662 1384.75 756.797C1386.89 758.933 1389.61 760.387 1392.57 760.976C1395.53 761.566 1398.6 761.263 1401.39 760.108C1404.18 758.952 1406.57 756.995 1408.25 754.483C1409.92 751.972 1410.82 749.02 1410.82 746C1410.81 741.952 1409.2 738.073 1406.34 735.211C1403.48 732.349 1399.6 730.738 1395.55 730.73V730.73Z" fill="#B2A8E0"/>
<path id="Vector_140" d="M1459.5 761.27C1456.48 761.268 1453.53 760.371 1451.02 758.692C1448.51 757.013 1446.55 754.627 1445.4 751.837C1444.25 749.046 1443.94 745.976 1444.53 743.015C1445.12 740.053 1446.58 737.334 1448.72 735.199C1450.85 733.064 1453.57 731.611 1456.53 731.023C1459.5 730.434 1462.57 730.737 1465.36 731.893C1468.15 733.049 1470.53 735.007 1472.21 737.518C1473.88 740.028 1474.78 742.98 1474.78 746C1474.77 750.049 1473.16 753.93 1470.3 756.792C1467.43 759.655 1463.55 761.265 1459.5 761.27V761.27ZM1459.5 720.19C1454.4 720.19 1449.41 721.704 1445.16 724.54C1440.92 727.376 1437.61 731.407 1435.65 736.123C1433.7 740.839 1433.19 746.029 1434.19 751.035C1435.18 756.042 1437.64 760.641 1441.25 764.25C1444.86 767.86 1449.46 770.318 1454.46 771.314C1459.47 772.31 1464.66 771.799 1469.38 769.845C1474.09 767.892 1478.12 764.584 1480.96 760.339C1483.8 756.095 1485.31 751.105 1485.31 746C1485.3 739.157 1482.58 732.597 1477.74 727.758C1472.9 722.92 1466.34 720.198 1459.5 720.19Z" fill="#1A1A1A"/>
<path id="Vector_141" d="M1459.5 771.81C1454.4 771.81 1449.41 770.296 1445.16 767.46C1440.92 764.624 1437.61 760.593 1435.65 755.877C1433.7 751.161 1433.19 745.971 1434.19 740.965C1435.18 735.958 1437.64 731.359 1441.25 727.749C1444.86 724.14 1449.46 721.682 1454.46 720.686C1459.47 719.69 1464.66 720.201 1469.38 722.155C1474.09 724.108 1478.12 727.416 1480.96 731.661C1483.8 735.905 1485.31 740.895 1485.31 746C1485.3 752.843 1482.58 759.403 1477.74 764.242C1472.9 769.08 1466.34 771.802 1459.5 771.81V771.81ZM1459.5 713.5C1453.07 713.5 1446.79 715.406 1441.44 718.977C1436.1 722.548 1431.93 727.624 1429.47 733.563C1427.01 739.501 1426.37 746.036 1427.62 752.34C1428.88 758.645 1431.97 764.436 1436.52 768.981C1441.06 773.526 1446.86 776.621 1453.16 777.875C1459.46 779.129 1466 778.486 1471.94 776.026C1477.88 773.566 1482.95 769.401 1486.52 764.056C1490.09 758.711 1492 752.428 1492 746C1491.99 737.384 1488.56 729.123 1482.47 723.031C1476.38 716.938 1468.12 713.51 1459.5 713.5Z" fill="black"/>
<path id="Vector_142" d="M19.01 691H1478L1477.49 712H18.5L19.01 691Z" fill="#B2A8E0" stroke="black" stroke-width="7" stroke-miterlimit="10"/>
<path id="Vector_143" d="M883.93 761.27C880.91 761.27 877.958 760.374 875.447 758.697C872.935 757.019 870.978 754.634 869.822 751.844C868.667 749.053 868.364 745.983 868.954 743.021C869.543 740.059 870.997 737.338 873.133 735.203C875.268 733.067 877.989 731.613 880.951 731.023C883.913 730.434 886.983 730.737 889.774 731.892C892.564 733.048 894.949 735.005 896.627 737.516C898.305 740.028 899.2 742.98 899.2 746C899.192 750.047 897.581 753.927 894.719 756.789C891.857 759.651 887.978 761.262 883.93 761.27V761.27ZM883.93 720.19C878.825 720.19 873.835 721.704 869.591 724.54C865.346 727.376 862.038 731.407 860.085 736.123C858.131 740.839 857.62 746.029 858.616 751.035C859.612 756.042 862.07 760.641 865.68 764.25C869.289 767.86 873.888 770.318 878.895 771.314C883.901 772.31 889.091 771.799 893.807 769.845C898.523 767.892 902.554 764.584 905.39 760.339C908.226 756.095 909.74 751.105 909.74 746C909.732 739.157 907.01 732.597 902.172 727.758C897.333 722.92 890.773 720.198 883.93 720.19V720.19Z" fill="#1A1A1A"/>
<path id="Vector_144" d="M883.93 758.13C890.629 758.13 896.06 752.699 896.06 746C896.06 739.301 890.629 733.87 883.93 733.87C877.231 733.87 871.8 739.301 871.8 746C871.8 752.699 877.231 758.13 883.93 758.13Z" fill="black"/>
<path id="Vector_145" d="M883.93 771.81C878.825 771.81 873.835 770.296 869.591 767.46C865.346 764.624 862.038 760.593 860.085 755.877C858.131 751.161 857.62 745.971 858.616 740.965C859.612 735.958 862.07 731.359 865.68 727.749C869.289 724.14 873.888 721.682 878.895 720.686C883.901 719.69 889.091 720.201 893.807 722.155C898.523 724.108 902.554 727.416 905.39 731.661C908.226 735.905 909.74 740.895 909.74 746C909.732 752.843 907.01 759.403 902.172 764.242C897.333 769.08 890.773 771.802 883.93 771.81V771.81ZM883.93 713.5C877.502 713.5 871.219 715.406 865.874 718.977C860.529 722.548 856.364 727.624 853.904 733.563C851.444 739.501 850.8 746.036 852.054 752.34C853.309 758.645 856.404 764.436 860.949 768.981C865.494 773.526 871.285 776.621 877.59 777.875C883.894 779.129 890.429 778.486 896.367 776.026C902.306 773.566 907.382 769.401 910.953 764.056C914.524 758.711 916.43 752.428 916.43 746C916.419 737.384 912.992 729.123 906.899 723.031C900.807 716.938 892.546 713.51 883.93 713.5V713.5Z" fill="black"/>
<path id="Vector_146" d="M883.93 758.13C881.531 758.13 879.186 757.418 877.191 756.086C875.196 754.753 873.641 752.858 872.723 750.642C871.805 748.425 871.565 745.986 872.033 743.633C872.501 741.28 873.656 739.119 875.353 737.423C877.049 735.726 879.211 734.571 881.564 734.103C883.917 733.635 886.356 733.875 888.572 734.793C890.789 735.711 892.683 737.266 894.016 739.261C895.349 741.256 896.06 743.601 896.06 746C896.057 749.216 894.779 752.3 892.504 754.574C890.23 756.848 887.146 758.127 883.93 758.13V758.13ZM883.93 730.73C880.91 730.73 877.958 731.625 875.447 733.303C872.935 734.981 870.978 737.366 869.822 740.156C868.667 742.947 868.364 746.017 868.954 748.979C869.543 751.941 870.997 754.662 873.133 756.797C875.268 758.933 877.989 760.387 880.951 760.976C883.913 761.566 886.983 761.263 889.774 760.108C892.564 758.952 894.949 756.995 896.627 754.483C898.304 751.972 899.2 749.02 899.2 746C899.192 741.952 897.581 738.073 894.719 735.211C891.857 732.349 887.977 730.738 883.93 730.73V730.73Z" fill="#B2A8E0"/>
<path id="Vector_147" d="M947.88 761.27C944.86 761.268 941.909 760.371 939.399 758.692C936.889 757.013 934.934 754.627 933.78 751.837C932.625 749.046 932.324 745.976 932.915 743.015C933.505 740.053 934.96 737.334 937.096 735.199C939.232 733.064 941.953 731.611 944.915 731.023C947.877 730.434 950.946 730.737 953.736 731.893C956.526 733.049 958.91 735.007 960.587 737.518C962.265 740.028 963.16 742.98 963.16 746C963.155 750.05 961.543 753.932 958.678 756.795C955.813 759.658 951.93 761.267 947.88 761.27V761.27ZM947.88 720.19C942.775 720.19 937.785 721.704 933.541 724.54C929.296 727.376 925.988 731.407 924.035 736.123C922.081 740.839 921.57 746.029 922.566 751.035C923.562 756.042 926.02 760.641 929.63 764.25C933.239 767.86 937.838 770.318 942.845 771.314C947.851 772.31 953.041 771.799 957.757 769.845C962.473 767.892 966.504 764.584 969.34 760.339C972.176 756.095 973.69 751.105 973.69 746C973.682 739.157 970.96 732.597 966.122 727.758C961.283 722.92 954.723 720.198 947.88 720.19Z" fill="#1A1A1A"/>
<path id="Vector_148" d="M947.88 758.13C954.579 758.13 960.01 752.699 960.01 746C960.01 739.301 954.579 733.87 947.88 733.87C941.181 733.87 935.75 739.301 935.75 746C935.75 752.699 941.181 758.13 947.88 758.13Z" fill="black"/>
<path id="Vector_149" d="M947.88 771.81C942.775 771.81 937.785 770.296 933.541 767.46C929.296 764.624 925.988 760.593 924.035 755.877C922.081 751.161 921.57 745.971 922.566 740.965C923.562 735.958 926.02 731.359 929.63 727.749C933.239 724.14 937.838 721.682 942.845 720.686C947.851 719.69 953.041 720.201 957.757 722.155C962.473 724.108 966.504 727.416 969.34 731.661C972.176 735.905 973.69 740.895 973.69 746C973.682 752.843 970.96 759.403 966.122 764.242C961.283 769.08 954.723 771.802 947.88 771.81V771.81ZM947.88 713.5C941.452 713.5 935.169 715.406 929.824 718.977C924.479 722.548 920.314 727.624 917.854 733.563C915.394 739.501 914.751 746.036 916.005 752.34C917.259 758.645 920.354 764.436 924.899 768.981C929.444 773.526 935.235 776.621 941.54 777.875C947.844 779.129 954.379 778.486 960.317 776.026C966.256 773.566 971.332 769.401 974.903 764.056C978.474 758.711 980.38 752.428 980.38 746C980.37 737.384 976.942 729.123 970.849 723.031C964.757 716.938 956.496 713.51 947.88 713.5V713.5Z" fill="black"/>
<path id="Vector_150" d="M947.88 758.13C945.481 758.132 943.134 757.422 941.138 756.09C939.142 754.759 937.586 752.865 936.666 750.649C935.747 748.432 935.505 745.993 935.972 743.64C936.439 741.286 937.593 739.124 939.289 737.426C940.985 735.729 943.147 734.573 945.5 734.104C947.853 733.635 950.293 733.874 952.51 734.792C954.727 735.71 956.622 737.265 957.955 739.26C959.288 741.255 960 743.6 960 746C959.997 749.214 958.72 752.297 956.448 754.571C954.176 756.845 951.095 758.125 947.88 758.13V758.13ZM947.88 730.73C944.86 730.732 941.909 731.629 939.399 733.308C936.889 734.987 934.934 737.373 933.78 740.163C932.625 742.954 932.324 746.024 932.915 748.985C933.505 751.946 934.96 754.666 937.096 756.801C939.232 758.935 941.953 760.389 944.915 760.977C947.877 761.566 950.946 761.263 953.736 760.107C956.526 758.951 958.91 756.993 960.587 754.482C962.265 751.972 963.16 749.02 963.16 746C963.155 741.95 961.543 738.067 958.678 735.205C955.814 732.342 951.93 730.733 947.88 730.73V730.73Z" fill="#B2A8E0"/>
<path id="Vector_151" d="M1011.83 761.27C1008.81 761.268 1005.86 760.371 1003.35 758.692C1000.84 757.013 998.884 754.627 997.73 751.837C996.575 749.046 996.274 745.976 996.865 743.015C997.455 740.053 998.91 737.334 1001.05 735.199C1003.18 733.064 1005.9 731.611 1008.86 731.023C1011.83 730.434 1014.9 730.737 1017.69 731.893C1020.48 733.049 1022.86 735.007 1024.54 737.518C1026.21 740.028 1027.11 742.98 1027.11 746C1027.1 750.05 1025.49 753.932 1022.63 756.795C1019.76 759.658 1015.88 761.267 1011.83 761.27V761.27ZM1011.83 720.19C1006.73 720.19 1001.74 721.704 997.491 724.54C993.246 727.376 989.938 731.407 987.985 736.123C986.031 740.839 985.52 746.029 986.516 751.035C987.512 756.042 989.97 760.641 993.58 764.25C997.189 767.86 1001.79 770.318 1006.79 771.314C1011.8 772.31 1016.99 771.799 1021.71 769.845C1026.42 767.892 1030.45 764.584 1033.29 760.339C1036.13 756.095 1037.64 751.105 1037.64 746C1037.63 739.157 1034.91 732.597 1030.07 727.758C1025.23 722.92 1018.67 720.198 1011.83 720.19V720.19Z" fill="#1A1A1A"/>
<path id="Vector_152" d="M1011.83 758.13C1018.53 758.13 1023.96 752.699 1023.96 746C1023.96 739.301 1018.53 733.87 1011.83 733.87C1005.13 733.87 999.7 739.301 999.7 746C999.7 752.699 1005.13 758.13 1011.83 758.13Z" fill="black"/>
<path id="Vector_153" d="M1011.83 771.81C1006.73 771.81 1001.74 770.296 997.491 767.46C993.246 764.624 989.938 760.593 987.985 755.877C986.031 751.161 985.52 745.971 986.516 740.965C987.512 735.958 989.97 731.359 993.58 727.749C997.189 724.14 1001.79 721.682 1006.79 720.686C1011.8 719.69 1016.99 720.201 1021.71 722.155C1026.42 724.108 1030.45 727.416 1033.29 731.661C1036.13 735.905 1037.64 740.895 1037.64 746C1037.63 752.843 1034.91 759.403 1030.07 764.242C1025.23 769.08 1018.67 771.802 1011.83 771.81V771.81ZM1011.83 713.5C1005.4 713.5 999.119 715.406 993.774 718.977C988.429 722.548 984.264 727.624 981.804 733.563C979.344 739.501 978.7 746.036 979.955 752.34C981.209 758.645 984.304 764.436 988.849 768.981C993.394 773.526 999.185 776.621 1005.49 777.875C1011.79 779.129 1018.33 778.486 1024.27 776.026C1030.21 773.566 1035.28 769.401 1038.85 764.056C1042.42 758.711 1044.33 752.428 1044.33 746C1044.32 737.384 1040.89 729.123 1034.8 723.031C1028.71 716.938 1020.45 713.51 1011.83 713.5V713.5Z" fill="black"/>
<path id="Vector_154" d="M1011.83 758.13C1009.43 758.122 1007.09 757.404 1005.1 756.066C1003.11 754.729 1001.56 752.831 1000.65 750.614C999.74 748.397 999.505 745.959 999.978 743.609C1000.45 741.259 1001.61 739.101 1003.31 737.409C1005 735.716 1007.17 734.565 1009.52 734.1C1011.87 733.635 1014.31 733.878 1016.52 734.797C1018.74 735.716 1020.63 737.271 1021.96 739.265C1023.29 741.259 1024 743.602 1024 746C1024 747.596 1023.68 749.176 1023.07 750.65C1022.46 752.123 1021.56 753.462 1020.43 754.588C1019.3 755.715 1017.96 756.608 1016.48 757.215C1015.01 757.823 1013.43 758.134 1011.83 758.13V758.13ZM1011.83 730.73C1008.81 730.732 1005.86 731.629 1003.35 733.308C1000.84 734.987 998.884 737.373 997.73 740.163C996.575 742.954 996.274 746.024 996.865 748.985C997.455 751.946 998.91 754.666 1001.05 756.801C1003.18 758.935 1005.9 760.389 1008.86 760.977C1011.83 761.566 1014.9 761.263 1017.69 760.107C1020.48 758.951 1022.86 756.993 1024.54 754.482C1026.21 751.972 1027.11 749.02 1027.11 746C1027.1 741.95 1025.49 738.067 1022.63 735.205C1019.76 732.342 1015.88 730.733 1011.83 730.73V730.73Z" fill="#B2A8E0"/>
<path id="Vector_155" d="M1075.79 761.27C1072.77 761.27 1069.82 760.374 1067.31 758.697C1064.8 757.019 1062.84 754.634 1061.68 751.844C1060.53 749.053 1060.22 745.983 1060.81 743.021C1061.4 740.059 1062.86 737.338 1064.99 735.203C1067.13 733.067 1069.85 731.613 1072.81 731.024C1075.77 730.434 1078.84 730.737 1081.63 731.892C1084.42 733.048 1086.81 735.005 1088.49 737.516C1090.16 740.028 1091.06 742.98 1091.06 746C1091.05 750.048 1089.44 753.929 1086.58 756.792C1083.72 759.654 1079.84 761.265 1075.79 761.27V761.27ZM1075.79 720.19C1070.68 720.188 1065.69 721.7 1061.45 724.535C1057.2 727.37 1053.89 731.4 1051.94 736.116C1049.98 740.832 1049.47 746.022 1050.46 751.029C1051.46 756.037 1053.92 760.636 1057.53 764.247C1061.14 767.858 1065.73 770.317 1070.74 771.313C1075.75 772.31 1080.94 771.8 1085.65 769.846C1090.37 767.893 1094.4 764.585 1097.24 760.34C1100.08 756.096 1101.59 751.105 1101.59 746C1101.58 739.158 1098.87 732.598 1094.03 727.759C1089.19 722.92 1082.63 720.198 1075.79 720.19V720.19Z" fill="#1A1A1A"/>
<path id="Vector_156" d="M1075.79 758.13C1082.49 758.13 1087.92 752.699 1087.92 746C1087.92 739.301 1082.49 733.87 1075.79 733.87C1069.09 733.87 1063.66 739.301 1063.66 746C1063.66 752.699 1069.09 758.13 1075.79 758.13Z" fill="black"/>
<path id="Vector_157" d="M1075.79 771.81C1070.68 771.812 1065.69 770.3 1061.45 767.465C1057.2 764.63 1053.89 760.6 1051.94 755.884C1049.98 751.168 1049.47 745.978 1050.46 740.971C1051.46 735.963 1053.92 731.364 1057.53 727.753C1061.14 724.142 1065.73 721.683 1070.74 720.687C1075.75 719.69 1080.94 720.2 1085.65 722.154C1090.37 724.107 1094.4 727.415 1097.24 731.66C1100.08 735.904 1101.59 740.895 1101.59 746C1101.58 752.842 1098.87 759.402 1094.03 764.241C1089.19 769.08 1082.63 771.802 1075.79 771.81V771.81ZM1075.79 713.5C1069.36 713.5 1063.08 715.406 1057.73 718.977C1052.39 722.548 1048.22 727.624 1045.76 733.563C1043.3 739.501 1042.66 746.036 1043.91 752.34C1045.17 758.645 1048.26 764.436 1052.81 768.981C1057.35 773.526 1063.15 776.621 1069.45 777.875C1075.75 779.129 1082.29 778.486 1088.23 776.026C1094.17 773.566 1099.24 769.401 1102.81 764.056C1106.38 758.711 1108.29 752.428 1108.29 746C1108.28 737.384 1104.85 729.123 1098.76 723.031C1092.67 716.938 1084.41 713.51 1075.79 713.5V713.5Z" fill="black"/>
<path id="Vector_158" d="M1075.79 758.13C1073.39 758.13 1071.05 757.418 1069.05 756.086C1067.06 754.753 1065.5 752.858 1064.58 750.642C1063.67 748.425 1063.43 745.986 1063.89 743.633C1064.36 741.28 1065.52 739.119 1067.21 737.423C1068.91 735.726 1071.07 734.571 1073.42 734.103C1075.78 733.635 1078.22 733.875 1080.43 734.793C1082.65 735.711 1084.54 737.266 1085.88 739.261C1087.21 741.256 1087.92 743.601 1087.92 746C1087.92 749.216 1086.64 752.3 1084.36 754.574C1082.09 756.848 1079.01 758.127 1075.79 758.13V758.13ZM1075.79 730.73C1072.77 730.73 1069.82 731.625 1067.31 733.303C1064.8 734.981 1062.84 737.366 1061.68 740.156C1060.53 742.947 1060.22 746.017 1060.81 748.979C1061.4 751.941 1062.86 754.662 1064.99 756.797C1067.13 758.933 1069.85 760.387 1072.81 760.976C1075.77 761.566 1078.84 761.263 1081.63 760.108C1084.42 758.952 1086.81 756.995 1088.49 754.483C1090.16 751.972 1091.06 749.02 1091.06 746C1091.05 741.952 1089.44 738.071 1086.58 735.208C1083.72 732.346 1079.84 730.735 1075.79 730.73Z" fill="#B2A8E0"/>
<path id="Vector_159" d="M1139.74 761.27C1136.72 761.272 1133.77 760.378 1131.25 758.701C1128.74 757.025 1126.78 754.641 1125.63 751.851C1124.47 749.061 1124.16 745.99 1124.75 743.027C1125.34 740.064 1126.79 737.343 1128.93 735.206C1131.06 733.07 1133.78 731.614 1136.75 731.024C1139.71 730.434 1142.78 730.736 1145.57 731.891C1148.36 733.047 1150.75 735.004 1152.43 737.515C1154.1 740.027 1155 742.98 1155 746C1154.99 750.046 1153.38 753.924 1150.52 756.785C1147.66 759.647 1143.79 761.26 1139.74 761.27V761.27ZM1139.74 720.19C1134.64 720.19 1129.65 721.704 1125.4 724.54C1121.16 727.376 1117.85 731.407 1115.89 736.123C1113.94 740.839 1113.43 746.029 1114.43 751.035C1115.42 756.042 1117.88 760.641 1121.49 764.25C1125.1 767.86 1129.7 770.318 1134.7 771.314C1139.71 772.31 1144.9 771.799 1149.62 769.845C1154.33 767.892 1158.36 764.584 1161.2 760.339C1164.04 756.095 1165.55 751.105 1165.55 746C1165.54 739.157 1162.82 732.597 1157.98 727.758C1153.14 722.92 1146.58 720.198 1139.74 720.19V720.19Z" fill="#1A1A1A"/>
<path id="Vector_160" d="M1139.74 758.13C1146.44 758.13 1151.87 752.699 1151.87 746C1151.87 739.301 1146.44 733.87 1139.74 733.87C1133.04 733.87 1127.61 739.301 1127.61 746C1127.61 752.699 1133.04 758.13 1139.74 758.13Z" fill="black"/>
<path id="Vector_161" d="M1139.74 771.81C1134.64 771.81 1129.65 770.296 1125.4 767.46C1121.16 764.624 1117.85 760.593 1115.89 755.877C1113.94 751.161 1113.43 745.971 1114.43 740.965C1115.42 735.958 1117.88 731.359 1121.49 727.749C1125.1 724.14 1129.7 721.682 1134.7 720.686C1139.71 719.69 1144.9 720.201 1149.62 722.155C1154.33 724.108 1158.36 727.416 1161.2 731.661C1164.04 735.905 1165.55 740.895 1165.55 746C1165.54 752.843 1162.82 759.403 1157.98 764.242C1153.14 769.08 1146.58 771.802 1139.74 771.81V771.81ZM1139.74 713.5C1133.31 713.5 1127.03 715.406 1121.68 718.977C1116.34 722.548 1112.17 727.624 1109.71 733.563C1107.25 739.501 1106.61 746.036 1107.86 752.34C1109.12 758.645 1112.21 764.436 1116.76 768.981C1121.3 773.526 1127.1 776.621 1133.4 777.875C1139.7 779.129 1146.24 778.486 1152.18 776.026C1158.12 773.566 1163.19 769.401 1166.76 764.056C1170.33 758.711 1172.24 752.428 1172.24 746C1172.23 737.384 1168.8 729.123 1162.71 723.031C1156.62 716.938 1148.36 713.51 1139.74 713.5V713.5Z" fill="black"/>
</g>
</g>
</g>
</svg>
