<svg width="715" height="429" viewBox="0 0 715 429" fill="none" xmlns="http://www.w3.org/2000/svg">
<g id="machineDrillAbout">
<path id="Vector" d="M41.1509 262.15L276.841 105.96C278.302 104.991 279.942 104.324 281.665 104C283.388 103.677 285.159 103.702 286.872 104.075C288.585 104.448 290.206 105.161 291.638 106.172C293.071 107.183 294.285 108.471 295.211 109.96V109.96C296.852 112.612 297.494 115.763 297.021 118.845C296.548 121.928 294.991 124.742 292.631 126.78L50.6709 335.5C48.6676 337.233 46.1859 338.318 43.5532 338.612C40.9206 338.906 38.2607 338.395 35.9245 337.146C33.5883 335.897 31.6856 333.97 30.4674 331.617C29.2492 329.265 28.7727 326.599 29.1009 323.97L35.3809 271.5C35.611 269.617 36.2458 267.807 37.2418 266.193C38.2378 264.579 39.5714 263.2 41.1509 262.15V262.15Z" fill="#B2A8E0" stroke="black" stroke-width="7" stroke-miterlimit="10"/>
<path id="Vector_2" d="M310.601 120C319.438 120 326.601 112.837 326.601 104C326.601 95.1634 319.438 88 310.601 88C301.764 88 294.601 95.1634 294.601 104C294.601 112.837 301.764 120 310.601 120Z" fill="#B2A8E0" stroke="black" stroke-width="7" stroke-miterlimit="10"/>
<path id="Vector_3" d="M482.749 189.106L342.453 108.106C336.714 104.792 329.374 106.758 326.061 112.498C322.747 118.237 324.714 125.576 330.453 128.89L470.749 209.89C476.489 213.204 483.828 211.237 487.141 205.498C490.455 199.758 488.489 192.419 482.749 189.106Z" fill="#B2A8E0" stroke="black" stroke-width="7" stroke-miterlimit="10"/>
<path id="Vector_4" d="M541.691 230.77L519.571 202.31C518.585 201.044 517.311 200.032 515.855 199.358C514.4 198.684 512.804 198.367 511.201 198.433C509.598 198.5 508.034 198.948 506.639 199.74C505.244 200.533 504.059 201.647 503.181 202.99L490.331 222.71C489.454 224.055 488.912 225.59 488.749 227.187C488.586 228.785 488.807 230.398 489.394 231.892C489.982 233.386 490.918 234.718 492.124 235.777C493.331 236.836 494.773 237.592 496.331 237.98L531.331 246.72C533.361 247.219 535.496 247.073 537.44 246.304C539.383 245.534 541.039 244.179 542.178 242.426C543.317 240.673 543.882 238.609 543.794 236.52C543.707 234.432 542.972 232.422 541.691 230.77Z" fill="#B2A8E0" stroke="black" stroke-width="7" stroke-miterlimit="10"/>
<path id="Vector_5" d="M493.601 234L514.601 201" stroke="black" stroke-width="3" stroke-miterlimit="10"/>
<path id="Vector_6" d="M500.601 236.4L519.601 206.6" stroke="black" stroke-width="3" stroke-miterlimit="10"/>
<path id="Vector_7" d="M507.601 238.8L524.601 212.2" stroke="black" stroke-width="3" stroke-miterlimit="10"/>
<path id="Vector_8" d="M514.601 241.2L529.601 217.8" stroke="black" stroke-width="3" stroke-miterlimit="10"/>
<path id="Vector_9" d="M521.601 243.6L534.601 223.4" stroke="black" stroke-width="3" stroke-miterlimit="10"/>
<path id="Vector_10" d="M528.601 246L539.601 229" stroke="black" stroke-width="3" stroke-miterlimit="10"/>
<path id="Vector_11" d="M310.601 111.5C314.743 111.5 318.101 108.142 318.101 104C318.101 99.8579 314.743 96.5 310.601 96.5C306.459 96.5 303.101 99.8579 303.101 104C303.101 108.142 306.459 111.5 310.601 111.5Z" stroke="black" stroke-width="4" stroke-miterlimit="10"/>
<path id="Vector_12" d="M305.481 109.6L315.961 98.88" stroke="black" stroke-width="4" stroke-miterlimit="10"/>
</g>
</svg>
