<svg width="86" height="74" viewBox="0 0 86 74" fill="none" xmlns="http://www.w3.org/2000/svg">
<path d="M2.25952 39.0436C2.54952 46.5236 6.04952 55.9037 12.0095 60.3737C17.9695 64.8437 25.3295 69.5036 32.6095 70.9636C40.4595 72.5336 48.6095 73.1536 56.4295 71.4236C64.2495 69.6936 74.3395 63.7237 78.7395 56.9937C89.6095 40.3737 81.4995 21.9936 79.3395 18.7036" fill="#5E4531"/>
<path d="M0.909551 39.1636C1.43955 49.0536 5.74954 57.7236 13.8095 63.4036C18.1072 66.5801 22.817 69.1571 27.8095 71.0636C33.2458 72.855 38.926 73.7961 44.6495 73.8536C55.1372 74.3476 65.4459 71.0061 73.6495 64.4536C81.2995 58.2936 85.3595 49.0836 85.6495 39.2936C85.8895 32.2236 84.3296 24.0436 80.5096 17.9636C79.5096 16.4436 77.2195 17.9636 78.1795 19.5036C85.5895 31.2836 84.5096 49.8136 74.6896 59.7636C60.4496 74.1836 36.4396 74.1536 19.8596 64.0936C15.2496 61.2836 10.7396 58.2936 7.91956 53.5436C5.35872 49.1206 3.89453 44.1486 3.64954 39.0436C3.627 38.6749 3.45893 38.3303 3.18232 38.0856C2.9057 37.8408 2.54322 37.716 2.17457 37.7386C1.80591 37.7611 1.46129 37.9292 1.21656 38.2058C0.971823 38.4824 0.846999 38.8449 0.869542 39.2136L0.909551 39.1636Z" fill="black"/>
<path d="M2.90955 41.5037C4.39955 45.2637 19.8196 65.0537 61.7296 49.1837C80.7296 41.9637 84.6396 26.1837 79.7896 19.4037C73.0596 10.0337 43.8596 6.54373 34.0996 9.92373C5.72956 19.7437 0.399553 35.2337 2.90955 41.5037Z" fill="#AD8961"/>
<path d="M1.56949 41.9438C4.56949 49.2838 13.9895 53.6337 21.0695 55.3537C29.0695 57.3537 37.5995 56.8737 45.6695 55.3537C55.8395 53.3537 67.0095 50.1438 74.8195 42.9338C79.6995 38.4438 83.5395 31.7838 83.0195 24.9338C82.5695 18.9338 78.3195 15.2938 73.1695 12.9338C65.9095 9.56375 57.7095 8.12375 49.7895 7.55375C42.2907 6.82139 34.7278 7.97643 27.7895 10.9137C19.0895 14.5837 10.2095 19.7637 4.78949 27.7637C2.09949 31.7637 -0.210519 37.2337 1.61948 42.0237C2.24948 43.7137 4.8995 42.8337 4.2595 41.1437C2.9095 37.5337 4.5695 33.3938 6.4495 30.3138C10.2095 24.1538 16.4495 19.7437 22.6995 16.4237C29.5795 12.7537 36.4195 10.1937 44.2195 10.1437C51.5231 10.0988 58.7948 11.1092 65.8095 13.1437C70.7195 14.5837 77.7295 16.8937 79.6995 22.2337C81.7695 27.8237 78.8395 34.3037 75.2495 38.5337C68.8395 46.0737 58.8695 49.2838 49.6195 51.6238C41.7495 53.6238 33.4095 54.6237 25.3395 53.3937C19.7244 52.6464 14.382 50.5198 9.78949 47.2037C7.78949 45.6637 5.1295 43.2038 4.2595 41.1238C3.5295 39.4038 0.909494 40.2738 1.56949 41.9438Z" fill="black"/>
<path d="M7.90952 40.1337C11.3095 46.9637 19.6195 50.3837 26.7095 51.3237C33.7232 52.0763 40.8162 51.4685 47.5995 49.5337C55.3595 47.5337 63.5095 44.7736 69.0495 38.6436C72.3495 34.9936 74.8095 30.1237 74.8895 25.1137C74.9695 20.3137 71.3095 17.5837 67.2895 15.6137C56.1595 10.1837 41.2895 11.4436 29.9995 15.9036C22.9195 18.7236 15.4695 22.6337 10.6895 28.8137C8.43952 31.7137 6.08952 36.0837 7.75952 39.8137C8.48952 41.4437 11.1395 40.5837 10.3995 38.9337C9.15951 36.1537 11.0895 32.8536 12.7495 30.7136C16.3495 26.0536 21.6395 22.7837 26.8795 20.3037C37.3395 15.3637 49.6795 13.4137 61.0195 16.3037C64.7295 17.3037 71.6695 19.5737 72.0895 24.1637C72.4695 28.2837 70.3595 32.6437 67.8495 35.7437C63.2195 41.4737 56.3295 44.0536 49.4995 46.0836C42.9395 48.0836 35.9795 49.3036 29.1095 48.7636C22.2395 48.2236 13.6295 45.3837 10.2495 38.5937C9.38952 36.9837 7.06952 38.5337 7.90952 40.1337Z" fill="black"/>
<path d="M8.67951 36.5538C8.65957 36.3476 8.65957 36.14 8.67951 35.9338C8.82951 33.2938 10.2295 14.9338 19.2995 9.42382C23.8595 6.65382 25.6395 4.1538 26.2395 2.2838C26.3478 1.95114 26.5266 1.64578 26.7638 1.3886C27.001 1.13142 27.2909 0.928485 27.6137 0.793661C27.9365 0.658837 28.2846 0.595307 28.6343 0.607412C28.9839 0.619518 29.3268 0.706992 29.6395 0.863821C32.6548 2.38116 35.8917 3.41061 39.2295 3.91381C46.4095 4.91381 67.2295 5.29383 72.5395 21.1838C72.5675 21.2726 72.5909 21.3626 72.6095 21.4538C73.0195 23.3038 76.4395 42.1238 48.7995 47.7538C19.9995 53.6038 10.3895 45.7738 8.67951 36.5538Z" fill="#DECD9E"/>
<path d="M22.4096 49.5037C19.5569 48.9621 16.8386 47.8645 14.4096 46.2737C12.7611 45.1864 11.3545 43.771 10.2774 42.1158C9.20038 40.4607 8.47602 38.6013 8.14957 36.6537C8.10245 36.4066 8.08567 36.1548 8.09958 35.9037C8.30958 32.3837 9.80957 14.5337 18.9896 8.90368C23.6196 6.09368 25.1896 3.63373 25.6896 2.07373C25.8205 1.66832 26.0362 1.29542 26.3225 0.979886C26.6087 0.664348 26.9588 0.413389 27.3496 0.24371C27.7496 0.0718408 28.1821 -0.0109311 28.6173 0.00115675C29.0524 0.0132446 29.4798 0.119879 29.8696 0.313687C32.8276 1.8057 36.0038 2.81835 39.2796 3.31372C40.0096 3.41372 40.8896 3.5037 41.8696 3.6037C50.4196 4.5037 68.2096 6.36368 73.0496 20.9637L73.1396 21.2937C74.1243 26.3939 73.1034 31.6774 70.2896 36.0437C66.3796 42.1037 59.1796 46.2437 48.8796 48.3437C37.9596 50.5237 29.0996 50.9237 22.4096 49.5037ZM9.22959 36.4437C9.53289 38.2449 10.2034 39.9645 11.1995 41.4955C12.1955 43.0266 13.4958 44.3365 15.0196 45.3437C21.5496 49.7937 32.8696 50.4137 48.6596 47.2037C58.6596 45.2037 65.6096 41.2037 69.3596 35.3937C71.9895 31.3001 72.9487 26.3536 72.0396 21.5737L71.9796 21.3537C67.3696 7.4437 50.0596 5.63367 41.7496 4.76367C40.7496 4.65367 39.8696 4.56368 39.1296 4.46368C35.7325 3.95426 32.438 2.90789 29.3696 1.36371C29.1206 1.24754 28.8493 1.18734 28.5746 1.18734C28.2999 1.18734 28.0285 1.24754 27.7796 1.36371C27.5396 1.46895 27.3257 1.62559 27.1529 1.82257C26.9801 2.01955 26.8527 2.25209 26.7796 2.50372C25.9596 5.03372 23.5496 7.50372 19.5996 9.94372C10.7096 15.3637 9.36957 33.9437 9.23957 36.0137C9.21934 36.1561 9.21601 36.3005 9.22959 36.4437V36.4437Z" fill="black"/>
<path d="M22.4096 49.5037C19.5569 48.9621 16.8386 47.8645 14.4096 46.2737C12.7611 45.1864 11.3545 43.771 10.2774 42.1158C9.20038 40.4607 8.47602 38.6013 8.14957 36.6537C8.10245 36.4066 8.08567 36.1548 8.09958 35.9037C8.30958 32.3837 9.80957 14.5337 18.9896 8.90368C23.6196 6.09368 25.1896 3.63373 25.6896 2.07373C25.8205 1.66832 26.0362 1.29542 26.3225 0.979886C26.6087 0.664348 26.9588 0.413389 27.3496 0.24371C27.7496 0.0718408 28.1821 -0.0109311 28.6173 0.00115675C29.0524 0.0132446 29.4798 0.119879 29.8696 0.313687C32.8276 1.8057 36.0038 2.81835 39.2796 3.31372C40.0096 3.41372 40.8896 3.5037 41.8696 3.6037C50.4196 4.5037 68.2096 6.36368 73.0496 20.9637L73.1396 21.2937C74.1243 26.3939 73.1034 31.6774 70.2896 36.0437C66.3796 42.1037 59.1796 46.2437 48.8796 48.3437C37.9596 50.5237 29.0996 50.9237 22.4096 49.5037ZM9.22959 36.4437C9.53289 38.2449 10.2034 39.9645 11.1995 41.4955C12.1955 43.0266 13.4958 44.3365 15.0196 45.3437C21.5496 49.7937 32.8696 50.4137 48.6596 47.2037C58.6596 45.2037 65.6096 41.2037 69.3596 35.3937C71.9895 31.3001 72.9487 26.3536 72.0396 21.5737L71.9796 21.3537C67.3696 7.4437 50.0596 5.63367 41.7496 4.76367C40.7496 4.65367 39.8696 4.56368 39.1296 4.46368C35.7325 3.95426 32.438 2.90789 29.3696 1.36371C29.1206 1.24754 28.8493 1.18734 28.5746 1.18734C28.2999 1.18734 28.0285 1.24754 27.7796 1.36371C27.5396 1.46895 27.3257 1.62559 27.1529 1.82257C26.9801 2.01955 26.8527 2.25209 26.7796 2.50372C25.9596 5.03372 23.5496 7.50372 19.5996 9.94372C10.7096 15.3637 9.36957 33.9437 9.23957 36.0137C9.21934 36.1561 9.21601 36.3005 9.22959 36.4437V36.4437Z" fill="black"/>
<path d="M8.47961 39.2538C8.9314 40.0014 9.4574 40.7016 10.0496 41.3438C10.6208 41.995 11.2391 42.6033 11.8996 43.1638C13.2037 44.2765 14.6334 45.233 16.1596 46.0137C17.6614 46.8071 19.2394 47.447 20.8696 47.9238C22.5043 48.4161 24.1766 48.774 25.8696 48.9938C29.2442 49.4221 32.6572 49.4556 36.0396 49.0938C39.4438 48.7537 42.8148 48.1384 46.1196 47.2538C49.4564 46.4027 52.7446 45.3711 55.9696 44.1638C59.1488 43.0125 62.1359 41.3874 64.8296 39.3438C67.5437 37.2891 69.8385 34.7329 71.5896 31.8138C72.477 30.3478 73.1663 28.7708 73.6396 27.1238C73.8773 26.2958 74.0215 25.4438 74.0696 24.5837C74.1771 23.7171 73.9979 22.8391 73.5596 22.0837C74.1291 22.7923 74.4552 23.6654 74.4896 24.5738C74.5562 25.478 74.5227 26.3869 74.3896 27.2838C74.1023 29.0738 73.5636 30.8143 72.7896 32.4537C71.2189 35.7442 68.9736 38.6675 66.1996 41.0338C63.4352 43.3979 60.2998 45.29 56.9196 46.6338C53.6191 47.9473 50.2431 49.0626 46.8096 49.9738C43.3463 50.861 39.8134 51.4498 36.2496 51.7338C35.3596 51.8038 34.4596 51.8138 33.5696 51.8438C32.6796 51.8737 31.7696 51.8438 30.8696 51.8438C29.0723 51.7705 27.2835 51.5565 25.5196 51.2037C21.9602 50.5252 18.565 49.1671 15.5196 47.2037C14.012 46.2208 12.6345 45.0515 11.4196 43.7238C10.1797 42.422 9.18382 40.9079 8.47961 39.2538Z" fill="black"/>
<path d="M20.6095 15.3936C19.4442 16.1282 18.5051 17.171 17.8961 18.4066C17.2872 19.6421 17.0322 21.0221 17.1595 22.3936C17.191 22.6008 17.2989 22.7887 17.4618 22.9204C17.6247 23.0521 17.8309 23.1182 18.0401 23.1057C18.2492 23.0932 18.4461 23.0029 18.5922 22.8527C18.7382 22.7025 18.8229 22.5031 18.8295 22.2937C18.7116 21.2135 18.9016 20.122 19.3775 19.1453C19.8535 18.1685 20.5961 17.3464 21.5195 16.7737C21.6952 16.6482 21.8159 16.4598 21.8565 16.2477C21.897 16.0356 21.8543 15.8159 21.7372 15.6345C21.6201 15.453 21.4375 15.3237 21.2276 15.2732C21.0176 15.2228 20.7962 15.2552 20.6095 15.3637V15.3936Z" fill="#AD8961"/>
<path d="M17.2896 28.8237C17.6874 28.8237 18.0689 28.6656 18.3502 28.3843C18.6315 28.103 18.7896 27.7216 18.7896 27.3237C18.7896 26.9259 18.6315 26.5444 18.3502 26.2631C18.0689 25.9818 17.6874 25.8237 17.2896 25.8237C16.8917 25.8237 16.5102 25.9818 16.2289 26.2631C15.9476 26.5444 15.7896 26.9259 15.7896 27.3237C15.7896 27.7216 15.9476 28.103 16.2289 28.3843C16.5102 28.6656 16.8917 28.8237 17.2896 28.8237V28.8237Z" fill="#AD8961"/>
</svg>
