<svg width="76" height="37" viewBox="0 0 76 37" fill="none" xmlns="http://www.w3.org/2000/svg">
<path d="M73.0614 6.37663C80.7314 18.3766 58.8214 33.8367 45.9514 35.4867C34.2214 36.9867 15.6613 33.1767 5.40135 20.2267C-4.85865 7.27667 8.52135 0.75667 13.0314 3.22667C17.7614 5.76667 27.7814 8.74663 35.1114 8.12663C42.4414 7.50663 65.2214 -5.86337 73.0614 6.37663Z" fill="#DECD9E"/>
<path d="M10.6013 10.3567C12.7113 11.1167 14.8513 11.7667 17.0013 12.3567C19.1513 12.9467 21.3113 13.4767 23.4913 13.9267C27.8323 14.8427 32.2337 15.4443 36.6613 15.7267C37.749 15.7532 38.8373 15.7197 39.9213 15.6266C41.0113 15.5266 42.1013 15.3767 43.1913 15.1967C44.2813 15.0167 45.3614 14.8067 46.4514 14.5667C47.5414 14.3267 48.6013 14.0567 49.6813 13.7867C53.9913 12.6667 58.2514 11.3167 62.4914 9.8667C60.4914 10.8667 58.4913 11.7967 56.3613 12.6467C55.3613 13.0567 54.2614 13.4667 53.2014 13.8467C52.1414 14.2267 51.0713 14.5667 50.0013 14.9067C47.8431 15.5762 45.6498 16.1271 43.4313 16.5567C41.1834 17.0044 38.8928 17.2022 36.6013 17.1467C36.0213 17.1467 35.4613 17.0567 34.9013 17.0067L33.2213 16.8467C32.1013 16.6967 30.9713 16.5767 29.8713 16.3667C27.6413 16.0267 25.4313 15.5267 23.2513 14.9767L21.6213 14.5367L20.0013 14.0567C18.9313 13.7167 17.8613 13.3767 16.8013 12.9867C14.6799 12.2451 12.6089 11.3666 10.6013 10.3567V10.3567Z" fill="#C2AA78"/>
<path d="M2.3114 14.8768C11.4314 31.2468 29.1414 34.5569 43.5514 35.5869C53.4014 36.2869 81.5514 19.7168 72.9414 7.50684C72.2714 18.6468 39.6814 42.4968 2.3114 14.8768Z" fill="#A69169"/>
<path d="M19.0114 32.1768C13.3325 29.6702 8.33397 25.8441 4.43138 21.0168C-2.11862 12.7468 0.911392 7.32681 2.51139 5.38681C5.29139 2.01681 10.6014 0.386804 13.6214 2.0668C18.0514 4.4468 27.9414 7.41681 35.0114 6.82681C36.7914 6.67681 39.7614 5.6368 43.2014 4.4368C53.0014 1.0268 67.8213 -4.13319 74.1213 5.69681C75.1758 7.35628 75.7745 9.26434 75.857 11.2288C75.9395 13.1932 75.5031 15.1448 74.5914 16.8868C70.2914 26.2068 55.3514 34.8868 45.3714 36.1968C36.383 37.2586 27.2747 35.8696 19.0114 32.1768V32.1768ZM12.3214 4.17685C10.6214 3.40685 6.69137 4.17681 4.42137 6.94681C1.82137 10.0968 2.51137 14.5168 6.42137 19.3868C10.0776 23.9148 14.765 27.5015 20.0913 29.8468C27.929 33.3468 36.5669 34.6632 45.0913 33.6568C54.2413 32.4868 68.4514 24.2468 72.3614 15.7768C73.8314 12.5868 73.7314 9.63681 72.0514 7.00681C66.8214 -1.16319 53.6514 3.42682 44.0514 6.76682C40.4614 8.02682 37.3514 9.10683 35.2614 9.27683C27.3714 9.94683 17.0014 6.66683 12.4914 4.27683L12.3214 4.17685Z" fill="black"/>
</svg>
