<svg width="84" height="82" viewBox="0 0 84 82" fill="none" xmlns="http://www.w3.org/2000/svg">
<path d="M10.4551 15.8838C10.4551 15.8838 -10.2049 43.9838 13.1451 70.9838C28.6651 88.9338 69.1451 80.6737 79.9451 55.2137" fill="#81593E"/>
<path d="M37.4551 81.8236C26.9451 81.8236 17.8251 78.2736 12.1951 71.7736C-11.5249 44.3436 9.1951 15.4336 9.4551 15.1436L11.4551 16.6236C7.99407 21.7822 5.54398 27.551 4.23507 33.6236C1.37507 46.9736 4.6851 59.2536 14.0751 70.1036C20.4851 77.5136 31.9851 80.7236 44.8351 78.7036C60.2851 76.2836 73.6151 66.8436 78.8351 54.7036L81.1351 55.7036C75.5451 68.8536 61.8151 78.6336 45.2751 81.2336C42.688 81.6355 40.0732 81.8328 37.4551 81.8236V81.8236Z" fill="black"/>
<path d="M27.955 2.32376C20.955 4.02376 -7.19497 19.0137 13.145 58.8337C24.785 81.6237 74.985 75.5638 81.525 51.0638C85.175 37.4438 73.765 -6.16624 27.955 2.32376Z" fill="#A67E5E"/>
<path d="M42.7551 74.3137C28.5251 74.3137 16.7552 68.7537 12.0252 59.3937C3.94516 43.5637 2.45512 29.8637 7.60512 18.6637C13.0151 6.92369 23.9151 2.0137 27.6651 1.1037H27.7351C50.1551 -3.0563 63.4251 5.3337 70.6051 13.1037C81.9251 25.3437 84.9251 43.2137 82.7351 51.4037C79.5551 63.2837 66.2351 72.1537 48.7851 74.0037C46.7817 74.2093 44.7691 74.3128 42.7551 74.3137V74.3137ZM28.2251 3.5437C24.9951 4.3337 14.8251 8.96368 9.87514 19.7137C5.06514 30.1737 6.53514 43.1437 14.2551 58.2637C19.2551 67.9837 32.6652 73.1937 48.5252 71.5037C61.9752 70.0837 77.0151 63.1137 80.3251 50.7437C82.3251 43.1137 79.4852 26.3737 68.7652 14.7437C59.0852 4.31371 45.0651 0.433698 28.2251 3.5437V3.5437Z" fill="black"/>
<path d="M21.875 18.5737C26.235 14.2037 28.175 13.2337 44.185 11.2937C60.565 9.2937 65.035 22.9337 68.915 30.2137C72.795 37.4937 76.675 55.9237 64.065 62.2137C51.455 68.5037 28.1749 69.9737 20.9049 52.5137C13.6349 35.0537 15.955 24.4837 21.875 18.5737Z" fill="#1C0F04"/>
<path d="M45.1051 67.4037C41.1108 67.4366 37.1424 66.7594 33.3851 65.4037C30.407 64.3676 27.6843 62.7076 25.3993 60.5347C23.1143 58.3618 21.3196 55.726 20.1351 52.8037C11.9351 33.1337 16.2351 22.9937 21.2851 17.9437C25.8751 13.3537 27.9751 12.3837 44.0851 10.4337C59.1751 8.60369 64.6551 19.7237 68.2951 27.0837C68.7651 28.0837 69.2151 28.9537 69.6551 29.7837C72.2551 34.6537 75.1351 44.9636 72.4551 53.3937C71.8512 55.4481 70.8287 57.3554 69.4519 58.9955C68.0752 60.6356 66.3739 61.973 64.4551 62.9237C58.4205 65.8431 51.8087 67.3739 45.1051 67.4037V67.4037ZM47.2751 11.9837C46.2722 11.9849 45.2702 12.0484 44.2751 12.1737C28.0651 14.1737 26.4951 15.1737 22.4551 19.1737C15.7251 25.8937 15.4551 37.3237 21.6651 52.1737C22.7626 54.8842 24.427 57.3286 26.5467 59.3431C28.6664 61.3575 31.1923 62.8955 33.9551 63.8537C43.8251 67.5237 56.0051 65.2936 63.6851 61.4536C65.4067 60.5996 66.9327 59.398 68.1667 57.9247C69.4008 56.4514 70.3161 54.7384 70.8551 52.8937C73.3651 45.0136 70.5451 35.0237 68.1751 30.5737C67.7251 29.7337 67.2651 28.8137 66.7851 27.8337C63.4451 21.0637 58.9351 11.9837 47.2751 11.9837Z" fill="black"/>
<path d="M48.035 6.12361C41.629 5.17059 35.0855 5.88346 29.035 8.19359C23.0714 10.3133 18.1073 14.5718 15.105 20.1436C13.7461 22.9105 12.9249 25.9103 12.685 28.9836C12.4138 32.084 12.4674 35.2043 12.845 38.2936C13.485 44.5636 15.325 50.7536 17.185 57.0536L16.8851 57.1936C15.0863 54.4098 13.5593 51.4596 12.3251 48.3836C11.6917 46.8407 11.1409 45.2651 10.675 43.6636C10.395 42.8736 10.265 42.0436 10.055 41.2236L9.76506 39.9936C9.67506 39.5836 9.62503 39.1636 9.54503 38.7536C8.2686 31.9443 9.41856 24.903 12.795 18.8536C14.5302 15.8914 16.8305 13.299 19.565 11.2236C22.2644 9.19474 25.2868 7.63618 28.505 6.6136C34.8519 4.61922 41.6123 4.33292 48.105 5.78359L48.035 6.12361Z" fill="black"/>
<path d="M30.355 15.6637C33.695 16.0337 35.935 19.5437 37.355 26.8137C38.775 34.0837 33.715 37.9736 39.055 42.3336C43.575 46.0436 46.055 43.4636 46.645 42.5936C46.6955 42.5238 46.7226 42.4398 46.7226 42.3537C46.7226 42.2675 46.6955 42.1835 46.645 42.1137C46.015 41.2137 43.875 37.8437 46.815 37.0037C50.205 36.0037 49.725 41.3636 52.145 40.3936C54.565 39.4236 52.635 31.1836 44.385 25.3936C36.555 19.8636 41.385 14.3337 41.915 13.7937L42.015 13.7236C42.825 13.2736 52.095 8.49366 61.365 20.5437C71.065 33.1537 76.675 37.5436 73.245 49.1536C72.565 51.4636 71.245 55.1536 69.365 55.9536C65.725 57.5336 63.035 54.7336 56.825 48.9536C56.7694 48.902 56.7007 48.8665 56.6265 48.8508C56.5522 48.8351 56.4751 48.8397 56.4033 48.8643C56.3315 48.889 56.2676 48.9326 56.2186 48.9906C56.1696 49.0486 56.1373 49.1188 56.125 49.1937C56.015 49.8037 55.465 50.4137 53.605 50.1937C50.205 49.7137 47.785 51.1937 49.235 52.6237C50.685 54.0537 57.485 57.4737 57.485 60.3837C57.4455 61.5595 57.0549 62.6965 56.3634 63.6482C55.6718 64.6 54.7111 65.3228 53.605 65.7236C49.455 67.0936 40.365 66.8036 36.135 65.7236C29.445 63.9936 22.075 57.9636 19.135 43.8936C16.195 29.8236 21.085 14.6237 30.355 15.6637Z" fill="#844419"/>
<path d="M45.4451 67.7937C42.2239 67.8298 39.0093 67.4942 35.865 66.7937C30.675 65.4637 21.435 60.7237 17.985 44.0137C15.855 33.7337 17.7151 22.8737 22.4951 17.6237C23.4612 16.4704 24.6963 15.5724 26.0915 15.0091C27.4866 14.4458 28.9989 14.2345 30.4951 14.3937V14.3937C35.7151 14.9737 37.625 21.6037 38.615 26.5437C39.0746 29.2035 38.962 31.9308 38.285 34.5437C37.675 37.5437 37.2851 39.2737 39.8851 41.3837C41.3551 42.5937 42.7151 43.1537 43.8151 43.0137C44.3723 42.9369 44.8906 42.6847 45.295 42.2937C44.555 41.0937 43.725 39.2937 44.295 37.7537C44.4735 37.2688 44.7714 36.8368 45.1612 36.4977C45.551 36.1586 46.0202 35.9233 46.5251 35.8137C49.3051 35.0137 50.5251 37.1837 51.1251 38.3437C51.2874 38.6688 51.4817 38.9771 51.7051 39.2637V39.2637C51.8794 38.9216 51.9424 38.5334 51.8851 38.1537C51.7851 35.6837 49.5251 30.5237 43.6851 26.4037C40.6851 24.2937 39.0351 21.8937 38.7751 19.2837C38.6988 18.1279 38.8589 16.9687 39.2458 15.8769C39.6326 14.7851 40.2381 13.7836 41.0251 12.9337C41.1398 12.8083 41.275 12.7035 41.425 12.6237C42.535 12.0037 52.515 6.96369 62.425 19.7737C63.805 21.5737 65.105 23.2037 66.305 24.7037C73.6051 33.8637 77.6351 38.9137 74.5151 49.5037C73.2251 53.8737 71.7651 56.2837 69.9351 57.0837C65.7351 58.9137 62.6451 56.0137 57.0251 50.7537L56.845 50.5837C56.305 51.1537 55.3251 51.5837 53.4951 51.3537C52.3977 51.126 51.2563 51.252 50.235 51.7137C50.8946 52.2437 51.5823 52.7378 52.295 53.1937C55.195 55.1437 58.795 57.5637 58.795 60.3037C58.7613 61.7421 58.2908 63.1361 57.4459 64.3007C56.6011 65.4652 55.4219 66.3452 54.0651 66.8237C51.2539 67.563 48.3502 67.8897 45.4451 67.7937V67.7937ZM29.4451 16.8637C28.4642 16.883 27.499 17.1135 26.6154 17.5398C25.7318 17.9661 24.9506 18.578 24.3251 19.3337C20.1051 23.9637 18.465 34.1437 20.405 43.5437C23.585 58.9137 31.835 63.2137 36.475 64.4137C40.605 65.4737 49.475 65.6837 53.225 64.4137C54.0749 64.0893 54.8117 63.5238 55.3446 62.7866C55.8775 62.0493 56.1835 61.1725 56.225 60.2637C56.225 58.8537 52.7051 56.4937 50.8251 55.2637C49.9478 54.7217 49.1181 54.1062 48.345 53.4237C47.9672 53.0962 47.7069 52.654 47.604 52.1646C47.5011 51.6753 47.5612 51.1657 47.7751 50.7137C48.5251 49.2137 50.9351 48.4837 53.7751 48.8837C54.1503 48.9691 54.5398 48.9691 54.915 48.8837C54.9789 48.5991 55.1157 48.336 55.3121 48.1204C55.5085 47.9047 55.7576 47.7439 56.035 47.6537C56.3144 47.5556 56.615 47.5345 56.9053 47.5926C57.1956 47.6507 57.4649 47.7857 57.6851 47.9837L58.6851 48.9137C64.3951 54.2637 66.3251 55.9137 68.8851 54.7737C69.3751 54.5637 70.6651 53.5537 72.0651 48.7737C74.8151 39.4337 71.525 35.3037 64.305 26.2437C63.095 24.7237 61.7851 23.0837 60.3951 21.2437C52.1051 10.4737 44.1151 13.9837 42.7651 14.6837C41.7158 15.8627 41.1733 17.4076 41.2551 18.9837C41.4451 20.8437 42.7451 22.6337 45.1251 24.3137C51.6851 28.9437 54.775 35.3137 54.345 38.9437C54.3355 39.4933 54.1684 40.0286 53.8635 40.486C53.5586 40.9433 53.1287 41.3035 52.6251 41.5237C50.4751 42.3837 49.4451 40.5237 48.8951 39.5237C48.1551 38.1637 47.895 37.9837 47.175 38.1937C46.845 38.2837 46.655 38.4137 46.605 38.5637C46.425 39.0637 46.8851 40.2437 47.6851 41.3837C47.8848 41.6659 47.9921 42.003 47.9921 42.3487C47.9921 42.6944 47.8848 43.0316 47.6851 43.3137C47.2662 43.8935 46.7353 44.3833 46.1238 44.7543C45.5124 45.1253 44.8327 45.3699 44.1251 45.4737C42.3051 45.7137 40.345 44.9737 38.285 43.2937C34.545 40.2337 35.1951 37.0737 35.8251 34.0237C36.4438 31.7423 36.5564 29.3532 36.155 27.0237C34.855 20.4837 32.9051 17.1637 30.2151 16.8637C29.9653 16.8494 29.7149 16.8494 29.4651 16.8637H29.4451Z" fill="black"/>
<path d="M29.155 44.6138C29.865 49.3038 33.415 53.3937 37.485 55.5437C38.915 56.2937 40.175 54.1338 38.755 53.3838C36.9103 52.4705 35.3016 51.1433 34.0544 49.5058C32.8072 47.8684 31.9553 45.9648 31.565 43.9438C31.325 42.3638 28.915 43.0338 29.155 44.6138V44.6138Z" fill="black"/>
<path d="M58.6851 31.4137C58.0451 31.1637 58.8251 31.5237 58.8251 31.5237C59.1452 31.8131 59.4185 32.1504 59.6351 32.5237C60.6951 34.3437 60.2351 36.7337 59.7551 38.6537C59.7009 38.9603 59.763 39.276 59.9294 39.5392C60.0958 39.8023 60.3544 39.994 60.6546 40.0765C60.9547 40.1591 61.2749 40.1266 61.5524 39.9855C61.83 39.8444 62.0448 39.6049 62.155 39.3137C62.995 35.9637 63.325 30.6237 59.345 29.0537C57.855 28.4637 57.2051 30.8737 58.6851 31.4537V31.4137Z" fill="black"/>
</svg>
