<svg width="64" height="42" viewBox="0 0 64 42" fill="none" xmlns="http://www.w3.org/2000/svg">
<path d="M1.45728 28.6339C1.45728 28.6339 14.5473 48.6339 36.9973 38.2239C59.4473 27.8139 60.7473 12.7339 63.3973 6.52393" fill="#8A5835"/>
<path d="M24.3271 41.664C19.4677 41.6472 14.7081 40.2833 10.5771 37.724C6.84935 35.4484 3.62112 32.4412 1.08716 28.884L1.82715 28.394C4.30357 31.8475 7.44505 34.7714 11.0671 36.994C18.9971 41.804 27.6571 42.084 36.8071 37.824C55.5771 29.084 59.4371 17.064 61.7471 9.89398C62.1871 8.52398 62.5671 7.33399 62.9971 6.34399L63.8071 6.69397C63.3971 7.69397 63.0272 8.814 62.5872 10.164C60.2372 17.474 56.2971 29.724 37.1871 38.624C33.1766 40.5717 28.7853 41.6098 24.3271 41.664Z" fill="black"/>
<path d="M63.2073 6.56394C63.2073 6.56394 21.6973 -17.1761 1.45728 28.6339C1.45728 28.6339 33.7073 53.3839 63.2073 6.56394Z" fill="#D47338"/>
<path d="M22.3172 35.614C14.7729 35.5539 7.41718 33.2494 1.18719 28.994L0.917236 28.7741L1.05719 28.4641C7.23719 14.4641 16.0572 5.52409 27.1772 1.85409C45.1772 -4.06591 63.2472 6.07404 63.4272 6.18404L63.8272 6.41409L63.5772 6.80404C53.2172 23.234 41.3972 32.7541 28.3972 35.0741C26.39 35.4298 24.3557 35.6104 22.3172 35.614V35.614ZM2.0072 28.494C3.8472 29.774 14.4972 36.6641 28.2672 34.1941C40.8772 31.9341 52.4172 22.694 62.5772 6.73403C59.8172 5.28403 43.5772 -2.61597 27.4372 2.73403C16.6272 6.25403 8.0772 14.934 2.0072 28.494Z" fill="black"/>
<path d="M56.3373 8.82397C56.3373 8.82397 21.4973 15.564 5.47729 27.444Z" fill="#D47338"/>
<path d="M56.3373 8.82397C54.1273 9.36397 51.9273 9.90397 49.7373 10.504C47.5473 11.104 45.3473 11.674 43.1673 12.284C38.8073 13.524 34.4573 14.824 30.1673 16.284C28.0206 16.9973 25.8873 17.754 23.7673 18.554C21.6473 19.334 19.5473 20.204 17.4673 21.094C15.3873 21.984 13.3373 22.944 11.3373 24.004C9.31774 25.0376 7.36102 26.1896 5.47729 27.454C9.09682 24.6757 13.0264 22.3267 17.1873 20.454C21.3227 18.5487 25.5629 16.8794 29.8873 15.454C34.2073 14.014 38.574 12.7406 42.9873 11.634C47.3973 10.494 51.8473 9.53397 56.3373 8.82397Z" fill="black"/>
<path d="M55.9772 9.06396C53.6872 9.37396 51.4172 9.71397 49.1572 10.134C46.8972 10.554 44.6271 10.964 42.3871 11.424C40.1471 11.884 37.8972 12.424 35.6672 12.974C33.4372 13.524 31.2272 14.124 29.0372 14.804C26.8472 15.484 24.6571 16.164 22.5071 16.964C20.3571 17.764 18.2272 18.614 16.1472 19.564C11.9458 21.4126 7.98365 23.7631 4.34717 26.564C6.05402 25.0034 7.88318 23.5822 9.81714 22.314C11.7439 21.053 13.7478 19.9141 15.8171 18.904C19.9811 16.8899 24.3021 15.2177 28.7372 13.904C33.1633 12.5844 37.6605 11.516 42.2072 10.704C46.7601 9.8818 51.3584 9.33413 55.9772 9.06396V9.06396Z" fill="#DDB59F"/>
<path d="M53.0572 5.7039C50.8472 5.8239 48.6572 6.02389 46.4772 6.32389C44.2972 6.62389 42.1272 6.9739 39.9772 7.3939C35.6698 8.23119 31.4337 9.40137 27.3072 10.8939C25.2439 11.6294 23.221 12.4739 21.2472 13.4239C19.2657 14.3562 17.3392 15.4013 15.4772 16.5539C11.7342 18.854 8.3084 21.6343 5.28723 24.8239C6.00723 23.9939 6.67722 23.1039 7.46722 22.3339C7.85722 21.9339 8.2272 21.5239 8.6272 21.1439L9.83722 20.0039C11.4896 18.5233 13.2513 17.1695 15.1072 15.9539C18.8238 13.5222 22.8148 11.5384 26.9972 10.0439C29.0905 9.2972 31.2106 8.63053 33.3572 8.04386C35.4972 7.50386 37.6672 7.04387 39.8472 6.67387C44.2098 5.93198 48.633 5.60721 53.0572 5.7039Z" fill="black"/>
<path d="M52.5373 4.97401C50.3673 5.06401 48.2073 5.23398 46.0573 5.50398C43.9073 5.77398 41.7773 6.09398 39.6473 6.50398C35.4028 7.27898 31.2264 8.38913 27.1573 9.82399C25.1146 10.5433 23.1117 11.3711 21.1573 12.304C20.1573 12.754 19.2273 13.304 18.2673 13.764C17.7973 14.014 17.3372 14.304 16.8672 14.564L16.1673 14.964L15.4773 15.394C11.8042 17.6767 8.44285 20.4263 5.47729 23.574C6.18729 22.744 6.84725 21.874 7.61725 21.114C7.99725 20.724 8.36726 20.324 8.75726 19.944L9.94727 18.824C11.5695 17.3606 13.3012 16.0234 15.1273 14.824C16.9437 13.6084 18.8415 12.5192 20.8073 11.564C22.7576 10.5988 24.7608 9.74408 26.8073 9.00398C28.8673 8.27398 30.9573 7.62401 33.0773 7.09401C35.1973 6.56401 37.3273 6.09401 39.4773 5.78401C43.793 5.08207 48.1679 4.81073 52.5373 4.97401V4.97401Z" fill="#DDB59F"/>
<path d="M55.8073 11.894C55.8073 11.894 31.8073 33.0841 6.72729 28.1641Z" fill="#D47338"/>
<path d="M55.8072 11.894C52.4929 14.8751 48.8997 17.5307 45.0772 19.824C43.1772 20.994 41.2072 22.064 39.2072 23.054C37.2072 24.044 35.1472 24.9241 33.0572 25.7241C28.8716 27.3122 24.5048 28.3736 20.0572 28.884C17.8329 29.1306 15.5923 29.1975 13.3572 29.084L11.6872 28.954C11.1272 28.954 10.5772 28.814 10.0272 28.754C8.91722 28.634 7.82719 28.3641 6.74719 28.1541C8.93949 28.475 11.1516 28.6421 13.3672 28.6541C13.9272 28.6541 14.4772 28.6541 15.0272 28.6541C15.5772 28.6541 16.1272 28.654 16.6772 28.564L18.3372 28.434L19.9772 28.2241C22.1621 27.9258 24.3263 27.4915 26.4572 26.924C28.594 26.3678 30.7002 25.7003 32.7672 24.924C36.9111 23.3589 40.9238 21.4663 44.7672 19.264C46.6872 18.164 48.5772 17.0141 50.4272 15.7841C52.2772 14.5541 54.0572 13.264 55.8072 11.894Z" fill="black"/>
<path d="M56.0172 10.6541C52.4954 13.4486 48.7531 15.9534 44.8271 18.144C42.8271 19.254 40.8271 20.274 38.8271 21.234C36.8271 22.194 34.7072 23.064 32.5972 23.864C30.4872 24.664 28.3372 25.334 26.1672 25.934C23.9908 26.5225 21.7842 26.9933 19.5571 27.3441C17.329 27.6886 15.0811 27.889 12.8271 27.944C10.5765 27.9698 8.32711 27.8295 6.09717 27.524C8.33164 27.6641 10.5727 27.6641 12.8071 27.524C15.0307 27.3642 17.244 27.0838 19.4371 26.684C23.817 25.8464 28.1164 24.6319 32.2872 23.054C36.469 21.4799 40.5471 19.6429 44.4971 17.554C46.4971 16.554 48.4272 15.4241 50.3472 14.2841C52.2672 13.1441 54.1672 11.9241 56.0172 10.6541Z" fill="#DDB59F"/>
</svg>
