<svg width="176" height="36" viewBox="0 0 176 36" fill="none" xmlns="http://www.w3.org/2000/svg">
<path d="M5.15388 23.2772C14.8215 18.2875 25.4012 15.3116 36.2524 14.5295C47.1036 13.7474 58.0006 15.1754 68.2839 18.7272C79.0039 22.4972 88.1639 29.8272 99.1739 32.7272C109.784 35.5572 120.734 35.0172 131.574 34.1272C144.154 33.1272 157.144 31.4372 169.454 35.2072C174.094 36.6272 176.884 29.5872 172.224 28.1572C149.484 21.1572 126.154 31.0172 103.344 26.0072C91.7339 23.4672 82.1939 15.5471 71.0539 11.6371C60.6222 8.0043 49.6018 6.35924 38.5639 6.78717C25.8402 7.2733 13.3805 10.5615 2.0739 16.4172C-2.2361 18.6372 0.843894 25.5572 5.19389 23.3172L5.15388 23.2772Z" fill="#BD9362"/>
<path d="M5.86391 16.4972C15.5335 11.5078 26.1147 8.53207 36.9675 7.75C47.8203 6.96793 58.7189 8.3958 69.0039 11.9472C79.7139 15.7172 88.8739 23.0572 99.8839 25.9472C110.494 28.7772 121.444 28.2472 132.284 27.3472C144.874 26.3472 157.864 24.6572 170.164 28.4272C174.804 29.8472 177.594 22.8072 172.934 21.4272C150.204 14.4272 126.874 24.2872 104.064 19.2872C92.4439 16.7372 82.9039 8.81717 71.7639 4.90717C61.3348 1.27826 50.3179 -0.363393 39.2839 0.0672008C26.5523 0.511676 14.0771 3.76963 2.7539 9.60718C-1.5661 11.8372 1.52391 18.7472 5.86391 16.5072V16.4972Z" fill="#050007"/>
</svg>
