<svg width="205" height="25" viewBox="0 0 205 25" fill="none" xmlns="http://www.w3.org/2000/svg">
<path d="M9.55489 23.8521C27.3691 16.9775 47.6143 14.5963 66.4447 12.8328C104.185 9.27593 142.803 10.2922 180.493 14.1878C187.418 14.8952 194.382 15.6524 201.247 16.8779C205.013 17.5553 206.627 11.7966 202.841 11.1191C182.068 7.41278 160.667 6.1973 139.624 5.42017C101.874 4.03529 63.3761 4.69287 26.3528 12.9623C20.1031 14.2128 13.9553 15.9279 7.96077 18.0933C4.41387 19.4583 5.96814 25.2469 9.55489 23.8521V23.8521Z" fill="#BC9262"/>
<path d="M3.57698 18.8706C20.7236 11.717 40.6401 9.30591 58.9225 7.61217C96.9222 4.08519 135.848 5.98812 173.798 9.49516C180.882 10.1428 188.743 10.9299 195.269 11.8963C199.035 12.4642 200.659 6.70547 196.863 6.13757C175.552 2.95931 153.862 1.68405 132.361 0.807286C95.0092 -0.70712 56.9797 -0.90638 20.3749 7.66197C14.1054 8.97228 7.9541 10.795 1.98286 13.1118C-1.51422 14.5664 -0.00977054 20.3551 3.57698 18.8706V18.8706Z" fill="#0B0B0B"/>
</svg>
