<svg viewBox="0 0 1440 1100" fill="none" xmlns="http://www.w3.org/2000/svg">
<g id="AboutPageMain">
<g clip-path="url(#clip0_461_844)">
<path id="Vector" d="M1447.46 -52H-22.4567C-28.2796 -52 -33 -46.0473 -33 -38.7042V1114.7C-33 1122.05 -28.2796 1128 -22.4567 1128H1447.46C1453.28 1128 1458 1122.05 1458 1114.7V-38.7042C1458 -46.0473 1453.28 -52 1447.46 -52Z" fill="url(#paint0_linear_461_844)"/>
<g id="staticBgAbout">
<path id="Vector_2" d="M1284 -396H1128C1121.37 -396 1116 -387.402 1116 -376.797V797.797C1116 808.402 1121.37 817 1128 817H1284C1290.63 817 1296 808.402 1296 797.797V-376.797C1296 -387.402 1290.63 -396 1284 -396Z" fill="url(#paint1_linear_461_844)" stroke="black" stroke-width="3"/>
<path id="Vector_3" d="M277.5 570H121.5C114.873 570 109.5 575.373 109.5 582V939C109.5 945.627 114.873 951 121.5 951H277.5C284.127 951 289.5 945.627 289.5 939V582C289.5 575.373 284.127 570 277.5 570Z" fill="#B2A8E0" stroke="black" stroke-width="4" stroke-miterlimit="10"/>
</g>
</g>
</g>
<defs>
<linearGradient id="paint0_linear_461_844" x1="839.863" y1="166.184" x2="386.819" y2="997.874" gradientUnits="userSpaceOnUse">
<stop stop-color="#EC8684"/>
<stop offset="0.08" stop-color="#DC8596"/>
<stop offset="0.27" stop-color="#BC83BC"/>
<stop offset="0.46" stop-color="#A381D9"/>
<stop offset="0.64" stop-color="#9180EE"/>
<stop offset="0.83" stop-color="#867FFB"/>
<stop offset="1" stop-color="#827FFF"/>
</linearGradient>
<linearGradient id="paint1_linear_461_844" x1="1126.5" y1="-972.638" x2="728.916" y2="-851.013" gradientUnits="userSpaceOnUse">
<stop stop-color="#EC8684"/>
<stop offset="0.08" stop-color="#DC8596"/>
<stop offset="0.27" stop-color="#BC83BC"/>
<stop offset="0.46" stop-color="#A381D9"/>
<stop offset="0.64" stop-color="#9180EE"/>
<stop offset="0.83" stop-color="#867FFB"/>
<stop offset="1" stop-color="#827FFF"/>
</linearGradient>
<clipPath id="clip0_461_844">
<rect width="1440" height="1100" rx="16" fill="white"/>
</clipPath>
</defs>
</svg>
