<svg viewBox="0 0 1440 1445" fill="none" xmlns="http://www.w3.org/2000/svg">
<g id="AboutPageMain">
<g clip-path="url(#clip0_437_547)">
<path id="Vector" d="M1433.63 -14H-12.6264C-18.3556 -14 -23 -6.45821 -23 2.84507V1464.15C-23 1473.46 -18.3556 1481 -12.6264 1481H1433.63C1439.36 1481 1444 1473.46 1444 1464.15V2.84507C1444 -6.45821 1439.36 -14 1433.63 -14Z" fill="url(#paint0_linear_437_547)"/>
<g id="staticBgAbout">
<path id="Vector_2" d="M1294 -47H1138C1131.37 -47 1126 -38.4025 1126 -27.7968V1146.8C1126 1157.4 1131.37 1166 1138 1166H1294C1300.63 1166 1306 1157.4 1306 1146.8V-27.7968C1306 -38.4025 1300.63 -47 1294 -47Z" fill="url(#paint1_linear_437_547)" stroke="black" stroke-width="3"/>
<path id="Vector_3" d="M287.5 919H131.5C124.873 919 119.5 924.373 119.5 931V1288C119.5 1294.63 124.873 1300 131.5 1300H287.5C294.127 1300 299.5 1294.63 299.5 1288V931C299.5 924.373 294.127 919 287.5 919Z" fill="#B2A8E0" stroke="black" stroke-width="4" stroke-miterlimit="10"/>
</g>
</g>
</g>
<defs>
<linearGradient id="paint0_linear_437_547" x1="835.813" y1="262.428" x2="193.444" y2="1178.22" gradientUnits="userSpaceOnUse">
<stop stop-color="#EC8684"/>
<stop offset="0.08" stop-color="#DC8596"/>
<stop offset="0.27" stop-color="#BC83BC"/>
<stop offset="0.46" stop-color="#A381D9"/>
<stop offset="0.64" stop-color="#9180EE"/>
<stop offset="0.83" stop-color="#867FFB"/>
<stop offset="1" stop-color="#827FFF"/>
</linearGradient>
<linearGradient id="paint1_linear_437_547" x1="1136.5" y1="-623.638" x2="738.916" y2="-502.013" gradientUnits="userSpaceOnUse">
<stop stop-color="#EC8684"/>
<stop offset="0.08" stop-color="#DC8596"/>
<stop offset="0.27" stop-color="#BC83BC"/>
<stop offset="0.46" stop-color="#A381D9"/>
<stop offset="0.64" stop-color="#9180EE"/>
<stop offset="0.83" stop-color="#867FFB"/>
<stop offset="1" stop-color="#827FFF"/>
</linearGradient>
<clipPath id="clip0_437_547">
<rect width="1440" height="1445" rx="16" fill="white"/>
</clipPath>
</defs>
</svg>
