<svg id="navbar" width="770" height="80" viewBox="0 0 770 80" fill="none" xmlns="http://www.w3.org/2000/svg">
<g id="btnAbout">
<path id="Vector" d="M302 19.5H205C198.373 19.5 193 24.8726 193 31.5V49.5C193 56.1274 198.373 61.5 205 61.5H302C308.627 61.5 314 56.1274 314 49.5V31.5C314 24.8726 308.627 19.5 302 19.5Z" fill="white" stroke="black" stroke-width="5" stroke-miterlimit="10"/>
<path id="About" d="M229.106 28.2036L232.754 52.71H226.23L225.912 48.3052H223.626L223.248 52.71H216.648L219.888 28.2036H229.106ZM225.73 43.9609C225.407 41.1859 225.085 37.7599 224.762 33.6831C224.116 38.3654 223.712 41.7913 223.551 43.9609H225.73ZM239.777 28.2036V34.001C240.282 33.4157 240.842 32.9818 241.457 32.6992C242.083 32.4066 242.759 32.2603 243.486 32.2603C244.323 32.2603 245.05 32.3914 245.665 32.6538C246.281 32.9162 246.75 33.2845 247.073 33.7588C247.396 34.2331 247.588 34.6973 247.648 35.1514C247.719 35.6055 247.754 36.5742 247.754 38.0576V47.1094C247.754 48.5827 247.653 49.6826 247.452 50.4092C247.26 51.1257 246.801 51.7513 246.074 52.2861C245.348 52.8109 244.485 53.0732 243.486 53.0732C242.769 53.0732 242.098 52.9168 241.473 52.604C240.857 52.2912 240.292 51.8219 239.777 51.1963L239.384 52.71H233.662V28.2036H239.777ZM241.639 38.3301C241.639 37.2907 241.574 36.6146 241.442 36.3018C241.311 35.9788 241.054 35.8174 240.67 35.8174C240.297 35.8174 240.055 35.9587 239.944 36.2412C239.833 36.5137 239.777 37.21 239.777 38.3301V46.9883C239.777 48.068 239.838 48.7593 239.959 49.062C240.09 49.3647 240.342 49.5161 240.716 49.5161C241.099 49.5161 241.346 49.3597 241.457 49.0469C241.579 48.734 241.639 47.9823 241.639 46.7915V38.3301ZM263.602 39.6772V44.5967C263.602 46.403 263.512 47.73 263.33 48.5776C263.148 49.4152 262.76 50.2023 262.164 50.939C261.569 51.6655 260.802 52.2054 259.864 52.5586C258.935 52.9017 257.866 53.0732 256.655 53.0732C255.303 53.0732 254.157 52.9269 253.219 52.6343C252.28 52.3315 251.549 51.8825 251.024 51.2871C250.509 50.6816 250.141 49.9551 249.919 49.1074C249.697 48.2497 249.586 46.9681 249.586 45.2627V40.1162C249.586 38.2493 249.788 36.7912 250.191 35.7417C250.595 34.6922 251.322 33.8496 252.371 33.2139C253.421 32.5781 254.763 32.2603 256.397 32.2603C257.77 32.2603 258.945 32.4671 259.924 32.8809C260.913 33.2845 261.675 33.8143 262.21 34.4702C262.745 35.1261 263.108 35.8022 263.3 36.4985C263.502 37.1948 263.602 38.2544 263.602 39.6772ZM257.487 38.1636C257.487 37.1343 257.432 36.4884 257.321 36.2261C257.21 35.9536 256.973 35.8174 256.609 35.8174C256.246 35.8174 256.004 35.9536 255.883 36.2261C255.762 36.4884 255.701 37.1343 255.701 38.1636V47.2305C255.701 48.179 255.762 48.7996 255.883 49.0923C256.004 49.3748 256.241 49.5161 256.594 49.5161C256.957 49.5161 257.195 49.3849 257.306 49.1226C257.427 48.8602 257.487 48.2951 257.487 47.4272V38.1636ZM279.632 32.6235V52.71H273.411L273.517 51.0449C273.093 51.721 272.568 52.2306 271.943 52.5737C271.327 52.9067 270.616 53.0732 269.809 53.0732C268.89 53.0732 268.128 52.9118 267.523 52.5889C266.917 52.266 266.468 51.8371 266.176 51.3022C265.893 50.7674 265.717 50.2124 265.646 49.6372C265.575 49.0519 265.54 47.8965 265.54 46.1709V32.6235H271.655V46.292C271.655 47.8561 271.701 48.7845 271.791 49.0771C271.892 49.3698 272.155 49.5161 272.579 49.5161C273.033 49.5161 273.3 49.3647 273.381 49.062C273.472 48.7593 273.517 47.7855 273.517 46.1406V32.6235H279.632ZM288.275 29.9443V33.1079H289.925V36.2866H288.275V47.0337C288.275 48.3556 288.341 49.0923 288.472 49.2437C288.613 49.395 289.184 49.4707 290.183 49.4707V52.71H287.715C286.323 52.71 285.329 52.6545 284.733 52.5435C284.138 52.4224 283.613 52.1549 283.159 51.7412C282.705 51.3174 282.422 50.8381 282.311 50.3032C282.2 49.7583 282.145 48.4868 282.145 46.4888V36.2866H280.828V33.1079H282.145V29.9443H288.275Z" fill="black"/>
</g>
<g id="btnRoadmap">
<path id="Vector_2" d="M467 19H343.5C336.873 19 331.5 24.3726 331.5 31V49C331.5 55.6274 336.873 61 343.5 61H467C473.627 61 479 55.6274 479 49V31C479 24.3726 473.627 19 467 19Z" fill="white" stroke="black" stroke-width="5" stroke-miterlimit="10"/>
<path id="Roadmap" d="M346.581 27.7036H351.092C354.099 27.7036 356.133 27.8197 357.192 28.0518C358.262 28.2839 359.13 28.8792 359.796 29.8379C360.472 30.7865 360.81 32.3052 360.81 34.394C360.81 36.3013 360.573 37.5828 360.099 38.2388C359.624 38.8947 358.691 39.2882 357.298 39.4194C358.56 39.7323 359.407 40.151 359.841 40.6758C360.275 41.2005 360.543 41.6849 360.643 42.1289C360.754 42.5628 360.81 43.7687 360.81 45.7466V52.21H354.892V44.0664C354.892 42.7546 354.786 41.9422 354.574 41.6294C354.372 41.3166 353.832 41.1602 352.954 41.1602V52.21H346.581V27.7036ZM352.954 31.8965V37.3457C353.671 37.3457 354.17 37.2498 354.453 37.0581C354.745 36.8563 354.892 36.2155 354.892 35.1357V33.7886C354.892 33.0116 354.75 32.502 354.468 32.2598C354.195 32.0176 353.691 31.8965 352.954 31.8965ZM376.946 39.1772V44.0967C376.946 45.903 376.855 47.23 376.673 48.0776C376.492 48.9152 376.103 49.7023 375.508 50.439C374.912 51.1655 374.145 51.7054 373.207 52.0586C372.279 52.4017 371.209 52.5732 369.998 52.5732C368.646 52.5732 367.5 52.4269 366.562 52.1343C365.623 51.8315 364.892 51.3825 364.367 50.7871C363.852 50.1816 363.484 49.4551 363.262 48.6074C363.04 47.7497 362.929 46.4681 362.929 44.7627V39.6162C362.929 37.7493 363.131 36.2912 363.535 35.2417C363.938 34.1922 364.665 33.3496 365.714 32.7139C366.764 32.0781 368.106 31.7603 369.741 31.7603C371.113 31.7603 372.289 31.9671 373.268 32.3809C374.256 32.7845 375.018 33.3143 375.553 33.9702C376.088 34.6261 376.451 35.3022 376.643 35.9985C376.845 36.6948 376.946 37.7544 376.946 39.1772ZM370.831 37.6636C370.831 36.6343 370.775 35.9884 370.664 35.7261C370.553 35.4536 370.316 35.3174 369.953 35.3174C369.589 35.3174 369.347 35.4536 369.226 35.7261C369.105 35.9884 369.044 36.6343 369.044 37.6636V46.7305C369.044 47.679 369.105 48.2996 369.226 48.5923C369.347 48.8748 369.584 49.0161 369.937 49.0161C370.301 49.0161 370.538 48.8849 370.649 48.6226C370.77 48.3602 370.831 47.7951 370.831 46.9272V37.6636ZM384.438 39.9038H378.702V38.5566C378.702 37.0026 378.878 35.8068 379.231 34.9692C379.595 34.1216 380.316 33.3748 381.396 32.729C382.476 32.0832 383.878 31.7603 385.604 31.7603C387.673 31.7603 389.232 32.1286 390.281 32.8652C391.331 33.5918 391.961 34.4899 392.173 35.5596C392.385 36.6191 392.491 38.8089 392.491 42.1289V52.21H386.542V50.4238C386.169 51.1403 385.685 51.6802 385.089 52.0435C384.504 52.3966 383.803 52.5732 382.985 52.5732C381.916 52.5732 380.932 52.2756 380.034 51.6802C379.146 51.0747 378.702 49.7578 378.702 47.7295V46.0796C378.702 44.576 378.939 43.5518 379.413 43.0068C379.887 42.4619 381.063 41.8262 382.94 41.0996C384.948 40.3125 386.023 39.7827 386.164 39.5103C386.305 39.2378 386.376 38.6828 386.376 37.8452C386.376 36.7957 386.295 36.1146 386.134 35.8018C385.982 35.4788 385.725 35.3174 385.362 35.3174C384.948 35.3174 384.691 35.4536 384.59 35.7261C384.489 35.9884 384.438 36.6797 384.438 37.7998V39.9038ZM386.376 42.6587C385.397 43.3752 384.827 43.9756 384.665 44.46C384.514 44.9443 384.438 45.6406 384.438 46.5488C384.438 47.5882 384.504 48.2593 384.635 48.562C384.776 48.8647 385.049 49.0161 385.453 49.0161C385.836 49.0161 386.083 48.9001 386.194 48.668C386.315 48.4258 386.376 47.8001 386.376 46.791V42.6587ZM408.506 27.7036V52.21H402.391V50.7568C401.805 51.3623 401.19 51.8164 400.544 52.1191C399.898 52.4219 399.222 52.5732 398.516 52.5732C397.567 52.5732 396.745 52.326 396.048 51.8315C395.352 51.327 394.903 50.7467 394.701 50.0908C394.509 49.4349 394.414 48.3652 394.414 46.8818V37.4819C394.414 35.938 394.509 34.8431 394.701 34.1973C394.903 33.5514 395.357 32.9863 396.063 32.502C396.77 32.0075 397.612 31.7603 398.591 31.7603C399.348 31.7603 400.039 31.8965 400.665 32.1689C401.301 32.4414 401.876 32.8501 402.391 33.395V27.7036H408.506ZM402.391 37.1792C402.391 36.4425 402.325 35.9481 402.194 35.6958C402.073 35.4435 401.825 35.3174 401.452 35.3174C401.089 35.3174 400.842 35.4334 400.71 35.6655C400.589 35.8875 400.529 36.3921 400.529 37.1792V47.0181C400.529 47.8354 400.589 48.3753 400.71 48.6377C400.831 48.89 401.064 49.0161 401.407 49.0161C401.8 49.0161 402.063 48.8748 402.194 48.5923C402.325 48.2996 402.391 47.5933 402.391 46.4731V37.1792ZM416.74 32.1235L416.634 34.0308C417.109 33.2739 417.674 32.7088 418.33 32.3354C418.985 31.952 419.732 31.7603 420.57 31.7603C422.205 31.7603 423.491 32.5171 424.43 34.0308C424.944 33.2739 425.525 32.7088 426.17 32.3354C426.816 31.952 427.533 31.7603 428.32 31.7603C429.359 31.7603 430.217 32.0125 430.893 32.5171C431.579 33.0216 432.018 33.6423 432.21 34.3789C432.402 35.1055 432.497 36.2912 432.497 37.936V52.21H426.564V39.1167C426.564 37.4012 426.503 36.3416 426.382 35.938C426.271 35.5243 426.004 35.3174 425.58 35.3174C425.146 35.3174 424.864 35.5192 424.732 35.9229C424.611 36.3265 424.551 37.3911 424.551 39.1167V52.21H418.617V39.4497C418.617 37.4819 418.567 36.3013 418.466 35.9077C418.375 35.5142 418.113 35.3174 417.679 35.3174C417.406 35.3174 417.174 35.4233 416.982 35.6353C416.791 35.8371 416.685 36.0894 416.664 36.3921C416.644 36.6847 416.634 37.3154 416.634 38.2842V52.21H410.701V32.1235H416.74ZM440.081 39.9038H434.344V38.5566C434.344 37.0026 434.521 35.8068 434.874 34.9692C435.237 34.1216 435.959 33.3748 437.039 32.729C438.118 32.0832 439.521 31.7603 441.247 31.7603C443.315 31.7603 444.874 32.1286 445.924 32.8652C446.973 33.5918 447.604 34.4899 447.816 35.5596C448.028 36.6191 448.134 38.8089 448.134 42.1289V52.21H442.185V50.4238C441.812 51.1403 441.327 51.6802 440.732 52.0435C440.147 52.3966 439.445 52.5732 438.628 52.5732C437.558 52.5732 436.574 52.2756 435.676 51.6802C434.788 51.0747 434.344 49.7578 434.344 47.7295V46.0796C434.344 44.576 434.581 43.5518 435.056 43.0068C435.53 42.4619 436.706 41.8262 438.582 41.0996C440.591 40.3125 441.665 39.7827 441.807 39.5103C441.948 39.2378 442.018 38.6828 442.018 37.8452C442.018 36.7957 441.938 36.1146 441.776 35.8018C441.625 35.4788 441.368 35.3174 441.004 35.3174C440.591 35.3174 440.333 35.4536 440.232 35.7261C440.131 35.9884 440.081 36.6797 440.081 37.7998V39.9038ZM442.018 42.6587C441.04 43.3752 440.47 43.9756 440.308 44.46C440.157 44.9443 440.081 45.6406 440.081 46.5488C440.081 47.5882 440.147 48.2593 440.278 48.562C440.419 48.8647 440.692 49.0161 441.095 49.0161C441.479 49.0161 441.726 48.9001 441.837 48.668C441.958 48.4258 442.018 47.8001 442.018 46.791V42.6587ZM456.459 32.1235L456.353 33.8945C456.898 33.1781 457.498 32.6432 458.154 32.29C458.81 31.9368 459.527 31.7603 460.304 31.7603C461.252 31.7603 462.07 32.0176 462.756 32.5322C463.452 33.0368 463.886 33.6221 464.058 34.2881C464.229 34.9541 464.315 36.0843 464.315 37.6787V46.1401C464.315 47.9666 464.204 49.2684 463.982 50.0454C463.77 50.8123 463.326 51.4279 462.65 51.8921C461.984 52.3462 461.177 52.5732 460.228 52.5732C459.471 52.5732 458.77 52.3966 458.124 52.0435C457.478 51.6903 456.888 51.1655 456.353 50.4692V55.0708H450.238V32.1235H456.459ZM458.2 37.9663C458.2 36.7251 458.154 35.9733 458.063 35.7109C457.973 35.4486 457.72 35.3174 457.307 35.3174C456.903 35.3174 456.641 35.4688 456.519 35.7715C456.408 36.0742 456.353 36.8058 456.353 37.9663V46.2915C456.353 47.5024 456.414 48.2593 456.535 48.562C456.656 48.8647 456.918 49.0161 457.322 49.0161C457.715 49.0161 457.957 48.8799 458.048 48.6074C458.149 48.3249 458.2 47.6488 458.2 46.5791V37.9663Z" fill="black"/>
</g>
<g id="btnTeam">
<path id="Vector_3" d="M605 18.5H508C501.373 18.5 496 23.8726 496 30.5V48.5C496 55.1274 501.373 60.5 508 60.5H605C611.627 60.5 617 55.1274 617 48.5V30.5C617 23.8726 611.627 18.5 605 18.5Z" fill="white" stroke="black" stroke-width="5" stroke-miterlimit="10"/>
<path id="Team" d="M536.427 27.2036V32.1079H532.643V51.71H526.271V32.1079H522.502V27.2036H536.427ZM551.549 42.0225H543.633V46.3667C543.633 47.2749 543.698 47.8602 543.829 48.1226C543.96 48.3849 544.213 48.5161 544.586 48.5161C545.05 48.5161 545.358 48.3446 545.509 48.0015C545.671 47.6483 545.752 46.9722 545.752 45.9731V43.3242H551.549V44.8076C551.549 46.0488 551.468 47.0024 551.307 47.6685C551.155 48.3345 550.792 49.0459 550.217 49.8027C549.642 50.5596 548.91 51.1297 548.022 51.5132C547.144 51.8866 546.039 52.0732 544.707 52.0732C543.416 52.0732 542.275 51.8866 541.286 51.5132C540.297 51.1398 539.525 50.6302 538.97 49.9844C538.425 49.3285 538.047 48.612 537.835 47.835C537.623 47.0479 537.517 45.9076 537.517 44.4141V38.5562C537.517 36.8003 537.754 35.4178 538.229 34.4087C538.703 33.3895 539.48 32.6125 540.56 32.0776C541.64 31.5327 542.881 31.2603 544.283 31.2603C545.999 31.2603 547.412 31.5882 548.522 32.2441C549.642 32.89 550.424 33.7528 550.868 34.8325C551.322 35.9022 551.549 37.4108 551.549 39.3584V42.0225ZM545.419 38.7529V37.2847C545.419 36.2453 545.363 35.5742 545.252 35.2715C545.141 34.9688 544.914 34.8174 544.571 34.8174C544.147 34.8174 543.885 34.9486 543.784 35.2109C543.683 35.4632 543.633 36.1545 543.633 37.2847V38.7529H545.419ZM559.027 39.4038H553.29V38.0566C553.29 36.5026 553.466 35.3068 553.82 34.4692C554.183 33.6216 554.904 32.8748 555.984 32.229C557.064 31.5832 558.466 31.2603 560.192 31.2603C562.261 31.2603 563.82 31.6286 564.869 32.3652C565.919 33.0918 566.549 33.9899 566.761 35.0596C566.973 36.1191 567.079 38.3089 567.079 41.6289V51.71H561.131V49.9238C560.757 50.6403 560.273 51.1802 559.677 51.5435C559.092 51.8966 558.391 52.0732 557.573 52.0732C556.504 52.0732 555.52 51.7756 554.622 51.1802C553.734 50.5747 553.29 49.2578 553.29 47.2295V45.5796C553.29 44.076 553.527 43.0518 554.001 42.5068C554.475 41.9619 555.651 41.3262 557.528 40.5996C559.536 39.8125 560.611 39.2827 560.752 39.0103C560.893 38.7378 560.964 38.1828 560.964 37.3452C560.964 36.2957 560.883 35.6146 560.722 35.3018C560.57 34.9788 560.313 34.8174 559.95 34.8174C559.536 34.8174 559.279 34.9536 559.178 35.2261C559.077 35.4884 559.027 36.1797 559.027 37.2998V39.4038ZM560.964 42.1587C559.985 42.8752 559.415 43.4756 559.254 43.96C559.102 44.4443 559.027 45.1406 559.027 46.0488C559.027 47.0882 559.092 47.7593 559.223 48.062C559.365 48.3647 559.637 48.5161 560.041 48.5161C560.424 48.5161 560.671 48.4001 560.782 48.168C560.904 47.9258 560.964 47.3001 560.964 46.291V42.1587ZM575.223 31.6235L575.117 33.5308C575.591 32.7739 576.156 32.2088 576.812 31.8354C577.468 31.452 578.215 31.2603 579.052 31.2603C580.687 31.2603 581.974 32.0171 582.912 33.5308C583.427 32.7739 584.007 32.2088 584.653 31.8354C585.299 31.452 586.015 31.2603 586.802 31.2603C587.842 31.2603 588.7 31.5125 589.376 32.0171C590.062 32.5216 590.501 33.1423 590.693 33.8789C590.884 34.6055 590.98 35.7912 590.98 37.436V51.71H585.047V38.6167C585.047 36.9012 584.986 35.8416 584.865 35.438C584.754 35.0243 584.487 34.8174 584.063 34.8174C583.629 34.8174 583.346 35.0192 583.215 35.4229C583.094 35.8265 583.033 36.8911 583.033 38.6167V51.71H577.1V38.9497C577.1 36.9819 577.049 35.8013 576.948 35.4077C576.858 35.0142 576.595 34.8174 576.161 34.8174C575.889 34.8174 575.657 34.9233 575.465 35.1353C575.273 35.3371 575.167 35.5894 575.147 35.8921C575.127 36.1847 575.117 36.8154 575.117 37.7842V51.71H569.183V31.6235H575.223Z" fill="black"/>
</g>
<g id="btnFAQs">
<path id="Vector_4" d="M743 18.5H646C639.373 18.5 634 23.8726 634 30.5V48.5C634 55.1274 639.373 60.5 646 60.5H743C749.627 60.5 755 55.1274 755 48.5V30.5C755 23.8726 749.627 18.5 743 18.5Z" fill="white" stroke="black" stroke-width="5" stroke-miterlimit="10"/>
<path id="FAQS" d="M665.561 27.2036H676.354V32.1079H671.934V36.7549H675.87V41.417H671.934V51.71H665.561V27.2036ZM688.917 27.2036L692.565 51.71H686.041L685.724 47.3052H683.438L683.06 51.71H676.46L679.699 27.2036H688.917ZM685.542 42.9609C685.219 40.1859 684.896 36.7599 684.573 32.6831C683.927 37.3654 683.524 40.7913 683.362 42.9609H685.542ZM708.232 51.71V54.6768H703.418C702.258 54.6768 701.441 54.5859 700.966 54.4043C700.492 54.2327 700.169 53.9704 699.997 53.6172C699.836 53.264 699.755 52.6283 699.755 51.71C698.312 51.6696 697.071 51.2912 696.032 50.5747C694.992 49.8582 694.306 48.95 693.973 47.8501C693.64 46.7401 693.474 45.0851 693.474 42.8853V35.3018C693.474 33.6367 693.569 32.3703 693.761 31.5024C693.963 30.6245 694.372 29.8021 694.987 29.0352C695.603 28.2581 696.395 27.6729 697.364 27.2793C698.332 26.8857 699.407 26.689 700.588 26.689C702.011 26.689 703.277 26.9312 704.387 27.4155C705.507 27.8999 706.34 28.5155 706.885 29.2622C707.44 30.009 707.798 30.786 707.959 31.5933C708.131 32.3905 708.217 33.5812 708.217 35.1655V43.1274C708.217 45.3071 708.111 46.7855 707.899 47.5625C707.687 48.3395 707.278 48.9601 706.673 49.4243C706.077 49.8784 705.28 50.2266 704.281 50.4688C704.311 51.0137 704.422 51.3568 704.614 51.498C704.816 51.6393 705.285 51.71 706.022 51.71H708.232ZM701.844 33.5005C701.844 32.3602 701.779 31.6336 701.647 31.3208C701.526 30.9979 701.269 30.8364 700.875 30.8364C700.542 30.8364 700.285 30.9676 700.103 31.23C699.932 31.4823 699.846 32.2391 699.846 33.5005V44.9438C699.846 46.3667 699.902 47.2446 700.013 47.5776C700.134 47.9106 700.406 48.0771 700.83 48.0771C701.264 48.0771 701.541 47.8854 701.663 47.502C701.784 47.1185 701.844 46.2052 701.844 44.7622V33.5005ZM724.11 34.6206H718.192V32.8042C718.192 31.9565 718.116 31.4167 717.965 31.1846C717.813 30.9525 717.561 30.8364 717.208 30.8364C716.824 30.8364 716.532 30.9928 716.33 31.3057C716.138 31.6185 716.042 32.0928 716.042 32.7285C716.042 33.5459 716.153 34.1615 716.375 34.5752C716.587 34.9889 717.188 35.4884 718.177 36.0737C721.012 37.759 722.798 39.1414 723.535 40.2212C724.272 41.3009 724.64 43.0417 724.64 45.4434C724.64 47.1891 724.433 48.4757 724.019 49.3032C723.616 50.1307 722.829 50.827 721.658 51.3921C720.488 51.9471 719.125 52.2246 717.571 52.2246C715.866 52.2246 714.408 51.9017 713.197 51.2559C711.996 50.61 711.209 49.7876 710.835 48.7886C710.462 47.7896 710.275 46.3717 710.275 44.5352V42.9307H716.194V45.9126C716.194 46.8309 716.275 47.4212 716.436 47.6836C716.608 47.946 716.905 48.0771 717.329 48.0771C717.753 48.0771 718.066 47.9106 718.268 47.5776C718.479 47.2446 718.585 46.7502 718.585 46.0942C718.585 44.6512 718.389 43.7077 717.995 43.2637C717.591 42.8197 716.597 42.078 715.013 41.0386C713.429 39.9891 712.379 39.2272 711.865 38.7529C711.35 38.2786 710.921 37.6227 710.578 36.7852C710.245 35.9476 710.079 34.8779 710.079 33.5762C710.079 31.6992 710.316 30.3268 710.79 29.459C711.274 28.5911 712.051 27.915 713.121 27.4307C714.191 26.9362 715.482 26.689 716.996 26.689C718.651 26.689 720.059 26.9564 721.219 27.4912C722.39 28.026 723.162 28.7021 723.535 29.5195C723.919 30.3268 724.11 31.7043 724.11 33.6519V34.6206Z" fill="black"/>
</g>
<g id="btnNuts">
<path id="Vector_5" d="M163.5 19H29C22.3726 19 17 24.3726 17 31V49C17 55.6274 22.3726 61 29 61H163.5C170.127 61 175.5 55.6274 175.5 49V31C175.5 24.3726 170.127 19 163.5 19Z" fill="white" stroke="black" stroke-width="5" stroke-miterlimit="10"/>
<path id="Nuts" d="M104.14 27.1537V51.66H98.5546L95.2396 40.5194V51.66H89.9115V27.1537H95.2396L98.8119 38.1884V27.1537H104.14ZM120.533 31.5736V51.66H114.312L114.418 49.995C113.994 50.6711 113.469 51.1807 112.844 51.5238C112.228 51.8568 111.517 52.0233 110.709 52.0233C109.791 52.0233 109.029 51.8619 108.424 51.5389C107.818 51.216 107.369 50.7872 107.077 50.2523C106.794 49.7175 106.617 49.1625 106.547 48.5873C106.476 48.002 106.441 46.8466 106.441 45.121V31.5736H112.556V45.2421C112.556 46.8062 112.601 47.7346 112.692 48.0272C112.793 48.3199 113.056 48.4662 113.479 48.4662C113.933 48.4662 114.201 48.3148 114.282 48.0121C114.372 47.7094 114.418 46.7356 114.418 45.0907V31.5736H120.533ZM129.176 28.8944V32.058H130.826V35.2367H129.176V45.9838C129.176 47.3057 129.242 48.0424 129.373 48.1937C129.514 48.3451 130.084 48.4208 131.083 48.4208V51.66H128.616C127.224 51.66 126.23 51.6045 125.634 51.4935C125.039 51.3724 124.514 51.105 124.06 50.6913C123.606 50.2675 123.323 49.7881 123.212 49.2533C123.101 48.7084 123.046 47.4369 123.046 45.4388V35.2367H121.729V32.058H123.046V28.8944H129.176ZM144.661 37.9916H139.242V36.9017C139.242 35.9733 139.187 35.3881 139.076 35.1459C138.975 34.8936 138.712 34.7675 138.288 34.7675C137.945 34.7675 137.688 34.8835 137.516 35.1156C137.345 35.3376 137.259 35.6757 137.259 36.1298C137.259 36.7453 137.3 37.1994 137.38 37.4921C137.471 37.7746 137.728 38.0874 138.152 38.4305C138.586 38.7736 139.469 39.2732 140.801 39.9291C142.577 40.7969 143.743 41.6143 144.298 42.3812C144.853 43.1482 145.13 44.2632 145.13 45.7264C145.13 47.3612 144.918 48.5974 144.495 49.4349C144.071 50.2624 143.359 50.9032 142.36 51.3573C141.371 51.8013 140.175 52.0233 138.773 52.0233C137.219 52.0233 135.887 51.7811 134.777 51.2968C133.677 50.8124 132.92 50.1565 132.506 49.329C132.092 48.5015 131.886 47.2502 131.886 45.5751V44.6063H137.305V45.8778C137.305 46.9576 137.37 47.6589 137.501 47.9818C137.643 48.3047 137.915 48.4662 138.319 48.4662C138.753 48.4662 139.055 48.3602 139.227 48.1483C139.398 47.9263 139.484 47.4672 139.484 46.7709C139.484 45.8122 139.373 45.2118 139.151 44.9696C138.919 44.7274 137.733 44.0109 135.594 42.8202C133.798 41.8111 132.703 40.8978 132.309 40.0804C131.916 39.253 131.719 38.2741 131.719 37.1439C131.719 35.5394 131.931 34.3588 132.355 33.6019C132.779 32.835 133.495 32.2447 134.504 31.8309C135.523 31.4172 136.704 31.2103 138.046 31.2103C139.378 31.2103 140.509 31.3819 141.437 31.725C142.375 32.058 143.092 32.502 143.586 33.057C144.091 33.612 144.394 34.1267 144.495 34.601C144.606 35.0752 144.661 35.8169 144.661 36.826V37.9916Z" fill="black"/>
<path id="Vector_6" d="M71.18 23.81C69.5646 20.6893 67.6166 17.7522 65.37 15.05L65.7 15.64C67.8116 19.2745 69.2322 23.2685 69.89 27.42C70.5 31.53 70.89 35.68 71.09 39.83C71.335 44.0609 71.305 48.3031 71 52.53C70.8569 55.5129 70.312 58.4629 69.38 61.3C71.46 60.38 73.5733 59.5534 75.72 58.8201C75.92 56.6901 76.01 54.55 76.05 52.42C76.24 42.88 75.63 32.43 71.18 23.81Z" fill="#8A5835"/>
<path id="Vector_7" d="M68.25 26.39C67.25 20.52 64.03 14.81 60.39 10.11C53.3337 14.7688 46.9651 20.3935 41.47 26.82C35.75 33.75 31.3 42.13 30.72 51.24C30.5107 53.9658 30.7198 56.7075 31.34 59.37C32.1 59.1 32.85 58.85 33.6 58.61C35.97 57.87 35.01 60.96 37.5 61C38.13 61 42.12 57.48 42.73 57.55C42.4865 56.8342 42.2927 56.1025 42.15 55.36C41.98 54.56 41.86 53.75 41.76 52.94C41.5549 51.3245 41.4447 49.6984 41.43 48.07C41.4123 46.422 41.5395 44.7757 41.81 43.15C41.9549 42.321 42.1418 41.5 42.37 40.69C42.42 40.48 42.5 40.27 42.57 40.06C42.64 39.85 42.71 39.63 42.78 39.46L43.2 38.34C43.75 36.83 44.3 35.34 44.91 33.8C45.52 32.26 46.22 30.8 46.99 29.37C48.5398 26.5039 50.5385 23.9043 52.91 21.67L53.08 21.83C52.0443 23.0452 51.0953 24.3317 50.24 25.68C49.3988 27.0243 48.6633 28.4318 48.04 29.89C47.4065 31.3433 46.8491 32.8287 46.37 34.34C45.87 35.84 45.43 37.34 44.98 38.92L44.64 40.09C44.5817 40.2701 44.5349 40.4539 44.5 40.64C44.5 40.82 44.41 40.99 44.38 41.17C44.2483 41.9245 44.1582 42.6856 44.11 43.45L43.77 48.15L38.5 61C40.14 61.23 44.89 61.59 46.5 62C49.56 62.77 54.02 60.21 57.08 61V60.95C57.23 60.5 57.43 60.08 57.56 59.63L57.98 58.29C58.11 57.85 58.28 57.42 58.39 56.97C58.5 56.52 58.63 56.07 58.76 55.63C58.89 55.19 59.03 54.75 59.12 54.29L59.45 52.95C59.56 52.5 59.69 52.06 59.77 51.6L60.06 50.25C60.16 49.8 60.29 49.36 60.36 48.9C60.43 48.44 60.55 48 60.64 47.55C60.73 47.1 60.86 46.65 60.93 46.19C61.1 45.28 61.29 44.38 61.45 43.46L61.83 40.7L62.06 37.93C62.11 37 62.13 36.07 62.17 35.14C62.21 34.21 62.17 33.28 62.17 32.35C62.17 31.88 62.17 31.42 62.11 30.95L62.04 29.56C61.8392 25.8237 61.1672 22.1278 60.04 18.56L60.26 18.47L60.78 19.79L61.04 20.45C61.13 20.67 61.22 20.89 61.29 21.12L61.71 22.48C61.84 22.93 62 23.38 62.1 23.85L62.43 25.23C62.54 25.7 62.66 26.16 62.73 26.63L63 28C63.08 28.47 63.17 28.94 63.22 29.41L63.4 30.83C63.45 31.3 63.52 31.77 63.54 32.25C63.61 33.25 63.7 34.15 63.73 35.1C63.76 36.05 63.73 37 63.73 37.96L63.65 40.82L63.46 43.68C63.38 44.68 63.27 45.58 63.18 46.54C63.09 47.5 62.87 48.43 62.7 49.38C62.53 50.33 62.23 51.24 61.99 52.17C61.86 52.63 61.7 53.09 61.54 53.54C61.38 53.99 61.21 54.45 61.04 54.9C60.87 55.35 60.68 55.79 60.48 56.23C60.28 56.67 60.09 57.1 59.88 57.54C59.6792 57.9767 59.4522 58.4008 59.2 58.81L58.48 60.06C58.36 60.27 58.22 60.46 58.08 60.66L57.73 61.14L65.51 63.14C66.19 62.79 66.86 62.46 67.51 62.14C67.4888 62.0046 67.5061 61.866 67.56 61.74C69.05 58.27 69.39 54.32 69.56 50.59C70.0054 42.4997 69.5661 34.3849 68.25 26.39V26.39ZM56.25 30.65C56.18 32.02 56.09 33.4 55.98 34.77L55.79 36.84L55.56 38.9C55.47 39.59 55.39 40.27 55.31 40.96C55.23 41.65 55.13 42.34 55.04 43.03C54.8336 44.4133 54.5159 45.7778 54.09 47.11C53.67 48.4525 53.1451 49.7598 52.52 51.02C52.3693 51.3383 52.2024 51.6487 52.02 51.95L51.48 52.86C51.0907 53.4513 50.6666 54.0189 50.21 54.56L50 54.45C50.14 53.75 50.35 53.11 50.5 52.45C50.57 52.11 50.65 51.78 50.73 51.45L50.86 50.96C50.86 50.8 50.93 50.63 50.97 50.46C51.27 49.15 51.56 47.83 51.84 46.52C52.12 45.21 52.42 43.89 52.77 42.58C52.94 41.92 53.12 41.27 53.27 40.58C53.42 39.89 53.58 39.25 53.71 38.58L54.1 36.58L54.44 34.58C54.67 33.24 54.89 31.88 55.09 30.58C55.52 27.87 55.85 25.15 56.22 22.43H56.45C56.48 25.14 56.39 27.89 56.27 30.65H56.25Z" fill="#D47338"/>
<path id="Vector_8" d="M55.11 30.5299C54.91 31.8799 54.69 33.2399 54.46 34.5299L54.12 36.5299L53.73 38.5299C53.6 39.1899 53.45 39.8599 53.29 40.5299C53.13 41.1999 52.96 41.8399 52.79 42.5299C52.44 43.8399 52.14 45.1499 51.86 46.4699C51.58 47.7899 51.29 49.0999 50.99 50.4099C50.99 50.5799 50.92 50.7499 50.88 50.9099L50.75 51.3999C50.67 51.7299 50.59 52.0599 50.52 52.3999C50.37 53.0699 50.16 53.7099 50.02 54.3999L50.23 54.5099C50.6866 53.9689 51.1107 53.4012 51.5 52.8099L52 51.9999C52.1824 51.6986 52.3493 51.3882 52.5 51.0699C53.1251 49.8098 53.65 48.5024 54.07 47.1599C54.4959 45.8277 54.8136 44.4633 55.02 43.0799C55.11 42.3899 55.21 41.6999 55.29 41.0099C55.37 40.3199 55.45 39.6399 55.54 38.9499L55.77 36.8899L55.96 34.8199C56.07 33.4499 56.16 32.0699 56.23 30.6999C56.35 27.9399 56.44 25.1899 56.43 22.4399H56.2C55.87 25.0999 55.54 27.8199 55.11 30.5299Z" fill="white"/>
<path id="Vector_9" d="M31.88 61C30.73 58.24 30.52 54.43 30.72 51.27C31.3 42.16 35.72 33.78 41.47 26.85C47.1326 20.2292 53.7085 14.4479 61 9.67997L60 9.58996C63.8 14.38 67.27 20.3 68.27 26.39C69.6221 34.3776 70.0983 42.489 69.69 50.58C69.49 54.31 69.15 58.26 67.69 61.73C67.32 62.6 68.69 63.12 69.06 62.26C70.2432 59.1446 70.9184 55.8594 71.06 52.53C71.3649 48.303 71.395 44.0608 71.15 39.83C70.95 35.68 70.56 31.53 69.95 27.42C69.2922 23.2684 67.8716 19.2744 65.76 15.64C64.4224 13.1837 62.8838 10.8424 61.16 8.63997C61.0365 8.50048 60.8649 8.41271 60.6796 8.39418C60.4942 8.37564 60.3087 8.4277 60.16 8.53997C49.01 16.09 38.22 25.67 32.64 38.2C29.91 44.33 28.53 51.3 29.69 57.97C29.8695 59.1988 30.1883 60.4032 30.64 61.56C31 62.42 32.33 61.82 31.96 60.95L31.88 61Z" fill="black"/>
<path id="Vector_10" d="M77.1 59.72C77.7986 52.9747 77.7415 46.1726 76.93 39.44C76.4824 34.2653 75.192 29.1985 73.11 24.44C71.233 20.5355 68.8418 16.8999 66 13.63C64.5113 11.8471 62.8936 10.1759 61.16 8.62999C60.44 8.00999 59.6 9.20999 60.3 9.81999C64.7757 13.765 68.4728 18.5136 71.2 23.82C75.65 32.44 76.26 42.89 76.07 52.43C76.02 54.81 75.93 57.2 75.67 59.57C75.657 59.758 75.7171 59.9438 75.8379 60.0885C75.9587 60.2332 76.1308 60.3255 76.3182 60.3462C76.5055 60.3669 76.6936 60.3143 76.8431 60.1994C76.9925 60.0846 77.0918 59.9163 77.12 59.73L77.1 59.72Z" fill="black"/>
<path id="Vector_11" opacity="0.65" d="M52.27 21.18C51.1976 22.3618 50.2149 23.622 49.3299 24.95C48.4627 26.2786 47.694 27.669 47.03 29.11C46.3604 30.5447 45.7663 32.0133 45.25 33.51C44.71 35.01 44.25 36.51 43.75 38.06L43.38 39.22C43.31 39.42 43.27 39.59 43.22 39.77C43.17 39.95 43.13 40.11 43.09 40.3C42.95 41.04 42.84 41.79 42.76 42.57L42.31 47.25L41.31 56.79H41.0799C40.8156 56.0075 40.6149 55.2049 40.48 54.39C40.34 53.5767 40.23 52.7667 40.15 51.96C39.9883 50.3386 39.9215 48.7092 39.95 47.08C39.9678 45.4349 40.1352 43.7948 40.45 42.18C40.6108 41.35 40.8144 40.5289 41.06 39.72C41.12 39.52 41.21 39.31 41.28 39.1C41.35 38.89 41.43 38.68 41.51 38.51L41.96 37.4C42.54 35.91 43.13 34.4 43.77 32.9C44.4228 31.4042 45.1573 29.9454 45.97 28.53C47.5939 25.7059 49.664 23.1631 52.1 21L52.27 21.18Z" fill="white"/>
<path id="Vector_12" opacity="0.65" d="M55.64 21.82C55.58 24.57 55.42 27.32 55.24 30.07C55.13 31.44 55.01 32.81 54.87 34.19L54.63 36.25L54.35 38.25C54.24 38.94 54.14 39.62 54.05 40.31C53.96 41 53.83 41.68 53.72 42.37C53.4936 43.7279 53.1592 45.0654 52.72 46.37C52.265 47.7016 51.7066 48.9955 51.05 50.2401C50.889 50.5555 50.7121 50.8626 50.52 51.16C50.34 51.47 50.15 51.76 49.96 52.06C49.5544 52.6404 49.117 53.1979 48.65 53.73L48.45 53.61C48.6 52.92 48.82 52.28 48.99 51.61C49.08 51.28 49.16 50.95 49.25 50.61L49.39 50.12C49.39 49.96 49.47 49.79 49.51 49.63C49.85 48.32 50.16 47.01 50.51 45.7C50.86 44.39 51.16 43.09 51.51 41.79C51.69 41.14 51.89 40.49 52.06 39.79C52.23 39.09 52.39 38.48 52.55 37.79L52.98 35.79L53.37 33.79C53.64 32.45 53.89 31.1 54.12 29.79C54.61 27.1 55.01 24.38 55.45 21.67L55.64 21.82Z" fill="white"/>
<path id="Vector_13" opacity="0.65" d="M59.53 18L60.02 19.33L60.27 19.99C60.35 20.22 60.44 20.44 60.5 20.67L60.88 22.04C61.0245 22.4899 61.1447 22.9472 61.24 23.41L61.54 24.81C61.64 25.27 61.75 25.74 61.81 26.21L62.03 27.62C62.1 28.09 62.18 28.56 62.22 29.03L62.36 30.45C62.36 30.93 62.46 31.45 62.47 31.87C62.47 32.87 62.58 33.78 62.59 34.73C62.6 35.68 62.59 36.64 62.59 37.59L62.44 40.45L62.19 43.3C62.08 44.25 61.95 45.2 61.83 46.15C61.71 47.1 61.48 48.04 61.29 48.98C61.1 49.92 60.77 50.83 60.5 51.75C60.37 52.21 60.19 52.66 60.02 53.11C59.85 53.56 59.68 54.01 59.5 54.46C59.32 54.91 59.11 55.34 58.9 55.78C58.69 56.22 58.48 56.64 58.27 57.07C58.06 57.5 57.81 57.92 57.56 58.33L56.8 59.56C56.68 59.76 56.53 59.95 56.39 60.15L55.95 60.72C55.66 61.1 55.36 61.48 55.05 61.84L54.86 61.72C55.01 61.26 55.18 60.82 55.35 60.38C55.52 59.94 55.72 59.52 55.85 59.07L56.31 57.75C56.45 57.31 56.64 56.88 56.75 56.43C56.86 55.98 57.02 55.54 57.16 55.1C57.3 54.66 57.45 54.23 57.55 53.78C57.65 53.33 57.79 52.88 57.91 52.44C58.03 52 58.17 51.56 58.26 51.1L58.59 49.76C58.7 49.31 58.84 48.87 58.92 48.42C59 47.97 59.13 47.52 59.24 47.07C59.35 46.62 59.48 46.18 59.56 45.72C59.75 44.82 59.96 43.92 60.14 43.01L60.59 40.26L60.88 37.49C60.96 36.56 61 35.63 61.07 34.71C61.14 33.79 61.07 32.85 61.14 31.92C61.14 31.45 61.14 30.98 61.14 30.52V29.12C61.0193 25.3946 60.4313 21.699 59.39 18.12L59.53 18Z" fill="white"/>
<path id="Vector_14" d="M53.08 21.83C52.0443 23.0452 51.0953 24.3317 50.24 25.68C49.3988 27.0243 48.6632 28.4318 48.04 29.89C47.4064 31.3433 46.849 32.8287 46.37 34.34C45.87 35.84 45.43 37.34 44.98 38.92L44.64 40.09C44.5817 40.2702 44.5349 40.4539 44.5 40.64C44.5 40.82 44.41 40.99 44.38 41.17C44.2483 41.9245 44.1581 42.6856 44.11 43.45L43.77 48.15L43.03 57.71H42.8C42.5147 56.9336 42.2973 56.1339 42.15 55.32C41.98 54.52 41.86 53.71 41.76 52.9C41.5548 51.2845 41.4446 49.6584 41.43 48.03C41.4123 46.382 41.5394 44.7357 41.81 43.11C41.9548 42.281 42.1417 41.46 42.37 40.65C42.42 40.44 42.5 40.23 42.57 40.02C42.64 39.81 42.71 39.59 42.78 39.42L43.2 38.3C43.75 36.79 44.3 35.3 44.91 33.76C45.52 32.22 46.22 30.76 46.99 29.33C48.5398 26.4639 50.5384 23.8643 52.91 21.63L53.08 21.83Z" fill="black"/>
<path id="Vector_15" d="M56.47 22.39C56.47 25.14 56.39 27.89 56.27 30.65C56.2 32.02 56.11 33.4 56 34.77L55.81 36.84L55.58 38.9C55.49 39.59 55.41 40.27 55.33 40.96C55.25 41.65 55.15 42.34 55.06 43.03C54.8536 44.4134 54.5359 45.7778 54.11 47.11C53.69 48.4525 53.1651 49.7599 52.54 51.02C52.3893 51.3383 52.2224 51.6487 52.04 51.95L51.5 52.86C51.1107 53.4513 50.6866 54.019 50.23 54.56L50.02 54.45C50.16 53.75 50.37 53.11 50.52 52.45C50.59 52.11 50.67 51.78 50.75 51.45L50.88 50.96C50.88 50.8 50.95 50.63 50.99 50.46C51.29 49.15 51.58 47.83 51.86 46.52C52.14 45.21 52.44 43.89 52.79 42.58C52.96 41.92 53.14 41.27 53.29 40.58C53.44 39.89 53.6 39.25 53.73 38.58L54.12 36.58L54.46 34.58C54.69 33.24 54.91 31.88 55.11 30.58C55.54 27.87 55.87 25.15 56.24 22.43L56.47 22.39Z" fill="black"/>
<path id="Vector_16" d="M60.27 18.46L60.79 19.78L61.05 20.44C61.14 20.66 61.23 20.88 61.3 21.11L61.72 22.47C61.85 22.92 62.01 23.37 62.11 23.84L62.44 25.22C62.55 25.69 62.67 26.15 62.74 26.62L63 28C63.08 28.47 63.17 28.94 63.22 29.41L63.4 30.83C63.45 31.3 63.52 31.77 63.54 32.25C63.61 33.25 63.7 34.15 63.73 35.1C63.76 36.05 63.73 37 63.73 37.96L63.65 40.82L63.46 43.68C63.38 44.68 63.27 45.58 63.18 46.54C63.09 47.5 62.87 48.43 62.7 49.38C62.53 50.33 62.23 51.24 61.99 52.17C61.86 52.63 61.7 53.09 61.54 53.54C61.38 53.99 61.21 54.45 61.04 54.9C60.87 55.35 60.68 55.79 60.48 56.23C60.28 56.67 60.09 57.1 59.88 57.54C59.6792 57.9766 59.4521 58.4008 59.2 58.81L58.48 60.06C58.36 60.27 58.22 60.46 58.08 60.66C57.94 60.86 57.8 61.05 57.65 61.24C57.37 61.63 57.08 62.01 56.78 62.39L56.58 62.27C56.73 61.81 56.89 61.36 57.04 60.92C57.19 60.48 57.39 60.05 57.52 59.6L57.94 58.26C58.07 57.82 58.24 57.39 58.35 56.94C58.46 56.49 58.59 56.04 58.72 55.6C58.85 55.16 58.99 54.72 59.08 54.26L59.41 52.92C59.52 52.47 59.65 52.03 59.73 51.57L60.02 50.22C60.12 49.77 60.25 49.33 60.32 48.87C60.39 48.41 60.51 47.97 60.6 47.52C60.69 47.07 60.82 46.62 60.89 46.16C61.06 45.25 61.25 44.35 61.41 43.43L61.79 40.67L62.02 37.9C62.07 36.97 62.09 36.04 62.13 35.11C62.17 34.18 62.13 33.25 62.13 32.32C62.13 31.85 62.13 31.39 62.07 30.92L62 29.53C61.7991 25.7937 61.1272 22.0978 60 18.53L60.27 18.46Z" fill="black"/>
<path id="Vector_17" d="M175.5 31V49C175.5 52.1826 174.236 55.2348 171.985 57.4853C169.735 59.7357 166.683 61 163.5 61H29C25.8174 61 22.7651 59.7357 20.5147 57.4853C18.2643 55.2348 17 52.1826 17 49V31" stroke="black" stroke-width="5" stroke-miterlimit="10"/>
</g>
</svg>
